<?xml version="1.0" encoding="UTF-8" standalone="no"?>
<!DOCTYPE svg PUBLIC "-//W3C//DTD SVG 1.1//EN"
 "http://www.w3.org/Graphics/SVG/1.1/DTD/svg11.dtd">
<!-- Generated by graphviz version 2.43.0 (0)
 -->
<!-- Title: ACSL&#45;flightstack&#45;winged/src/acsl_flight/include/control/platforms/qrbp/aerodynamics/aero_qrbp.hpp Pages: 1 -->
<!--zoomable 762 -->
<svg id="main" version="1.1" xmlns="http://www.w3.org/2000/svg" xmlns:xlink="http://www.w3.org/1999/xlink" xml:space="preserve" onload="init(evt)">
<style type="text/css"><![CDATA[
.edge:hover path { stroke: red; }
.edge:hover polygon { stroke: red; fill: red; }
]]></style>
<script type="text/javascript"><![CDATA[
var edges = document.getElementsByTagName('g');
if (edges && edges.length) {
  for (var i=0;i<edges.length;i++) {
    if (edges[i].id.substr(0,4)=='edge') {
      edges[i].setAttribute('class','edge');
    }
  }
}
]]></script>
        <defs>
                <circle id="rim" cx="0" cy="0" r="7"/>
                <circle id="rim2" cx="0" cy="0" r="3.5"/>
                <g id="zoomPlus">
                        <use xlink:href="#rim" fill="#404040">
                                <set attributeName="fill" to="#808080" begin="zoomplus.mouseover" end="zoomplus.mouseout"/>
                        </use>
                        <path d="M-4,0h8M0,-4v8" fill="none" stroke="white" stroke-width="1.5" pointer-events="none"/>
                </g>
                <g id="zoomMin">
                        <use xlink:href="#rim" fill="#404040">
                                <set attributeName="fill" to="#808080" begin="zoomminus.mouseover" end="zoomminus.mouseout"/>
                        </use>
                        <path d="M-4,0h8" fill="none" stroke="white" stroke-width="1.5" pointer-events="none"/>
                </g>
                <g id="dirArrow">
                        <path fill="none" stroke="white" stroke-width="1.5" d="M0,-3.0v7 M-2.5,-0.5L0,-3.0L2.5,-0.5"/>
                </g>
               <g id="resetDef">
                       <use xlink:href="#rim2" fill="#404040">
                               <set attributeName="fill" to="#808080" begin="reset.mouseover" end="reset.mouseout"/>
                       </use>
               </g>
        </defs>

<script type="text/javascript">
var viewWidth = 1684;
var viewHeight = 762;
var sectionId = 'dynsection-1';
</script>
<script xlink:href="svgpan.js"/>
<svg id="graph" class="graph">
<g id="viewport">
<title>ACSL&#45;flightstack&#45;winged/src/acsl_flight/include/control/platforms/qrbp/aerodynamics/aero_qrbp.hpp</title>
<polygon fill="white" stroke="transparent" points="-4,4 -4,-758 1679.5,-758 1679.5,4 -4,4"/>
<!-- Node1 -->
<g id="node1" class="node">
<title>Node1</title>
<g id="a_node1"><a xlink:title="Aerodynamics class for all algorithms to use with the grbp platform of ACSL.">
<polygon fill="#bfbfbf" stroke="black" points="679.5,-701.5 679.5,-753.5 840.5,-753.5 840.5,-701.5 679.5,-701.5"/>
<text text-anchor="start" x="687.5" y="-741.5" font-family="Helvetica,sans-Serif" font-size="10.00">ACSL&#45;flightstack&#45;winged</text>
<text text-anchor="start" x="687.5" y="-730.5" font-family="Helvetica,sans-Serif" font-size="10.00">/src/acsl_flight/include</text>
<text text-anchor="start" x="687.5" y="-719.5" font-family="Helvetica,sans-Serif" font-size="10.00">/control/platforms/qrbp</text>
<text text-anchor="middle" x="760" y="-708.5" font-family="Helvetica,sans-Serif" font-size="10.00">/aerodynamics/aero_qrbp.hpp</text>
</a>
</g>
</g>
<!-- Node2 -->
<g id="node2" class="node">
<title>Node2</title>
<g id="a_node2"><a xlink:href="MRAC__OMEGA__members_8hpp.html" target="_top" xlink:title="MRAC with angular velocities controller class members.">
<polygon fill="white" stroke="black" points="175,-601.5 175,-664.5 381,-664.5 381,-601.5 175,-601.5"/>
<text text-anchor="start" x="183" y="-652.5" font-family="Helvetica,sans-Serif" font-size="10.00">ACSL&#45;flightstack&#45;winged</text>
<text text-anchor="start" x="183" y="-641.5" font-family="Helvetica,sans-Serif" font-size="10.00">/src/acsl_flight/include</text>
<text text-anchor="start" x="183" y="-630.5" font-family="Helvetica,sans-Serif" font-size="10.00">/control/platforms/qrbp</text>
<text text-anchor="start" x="183" y="-619.5" font-family="Helvetica,sans-Serif" font-size="10.00">/control_algorithms/MRAC</text>
<text text-anchor="middle" x="278" y="-608.5" font-family="Helvetica,sans-Serif" font-size="10.00">_OMEGA/MRAC_OMEGA_members.hpp</text>
</a>
</g>
</g>
<!-- Node1&#45;&gt;Node2 -->
<g id="edge1" class="edge">
<title>Node1&#45;&gt;Node2</title>
<path fill="none" stroke="midnightblue" d="M669.28,-709.09C587.34,-693.36 466.83,-670.24 381.23,-653.81"/>
<polygon fill="midnightblue" stroke="midnightblue" points="668.84,-712.57 679.32,-711.02 670.16,-705.7 668.84,-712.57"/>
</g>
<!-- Node7 -->
<g id="node7" class="node">
<title>Node7</title>
<g id="a_node7"><a xlink:href="MRAC__PID__members_8hpp.html" target="_top" xlink:title="MRAC_PID controller class members.">
<polygon fill="white" stroke="black" points="579.5,-601.5 579.5,-664.5 744.5,-664.5 744.5,-601.5 579.5,-601.5"/>
<text text-anchor="start" x="587.5" y="-652.5" font-family="Helvetica,sans-Serif" font-size="10.00">ACSL&#45;flightstack&#45;winged</text>
<text text-anchor="start" x="587.5" y="-641.5" font-family="Helvetica,sans-Serif" font-size="10.00">/src/acsl_flight/include</text>
<text text-anchor="start" x="587.5" y="-630.5" font-family="Helvetica,sans-Serif" font-size="10.00">/control/platforms/qrbp</text>
<text text-anchor="start" x="587.5" y="-619.5" font-family="Helvetica,sans-Serif" font-size="10.00">/control_algorithms/MRAC</text>
<text text-anchor="middle" x="662" y="-608.5" font-family="Helvetica,sans-Serif" font-size="10.00">_PID/MRAC_PID_members.hpp</text>
</a>
</g>
</g>
<!-- Node1&#45;&gt;Node7 -->
<g id="edge7" class="edge">
<title>Node1&#45;&gt;Node7</title>
<path fill="none" stroke="midnightblue" d="M726.2,-694.6C715.93,-684.91 704.67,-674.28 694.49,-664.66"/>
<polygon fill="midnightblue" stroke="midnightblue" points="723.81,-697.15 733.48,-701.47 728.61,-692.06 723.81,-697.15"/>
</g>
<!-- Node12 -->
<g id="node12" class="node">
<title>Node12</title>
<g id="a_node12"><a xlink:href="PID__members_8hpp.html" target="_top" xlink:title="PID controller class members.">
<polygon fill="white" stroke="black" points="794,-601.5 794,-664.5 944,-664.5 944,-601.5 794,-601.5"/>
<text text-anchor="start" x="802" y="-652.5" font-family="Helvetica,sans-Serif" font-size="10.00">ACSL&#45;flightstack&#45;winged</text>
<text text-anchor="start" x="802" y="-641.5" font-family="Helvetica,sans-Serif" font-size="10.00">/src/acsl_flight/include</text>
<text text-anchor="start" x="802" y="-630.5" font-family="Helvetica,sans-Serif" font-size="10.00">/control/platforms/qrbp</text>
<text text-anchor="start" x="802" y="-619.5" font-family="Helvetica,sans-Serif" font-size="10.00">/control_algorithms/PID/PID</text>
<text text-anchor="middle" x="869" y="-608.5" font-family="Helvetica,sans-Serif" font-size="10.00">_members.hpp</text>
</a>
</g>
</g>
<!-- Node1&#45;&gt;Node12 -->
<g id="edge13" class="edge">
<title>Node1&#45;&gt;Node12</title>
<path fill="none" stroke="midnightblue" d="M797.26,-694.88C808.77,-685.11 821.43,-674.37 832.87,-664.66"/>
<polygon fill="midnightblue" stroke="midnightblue" points="794.86,-692.33 789.5,-701.47 799.39,-697.67 794.86,-692.33"/>
</g>
<!-- Node17 -->
<g id="node17" class="node">
<title>Node17</title>
<g id="a_node17"><a xlink:href="PID__OMEGA__members_8hpp.html" target="_top" xlink:title="PID with angular velocities controller class members.">
<polygon fill="white" stroke="black" points="1129.5,-601.5 1129.5,-664.5 1302.5,-664.5 1302.5,-601.5 1129.5,-601.5"/>
<text text-anchor="start" x="1137.5" y="-652.5" font-family="Helvetica,sans-Serif" font-size="10.00">ACSL&#45;flightstack&#45;winged</text>
<text text-anchor="start" x="1137.5" y="-641.5" font-family="Helvetica,sans-Serif" font-size="10.00">/src/acsl_flight/include</text>
<text text-anchor="start" x="1137.5" y="-630.5" font-family="Helvetica,sans-Serif" font-size="10.00">/control/platforms/qrbp</text>
<text text-anchor="start" x="1137.5" y="-619.5" font-family="Helvetica,sans-Serif" font-size="10.00">/control_algorithms/PID_OMEGA</text>
<text text-anchor="middle" x="1216" y="-608.5" font-family="Helvetica,sans-Serif" font-size="10.00">/PID_OMEGA_members.hpp</text>
</a>
</g>
</g>
<!-- Node1&#45;&gt;Node17 -->
<g id="edge19" class="edge">
<title>Node1&#45;&gt;Node17</title>
<path fill="none" stroke="midnightblue" d="M850.93,-708.06C931.97,-691.62 1049.76,-667.72 1129.45,-651.56"/>
<polygon fill="midnightblue" stroke="midnightblue" points="849.84,-704.7 840.74,-710.12 851.23,-711.56 849.84,-704.7"/>
</g>
<!-- Node3 -->
<g id="node3" class="node">
<title>Node3</title>
<g id="a_node3"><a xlink:href="MRAC__OMEGA_8hpp.html" target="_top" xlink:title="MRAC with angular velocities for the QRBP.">
<polygon fill="white" stroke="black" points="16,-401.5 16,-464.5 170,-464.5 170,-401.5 16,-401.5"/>
<text text-anchor="start" x="24" y="-452.5" font-family="Helvetica,sans-Serif" font-size="10.00">ACSL&#45;flightstack&#45;winged</text>
<text text-anchor="start" x="24" y="-441.5" font-family="Helvetica,sans-Serif" font-size="10.00">/src/acsl_flight/include</text>
<text text-anchor="start" x="24" y="-430.5" font-family="Helvetica,sans-Serif" font-size="10.00">/control/platforms/qrbp</text>
<text text-anchor="start" x="24" y="-419.5" font-family="Helvetica,sans-Serif" font-size="10.00">/control_algorithms/MRAC</text>
<text text-anchor="middle" x="93" y="-408.5" font-family="Helvetica,sans-Serif" font-size="10.00">_OMEGA/MRAC_OMEGA.hpp</text>
</a>
</g>
</g>
<!-- Node2&#45;&gt;Node3 -->
<g id="edge2" class="edge">
<title>Node2&#45;&gt;Node3</title>
<path fill="none" stroke="midnightblue" d="M212.22,-595.95C198.71,-586.87 185.21,-576.42 174,-565 144.78,-535.23 121.09,-493.1 107.05,-464.72"/>
<polygon fill="midnightblue" stroke="midnightblue" points="210.32,-598.89 220.61,-601.42 214.14,-593.03 210.32,-598.89"/>
</g>
<!-- Node5 -->
<g id="node5" class="node">
<title>Node5</title>
<g id="a_node5"><a xlink:href="MRAC__OMEGA__logger_8hpp.html" target="_top" xlink:title="logging for the MRAc with angular velocities controller">
<polygon fill="white" stroke="black" points="183.5,-501.5 183.5,-564.5 372.5,-564.5 372.5,-501.5 183.5,-501.5"/>
<text text-anchor="start" x="191.5" y="-552.5" font-family="Helvetica,sans-Serif" font-size="10.00">ACSL&#45;flightstack&#45;winged</text>
<text text-anchor="start" x="191.5" y="-541.5" font-family="Helvetica,sans-Serif" font-size="10.00">/src/acsl_flight/include</text>
<text text-anchor="start" x="191.5" y="-530.5" font-family="Helvetica,sans-Serif" font-size="10.00">/control/platforms/qrbp</text>
<text text-anchor="start" x="191.5" y="-519.5" font-family="Helvetica,sans-Serif" font-size="10.00">/control_algorithms/MRAC</text>
<text text-anchor="middle" x="278" y="-508.5" font-family="Helvetica,sans-Serif" font-size="10.00">_OMEGA/MRAC_OMEGA_logger.hpp</text>
</a>
</g>
</g>
<!-- Node2&#45;&gt;Node5 -->
<g id="edge4" class="edge">
<title>Node2&#45;&gt;Node5</title>
<path fill="none" stroke="midnightblue" d="M278,-591.1C278,-582.24 278,-573.01 278,-564.63"/>
<polygon fill="midnightblue" stroke="midnightblue" points="274.5,-591.26 278,-601.26 281.5,-591.26 274.5,-591.26"/>
</g>
<!-- Node4 -->
<g id="node4" class="node">
<title>Node4</title>
<g id="a_node4"><a xlink:href="MRAC__OMEGA_8cpp.html" target="_top" xlink:title=" ">
<polygon fill="white" stroke="black" points="0,-312.5 0,-364.5 186,-364.5 186,-312.5 0,-312.5"/>
<text text-anchor="start" x="8" y="-352.5" font-family="Helvetica,sans-Serif" font-size="10.00">ACSL&#45;flightstack&#45;winged</text>
<text text-anchor="start" x="8" y="-341.5" font-family="Helvetica,sans-Serif" font-size="10.00">/src/acsl_flight/src/control</text>
<text text-anchor="start" x="8" y="-330.5" font-family="Helvetica,sans-Serif" font-size="10.00">/platforms/qrbp/control_algorithms</text>
<text text-anchor="middle" x="93" y="-319.5" font-family="Helvetica,sans-Serif" font-size="10.00">/MRAC_OMEGA/MRAC_OMEGA.cpp</text>
</a>
</g>
</g>
<!-- Node3&#45;&gt;Node4 -->
<g id="edge3" class="edge">
<title>Node3&#45;&gt;Node4</title>
<path fill="none" stroke="midnightblue" d="M93,-391.42C93,-382.36 93,-373 93,-364.77"/>
<polygon fill="midnightblue" stroke="midnightblue" points="89.5,-391.46 93,-401.46 96.5,-391.46 89.5,-391.46"/>
</g>
<!-- Node5&#45;&gt;Node3 -->
<g id="edge5" class="edge">
<title>Node5&#45;&gt;Node3</title>
<path fill="none" stroke="midnightblue" d="M211.25,-496.64C191.41,-486.13 169.86,-474.71 150.65,-464.54"/>
<polygon fill="midnightblue" stroke="midnightblue" points="209.75,-499.81 220.23,-501.4 213.03,-493.62 209.75,-499.81"/>
</g>
<!-- Node6 -->
<g id="node6" class="node">
<title>Node6</title>
<g id="a_node6"><a xlink:href="MRAC__OMEGA__logger_8cpp.html" target="_top" xlink:title=" ">
<polygon fill="white" stroke="black" points="188.5,-407 188.5,-459 409.5,-459 409.5,-407 188.5,-407"/>
<text text-anchor="start" x="196.5" y="-447" font-family="Helvetica,sans-Serif" font-size="10.00">ACSL&#45;flightstack&#45;winged</text>
<text text-anchor="start" x="196.5" y="-436" font-family="Helvetica,sans-Serif" font-size="10.00">/src/acsl_flight/src/control</text>
<text text-anchor="start" x="196.5" y="-425" font-family="Helvetica,sans-Serif" font-size="10.00">/platforms/qrbp/control_algorithms</text>
<text text-anchor="middle" x="299" y="-414" font-family="Helvetica,sans-Serif" font-size="10.00">/MRAC_OMEGA/MRAC_OMEGA_logger.cpp</text>
</a>
</g>
</g>
<!-- Node5&#45;&gt;Node6 -->
<g id="edge6" class="edge">
<title>Node5&#45;&gt;Node6</title>
<path fill="none" stroke="midnightblue" d="M286.7,-491.42C289.05,-480.45 291.52,-468.89 293.63,-459.05"/>
<polygon fill="midnightblue" stroke="midnightblue" points="283.26,-490.75 284.59,-501.26 290.1,-492.22 283.26,-490.75"/>
</g>
<!-- Node8 -->
<g id="node8" class="node">
<title>Node8</title>
<g id="a_node8"><a xlink:href="MRAC__PID_8hpp.html" target="_top" xlink:title="MRAC_PID for the QRBP.">
<polygon fill="white" stroke="black" points="427.5,-401.5 427.5,-464.5 570.5,-464.5 570.5,-401.5 427.5,-401.5"/>
<text text-anchor="start" x="435.5" y="-452.5" font-family="Helvetica,sans-Serif" font-size="10.00">ACSL&#45;flightstack&#45;winged</text>
<text text-anchor="start" x="435.5" y="-441.5" font-family="Helvetica,sans-Serif" font-size="10.00">/src/acsl_flight/include</text>
<text text-anchor="start" x="435.5" y="-430.5" font-family="Helvetica,sans-Serif" font-size="10.00">/control/platforms/qrbp</text>
<text text-anchor="start" x="435.5" y="-419.5" font-family="Helvetica,sans-Serif" font-size="10.00">/control_algorithms/MRAC</text>
<text text-anchor="middle" x="499" y="-408.5" font-family="Helvetica,sans-Serif" font-size="10.00">_PID/MRAC_PID.hpp</text>
</a>
</g>
</g>
<!-- Node7&#45;&gt;Node8 -->
<g id="edge8" class="edge">
<title>Node7&#45;&gt;Node8</title>
<path fill="none" stroke="midnightblue" d="M609.52,-594.89C598.44,-585.8 587.3,-575.61 578,-565 550.85,-534.05 527.62,-492.56 513.51,-464.63"/>
<polygon fill="midnightblue" stroke="midnightblue" points="607.55,-597.79 617.55,-601.3 611.92,-592.33 607.55,-597.79"/>
</g>
<!-- Node10 -->
<g id="node10" class="node">
<title>Node10</title>
<g id="a_node10"><a xlink:href="MRAC__PID__logger_8hpp.html" target="_top" xlink:title="logging for the MRAC_PID controller.">
<polygon fill="white" stroke="black" points="587.5,-501.5 587.5,-564.5 736.5,-564.5 736.5,-501.5 587.5,-501.5"/>
<text text-anchor="start" x="595.5" y="-552.5" font-family="Helvetica,sans-Serif" font-size="10.00">ACSL&#45;flightstack&#45;winged</text>
<text text-anchor="start" x="595.5" y="-541.5" font-family="Helvetica,sans-Serif" font-size="10.00">/src/acsl_flight/include</text>
<text text-anchor="start" x="595.5" y="-530.5" font-family="Helvetica,sans-Serif" font-size="10.00">/control/platforms/qrbp</text>
<text text-anchor="start" x="595.5" y="-519.5" font-family="Helvetica,sans-Serif" font-size="10.00">/control_algorithms/MRAC</text>
<text text-anchor="middle" x="662" y="-508.5" font-family="Helvetica,sans-Serif" font-size="10.00">_PID/MRAC_PID_logger.hpp</text>
</a>
</g>
</g>
<!-- Node7&#45;&gt;Node10 -->
<g id="edge10" class="edge">
<title>Node7&#45;&gt;Node10</title>
<path fill="none" stroke="midnightblue" d="M662,-591.1C662,-582.24 662,-573.01 662,-564.63"/>
<polygon fill="midnightblue" stroke="midnightblue" points="658.5,-591.26 662,-601.26 665.5,-591.26 658.5,-591.26"/>
</g>
<!-- Node9 -->
<g id="node9" class="node">
<title>Node9</title>
<g id="a_node9"><a xlink:href="MRAC__PID_8cpp.html" target="_top" xlink:title=" ">
<polygon fill="white" stroke="black" points="406,-312.5 406,-364.5 592,-364.5 592,-312.5 406,-312.5"/>
<text text-anchor="start" x="414" y="-352.5" font-family="Helvetica,sans-Serif" font-size="10.00">ACSL&#45;flightstack&#45;winged</text>
<text text-anchor="start" x="414" y="-341.5" font-family="Helvetica,sans-Serif" font-size="10.00">/src/acsl_flight/src/control</text>
<text text-anchor="start" x="414" y="-330.5" font-family="Helvetica,sans-Serif" font-size="10.00">/platforms/qrbp/control_algorithms</text>
<text text-anchor="middle" x="499" y="-319.5" font-family="Helvetica,sans-Serif" font-size="10.00">/MRAC_PID/MRAC_PID.cpp</text>
</a>
</g>
</g>
<!-- Node8&#45;&gt;Node9 -->
<g id="edge9" class="edge">
<title>Node8&#45;&gt;Node9</title>
<path fill="none" stroke="midnightblue" d="M499,-391.42C499,-382.36 499,-373 499,-364.77"/>
<polygon fill="midnightblue" stroke="midnightblue" points="495.5,-391.46 499,-401.46 502.5,-391.46 495.5,-391.46"/>
</g>
<!-- Node10&#45;&gt;Node8 -->
<g id="edge11" class="edge">
<title>Node10&#45;&gt;Node8</title>
<path fill="none" stroke="midnightblue" d="M602.07,-495.97C584.95,-485.68 566.47,-474.56 549.95,-464.63"/>
<polygon fill="midnightblue" stroke="midnightblue" points="600.5,-499.11 610.87,-501.26 604.11,-493.11 600.5,-499.11"/>
</g>
<!-- Node11 -->
<g id="node11" class="node">
<title>Node11</title>
<g id="a_node11"><a xlink:href="MRAC__PID__logger_8cpp.html" target="_top" xlink:title=" ">
<polygon fill="white" stroke="black" points="589,-407 589,-459 775,-459 775,-407 589,-407"/>
<text text-anchor="start" x="597" y="-447" font-family="Helvetica,sans-Serif" font-size="10.00">ACSL&#45;flightstack&#45;winged</text>
<text text-anchor="start" x="597" y="-436" font-family="Helvetica,sans-Serif" font-size="10.00">/src/acsl_flight/src/control</text>
<text text-anchor="start" x="597" y="-425" font-family="Helvetica,sans-Serif" font-size="10.00">/platforms/qrbp/control_algorithms</text>
<text text-anchor="middle" x="682" y="-414" font-family="Helvetica,sans-Serif" font-size="10.00">/MRAC_PID/MRAC_PID_logger.cpp</text>
</a>
</g>
</g>
<!-- Node10&#45;&gt;Node11 -->
<g id="edge12" class="edge">
<title>Node10&#45;&gt;Node11</title>
<path fill="none" stroke="midnightblue" d="M670.28,-491.42C672.52,-480.45 674.88,-468.89 676.89,-459.05"/>
<polygon fill="midnightblue" stroke="midnightblue" points="666.84,-490.76 668.27,-501.26 673.7,-492.16 666.84,-490.76"/>
</g>
<!-- Node13 -->
<g id="node13" class="node">
<title>Node13</title>
<g id="a_node13"><a xlink:href="PID_8hpp.html" target="_top" xlink:title="PID for the QRBP.">
<polygon fill="white" stroke="black" points="793.5,-407 793.5,-459 964.5,-459 964.5,-407 793.5,-407"/>
<text text-anchor="start" x="801.5" y="-447" font-family="Helvetica,sans-Serif" font-size="10.00">ACSL&#45;flightstack&#45;winged</text>
<text text-anchor="start" x="801.5" y="-436" font-family="Helvetica,sans-Serif" font-size="10.00">/src/acsl_flight/include</text>
<text text-anchor="start" x="801.5" y="-425" font-family="Helvetica,sans-Serif" font-size="10.00">/control/platforms/qrbp</text>
<text text-anchor="middle" x="879" y="-414" font-family="Helvetica,sans-Serif" font-size="10.00">/control_algorithms/PID/PID.hpp</text>
</a>
</g>
</g>
<!-- Node12&#45;&gt;Node13 -->
<g id="edge14" class="edge">
<title>Node12&#45;&gt;Node13</title>
<path fill="none" stroke="midnightblue" d="M871.05,-591.36C873.06,-551.67 876.04,-492.52 877.73,-459.2"/>
<polygon fill="midnightblue" stroke="midnightblue" points="867.55,-591.33 870.54,-601.5 874.54,-591.69 867.55,-591.33"/>
</g>
<!-- Node15 -->
<g id="node15" class="node">
<title>Node15</title>
<g id="a_node15"><a xlink:href="PID__logger_8hpp.html" target="_top" xlink:title="logging for the PID controller">
<polygon fill="white" stroke="black" points="897,-501.5 897,-564.5 1047,-564.5 1047,-501.5 897,-501.5"/>
<text text-anchor="start" x="905" y="-552.5" font-family="Helvetica,sans-Serif" font-size="10.00">ACSL&#45;flightstack&#45;winged</text>
<text text-anchor="start" x="905" y="-541.5" font-family="Helvetica,sans-Serif" font-size="10.00">/src/acsl_flight/include</text>
<text text-anchor="start" x="905" y="-530.5" font-family="Helvetica,sans-Serif" font-size="10.00">/control/platforms/qrbp</text>
<text text-anchor="start" x="905" y="-519.5" font-family="Helvetica,sans-Serif" font-size="10.00">/control_algorithms/PID/PID</text>
<text text-anchor="middle" x="972" y="-508.5" font-family="Helvetica,sans-Serif" font-size="10.00">_logger.hpp</text>
</a>
</g>
</g>
<!-- Node12&#45;&gt;Node15 -->
<g id="edge16" class="edge">
<title>Node12&#45;&gt;Node15</title>
<path fill="none" stroke="midnightblue" d="M908.67,-594.26C918.97,-584.46 929.94,-574.02 939.81,-564.63"/>
<polygon fill="midnightblue" stroke="midnightblue" points="906.14,-591.83 901.31,-601.26 910.96,-596.9 906.14,-591.83"/>
</g>
<!-- Node14 -->
<g id="node14" class="node">
<title>Node14</title>
<g id="a_node14"><a xlink:href="PID_8cpp.html" target="_top" xlink:title=" ">
<polygon fill="white" stroke="black" points="786,-312.5 786,-364.5 972,-364.5 972,-312.5 786,-312.5"/>
<text text-anchor="start" x="794" y="-352.5" font-family="Helvetica,sans-Serif" font-size="10.00">ACSL&#45;flightstack&#45;winged</text>
<text text-anchor="start" x="794" y="-341.5" font-family="Helvetica,sans-Serif" font-size="10.00">/src/acsl_flight/src/control</text>
<text text-anchor="start" x="794" y="-330.5" font-family="Helvetica,sans-Serif" font-size="10.00">/platforms/qrbp/control_algorithms</text>
<text text-anchor="middle" x="879" y="-319.5" font-family="Helvetica,sans-Serif" font-size="10.00">/PID/PID.cpp</text>
</a>
</g>
</g>
<!-- Node13&#45;&gt;Node14 -->
<g id="edge15" class="edge">
<title>Node13&#45;&gt;Node14</title>
<path fill="none" stroke="midnightblue" d="M879,-396.49C879,-385.91 879,-374.53 879,-364.75"/>
<polygon fill="midnightblue" stroke="midnightblue" points="875.5,-396.72 879,-406.72 882.5,-396.72 875.5,-396.72"/>
</g>
<!-- Node15&#45;&gt;Node13 -->
<g id="edge17" class="edge">
<title>Node15&#45;&gt;Node13</title>
<path fill="none" stroke="midnightblue" d="M935.71,-493.76C924.65,-482.1 912.78,-469.6 902.78,-459.05"/>
<polygon fill="midnightblue" stroke="midnightblue" points="933.41,-496.42 942.83,-501.26 938.48,-491.6 933.41,-496.42"/>
</g>
<!-- Node16 -->
<g id="node16" class="node">
<title>Node16</title>
<g id="a_node16"><a xlink:href="PID__logger_8cpp.html" target="_top" xlink:title=" ">
<polygon fill="white" stroke="black" points="983,-407 983,-459 1169,-459 1169,-407 983,-407"/>
<text text-anchor="start" x="991" y="-447" font-family="Helvetica,sans-Serif" font-size="10.00">ACSL&#45;flightstack&#45;winged</text>
<text text-anchor="start" x="991" y="-436" font-family="Helvetica,sans-Serif" font-size="10.00">/src/acsl_flight/src/control</text>
<text text-anchor="start" x="991" y="-425" font-family="Helvetica,sans-Serif" font-size="10.00">/platforms/qrbp/control_algorithms</text>
<text text-anchor="middle" x="1076" y="-414" font-family="Helvetica,sans-Serif" font-size="10.00">/PID/PID_logger.cpp</text>
</a>
</g>
</g>
<!-- Node15&#45;&gt;Node16 -->
<g id="edge18" class="edge">
<title>Node15&#45;&gt;Node16</title>
<path fill="none" stroke="midnightblue" d="M1012.23,-494.09C1024.7,-482.34 1038.12,-469.7 1049.41,-459.05"/>
<polygon fill="midnightblue" stroke="midnightblue" points="1009.5,-491.86 1004.62,-501.26 1014.3,-496.95 1009.5,-491.86"/>
</g>
<!-- Node18 -->
<g id="node18" class="node">
<title>Node18</title>
<g id="a_node18"><a xlink:href="PID__OMEGA_8hpp.html" target="_top" xlink:title="PID with angular veocities for the QRBP.">
<polygon fill="white" stroke="black" points="1187.5,-401.5 1187.5,-464.5 1360.5,-464.5 1360.5,-401.5 1187.5,-401.5"/>
<text text-anchor="start" x="1195.5" y="-452.5" font-family="Helvetica,sans-Serif" font-size="10.00">ACSL&#45;flightstack&#45;winged</text>
<text text-anchor="start" x="1195.5" y="-441.5" font-family="Helvetica,sans-Serif" font-size="10.00">/src/acsl_flight/include</text>
<text text-anchor="start" x="1195.5" y="-430.5" font-family="Helvetica,sans-Serif" font-size="10.00">/control/platforms/qrbp</text>
<text text-anchor="start" x="1195.5" y="-419.5" font-family="Helvetica,sans-Serif" font-size="10.00">/control_algorithms/PID_OMEGA</text>
<text text-anchor="middle" x="1274" y="-408.5" font-family="Helvetica,sans-Serif" font-size="10.00">/PID_OMEGA.hpp</text>
</a>
</g>
</g>
<!-- Node17&#45;&gt;Node18 -->
<g id="edge20" class="edge">
<title>Node17&#45;&gt;Node18</title>
<path fill="none" stroke="midnightblue" d="M1217.89,-591.28C1220.08,-564.93 1224.81,-530.21 1235,-501 1239.34,-488.55 1246.08,-475.81 1252.73,-464.83"/>
<polygon fill="midnightblue" stroke="midnightblue" points="1214.4,-591.07 1217.15,-601.3 1221.38,-591.59 1214.4,-591.07"/>
</g>
<!-- Node31 -->
<g id="node31" class="node">
<title>Node31</title>
<g id="a_node31"><a xlink:href="PID__OMEGA__logger_8hpp.html" target="_top" xlink:title="Logger for the PID controller.">
<polygon fill="white" stroke="black" points="1244.5,-501.5 1244.5,-564.5 1417.5,-564.5 1417.5,-501.5 1244.5,-501.5"/>
<text text-anchor="start" x="1252.5" y="-552.5" font-family="Helvetica,sans-Serif" font-size="10.00">ACSL&#45;flightstack&#45;winged</text>
<text text-anchor="start" x="1252.5" y="-541.5" font-family="Helvetica,sans-Serif" font-size="10.00">/src/acsl_flight/include</text>
<text text-anchor="start" x="1252.5" y="-530.5" font-family="Helvetica,sans-Serif" font-size="10.00">/control/platforms/qrbp</text>
<text text-anchor="start" x="1252.5" y="-519.5" font-family="Helvetica,sans-Serif" font-size="10.00">/control_algorithms/PID_OMEGA</text>
<text text-anchor="middle" x="1331" y="-508.5" font-family="Helvetica,sans-Serif" font-size="10.00">/PID_OMEGA_logger.hpp</text>
</a>
</g>
</g>
<!-- Node17&#45;&gt;Node31 -->
<g id="edge37" class="edge">
<title>Node17&#45;&gt;Node31</title>
<path fill="none" stroke="midnightblue" d="M1259.95,-594.54C1271.55,-584.66 1283.93,-574.11 1295.06,-564.63"/>
<polygon fill="midnightblue" stroke="midnightblue" points="1257.41,-592.11 1252.07,-601.26 1261.95,-597.44 1257.41,-592.11"/>
</g>
<!-- Node19 -->
<g id="node19" class="node">
<title>Node19</title>
<g id="a_node19"><a xlink:href="control__config_8hpp.html" target="_top" xlink:title="Just a header file for configuring which platform and controller to pick during compilation.">
<polygon fill="white" stroke="black" points="1293,-318 1293,-359 1439,-359 1439,-318 1293,-318"/>
<text text-anchor="start" x="1301" y="-347" font-family="Helvetica,sans-Serif" font-size="10.00">ACSL&#45;flightstack&#45;winged</text>
<text text-anchor="start" x="1301" y="-336" font-family="Helvetica,sans-Serif" font-size="10.00">/src/acsl_flight/include</text>
<text text-anchor="middle" x="1366" y="-325" font-family="Helvetica,sans-Serif" font-size="10.00">/control/control_config.hpp</text>
</a>
</g>
</g>
<!-- Node18&#45;&gt;Node19 -->
<g id="edge21" class="edge">
<title>Node18&#45;&gt;Node19</title>
<path fill="none" stroke="midnightblue" d="M1311.66,-394.13C1323.57,-382.16 1336.25,-369.41 1346.36,-359.25"/>
<polygon fill="midnightblue" stroke="midnightblue" points="1308.95,-391.9 1304.38,-401.46 1313.91,-396.83 1308.95,-391.9"/>
</g>
<!-- Node30 -->
<g id="node30" class="node">
<title>Node30</title>
<g id="a_node30"><a xlink:href="PID__OMEGA_8cpp.html" target="_top" xlink:title=" ">
<polygon fill="white" stroke="black" points="1089,-312.5 1089,-364.5 1275,-364.5 1275,-312.5 1089,-312.5"/>
<text text-anchor="start" x="1097" y="-352.5" font-family="Helvetica,sans-Serif" font-size="10.00">ACSL&#45;flightstack&#45;winged</text>
<text text-anchor="start" x="1097" y="-341.5" font-family="Helvetica,sans-Serif" font-size="10.00">/src/acsl_flight/src/control</text>
<text text-anchor="start" x="1097" y="-330.5" font-family="Helvetica,sans-Serif" font-size="10.00">/platforms/qrbp/control_algorithms</text>
<text text-anchor="middle" x="1182" y="-319.5" font-family="Helvetica,sans-Serif" font-size="10.00">/PID_OMEGA/PID_OMEGA.cpp</text>
</a>
</g>
</g>
<!-- Node18&#45;&gt;Node30 -->
<g id="edge36" class="edge">
<title>Node18&#45;&gt;Node30</title>
<path fill="none" stroke="midnightblue" d="M1236.54,-394.33C1226.64,-384.38 1216.2,-373.88 1207.13,-364.77"/>
<polygon fill="midnightblue" stroke="midnightblue" points="1234.09,-396.83 1243.62,-401.46 1239.05,-391.9 1234.09,-396.83"/>
</g>
<!-- Node20 -->
<g id="node20" class="node">
<title>Node20</title>
<g id="a_node20"><a xlink:href="control_8hpp.html" target="_top" xlink:title="Class declaration for computing and publishing the control.">
<polygon fill="white" stroke="black" points="1154.5,-234.5 1154.5,-275.5 1289.5,-275.5 1289.5,-234.5 1154.5,-234.5"/>
<text text-anchor="start" x="1162.5" y="-263.5" font-family="Helvetica,sans-Serif" font-size="10.00">ACSL&#45;flightstack&#45;winged</text>
<text text-anchor="start" x="1162.5" y="-252.5" font-family="Helvetica,sans-Serif" font-size="10.00">/src/acsl_flight/include</text>
<text text-anchor="middle" x="1222" y="-241.5" font-family="Helvetica,sans-Serif" font-size="10.00">/control/control.hpp</text>
</a>
</g>
</g>
<!-- Node19&#45;&gt;Node20 -->
<g id="edge22" class="edge">
<title>Node19&#45;&gt;Node20</title>
<path fill="none" stroke="midnightblue" d="M1322.73,-313.01C1301.61,-301.06 1276.55,-286.87 1256.71,-275.64"/>
<polygon fill="midnightblue" stroke="midnightblue" points="1321.08,-316.1 1331.51,-317.98 1324.53,-310.01 1321.08,-316.1"/>
</g>
<!-- Node21 -->
<g id="node21" class="node">
<title>Node21</title>
<g id="a_node21"><a xlink:href="flight__bridge_8hpp.html" target="_top" xlink:title=" ">
<polygon fill="white" stroke="black" points="1198.5,-156.5 1198.5,-197.5 1363.5,-197.5 1363.5,-156.5 1198.5,-156.5"/>
<text text-anchor="start" x="1206.5" y="-185.5" font-family="Helvetica,sans-Serif" font-size="10.00">ACSL&#45;flightstack&#45;winged</text>
<text text-anchor="start" x="1206.5" y="-174.5" font-family="Helvetica,sans-Serif" font-size="10.00">/src/acsl_flight/include</text>
<text text-anchor="middle" x="1281" y="-163.5" font-family="Helvetica,sans-Serif" font-size="10.00">/flight_bridge/flight_bridge.hpp</text>
</a>
</g>
</g>
<!-- Node19&#45;&gt;Node21 -->
<g id="edge29" class="edge">
<title>Node19&#45;&gt;Node21</title>
<path fill="none" stroke="midnightblue" d="M1350.84,-309.05C1333.74,-276.97 1306.4,-225.67 1291.51,-197.72"/>
<polygon fill="midnightblue" stroke="midnightblue" points="1347.79,-310.76 1355.58,-317.94 1353.96,-307.47 1347.79,-310.76"/>
</g>
<!-- Node26 -->
<g id="node26" class="node">
<title>Node26</title>
<g id="a_node26"><a xlink:href="mocap_8hpp.html" target="_top" xlink:title="Class declaration for UDP socket as a lifecycle node.">
<polygon fill="white" stroke="black" points="1346.5,-234.5 1346.5,-275.5 1481.5,-275.5 1481.5,-234.5 1346.5,-234.5"/>
<text text-anchor="start" x="1354.5" y="-263.5" font-family="Helvetica,sans-Serif" font-size="10.00">ACSL&#45;flightstack&#45;winged</text>
<text text-anchor="start" x="1354.5" y="-252.5" font-family="Helvetica,sans-Serif" font-size="10.00">/src/acsl_flight/include</text>
<text text-anchor="middle" x="1414" y="-241.5" font-family="Helvetica,sans-Serif" font-size="10.00">/mocap/mocap.hpp</text>
</a>
</g>
</g>
<!-- Node19&#45;&gt;Node26 -->
<g id="edge30" class="edge">
<title>Node19&#45;&gt;Node26</title>
<path fill="none" stroke="midnightblue" d="M1382.85,-308.89C1389.34,-297.87 1396.61,-285.53 1402.49,-275.55"/>
<polygon fill="midnightblue" stroke="midnightblue" points="1379.68,-307.38 1377.62,-317.77 1385.71,-310.93 1379.68,-307.38"/>
</g>
<!-- Node28 -->
<g id="node28" class="node">
<title>Node28</title>
<g id="a_node28"><a xlink:href="vio_8hpp.html" target="_top" xlink:title=" ">
<polygon fill="white" stroke="black" points="1499.5,-234.5 1499.5,-275.5 1634.5,-275.5 1634.5,-234.5 1499.5,-234.5"/>
<text text-anchor="start" x="1507.5" y="-263.5" font-family="Helvetica,sans-Serif" font-size="10.00">ACSL&#45;flightstack&#45;winged</text>
<text text-anchor="start" x="1507.5" y="-252.5" font-family="Helvetica,sans-Serif" font-size="10.00">/src/acsl_flight/include</text>
<text text-anchor="middle" x="1567" y="-241.5" font-family="Helvetica,sans-Serif" font-size="10.00">/vio/vio.hpp</text>
</a>
</g>
</g>
<!-- Node19&#45;&gt;Node28 -->
<g id="edge33" class="edge">
<title>Node19&#45;&gt;Node28</title>
<path fill="none" stroke="midnightblue" d="M1423.69,-314.11C1453.84,-301.89 1490.3,-287.1 1518.9,-275.5"/>
<polygon fill="midnightblue" stroke="midnightblue" points="1422.1,-310.98 1414.14,-317.98 1424.73,-317.46 1422.1,-310.98"/>
</g>
<!-- Node20&#45;&gt;Node21 -->
<g id="edge23" class="edge">
<title>Node20&#45;&gt;Node21</title>
<path fill="none" stroke="midnightblue" d="M1237.16,-226.05C1244.11,-216.57 1252.36,-206.18 1259.88,-197.51"/>
<polygon fill="midnightblue" stroke="midnightblue" points="1234.15,-224.25 1231.21,-234.43 1239.85,-228.31 1234.15,-224.25"/>
</g>
<!-- Node25 -->
<g id="node25" class="node">
<title>Node25</title>
<g id="a_node25"><a xlink:href="control_8cpp.html" target="_top" xlink:title=" ">
<polygon fill="white" stroke="black" points="1040,-156.5 1040,-197.5 1180,-197.5 1180,-156.5 1040,-156.5"/>
<text text-anchor="start" x="1048" y="-185.5" font-family="Helvetica,sans-Serif" font-size="10.00">ACSL&#45;flightstack&#45;winged</text>
<text text-anchor="start" x="1048" y="-174.5" font-family="Helvetica,sans-Serif" font-size="10.00">/src/acsl_flight/src/control</text>
<text text-anchor="middle" x="1110" y="-163.5" font-family="Helvetica,sans-Serif" font-size="10.00">/control.cpp</text>
</a>
</g>
</g>
<!-- Node20&#45;&gt;Node25 -->
<g id="edge28" class="edge">
<title>Node20&#45;&gt;Node25</title>
<path fill="none" stroke="midnightblue" d="M1184.62,-228.64C1169.66,-218.49 1152.71,-206.98 1138.75,-197.51"/>
<polygon fill="midnightblue" stroke="midnightblue" points="1182.92,-231.71 1193.16,-234.43 1186.85,-225.92 1182.92,-231.71"/>
</g>
<!-- Node21&#45;&gt;Node20 -->
<g id="edge24" class="edge">
<title>Node21&#45;&gt;Node20</title>
<path fill="none" stroke="midnightblue" d="M1265.89,-205.88C1258.95,-215.36 1250.71,-225.74 1243.18,-234.43"/>
<polygon fill="midnightblue" stroke="midnightblue" points="1268.9,-207.68 1271.84,-197.51 1263.19,-203.63 1268.9,-207.68"/>
</g>
<!-- Node22 -->
<g id="node22" class="node">
<title>Node22</title>
<g id="a_node22"><a xlink:href="flight__main_8hpp.html" target="_top" xlink:title=" ">
<polygon fill="white" stroke="black" points="1122.5,-78.5 1122.5,-119.5 1275.5,-119.5 1275.5,-78.5 1122.5,-78.5"/>
<text text-anchor="start" x="1130.5" y="-107.5" font-family="Helvetica,sans-Serif" font-size="10.00">ACSL&#45;flightstack&#45;winged</text>
<text text-anchor="start" x="1130.5" y="-96.5" font-family="Helvetica,sans-Serif" font-size="10.00">/src/acsl_flight/include</text>
<text text-anchor="middle" x="1199" y="-85.5" font-family="Helvetica,sans-Serif" font-size="10.00">/flight_main/flight_main.hpp</text>
</a>
</g>
</g>
<!-- Node21&#45;&gt;Node22 -->
<g id="edge25" class="edge">
<title>Node21&#45;&gt;Node22</title>
<path fill="none" stroke="midnightblue" d="M1252.4,-149.49C1241.76,-139.63 1229.89,-128.63 1220.05,-119.51"/>
<polygon fill="midnightblue" stroke="midnightblue" points="1250.17,-152.2 1259.88,-156.43 1254.93,-147.06 1250.17,-152.2"/>
</g>
<!-- Node24 -->
<g id="node24" class="node">
<title>Node24</title>
<g id="a_node24"><a xlink:href="flight__bridge_8cpp.html" target="_top" xlink:title=" ">
<polygon fill="white" stroke="black" points="1293.5,-78.5 1293.5,-119.5 1430.5,-119.5 1430.5,-78.5 1293.5,-78.5"/>
<text text-anchor="start" x="1301.5" y="-107.5" font-family="Helvetica,sans-Serif" font-size="10.00">ACSL&#45;flightstack&#45;winged</text>
<text text-anchor="start" x="1301.5" y="-96.5" font-family="Helvetica,sans-Serif" font-size="10.00">/src/acsl_flight/src/flight</text>
<text text-anchor="middle" x="1362" y="-85.5" font-family="Helvetica,sans-Serif" font-size="10.00">_bridge/flight_bridge.cpp</text>
</a>
</g>
</g>
<!-- Node21&#45;&gt;Node24 -->
<g id="edge27" class="edge">
<title>Node21&#45;&gt;Node24</title>
<path fill="none" stroke="midnightblue" d="M1309.25,-149.49C1319.76,-139.63 1331.49,-128.63 1341.21,-119.51"/>
<polygon fill="midnightblue" stroke="midnightblue" points="1306.76,-147.03 1301.86,-156.43 1311.55,-152.14 1306.76,-147.03"/>
</g>
<!-- Node23 -->
<g id="node23" class="node">
<title>Node23</title>
<g id="a_node23"><a xlink:href="flight__main_8cpp.html" target="_top" xlink:title=" ">
<polygon fill="white" stroke="black" points="1131.5,-0.5 1131.5,-41.5 1266.5,-41.5 1266.5,-0.5 1131.5,-0.5"/>
<text text-anchor="start" x="1139.5" y="-29.5" font-family="Helvetica,sans-Serif" font-size="10.00">ACSL&#45;flightstack&#45;winged</text>
<text text-anchor="start" x="1139.5" y="-18.5" font-family="Helvetica,sans-Serif" font-size="10.00">/src/acsl_flight/src/flight</text>
<text text-anchor="middle" x="1199" y="-7.5" font-family="Helvetica,sans-Serif" font-size="10.00">_main/flight_main.cpp</text>
</a>
</g>
</g>
<!-- Node22&#45;&gt;Node23 -->
<g id="edge26" class="edge">
<title>Node22&#45;&gt;Node23</title>
<path fill="none" stroke="midnightblue" d="M1199,-68.3C1199,-59.3 1199,-49.65 1199,-41.51"/>
<polygon fill="midnightblue" stroke="midnightblue" points="1195.5,-68.43 1199,-78.43 1202.5,-68.43 1195.5,-68.43"/>
</g>
<!-- Node26&#45;&gt;Node21 -->
<g id="edge31" class="edge">
<title>Node26&#45;&gt;Node21</title>
<path fill="none" stroke="midnightblue" d="M1370.61,-229.2C1352.61,-218.92 1332.03,-207.16 1315.13,-197.51"/>
<polygon fill="midnightblue" stroke="midnightblue" points="1369.33,-232.51 1379.75,-234.43 1372.8,-226.43 1369.33,-232.51"/>
</g>
<!-- Node27 -->
<g id="node27" class="node">
<title>Node27</title>
<g id="a_node27"><a xlink:href="mocap_8cpp.html" target="_top" xlink:title=" ">
<polygon fill="white" stroke="black" points="1382,-156.5 1382,-197.5 1522,-197.5 1522,-156.5 1382,-156.5"/>
<text text-anchor="start" x="1390" y="-185.5" font-family="Helvetica,sans-Serif" font-size="10.00">ACSL&#45;flightstack&#45;winged</text>
<text text-anchor="start" x="1390" y="-174.5" font-family="Helvetica,sans-Serif" font-size="10.00">/src/acsl_flight/src/mocap</text>
<text text-anchor="middle" x="1452" y="-163.5" font-family="Helvetica,sans-Serif" font-size="10.00">/mocap.cpp</text>
</a>
</g>
</g>
<!-- Node26&#45;&gt;Node27 -->
<g id="edge32" class="edge">
<title>Node26&#45;&gt;Node27</title>
<path fill="none" stroke="midnightblue" d="M1428.27,-225.47C1432.93,-216.14 1438,-206.01 1442.25,-197.51"/>
<polygon fill="midnightblue" stroke="midnightblue" points="1425.13,-223.92 1423.79,-234.43 1431.39,-227.05 1425.13,-223.92"/>
</g>
<!-- Node28&#45;&gt;Node21 -->
<g id="edge34" class="edge">
<title>Node28&#45;&gt;Node21</title>
<path fill="none" stroke="midnightblue" d="M1489.33,-233.36C1447.37,-222.21 1395.86,-208.52 1354.56,-197.55"/>
<polygon fill="midnightblue" stroke="midnightblue" points="1488.66,-236.8 1499.22,-235.99 1490.46,-230.04 1488.66,-236.8"/>
</g>
<!-- Node29 -->
<g id="node29" class="node">
<title>Node29</title>
<g id="a_node29"><a xlink:href="vio_8cpp.html" target="_top" xlink:title=" ">
<polygon fill="white" stroke="black" points="1540.5,-156.5 1540.5,-197.5 1675.5,-197.5 1675.5,-156.5 1540.5,-156.5"/>
<text text-anchor="start" x="1548.5" y="-185.5" font-family="Helvetica,sans-Serif" font-size="10.00">ACSL&#45;flightstack&#45;winged</text>
<text text-anchor="start" x="1548.5" y="-174.5" font-family="Helvetica,sans-Serif" font-size="10.00">/src/acsl_flight/src/vio</text>
<text text-anchor="middle" x="1608" y="-163.5" font-family="Helvetica,sans-Serif" font-size="10.00">/vio.cpp</text>
</a>
</g>
</g>
<!-- Node28&#45;&gt;Node29 -->
<g id="edge35" class="edge">
<title>Node28&#45;&gt;Node29</title>
<path fill="none" stroke="midnightblue" d="M1582.39,-225.47C1587.42,-216.14 1592.89,-206.01 1597.48,-197.51"/>
<polygon fill="midnightblue" stroke="midnightblue" points="1579.23,-223.97 1577.56,-234.43 1585.39,-227.29 1579.23,-223.97"/>
</g>
<!-- Node31&#45;&gt;Node18 -->
<g id="edge38" class="edge">
<title>Node31&#45;&gt;Node18</title>
<path fill="none" stroke="midnightblue" d="M1308.05,-492.54C1302.64,-483.24 1296.96,-473.47 1291.82,-464.63"/>
<polygon fill="midnightblue" stroke="midnightblue" points="1305.07,-494.38 1313.12,-501.26 1311.12,-490.86 1305.07,-494.38"/>
</g>
<!-- Node32 -->
<g id="node32" class="node">
<title>Node32</title>
<g id="a_node32"><a xlink:href="PID__OMEGA__logger_8cpp.html" target="_top" xlink:title=" ">
<polygon fill="white" stroke="black" points="1378.5,-407 1378.5,-459 1573.5,-459 1573.5,-407 1378.5,-407"/>
<text text-anchor="start" x="1386.5" y="-447" font-family="Helvetica,sans-Serif" font-size="10.00">ACSL&#45;flightstack&#45;winged</text>
<text text-anchor="start" x="1386.5" y="-436" font-family="Helvetica,sans-Serif" font-size="10.00">/src/acsl_flight/src/control</text>
<text text-anchor="start" x="1386.5" y="-425" font-family="Helvetica,sans-Serif" font-size="10.00">/platforms/qrbp/control_algorithms</text>
<text text-anchor="middle" x="1476" y="-414" font-family="Helvetica,sans-Serif" font-size="10.00">/PID_OMEGA/PID_OMEGA_logger.cpp</text>
</a>
</g>
</g>
<!-- Node31&#45;&gt;Node32 -->
<g id="edge39" class="edge">
<title>Node31&#45;&gt;Node32</title>
<path fill="none" stroke="midnightblue" d="M1385.13,-495.41C1403.06,-483.3 1422.59,-470.1 1438.93,-459.05"/>
<polygon fill="midnightblue" stroke="midnightblue" points="1382.81,-492.76 1376.48,-501.26 1386.73,-498.56 1382.81,-492.76"/>
</g>
</g>
</svg>
        <g id="navigator" transform="translate(0 0)" fill="#404254">
                <rect fill="#f2f5e9" fill-opacity="0.5" stroke="#606060" stroke-width=".5" x="0" y="0" width="60" height="60"/>
                <use id="zoomplus" xlink:href="#zoomPlus" x="17" y="9" onmousedown="handleZoom(evt,'in')"/>
                <use id="zoomminus" xlink:href="#zoomMin" x="42" y="9" onmousedown="handleZoom(evt,'out')"/>
                <use id="reset" xlink:href="#resetDef" x="30" y="36" onmousedown="handleReset()"/>
                <g id="arrowUp" xlink:href="#dirArrow" transform="translate(30 24)" onmousedown="handlePan(0,-1)">
                  <use xlink:href="#rim" fill="#404040">
                        <set attributeName="fill" to="#808080" begin="arrowUp.mouseover" end="arrowUp.mouseout"/>
                  </use>
                  <path fill="none" stroke="white" stroke-width="1.5" d="M0,-3.0v7 M-2.5,-0.5L0,-3.0L2.5,-0.5"/>
                </g>
                <g id="arrowRight" xlink:href="#dirArrow" transform="rotate(90) translate(36 -43)" onmousedown="handlePan(1,0)">
                  <use xlink:href="#rim" fill="#404040">
                        <set attributeName="fill" to="#808080" begin="arrowRight.mouseover" end="arrowRight.mouseout"/>
                  </use>
                  <path fill="none" stroke="white" stroke-width="1.5" d="M0,-3.0v7 M-2.5,-0.5L0,-3.0L2.5,-0.5"/>
                </g>
                <g id="arrowDown" xlink:href="#dirArrow" transform="rotate(180) translate(-30 -48)" onmousedown="handlePan(0,1)">
                  <use xlink:href="#rim" fill="#404040">
                        <set attributeName="fill" to="#808080" begin="arrowDown.mouseover" end="arrowDown.mouseout"/>
                  </use>
                  <path fill="none" stroke="white" stroke-width="1.5" d="M0,-3.0v7 M-2.5,-0.5L0,-3.0L2.5,-0.5"/>
                </g>
                <g id="arrowLeft" xlink:href="#dirArrow" transform="rotate(270) translate(-36 17)" onmousedown="handlePan(-1,0)">
                  <use xlink:href="#rim" fill="#404040">
                        <set attributeName="fill" to="#808080" begin="arrowLeft.mouseover" end="arrowLeft.mouseout"/>
                  </use>
                  <path fill="none" stroke="white" stroke-width="1.5" d="M0,-3.0v7 M-2.5,-0.5L0,-3.0L2.5,-0.5"/>
                </g>
        </g>
        <svg viewBox="0 0 15 15" width="100%" height="30px" preserveAspectRatio="xMaxYMin meet">
         <g id="arrow_out" transform="scale(0.3 0.3)">
          <a xlink:href="aero__qrbp_8hpp__dep__incl_org.svg" target="_base">
           <rect id="button" ry="5" rx="5" y="6" x="6" height="38" width="38"
                fill="#f2f5e9" fill-opacity="0.5" stroke="#606060" stroke-width="1.0"/>
           <path id="arrow"
             d="M 11.500037,31.436501 C 11.940474,20.09759 22.043105,11.32322 32.158766,21.979434 L 37.068811,17.246167 C 37.068811,17.246167 37.088388,32 37.088388,32 L 22.160133,31.978069 C 22.160133,31.978069 26.997745,27.140456 26.997745,27.140456 C 18.528582,18.264221 13.291696,25.230495 11.500037,31.436501 z"
             style="fill:#404040;"/>
          </a>
         </g>
        </svg>
</svg>
