<?xml version="1.0" encoding="UTF-8" standalone="no"?>
<!DOCTYPE svg PUBLIC "-//W3C//DTD SVG 1.1//EN"
 "http://www.w3.org/Graphics/SVG/1.1/DTD/svg11.dtd">
<!-- Generated by graphviz version 2.43.0 (0)
 -->
<!-- Title: ACSL&#45;flightstack&#45;winged/src/acsl_flight/include/control/platforms/qrbp/aerodynamics/aero_qrbp.hpp Pages: 1 -->
<svg width="2634pt" height="296pt"
 viewBox="0.00 0.00 2633.56 296.00" xmlns="http://www.w3.org/2000/svg" xmlns:xlink="http://www.w3.org/1999/xlink">
<g id="graph0" class="graph" transform="scale(1 1) rotate(0) translate(4 292)">
<title>ACSL&#45;flightstack&#45;winged/src/acsl_flight/include/control/platforms/qrbp/aerodynamics/aero_qrbp.hpp</title>
<polygon fill="white" stroke="transparent" points="-4,4 -4,-292 2629.56,-292 2629.56,4 -4,4"/>
<!-- Node1 -->
<g id="node1" class="node">
<title>Node1</title>
<g id="a_node1"><a xlink:title="Aerodynamics class for all algorithms to use with the grbp platform of ACSL.">
<polygon fill="#bfbfbf" stroke="black" points="1164.59,-235.5 1164.59,-287.5 1325.59,-287.5 1325.59,-235.5 1164.59,-235.5"/>
<text text-anchor="start" x="1172.59" y="-275.5" font-family="Helvetica,sans-Serif" font-size="10.00">ACSL&#45;flightstack&#45;winged</text>
<text text-anchor="start" x="1172.59" y="-264.5" font-family="Helvetica,sans-Serif" font-size="10.00">/src/acsl_flight/include</text>
<text text-anchor="start" x="1172.59" y="-253.5" font-family="Helvetica,sans-Serif" font-size="10.00">/control/platforms/qrbp</text>
<text text-anchor="middle" x="1245.09" y="-242.5" font-family="Helvetica,sans-Serif" font-size="10.00">/aerodynamics/aero_qrbp.hpp</text>
</a>
</g>
</g>
<!-- Node2 -->
<g id="node2" class="node">
<title>Node2</title>
<g id="a_node2"><a xlink:href="qrbp_8hpp.html" target="_top" xlink:title="Vehicle Information of the QRBP with the NACA 0012 wings and the Velox V2808 kv1300 motors used in al...">
<polygon fill="white" stroke="black" points="1215.59,-179.5 1215.59,-198.5 1274.59,-198.5 1274.59,-179.5 1215.59,-179.5"/>
<text text-anchor="middle" x="1245.09" y="-186.5" font-family="Helvetica,sans-Serif" font-size="10.00">qrbp.hpp</text>
</a>
</g>
</g>
<!-- Node1&#45;&gt;Node2 -->
<g id="edge1" class="edge">
<title>Node1&#45;&gt;Node2</title>
<path fill="none" stroke="midnightblue" d="M1245.09,-235.45C1245.09,-226.73 1245.09,-217.1 1245.09,-208.96"/>
<polygon fill="midnightblue" stroke="midnightblue" points="1248.59,-208.7 1245.09,-198.7 1241.59,-208.7 1248.59,-208.7"/>
</g>
<!-- Node3 -->
<g id="node3" class="node">
<title>Node3</title>
<g id="a_node3"><a xlink:title=" ">
<polygon fill="white" stroke="#bfbfbf" points="56.59,-0.5 56.59,-19.5 133.59,-19.5 133.59,-0.5 56.59,-0.5"/>
<text text-anchor="middle" x="95.09" y="-7.5" font-family="Helvetica,sans-Serif" font-size="10.00">Eigen/Dense</text>
</a>
</g>
</g>
<!-- Node2&#45;&gt;Node3 -->
<g id="edge2" class="edge">
<title>Node2&#45;&gt;Node3</title>
<path fill="none" stroke="midnightblue" d="M1215.41,-188.05C1034.51,-188.03 85.63,-183.31 6.09,-87 -2.68,-76.38 -1.12,-67.74 6.09,-56 15.65,-40.47 32.4,-30.1 48.82,-23.27"/>
<polygon fill="midnightblue" stroke="midnightblue" points="50.28,-26.46 58.39,-19.65 47.8,-19.92 50.28,-26.46"/>
</g>
<!-- Node4 -->
<g id="node4" class="node">
<title>Node4</title>
<g id="a_node4"><a xlink:title=" ">
<polygon fill="white" stroke="#bfbfbf" points="2574.59,-0.5 2574.59,-19.5 2621.59,-19.5 2621.59,-0.5 2574.59,-0.5"/>
<text text-anchor="middle" x="2598.09" y="-7.5" font-family="Helvetica,sans-Serif" font-size="10.00">cmath</text>
</a>
</g>
</g>
<!-- Node2&#45;&gt;Node4 -->
<g id="edge3" class="edge">
<title>Node2&#45;&gt;Node4</title>
<path fill="none" stroke="midnightblue" d="M1274.67,-188.17C1465.97,-188.99 2523.43,-188.88 2618.09,-87 2632.98,-70.98 2621.38,-45.22 2610.63,-28.2"/>
<polygon fill="midnightblue" stroke="midnightblue" points="2613.42,-26.08 2604.91,-19.76 2607.62,-30.01 2613.42,-26.08"/>
</g>
<!-- Node5 -->
<g id="node5" class="node">
<title>Node5</title>
<g id="a_node5"><a xlink:title=" ">
<polygon fill="white" stroke="#bfbfbf" points="15.59,-62 15.59,-81 66.59,-81 66.59,-62 15.59,-62"/>
<text text-anchor="middle" x="41.09" y="-69" font-family="Helvetica,sans-Serif" font-size="10.00">math.h</text>
</a>
</g>
</g>
<!-- Node2&#45;&gt;Node5 -->
<g id="edge4" class="edge">
<title>Node2&#45;&gt;Node5</title>
<path fill="none" stroke="midnightblue" d="M1215.43,-188.25C1081.96,-188.79 524.29,-184.79 81.09,-87 77.85,-86.28 74.51,-85.37 71.21,-84.35"/>
<polygon fill="midnightblue" stroke="midnightblue" points="72.14,-80.98 61.55,-81.08 69.89,-87.61 72.14,-80.98"/>
</g>
<!-- Node6 -->
<g id="node6" class="node">
<title>Node6</title>
<g id="a_node6"><a xlink:href="helper__functions_8hpp.html" target="_top" xlink:title="Definitions of some standard templates used in all controllers.">
<polygon fill="white" stroke="black" points="1587.59,-123.5 1587.59,-142.5 1706.59,-142.5 1706.59,-123.5 1587.59,-123.5"/>
<text text-anchor="middle" x="1647.09" y="-130.5" font-family="Helvetica,sans-Serif" font-size="10.00">helper_functions.hpp</text>
</a>
</g>
</g>
<!-- Node2&#45;&gt;Node6 -->
<g id="edge5" class="edge">
<title>Node2&#45;&gt;Node6</title>
<path fill="none" stroke="midnightblue" d="M1274.65,-184.03C1338.03,-175.52 1488.45,-155.31 1577.53,-143.34"/>
<polygon fill="midnightblue" stroke="midnightblue" points="1578.1,-146.8 1587.55,-142 1577.17,-139.86 1578.1,-146.8"/>
</g>
<!-- Node6&#45;&gt;Node3 -->
<g id="edge7" class="edge">
<title>Node6&#45;&gt;Node3</title>
<path fill="none" stroke="midnightblue" d="M1587.21,-132.25C1311.16,-133.13 172.4,-133.92 114.09,-87 97.33,-73.51 94.03,-47.65 93.95,-29.88"/>
<polygon fill="midnightblue" stroke="midnightblue" points="97.46,-29.9 94.25,-19.81 90.46,-29.7 97.46,-29.9"/>
</g>
<!-- Node6&#45;&gt;Node4 -->
<g id="edge21" class="edge">
<title>Node6&#45;&gt;Node4</title>
<path fill="none" stroke="midnightblue" d="M1706.77,-131.35C1891.51,-129.01 2446.08,-119.34 2520.09,-87 2535.24,-80.38 2566.1,-47.33 2584.13,-27.06"/>
<polygon fill="midnightblue" stroke="midnightblue" points="2586.8,-29.32 2590.78,-19.51 2581.54,-24.7 2586.8,-29.32"/>
</g>
<!-- Node6&#45;&gt;Node5 -->
<g id="edge22" class="edge">
<title>Node6&#45;&gt;Node5</title>
<path fill="none" stroke="midnightblue" d="M1587.27,-131.41C1318.68,-128.59 230.8,-115.52 81.09,-87 77.58,-86.33 73.96,-85.39 70.4,-84.32"/>
<polygon fill="midnightblue" stroke="midnightblue" points="71.28,-80.92 60.68,-81.01 69.02,-87.54 71.28,-80.92"/>
</g>
<!-- Node7 -->
<g id="node7" class="node">
<title>Node7</title>
<g id="a_node7"><a xlink:title=" ">
<polygon fill="white" stroke="#bfbfbf" points="2567.09,-62 2567.09,-81 2609.09,-81 2609.09,-62 2567.09,-62"/>
<text text-anchor="middle" x="2588.09" y="-69" font-family="Helvetica,sans-Serif" font-size="10.00">array</text>
</a>
</g>
</g>
<!-- Node6&#45;&gt;Node7 -->
<g id="edge6" class="edge">
<title>Node6&#45;&gt;Node7</title>
<path fill="none" stroke="midnightblue" d="M1706.83,-131.69C1881.84,-130.37 2391.19,-123.41 2553.09,-87 2555.77,-86.4 2558.5,-85.61 2561.2,-84.71"/>
<polygon fill="midnightblue" stroke="midnightblue" points="2562.58,-87.93 2570.67,-81.09 2560.08,-81.39 2562.58,-87.93"/>
</g>
<!-- Node8 -->
<g id="node8" class="node">
<title>Node8</title>
<g id="a_node8"><a xlink:title=" ">
<polygon fill="white" stroke="#bfbfbf" points="123.09,-62 123.09,-81 233.09,-81 233.09,-62 123.09,-62"/>
<text text-anchor="middle" x="178.09" y="-69" font-family="Helvetica,sans-Serif" font-size="10.00">nlohmann/json.hpp</text>
</a>
</g>
</g>
<!-- Node6&#45;&gt;Node8 -->
<g id="edge8" class="edge">
<title>Node6&#45;&gt;Node8</title>
<path fill="none" stroke="midnightblue" d="M1587.35,-131.6C1354.61,-129.83 508.37,-121.11 242.09,-87 234.87,-86.07 227.26,-84.71 219.91,-83.18"/>
<polygon fill="midnightblue" stroke="midnightblue" points="220.63,-79.75 210.11,-81.01 219.12,-86.59 220.63,-79.75"/>
</g>
<!-- Node9 -->
<g id="node9" class="node">
<title>Node9</title>
<g id="a_node9"><a xlink:title=" ">
<polygon fill="white" stroke="#bfbfbf" points="251.09,-62 251.09,-81 343.09,-81 343.09,-62 251.09,-62"/>
<text text-anchor="middle" x="297.09" y="-69" font-family="Helvetica,sans-Serif" font-size="10.00">boost/array.hpp</text>
</a>
</g>
</g>
<!-- Node6&#45;&gt;Node9 -->
<g id="edge9" class="edge">
<title>Node6&#45;&gt;Node9</title>
<path fill="none" stroke="midnightblue" d="M1587.57,-131.66C1366.96,-130.11 596.13,-122.26 353.09,-87 347.17,-86.14 340.97,-84.9 334.95,-83.49"/>
<polygon fill="midnightblue" stroke="midnightblue" points="335.6,-80.05 325.05,-81.02 333.9,-86.84 335.6,-80.05"/>
</g>
<!-- Node10 -->
<g id="node10" class="node">
<title>Node10</title>
<g id="a_node10"><a xlink:title=" ">
<polygon fill="white" stroke="#bfbfbf" points="361.59,-62 361.59,-81 474.59,-81 474.59,-62 361.59,-62"/>
<text text-anchor="middle" x="418.09" y="-69" font-family="Helvetica,sans-Serif" font-size="10.00">boost/bind/bind.hpp</text>
</a>
</g>
</g>
<!-- Node6&#45;&gt;Node10 -->
<g id="edge10" class="edge">
<title>Node6&#45;&gt;Node10</title>
<path fill="none" stroke="midnightblue" d="M1587.36,-131.09C1381.26,-127.74 700.8,-114.77 484.09,-87 476.73,-86.06 468.98,-84.69 461.48,-83.18"/>
<polygon fill="midnightblue" stroke="midnightblue" points="461.98,-79.71 451.47,-81.04 460.52,-86.55 461.98,-79.71"/>
</g>
<!-- Node11 -->
<g id="node11" class="node">
<title>Node11</title>
<g id="a_node11"><a xlink:title=" ">
<polygon fill="white" stroke="#bfbfbf" points="493.09,-62 493.09,-81 647.09,-81 647.09,-62 493.09,-62"/>
<text text-anchor="middle" x="570.09" y="-69" font-family="Helvetica,sans-Serif" font-size="10.00">boost/bind/placeholders.hpp</text>
</a>
</g>
</g>
<!-- Node6&#45;&gt;Node11 -->
<g id="edge11" class="edge">
<title>Node6&#45;&gt;Node11</title>
<path fill="none" stroke="midnightblue" d="M1587.49,-131.77C1433.24,-130.65 1008.49,-124.13 657.09,-87 646.71,-85.9 635.68,-84.36 625.09,-82.69"/>
<polygon fill="midnightblue" stroke="midnightblue" points="625.54,-79.22 615.11,-81.06 624.41,-86.12 625.54,-79.22"/>
</g>
<!-- Node12 -->
<g id="node12" class="node">
<title>Node12</title>
<g id="a_node12"><a xlink:title=" ">
<polygon fill="white" stroke="#bfbfbf" points="665.59,-62 665.59,-81 806.59,-81 806.59,-62 665.59,-62"/>
<text text-anchor="middle" x="736.09" y="-69" font-family="Helvetica,sans-Serif" font-size="10.00">boost/numeric/odeint.hpp</text>
</a>
</g>
</g>
<!-- Node6&#45;&gt;Node12 -->
<g id="edge12" class="edge">
<title>Node6&#45;&gt;Node12</title>
<path fill="none" stroke="midnightblue" d="M1587.42,-131.33C1450.59,-129.23 1103.81,-120.73 816.09,-87 806.83,-85.91 797.01,-84.42 787.55,-82.81"/>
<polygon fill="midnightblue" stroke="midnightblue" points="787.92,-79.32 777.47,-81.02 786.7,-86.21 787.92,-79.32"/>
</g>
<!-- Node13 -->
<g id="node13" class="node">
<title>Node13</title>
<g id="a_node13"><a xlink:title=" ">
<polygon fill="white" stroke="#bfbfbf" points="825.09,-62 825.09,-81 973.09,-81 973.09,-62 825.09,-62"/>
<text text-anchor="middle" x="899.09" y="-69" font-family="Helvetica,sans-Serif" font-size="10.00">boost/numeric/interval.hpp</text>
</a>
</g>
</g>
<!-- Node6&#45;&gt;Node13 -->
<g id="edge13" class="edge">
<title>Node6&#45;&gt;Node13</title>
<path fill="none" stroke="midnightblue" d="M1587.29,-130.07C1470.56,-125.83 1204.39,-113.86 982.09,-87 972.61,-85.85 962.56,-84.35 952.86,-82.74"/>
<polygon fill="midnightblue" stroke="midnightblue" points="953.35,-79.28 942.9,-81.04 952.17,-86.18 953.35,-79.28"/>
</g>
<!-- Node14 -->
<g id="node14" class="node">
<title>Node14</title>
<g id="a_node14"><a xlink:title=" ">
<polygon fill="white" stroke="#bfbfbf" points="991.09,-56.5 991.09,-86.5 1135.09,-86.5 1135.09,-56.5 991.09,-56.5"/>
<text text-anchor="start" x="999.09" y="-74.5" font-family="Helvetica,sans-Serif" font-size="10.00">boost/numeric/odeint</text>
<text text-anchor="middle" x="1063.09" y="-63.5" font-family="Helvetica,sans-Serif" font-size="10.00">/stepper/runge_kutta4.hpp</text>
</a>
</g>
</g>
<!-- Node6&#45;&gt;Node14 -->
<g id="edge14" class="edge">
<title>Node6&#45;&gt;Node14</title>
<path fill="none" stroke="midnightblue" d="M1587.28,-128.36C1494.79,-122.35 1311.28,-108.93 1145.83,-87.16"/>
<polygon fill="midnightblue" stroke="midnightblue" points="1145.84,-83.63 1135.47,-85.78 1144.92,-90.57 1145.84,-83.63"/>
</g>
<!-- Node15 -->
<g id="node15" class="node">
<title>Node15</title>
<g id="a_node15"><a xlink:title=" ">
<polygon fill="white" stroke="#bfbfbf" points="1153.09,-56.5 1153.09,-86.5 1269.09,-86.5 1269.09,-56.5 1153.09,-56.5"/>
<text text-anchor="start" x="1161.09" y="-74.5" font-family="Helvetica,sans-Serif" font-size="10.00">boost/numeric/ublas</text>
<text text-anchor="middle" x="1211.09" y="-63.5" font-family="Helvetica,sans-Serif" font-size="10.00">/matrix.hpp</text>
</a>
</g>
</g>
<!-- Node6&#45;&gt;Node15 -->
<g id="edge15" class="edge">
<title>Node6&#45;&gt;Node15</title>
<path fill="none" stroke="midnightblue" d="M1587.41,-126.42C1516.32,-119.4 1393.78,-106.1 1279.14,-87.08"/>
<polygon fill="midnightblue" stroke="midnightblue" points="1279.58,-83.6 1269.14,-85.4 1278.42,-90.51 1279.58,-83.6"/>
</g>
<!-- Node16 -->
<g id="node16" class="node">
<title>Node16</title>
<g id="a_node16"><a xlink:title=" ">
<polygon fill="white" stroke="#bfbfbf" points="1287.09,-56.5 1287.09,-86.5 1403.09,-86.5 1403.09,-56.5 1287.09,-56.5"/>
<text text-anchor="start" x="1295.09" y="-74.5" font-family="Helvetica,sans-Serif" font-size="10.00">boost/numeric/ublas</text>
<text text-anchor="middle" x="1345.09" y="-63.5" font-family="Helvetica,sans-Serif" font-size="10.00">/io.hpp</text>
</a>
</g>
</g>
<!-- Node6&#45;&gt;Node16 -->
<g id="edge16" class="edge">
<title>Node6&#45;&gt;Node16</title>
<path fill="none" stroke="midnightblue" d="M1600.66,-123.45C1555.34,-115.02 1484.17,-101.6 1413.19,-87.2"/>
<polygon fill="midnightblue" stroke="midnightblue" points="1413.68,-83.72 1403.18,-85.16 1412.28,-90.58 1413.68,-83.72"/>
</g>
<!-- Node17 -->
<g id="node17" class="node">
<title>Node17</title>
<g id="a_node17"><a xlink:title=" ">
<polygon fill="white" stroke="#bfbfbf" points="1421.09,-62 1421.09,-81 1599.09,-81 1599.09,-62 1421.09,-62"/>
<text text-anchor="middle" x="1510.09" y="-69" font-family="Helvetica,sans-Serif" font-size="10.00">boost/math/tools/polynomial.hpp</text>
</a>
</g>
</g>
<!-- Node6&#45;&gt;Node17 -->
<g id="edge17" class="edge">
<title>Node6&#45;&gt;Node17</title>
<path fill="none" stroke="midnightblue" d="M1627.47,-123.48C1604.27,-113.4 1565.48,-96.55 1538.88,-85"/>
<polygon fill="midnightblue" stroke="midnightblue" points="1540.25,-81.78 1529.69,-81.01 1537.46,-88.2 1540.25,-81.78"/>
</g>
<!-- Node18 -->
<g id="node18" class="node">
<title>Node18</title>
<g id="a_node18"><a xlink:title=" ">
<polygon fill="white" stroke="#bfbfbf" points="1617.09,-62 1617.09,-81 1677.09,-81 1677.09,-62 1617.09,-62"/>
<text text-anchor="middle" x="1647.09" y="-69" font-family="Helvetica,sans-Serif" font-size="10.00">iostream</text>
</a>
</g>
</g>
<!-- Node6&#45;&gt;Node18 -->
<g id="edge18" class="edge">
<title>Node6&#45;&gt;Node18</title>
<path fill="none" stroke="midnightblue" d="M1647.09,-123.48C1647.09,-115.08 1647.09,-101.98 1647.09,-91.16"/>
<polygon fill="midnightblue" stroke="midnightblue" points="1650.59,-91.01 1647.09,-81.01 1643.59,-91.01 1650.59,-91.01"/>
</g>
<!-- Node19 -->
<g id="node19" class="node">
<title>Node19</title>
<g id="a_node19"><a xlink:title=" ">
<polygon fill="white" stroke="#bfbfbf" points="1695.09,-62 1695.09,-81 1745.09,-81 1745.09,-62 1695.09,-62"/>
<text text-anchor="middle" x="1720.09" y="-69" font-family="Helvetica,sans-Serif" font-size="10.00">stdio.h</text>
</a>
</g>
</g>
<!-- Node6&#45;&gt;Node19 -->
<g id="edge19" class="edge">
<title>Node6&#45;&gt;Node19</title>
<path fill="none" stroke="midnightblue" d="M1657.55,-123.48C1669.05,-114.11 1687.72,-98.88 1701.68,-87.51"/>
<polygon fill="midnightblue" stroke="midnightblue" points="1704.11,-90.04 1709.65,-81.01 1699.69,-84.61 1704.11,-90.04"/>
</g>
<!-- Node20 -->
<g id="node20" class="node">
<title>Node20</title>
<g id="a_node20"><a xlink:title=" ">
<polygon fill="white" stroke="#bfbfbf" points="1763.59,-62 1763.59,-81 1816.59,-81 1816.59,-62 1763.59,-62"/>
<text text-anchor="middle" x="1790.09" y="-69" font-family="Helvetica,sans-Serif" font-size="10.00">stdlib.h</text>
</a>
</g>
</g>
<!-- Node6&#45;&gt;Node20 -->
<g id="edge20" class="edge">
<title>Node6&#45;&gt;Node20</title>
<path fill="none" stroke="midnightblue" d="M1667.58,-123.48C1691.9,-113.36 1732.64,-96.4 1760.41,-84.85"/>
<polygon fill="midnightblue" stroke="midnightblue" points="1761.76,-88.08 1769.64,-81.01 1759.07,-81.62 1761.76,-88.08"/>
</g>
<!-- Node21 -->
<g id="node21" class="node">
<title>Node21</title>
<g id="a_node21"><a xlink:title=" ">
<polygon fill="white" stroke="#bfbfbf" points="1835.09,-62 1835.09,-81 1883.09,-81 1883.09,-62 1835.09,-62"/>
<text text-anchor="middle" x="1859.09" y="-69" font-family="Helvetica,sans-Serif" font-size="10.00">time.h</text>
</a>
</g>
</g>
<!-- Node6&#45;&gt;Node21 -->
<g id="edge23" class="edge">
<title>Node6&#45;&gt;Node21</title>
<path fill="none" stroke="midnightblue" d="M1689.27,-123.49C1725.91,-115.61 1780.17,-102.74 1826.09,-87 1827.96,-86.36 1829.86,-85.66 1831.77,-84.92"/>
<polygon fill="midnightblue" stroke="midnightblue" points="1833.26,-88.09 1841.16,-81.03 1830.58,-81.63 1833.26,-88.09"/>
</g>
<!-- Node22 -->
<g id="node22" class="node">
<title>Node22</title>
<g id="a_node22"><a xlink:title=" ">
<polygon fill="white" stroke="#bfbfbf" points="1901.09,-62 1901.09,-81 1945.09,-81 1945.09,-62 1901.09,-62"/>
<text text-anchor="middle" x="1923.09" y="-69" font-family="Helvetica,sans-Serif" font-size="10.00">ctime</text>
</a>
</g>
</g>
<!-- Node6&#45;&gt;Node22 -->
<g id="edge24" class="edge">
<title>Node6&#45;&gt;Node22</title>
<path fill="none" stroke="midnightblue" d="M1706.8,-125.38C1757.06,-118.78 1830.41,-106.73 1892.09,-87 1893.77,-86.46 1895.47,-85.86 1897.17,-85.21"/>
<polygon fill="midnightblue" stroke="midnightblue" points="1898.87,-88.29 1906.68,-81.13 1896.11,-81.85 1898.87,-88.29"/>
</g>
<!-- Node23 -->
<g id="node23" class="node">
<title>Node23</title>
<g id="a_node23"><a xlink:title=" ">
<polygon fill="white" stroke="#bfbfbf" points="1963.09,-62 1963.09,-81 2019.09,-81 2019.09,-62 1963.09,-62"/>
<text text-anchor="middle" x="1991.09" y="-69" font-family="Helvetica,sans-Serif" font-size="10.00">iomanip</text>
</a>
</g>
</g>
<!-- Node6&#45;&gt;Node23 -->
<g id="edge25" class="edge">
<title>Node6&#45;&gt;Node23</title>
<path fill="none" stroke="midnightblue" d="M1706.76,-127.31C1769.21,-121.47 1869.75,-109.39 1954.09,-87 1956.75,-86.29 1959.48,-85.46 1962.19,-84.54"/>
<polygon fill="midnightblue" stroke="midnightblue" points="1963.6,-87.76 1971.79,-81.02 1961.19,-81.18 1963.6,-87.76"/>
</g>
<!-- Node24 -->
<g id="node24" class="node">
<title>Node24</title>
<g id="a_node24"><a xlink:title=" ">
<polygon fill="white" stroke="#bfbfbf" points="2037.59,-62 2037.59,-81 2092.59,-81 2092.59,-62 2037.59,-62"/>
<text text-anchor="middle" x="2065.09" y="-69" font-family="Helvetica,sans-Serif" font-size="10.00">fstream</text>
</a>
</g>
</g>
<!-- Node6&#45;&gt;Node24 -->
<g id="edge26" class="edge">
<title>Node6&#45;&gt;Node24</title>
<path fill="none" stroke="midnightblue" d="M1706.68,-129.67C1782.4,-125.65 1916.65,-114.93 2028.09,-87 2030.76,-86.33 2033.5,-85.52 2036.21,-84.62"/>
<polygon fill="midnightblue" stroke="midnightblue" points="2037.61,-87.84 2045.81,-81.13 2035.22,-81.26 2037.61,-87.84"/>
</g>
<!-- Node25 -->
<g id="node25" class="node">
<title>Node25</title>
<g id="a_node25"><a xlink:title=" ">
<polygon fill="white" stroke="#bfbfbf" points="2111.09,-62 2111.09,-81 2155.09,-81 2155.09,-62 2111.09,-62"/>
<text text-anchor="middle" x="2133.09" y="-69" font-family="Helvetica,sans-Serif" font-size="10.00">string</text>
</a>
</g>
</g>
<!-- Node6&#45;&gt;Node25 -->
<g id="edge27" class="edge">
<title>Node6&#45;&gt;Node25</title>
<path fill="none" stroke="midnightblue" d="M1706.79,-132.47C1794.87,-131.73 1964.12,-124.89 2102.09,-87 2104.03,-86.47 2105.99,-85.83 2107.94,-85.11"/>
<polygon fill="midnightblue" stroke="midnightblue" points="2109.56,-88.22 2117.4,-81.1 2106.83,-81.78 2109.56,-88.22"/>
</g>
<!-- Node26 -->
<g id="node26" class="node">
<title>Node26</title>
<g id="a_node26"><a xlink:title=" ">
<polygon fill="white" stroke="#bfbfbf" points="2173.59,-62 2173.59,-81 2220.59,-81 2220.59,-62 2173.59,-62"/>
<text text-anchor="middle" x="2197.09" y="-69" font-family="Helvetica,sans-Serif" font-size="10.00">vector</text>
</a>
</g>
</g>
<!-- Node6&#45;&gt;Node26 -->
<g id="edge28" class="edge">
<title>Node6&#45;&gt;Node26</title>
<path fill="none" stroke="midnightblue" d="M1706.67,-129.26C1823.57,-123.48 2078.99,-108.77 2164.09,-87 2166.4,-86.41 2168.74,-85.68 2171.07,-84.86"/>
<polygon fill="midnightblue" stroke="midnightblue" points="2172.37,-88.1 2180.34,-81.12 2169.76,-81.61 2172.37,-88.1"/>
</g>
<!-- Node27 -->
<g id="node27" class="node">
<title>Node27</title>
<g id="a_node27"><a xlink:title=" ">
<polygon fill="white" stroke="#bfbfbf" points="2239.09,-62 2239.09,-81 2289.09,-81 2289.09,-62 2239.09,-62"/>
<text text-anchor="middle" x="2264.09" y="-69" font-family="Helvetica,sans-Serif" font-size="10.00">chrono</text>
</a>
</g>
</g>
<!-- Node6&#45;&gt;Node27 -->
<g id="edge29" class="edge">
<title>Node6&#45;&gt;Node27</title>
<path fill="none" stroke="midnightblue" d="M1706.82,-129.85C1834.87,-124.85 2132.11,-110.99 2230.09,-87 2232.46,-86.42 2234.87,-85.69 2237.27,-84.88"/>
<polygon fill="midnightblue" stroke="midnightblue" points="2238.78,-88.04 2246.82,-81.15 2236.23,-81.52 2238.78,-88.04"/>
</g>
<!-- Node28 -->
<g id="node28" class="node">
<title>Node28</title>
<g id="a_node28"><a xlink:title=" ">
<polygon fill="white" stroke="#bfbfbf" points="2307.59,-62 2307.59,-81 2372.59,-81 2372.59,-62 2307.59,-62"/>
<text text-anchor="middle" x="2340.09" y="-69" font-family="Helvetica,sans-Serif" font-size="10.00">functional</text>
</a>
</g>
</g>
<!-- Node6&#45;&gt;Node28 -->
<g id="edge30" class="edge">
<title>Node6&#45;&gt;Node28</title>
<path fill="none" stroke="midnightblue" d="M1706.8,-129.88C1845.47,-124.64 2185.97,-109.81 2298.09,-87 2301.6,-86.29 2305.22,-85.35 2308.79,-84.31"/>
<polygon fill="midnightblue" stroke="midnightblue" points="2310.16,-87.54 2318.6,-81.14 2308.01,-80.88 2310.16,-87.54"/>
</g>
<!-- Node29 -->
<g id="node29" class="node">
<title>Node29</title>
<g id="a_node29"><a xlink:href="continuous__lyapunov__equation_8hpp.html" target="_top" xlink:title="The following code uses a different convention from MATLAB.">
<polygon fill="white" stroke="black" points="2391.09,-56.5 2391.09,-86.5 2511.09,-86.5 2511.09,-56.5 2391.09,-56.5"/>
<text text-anchor="start" x="2399.09" y="-74.5" font-family="Helvetica,sans-Serif" font-size="10.00">continuous_lyapunov</text>
<text text-anchor="middle" x="2451.09" y="-63.5" font-family="Helvetica,sans-Serif" font-size="10.00">_equation.hpp</text>
</a>
</g>
</g>
<!-- Node6&#45;&gt;Node29 -->
<g id="edge31" class="edge">
<title>Node6&#45;&gt;Node29</title>
<path fill="none" stroke="midnightblue" d="M1706.93,-131.29C1830.9,-129.18 2124.94,-120.86 2380.74,-87.04"/>
<polygon fill="midnightblue" stroke="midnightblue" points="2381.53,-90.47 2390.97,-85.67 2380.6,-83.53 2381.53,-90.47"/>
</g>
<!-- Node29&#45;&gt;Node3 -->
<g id="edge32" class="edge">
<title>Node29&#45;&gt;Node3</title>
<path fill="none" stroke="midnightblue" d="M2390.99,-57.18C2387.99,-56.73 2385.01,-56.33 2382.09,-56 2152.76,-29.88 453.82,-14.09 143.64,-11.41"/>
<polygon fill="midnightblue" stroke="midnightblue" points="143.64,-7.91 133.61,-11.32 143.58,-14.91 143.64,-7.91"/>
</g>
<!-- Node29&#45;&gt;Node4 -->
<g id="edge34" class="edge">
<title>Node29&#45;&gt;Node4</title>
<path fill="none" stroke="midnightblue" d="M2485.93,-56.4C2510.59,-46.42 2543.38,-33.15 2567.13,-23.53"/>
<polygon fill="midnightblue" stroke="midnightblue" points="2568.75,-26.65 2576.7,-19.66 2566.12,-20.17 2568.75,-26.65"/>
</g>
<!-- Node30 -->
<g id="node30" class="node">
<title>Node30</title>
<g id="a_node30"><a xlink:title=" ">
<polygon fill="white" stroke="#bfbfbf" points="2272.59,-0.5 2272.59,-19.5 2333.59,-19.5 2333.59,-0.5 2272.59,-0.5"/>
<text text-anchor="middle" x="2303.09" y="-7.5" font-family="Helvetica,sans-Serif" font-size="10.00">Eigen/QR</text>
</a>
</g>
</g>
<!-- Node29&#45;&gt;Node30 -->
<g id="edge33" class="edge">
<title>Node29&#45;&gt;Node30</title>
<path fill="none" stroke="midnightblue" d="M2416.02,-56.4C2391.08,-46.37 2357.89,-33.03 2333.95,-23.4"/>
<polygon fill="midnightblue" stroke="midnightblue" points="2335.21,-20.14 2324.63,-19.66 2332.6,-26.64 2335.21,-20.14"/>
</g>
<!-- Node31 -->
<g id="node31" class="node">
<title>Node31</title>
<g id="a_node31"><a xlink:title=" ">
<polygon fill="white" stroke="#bfbfbf" points="2351.59,-0.5 2351.59,-19.5 2410.59,-19.5 2410.59,-0.5 2351.59,-0.5"/>
<text text-anchor="middle" x="2381.09" y="-7.5" font-family="Helvetica,sans-Serif" font-size="10.00">complex</text>
</a>
</g>
</g>
<!-- Node29&#45;&gt;Node31 -->
<g id="edge35" class="edge">
<title>Node29&#45;&gt;Node31</title>
<path fill="none" stroke="midnightblue" d="M2434.5,-56.4C2423.81,-47.31 2409.91,-35.49 2398.97,-26.19"/>
<polygon fill="midnightblue" stroke="midnightblue" points="2401.17,-23.47 2391.28,-19.66 2396.63,-28.8 2401.17,-23.47"/>
</g>
<!-- Node32 -->
<g id="node32" class="node">
<title>Node32</title>
<g id="a_node32"><a xlink:title=" ">
<polygon fill="white" stroke="#bfbfbf" points="2429.09,-0.5 2429.09,-19.5 2473.09,-19.5 2473.09,-0.5 2429.09,-0.5"/>
<text text-anchor="middle" x="2451.09" y="-7.5" font-family="Helvetica,sans-Serif" font-size="10.00">limits</text>
</a>
</g>
</g>
<!-- Node29&#45;&gt;Node32 -->
<g id="edge36" class="edge">
<title>Node29&#45;&gt;Node32</title>
<path fill="none" stroke="midnightblue" d="M2451.09,-56.4C2451.09,-48.47 2451.09,-38.46 2451.09,-29.86"/>
<polygon fill="midnightblue" stroke="midnightblue" points="2454.59,-29.66 2451.09,-19.66 2447.59,-29.66 2454.59,-29.66"/>
</g>
<!-- Node33 -->
<g id="node33" class="node">
<title>Node33</title>
<g id="a_node33"><a xlink:title=" ">
<polygon fill="white" stroke="#bfbfbf" points="2491.59,-0.5 2491.59,-19.5 2556.59,-19.5 2556.59,-0.5 2491.59,-0.5"/>
<text text-anchor="middle" x="2524.09" y="-7.5" font-family="Helvetica,sans-Serif" font-size="10.00">stdexcept</text>
</a>
</g>
</g>
<!-- Node29&#45;&gt;Node33 -->
<g id="edge37" class="edge">
<title>Node29&#45;&gt;Node33</title>
<path fill="none" stroke="midnightblue" d="M2468.39,-56.4C2479.55,-47.31 2494.05,-35.49 2505.46,-26.19"/>
<polygon fill="midnightblue" stroke="midnightblue" points="2507.93,-28.69 2513.47,-19.66 2503.51,-23.26 2507.93,-28.69"/>
</g>
</g>
</svg>
