<?xml version="1.0" encoding="UTF-8" standalone="no"?>
<!DOCTYPE svg PUBLIC "-//W3C//DTD SVG 1.1//EN"
 "http://www.w3.org/Graphics/SVG/1.1/DTD/svg11.dtd">
<!-- Generated by graphviz version 2.43.0 (0)
 -->
<!-- Title: _rostestdrone_::_pid_::pid_logger Pages: 1 -->
<svg width="314pt" height="148pt"
 viewBox="0.00 0.00 314.00 148.00" xmlns="http://www.w3.org/2000/svg" xmlns:xlink="http://www.w3.org/1999/xlink">
<g id="graph0" class="graph" transform="scale(1 1) rotate(0) translate(4 144)">
<title>_rostestdrone_::_pid_::pid_logger</title>
<polygon fill="white" stroke="transparent" points="-4,4 -4,-144 310,-144 310,4 -4,4"/>
<!-- Node1 -->
<g id="node1" class="node">
<title>Node1</title>
<g id="a_node1"><a xlink:title="Class to log PID.">
<polygon fill="#bfbfbf" stroke="black" points="191,-66 191,-96 306,-96 306,-66 191,-66"/>
<text text-anchor="start" x="199" y="-84" font-family="Helvetica,sans-Serif" font-size="10.00">_rostestdrone_::_pid</text>
<text text-anchor="middle" x="248.5" y="-73" font-family="Helvetica,sans-Serif" font-size="10.00">_::pid_logger</text>
</a>
</g>
</g>
<!-- Node2 -->
<g id="node2" class="node">
<title>Node2</title>
<g id="a_node2"><a xlink:href="class__flight__log___1_1blackbox.html" target="_top" xlink:title=" ">
<polygon fill="white" stroke="black" points="4,-120.5 4,-139.5 126,-139.5 126,-120.5 4,-120.5"/>
<text text-anchor="middle" x="65" y="-127.5" font-family="Helvetica,sans-Serif" font-size="10.00">_flight_log_::blackbox</text>
</a>
</g>
</g>
<!-- Node2&#45;&gt;Node1 -->
<g id="edge1" class="edge">
<title>Node2&#45;&gt;Node1</title>
<path fill="none" stroke="midnightblue" d="M111.15,-117.81C135.57,-111.22 165.93,-103.02 191.8,-96.04"/>
<polygon fill="midnightblue" stroke="midnightblue" points="110.17,-114.45 101.43,-120.44 111.99,-121.21 110.17,-114.45"/>
</g>
<!-- Node3 -->
<g id="node3" class="node">
<title>Node3</title>
<g id="a_node3"><a xlink:href="struct__rostestdrone___1_1__pid___1_1controller__integrated__state__members.html" target="_top" xlink:title="Structure for the members that are mapped to the rk4 vector after integration.">
<polygon fill="white" stroke="black" points="0,-60.5 0,-101.5 130,-101.5 130,-60.5 0,-60.5"/>
<text text-anchor="start" x="8" y="-89.5" font-family="Helvetica,sans-Serif" font-size="10.00">_rostestdrone_::_pid</text>
<text text-anchor="start" x="8" y="-78.5" font-family="Helvetica,sans-Serif" font-size="10.00">_::controller_integrated</text>
<text text-anchor="middle" x="65" y="-67.5" font-family="Helvetica,sans-Serif" font-size="10.00">_state_members</text>
</a>
</g>
</g>
<!-- Node3&#45;&gt;Node1 -->
<g id="edge2" class="edge">
<title>Node3&#45;&gt;Node1</title>
<path fill="none" stroke="#9a32cd" stroke-dasharray="5,2" d="M140.59,-81C157.39,-81 174.96,-81 190.89,-81"/>
<polygon fill="#9a32cd" stroke="#9a32cd" points="140.25,-77.5 130.25,-81 140.25,-84.5 140.25,-77.5"/>
<text text-anchor="middle" x="160.5" y="-84" font-family="Helvetica,sans-Serif" font-size="10.00"> CSM</text>
</g>
<!-- Node4 -->
<g id="node4" class="node">
<title>Node4</title>
<g id="a_node4"><a xlink:href="struct__rostestdrone___1_1__pid___1_1controller__internal__members.html" target="_top" xlink:title="Structure for the internal members of the class.">
<polygon fill="white" stroke="black" points="6.5,-0.5 6.5,-41.5 123.5,-41.5 123.5,-0.5 6.5,-0.5"/>
<text text-anchor="start" x="14.5" y="-29.5" font-family="Helvetica,sans-Serif" font-size="10.00">_rostestdrone_::_pid</text>
<text text-anchor="start" x="14.5" y="-18.5" font-family="Helvetica,sans-Serif" font-size="10.00">_::controller_internal</text>
<text text-anchor="middle" x="65" y="-7.5" font-family="Helvetica,sans-Serif" font-size="10.00">_members</text>
</a>
</g>
</g>
<!-- Node4&#45;&gt;Node1 -->
<g id="edge3" class="edge">
<title>Node4&#45;&gt;Node1</title>
<path fill="none" stroke="#9a32cd" stroke-dasharray="5,2" d="M133.34,-43.26C156.24,-50.83 181.28,-59.11 202.06,-65.98"/>
<polygon fill="#9a32cd" stroke="#9a32cd" points="134.27,-39.88 123.68,-40.07 132.07,-46.53 134.27,-39.88"/>
<text text-anchor="middle" x="160.5" y="-57" font-family="Helvetica,sans-Serif" font-size="10.00"> CIM</text>
</g>
</g>
</svg>
