<?xml version="1.0" encoding="UTF-8" standalone="no"?>
<!DOCTYPE svg PUBLIC "-//W3C//DTD SVG 1.1//EN"
 "http://www.w3.org/Graphics/SVG/1.1/DTD/svg11.dtd">
<!-- Generated by graphviz version 2.43.0 (0)
 -->
<!-- Title: _qrbp_::_pid_omega_::pid_omega_logger Pages: 1 -->
<svg width="732pt" height="175pt"
 viewBox="0.00 0.00 732.00 175.00" xmlns="http://www.w3.org/2000/svg" xmlns:xlink="http://www.w3.org/1999/xlink">
<g id="graph0" class="graph" transform="scale(1 1) rotate(0) translate(4 171)">
<title>_qrbp_::_pid_omega_::pid_omega_logger</title>
<polygon fill="white" stroke="transparent" points="-4,4 -4,-171 728,-171 728,4 -4,4"/>
<!-- Node1 -->
<g id="node1" class="node">
<title>Node1</title>
<g id="a_node1"><a xlink:title="PID_OMEGA logger class.">
<polygon fill="#bfbfbf" stroke="black" points="606,-93 606,-123 724,-123 724,-93 606,-93"/>
<text text-anchor="start" x="614" y="-111" font-family="Helvetica,sans-Serif" font-size="10.00">_qrbp_::_pid_omega</text>
<text text-anchor="middle" x="665" y="-100" font-family="Helvetica,sans-Serif" font-size="10.00">_::pid_omega_logger</text>
</a>
</g>
</g>
<!-- Node2 -->
<g id="node2" class="node">
<title>Node2</title>
<g id="a_node2"><a xlink:href="class__flight__log___1_1blackbox.html" target="_top" xlink:title=" ">
<polygon fill="white" stroke="black" points="419,-147.5 419,-166.5 541,-166.5 541,-147.5 419,-147.5"/>
<text text-anchor="middle" x="480" y="-154.5" font-family="Helvetica,sans-Serif" font-size="10.00">_flight_log_::blackbox</text>
</a>
</g>
</g>
<!-- Node2&#45;&gt;Node1 -->
<g id="edge1" class="edge">
<title>Node2&#45;&gt;Node1</title>
<path fill="none" stroke="midnightblue" d="M526.52,-144.81C551.14,-138.22 581.76,-130.02 607.84,-123.04"/>
<polygon fill="midnightblue" stroke="midnightblue" points="525.47,-141.47 516.72,-147.44 527.28,-148.23 525.47,-141.47"/>
</g>
<!-- Node3 -->
<g id="node3" class="node">
<title>Node3</title>
<g id="a_node3"><a xlink:href="struct__qrbp___1_1__pid__omega___1_1controller__integrated__state__members.html" target="_top" xlink:title="Structure for the members that are mapped tot he rk4 vector after integration.">
<polygon fill="white" stroke="black" points="415,-87.5 415,-128.5 545,-128.5 545,-87.5 415,-87.5"/>
<text text-anchor="start" x="423" y="-116.5" font-family="Helvetica,sans-Serif" font-size="10.00">_qrbp_::_pid_omega</text>
<text text-anchor="start" x="423" y="-105.5" font-family="Helvetica,sans-Serif" font-size="10.00">_::controller_integrated</text>
<text text-anchor="middle" x="480" y="-94.5" font-family="Helvetica,sans-Serif" font-size="10.00">_state_members</text>
</a>
</g>
</g>
<!-- Node3&#45;&gt;Node1 -->
<g id="edge2" class="edge">
<title>Node3&#45;&gt;Node1</title>
<path fill="none" stroke="#9a32cd" stroke-dasharray="5,2" d="M555.35,-108C572.18,-108 589.8,-108 605.85,-108"/>
<polygon fill="#9a32cd" stroke="#9a32cd" points="555,-104.5 545,-108 555,-111.5 555,-104.5"/>
<text text-anchor="middle" x="575.5" y="-111" font-family="Helvetica,sans-Serif" font-size="10.00"> CSM</text>
</g>
<!-- Node4 -->
<g id="node4" class="node">
<title>Node4</title>
<g id="a_node4"><a xlink:href="struct__qrbp___1_1__pid__omega___1_1controller__internal__members.html" target="_top" xlink:title="Structure for the internal members of the controller.">
<polygon fill="white" stroke="black" points="421.5,-27.5 421.5,-68.5 538.5,-68.5 538.5,-27.5 421.5,-27.5"/>
<text text-anchor="start" x="429.5" y="-56.5" font-family="Helvetica,sans-Serif" font-size="10.00">_qrbp_::_pid_omega</text>
<text text-anchor="start" x="429.5" y="-45.5" font-family="Helvetica,sans-Serif" font-size="10.00">_::controller_internal</text>
<text text-anchor="middle" x="480" y="-34.5" font-family="Helvetica,sans-Serif" font-size="10.00">_members</text>
</a>
</g>
</g>
<!-- Node4&#45;&gt;Node1 -->
<g id="edge3" class="edge">
<title>Node4&#45;&gt;Node1</title>
<path fill="none" stroke="#9a32cd" stroke-dasharray="5,2" d="M548.45,-70.12C571.68,-77.73 597.14,-86.08 618.23,-92.99"/>
<polygon fill="#9a32cd" stroke="#9a32cd" points="549.24,-66.69 538.65,-66.9 547.06,-73.34 549.24,-66.69"/>
<text text-anchor="middle" x="575.5" y="-84" font-family="Helvetica,sans-Serif" font-size="10.00"> CIM</text>
</g>
<!-- Node5 -->
<g id="node5" class="node">
<title>Node5</title>
<g id="a_node5"><a xlink:href="struct__qrbp___1_1__pid__omega___1_1controller__internal__members__aero.html" target="_top" xlink:title="Structure for all the aerodynamic members of the controller.">
<polygon fill="white" stroke="black" points="237,-27.5 237,-68.5 354,-68.5 354,-27.5 237,-27.5"/>
<text text-anchor="start" x="245" y="-56.5" font-family="Helvetica,sans-Serif" font-size="10.00">_qrbp_::_pid_omega</text>
<text text-anchor="start" x="245" y="-45.5" font-family="Helvetica,sans-Serif" font-size="10.00">_::controller_internal</text>
<text text-anchor="middle" x="295.5" y="-34.5" font-family="Helvetica,sans-Serif" font-size="10.00">_members_aero</text>
</a>
</g>
</g>
<!-- Node5&#45;&gt;Node4 -->
<g id="edge4" class="edge">
<title>Node5&#45;&gt;Node4</title>
<path fill="none" stroke="#9a32cd" stroke-dasharray="5,2" d="M364.47,-48C383.16,-48 403.26,-48 421.32,-48"/>
<polygon fill="#9a32cd" stroke="#9a32cd" points="364.24,-44.5 354.24,-48 364.24,-51.5 364.24,-44.5"/>
<text text-anchor="middle" x="384.5" y="-51" font-family="Helvetica,sans-Serif" font-size="10.00"> aero</text>
</g>
<!-- Node6 -->
<g id="node6" class="node">
<title>Node6</title>
<g id="a_node6"><a xlink:href="struct__qrbp___1_1AeroStates.html" target="_top" xlink:title="Angles for the wings and stabilizers.">
<polygon fill="white" stroke="black" points="29.5,-76.5 29.5,-95.5 137.5,-95.5 137.5,-76.5 29.5,-76.5"/>
<text text-anchor="middle" x="83.5" y="-83.5" font-family="Helvetica,sans-Serif" font-size="10.00">_qrbp_::AeroStates</text>
</a>
</g>
</g>
<!-- Node6&#45;&gt;Node5 -->
<g id="edge5" class="edge">
<title>Node6&#45;&gt;Node5</title>
<path fill="none" stroke="#9a32cd" stroke-dasharray="5,2" d="M147.7,-75.55C170.23,-71.73 195.77,-67.29 219,-63 224.78,-61.93 230.81,-60.79 236.82,-59.62"/>
<polygon fill="#9a32cd" stroke="#9a32cd" points="146.86,-72.14 137.58,-77.26 148.02,-79.05 146.86,-72.14"/>
<text text-anchor="middle" x="202" y="-71" font-family="Helvetica,sans-Serif" font-size="10.00"> states</text>
</g>
<!-- Node7 -->
<g id="node7" class="node">
<title>Node7</title>
<g id="a_node7"><a xlink:href="struct__qrbp___1_1AeroCoeff.html" target="_top" xlink:title="Aerodynamic coefficients for the QRBP.">
<polygon fill="white" stroke="black" points="32,-38.5 32,-57.5 135,-57.5 135,-38.5 32,-38.5"/>
<text text-anchor="middle" x="83.5" y="-45.5" font-family="Helvetica,sans-Serif" font-size="10.00">_qrbp_::AeroCoeff</text>
</a>
</g>
</g>
<!-- Node7&#45;&gt;Node5 -->
<g id="edge6" class="edge">
<title>Node7&#45;&gt;Node5</title>
<path fill="none" stroke="#9a32cd" stroke-dasharray="5,2" d="M145.43,-48C174.28,-48 208.55,-48 236.95,-48"/>
<polygon fill="#9a32cd" stroke="#9a32cd" points="145.07,-44.5 135.07,-48 145.07,-51.5 145.07,-44.5"/>
<text text-anchor="middle" x="202" y="-51" font-family="Helvetica,sans-Serif" font-size="10.00"> coeff</text>
</g>
<!-- Node8 -->
<g id="node8" class="node">
<title>Node8</title>
<g id="a_node8"><a xlink:href="struct__qrbp___1_1AeroDynamicMembers.html" target="_top" xlink:title="Structre for all the aerodynamic members of the controller.">
<polygon fill="white" stroke="black" points="0,-0.5 0,-19.5 167,-19.5 167,-0.5 0,-0.5"/>
<text text-anchor="middle" x="83.5" y="-7.5" font-family="Helvetica,sans-Serif" font-size="10.00">_qrbp_::AeroDynamicMembers</text>
</a>
</g>
</g>
<!-- Node8&#45;&gt;Node5 -->
<g id="edge7" class="edge">
<title>Node8&#45;&gt;Node5</title>
<path fill="none" stroke="#9a32cd" stroke-dasharray="5,2" d="M152.13,-21.2C173.54,-24.85 197.28,-28.99 219,-33 224.78,-34.07 230.81,-35.21 236.82,-36.38"/>
<polygon fill="#9a32cd" stroke="#9a32cd" points="152.6,-17.73 142.16,-19.51 151.43,-24.63 152.6,-17.73"/>
<text text-anchor="middle" x="202" y="-36" font-family="Helvetica,sans-Serif" font-size="10.00"> dyn</text>
</g>
</g>
</svg>
