<?xml version="1.0" encoding="UTF-8" standalone="no"?>
<!DOCTYPE svg PUBLIC "-//W3C//DTD SVG 1.1//EN"
 "http://www.w3.org/Graphics/SVG/1.1/DTD/svg11.dtd">
<!-- Generated by graphviz version 2.43.0 (0)
 -->
<!-- Title: _qrbp_::_mrac_omega_::mrac_omega Pages: 1 -->
<svg width="1150pt" height="672pt"
 viewBox="0.00 0.00 1150.00 672.00" xmlns="http://www.w3.org/2000/svg" xmlns:xlink="http://www.w3.org/1999/xlink">
<g id="graph0" class="graph" transform="scale(1 1) rotate(0) translate(4 668)">
<title>_qrbp_::_mrac_omega_::mrac_omega</title>
<polygon fill="white" stroke="transparent" points="-4,4 -4,-668 1146,-668 1146,4 -4,4"/>
<!-- Node1 -->
<g id="node1" class="node">
<title>Node1</title>
<g id="a_node1"><a xlink:title=" ">
<polygon fill="#bfbfbf" stroke="black" points="1018,-167 1018,-197 1142,-197 1142,-167 1018,-167"/>
<text text-anchor="start" x="1026" y="-185" font-family="Helvetica,sans-Serif" font-size="10.00">_qrbp_::_mrac_omega</text>
<text text-anchor="middle" x="1080" y="-174" font-family="Helvetica,sans-Serif" font-size="10.00">_::mrac_omega</text>
</a>
</g>
</g>
<!-- Node2 -->
<g id="node2" class="node">
<title>Node2</title>
<g id="a_node2"><a xlink:href="class__control__algorithm__base___1_1controller__base.html" target="_top" xlink:title="controller_base definition">
<polygon fill="white" stroke="black" points="817,-226 817,-256 948,-256 948,-226 817,-226"/>
<text text-anchor="start" x="825" y="-244" font-family="Helvetica,sans-Serif" font-size="10.00">_control_algorithm</text>
<text text-anchor="middle" x="882.5" y="-233" font-family="Helvetica,sans-Serif" font-size="10.00">_base_::controller_base</text>
</a>
</g>
</g>
<!-- Node2&#45;&gt;Node1 -->
<g id="edge1" class="edge">
<title>Node2&#45;&gt;Node1</title>
<path fill="none" stroke="midnightblue" d="M953.59,-223.33C968.95,-219.18 985.08,-214.62 1000,-210 1012.65,-206.08 1026.29,-201.41 1038.61,-197.02"/>
<polygon fill="midnightblue" stroke="midnightblue" points="952.39,-220.03 943.63,-225.99 954.19,-226.79 952.39,-220.03"/>
</g>
<!-- Node3 -->
<g id="node3" class="node">
<title>Node3</title>
<g id="a_node3"><a xlink:href="structflight__params.html" target="_top" xlink:title=" ">
<polygon fill="white" stroke="black" points="566,-245.5 566,-264.5 649,-264.5 649,-245.5 566,-245.5"/>
<text text-anchor="middle" x="607.5" y="-252.5" font-family="Helvetica,sans-Serif" font-size="10.00">flight_params</text>
</a>
</g>
</g>
<!-- Node3&#45;&gt;Node2 -->
<g id="edge2" class="edge">
<title>Node3&#45;&gt;Node2</title>
<path fill="none" stroke="#9a32cd" stroke-dasharray="5,2" d="M652.9,-243.2C666.03,-240.24 680.51,-237.48 694,-236 734.62,-231.54 780.48,-232.66 816.67,-234.95"/>
<polygon fill="#9a32cd" stroke="#9a32cd" points="652.09,-239.8 643.15,-245.49 653.69,-246.61 652.09,-239.8"/>
<text text-anchor="middle" x="746.5" y="-239" font-family="Helvetica,sans-Serif" font-size="10.00"> flight_params_ptr</text>
</g>
<!-- Node10 -->
<g id="node10" class="node">
<title>Node10</title>
<g id="a_node10"><a xlink:href="class__piecewise__polynomial__trajectory___1_1piecewise__polynomial__trajectory.html" target="_top" xlink:title="Piecwise polynomial trajectory.">
<polygon fill="white" stroke="black" points="817,-392.5 817,-433.5 948,-433.5 948,-392.5 817,-392.5"/>
<text text-anchor="start" x="825" y="-421.5" font-family="Helvetica,sans-Serif" font-size="10.00">_piecewise_polynomial</text>
<text text-anchor="start" x="825" y="-410.5" font-family="Helvetica,sans-Serif" font-size="10.00">_trajectory_::piecewise</text>
<text text-anchor="middle" x="882.5" y="-399.5" font-family="Helvetica,sans-Serif" font-size="10.00">_polynomial_trajectory</text>
</a>
</g>
</g>
<!-- Node3&#45;&gt;Node10 -->
<g id="edge15" class="edge">
<title>Node3&#45;&gt;Node10</title>
<path fill="none" stroke="#9a32cd" stroke-dasharray="5,2" d="M659.21,-254.07C707.66,-254.1 776.55,-256.79 799,-271 843.33,-299.05 866.56,-360.14 876.11,-392.28"/>
<polygon fill="#9a32cd" stroke="#9a32cd" points="659.19,-250.57 649.2,-254.11 659.21,-257.57 659.19,-250.57"/>
<text text-anchor="middle" x="746.5" y="-274" font-family="Helvetica,sans-Serif" font-size="10.00"> flight_params_ptr</text>
</g>
<!-- Node4 -->
<g id="node4" class="node">
<title>Node4</title>
<g id="a_node4"><a xlink:href="structPiecewisePolynomialTrajectoryInfo.html" target="_top" xlink:title=" ">
<polygon fill="white" stroke="black" points="237,-245.5 237,-264.5 424,-264.5 424,-245.5 237,-245.5"/>
<text text-anchor="middle" x="330.5" y="-252.5" font-family="Helvetica,sans-Serif" font-size="10.00">PiecewisePolynomialTrajectoryInfo</text>
</a>
</g>
</g>
<!-- Node4&#45;&gt;Node3 -->
<g id="edge3" class="edge">
<title>Node4&#45;&gt;Node3</title>
<path fill="none" stroke="#9a32cd" stroke-dasharray="5,2" d="M434.5,-255C480.24,-255 531.43,-255 565.98,-255"/>
<polygon fill="#9a32cd" stroke="#9a32cd" points="434.22,-251.5 424.22,-255 434.22,-258.5 434.22,-251.5"/>
<text text-anchor="middle" x="481.5" y="-258" font-family="Helvetica,sans-Serif" font-size="10.00"> traj_params</text>
</g>
<!-- Node5 -->
<g id="node5" class="node">
<title>Node5</title>
<g id="a_node5"><a xlink:href="struct__qrbp___1_1__mrac__omega___1_1controller__internal__members.html" target="_top" xlink:title="Structure for the internal members of the controller.">
<polygon fill="white" stroke="black" points="545.5,-62.5 545.5,-103.5 669.5,-103.5 669.5,-62.5 545.5,-62.5"/>
<text text-anchor="start" x="553.5" y="-91.5" font-family="Helvetica,sans-Serif" font-size="10.00">_qrbp_::_mrac_omega</text>
<text text-anchor="start" x="553.5" y="-80.5" font-family="Helvetica,sans-Serif" font-size="10.00">_::controller_internal</text>
<text text-anchor="middle" x="607.5" y="-69.5" font-family="Helvetica,sans-Serif" font-size="10.00">_members</text>
</a>
</g>
</g>
<!-- Node5&#45;&gt;Node1 -->
<g id="edge4" class="edge">
<title>Node5&#45;&gt;Node1</title>
<path fill="none" stroke="#9a32cd" stroke-dasharray="5,2" d="M679.53,-78.19C749.42,-75.62 858.4,-77.47 948,-105 991.37,-118.32 1035.6,-148.5 1059.95,-166.87"/>
<polygon fill="#9a32cd" stroke="#9a32cd" points="679.35,-74.69 669.5,-78.6 679.64,-81.69 679.35,-74.69"/>
<text text-anchor="middle" x="882.5" y="-108" font-family="Helvetica,sans-Serif" font-size="10.00"> cim</text>
</g>
<!-- Node16 -->
<g id="node16" class="node">
<title>Node16</title>
<g id="a_node16"><a xlink:href="class__qrbp___1_1__mrac__omega___1_1mrac__omega__logger.html" target="_top" xlink:title=" ">
<polygon fill="white" stroke="black" points="818.5,-125 818.5,-155 946.5,-155 946.5,-125 818.5,-125"/>
<text text-anchor="start" x="826.5" y="-143" font-family="Helvetica,sans-Serif" font-size="10.00">_qrbp_::_mrac_omega</text>
<text text-anchor="middle" x="882.5" y="-132" font-family="Helvetica,sans-Serif" font-size="10.00">_::mrac_omega_logger</text>
</a>
</g>
</g>
<!-- Node5&#45;&gt;Node16 -->
<g id="edge19" class="edge">
<title>Node5&#45;&gt;Node16</title>
<path fill="none" stroke="#9a32cd" stroke-dasharray="5,2" d="M679.75,-97.36C715.56,-104.63 759.6,-113.67 799,-122 805.31,-123.33 811.89,-124.74 818.46,-126.16"/>
<polygon fill="#9a32cd" stroke="#9a32cd" points="680.38,-93.92 669.88,-95.36 678.99,-100.78 680.38,-93.92"/>
<text text-anchor="middle" x="746.5" y="-125" font-family="Helvetica,sans-Serif" font-size="10.00"> CIM</text>
</g>
<!-- Node6 -->
<g id="node6" class="node">
<title>Node6</title>
<g id="a_node6"><a xlink:href="struct__qrbp___1_1__mrac__omega___1_1controller__internal__members__aero.html" target="_top" xlink:title="Structure for all the aerodynamic members of the controller.">
<polygon fill="white" stroke="black" points="268.5,-62.5 268.5,-103.5 392.5,-103.5 392.5,-62.5 268.5,-62.5"/>
<text text-anchor="start" x="276.5" y="-91.5" font-family="Helvetica,sans-Serif" font-size="10.00">_qrbp_::_mrac_omega</text>
<text text-anchor="start" x="276.5" y="-80.5" font-family="Helvetica,sans-Serif" font-size="10.00">_::controller_internal</text>
<text text-anchor="middle" x="330.5" y="-69.5" font-family="Helvetica,sans-Serif" font-size="10.00">_members_aero</text>
</a>
</g>
</g>
<!-- Node6&#45;&gt;Node5 -->
<g id="edge5" class="edge">
<title>Node6&#45;&gt;Node5</title>
<path fill="none" stroke="#9a32cd" stroke-dasharray="5,2" d="M402.62,-83C446.78,-83 502.96,-83 545.16,-83"/>
<polygon fill="#9a32cd" stroke="#9a32cd" points="402.53,-79.5 392.53,-83 402.53,-86.5 402.53,-79.5"/>
<text text-anchor="middle" x="481.5" y="-86" font-family="Helvetica,sans-Serif" font-size="10.00"> aero</text>
</g>
<!-- Node7 -->
<g id="node7" class="node">
<title>Node7</title>
<g id="a_node7"><a xlink:href="struct__qrbp___1_1AeroStates.html" target="_top" xlink:title="Angles for the wings and stabilizers.">
<polygon fill="white" stroke="black" points="29.5,-111.5 29.5,-130.5 137.5,-130.5 137.5,-111.5 29.5,-111.5"/>
<text text-anchor="middle" x="83.5" y="-118.5" font-family="Helvetica,sans-Serif" font-size="10.00">_qrbp_::AeroStates</text>
</a>
</g>
</g>
<!-- Node7&#45;&gt;Node6 -->
<g id="edge6" class="edge">
<title>Node7&#45;&gt;Node6</title>
<path fill="none" stroke="#9a32cd" stroke-dasharray="5,2" d="M147.85,-111.17C184.93,-105.42 231.52,-98.2 268.24,-92.5"/>
<polygon fill="#9a32cd" stroke="#9a32cd" points="147.01,-107.76 137.66,-112.75 148.08,-114.68 147.01,-107.76"/>
<text text-anchor="middle" x="202" y="-108" font-family="Helvetica,sans-Serif" font-size="10.00"> states</text>
</g>
<!-- Node8 -->
<g id="node8" class="node">
<title>Node8</title>
<g id="a_node8"><a xlink:href="struct__qrbp___1_1AeroCoeff.html" target="_top" xlink:title="Aerodynamic coefficients for the QRBP.">
<polygon fill="white" stroke="black" points="32,-73.5 32,-92.5 135,-92.5 135,-73.5 32,-73.5"/>
<text text-anchor="middle" x="83.5" y="-80.5" font-family="Helvetica,sans-Serif" font-size="10.00">_qrbp_::AeroCoeff</text>
</a>
</g>
</g>
<!-- Node8&#45;&gt;Node6 -->
<g id="edge7" class="edge">
<title>Node8&#45;&gt;Node6</title>
<path fill="none" stroke="#9a32cd" stroke-dasharray="5,2" d="M145.55,-83C183.04,-83 230.89,-83 268.4,-83"/>
<polygon fill="#9a32cd" stroke="#9a32cd" points="145.26,-79.5 135.26,-83 145.26,-86.5 145.26,-79.5"/>
<text text-anchor="middle" x="202" y="-86" font-family="Helvetica,sans-Serif" font-size="10.00"> coeff</text>
</g>
<!-- Node9 -->
<g id="node9" class="node">
<title>Node9</title>
<g id="a_node9"><a xlink:href="struct__qrbp___1_1AeroDynamicMembers.html" target="_top" xlink:title="Structre for all the aerodynamic members of the controller.">
<polygon fill="white" stroke="black" points="0,-35.5 0,-54.5 167,-54.5 167,-35.5 0,-35.5"/>
<text text-anchor="middle" x="83.5" y="-42.5" font-family="Helvetica,sans-Serif" font-size="10.00">_qrbp_::AeroDynamicMembers</text>
</a>
</g>
</g>
<!-- Node9&#45;&gt;Node6 -->
<g id="edge8" class="edge">
<title>Node9&#45;&gt;Node6</title>
<path fill="none" stroke="#9a32cd" stroke-dasharray="5,2" d="M156.33,-56.14C191.9,-61.66 234.4,-68.25 268.39,-73.52"/>
<polygon fill="#9a32cd" stroke="#9a32cd" points="156.43,-52.61 146.01,-54.54 155.35,-59.53 156.43,-52.61"/>
<text text-anchor="middle" x="202" y="-68" font-family="Helvetica,sans-Serif" font-size="10.00"> dyn</text>
</g>
<!-- Node10&#45;&gt;Node1 -->
<g id="edge9" class="edge">
<title>Node10&#45;&gt;Node1</title>
<path fill="none" stroke="#9a32cd" stroke-dasharray="5,2" d="M907.78,-384.31C949.67,-334.81 1034.13,-235.02 1066.23,-197.09"/>
<polygon fill="#9a32cd" stroke="#9a32cd" points="904.98,-382.2 901.19,-392.09 910.33,-386.72 904.98,-382.2"/>
<text text-anchor="middle" x="983" y="-314" font-family="Helvetica,sans-Serif" font-size="10.00"> ud</text>
</g>
<!-- Node11 -->
<g id="node11" class="node">
<title>Node11</title>
<g id="a_node11"><a xlink:href="class__user__defined__trajectory__base___1_1trajectory__base.html" target="_top" xlink:title="base trajectory for pixhawk">
<polygon fill="white" stroke="black" points="539,-565 539,-595 676,-595 676,-565 539,-565"/>
<text text-anchor="start" x="547" y="-583" font-family="Helvetica,sans-Serif" font-size="10.00">_user_defined_trajectory</text>
<text text-anchor="middle" x="607.5" y="-572" font-family="Helvetica,sans-Serif" font-size="10.00">_base_::trajectory_base</text>
</a>
</g>
</g>
<!-- Node11&#45;&gt;Node10 -->
<g id="edge10" class="edge">
<title>Node11&#45;&gt;Node10</title>
<path fill="none" stroke="midnightblue" d="M660.45,-597.73C701.29,-608.28 757.96,-615.09 799,-589 853.82,-554.15 872.85,-472.2 878.91,-433.68"/>
<polygon fill="midnightblue" stroke="midnightblue" points="661.26,-594.32 650.69,-595.06 659.41,-601.07 661.26,-594.32"/>
</g>
<!-- Node12 -->
<g id="node12" class="node">
<title>Node12</title>
<g id="a_node12"><a xlink:title=" ">
<polygon fill="white" stroke="#bfbfbf" points="301,-576.5 301,-595.5 360,-595.5 360,-576.5 301,-576.5"/>
<text text-anchor="middle" x="330.5" y="-583.5" font-family="Helvetica,sans-Serif" font-size="10.00">Vector3d</text>
</a>
</g>
</g>
<!-- Node12&#45;&gt;Node10 -->
<g id="edge13" class="edge">
<title>Node12&#45;&gt;Node10</title>
<path fill="none" stroke="#9a32cd" stroke-dasharray="5,2" d="M359.05,-600.04C380.9,-610.34 412.57,-623.48 442,-629 540.09,-647.41 742.76,-652.11 799,-612 858.68,-569.44 875.34,-475.4 879.86,-433.66"/>
<polygon fill="#9a32cd" stroke="#9a32cd" points="360.56,-596.88 350.03,-595.68 357.51,-603.18 360.56,-596.88"/>
<text text-anchor="start" x="552.5" y="-656" font-family="Helvetica,sans-Serif" font-size="10.00"> user_defined_position</text>
<text text-anchor="middle" x="607.5" y="-645" font-family="Helvetica,sans-Serif" font-size="10.00">_previous_</text>
</g>
<!-- Node12&#45;&gt;Node11 -->
<g id="edge11" class="edge">
<title>Node12&#45;&gt;Node11</title>
<path fill="none" stroke="#9a32cd" stroke-dasharray="5,2" d="M353.71,-570.77C375.2,-557.04 409.24,-537.83 442,-530 476.15,-521.84 487.59,-519.2 521,-530 530.39,-533.04 530.66,-537.73 539,-543 551.2,-550.71 565.12,-558.5 577.14,-564.93"/>
<polygon fill="#9a32cd" stroke="#9a32cd" points="351.76,-567.87 345.31,-576.28 355.6,-573.73 351.76,-567.87"/>
<text text-anchor="middle" x="481.5" y="-621" font-family="Helvetica,sans-Serif" font-size="10.00"> ud_acc</text>
<text text-anchor="middle" x="481.5" y="-610" font-family="Helvetica,sans-Serif" font-size="10.00">ud_angle</text>
<text text-anchor="middle" x="481.5" y="-599" font-family="Helvetica,sans-Serif" font-size="10.00">ud_angular_acc</text>
<text text-anchor="middle" x="481.5" y="-588" font-family="Helvetica,sans-Serif" font-size="10.00">ud_angular_rate</text>
<text text-anchor="start" x="442" y="-577" font-family="Helvetica,sans-Serif" font-size="10.00">ud_angular_rate</text>
<text text-anchor="middle" x="481.5" y="-566" font-family="Helvetica,sans-Serif" font-size="10.00">_dot</text>
<text text-anchor="middle" x="481.5" y="-555" font-family="Helvetica,sans-Serif" font-size="10.00">ud_angular_vel</text>
<text text-anchor="middle" x="481.5" y="-544" font-family="Helvetica,sans-Serif" font-size="10.00">ud_pos</text>
<text text-anchor="middle" x="481.5" y="-533" font-family="Helvetica,sans-Serif" font-size="10.00">ud_vel</text>
</g>
<!-- Node13 -->
<g id="node13" class="node">
<title>Node13</title>
<g id="a_node13"><a xlink:title=" ">
<polygon fill="white" stroke="#bfbfbf" points="577.5,-514.5 577.5,-533.5 637.5,-533.5 637.5,-514.5 577.5,-514.5"/>
<text text-anchor="middle" x="607.5" y="-521.5" font-family="Helvetica,sans-Serif" font-size="10.00">VectorXd</text>
</a>
</g>
</g>
<!-- Node13&#45;&gt;Node10 -->
<g id="edge12" class="edge">
<title>Node13&#45;&gt;Node10</title>
<path fill="none" stroke="#9a32cd" stroke-dasharray="5,2" d="M647.64,-522.66C695.51,-520.48 773.34,-515.01 799,-502 829.63,-486.47 854.7,-454.64 868.88,-433.56"/>
<polygon fill="#9a32cd" stroke="#9a32cd" points="647.46,-519.17 637.62,-523.09 647.76,-526.16 647.46,-519.17"/>
<text text-anchor="start" x="694" y="-577" font-family="Helvetica,sans-Serif" font-size="10.00"> landing_acceleration</text>
<text text-anchor="middle" x="746.5" y="-566" font-family="Helvetica,sans-Serif" font-size="10.00">_coef_z_</text>
<text text-anchor="start" x="694" y="-555" font-family="Helvetica,sans-Serif" font-size="10.00">landing_position</text>
<text text-anchor="middle" x="746.5" y="-544" font-family="Helvetica,sans-Serif" font-size="10.00">_coef_z_</text>
<text text-anchor="start" x="694" y="-533" font-family="Helvetica,sans-Serif" font-size="10.00">landing_velocity</text>
<text text-anchor="middle" x="746.5" y="-522" font-family="Helvetica,sans-Serif" font-size="10.00">_coef_z_</text>
</g>
<!-- Node14 -->
<g id="node14" class="node">
<title>Node14</title>
<g id="a_node14"><a xlink:title=" ">
<polygon fill="white" stroke="#bfbfbf" points="577,-293.5 577,-312.5 638,-312.5 638,-293.5 577,-293.5"/>
<text text-anchor="middle" x="607.5" y="-300.5" font-family="Helvetica,sans-Serif" font-size="10.00">MatrixXd</text>
</a>
</g>
</g>
<!-- Node14&#45;&gt;Node10 -->
<g id="edge14" class="edge">
<title>Node14&#45;&gt;Node10</title>
<path fill="none" stroke="#9a32cd" stroke-dasharray="5,2" d="M648.07,-293.46C688.32,-285.91 751.39,-280.17 799,-304 835.93,-322.48 860.77,-366.2 872.9,-392.3"/>
<polygon fill="#9a32cd" stroke="#9a32cd" points="647.22,-290.06 638.1,-295.46 648.59,-296.93 647.22,-290.06"/>
<text text-anchor="start" x="696" y="-494" font-family="Helvetica,sans-Serif" font-size="10.00"> acceleration_coef_x</text>
<text text-anchor="middle" x="746.5" y="-483" font-family="Helvetica,sans-Serif" font-size="10.00">_</text>
<text text-anchor="start" x="696" y="-472" font-family="Helvetica,sans-Serif" font-size="10.00">acceleration_coef</text>
<text text-anchor="middle" x="746.5" y="-461" font-family="Helvetica,sans-Serif" font-size="10.00">_y_</text>
<text text-anchor="start" x="696" y="-450" font-family="Helvetica,sans-Serif" font-size="10.00">acceleration_coef</text>
<text text-anchor="middle" x="746.5" y="-439" font-family="Helvetica,sans-Serif" font-size="10.00">_z_</text>
<text text-anchor="middle" x="746.5" y="-428" font-family="Helvetica,sans-Serif" font-size="10.00">jerk_coef_x_</text>
<text text-anchor="middle" x="746.5" y="-417" font-family="Helvetica,sans-Serif" font-size="10.00">jerk_coef_y_</text>
<text text-anchor="middle" x="746.5" y="-406" font-family="Helvetica,sans-Serif" font-size="10.00">jerk_coef_z_</text>
<text text-anchor="start" x="696" y="-395" font-family="Helvetica,sans-Serif" font-size="10.00">position_coef</text>
<text text-anchor="middle" x="746.5" y="-384" font-family="Helvetica,sans-Serif" font-size="10.00">_x_</text>
<text text-anchor="start" x="696" y="-373" font-family="Helvetica,sans-Serif" font-size="10.00">position_coef</text>
<text text-anchor="middle" x="746.5" y="-362" font-family="Helvetica,sans-Serif" font-size="10.00">_y_</text>
<text text-anchor="start" x="696" y="-351" font-family="Helvetica,sans-Serif" font-size="10.00">position_coef</text>
<text text-anchor="middle" x="746.5" y="-340" font-family="Helvetica,sans-Serif" font-size="10.00">_z_</text>
<text text-anchor="start" x="696" y="-329" font-family="Helvetica,sans-Serif" font-size="10.00">velocity_coef</text>
<text text-anchor="middle" x="746.5" y="-318" font-family="Helvetica,sans-Serif" font-size="10.00">_x_</text>
<text text-anchor="middle" x="746.5" y="-307" font-family="Helvetica,sans-Serif" font-size="10.00">...</text>
</g>
<!-- Node15 -->
<g id="node15" class="node">
<title>Node15</title>
<g id="a_node15"><a xlink:href="struct__qrbp___1_1__mrac__omega___1_1controller__integrated__state__members.html" target="_top" xlink:title="Structure for the members that are mapped to the rk4 vector after integration.">
<polygon fill="white" stroke="black" points="542.5,-170.5 542.5,-211.5 672.5,-211.5 672.5,-170.5 542.5,-170.5"/>
<text text-anchor="start" x="550.5" y="-199.5" font-family="Helvetica,sans-Serif" font-size="10.00">_qrbp_::_mrac_omega</text>
<text text-anchor="start" x="550.5" y="-188.5" font-family="Helvetica,sans-Serif" font-size="10.00">_::controller_integrated</text>
<text text-anchor="middle" x="607.5" y="-177.5" font-family="Helvetica,sans-Serif" font-size="10.00">_state_members</text>
</a>
</g>
</g>
<!-- Node15&#45;&gt;Node1 -->
<g id="edge16" class="edge">
<title>Node15&#45;&gt;Node1</title>
<path fill="none" stroke="#9a32cd" stroke-dasharray="5,2" d="M683.08,-189.57C775.74,-187.8 932.07,-184.81 1017.95,-183.17"/>
<polygon fill="#9a32cd" stroke="#9a32cd" points="682.87,-186.08 672.93,-189.77 683,-193.08 682.87,-186.08"/>
<text text-anchor="middle" x="882.5" y="-189" font-family="Helvetica,sans-Serif" font-size="10.00"> csm</text>
</g>
<!-- Node15&#45;&gt;Node16 -->
<g id="edge20" class="edge">
<title>Node15&#45;&gt;Node16</title>
<path fill="none" stroke="#9a32cd" stroke-dasharray="5,2" d="M682.84,-173.3C686.61,-172.5 690.35,-171.73 694,-171 735.26,-162.77 781.93,-155.05 818.38,-149.37"/>
<polygon fill="#9a32cd" stroke="#9a32cd" points="681.86,-169.93 672.83,-175.47 683.34,-176.77 681.86,-169.93"/>
<text text-anchor="middle" x="746.5" y="-174" font-family="Helvetica,sans-Serif" font-size="10.00"> CSM</text>
</g>
<!-- Node16&#45;&gt;Node1 -->
<g id="edge17" class="edge">
<title>Node16&#45;&gt;Node1</title>
<path fill="none" stroke="#9a32cd" stroke-dasharray="5,2" d="M956.73,-155.73C976.81,-160.05 998.35,-164.67 1017.68,-168.83"/>
<polygon fill="#9a32cd" stroke="#9a32cd" points="957.22,-152.26 946.7,-153.58 955.75,-159.1 957.22,-152.26"/>
<text text-anchor="middle" x="983" y="-167" font-family="Helvetica,sans-Serif" font-size="10.00"> logger</text>
</g>
<!-- Node17 -->
<g id="node17" class="node">
<title>Node17</title>
<g id="a_node17"><a xlink:href="class__flight__log___1_1blackbox.html" target="_top" xlink:title=" ">
<polygon fill="white" stroke="black" points="546.5,-127.5 546.5,-146.5 668.5,-146.5 668.5,-127.5 546.5,-127.5"/>
<text text-anchor="middle" x="607.5" y="-134.5" font-family="Helvetica,sans-Serif" font-size="10.00">_flight_log_::blackbox</text>
</a>
</g>
</g>
<!-- Node17&#45;&gt;Node16 -->
<g id="edge18" class="edge">
<title>Node17&#45;&gt;Node16</title>
<path fill="none" stroke="midnightblue" d="M678.86,-137.77C721.86,-138.25 776.41,-138.85 818.08,-139.3"/>
<polygon fill="midnightblue" stroke="midnightblue" points="678.79,-134.27 668.75,-137.66 678.71,-141.27 678.79,-134.27"/>
</g>
<!-- Node18 -->
<g id="node18" class="node">
<title>Node18</title>
<g id="a_node18"><a xlink:href="struct__qrbp___1_1__mrac__omega___1_1controller__internal__paramters.html" target="_top" xlink:title="Structure for all parameter members of the controller.">
<polygon fill="white" stroke="black" points="820.5,-0.5 820.5,-41.5 944.5,-41.5 944.5,-0.5 820.5,-0.5"/>
<text text-anchor="start" x="828.5" y="-29.5" font-family="Helvetica,sans-Serif" font-size="10.00">_qrbp_::_mrac_omega</text>
<text text-anchor="start" x="828.5" y="-18.5" font-family="Helvetica,sans-Serif" font-size="10.00">_::controller_internal</text>
<text text-anchor="middle" x="882.5" y="-7.5" font-family="Helvetica,sans-Serif" font-size="10.00">_paramters</text>
</a>
</g>
</g>
<!-- Node18&#45;&gt;Node1 -->
<g id="edge21" class="edge">
<title>Node18&#45;&gt;Node1</title>
<path fill="none" stroke="#9a32cd" stroke-dasharray="5,2" d="M954.52,-31.44C970.56,-36.17 986.74,-43.03 1000,-53 1039.88,-82.99 1064.08,-139.52 1073.91,-166.68"/>
<polygon fill="#9a32cd" stroke="#9a32cd" points="955.14,-27.99 944.58,-28.77 953.33,-34.75 955.14,-27.99"/>
<text text-anchor="middle" x="983" y="-56" font-family="Helvetica,sans-Serif" font-size="10.00"> cip</text>
</g>
</g>
</svg>
