<?xml version="1.0" encoding="UTF-8" standalone="no"?>
<!DOCTYPE svg PUBLIC "-//W3C//DTD SVG 1.1//EN"
 "http://www.w3.org/Graphics/SVG/1.1/DTD/svg11.dtd">
<!-- Generated by graphviz version 2.43.0 (0)
 -->
<!-- Title: _flight_log_::blackbox Pages: 1 -->
<svg width="318pt" height="323pt"
 viewBox="0.00 0.00 318.00 322.50" xmlns="http://www.w3.org/2000/svg" xmlns:xlink="http://www.w3.org/1999/xlink">
<g id="graph0" class="graph" transform="scale(1 1) rotate(0) translate(4 318.5)">
<title>_flight_log_::blackbox</title>
<polygon fill="white" stroke="transparent" points="-4,4 -4,-318.5 314,-318.5 314,4 -4,4"/>
<!-- Node1 -->
<g id="node1" class="node">
<title>Node1</title>
<g id="a_node1"><a xlink:title=" ">
<polygon fill="#bfbfbf" stroke="black" points="0,-142.5 0,-161.5 122,-161.5 122,-142.5 0,-142.5"/>
<text text-anchor="middle" x="61" y="-149.5" font-family="Helvetica,sans-Serif" font-size="10.00">_flight_log_::blackbox</text>
</a>
</g>
</g>
<!-- Node2 -->
<g id="node2" class="node">
<title>Node2</title>
<g id="a_node2"><a xlink:href="class__drivers___1_1__udp__driver___1_1UdpReceiverNode.html" target="_top" xlink:title="UdpReceiverNode class which can receive UDP datagrams.">
<polygon fill="white" stroke="black" points="172,-284 172,-314 296,-314 296,-284 172,-284"/>
<text text-anchor="start" x="180" y="-302" font-family="Helvetica,sans-Serif" font-size="10.00">_drivers_::_udp_driver</text>
<text text-anchor="middle" x="234" y="-291" font-family="Helvetica,sans-Serif" font-size="10.00">_::UdpReceiverNode</text>
</a>
</g>
</g>
<!-- Node1&#45;&gt;Node2 -->
<g id="edge1" class="edge">
<title>Node1&#45;&gt;Node2</title>
<path fill="none" stroke="midnightblue" d="M71.78,-170.71C86.79,-197.63 118,-247.11 158,-275 162.93,-278.44 168.39,-281.41 174.04,-283.96"/>
<polygon fill="midnightblue" stroke="midnightblue" points="74.68,-168.71 66.84,-161.59 68.53,-172.05 74.68,-168.71"/>
</g>
<!-- Node3 -->
<g id="node3" class="node">
<title>Node3</title>
<g id="a_node3"><a xlink:href="class__qrbp___1_1__mrac__omega___1_1mrac__omega__logger.html" target="_top" xlink:title=" ">
<polygon fill="white" stroke="black" points="170,-235 170,-265 298,-265 298,-235 170,-235"/>
<text text-anchor="start" x="178" y="-253" font-family="Helvetica,sans-Serif" font-size="10.00">_qrbp_::_mrac_omega</text>
<text text-anchor="middle" x="234" y="-242" font-family="Helvetica,sans-Serif" font-size="10.00">_::mrac_omega_logger</text>
</a>
</g>
</g>
<!-- Node1&#45;&gt;Node3 -->
<g id="edge2" class="edge">
<title>Node1&#45;&gt;Node3</title>
<path fill="none" stroke="midnightblue" d="M79.65,-168.68C97.98,-185.23 128.11,-210.31 158,-226 164.3,-229.3 171.13,-232.25 178.02,-234.86"/>
<polygon fill="midnightblue" stroke="midnightblue" points="81.83,-165.93 72.1,-161.74 77.1,-171.09 81.83,-165.93"/>
</g>
<!-- Node4 -->
<g id="node4" class="node">
<title>Node4</title>
<g id="a_node4"><a xlink:href="class__qrbp___1_1__mrac__pid___1_1mrac__pid__logger.html" target="_top" xlink:title=" ">
<polygon fill="white" stroke="black" points="179,-186 179,-216 289,-216 289,-186 179,-186"/>
<text text-anchor="start" x="187" y="-204" font-family="Helvetica,sans-Serif" font-size="10.00">_qrbp_::_mrac_pid_</text>
<text text-anchor="middle" x="234" y="-193" font-family="Helvetica,sans-Serif" font-size="10.00">::mrac_pid_logger</text>
</a>
</g>
</g>
<!-- Node1&#45;&gt;Node4 -->
<g id="edge3" class="edge">
<title>Node1&#45;&gt;Node4</title>
<path fill="none" stroke="midnightblue" d="M105.15,-164.37C128.05,-170.93 156.37,-179.04 180.52,-185.96"/>
<polygon fill="midnightblue" stroke="midnightblue" points="105.95,-160.95 95.38,-161.56 104.03,-167.68 105.95,-160.95"/>
</g>
<!-- Node5 -->
<g id="node5" class="node">
<title>Node5</title>
<g id="a_node5"><a xlink:href="class__qrbp___1_1__pid___1_1pid__logger.html" target="_top" xlink:title="Logger for the pid.">
<polygon fill="white" stroke="black" points="183.5,-137 183.5,-167 284.5,-167 284.5,-137 183.5,-137"/>
<text text-anchor="start" x="191.5" y="-155" font-family="Helvetica,sans-Serif" font-size="10.00">_qrbp_::_pid_::pid</text>
<text text-anchor="middle" x="234" y="-144" font-family="Helvetica,sans-Serif" font-size="10.00">_logger</text>
</a>
</g>
</g>
<!-- Node1&#45;&gt;Node5 -->
<g id="edge4" class="edge">
<title>Node1&#45;&gt;Node5</title>
<path fill="none" stroke="midnightblue" d="M132.75,-152C149.77,-152 167.59,-152 183.41,-152"/>
<polygon fill="midnightblue" stroke="midnightblue" points="132.29,-148.5 122.29,-152 132.29,-155.5 132.29,-148.5"/>
</g>
<!-- Node6 -->
<g id="node6" class="node">
<title>Node6</title>
<g id="a_node6"><a xlink:href="class__qrbp___1_1__pid__omega___1_1pid__omega__logger.html" target="_top" xlink:title="PID_OMEGA logger class.">
<polygon fill="white" stroke="black" points="175,-88 175,-118 293,-118 293,-88 175,-88"/>
<text text-anchor="start" x="183" y="-106" font-family="Helvetica,sans-Serif" font-size="10.00">_qrbp_::_pid_omega</text>
<text text-anchor="middle" x="234" y="-95" font-family="Helvetica,sans-Serif" font-size="10.00">_::pid_omega_logger</text>
</a>
</g>
</g>
<!-- Node1&#45;&gt;Node6 -->
<g id="edge5" class="edge">
<title>Node1&#45;&gt;Node6</title>
<path fill="none" stroke="midnightblue" d="M105.15,-139.63C128.05,-133.07 156.37,-124.96 180.52,-118.04"/>
<polygon fill="midnightblue" stroke="midnightblue" points="104.03,-136.32 95.38,-142.44 105.95,-143.05 104.03,-136.32"/>
</g>
<!-- Node7 -->
<g id="node7" class="node">
<title>Node7</title>
<g id="a_node7"><a xlink:href="class__rostestdrone___1_1__pid___1_1pid__logger.html" target="_top" xlink:title="Class to log PID.">
<polygon fill="white" stroke="black" points="176.5,-39 176.5,-69 291.5,-69 291.5,-39 176.5,-39"/>
<text text-anchor="start" x="184.5" y="-57" font-family="Helvetica,sans-Serif" font-size="10.00">_rostestdrone_::_pid</text>
<text text-anchor="middle" x="234" y="-46" font-family="Helvetica,sans-Serif" font-size="10.00">_::pid_logger</text>
</a>
</g>
</g>
<!-- Node1&#45;&gt;Node7 -->
<g id="edge6" class="edge">
<title>Node1&#45;&gt;Node7</title>
<path fill="none" stroke="midnightblue" d="M79.73,-135.63C98.12,-119.38 128.3,-94.69 158,-79 165.04,-75.28 172.74,-71.97 180.44,-69.06"/>
<polygon fill="midnightblue" stroke="midnightblue" points="77.25,-133.16 72.15,-142.44 81.93,-138.36 77.25,-133.16"/>
</g>
<!-- Node8 -->
<g id="node8" class="node">
<title>Node8</title>
<g id="a_node8"><a xlink:href="class__t265___1_1__vio___1_1VioT265Node.html" target="_top" xlink:title="VioT265Node class which can recieve position tracking from the Realsense T265.">
<polygon fill="white" stroke="black" points="158,-0.5 158,-19.5 310,-19.5 310,-0.5 158,-0.5"/>
<text text-anchor="middle" x="234" y="-7.5" font-family="Helvetica,sans-Serif" font-size="10.00">_t265_::_vio_::VioT265Node</text>
</a>
</g>
</g>
<!-- Node1&#45;&gt;Node8 -->
<g id="edge7" class="edge">
<title>Node1&#45;&gt;Node8</title>
<path fill="none" stroke="midnightblue" d="M71.65,-133.18C86.48,-106.16 117.48,-56.68 158,-30 164.64,-25.63 172.2,-22.21 179.91,-19.53"/>
<polygon fill="midnightblue" stroke="midnightblue" points="68.38,-131.88 66.76,-142.35 74.55,-135.17 68.38,-131.88"/>
</g>
</g>
</svg>
