<?xml version="1.0" encoding="UTF-8" standalone="no"?>
<!DOCTYPE svg PUBLIC "-//W3C//DTD SVG 1.1//EN"
 "http://www.w3.org/Graphics/SVG/1.1/DTD/svg11.dtd">
<!-- Generated by graphviz version 2.43.0 (0)
 -->
<!-- Title: _qrbp_::_pid_::pid Pages: 1 -->
<!--zoomable 665 -->
<svg id="main" version="1.1" xmlns="http://www.w3.org/2000/svg" xmlns:xlink="http://www.w3.org/1999/xlink" xml:space="preserve" onload="init(evt)">
<style type="text/css"><![CDATA[
.edge:hover path { stroke: red; }
.edge:hover polygon { stroke: red; fill: red; }
]]></style>
<script type="text/javascript"><![CDATA[
var edges = document.getElementsByTagName('g');
if (edges && edges.length) {
  for (var i=0;i<edges.length;i++) {
    if (edges[i].id.substr(0,4)=='edge') {
      edges[i].setAttribute('class','edge');
    }
  }
}
]]></script>
        <defs>
                <circle id="rim" cx="0" cy="0" r="7"/>
                <circle id="rim2" cx="0" cy="0" r="3.5"/>
                <g id="zoomPlus">
                        <use xlink:href="#rim" fill="#404040">
                                <set attributeName="fill" to="#808080" begin="zoomplus.mouseover" end="zoomplus.mouseout"/>
                        </use>
                        <path d="M-4,0h8M0,-4v8" fill="none" stroke="white" stroke-width="1.5" pointer-events="none"/>
                </g>
                <g id="zoomMin">
                        <use xlink:href="#rim" fill="#404040">
                                <set attributeName="fill" to="#808080" begin="zoomminus.mouseover" end="zoomminus.mouseout"/>
                        </use>
                        <path d="M-4,0h8" fill="none" stroke="white" stroke-width="1.5" pointer-events="none"/>
                </g>
                <g id="dirArrow">
                        <path fill="none" stroke="white" stroke-width="1.5" d="M0,-3.0v7 M-2.5,-0.5L0,-3.0L2.5,-0.5"/>
                </g>
               <g id="resetDef">
                       <use xlink:href="#rim2" fill="#404040">
                               <set attributeName="fill" to="#808080" begin="reset.mouseover" end="reset.mouseout"/>
                       </use>
               </g>
        </defs>

<script type="text/javascript">
var viewWidth = 1146;
var viewHeight = 665;
var sectionId = 'dynsection-1';
</script>
<script xlink:href="svgpan.js"/>
<svg id="graph" class="graph">
<g id="viewport">
<title>_qrbp_::_pid_::pid</title>
<polygon fill="white" stroke="transparent" points="-4,4 -4,-660.5 1142,-660.5 1142,4 -4,4"/>
<!-- Node1 -->
<g id="node1" class="node">
<title>Node1</title>
<g id="a_node1"><a xlink:title="PID class.">
<polygon fill="#bfbfbf" stroke="black" points="1037,-162 1037,-181 1138,-181 1138,-162 1037,-162"/>
<text text-anchor="middle" x="1087.5" y="-169" font-family="Helvetica,sans-Serif" font-size="10.00">_qrbp_::_pid_::pid</text>
</a>
</g>
</g>
<!-- Node2 -->
<g id="node2" class="node">
<title>Node2</title>
<g id="a_node2"><a xlink:href="class__control__algorithm__base___1_1controller__base.html" target="_top" xlink:title="controller_base definition">
<polygon fill="white" stroke="black" points="835,-215.5 835,-245.5 966,-245.5 966,-215.5 835,-215.5"/>
<text text-anchor="start" x="843" y="-233.5" font-family="Helvetica,sans-Serif" font-size="10.00">_control_algorithm</text>
<text text-anchor="middle" x="900.5" y="-222.5" font-family="Helvetica,sans-Serif" font-size="10.00">_base_::controller_base</text>
</a>
</g>
</g>
<!-- Node2&#45;&gt;Node1 -->
<g id="edge1" class="edge">
<title>Node2&#45;&gt;Node1</title>
<path fill="none" stroke="midnightblue" d="M974.86,-212.78C989.59,-208.77 1004.87,-204.27 1019,-199.5 1034.87,-194.14 1052.32,-186.87 1065.5,-181.07"/>
<polygon fill="midnightblue" stroke="midnightblue" points="973.53,-209.52 964.78,-215.48 975.34,-216.28 973.53,-209.52"/>
</g>
<!-- Node3 -->
<g id="node3" class="node">
<title>Node3</title>
<g id="a_node3"><a xlink:href="structflight__params.html" target="_top" xlink:title=" ">
<polygon fill="white" stroke="black" points="574.5,-233 574.5,-252 657.5,-252 657.5,-233 574.5,-233"/>
<text text-anchor="middle" x="616" y="-240" font-family="Helvetica,sans-Serif" font-size="10.00">flight_params</text>
</a>
</g>
</g>
<!-- Node3&#45;&gt;Node2 -->
<g id="edge2" class="edge">
<title>Node3&#45;&gt;Node2</title>
<path fill="none" stroke="#9a32cd" stroke-dasharray="5,2" d="M667.46,-231.66C681.49,-229.12 696.78,-226.78 711,-225.5 757.48,-221.33 769.35,-224.1 816,-225.5 822.1,-225.68 828.44,-225.94 834.79,-226.24"/>
<polygon fill="#9a32cd" stroke="#9a32cd" points="666.68,-228.25 657.5,-233.54 667.98,-235.13 666.68,-228.25"/>
<text text-anchor="middle" x="763.5" y="-228.5" font-family="Helvetica,sans-Serif" font-size="10.00"> flight_params_ptr</text>
</g>
<!-- Node5 -->
<g id="node5" class="node">
<title>Node5</title>
<g id="a_node5"><a xlink:href="class__piecewise__polynomial__trajectory___1_1piecewise__polynomial__trajectory.html" target="_top" xlink:title="Piecwise polynomial trajectory.">
<polygon fill="white" stroke="black" points="835,-382 835,-423 966,-423 966,-382 835,-382"/>
<text text-anchor="start" x="843" y="-411" font-family="Helvetica,sans-Serif" font-size="10.00">_piecewise_polynomial</text>
<text text-anchor="start" x="843" y="-400" font-family="Helvetica,sans-Serif" font-size="10.00">_trajectory_::piecewise</text>
<text text-anchor="middle" x="900.5" y="-389" font-family="Helvetica,sans-Serif" font-size="10.00">_polynomial_trajectory</text>
</a>
</g>
</g>
<!-- Node3&#45;&gt;Node5 -->
<g id="edge10" class="edge">
<title>Node3&#45;&gt;Node5</title>
<path fill="none" stroke="#9a32cd" stroke-dasharray="5,2" d="M667.89,-241.91C718.59,-242.24 792.22,-245.43 816,-260.5 860.45,-288.66 884.14,-349.7 893.95,-381.8"/>
<polygon fill="#9a32cd" stroke="#9a32cd" points="667.77,-238.41 657.76,-241.89 667.75,-245.41 667.77,-238.41"/>
<text text-anchor="middle" x="763.5" y="-263.5" font-family="Helvetica,sans-Serif" font-size="10.00"> flight_params_ptr</text>
</g>
<!-- Node4 -->
<g id="node4" class="node">
<title>Node4</title>
<g id="a_node4"><a xlink:href="structPiecewisePolynomialTrajectoryInfo.html" target="_top" xlink:title=" ">
<polygon fill="white" stroke="black" points="237,-233 237,-252 424,-252 424,-233 237,-233"/>
<text text-anchor="middle" x="330.5" y="-240" font-family="Helvetica,sans-Serif" font-size="10.00">PiecewisePolynomialTrajectoryInfo</text>
</a>
</g>
</g>
<!-- Node4&#45;&gt;Node3 -->
<g id="edge3" class="edge">
<title>Node4&#45;&gt;Node3</title>
<path fill="none" stroke="#9a32cd" stroke-dasharray="5,2" d="M434.55,-242.5C482.94,-242.5 537.85,-242.5 574.26,-242.5"/>
<polygon fill="#9a32cd" stroke="#9a32cd" points="434.33,-239 424.33,-242.5 434.33,-246 434.33,-239"/>
<text text-anchor="middle" x="481.5" y="-245.5" font-family="Helvetica,sans-Serif" font-size="10.00"> traj_params</text>
</g>
<!-- Node5&#45;&gt;Node1 -->
<g id="edge4" class="edge">
<title>Node5&#45;&gt;Node1</title>
<path fill="none" stroke="#9a32cd" stroke-dasharray="5,2" d="M924.54,-373.73C966.23,-321.68 1052.31,-214.19 1078.66,-181.29"/>
<polygon fill="#9a32cd" stroke="#9a32cd" points="921.76,-371.6 918.24,-381.59 927.23,-375.98 921.76,-371.6"/>
<text text-anchor="middle" x="1002" y="-296.5" font-family="Helvetica,sans-Serif" font-size="10.00"> ud</text>
</g>
<!-- Node6 -->
<g id="node6" class="node">
<title>Node6</title>
<g id="a_node6"><a xlink:href="class__user__defined__trajectory__base___1_1trajectory__base.html" target="_top" xlink:title="base trajectory for pixhawk">
<polygon fill="white" stroke="black" points="547.5,-554.5 547.5,-584.5 684.5,-584.5 684.5,-554.5 547.5,-554.5"/>
<text text-anchor="start" x="555.5" y="-572.5" font-family="Helvetica,sans-Serif" font-size="10.00">_user_defined_trajectory</text>
<text text-anchor="middle" x="616" y="-561.5" font-family="Helvetica,sans-Serif" font-size="10.00">_base_::trajectory_base</text>
</a>
</g>
</g>
<!-- Node6&#45;&gt;Node5 -->
<g id="edge5" class="edge">
<title>Node6&#45;&gt;Node5</title>
<path fill="none" stroke="midnightblue" d="M669.09,-587.26C711.88,-598.44 772.34,-606.11 816,-578.5 871.02,-543.7 890.51,-461.72 896.79,-423.19"/>
<polygon fill="midnightblue" stroke="midnightblue" points="670,-583.88 659.43,-584.59 668.14,-590.62 670,-583.88"/>
</g>
<!-- Node7 -->
<g id="node7" class="node">
<title>Node7</title>
<g id="a_node7"><a xlink:title=" ">
<polygon fill="white" stroke="#bfbfbf" points="301,-566 301,-585 360,-585 360,-566 301,-566"/>
<text text-anchor="middle" x="330.5" y="-573" font-family="Helvetica,sans-Serif" font-size="10.00">Vector3d</text>
</a>
</g>
</g>
<!-- Node7&#45;&gt;Node5 -->
<g id="edge8" class="edge">
<title>Node7&#45;&gt;Node5</title>
<path fill="none" stroke="#9a32cd" stroke-dasharray="5,2" d="M359.05,-589.54C380.9,-599.84 412.57,-612.98 442,-618.5 545.89,-638 747.76,-649.76 816,-601.5 875.96,-559.1 893.05,-464.97 897.77,-423.18"/>
<polygon fill="#9a32cd" stroke="#9a32cd" points="360.56,-586.38 350.03,-585.18 357.51,-592.68 360.56,-586.38"/>
<text text-anchor="start" x="561" y="-648.5" font-family="Helvetica,sans-Serif" font-size="10.00"> user_defined_position</text>
<text text-anchor="middle" x="616" y="-637.5" font-family="Helvetica,sans-Serif" font-size="10.00">_previous_</text>
</g>
<!-- Node7&#45;&gt;Node6 -->
<g id="edge6" class="edge">
<title>Node7&#45;&gt;Node6</title>
<path fill="none" stroke="#9a32cd" stroke-dasharray="5,2" d="M353.71,-560.27C375.2,-546.54 409.24,-527.33 442,-519.5 476.15,-511.34 487.59,-508.7 521,-519.5 530.39,-522.54 530.53,-527.43 539,-532.5 552.22,-540.41 567.38,-548.06 580.67,-554.33"/>
<polygon fill="#9a32cd" stroke="#9a32cd" points="351.76,-557.37 345.31,-565.78 355.6,-563.23 351.76,-557.37"/>
<text text-anchor="middle" x="481.5" y="-610.5" font-family="Helvetica,sans-Serif" font-size="10.00"> ud_acc</text>
<text text-anchor="middle" x="481.5" y="-599.5" font-family="Helvetica,sans-Serif" font-size="10.00">ud_angle</text>
<text text-anchor="middle" x="481.5" y="-588.5" font-family="Helvetica,sans-Serif" font-size="10.00">ud_angular_acc</text>
<text text-anchor="middle" x="481.5" y="-577.5" font-family="Helvetica,sans-Serif" font-size="10.00">ud_angular_rate</text>
<text text-anchor="start" x="442" y="-566.5" font-family="Helvetica,sans-Serif" font-size="10.00">ud_angular_rate</text>
<text text-anchor="middle" x="481.5" y="-555.5" font-family="Helvetica,sans-Serif" font-size="10.00">_dot</text>
<text text-anchor="middle" x="481.5" y="-544.5" font-family="Helvetica,sans-Serif" font-size="10.00">ud_angular_vel</text>
<text text-anchor="middle" x="481.5" y="-533.5" font-family="Helvetica,sans-Serif" font-size="10.00">ud_pos</text>
<text text-anchor="middle" x="481.5" y="-522.5" font-family="Helvetica,sans-Serif" font-size="10.00">ud_vel</text>
</g>
<!-- Node8 -->
<g id="node8" class="node">
<title>Node8</title>
<g id="a_node8"><a xlink:title=" ">
<polygon fill="white" stroke="#bfbfbf" points="586,-504 586,-523 646,-523 646,-504 586,-504"/>
<text text-anchor="middle" x="616" y="-511" font-family="Helvetica,sans-Serif" font-size="10.00">VectorXd</text>
</a>
</g>
</g>
<!-- Node8&#45;&gt;Node5 -->
<g id="edge7" class="edge">
<title>Node8&#45;&gt;Node5</title>
<path fill="none" stroke="#9a32cd" stroke-dasharray="5,2" d="M656.35,-512.36C706.19,-510.36 788.86,-505.07 816,-491.5 846.89,-476.05 872.29,-444.2 886.68,-423.09"/>
<polygon fill="#9a32cd" stroke="#9a32cd" points="656.1,-508.86 646.24,-512.73 656.37,-515.86 656.1,-508.86"/>
<text text-anchor="start" x="711" y="-566.5" font-family="Helvetica,sans-Serif" font-size="10.00"> landing_acceleration</text>
<text text-anchor="middle" x="763.5" y="-555.5" font-family="Helvetica,sans-Serif" font-size="10.00">_coef_z_</text>
<text text-anchor="start" x="711" y="-544.5" font-family="Helvetica,sans-Serif" font-size="10.00">landing_position</text>
<text text-anchor="middle" x="763.5" y="-533.5" font-family="Helvetica,sans-Serif" font-size="10.00">_coef_z_</text>
<text text-anchor="start" x="711" y="-522.5" font-family="Helvetica,sans-Serif" font-size="10.00">landing_velocity</text>
<text text-anchor="middle" x="763.5" y="-511.5" font-family="Helvetica,sans-Serif" font-size="10.00">_coef_z_</text>
</g>
<!-- Node9 -->
<g id="node9" class="node">
<title>Node9</title>
<g id="a_node9"><a xlink:title=" ">
<polygon fill="white" stroke="#bfbfbf" points="585.5,-283 585.5,-302 646.5,-302 646.5,-283 585.5,-283"/>
<text text-anchor="middle" x="616" y="-290" font-family="Helvetica,sans-Serif" font-size="10.00">MatrixXd</text>
</a>
</g>
</g>
<!-- Node9&#45;&gt;Node5 -->
<g id="edge9" class="edge">
<title>Node9&#45;&gt;Node5</title>
<path fill="none" stroke="#9a32cd" stroke-dasharray="5,2" d="M656.34,-282.96C698.25,-274.93 765.41,-268.37 816,-293.5 853.15,-311.95 878.37,-355.68 890.72,-381.79"/>
<polygon fill="#9a32cd" stroke="#9a32cd" points="655.61,-279.53 646.51,-284.95 657.01,-286.39 655.61,-279.53"/>
<text text-anchor="start" x="713" y="-483.5" font-family="Helvetica,sans-Serif" font-size="10.00"> acceleration_coef_x</text>
<text text-anchor="middle" x="763.5" y="-472.5" font-family="Helvetica,sans-Serif" font-size="10.00">_</text>
<text text-anchor="start" x="713" y="-461.5" font-family="Helvetica,sans-Serif" font-size="10.00">acceleration_coef</text>
<text text-anchor="middle" x="763.5" y="-450.5" font-family="Helvetica,sans-Serif" font-size="10.00">_y_</text>
<text text-anchor="start" x="713" y="-439.5" font-family="Helvetica,sans-Serif" font-size="10.00">acceleration_coef</text>
<text text-anchor="middle" x="763.5" y="-428.5" font-family="Helvetica,sans-Serif" font-size="10.00">_z_</text>
<text text-anchor="middle" x="763.5" y="-417.5" font-family="Helvetica,sans-Serif" font-size="10.00">jerk_coef_x_</text>
<text text-anchor="middle" x="763.5" y="-406.5" font-family="Helvetica,sans-Serif" font-size="10.00">jerk_coef_y_</text>
<text text-anchor="middle" x="763.5" y="-395.5" font-family="Helvetica,sans-Serif" font-size="10.00">jerk_coef_z_</text>
<text text-anchor="start" x="713" y="-384.5" font-family="Helvetica,sans-Serif" font-size="10.00">position_coef</text>
<text text-anchor="middle" x="763.5" y="-373.5" font-family="Helvetica,sans-Serif" font-size="10.00">_x_</text>
<text text-anchor="start" x="713" y="-362.5" font-family="Helvetica,sans-Serif" font-size="10.00">position_coef</text>
<text text-anchor="middle" x="763.5" y="-351.5" font-family="Helvetica,sans-Serif" font-size="10.00">_y_</text>
<text text-anchor="start" x="713" y="-340.5" font-family="Helvetica,sans-Serif" font-size="10.00">position_coef</text>
<text text-anchor="middle" x="763.5" y="-329.5" font-family="Helvetica,sans-Serif" font-size="10.00">_z_</text>
<text text-anchor="start" x="713" y="-318.5" font-family="Helvetica,sans-Serif" font-size="10.00">velocity_coef</text>
<text text-anchor="middle" x="763.5" y="-307.5" font-family="Helvetica,sans-Serif" font-size="10.00">_x_</text>
<text text-anchor="middle" x="763.5" y="-296.5" font-family="Helvetica,sans-Serif" font-size="10.00">...</text>
</g>
<!-- Node10 -->
<g id="node10" class="node">
<title>Node10</title>
<g id="a_node10"><a xlink:href="struct__qrbp___1_1__pid___1_1controller__integrated__state__members.html" target="_top" xlink:title="Structure for the members that are mapped to the rk4 vector after integration.">
<polygon fill="white" stroke="black" points="539,-163.5 539,-193.5 693,-193.5 693,-163.5 539,-163.5"/>
<text text-anchor="start" x="547" y="-181.5" font-family="Helvetica,sans-Serif" font-size="10.00">_qrbp_::_pid_::controller</text>
<text text-anchor="middle" x="616" y="-170.5" font-family="Helvetica,sans-Serif" font-size="10.00">_integrated_state_members</text>
</a>
</g>
</g>
<!-- Node10&#45;&gt;Node1 -->
<g id="edge11" class="edge">
<title>Node10&#45;&gt;Node1</title>
<path fill="none" stroke="#9a32cd" stroke-dasharray="5,2" d="M703.38,-177.21C801.23,-175.75 957.35,-173.43 1036.7,-172.24"/>
<polygon fill="#9a32cd" stroke="#9a32cd" points="703.16,-173.71 693.22,-177.36 703.27,-180.71 703.16,-173.71"/>
<text text-anchor="middle" x="900.5" y="-177.5" font-family="Helvetica,sans-Serif" font-size="10.00"> csm</text>
</g>
<!-- Node11 -->
<g id="node11" class="node">
<title>Node11</title>
<g id="a_node11"><a xlink:href="class__qrbp___1_1__pid___1_1pid__logger.html" target="_top" xlink:title="Logger for the pid.">
<polygon fill="white" stroke="black" points="850,-114.5 850,-144.5 951,-144.5 951,-114.5 850,-114.5"/>
<text text-anchor="start" x="858" y="-132.5" font-family="Helvetica,sans-Serif" font-size="10.00">_qrbp_::_pid_::pid</text>
<text text-anchor="middle" x="900.5" y="-121.5" font-family="Helvetica,sans-Serif" font-size="10.00">_logger</text>
</a>
</g>
</g>
<!-- Node10&#45;&gt;Node11 -->
<g id="edge14" class="edge">
<title>Node10&#45;&gt;Node11</title>
<path fill="none" stroke="#9a32cd" stroke-dasharray="5,2" d="M703,-161.94C705.7,-161.45 708.37,-160.97 711,-160.5 758.02,-152.13 811.78,-143.37 849.83,-137.3"/>
<polygon fill="#9a32cd" stroke="#9a32cd" points="702.36,-158.5 693.15,-163.74 703.62,-165.38 702.36,-158.5"/>
<text text-anchor="middle" x="763.5" y="-163.5" font-family="Helvetica,sans-Serif" font-size="10.00"> CSM</text>
</g>
<!-- Node11&#45;&gt;Node1 -->
<g id="edge12" class="edge">
<title>Node11&#45;&gt;Node1</title>
<path fill="none" stroke="#9a32cd" stroke-dasharray="5,2" d="M960.91,-142.99C988.19,-149.18 1019.89,-156.38 1044.62,-161.99"/>
<polygon fill="#9a32cd" stroke="#9a32cd" points="961.6,-139.56 951.08,-140.76 960.05,-146.38 961.6,-139.56"/>
<text text-anchor="middle" x="1002" y="-157.5" font-family="Helvetica,sans-Serif" font-size="10.00"> logger</text>
</g>
<!-- Node12 -->
<g id="node12" class="node">
<title>Node12</title>
<g id="a_node12"><a xlink:href="class__flight__log___1_1blackbox.html" target="_top" xlink:title=" ">
<polygon fill="white" stroke="black" points="555,-117 555,-136 677,-136 677,-117 555,-117"/>
<text text-anchor="middle" x="616" y="-124" font-family="Helvetica,sans-Serif" font-size="10.00">_flight_log_::blackbox</text>
</a>
</g>
</g>
<!-- Node12&#45;&gt;Node11 -->
<g id="edge13" class="edge">
<title>Node12&#45;&gt;Node11</title>
<path fill="none" stroke="midnightblue" d="M687.45,-127.25C737.93,-127.78 804.68,-128.49 849.7,-128.97"/>
<polygon fill="midnightblue" stroke="midnightblue" points="687.29,-123.75 677.26,-127.14 687.22,-130.75 687.29,-123.75"/>
</g>
<!-- Node13 -->
<g id="node13" class="node">
<title>Node13</title>
<g id="a_node13"><a xlink:href="struct__qrbp___1_1__pid___1_1controller__internal__members.html" target="_top" xlink:title="Structure for the internal members of the controller.">
<polygon fill="white" stroke="black" points="549.5,-60.5 549.5,-90.5 682.5,-90.5 682.5,-60.5 549.5,-60.5"/>
<text text-anchor="start" x="557.5" y="-78.5" font-family="Helvetica,sans-Serif" font-size="10.00">_qrbp_::_pid_::controller</text>
<text text-anchor="middle" x="616" y="-67.5" font-family="Helvetica,sans-Serif" font-size="10.00">_internal_members</text>
</a>
</g>
</g>
<!-- Node13&#45;&gt;Node1 -->
<g id="edge21" class="edge">
<title>Node13&#45;&gt;Node1</title>
<path fill="none" stroke="#9a32cd" stroke-dasharray="5,2" d="M693.06,-68.6C765.36,-64.58 876.23,-65.09 967,-94.5 1011.84,-109.03 1056.29,-144.74 1075.97,-161.94"/>
<polygon fill="#9a32cd" stroke="#9a32cd" points="692.45,-65.13 682.68,-69.22 692.87,-72.12 692.45,-65.13"/>
<text text-anchor="middle" x="900.5" y="-97.5" font-family="Helvetica,sans-Serif" font-size="10.00"> cim</text>
</g>
<!-- Node13&#45;&gt;Node11 -->
<g id="edge15" class="edge">
<title>Node13&#45;&gt;Node11</title>
<path fill="none" stroke="#9a32cd" stroke-dasharray="5,2" d="M693.17,-89.35C730.26,-96.17 775.49,-104.61 816,-112.5 826.89,-114.62 838.57,-116.96 849.63,-119.2"/>
<polygon fill="#9a32cd" stroke="#9a32cd" points="693.4,-85.83 682.93,-87.47 692.14,-92.72 693.4,-85.83"/>
<text text-anchor="middle" x="763.5" y="-115.5" font-family="Helvetica,sans-Serif" font-size="10.00"> CIM</text>
</g>
<!-- Node14 -->
<g id="node14" class="node">
<title>Node14</title>
<g id="a_node14"><a xlink:href="struct__qrbp___1_1__pid___1_1controller__internal__members__aero.html" target="_top" xlink:title="Structure for all the aerodynamic members of the controller.">
<polygon fill="white" stroke="black" points="261.5,-60.5 261.5,-90.5 399.5,-90.5 399.5,-60.5 261.5,-60.5"/>
<text text-anchor="start" x="269.5" y="-78.5" font-family="Helvetica,sans-Serif" font-size="10.00">_qrbp_::_pid_::controller</text>
<text text-anchor="middle" x="330.5" y="-67.5" font-family="Helvetica,sans-Serif" font-size="10.00">_internal_members_aero</text>
</a>
</g>
</g>
<!-- Node14&#45;&gt;Node13 -->
<g id="edge16" class="edge">
<title>Node14&#45;&gt;Node13</title>
<path fill="none" stroke="#9a32cd" stroke-dasharray="5,2" d="M409.81,-75.5C453.64,-75.5 507.67,-75.5 549.28,-75.5"/>
<polygon fill="#9a32cd" stroke="#9a32cd" points="409.77,-72 399.77,-75.5 409.77,-79 409.77,-72"/>
<text text-anchor="middle" x="481.5" y="-78.5" font-family="Helvetica,sans-Serif" font-size="10.00"> aero</text>
</g>
<!-- Node15 -->
<g id="node15" class="node">
<title>Node15</title>
<g id="a_node15"><a xlink:href="struct__qrbp___1_1AeroStates.html" target="_top" xlink:title="Angles for the wings and stabilizers.">
<polygon fill="white" stroke="black" points="29.5,-104 29.5,-123 137.5,-123 137.5,-104 29.5,-104"/>
<text text-anchor="middle" x="83.5" y="-111" font-family="Helvetica,sans-Serif" font-size="10.00">_qrbp_::AeroStates</text>
</a>
</g>
</g>
<!-- Node15&#45;&gt;Node14 -->
<g id="edge17" class="edge">
<title>Node15&#45;&gt;Node14</title>
<path fill="none" stroke="#9a32cd" stroke-dasharray="5,2" d="M147.69,-103.7C182.42,-98.31 225.53,-91.63 261.06,-86.12"/>
<polygon fill="#9a32cd" stroke="#9a32cd" points="147.01,-100.26 137.66,-105.25 148.08,-107.18 147.01,-100.26"/>
<text text-anchor="middle" x="202" y="-100.5" font-family="Helvetica,sans-Serif" font-size="10.00"> states</text>
</g>
<!-- Node16 -->
<g id="node16" class="node">
<title>Node16</title>
<g id="a_node16"><a xlink:href="struct__qrbp___1_1AeroCoeff.html" target="_top" xlink:title="Aerodynamic coefficients for the QRBP.">
<polygon fill="white" stroke="black" points="32,-66 32,-85 135,-85 135,-66 32,-66"/>
<text text-anchor="middle" x="83.5" y="-73" font-family="Helvetica,sans-Serif" font-size="10.00">_qrbp_::AeroCoeff</text>
</a>
</g>
</g>
<!-- Node16&#45;&gt;Node14 -->
<g id="edge18" class="edge">
<title>Node16&#45;&gt;Node14</title>
<path fill="none" stroke="#9a32cd" stroke-dasharray="5,2" d="M145.39,-75.5C180.53,-75.5 224.81,-75.5 261.14,-75.5"/>
<polygon fill="#9a32cd" stroke="#9a32cd" points="145.26,-72 135.26,-75.5 145.26,-79 145.26,-72"/>
<text text-anchor="middle" x="202" y="-78.5" font-family="Helvetica,sans-Serif" font-size="10.00"> coeff</text>
</g>
<!-- Node17 -->
<g id="node17" class="node">
<title>Node17</title>
<g id="a_node17"><a xlink:href="struct__qrbp___1_1AeroDynamicMembers.html" target="_top" xlink:title="Structre for all the aerodynamic members of the controller.">
<polygon fill="white" stroke="black" points="0,-28 0,-47 167,-47 167,-28 0,-28"/>
<text text-anchor="middle" x="83.5" y="-35" font-family="Helvetica,sans-Serif" font-size="10.00">_qrbp_::AeroDynamicMembers</text>
</a>
</g>
</g>
<!-- Node17&#45;&gt;Node14 -->
<g id="edge19" class="edge">
<title>Node17&#45;&gt;Node14</title>
<path fill="none" stroke="#9a32cd" stroke-dasharray="5,2" d="M156.12,-48.61C189.37,-53.77 228.7,-59.87 261.49,-64.95"/>
<polygon fill="#9a32cd" stroke="#9a32cd" points="156.43,-45.11 146.01,-47.04 155.35,-52.03 156.43,-45.11"/>
<text text-anchor="middle" x="202" y="-60.5" font-family="Helvetica,sans-Serif" font-size="10.00"> dyn</text>
</g>
<!-- Node18 -->
<g id="node18" class="node">
<title>Node18</title>
<g id="a_node18"><a xlink:href="struct__qrbp___1_1__pid___1_1controller__internal__parameters.html" target="_top" xlink:title="Structure for all parameter members of the controller.">
<polygon fill="white" stroke="black" points="834,-0.5 834,-30.5 967,-30.5 967,-0.5 834,-0.5"/>
<text text-anchor="start" x="842" y="-18.5" font-family="Helvetica,sans-Serif" font-size="10.00">_qrbp_::_pid_::controller</text>
<text text-anchor="middle" x="900.5" y="-7.5" font-family="Helvetica,sans-Serif" font-size="10.00">_internal_parameters</text>
</a>
</g>
</g>
<!-- Node18&#45;&gt;Node1 -->
<g id="edge20" class="edge">
<title>Node18&#45;&gt;Node1</title>
<path fill="none" stroke="#9a32cd" stroke-dasharray="5,2" d="M976.99,-22.78C991.98,-26.89 1006.83,-33.11 1019,-42.5 1060.02,-74.16 1078.63,-137.84 1084.41,-161.95"/>
<polygon fill="#9a32cd" stroke="#9a32cd" points="977.68,-19.35 967.14,-20.38 976.02,-26.15 977.68,-19.35"/>
<text text-anchor="middle" x="1002" y="-45.5" font-family="Helvetica,sans-Serif" font-size="10.00"> cip</text>
</g>
</g>
</svg>
        <g id="navigator" transform="translate(0 0)" fill="#404254">
                <rect fill="#f2f5e9" fill-opacity="0.5" stroke="#606060" stroke-width=".5" x="0" y="0" width="60" height="60"/>
                <use id="zoomplus" xlink:href="#zoomPlus" x="17" y="9" onmousedown="handleZoom(evt,'in')"/>
                <use id="zoomminus" xlink:href="#zoomMin" x="42" y="9" onmousedown="handleZoom(evt,'out')"/>
                <use id="reset" xlink:href="#resetDef" x="30" y="36" onmousedown="handleReset()"/>
                <g id="arrowUp" xlink:href="#dirArrow" transform="translate(30 24)" onmousedown="handlePan(0,-1)">
                  <use xlink:href="#rim" fill="#404040">
                        <set attributeName="fill" to="#808080" begin="arrowUp.mouseover" end="arrowUp.mouseout"/>
                  </use>
                  <path fill="none" stroke="white" stroke-width="1.5" d="M0,-3.0v7 M-2.5,-0.5L0,-3.0L2.5,-0.5"/>
                </g>
                <g id="arrowRight" xlink:href="#dirArrow" transform="rotate(90) translate(36 -43)" onmousedown="handlePan(1,0)">
                  <use xlink:href="#rim" fill="#404040">
                        <set attributeName="fill" to="#808080" begin="arrowRight.mouseover" end="arrowRight.mouseout"/>
                  </use>
                  <path fill="none" stroke="white" stroke-width="1.5" d="M0,-3.0v7 M-2.5,-0.5L0,-3.0L2.5,-0.5"/>
                </g>
                <g id="arrowDown" xlink:href="#dirArrow" transform="rotate(180) translate(-30 -48)" onmousedown="handlePan(0,1)">
                  <use xlink:href="#rim" fill="#404040">
                        <set attributeName="fill" to="#808080" begin="arrowDown.mouseover" end="arrowDown.mouseout"/>
                  </use>
                  <path fill="none" stroke="white" stroke-width="1.5" d="M0,-3.0v7 M-2.5,-0.5L0,-3.0L2.5,-0.5"/>
                </g>
                <g id="arrowLeft" xlink:href="#dirArrow" transform="rotate(270) translate(-36 17)" onmousedown="handlePan(-1,0)">
                  <use xlink:href="#rim" fill="#404040">
                        <set attributeName="fill" to="#808080" begin="arrowLeft.mouseover" end="arrowLeft.mouseout"/>
                  </use>
                  <path fill="none" stroke="white" stroke-width="1.5" d="M0,-3.0v7 M-2.5,-0.5L0,-3.0L2.5,-0.5"/>
                </g>
        </g>
        <svg viewBox="0 0 15 15" width="100%" height="30px" preserveAspectRatio="xMaxYMin meet">
         <g id="arrow_out" transform="scale(0.3 0.3)">
          <a xlink:href="class__qrbp___1_1__pid___1_1pid__coll__graph_org.svg" target="_base">
           <rect id="button" ry="5" rx="5" y="6" x="6" height="38" width="38"
                fill="#f2f5e9" fill-opacity="0.5" stroke="#606060" stroke-width="1.0"/>
           <path id="arrow"
             d="M 11.500037,31.436501 C 11.940474,20.09759 22.043105,11.32322 32.158766,21.979434 L 37.068811,17.246167 C 37.068811,17.246167 37.088388,32 37.088388,32 L 22.160133,31.978069 C 22.160133,31.978069 26.997745,27.140456 26.997745,27.140456 C 18.528582,18.264221 13.291696,25.230495 11.500037,31.436501 z"
             style="fill:#404040;"/>
          </a>
         </g>
        </svg>
</svg>
