<?xml version="1.0" encoding="UTF-8" standalone="no"?>
<!DOCTYPE svg PUBLIC "-//W3C//DTD SVG 1.1//EN"
 "http://www.w3.org/Graphics/SVG/1.1/DTD/svg11.dtd">
<!-- Generated by graphviz version 2.43.0 (0)
 -->
<!-- Title: _rostestdrone_::_pid_::pid Pages: 1 -->
<svg width="904pt" height="640pt"
 viewBox="0.00 0.00 904.00 640.00" xmlns="http://www.w3.org/2000/svg" xmlns:xlink="http://www.w3.org/1999/xlink">
<g id="graph0" class="graph" transform="scale(1 1) rotate(0) translate(4 636)">
<title>_rostestdrone_::_pid_::pid</title>
<polygon fill="white" stroke="transparent" points="-4,4 -4,-636 900,-636 900,4 -4,4"/>
<!-- Node1 -->
<g id="node1" class="node">
<title>Node1</title>
<g id="a_node1"><a xlink:title="class pid : public controller_base, public blackbox">
<polygon fill="#bfbfbf" stroke="black" points="781,-167 781,-197 896,-197 896,-167 781,-167"/>
<text text-anchor="start" x="789" y="-185" font-family="Helvetica,sans-Serif" font-size="10.00">_rostestdrone_::_pid</text>
<text text-anchor="middle" x="838.5" y="-174" font-family="Helvetica,sans-Serif" font-size="10.00">_::pid</text>
</a>
</g>
</g>
<!-- Node2 -->
<g id="node2" class="node">
<title>Node2</title>
<g id="a_node2"><a xlink:href="class__control__algorithm__base___1_1controller__base.html" target="_top" xlink:title="controller_base definition">
<polygon fill="white" stroke="black" points="580,-494 580,-524 711,-524 711,-494 580,-494"/>
<text text-anchor="start" x="588" y="-512" font-family="Helvetica,sans-Serif" font-size="10.00">_control_algorithm</text>
<text text-anchor="middle" x="645.5" y="-501" font-family="Helvetica,sans-Serif" font-size="10.00">_base_::controller_base</text>
</a>
</g>
</g>
<!-- Node2&#45;&gt;Node1 -->
<g id="edge1" class="edge">
<title>Node2&#45;&gt;Node1</title>
<path fill="none" stroke="midnightblue" d="M660.69,-484.71C698,-420.83 798.08,-249.49 828.56,-197.3"/>
<polygon fill="midnightblue" stroke="midnightblue" points="657.48,-483.27 655.46,-493.67 663.52,-486.8 657.48,-483.27"/>
</g>
<!-- Node3 -->
<g id="node3" class="node">
<title>Node3</title>
<g id="a_node3"><a xlink:href="structflight__params.html" target="_top" xlink:title="If you are adding more parameters to your flight in /src/acsl_flight/params/flight_params....">
<polygon fill="white" stroke="black" points="329,-599.5 329,-618.5 412,-618.5 412,-599.5 329,-599.5"/>
<text text-anchor="middle" x="370.5" y="-606.5" font-family="Helvetica,sans-Serif" font-size="10.00">flight_params</text>
</a>
</g>
</g>
<!-- Node3&#45;&gt;Node2 -->
<g id="edge2" class="edge">
<title>Node3&#45;&gt;Node2</title>
<path fill="none" stroke="#9a32cd" stroke-dasharray="5,2" d="M422.38,-618.42C462.29,-623.34 518.24,-624.65 562,-604 597.76,-587.12 624.19,-546.62 636.61,-524.34"/>
<polygon fill="#9a32cd" stroke="#9a32cd" points="422.71,-614.93 412.33,-617.06 421.78,-621.87 422.71,-614.93"/>
<text text-anchor="middle" x="509.5" y="-624" font-family="Helvetica,sans-Serif" font-size="10.00"> flight_params_ptr</text>
</g>
<!-- Node5 -->
<g id="node5" class="node">
<title>Node5</title>
<g id="a_node5"><a xlink:href="class__piecewise__polynomial__trajectory___1_1piecewise__polynomial__trajectory.html" target="_top" xlink:title="Piecwise polynomial trajectory.">
<polygon fill="white" stroke="black" points="580,-304.5 580,-345.5 711,-345.5 711,-304.5 580,-304.5"/>
<text text-anchor="start" x="588" y="-333.5" font-family="Helvetica,sans-Serif" font-size="10.00">_piecewise_polynomial</text>
<text text-anchor="start" x="588" y="-322.5" font-family="Helvetica,sans-Serif" font-size="10.00">_trajectory_::piecewise</text>
<text text-anchor="middle" x="645.5" y="-311.5" font-family="Helvetica,sans-Serif" font-size="10.00">_polynomial_trajectory</text>
</a>
</g>
</g>
<!-- Node3&#45;&gt;Node5 -->
<g id="edge10" class="edge">
<title>Node3&#45;&gt;Node5</title>
<path fill="none" stroke="#9a32cd" stroke-dasharray="5,2" d="M422.21,-598.24C433.65,-595.83 445.74,-593.31 457,-591 503.62,-581.43 528.16,-603.46 562,-570 589.46,-542.85 568.74,-521.94 580,-485 595.68,-433.58 621.08,-375.6 634.86,-345.55"/>
<polygon fill="#9a32cd" stroke="#9a32cd" points="421.43,-594.82 412.36,-600.31 422.87,-601.67 421.43,-594.82"/>
<text text-anchor="middle" x="509.5" y="-594" font-family="Helvetica,sans-Serif" font-size="10.00"> flight_params_ptr</text>
</g>
<!-- Node4 -->
<g id="node4" class="node">
<title>Node4</title>
<g id="a_node4"><a xlink:href="structPiecewisePolynomialTrajectoryInfo.html" target="_top" xlink:title="Struct containing the trajectory info coming from the .json file.">
<polygon fill="white" stroke="black" points="0,-599.5 0,-618.5 187,-618.5 187,-599.5 0,-599.5"/>
<text text-anchor="middle" x="93.5" y="-606.5" font-family="Helvetica,sans-Serif" font-size="10.00">PiecewisePolynomialTrajectoryInfo</text>
</a>
</g>
</g>
<!-- Node4&#45;&gt;Node3 -->
<g id="edge3" class="edge">
<title>Node4&#45;&gt;Node3</title>
<path fill="none" stroke="#9a32cd" stroke-dasharray="5,2" d="M197.5,-609C243.24,-609 294.43,-609 328.98,-609"/>
<polygon fill="#9a32cd" stroke="#9a32cd" points="197.22,-605.5 187.22,-609 197.22,-612.5 197.22,-605.5"/>
<text text-anchor="middle" x="244.5" y="-612" font-family="Helvetica,sans-Serif" font-size="10.00"> traj_params</text>
</g>
<!-- Node5&#45;&gt;Node1 -->
<g id="edge4" class="edge">
<title>Node5&#45;&gt;Node1</title>
<path fill="none" stroke="#9a32cd" stroke-dasharray="5,2" d="M682.41,-298.11C722.29,-268.26 785.25,-221.12 817.3,-197.12"/>
<polygon fill="#9a32cd" stroke="#9a32cd" points="680.18,-295.41 674.27,-304.21 684.38,-301.02 680.18,-295.41"/>
<text text-anchor="middle" x="746" y="-265" font-family="Helvetica,sans-Serif" font-size="10.00"> ud</text>
</g>
<!-- Node6 -->
<g id="node6" class="node">
<title>Node6</title>
<g id="a_node6"><a xlink:href="class__user__defined__trajectory__base___1_1trajectory__base.html" target="_top" xlink:title="base trajectory for pixhawk">
<polygon fill="white" stroke="black" points="302,-266 302,-296 439,-296 439,-266 302,-266"/>
<text text-anchor="start" x="310" y="-284" font-family="Helvetica,sans-Serif" font-size="10.00">_user_defined_trajectory</text>
<text text-anchor="middle" x="370.5" y="-273" font-family="Helvetica,sans-Serif" font-size="10.00">_base_::trajectory_base</text>
</a>
</g>
</g>
<!-- Node6&#45;&gt;Node5 -->
<g id="edge5" class="edge">
<title>Node6&#45;&gt;Node5</title>
<path fill="none" stroke="midnightblue" d="M448.97,-297.56C451.68,-298.06 454.36,-298.54 457,-299 497.63,-306.09 543.49,-312.47 579.68,-317.14"/>
<polygon fill="midnightblue" stroke="midnightblue" points="449.57,-294.11 439.09,-295.68 448.26,-300.99 449.57,-294.11"/>
</g>
<!-- Node7 -->
<g id="node7" class="node">
<title>Node7</title>
<g id="a_node7"><a xlink:title=" ">
<polygon fill="white" stroke="#bfbfbf" points="64,-271.5 64,-290.5 123,-290.5 123,-271.5 64,-271.5"/>
<text text-anchor="middle" x="93.5" y="-278.5" font-family="Helvetica,sans-Serif" font-size="10.00">Vector3d</text>
</a>
</g>
</g>
<!-- Node7&#45;&gt;Node5 -->
<g id="edge8" class="edge">
<title>Node7&#45;&gt;Node5</title>
<path fill="none" stroke="#9a32cd" stroke-dasharray="5,2" d="M122.05,-295.02C143.91,-305.32 175.57,-318.44 205,-324 336.21,-348.78 493.41,-340.15 579.75,-332.21"/>
<polygon fill="#9a32cd" stroke="#9a32cd" points="123.56,-291.86 113.03,-290.66 120.52,-298.16 123.56,-291.86"/>
<text text-anchor="start" x="315.5" y="-354" font-family="Helvetica,sans-Serif" font-size="10.00"> user_defined_position</text>
<text text-anchor="middle" x="370.5" y="-343" font-family="Helvetica,sans-Serif" font-size="10.00">_previous_</text>
</g>
<!-- Node7&#45;&gt;Node6 -->
<g id="edge6" class="edge">
<title>Node7&#45;&gt;Node6</title>
<path fill="none" stroke="#9a32cd" stroke-dasharray="5,2" d="M116.71,-265.77C138.2,-252.04 172.24,-232.83 205,-225 239.15,-216.84 253.04,-208.43 284,-225 296.72,-231.81 290.92,-242.77 302,-252 308.57,-257.47 316.32,-262.06 324.19,-265.86"/>
<polygon fill="#9a32cd" stroke="#9a32cd" points="114.76,-262.87 108.31,-271.28 118.6,-268.73 114.76,-262.87"/>
<text text-anchor="middle" x="244.5" y="-316" font-family="Helvetica,sans-Serif" font-size="10.00"> ud_acc</text>
<text text-anchor="middle" x="244.5" y="-305" font-family="Helvetica,sans-Serif" font-size="10.00">ud_angle</text>
<text text-anchor="middle" x="244.5" y="-294" font-family="Helvetica,sans-Serif" font-size="10.00">ud_angular_acc</text>
<text text-anchor="middle" x="244.5" y="-283" font-family="Helvetica,sans-Serif" font-size="10.00">ud_angular_rate</text>
<text text-anchor="start" x="205" y="-272" font-family="Helvetica,sans-Serif" font-size="10.00">ud_angular_rate</text>
<text text-anchor="middle" x="244.5" y="-261" font-family="Helvetica,sans-Serif" font-size="10.00">_dot</text>
<text text-anchor="middle" x="244.5" y="-250" font-family="Helvetica,sans-Serif" font-size="10.00">ud_angular_vel</text>
<text text-anchor="middle" x="244.5" y="-239" font-family="Helvetica,sans-Serif" font-size="10.00">ud_pos</text>
<text text-anchor="middle" x="244.5" y="-228" font-family="Helvetica,sans-Serif" font-size="10.00">ud_vel</text>
</g>
<!-- Node8 -->
<g id="node8" class="node">
<title>Node8</title>
<g id="a_node8"><a xlink:title=" ">
<polygon fill="white" stroke="#bfbfbf" points="340.5,-223.5 340.5,-242.5 400.5,-242.5 400.5,-223.5 340.5,-223.5"/>
<text text-anchor="middle" x="370.5" y="-230.5" font-family="Helvetica,sans-Serif" font-size="10.00">VectorXd</text>
</a>
</g>
</g>
<!-- Node8&#45;&gt;Node5 -->
<g id="edge7" class="edge">
<title>Node8&#45;&gt;Node5</title>
<path fill="none" stroke="#9a32cd" stroke-dasharray="5,2" d="M410.4,-222.65C450.38,-214.13 513.46,-206.71 562,-229 595.55,-244.41 620.6,-280.93 633.85,-304.23"/>
<polygon fill="#9a32cd" stroke="#9a32cd" points="409.5,-219.26 400.51,-224.88 411.04,-226.09 409.5,-219.26"/>
<text text-anchor="start" x="457" y="-287" font-family="Helvetica,sans-Serif" font-size="10.00"> landing_acceleration</text>
<text text-anchor="middle" x="509.5" y="-276" font-family="Helvetica,sans-Serif" font-size="10.00">_coef_z_</text>
<text text-anchor="start" x="457" y="-265" font-family="Helvetica,sans-Serif" font-size="10.00">landing_position</text>
<text text-anchor="middle" x="509.5" y="-254" font-family="Helvetica,sans-Serif" font-size="10.00">_coef_z_</text>
<text text-anchor="start" x="457" y="-243" font-family="Helvetica,sans-Serif" font-size="10.00">landing_velocity</text>
<text text-anchor="middle" x="509.5" y="-232" font-family="Helvetica,sans-Serif" font-size="10.00">_coef_z_</text>
</g>
<!-- Node9 -->
<g id="node9" class="node">
<title>Node9</title>
<g id="a_node9"><a xlink:title=" ">
<polygon fill="white" stroke="#bfbfbf" points="340,-378.5 340,-397.5 401,-397.5 401,-378.5 340,-378.5"/>
<text text-anchor="middle" x="370.5" y="-385.5" font-family="Helvetica,sans-Serif" font-size="10.00">MatrixXd</text>
</a>
</g>
</g>
<!-- Node9&#45;&gt;Node5 -->
<g id="edge9" class="edge">
<title>Node9&#45;&gt;Node5</title>
<path fill="none" stroke="#9a32cd" stroke-dasharray="5,2" d="M410.94,-380.32C458.02,-371.08 533.91,-355.95 562,-349 567.79,-347.57 573.79,-346 579.78,-344.37"/>
<polygon fill="#9a32cd" stroke="#9a32cd" points="410.22,-376.89 401.08,-382.25 411.56,-383.76 410.22,-376.89"/>
<text text-anchor="start" x="459" y="-560" font-family="Helvetica,sans-Serif" font-size="10.00"> acceleration_coef_x</text>
<text text-anchor="middle" x="509.5" y="-549" font-family="Helvetica,sans-Serif" font-size="10.00">_</text>
<text text-anchor="start" x="459" y="-538" font-family="Helvetica,sans-Serif" font-size="10.00">acceleration_coef</text>
<text text-anchor="middle" x="509.5" y="-527" font-family="Helvetica,sans-Serif" font-size="10.00">_y_</text>
<text text-anchor="start" x="459" y="-516" font-family="Helvetica,sans-Serif" font-size="10.00">acceleration_coef</text>
<text text-anchor="middle" x="509.5" y="-505" font-family="Helvetica,sans-Serif" font-size="10.00">_z_</text>
<text text-anchor="middle" x="509.5" y="-494" font-family="Helvetica,sans-Serif" font-size="10.00">jerk_coef_x_</text>
<text text-anchor="middle" x="509.5" y="-483" font-family="Helvetica,sans-Serif" font-size="10.00">jerk_coef_y_</text>
<text text-anchor="middle" x="509.5" y="-472" font-family="Helvetica,sans-Serif" font-size="10.00">jerk_coef_z_</text>
<text text-anchor="start" x="459" y="-461" font-family="Helvetica,sans-Serif" font-size="10.00">position_coef</text>
<text text-anchor="middle" x="509.5" y="-450" font-family="Helvetica,sans-Serif" font-size="10.00">_x_</text>
<text text-anchor="start" x="459" y="-439" font-family="Helvetica,sans-Serif" font-size="10.00">position_coef</text>
<text text-anchor="middle" x="509.5" y="-428" font-family="Helvetica,sans-Serif" font-size="10.00">_y_</text>
<text text-anchor="start" x="459" y="-417" font-family="Helvetica,sans-Serif" font-size="10.00">position_coef</text>
<text text-anchor="middle" x="509.5" y="-406" font-family="Helvetica,sans-Serif" font-size="10.00">_z_</text>
<text text-anchor="start" x="459" y="-395" font-family="Helvetica,sans-Serif" font-size="10.00">velocity_coef</text>
<text text-anchor="middle" x="509.5" y="-384" font-family="Helvetica,sans-Serif" font-size="10.00">_x_</text>
<text text-anchor="middle" x="509.5" y="-373" font-family="Helvetica,sans-Serif" font-size="10.00">...</text>
</g>
<!-- Node10 -->
<g id="node10" class="node">
<title>Node10</title>
<g id="a_node10"><a xlink:href="class__rostestdrone___1_1__pid___1_1pid__logger.html" target="_top" xlink:title="Class to log PID.">
<polygon fill="white" stroke="black" points="588,-125 588,-155 703,-155 703,-125 588,-125"/>
<text text-anchor="start" x="596" y="-143" font-family="Helvetica,sans-Serif" font-size="10.00">_rostestdrone_::_pid</text>
<text text-anchor="middle" x="645.5" y="-132" font-family="Helvetica,sans-Serif" font-size="10.00">_::pid_logger</text>
</a>
</g>
</g>
<!-- Node10&#45;&gt;Node1 -->
<g id="edge11" class="edge">
<title>Node10&#45;&gt;Node1</title>
<path fill="none" stroke="#9a32cd" stroke-dasharray="5,2" d="M713,-154.62C735.1,-159.48 759.49,-164.85 780.78,-169.53"/>
<polygon fill="#9a32cd" stroke="#9a32cd" points="713.55,-151.16 703.03,-152.43 712.05,-158 713.55,-151.16"/>
<text text-anchor="middle" x="746" y="-167" font-family="Helvetica,sans-Serif" font-size="10.00"> logger</text>
</g>
<!-- Node11 -->
<g id="node11" class="node">
<title>Node11</title>
<g id="a_node11"><a xlink:href="class__flight__log___1_1blackbox.html" target="_top" xlink:title=" ">
<polygon fill="white" stroke="black" points="309.5,-125.5 309.5,-144.5 431.5,-144.5 431.5,-125.5 309.5,-125.5"/>
<text text-anchor="middle" x="370.5" y="-132.5" font-family="Helvetica,sans-Serif" font-size="10.00">_flight_log_::blackbox</text>
</a>
</g>
</g>
<!-- Node11&#45;&gt;Node10 -->
<g id="edge12" class="edge">
<title>Node11&#45;&gt;Node10</title>
<path fill="none" stroke="midnightblue" d="M441.8,-136.29C487.12,-137.12 545.28,-138.18 587.67,-138.96"/>
<polygon fill="midnightblue" stroke="midnightblue" points="441.81,-132.79 431.75,-136.1 441.68,-139.79 441.81,-132.79"/>
</g>
<!-- Node12 -->
<g id="node12" class="node">
<title>Node12</title>
<g id="a_node12"><a xlink:href="struct__rostestdrone___1_1__pid___1_1controller__integrated__state__members.html" target="_top" xlink:title="Structure for the members that are mapped to the rk4 vector after integration.">
<polygon fill="white" stroke="black" points="305.5,-163.5 305.5,-204.5 435.5,-204.5 435.5,-163.5 305.5,-163.5"/>
<text text-anchor="start" x="313.5" y="-192.5" font-family="Helvetica,sans-Serif" font-size="10.00">_rostestdrone_::_pid</text>
<text text-anchor="start" x="313.5" y="-181.5" font-family="Helvetica,sans-Serif" font-size="10.00">_::controller_integrated</text>
<text text-anchor="middle" x="370.5" y="-170.5" font-family="Helvetica,sans-Serif" font-size="10.00">_state_members</text>
</a>
</g>
</g>
<!-- Node12&#45;&gt;Node1 -->
<g id="edge16" class="edge">
<title>Node12&#45;&gt;Node1</title>
<path fill="none" stroke="#9a32cd" stroke-dasharray="5,2" d="M446.01,-183.68C539.23,-183.28 696.79,-182.6 780.79,-182.24"/>
<polygon fill="#9a32cd" stroke="#9a32cd" points="445.79,-180.18 435.81,-183.72 445.82,-187.18 445.79,-180.18"/>
<text text-anchor="middle" x="645.5" y="-186" font-family="Helvetica,sans-Serif" font-size="10.00"> csm</text>
</g>
<!-- Node12&#45;&gt;Node10 -->
<g id="edge13" class="edge">
<title>Node12&#45;&gt;Node10</title>
<path fill="none" stroke="#9a32cd" stroke-dasharray="5,2" d="M445.47,-172.08C490.28,-164.86 546.57,-155.78 587.84,-149.13"/>
<polygon fill="#9a32cd" stroke="#9a32cd" points="444.82,-168.64 435.51,-173.68 445.94,-175.55 444.82,-168.64"/>
<text text-anchor="middle" x="509.5" y="-172" font-family="Helvetica,sans-Serif" font-size="10.00"> CSM</text>
</g>
<!-- Node13 -->
<g id="node13" class="node">
<title>Node13</title>
<g id="a_node13"><a xlink:href="struct__rostestdrone___1_1__pid___1_1controller__internal__members.html" target="_top" xlink:title="Structure for the internal members of the class.">
<polygon fill="white" stroke="black" points="312,-63.5 312,-104.5 429,-104.5 429,-63.5 312,-63.5"/>
<text text-anchor="start" x="320" y="-92.5" font-family="Helvetica,sans-Serif" font-size="10.00">_rostestdrone_::_pid</text>
<text text-anchor="start" x="320" y="-81.5" font-family="Helvetica,sans-Serif" font-size="10.00">_::controller_internal</text>
<text text-anchor="middle" x="370.5" y="-70.5" font-family="Helvetica,sans-Serif" font-size="10.00">_members</text>
</a>
</g>
</g>
<!-- Node13&#45;&gt;Node1 -->
<g id="edge17" class="edge">
<title>Node13&#45;&gt;Node1</title>
<path fill="none" stroke="#9a32cd" stroke-dasharray="5,2" d="M439.17,-78.78C508.96,-75.55 620.11,-76.46 711,-105 753.19,-118.25 795.79,-148.45 819.21,-166.85"/>
<polygon fill="#9a32cd" stroke="#9a32cd" points="438.99,-75.28 429.18,-79.28 439.35,-82.28 438.99,-75.28"/>
<text text-anchor="middle" x="645.5" y="-108" font-family="Helvetica,sans-Serif" font-size="10.00"> cim</text>
</g>
<!-- Node13&#45;&gt;Node10 -->
<g id="edge14" class="edge">
<title>Node13&#45;&gt;Node10</title>
<path fill="none" stroke="#9a32cd" stroke-dasharray="5,2" d="M439.15,-96.55C475.61,-103.46 521.33,-112.37 562,-121 570.34,-122.77 579.13,-124.71 587.75,-126.66"/>
<polygon fill="#9a32cd" stroke="#9a32cd" points="439.6,-93.07 429.13,-94.66 438.3,-99.95 439.6,-93.07"/>
<text text-anchor="middle" x="509.5" y="-124" font-family="Helvetica,sans-Serif" font-size="10.00"> CIM</text>
</g>
<!-- Node14 -->
<g id="node14" class="node">
<title>Node14</title>
<g id="a_node14"><a xlink:href="struct__rostestdrone___1_1__pid___1_1controller__internal__parameters.html" target="_top" xlink:title="Structure for all parameter members of the controller.">
<polygon fill="white" stroke="black" points="587,-0.5 587,-41.5 704,-41.5 704,-0.5 587,-0.5"/>
<text text-anchor="start" x="595" y="-29.5" font-family="Helvetica,sans-Serif" font-size="10.00">_rostestdrone_::_pid</text>
<text text-anchor="start" x="595" y="-18.5" font-family="Helvetica,sans-Serif" font-size="10.00">_::controller_internal</text>
<text text-anchor="middle" x="645.5" y="-7.5" font-family="Helvetica,sans-Serif" font-size="10.00">_parameters</text>
</a>
</g>
</g>
<!-- Node14&#45;&gt;Node1 -->
<g id="edge15" class="edge">
<title>Node14&#45;&gt;Node1</title>
<path fill="none" stroke="#9a32cd" stroke-dasharray="5,2" d="M714.2,-30.2C731.37,-34.94 748.91,-42.12 763,-53 801.89,-83.03 824.09,-139.54 832.95,-166.69"/>
<polygon fill="#9a32cd" stroke="#9a32cd" points="714.72,-26.72 704.17,-27.68 713.02,-33.51 714.72,-26.72"/>
<text text-anchor="middle" x="746" y="-56" font-family="Helvetica,sans-Serif" font-size="10.00"> cip</text>
</g>
</g>
</svg>
