<?xml version="1.0" encoding="UTF-8" standalone="no"?>
<!DOCTYPE svg PUBLIC "-//W3C//DTD SVG 1.1//EN"
 "http://www.w3.org/Graphics/SVG/1.1/DTD/svg11.dtd">
<!-- Generated by graphviz version 2.43.0 (0)
 -->
<!-- Title: _qrbp_::_mrac_pid_::mrac_pid_logger Pages: 1 -->
<!--zoomable 148 -->
<svg id="main" version="1.1" xmlns="http://www.w3.org/2000/svg" xmlns:xlink="http://www.w3.org/1999/xlink" xml:space="preserve" onload="init(evt)">
<style type="text/css"><![CDATA[
.edge:hover path { stroke: red; }
.edge:hover polygon { stroke: red; fill: red; }
]]></style>
<script type="text/javascript"><![CDATA[
var edges = document.getElementsByTagName('g');
if (edges && edges.length) {
  for (var i=0;i<edges.length;i++) {
    if (edges[i].id.substr(0,4)=='edge') {
      edges[i].setAttribute('class','edge');
    }
  }
}
]]></script>
        <defs>
                <circle id="rim" cx="0" cy="0" r="7"/>
                <circle id="rim2" cx="0" cy="0" r="3.5"/>
                <g id="zoomPlus">
                        <use xlink:href="#rim" fill="#404040">
                                <set attributeName="fill" to="#808080" begin="zoomplus.mouseover" end="zoomplus.mouseout"/>
                        </use>
                        <path d="M-4,0h8M0,-4v8" fill="none" stroke="white" stroke-width="1.5" pointer-events="none"/>
                </g>
                <g id="zoomMin">
                        <use xlink:href="#rim" fill="#404040">
                                <set attributeName="fill" to="#808080" begin="zoomminus.mouseover" end="zoomminus.mouseout"/>
                        </use>
                        <path d="M-4,0h8" fill="none" stroke="white" stroke-width="1.5" pointer-events="none"/>
                </g>
                <g id="dirArrow">
                        <path fill="none" stroke="white" stroke-width="1.5" d="M0,-3.0v7 M-2.5,-0.5L0,-3.0L2.5,-0.5"/>
                </g>
               <g id="resetDef">
                       <use xlink:href="#rim2" fill="#404040">
                               <set attributeName="fill" to="#808080" begin="reset.mouseover" end="reset.mouseout"/>
                       </use>
               </g>
        </defs>

<script type="text/javascript">
var viewWidth = 714;
var viewHeight = 148;
var sectionId = 'dynsection-1';
</script>
<script xlink:href="svgpan.js"/>
<svg id="graph" class="graph">
<g id="viewport">
<title>_qrbp_::_mrac_pid_::mrac_pid_logger</title>
<polygon fill="white" stroke="transparent" points="-4,4 -4,-144 710,-144 710,4 -4,4"/>
<!-- Node1 -->
<g id="node1" class="node">
<title>Node1</title>
<g id="a_node1"><a xlink:title=" ">
<polygon fill="#bfbfbf" stroke="black" points="596,-66 596,-96 706,-96 706,-66 596,-66"/>
<text text-anchor="start" x="604" y="-84" font-family="Helvetica,sans-Serif" font-size="10.00">_qrbp_::_mrac_pid_</text>
<text text-anchor="middle" x="651" y="-73" font-family="Helvetica,sans-Serif" font-size="10.00">::mrac_pid_logger</text>
</a>
</g>
</g>
<!-- Node2 -->
<g id="node2" class="node">
<title>Node2</title>
<g id="a_node2"><a xlink:href="class__flight__log___1_1blackbox.html" target="_top" xlink:title=" ">
<polygon fill="white" stroke="black" points="411.5,-120.5 411.5,-139.5 533.5,-139.5 533.5,-120.5 411.5,-120.5"/>
<text text-anchor="middle" x="472.5" y="-127.5" font-family="Helvetica,sans-Serif" font-size="10.00">_flight_log_::blackbox</text>
</a>
</g>
</g>
<!-- Node2&#45;&gt;Node1 -->
<g id="edge1" class="edge">
<title>Node2&#45;&gt;Node1</title>
<path fill="none" stroke="midnightblue" d="M517.72,-117.72C541.41,-111.15 570.79,-102.99 595.84,-96.04"/>
<polygon fill="midnightblue" stroke="midnightblue" points="516.65,-114.39 507.95,-120.44 518.52,-121.13 516.65,-114.39"/>
</g>
<!-- Node3 -->
<g id="node3" class="node">
<title>Node3</title>
<g id="a_node3"><a xlink:href="struct__qrbp___1_1__mrac__pid___1_1controller__internal__members.html" target="_top" xlink:title="Structure for the internal members of the controller.">
<polygon fill="white" stroke="black" points="416.5,-60.5 416.5,-101.5 528.5,-101.5 528.5,-60.5 416.5,-60.5"/>
<text text-anchor="start" x="424.5" y="-89.5" font-family="Helvetica,sans-Serif" font-size="10.00">_qrbp_::_mrac_pid_</text>
<text text-anchor="start" x="424.5" y="-78.5" font-family="Helvetica,sans-Serif" font-size="10.00">::controller_internal</text>
<text text-anchor="middle" x="472.5" y="-67.5" font-family="Helvetica,sans-Serif" font-size="10.00">_members</text>
</a>
</g>
</g>
<!-- Node3&#45;&gt;Node1 -->
<g id="edge2" class="edge">
<title>Node3&#45;&gt;Node1</title>
<path fill="none" stroke="#9a32cd" stroke-dasharray="5,2" d="M539.06,-81C557.72,-81 577.83,-81 595.74,-81"/>
<polygon fill="#9a32cd" stroke="#9a32cd" points="538.86,-77.5 528.86,-81 538.86,-84.5 538.86,-77.5"/>
<text text-anchor="middle" x="565.5" y="-84" font-family="Helvetica,sans-Serif" font-size="10.00"> CIM</text>
</g>
<!-- Node4 -->
<g id="node4" class="node">
<title>Node4</title>
<g id="a_node4"><a xlink:href="struct__qrbp___1_1__mrac__pid___1_1controller__internal__members__aero.html" target="_top" xlink:title="Structure for all the aerodynamic members of the controller.">
<polygon fill="white" stroke="black" points="237,-60.5 237,-101.5 349,-101.5 349,-60.5 237,-60.5"/>
<text text-anchor="start" x="245" y="-89.5" font-family="Helvetica,sans-Serif" font-size="10.00">_qrbp_::_mrac_pid_</text>
<text text-anchor="start" x="245" y="-78.5" font-family="Helvetica,sans-Serif" font-size="10.00">::controller_internal</text>
<text text-anchor="middle" x="293" y="-67.5" font-family="Helvetica,sans-Serif" font-size="10.00">_members_aero</text>
</a>
</g>
</g>
<!-- Node4&#45;&gt;Node3 -->
<g id="edge3" class="edge">
<title>Node4&#45;&gt;Node3</title>
<path fill="none" stroke="#9a32cd" stroke-dasharray="5,2" d="M359.41,-81C378.12,-81 398.32,-81 416.35,-81"/>
<polygon fill="#9a32cd" stroke="#9a32cd" points="359.19,-77.5 349.19,-81 359.19,-84.5 359.19,-77.5"/>
<text text-anchor="middle" x="379.5" y="-84" font-family="Helvetica,sans-Serif" font-size="10.00"> aero</text>
</g>
<!-- Node5 -->
<g id="node5" class="node">
<title>Node5</title>
<g id="a_node5"><a xlink:href="struct__qrbp___1_1AeroStates.html" target="_top" xlink:title="Angles for the wings and stabilizers.">
<polygon fill="white" stroke="black" points="29.5,-109.5 29.5,-128.5 137.5,-128.5 137.5,-109.5 29.5,-109.5"/>
<text text-anchor="middle" x="83.5" y="-116.5" font-family="Helvetica,sans-Serif" font-size="10.00">_qrbp_::AeroStates</text>
</a>
</g>
</g>
<!-- Node5&#45;&gt;Node4 -->
<g id="edge4" class="edge">
<title>Node5&#45;&gt;Node4</title>
<path fill="none" stroke="#9a32cd" stroke-dasharray="5,2" d="M147.71,-108.64C170.24,-104.82 195.78,-100.37 219,-96 224.72,-94.92 230.69,-93.76 236.64,-92.58"/>
<polygon fill="#9a32cd" stroke="#9a32cd" points="146.87,-105.23 137.59,-110.34 148.04,-112.13 146.87,-105.23"/>
<text text-anchor="middle" x="202" y="-105" font-family="Helvetica,sans-Serif" font-size="10.00"> states</text>
</g>
<!-- Node6 -->
<g id="node6" class="node">
<title>Node6</title>
<g id="a_node6"><a xlink:href="struct__qrbp___1_1AeroCoeff.html" target="_top" xlink:title="Aerodynamic coefficients for the QRBP.">
<polygon fill="white" stroke="black" points="32,-71.5 32,-90.5 135,-90.5 135,-71.5 32,-71.5"/>
<text text-anchor="middle" x="83.5" y="-78.5" font-family="Helvetica,sans-Serif" font-size="10.00">_qrbp_::AeroCoeff</text>
</a>
</g>
</g>
<!-- Node6&#45;&gt;Node4 -->
<g id="edge5" class="edge">
<title>Node6&#45;&gt;Node4</title>
<path fill="none" stroke="#9a32cd" stroke-dasharray="5,2" d="M145.62,-81C174.46,-81 208.61,-81 236.67,-81"/>
<polygon fill="#9a32cd" stroke="#9a32cd" points="145.26,-77.5 135.26,-81 145.26,-84.5 145.26,-77.5"/>
<text text-anchor="middle" x="202" y="-84" font-family="Helvetica,sans-Serif" font-size="10.00"> coeff</text>
</g>
<!-- Node7 -->
<g id="node7" class="node">
<title>Node7</title>
<g id="a_node7"><a xlink:href="struct__qrbp___1_1AeroDynamicMembers.html" target="_top" xlink:title="Structre for all the aerodynamic members of the controller.">
<polygon fill="white" stroke="black" points="0,-33.5 0,-52.5 167,-52.5 167,-33.5 0,-33.5"/>
<text text-anchor="middle" x="83.5" y="-40.5" font-family="Helvetica,sans-Serif" font-size="10.00">_qrbp_::AeroDynamicMembers</text>
</a>
</g>
</g>
<!-- Node7&#45;&gt;Node4 -->
<g id="edge6" class="edge">
<title>Node7&#45;&gt;Node4</title>
<path fill="none" stroke="#9a32cd" stroke-dasharray="5,2" d="M152.75,-54.22C174,-57.83 197.5,-61.95 219,-66 224.72,-67.08 230.69,-68.24 236.64,-69.42"/>
<polygon fill="#9a32cd" stroke="#9a32cd" points="153.28,-50.76 142.84,-52.54 152.11,-57.66 153.28,-50.76"/>
<text text-anchor="middle" x="202" y="-69" font-family="Helvetica,sans-Serif" font-size="10.00"> dyn</text>
</g>
<!-- Node8 -->
<g id="node8" class="node">
<title>Node8</title>
<g id="a_node8"><a xlink:href="struct__qrbp___1_1__mrac__pid___1_1controller__integrated__state__members.html" target="_top" xlink:title="Structure for the members that are mapped to the rk4 vector after integration.">
<polygon fill="white" stroke="black" points="410,-0.5 410,-41.5 535,-41.5 535,-0.5 410,-0.5"/>
<text text-anchor="start" x="418" y="-29.5" font-family="Helvetica,sans-Serif" font-size="10.00">_qrbp_::_mrac_pid_</text>
<text text-anchor="start" x="418" y="-18.5" font-family="Helvetica,sans-Serif" font-size="10.00">::controller_integrated</text>
<text text-anchor="middle" x="472.5" y="-7.5" font-family="Helvetica,sans-Serif" font-size="10.00">_state_members</text>
</a>
</g>
</g>
<!-- Node8&#45;&gt;Node1 -->
<g id="edge7" class="edge">
<title>Node8&#45;&gt;Node1</title>
<path fill="none" stroke="#9a32cd" stroke-dasharray="5,2" d="M543.75,-44.88C564.71,-52.01 587.08,-59.61 605.87,-66"/>
<polygon fill="#9a32cd" stroke="#9a32cd" points="544.84,-41.55 534.24,-41.65 542.58,-48.18 544.84,-41.55"/>
<text text-anchor="middle" x="565.5" y="-60" font-family="Helvetica,sans-Serif" font-size="10.00"> CSM</text>
</g>
</g>
</svg>
        <g id="navigator" transform="translate(0 0)" fill="#404254">
                <rect fill="#f2f5e9" fill-opacity="0.5" stroke="#606060" stroke-width=".5" x="0" y="0" width="60" height="60"/>
                <use id="zoomplus" xlink:href="#zoomPlus" x="17" y="9" onmousedown="handleZoom(evt,'in')"/>
                <use id="zoomminus" xlink:href="#zoomMin" x="42" y="9" onmousedown="handleZoom(evt,'out')"/>
                <use id="reset" xlink:href="#resetDef" x="30" y="36" onmousedown="handleReset()"/>
                <g id="arrowUp" xlink:href="#dirArrow" transform="translate(30 24)" onmousedown="handlePan(0,-1)">
                  <use xlink:href="#rim" fill="#404040">
                        <set attributeName="fill" to="#808080" begin="arrowUp.mouseover" end="arrowUp.mouseout"/>
                  </use>
                  <path fill="none" stroke="white" stroke-width="1.5" d="M0,-3.0v7 M-2.5,-0.5L0,-3.0L2.5,-0.5"/>
                </g>
                <g id="arrowRight" xlink:href="#dirArrow" transform="rotate(90) translate(36 -43)" onmousedown="handlePan(1,0)">
                  <use xlink:href="#rim" fill="#404040">
                        <set attributeName="fill" to="#808080" begin="arrowRight.mouseover" end="arrowRight.mouseout"/>
                  </use>
                  <path fill="none" stroke="white" stroke-width="1.5" d="M0,-3.0v7 M-2.5,-0.5L0,-3.0L2.5,-0.5"/>
                </g>
                <g id="arrowDown" xlink:href="#dirArrow" transform="rotate(180) translate(-30 -48)" onmousedown="handlePan(0,1)">
                  <use xlink:href="#rim" fill="#404040">
                        <set attributeName="fill" to="#808080" begin="arrowDown.mouseover" end="arrowDown.mouseout"/>
                  </use>
                  <path fill="none" stroke="white" stroke-width="1.5" d="M0,-3.0v7 M-2.5,-0.5L0,-3.0L2.5,-0.5"/>
                </g>
                <g id="arrowLeft" xlink:href="#dirArrow" transform="rotate(270) translate(-36 17)" onmousedown="handlePan(-1,0)">
                  <use xlink:href="#rim" fill="#404040">
                        <set attributeName="fill" to="#808080" begin="arrowLeft.mouseover" end="arrowLeft.mouseout"/>
                  </use>
                  <path fill="none" stroke="white" stroke-width="1.5" d="M0,-3.0v7 M-2.5,-0.5L0,-3.0L2.5,-0.5"/>
                </g>
        </g>
        <svg viewBox="0 0 15 15" width="100%" height="30px" preserveAspectRatio="xMaxYMin meet">
         <g id="arrow_out" transform="scale(0.3 0.3)">
          <a xlink:href="class__qrbp___1_1__mrac__pid___1_1mrac__pid__logger__coll__graph_org.svg" target="_base">
           <rect id="button" ry="5" rx="5" y="6" x="6" height="38" width="38"
                fill="#f2f5e9" fill-opacity="0.5" stroke="#606060" stroke-width="1.0"/>
           <path id="arrow"
             d="M 11.500037,31.436501 C 11.940474,20.09759 22.043105,11.32322 32.158766,21.979434 L 37.068811,17.246167 C 37.068811,17.246167 37.088388,32 37.088388,32 L 22.160133,31.978069 C 22.160133,31.978069 26.997745,27.140456 26.997745,27.140456 C 18.528582,18.264221 13.291696,25.230495 11.500037,31.436501 z"
             style="fill:#404040;"/>
          </a>
         </g>
        </svg>
</svg>
