<?xml version="1.0" encoding="UTF-8" standalone="no"?>
<!DOCTYPE svg PUBLIC "-//W3C//DTD SVG 1.1//EN"
 "http://www.w3.org/Graphics/SVG/1.1/DTD/svg11.dtd">
<!-- Generated by graphviz version 2.43.0 (0)
 -->
<!-- Title: _t265_::_vio_::VioT265Node Pages: 1 -->
<svg width="421pt" height="142pt"
 viewBox="0.00 0.00 421.00 142.00" xmlns="http://www.w3.org/2000/svg" xmlns:xlink="http://www.w3.org/1999/xlink">
<g id="graph0" class="graph" transform="scale(1 1) rotate(0) translate(4 138)">
<title>_t265_::_vio_::VioT265Node</title>
<polygon fill="white" stroke="transparent" points="-4,4 -4,-138 417,-138 417,4 -4,4"/>
<!-- Node1 -->
<g id="node1" class="node">
<title>Node1</title>
<g id="a_node1"><a xlink:title="VioT265Node class which can recieve position tracking from the Realsense T265.">
<polygon fill="#bfbfbf" stroke="black" points="261,-57.5 261,-76.5 413,-76.5 413,-57.5 261,-57.5"/>
<text text-anchor="middle" x="337" y="-64.5" font-family="Helvetica,sans-Serif" font-size="10.00">_t265_::_vio_::VioT265Node</text>
</a>
</g>
</g>
<!-- Node2 -->
<g id="node2" class="node">
<title>Node2</title>
<g id="a_node2"><a xlink:title=" ">
<polygon fill="white" stroke="#bfbfbf" points="0,-114.5 0,-133.5 167,-133.5 167,-114.5 0,-114.5"/>
<text text-anchor="middle" x="83.5" y="-121.5" font-family="Helvetica,sans-Serif" font-size="10.00">rclcpp_lifecycle::LifecycleNode</text>
</a>
</g>
</g>
<!-- Node2&#45;&gt;Node1 -->
<g id="edge1" class="edge">
<title>Node2&#45;&gt;Node1</title>
<path fill="none" stroke="midnightblue" d="M140.68,-112.39C171.03,-106.01 209.12,-97.82 243,-90 261.31,-85.77 281.58,-80.8 298.51,-76.55"/>
<polygon fill="midnightblue" stroke="midnightblue" points="139.78,-109.01 130.71,-114.48 141.21,-115.86 139.78,-109.01"/>
</g>
<!-- Node3 -->
<g id="node3" class="node">
<title>Node3</title>
<g id="a_node3"><a xlink:href="class__flight__log___1_1blackbox.html" target="_top" xlink:title=" ">
<polygon fill="white" stroke="black" points="22.5,-76.5 22.5,-95.5 144.5,-95.5 144.5,-76.5 22.5,-76.5"/>
<text text-anchor="middle" x="83.5" y="-83.5" font-family="Helvetica,sans-Serif" font-size="10.00">_flight_log_::blackbox</text>
</a>
</g>
</g>
<!-- Node3&#45;&gt;Node1 -->
<g id="edge2" class="edge">
<title>Node3&#45;&gt;Node1</title>
<path fill="none" stroke="midnightblue" d="M154.78,-80.69C187.84,-78.19 227.3,-75.21 260.95,-72.67"/>
<polygon fill="midnightblue" stroke="midnightblue" points="154.45,-77.21 144.74,-81.45 154.98,-84.19 154.45,-77.21"/>
</g>
<!-- Node4 -->
<g id="node4" class="node">
<title>Node4</title>
<g id="a_node4"><a xlink:href="struct__t265___1_1vio__states.html" target="_top" xlink:title="Struct for vio states that come over the USB 3.0 Link.">
<polygon fill="white" stroke="black" points="31,-38.5 31,-57.5 136,-57.5 136,-38.5 31,-38.5"/>
<text text-anchor="middle" x="83.5" y="-45.5" font-family="Helvetica,sans-Serif" font-size="10.00">_t265_::vio_states</text>
</a>
</g>
</g>
<!-- Node4&#45;&gt;Node1 -->
<g id="edge3" class="edge">
<title>Node4&#45;&gt;Node1</title>
<path fill="none" stroke="#9a32cd" stroke-dasharray="5,2" d="M146.36,-52.06C175.66,-54.04 211.14,-56.52 243,-59 248.82,-59.45 254.84,-59.94 260.89,-60.43"/>
<polygon fill="#9a32cd" stroke="#9a32cd" points="146.48,-48.56 136.27,-51.38 146.01,-55.54 146.48,-48.56"/>
<text text-anchor="middle" x="214" y="-62" font-family="Helvetica,sans-Serif" font-size="10.00"> vio_im</text>
</g>
<!-- Node5 -->
<g id="node5" class="node">
<title>Node5</title>
<g id="a_node5"><a xlink:href="classvehicle__states.html" target="_top" xlink:title="vehicle state class">
<polygon fill="white" stroke="black" points="40,-0.5 40,-19.5 127,-19.5 127,-0.5 40,-0.5"/>
<text text-anchor="middle" x="83.5" y="-7.5" font-family="Helvetica,sans-Serif" font-size="10.00">vehicle_states</text>
</a>
</g>
</g>
<!-- Node5&#45;&gt;Node1 -->
<g id="edge4" class="edge">
<title>Node5&#45;&gt;Node1</title>
<path fill="none" stroke="#9a32cd" stroke-dasharray="5,2" d="M137.3,-18.15C168.27,-23.3 208.06,-30.57 243,-39 264.8,-44.26 289.05,-51.61 307.32,-57.46"/>
<polygon fill="#9a32cd" stroke="#9a32cd" points="137.59,-14.65 127.15,-16.48 136.45,-21.55 137.59,-14.65"/>
<text text-anchor="middle" x="214" y="-42" font-family="Helvetica,sans-Serif" font-size="10.00"> vehicle_ptr</text>
</g>
</g>
</svg>
