<?xml version="1.0" encoding="UTF-8" standalone="no"?>
<!DOCTYPE svg PUBLIC "-//W3C//DTD SVG 1.1//EN"
 "http://www.w3.org/Graphics/SVG/1.1/DTD/svg11.dtd">
<!-- Generated by graphviz version 2.43.0 (0)
 -->
<!-- Title: _qrbp_::_pid_::pid_logger Pages: 1 -->
<svg width="760pt" height="159pt"
 viewBox="0.00 0.00 760.00 159.00" xmlns="http://www.w3.org/2000/svg" xmlns:xlink="http://www.w3.org/1999/xlink">
<g id="graph0" class="graph" transform="scale(1 1) rotate(0) translate(4 155)">
<title>_qrbp_::_pid_::pid_logger</title>
<polygon fill="white" stroke="transparent" points="-4,4 -4,-155 756,-155 756,4 -4,4"/>
<!-- Node1 -->
<g id="node1" class="node">
<title>Node1</title>
<g id="a_node1"><a xlink:title="Logger for the pid.">
<polygon fill="#bfbfbf" stroke="black" points="651,-82 651,-112 752,-112 752,-82 651,-82"/>
<text text-anchor="start" x="659" y="-100" font-family="Helvetica,sans-Serif" font-size="10.00">_qrbp_::_pid_::pid</text>
<text text-anchor="middle" x="701.5" y="-89" font-family="Helvetica,sans-Serif" font-size="10.00">_logger</text>
</a>
</g>
</g>
<!-- Node2 -->
<g id="node2" class="node">
<title>Node2</title>
<g id="a_node2"><a xlink:href="class__flight__log___1_1blackbox.html" target="_top" xlink:title=" ">
<polygon fill="white" stroke="black" points="452,-131.5 452,-150.5 574,-150.5 574,-131.5 452,-131.5"/>
<text text-anchor="middle" x="513" y="-138.5" font-family="Helvetica,sans-Serif" font-size="10.00">_flight_log_::blackbox</text>
</a>
</g>
</g>
<!-- Node2&#45;&gt;Node1 -->
<g id="edge1" class="edge">
<title>Node2&#45;&gt;Node1</title>
<path fill="none" stroke="midnightblue" d="M564.43,-129.1C591.25,-122.78 624.1,-115.02 650.81,-108.72"/>
<polygon fill="midnightblue" stroke="midnightblue" points="563.4,-125.75 554.47,-131.45 565,-132.56 563.4,-125.75"/>
</g>
<!-- Node3 -->
<g id="node3" class="node">
<title>Node3</title>
<g id="a_node3"><a xlink:href="struct__qrbp___1_1__pid___1_1controller__integrated__state__members.html" target="_top" xlink:title="Structure for the members that are mapped to the rk4 vector after integration.">
<polygon fill="white" stroke="black" points="436,-82 436,-112 590,-112 590,-82 436,-82"/>
<text text-anchor="start" x="444" y="-100" font-family="Helvetica,sans-Serif" font-size="10.00">_qrbp_::_pid_::controller</text>
<text text-anchor="middle" x="513" y="-89" font-family="Helvetica,sans-Serif" font-size="10.00">_integrated_state_members</text>
</a>
</g>
</g>
<!-- Node3&#45;&gt;Node1 -->
<g id="edge2" class="edge">
<title>Node3&#45;&gt;Node1</title>
<path fill="none" stroke="#9a32cd" stroke-dasharray="5,2" d="M600.26,-97C617.57,-97 635.21,-97 650.76,-97"/>
<polygon fill="#9a32cd" stroke="#9a32cd" points="600.13,-93.5 590.13,-97 600.13,-100.5 600.13,-93.5"/>
<text text-anchor="middle" x="620.5" y="-100" font-family="Helvetica,sans-Serif" font-size="10.00"> CSM</text>
</g>
<!-- Node4 -->
<g id="node4" class="node">
<title>Node4</title>
<g id="a_node4"><a xlink:href="struct__qrbp___1_1__pid___1_1controller__internal__members.html" target="_top" xlink:title="Structure for the internal members of the controller.">
<polygon fill="white" stroke="black" points="446.5,-33 446.5,-63 579.5,-63 579.5,-33 446.5,-33"/>
<text text-anchor="start" x="454.5" y="-51" font-family="Helvetica,sans-Serif" font-size="10.00">_qrbp_::_pid_::controller</text>
<text text-anchor="middle" x="513" y="-40" font-family="Helvetica,sans-Serif" font-size="10.00">_internal_members</text>
</a>
</g>
</g>
<!-- Node4&#45;&gt;Node1 -->
<g id="edge3" class="edge">
<title>Node4&#45;&gt;Node1</title>
<path fill="none" stroke="#9a32cd" stroke-dasharray="5,2" d="M580.96,-65.59C604.06,-71.66 629.5,-78.35 650.95,-83.98"/>
<polygon fill="#9a32cd" stroke="#9a32cd" points="581.78,-62.19 571.22,-63.03 580.01,-68.96 581.78,-62.19"/>
<text text-anchor="middle" x="620.5" y="-81" font-family="Helvetica,sans-Serif" font-size="10.00"> CIM</text>
</g>
<!-- Node5 -->
<g id="node5" class="node">
<title>Node5</title>
<g id="a_node5"><a xlink:href="struct__qrbp___1_1__pid___1_1controller__internal__members__aero.html" target="_top" xlink:title="Structure for all the aerodynamic members of the controller.">
<polygon fill="white" stroke="black" points="237,-33 237,-63 375,-63 375,-33 237,-33"/>
<text text-anchor="start" x="245" y="-51" font-family="Helvetica,sans-Serif" font-size="10.00">_qrbp_::_pid_::controller</text>
<text text-anchor="middle" x="306" y="-40" font-family="Helvetica,sans-Serif" font-size="10.00">_internal_members_aero</text>
</a>
</g>
</g>
<!-- Node5&#45;&gt;Node4 -->
<g id="edge4" class="edge">
<title>Node5&#45;&gt;Node4</title>
<path fill="none" stroke="#9a32cd" stroke-dasharray="5,2" d="M385.36,-48C405.53,-48 427.02,-48 446.47,-48"/>
<polygon fill="#9a32cd" stroke="#9a32cd" points="385.26,-44.5 375.26,-48 385.26,-51.5 385.26,-44.5"/>
<text text-anchor="middle" x="405.5" y="-51" font-family="Helvetica,sans-Serif" font-size="10.00"> aero</text>
</g>
<!-- Node6 -->
<g id="node6" class="node">
<title>Node6</title>
<g id="a_node6"><a xlink:href="struct__qrbp___1_1AeroStates.html" target="_top" xlink:title="Angles for the wings and stabilizers.">
<polygon fill="white" stroke="black" points="29.5,-76.5 29.5,-95.5 137.5,-95.5 137.5,-76.5 29.5,-76.5"/>
<text text-anchor="middle" x="83.5" y="-83.5" font-family="Helvetica,sans-Serif" font-size="10.00">_qrbp_::AeroStates</text>
</a>
</g>
</g>
<!-- Node6&#45;&gt;Node5 -->
<g id="edge5" class="edge">
<title>Node6&#45;&gt;Node5</title>
<path fill="none" stroke="#9a32cd" stroke-dasharray="5,2" d="M147.64,-75.25C170.17,-71.4 195.72,-67.02 219,-63 224.82,-61.99 230.87,-60.95 236.93,-59.89"/>
<polygon fill="#9a32cd" stroke="#9a32cd" points="146.8,-71.84 137.53,-76.97 147.97,-78.74 146.8,-71.84"/>
<text text-anchor="middle" x="202" y="-71" font-family="Helvetica,sans-Serif" font-size="10.00"> states</text>
</g>
<!-- Node7 -->
<g id="node7" class="node">
<title>Node7</title>
<g id="a_node7"><a xlink:href="struct__qrbp___1_1AeroCoeff.html" target="_top" xlink:title="Aerodynamic coefficients for the QRBP.">
<polygon fill="white" stroke="black" points="32,-38.5 32,-57.5 135,-57.5 135,-38.5 32,-38.5"/>
<text text-anchor="middle" x="83.5" y="-45.5" font-family="Helvetica,sans-Serif" font-size="10.00">_qrbp_::AeroCoeff</text>
</a>
</g>
</g>
<!-- Node7&#45;&gt;Node5 -->
<g id="edge6" class="edge">
<title>Node7&#45;&gt;Node5</title>
<path fill="none" stroke="#9a32cd" stroke-dasharray="5,2" d="M145.26,-48C173.6,-48 207.45,-48 236.68,-48"/>
<polygon fill="#9a32cd" stroke="#9a32cd" points="145.09,-44.5 135.09,-48 145.09,-51.5 145.09,-44.5"/>
<text text-anchor="middle" x="202" y="-51" font-family="Helvetica,sans-Serif" font-size="10.00"> coeff</text>
</g>
<!-- Node8 -->
<g id="node8" class="node">
<title>Node8</title>
<g id="a_node8"><a xlink:href="struct__qrbp___1_1AeroDynamicMembers.html" target="_top" xlink:title="Structre for all the aerodynamic members of the controller.">
<polygon fill="white" stroke="black" points="0,-0.5 0,-19.5 167,-19.5 167,-0.5 0,-0.5"/>
<text text-anchor="middle" x="83.5" y="-7.5" font-family="Helvetica,sans-Serif" font-size="10.00">_qrbp_::AeroDynamicMembers</text>
</a>
</g>
</g>
<!-- Node8&#45;&gt;Node5 -->
<g id="edge7" class="edge">
<title>Node8&#45;&gt;Node5</title>
<path fill="none" stroke="#9a32cd" stroke-dasharray="5,2" d="M150.6,-21.26C172.38,-24.98 196.73,-29.15 219,-33 224.82,-34.01 230.87,-35.05 236.93,-36.11"/>
<polygon fill="#9a32cd" stroke="#9a32cd" points="150.9,-17.76 140.46,-19.53 149.73,-24.66 150.9,-17.76"/>
<text text-anchor="middle" x="202" y="-36" font-family="Helvetica,sans-Serif" font-size="10.00"> dyn</text>
</g>
</g>
</svg>
