<?xml version="1.0" encoding="UTF-8" standalone="no"?>
<!DOCTYPE svg PUBLIC "-//W3C//DTD SVG 1.1//EN"
 "http://www.w3.org/Graphics/SVG/1.1/DTD/svg11.dtd">
<!-- Generated by graphviz version 2.43.0 (0)
 -->
<!-- Title: _control_algorithm_base_::controller_base Pages: 1 -->
<svg width="195pt" height="173pt"
 viewBox="0.00 0.00 195.00 173.00" xmlns="http://www.w3.org/2000/svg" xmlns:xlink="http://www.w3.org/1999/xlink">
<g id="graph0" class="graph" transform="scale(1 1) rotate(0) translate(4 169)">
<title>_control_algorithm_base_::controller_base</title>
<polygon fill="white" stroke="transparent" points="-4,4 -4,-169 191,-169 191,4 -4,4"/>
<!-- Node1 -->
<g id="node1" class="node">
<title>Node1</title>
<g id="a_node1"><a xlink:title="controller_base definition">
<polygon fill="#bfbfbf" stroke="black" points="28,-0.5 28,-30.5 159,-30.5 159,-0.5 28,-0.5"/>
<text text-anchor="start" x="36" y="-18.5" font-family="Helvetica,sans-Serif" font-size="10.00">_control_algorithm</text>
<text text-anchor="middle" x="93.5" y="-7.5" font-family="Helvetica,sans-Serif" font-size="10.00">_base_::controller_base</text>
</a>
</g>
</g>
<!-- Node2 -->
<g id="node2" class="node">
<title>Node2</title>
<g id="a_node2"><a xlink:href="structflight__params.html" target="_top" xlink:title=" ">
<polygon fill="white" stroke="black" points="52,-78.5 52,-97.5 135,-97.5 135,-78.5 52,-78.5"/>
<text text-anchor="middle" x="93.5" y="-85.5" font-family="Helvetica,sans-Serif" font-size="10.00">flight_params</text>
</a>
</g>
</g>
<!-- Node2&#45;&gt;Node1 -->
<g id="edge1" class="edge">
<title>Node2&#45;&gt;Node1</title>
<path fill="none" stroke="#9a32cd" stroke-dasharray="5,2" d="M93.5,-68.24C93.5,-56.41 93.5,-41.38 93.5,-30.58"/>
<polygon fill="#9a32cd" stroke="#9a32cd" points="90,-68.36 93.5,-78.36 97,-68.36 90,-68.36"/>
<text text-anchor="middle" x="138" y="-52" font-family="Helvetica,sans-Serif" font-size="10.00"> flight_params_ptr</text>
</g>
<!-- Node3 -->
<g id="node3" class="node">
<title>Node3</title>
<g id="a_node3"><a xlink:href="structPiecewisePolynomialTrajectoryInfo.html" target="_top" xlink:title=" ">
<polygon fill="white" stroke="black" points="0,-145.5 0,-164.5 187,-164.5 187,-145.5 0,-145.5"/>
<text text-anchor="middle" x="93.5" y="-152.5" font-family="Helvetica,sans-Serif" font-size="10.00">PiecewisePolynomialTrajectoryInfo</text>
</a>
</g>
</g>
<!-- Node3&#45;&gt;Node2 -->
<g id="edge2" class="edge">
<title>Node3&#45;&gt;Node2</title>
<path fill="none" stroke="#9a32cd" stroke-dasharray="5,2" d="M93.5,-135.04C93.5,-122.67 93.5,-107.12 93.5,-97.63"/>
<polygon fill="#9a32cd" stroke="#9a32cd" points="90,-135.23 93.5,-145.23 97,-135.23 90,-135.23"/>
<text text-anchor="middle" x="124.5" y="-119" font-family="Helvetica,sans-Serif" font-size="10.00"> traj_params</text>
</g>
</g>
</svg>
