<?xml version="1.0" encoding="UTF-8" standalone="no"?>
<!DOCTYPE svg PUBLIC "-//W3C//DTD SVG 1.1//EN"
 "http://www.w3.org/Graphics/SVG/1.1/DTD/svg11.dtd">
<!-- Generated by graphviz version 2.43.0 (0)
 -->
<!-- Title: _qrbp_::_pid_omega_::pid_omega Pages: 1 -->
<svg width="1140pt" height="659pt"
 viewBox="0.00 0.00 1140.00 659.00" xmlns="http://www.w3.org/2000/svg" xmlns:xlink="http://www.w3.org/1999/xlink">
<g id="graph0" class="graph" transform="scale(1 1) rotate(0) translate(4 655)">
<title>_qrbp_::_pid_omega_::pid_omega</title>
<polygon fill="white" stroke="transparent" points="-4,4 -4,-655 1136,-655 1136,4 -4,4"/>
<!-- Node1 -->
<g id="node1" class="node">
<title>Node1</title>
<g id="a_node1"><a xlink:title="public controller_base">
<polygon fill="#bfbfbf" stroke="black" points="1018,-156 1018,-186 1132,-186 1132,-156 1018,-156"/>
<text text-anchor="start" x="1026" y="-174" font-family="Helvetica,sans-Serif" font-size="10.00">_qrbp_::_pid_omega</text>
<text text-anchor="middle" x="1075" y="-163" font-family="Helvetica,sans-Serif" font-size="10.00">_::pid_omega</text>
</a>
</g>
</g>
<!-- Node2 -->
<g id="node2" class="node">
<title>Node2</title>
<g id="a_node2"><a xlink:href="class__control__algorithm__base___1_1controller__base.html" target="_top" xlink:title="controller_base definition">
<polygon fill="white" stroke="black" points="817,-466 817,-496 948,-496 948,-466 817,-466"/>
<text text-anchor="start" x="825" y="-484" font-family="Helvetica,sans-Serif" font-size="10.00">_control_algorithm</text>
<text text-anchor="middle" x="882.5" y="-473" font-family="Helvetica,sans-Serif" font-size="10.00">_base_::controller_base</text>
</a>
</g>
</g>
<!-- Node2&#45;&gt;Node1 -->
<g id="edge1" class="edge">
<title>Node2&#45;&gt;Node1</title>
<path fill="none" stroke="midnightblue" d="M898.22,-457.04C935.73,-396.01 1034.05,-236.02 1064.72,-186.1"/>
<polygon fill="midnightblue" stroke="midnightblue" points="895.2,-455.27 892.95,-465.63 901.16,-458.94 895.2,-455.27"/>
</g>
<!-- Node3 -->
<g id="node3" class="node">
<title>Node3</title>
<g id="a_node3"><a xlink:href="structflight__params.html" target="_top" xlink:title=" ">
<polygon fill="white" stroke="black" points="566,-615.5 566,-634.5 649,-634.5 649,-615.5 566,-615.5"/>
<text text-anchor="middle" x="607.5" y="-622.5" font-family="Helvetica,sans-Serif" font-size="10.00">flight_params</text>
</a>
</g>
</g>
<!-- Node3&#45;&gt;Node2 -->
<g id="edge2" class="edge">
<title>Node3&#45;&gt;Node2</title>
<path fill="none" stroke="#9a32cd" stroke-dasharray="5,2" d="M658.33,-636.2C699.02,-642.55 756.52,-644.93 799,-620 846.19,-592.3 869.36,-526.15 877.72,-496.2"/>
<polygon fill="#9a32cd" stroke="#9a32cd" points="658.82,-632.73 648.37,-634.51 657.65,-639.63 658.82,-632.73"/>
<text text-anchor="middle" x="746.5" y="-643" font-family="Helvetica,sans-Serif" font-size="10.00"> flight_params_ptr</text>
</g>
<!-- Node6 -->
<g id="node6" class="node">
<title>Node6</title>
<g id="a_node6"><a xlink:href="class__piecewise__polynomial__trajectory___1_1piecewise__polynomial__trajectory.html" target="_top" xlink:title="Piecwise polynomial trajectory.">
<polygon fill="white" stroke="black" points="817,-261.5 817,-302.5 948,-302.5 948,-261.5 817,-261.5"/>
<text text-anchor="start" x="825" y="-290.5" font-family="Helvetica,sans-Serif" font-size="10.00">_piecewise_polynomial</text>
<text text-anchor="start" x="825" y="-279.5" font-family="Helvetica,sans-Serif" font-size="10.00">_trajectory_::piecewise</text>
<text text-anchor="middle" x="882.5" y="-268.5" font-family="Helvetica,sans-Serif" font-size="10.00">_polynomial_trajectory</text>
</a>
</g>
</g>
<!-- Node3&#45;&gt;Node6 -->
<g id="edge11" class="edge">
<title>Node3&#45;&gt;Node6</title>
<path fill="none" stroke="#9a32cd" stroke-dasharray="5,2" d="M659.21,-614.24C670.65,-611.83 682.74,-609.31 694,-607 740.62,-597.43 766.35,-620.63 799,-586 818.86,-564.94 809.95,-485.07 817,-457 831.42,-399.53 858.19,-334.8 872.28,-302.55"/>
<polygon fill="#9a32cd" stroke="#9a32cd" points="658.43,-610.82 649.36,-616.31 659.87,-617.67 658.43,-610.82"/>
<text text-anchor="middle" x="746.5" y="-610" font-family="Helvetica,sans-Serif" font-size="10.00"> flight_params_ptr</text>
</g>
<!-- Node4 -->
<g id="node4" class="node">
<title>Node4</title>
<g id="a_node4"><a xlink:href="structPiecewisePolynomialTrajectoryInfo.html" target="_top" xlink:title=" ">
<polygon fill="white" stroke="black" points="237,-615.5 237,-634.5 424,-634.5 424,-615.5 237,-615.5"/>
<text text-anchor="middle" x="330.5" y="-622.5" font-family="Helvetica,sans-Serif" font-size="10.00">PiecewisePolynomialTrajectoryInfo</text>
</a>
</g>
</g>
<!-- Node4&#45;&gt;Node3 -->
<g id="edge3" class="edge">
<title>Node4&#45;&gt;Node3</title>
<path fill="none" stroke="#9a32cd" stroke-dasharray="5,2" d="M434.5,-625C480.24,-625 531.43,-625 565.98,-625"/>
<polygon fill="#9a32cd" stroke="#9a32cd" points="434.22,-621.5 424.22,-625 434.22,-628.5 434.22,-621.5"/>
<text text-anchor="middle" x="481.5" y="-628" font-family="Helvetica,sans-Serif" font-size="10.00"> traj_params</text>
</g>
<!-- Node5 -->
<g id="node5" class="node">
<title>Node5</title>
<g id="a_node5"><a xlink:href="struct__qrbp___1_1__pid__omega___1_1controller__integrated__state__members.html" target="_top" xlink:title="Structure for the members that are mapped tot he rk4 vector after integration.">
<polygon fill="white" stroke="black" points="542.5,-139.5 542.5,-180.5 672.5,-180.5 672.5,-139.5 542.5,-139.5"/>
<text text-anchor="start" x="550.5" y="-168.5" font-family="Helvetica,sans-Serif" font-size="10.00">_qrbp_::_pid_omega</text>
<text text-anchor="start" x="550.5" y="-157.5" font-family="Helvetica,sans-Serif" font-size="10.00">_::controller_integrated</text>
<text text-anchor="middle" x="607.5" y="-146.5" font-family="Helvetica,sans-Serif" font-size="10.00">_state_members</text>
</a>
</g>
</g>
<!-- Node5&#45;&gt;Node1 -->
<g id="edge4" class="edge">
<title>Node5&#45;&gt;Node1</title>
<path fill="none" stroke="#9a32cd" stroke-dasharray="5,2" d="M682.94,-165.65C722.7,-168.41 772.49,-171.46 817,-173 883.18,-175.28 899.78,-173.78 966,-174 981.11,-174.05 984.89,-174.31 1000,-174 1005.78,-173.88 1011.82,-173.71 1017.85,-173.52"/>
<polygon fill="#9a32cd" stroke="#9a32cd" points="683.02,-162.14 672.79,-164.93 682.52,-169.13 683.02,-162.14"/>
<text text-anchor="middle" x="882.5" y="-177" font-family="Helvetica,sans-Serif" font-size="10.00"> csm</text>
</g>
<!-- Node17 -->
<g id="node17" class="node">
<title>Node17</title>
<g id="a_node17"><a xlink:href="class__qrbp___1_1__pid__omega___1_1pid__omega__logger.html" target="_top" xlink:title="PID_OMEGA logger class.">
<polygon fill="white" stroke="black" points="823.5,-73 823.5,-103 941.5,-103 941.5,-73 823.5,-73"/>
<text text-anchor="start" x="831.5" y="-91" font-family="Helvetica,sans-Serif" font-size="10.00">_qrbp_::_pid_omega</text>
<text text-anchor="middle" x="882.5" y="-80" font-family="Helvetica,sans-Serif" font-size="10.00">_::pid_omega_logger</text>
</a>
</g>
</g>
<!-- Node5&#45;&gt;Node17 -->
<g id="edge20" class="edge">
<title>Node5&#45;&gt;Node17</title>
<path fill="none" stroke="#9a32cd" stroke-dasharray="5,2" d="M682.43,-140.5C727.09,-128.72 783.15,-113.94 824.39,-103.06"/>
<polygon fill="#9a32cd" stroke="#9a32cd" points="681.28,-137.18 672.51,-143.12 683.07,-143.95 681.28,-137.18"/>
<text text-anchor="middle" x="746.5" y="-139" font-family="Helvetica,sans-Serif" font-size="10.00"> CSM</text>
</g>
<!-- Node6&#45;&gt;Node1 -->
<g id="edge5" class="edge">
<title>Node6&#45;&gt;Node1</title>
<path fill="none" stroke="#9a32cd" stroke-dasharray="5,2" d="M927.55,-256.33C964.83,-234.61 1017.01,-204.2 1047.98,-186.16"/>
<polygon fill="#9a32cd" stroke="#9a32cd" points="925.76,-253.32 918.89,-261.38 929.29,-259.37 925.76,-253.32"/>
<text text-anchor="middle" x="983" y="-236" font-family="Helvetica,sans-Serif" font-size="10.00"> ud</text>
</g>
<!-- Node7 -->
<g id="node7" class="node">
<title>Node7</title>
<g id="a_node7"><a xlink:href="class__user__defined__trajectory__base___1_1trajectory__base.html" target="_top" xlink:title="base trajectory for pixhawk">
<polygon fill="white" stroke="black" points="539,-266 539,-296 676,-296 676,-266 539,-266"/>
<text text-anchor="start" x="547" y="-284" font-family="Helvetica,sans-Serif" font-size="10.00">_user_defined_trajectory</text>
<text text-anchor="middle" x="607.5" y="-273" font-family="Helvetica,sans-Serif" font-size="10.00">_base_::trajectory_base</text>
</a>
</g>
</g>
<!-- Node7&#45;&gt;Node6 -->
<g id="edge6" class="edge">
<title>Node7&#45;&gt;Node6</title>
<path fill="none" stroke="midnightblue" d="M686.29,-279.1C688.89,-279.06 691.47,-279.03 694,-279 740.66,-278.45 752.34,-278.15 799,-279 804.73,-279.1 810.69,-279.25 816.66,-279.42"/>
<polygon fill="midnightblue" stroke="midnightblue" points="686.11,-275.61 676.17,-279.27 686.23,-282.6 686.11,-275.61"/>
</g>
<!-- Node8 -->
<g id="node8" class="node">
<title>Node8</title>
<g id="a_node8"><a xlink:title=" ">
<polygon fill="white" stroke="#bfbfbf" points="301,-232.5 301,-251.5 360,-251.5 360,-232.5 301,-232.5"/>
<text text-anchor="middle" x="330.5" y="-239.5" font-family="Helvetica,sans-Serif" font-size="10.00">Vector3d</text>
</a>
</g>
</g>
<!-- Node8&#45;&gt;Node6 -->
<g id="edge9" class="edge">
<title>Node8&#45;&gt;Node6</title>
<path fill="none" stroke="#9a32cd" stroke-dasharray="5,2" d="M370.23,-237.88C434.15,-231.84 565.63,-222.54 676,-235 723.82,-240.4 776.74,-252.65 816.9,-263.29"/>
<polygon fill="#9a32cd" stroke="#9a32cd" points="369.82,-234.41 360.2,-238.86 370.49,-241.37 369.82,-234.41"/>
<text text-anchor="start" x="552.5" y="-249" font-family="Helvetica,sans-Serif" font-size="10.00"> user_defined_position</text>
<text text-anchor="middle" x="607.5" y="-238" font-family="Helvetica,sans-Serif" font-size="10.00">_previous_</text>
</g>
<!-- Node8&#45;&gt;Node7 -->
<g id="edge7" class="edge">
<title>Node8&#45;&gt;Node7</title>
<path fill="none" stroke="#9a32cd" stroke-dasharray="5,2" d="M370.09,-247.47C413.77,-253.67 485.75,-263.88 538.83,-271.4"/>
<polygon fill="#9a32cd" stroke="#9a32cd" points="370.54,-244 360.15,-246.06 369.56,-250.93 370.54,-244"/>
<text text-anchor="middle" x="481.5" y="-359" font-family="Helvetica,sans-Serif" font-size="10.00"> ud_acc</text>
<text text-anchor="middle" x="481.5" y="-348" font-family="Helvetica,sans-Serif" font-size="10.00">ud_angle</text>
<text text-anchor="middle" x="481.5" y="-337" font-family="Helvetica,sans-Serif" font-size="10.00">ud_angular_acc</text>
<text text-anchor="middle" x="481.5" y="-326" font-family="Helvetica,sans-Serif" font-size="10.00">ud_angular_rate</text>
<text text-anchor="start" x="442" y="-315" font-family="Helvetica,sans-Serif" font-size="10.00">ud_angular_rate</text>
<text text-anchor="middle" x="481.5" y="-304" font-family="Helvetica,sans-Serif" font-size="10.00">_dot</text>
<text text-anchor="middle" x="481.5" y="-293" font-family="Helvetica,sans-Serif" font-size="10.00">ud_angular_vel</text>
<text text-anchor="middle" x="481.5" y="-282" font-family="Helvetica,sans-Serif" font-size="10.00">ud_pos</text>
<text text-anchor="middle" x="481.5" y="-271" font-family="Helvetica,sans-Serif" font-size="10.00">ud_vel</text>
</g>
<!-- Node9 -->
<g id="node9" class="node">
<title>Node9</title>
<g id="a_node9"><a xlink:title=" ">
<polygon fill="white" stroke="#bfbfbf" points="577.5,-509.5 577.5,-528.5 637.5,-528.5 637.5,-509.5 577.5,-509.5"/>
<text text-anchor="middle" x="607.5" y="-516.5" font-family="Helvetica,sans-Serif" font-size="10.00">VectorXd</text>
</a>
</g>
</g>
<!-- Node9&#45;&gt;Node6 -->
<g id="edge8" class="edge">
<title>Node9&#45;&gt;Node6</title>
<path fill="none" stroke="#9a32cd" stroke-dasharray="5,2" d="M647.78,-519.14C696.56,-518.52 776.15,-514.73 799,-497 803.08,-493.84 854.26,-355.88 873.9,-302.65"/>
<polygon fill="#9a32cd" stroke="#9a32cd" points="647.54,-515.64 637.57,-519.22 647.6,-522.64 647.54,-515.64"/>
<text text-anchor="start" x="694" y="-575" font-family="Helvetica,sans-Serif" font-size="10.00"> landing_acceleration</text>
<text text-anchor="middle" x="746.5" y="-564" font-family="Helvetica,sans-Serif" font-size="10.00">_coef_z_</text>
<text text-anchor="start" x="694" y="-553" font-family="Helvetica,sans-Serif" font-size="10.00">landing_position</text>
<text text-anchor="middle" x="746.5" y="-542" font-family="Helvetica,sans-Serif" font-size="10.00">_coef_z_</text>
<text text-anchor="start" x="694" y="-531" font-family="Helvetica,sans-Serif" font-size="10.00">landing_velocity</text>
<text text-anchor="middle" x="746.5" y="-520" font-family="Helvetica,sans-Serif" font-size="10.00">_coef_z_</text>
</g>
<!-- Node10 -->
<g id="node10" class="node">
<title>Node10</title>
<g id="a_node10"><a xlink:title=" ">
<polygon fill="white" stroke="#bfbfbf" points="577,-315.5 577,-334.5 638,-334.5 638,-315.5 577,-315.5"/>
<text text-anchor="middle" x="607.5" y="-322.5" font-family="Helvetica,sans-Serif" font-size="10.00">MatrixXd</text>
</a>
</g>
</g>
<!-- Node10&#45;&gt;Node6 -->
<g id="edge10" class="edge">
<title>Node10&#45;&gt;Node6</title>
<path fill="none" stroke="#9a32cd" stroke-dasharray="5,2" d="M648.01,-314.57C657.25,-311.94 667.01,-309 676,-306 684.14,-303.28 685.64,-300.96 694,-299 734.09,-289.58 780.14,-285.32 816.57,-283.42"/>
<polygon fill="#9a32cd" stroke="#9a32cd" points="646.95,-311.23 638.26,-317.29 648.83,-317.97 646.95,-311.23"/>
<text text-anchor="start" x="696" y="-489" font-family="Helvetica,sans-Serif" font-size="10.00"> acceleration_coef_x</text>
<text text-anchor="middle" x="746.5" y="-478" font-family="Helvetica,sans-Serif" font-size="10.00">_</text>
<text text-anchor="start" x="696" y="-467" font-family="Helvetica,sans-Serif" font-size="10.00">acceleration_coef</text>
<text text-anchor="middle" x="746.5" y="-456" font-family="Helvetica,sans-Serif" font-size="10.00">_y_</text>
<text text-anchor="start" x="696" y="-445" font-family="Helvetica,sans-Serif" font-size="10.00">acceleration_coef</text>
<text text-anchor="middle" x="746.5" y="-434" font-family="Helvetica,sans-Serif" font-size="10.00">_z_</text>
<text text-anchor="middle" x="746.5" y="-423" font-family="Helvetica,sans-Serif" font-size="10.00">jerk_coef_x_</text>
<text text-anchor="middle" x="746.5" y="-412" font-family="Helvetica,sans-Serif" font-size="10.00">jerk_coef_y_</text>
<text text-anchor="middle" x="746.5" y="-401" font-family="Helvetica,sans-Serif" font-size="10.00">jerk_coef_z_</text>
<text text-anchor="start" x="696" y="-390" font-family="Helvetica,sans-Serif" font-size="10.00">position_coef</text>
<text text-anchor="middle" x="746.5" y="-379" font-family="Helvetica,sans-Serif" font-size="10.00">_x_</text>
<text text-anchor="start" x="696" y="-368" font-family="Helvetica,sans-Serif" font-size="10.00">position_coef</text>
<text text-anchor="middle" x="746.5" y="-357" font-family="Helvetica,sans-Serif" font-size="10.00">_y_</text>
<text text-anchor="start" x="696" y="-346" font-family="Helvetica,sans-Serif" font-size="10.00">position_coef</text>
<text text-anchor="middle" x="746.5" y="-335" font-family="Helvetica,sans-Serif" font-size="10.00">_z_</text>
<text text-anchor="start" x="696" y="-324" font-family="Helvetica,sans-Serif" font-size="10.00">velocity_coef</text>
<text text-anchor="middle" x="746.5" y="-313" font-family="Helvetica,sans-Serif" font-size="10.00">_x_</text>
<text text-anchor="middle" x="746.5" y="-302" font-family="Helvetica,sans-Serif" font-size="10.00">...</text>
</g>
<!-- Node11 -->
<g id="node11" class="node">
<title>Node11</title>
<g id="a_node11"><a xlink:href="struct__qrbp___1_1__pid__omega___1_1controller__internal__parameters.html" target="_top" xlink:title="Structure for all parameter members of the controller.">
<polygon fill="white" stroke="black" points="824,-122.5 824,-163.5 941,-163.5 941,-122.5 824,-122.5"/>
<text text-anchor="start" x="832" y="-151.5" font-family="Helvetica,sans-Serif" font-size="10.00">_qrbp_::_pid_omega</text>
<text text-anchor="start" x="832" y="-140.5" font-family="Helvetica,sans-Serif" font-size="10.00">_::controller_internal</text>
<text text-anchor="middle" x="882.5" y="-129.5" font-family="Helvetica,sans-Serif" font-size="10.00">_parameters</text>
</a>
</g>
</g>
<!-- Node11&#45;&gt;Node1 -->
<g id="edge12" class="edge">
<title>Node11&#45;&gt;Node1</title>
<path fill="none" stroke="#9a32cd" stroke-dasharray="5,2" d="M951.34,-152.97C973.12,-156.17 996.99,-159.68 1017.83,-162.74"/>
<polygon fill="#9a32cd" stroke="#9a32cd" points="951.58,-149.47 941.17,-151.48 950.56,-156.39 951.58,-149.47"/>
<text text-anchor="middle" x="983" y="-162" font-family="Helvetica,sans-Serif" font-size="10.00"> cip</text>
</g>
<!-- Node12 -->
<g id="node12" class="node">
<title>Node12</title>
<g id="a_node12"><a xlink:href="struct__qrbp___1_1__pid__omega___1_1controller__internal__members.html" target="_top" xlink:title="Structure for the internal members of the controller.">
<polygon fill="white" stroke="black" points="549,-27.5 549,-68.5 666,-68.5 666,-27.5 549,-27.5"/>
<text text-anchor="start" x="557" y="-56.5" font-family="Helvetica,sans-Serif" font-size="10.00">_qrbp_::_pid_omega</text>
<text text-anchor="start" x="557" y="-45.5" font-family="Helvetica,sans-Serif" font-size="10.00">_::controller_internal</text>
<text text-anchor="middle" x="607.5" y="-34.5" font-family="Helvetica,sans-Serif" font-size="10.00">_members</text>
</a>
</g>
</g>
<!-- Node12&#45;&gt;Node1 -->
<g id="edge13" class="edge">
<title>Node12&#45;&gt;Node1</title>
<path fill="none" stroke="#9a32cd" stroke-dasharray="5,2" d="M676.35,-35.07C746.97,-24.75 859.43,-17.25 948,-53 1000.8,-74.32 1044.63,-128.99 1063.72,-155.77"/>
<polygon fill="#9a32cd" stroke="#9a32cd" points="675.6,-31.65 666.24,-36.61 676.65,-38.57 675.6,-31.65"/>
<text text-anchor="middle" x="882.5" y="-56" font-family="Helvetica,sans-Serif" font-size="10.00"> cim</text>
</g>
<!-- Node12&#45;&gt;Node17 -->
<g id="edge21" class="edge">
<title>Node12&#45;&gt;Node17</title>
<path fill="none" stroke="#9a32cd" stroke-dasharray="5,2" d="M676.06,-57.9C721.19,-64.51 779.96,-73.12 823.08,-79.44"/>
<polygon fill="#9a32cd" stroke="#9a32cd" points="676.46,-54.42 666.06,-56.43 675.45,-61.35 676.46,-54.42"/>
<text text-anchor="middle" x="746.5" y="-78" font-family="Helvetica,sans-Serif" font-size="10.00"> CIM</text>
</g>
<!-- Node13 -->
<g id="node13" class="node">
<title>Node13</title>
<g id="a_node13"><a xlink:href="struct__qrbp___1_1__pid__omega___1_1controller__internal__members__aero.html" target="_top" xlink:title="Structure for all the aerodynamic members of the controller.">
<polygon fill="white" stroke="black" points="272,-27.5 272,-68.5 389,-68.5 389,-27.5 272,-27.5"/>
<text text-anchor="start" x="280" y="-56.5" font-family="Helvetica,sans-Serif" font-size="10.00">_qrbp_::_pid_omega</text>
<text text-anchor="start" x="280" y="-45.5" font-family="Helvetica,sans-Serif" font-size="10.00">_::controller_internal</text>
<text text-anchor="middle" x="330.5" y="-34.5" font-family="Helvetica,sans-Serif" font-size="10.00">_members_aero</text>
</a>
</g>
</g>
<!-- Node13&#45;&gt;Node12 -->
<g id="edge14" class="edge">
<title>Node13&#45;&gt;Node12</title>
<path fill="none" stroke="#9a32cd" stroke-dasharray="5,2" d="M399.32,-48C445.26,-48 505.31,-48 548.93,-48"/>
<polygon fill="#9a32cd" stroke="#9a32cd" points="399.15,-44.5 389.15,-48 399.15,-51.5 399.15,-44.5"/>
<text text-anchor="middle" x="481.5" y="-51" font-family="Helvetica,sans-Serif" font-size="10.00"> aero</text>
</g>
<!-- Node14 -->
<g id="node14" class="node">
<title>Node14</title>
<g id="a_node14"><a xlink:href="struct__qrbp___1_1AeroStates.html" target="_top" xlink:title="Angles for the wings and stabilizers.">
<polygon fill="white" stroke="black" points="29.5,-76.5 29.5,-95.5 137.5,-95.5 137.5,-76.5 29.5,-76.5"/>
<text text-anchor="middle" x="83.5" y="-83.5" font-family="Helvetica,sans-Serif" font-size="10.00">_qrbp_::AeroStates</text>
</a>
</g>
</g>
<!-- Node14&#45;&gt;Node13 -->
<g id="edge15" class="edge">
<title>Node14&#45;&gt;Node13</title>
<path fill="none" stroke="#9a32cd" stroke-dasharray="5,2" d="M147.67,-76.2C185.96,-70.26 234.46,-62.74 271.74,-56.96"/>
<polygon fill="#9a32cd" stroke="#9a32cd" points="147.01,-72.76 137.66,-77.75 148.08,-79.68 147.01,-72.76"/>
<text text-anchor="middle" x="202" y="-74" font-family="Helvetica,sans-Serif" font-size="10.00"> states</text>
</g>
<!-- Node15 -->
<g id="node15" class="node">
<title>Node15</title>
<g id="a_node15"><a xlink:href="struct__qrbp___1_1AeroCoeff.html" target="_top" xlink:title="Aerodynamic coefficients for the QRBP.">
<polygon fill="white" stroke="black" points="32,-38.5 32,-57.5 135,-57.5 135,-38.5 32,-38.5"/>
<text text-anchor="middle" x="83.5" y="-45.5" font-family="Helvetica,sans-Serif" font-size="10.00">_qrbp_::AeroCoeff</text>
</a>
</g>
</g>
<!-- Node15&#45;&gt;Node13 -->
<g id="edge16" class="edge">
<title>Node15&#45;&gt;Node13</title>
<path fill="none" stroke="#9a32cd" stroke-dasharray="5,2" d="M145.36,-48C184.07,-48 233.88,-48 271.93,-48"/>
<polygon fill="#9a32cd" stroke="#9a32cd" points="145.26,-44.5 135.26,-48 145.26,-51.5 145.26,-44.5"/>
<text text-anchor="middle" x="202" y="-51" font-family="Helvetica,sans-Serif" font-size="10.00"> coeff</text>
</g>
<!-- Node16 -->
<g id="node16" class="node">
<title>Node16</title>
<g id="a_node16"><a xlink:href="struct__qrbp___1_1AeroDynamicMembers.html" target="_top" xlink:title="Structre for all the aerodynamic members of the controller.">
<polygon fill="white" stroke="black" points="0,-0.5 0,-19.5 167,-19.5 167,-0.5 0,-0.5"/>
<text text-anchor="middle" x="83.5" y="-7.5" font-family="Helvetica,sans-Serif" font-size="10.00">_qrbp_::AeroDynamicMembers</text>
</a>
</g>
</g>
<!-- Node16&#45;&gt;Node13 -->
<g id="edge17" class="edge">
<title>Node16&#45;&gt;Node13</title>
<path fill="none" stroke="#9a32cd" stroke-dasharray="5,2" d="M156.17,-21.12C192.96,-26.82 237.19,-33.68 271.76,-39.04"/>
<polygon fill="#9a32cd" stroke="#9a32cd" points="156.43,-17.61 146.01,-19.54 155.35,-24.53 156.43,-17.61"/>
<text text-anchor="middle" x="202" y="-34" font-family="Helvetica,sans-Serif" font-size="10.00"> dyn</text>
</g>
<!-- Node17&#45;&gt;Node1 -->
<g id="edge18" class="edge">
<title>Node17&#45;&gt;Node1</title>
<path fill="none" stroke="#9a32cd" stroke-dasharray="5,2" d="M933.18,-106.9C938.21,-108.92 943.22,-110.97 948,-113 980.6,-126.8 1017.3,-143.88 1042.65,-155.92"/>
<polygon fill="#9a32cd" stroke="#9a32cd" points="934.15,-103.52 923.57,-103.09 931.57,-110.03 934.15,-103.52"/>
<text text-anchor="middle" x="983" y="-137" font-family="Helvetica,sans-Serif" font-size="10.00"> logger</text>
</g>
<!-- Node18 -->
<g id="node18" class="node">
<title>Node18</title>
<g id="a_node18"><a xlink:href="class__flight__log___1_1blackbox.html" target="_top" xlink:title=" ">
<polygon fill="white" stroke="black" points="546.5,-92.5 546.5,-111.5 668.5,-111.5 668.5,-92.5 546.5,-92.5"/>
<text text-anchor="middle" x="607.5" y="-99.5" font-family="Helvetica,sans-Serif" font-size="10.00">_flight_log_::blackbox</text>
</a>
</g>
</g>
<!-- Node18&#45;&gt;Node17 -->
<g id="edge19" class="edge">
<title>Node18&#45;&gt;Node17</title>
<path fill="none" stroke="midnightblue" d="M678.98,-98.39C723.77,-96.09 781.07,-93.15 823.28,-90.99"/>
<polygon fill="midnightblue" stroke="midnightblue" points="678.56,-94.9 668.75,-98.91 678.92,-101.89 678.56,-94.9"/>
</g>
</g>
</svg>
