<?xml version="1.0" encoding="UTF-8" standalone="no"?>
<!DOCTYPE svg PUBLIC "-//W3C//DTD SVG 1.1//EN"
 "http://www.w3.org/Graphics/SVG/1.1/DTD/svg11.dtd">
<!-- Generated by graphviz version 2.43.0 (0)
 -->
<!-- Title: _control_::controlNode Pages: 1 -->
<svg width="1415pt" height="672pt"
 viewBox="0.00 0.00 1415.00 672.00" xmlns="http://www.w3.org/2000/svg" xmlns:xlink="http://www.w3.org/1999/xlink">
<g id="graph0" class="graph" transform="scale(1 1) rotate(0) translate(4 668)">
<title>_control_::controlNode</title>
<polygon fill="white" stroke="transparent" points="-4,4 -4,-668 1411,-668 1411,4 -4,4"/>
<!-- Node1 -->
<g id="node1" class="node">
<title>Node1</title>
<g id="a_node1"><a xlink:title=" ">
<polygon fill="#bfbfbf" stroke="black" points="1281,-558.5 1281,-577.5 1407,-577.5 1407,-558.5 1281,-558.5"/>
<text text-anchor="middle" x="1344" y="-565.5" font-family="Helvetica,sans-Serif" font-size="10.00">_control_::controlNode</text>
</a>
</g>
</g>
<!-- Node2 -->
<g id="node2" class="node">
<title>Node2</title>
<g id="a_node2"><a xlink:title=" ">
<polygon fill="white" stroke="#bfbfbf" points="1091.5,-644.5 1091.5,-663.5 1168.5,-663.5 1168.5,-644.5 1091.5,-644.5"/>
<text text-anchor="middle" x="1130" y="-651.5" font-family="Helvetica,sans-Serif" font-size="10.00">rclcpp::Node</text>
</a>
</g>
</g>
<!-- Node2&#45;&gt;Node1 -->
<g id="edge1" class="edge">
<title>Node2&#45;&gt;Node1</title>
<path fill="none" stroke="midnightblue" d="M1178.48,-650.89C1204.36,-647.85 1236.43,-641.85 1263,-630 1291.89,-617.12 1319.7,-591.7 1333.67,-577.74"/>
<polygon fill="midnightblue" stroke="midnightblue" points="1178.11,-647.41 1168.53,-651.95 1178.85,-654.37 1178.11,-647.41"/>
</g>
<!-- Node3 -->
<g id="node3" class="node">
<title>Node3</title>
<g id="a_node3"><a xlink:href="class__qrbp___1_1__pid__omega___1_1pid__omega.html" target="_top" xlink:title="public controller_base">
<polygon fill="white" stroke="black" points="1073,-479 1073,-509 1187,-509 1187,-479 1073,-479"/>
<text text-anchor="start" x="1081" y="-497" font-family="Helvetica,sans-Serif" font-size="10.00">_qrbp_::_pid_omega</text>
<text text-anchor="middle" x="1130" y="-486" font-family="Helvetica,sans-Serif" font-size="10.00">_::pid_omega</text>
</a>
</g>
</g>
<!-- Node3&#45;&gt;Node1 -->
<g id="edge2" class="edge">
<title>Node3&#45;&gt;Node1</title>
<path fill="none" stroke="#9a32cd" stroke-dasharray="5,2" d="M1183.65,-512.38C1225.54,-527 1282.46,-546.87 1315.71,-558.48"/>
<polygon fill="#9a32cd" stroke="#9a32cd" points="1184.75,-509.06 1174.16,-509.06 1182.44,-515.66 1184.75,-509.06"/>
<text text-anchor="middle" x="1234" y="-543" font-family="Helvetica,sans-Serif" font-size="10.00"> controller_</text>
</g>
<!-- Node4 -->
<g id="node4" class="node">
<title>Node4</title>
<g id="a_node4"><a xlink:href="class__control__algorithm__base___1_1controller__base.html" target="_top" xlink:title="controller_base definition">
<polygon fill="white" stroke="black" points="817,-557 817,-587 948,-587 948,-557 817,-557"/>
<text text-anchor="start" x="825" y="-575" font-family="Helvetica,sans-Serif" font-size="10.00">_control_algorithm</text>
<text text-anchor="middle" x="882.5" y="-564" font-family="Helvetica,sans-Serif" font-size="10.00">_base_::controller_base</text>
</a>
</g>
</g>
<!-- Node4&#45;&gt;Node3 -->
<g id="edge3" class="edge">
<title>Node4&#45;&gt;Node3</title>
<path fill="none" stroke="midnightblue" d="M953.48,-554.32C984.78,-545.93 1022,-535.27 1055,-524 1067.99,-519.57 1082,-514.07 1094.3,-509.01"/>
<polygon fill="midnightblue" stroke="midnightblue" points="952.3,-551.01 943.53,-556.97 954.1,-557.78 952.3,-551.01"/>
</g>
<!-- Node5 -->
<g id="node5" class="node">
<title>Node5</title>
<g id="a_node5"><a xlink:href="structflight__params.html" target="_top" xlink:title=" ">
<polygon fill="white" stroke="black" points="566,-580.5 566,-599.5 649,-599.5 649,-580.5 566,-580.5"/>
<text text-anchor="middle" x="607.5" y="-587.5" font-family="Helvetica,sans-Serif" font-size="10.00">flight_params</text>
</a>
</g>
</g>
<!-- Node5&#45;&gt;Node1 -->
<g id="edge25" class="edge">
<title>Node5&#45;&gt;Node1</title>
<path fill="none" stroke="#9a32cd" stroke-dasharray="5,2" d="M659.49,-596.95C670.83,-598.22 682.81,-599.35 694,-600 740.59,-602.72 752.34,-600.63 799,-600 865.24,-599.11 881.83,-599.23 948,-596 1065.76,-590.25 1203.02,-579.64 1280.79,-573.26"/>
<polygon fill="#9a32cd" stroke="#9a32cd" points="659.64,-593.44 649.3,-595.75 658.82,-600.39 659.64,-593.44"/>
<text text-anchor="middle" x="1010.5" y="-598" font-family="Helvetica,sans-Serif" font-size="10.00"> flight_params_ptr</text>
</g>
<!-- Node5&#45;&gt;Node4 -->
<g id="edge4" class="edge">
<title>Node5&#45;&gt;Node4</title>
<path fill="none" stroke="#9a32cd" stroke-dasharray="5,2" d="M659.08,-586.66C703.57,-583.73 768.57,-579.45 816.83,-576.26"/>
<polygon fill="#9a32cd" stroke="#9a32cd" points="658.82,-583.17 649.08,-587.32 659.28,-590.16 658.82,-583.17"/>
<text text-anchor="middle" x="746.5" y="-588" font-family="Helvetica,sans-Serif" font-size="10.00"> flight_params_ptr</text>
</g>
<!-- Node8 -->
<g id="node8" class="node">
<title>Node8</title>
<g id="a_node8"><a xlink:href="class__piecewise__polynomial__trajectory___1_1piecewise__polynomial__trajectory.html" target="_top" xlink:title="Piecwise polynomial trajectory.">
<polygon fill="white" stroke="black" points="817,-436.5 817,-477.5 948,-477.5 948,-436.5 817,-436.5"/>
<text text-anchor="start" x="825" y="-465.5" font-family="Helvetica,sans-Serif" font-size="10.00">_piecewise_polynomial</text>
<text text-anchor="start" x="825" y="-454.5" font-family="Helvetica,sans-Serif" font-size="10.00">_trajectory_::piecewise</text>
<text text-anchor="middle" x="882.5" y="-443.5" font-family="Helvetica,sans-Serif" font-size="10.00">_polynomial_trajectory</text>
</a>
</g>
</g>
<!-- Node5&#45;&gt;Node8 -->
<g id="edge13" class="edge">
<title>Node5&#45;&gt;Node8</title>
<path fill="none" stroke="#9a32cd" stroke-dasharray="5,2" d="M647.41,-577.38C661.99,-572.74 678.72,-567.52 694,-563 740.42,-549.26 763.16,-566.55 799,-534 815.56,-518.96 801.74,-503.36 817,-487 820.29,-483.48 824.07,-480.33 828.12,-477.53"/>
<polygon fill="#9a32cd" stroke="#9a32cd" points="646.16,-574.11 637.7,-580.49 648.29,-580.78 646.16,-574.11"/>
<text text-anchor="middle" x="746.5" y="-566" font-family="Helvetica,sans-Serif" font-size="10.00"> flight_params_ptr</text>
</g>
<!-- Node6 -->
<g id="node6" class="node">
<title>Node6</title>
<g id="a_node6"><a xlink:href="structPiecewisePolynomialTrajectoryInfo.html" target="_top" xlink:title=" ">
<polygon fill="white" stroke="black" points="237,-580.5 237,-599.5 424,-599.5 424,-580.5 237,-580.5"/>
<text text-anchor="middle" x="330.5" y="-587.5" font-family="Helvetica,sans-Serif" font-size="10.00">PiecewisePolynomialTrajectoryInfo</text>
</a>
</g>
</g>
<!-- Node6&#45;&gt;Node5 -->
<g id="edge5" class="edge">
<title>Node6&#45;&gt;Node5</title>
<path fill="none" stroke="#9a32cd" stroke-dasharray="5,2" d="M434.5,-590C480.24,-590 531.43,-590 565.98,-590"/>
<polygon fill="#9a32cd" stroke="#9a32cd" points="434.22,-586.5 424.22,-590 434.22,-593.5 434.22,-586.5"/>
<text text-anchor="middle" x="481.5" y="-593" font-family="Helvetica,sans-Serif" font-size="10.00"> traj_params</text>
</g>
<!-- Node7 -->
<g id="node7" class="node">
<title>Node7</title>
<g id="a_node7"><a xlink:href="struct__qrbp___1_1__pid__omega___1_1controller__integrated__state__members.html" target="_top" xlink:title="Structure for the members that are mapped tot he rk4 vector after integration.">
<polygon fill="white" stroke="black" points="542.5,-130.5 542.5,-171.5 672.5,-171.5 672.5,-130.5 542.5,-130.5"/>
<text text-anchor="start" x="550.5" y="-159.5" font-family="Helvetica,sans-Serif" font-size="10.00">_qrbp_::_pid_omega</text>
<text text-anchor="start" x="550.5" y="-148.5" font-family="Helvetica,sans-Serif" font-size="10.00">_::controller_integrated</text>
<text text-anchor="middle" x="607.5" y="-137.5" font-family="Helvetica,sans-Serif" font-size="10.00">_state_members</text>
</a>
</g>
</g>
<!-- Node7&#45;&gt;Node3 -->
<g id="edge6" class="edge">
<title>Node7&#45;&gt;Node3</title>
<path fill="none" stroke="#9a32cd" stroke-dasharray="5,2" d="M682.77,-149.68C719.51,-151.8 763.48,-158.67 799,-177 957.15,-258.62 928.01,-365.81 1073,-469 1078.2,-472.7 1084.05,-476.05 1089.94,-478.99"/>
<polygon fill="#9a32cd" stroke="#9a32cd" points="682.76,-146.17 672.61,-149.2 682.43,-153.17 682.76,-146.17"/>
<text text-anchor="middle" x="882.5" y="-328" font-family="Helvetica,sans-Serif" font-size="10.00"> csm</text>
</g>
<!-- Node19 -->
<g id="node19" class="node">
<title>Node19</title>
<g id="a_node19"><a xlink:href="class__qrbp___1_1__pid__omega___1_1pid__omega__logger.html" target="_top" xlink:title="PID_OMEGA logger class.">
<polygon fill="white" stroke="black" points="823.5,-93 823.5,-123 941.5,-123 941.5,-93 823.5,-93"/>
<text text-anchor="start" x="831.5" y="-111" font-family="Helvetica,sans-Serif" font-size="10.00">_qrbp_::_pid_omega</text>
<text text-anchor="middle" x="882.5" y="-100" font-family="Helvetica,sans-Serif" font-size="10.00">_::pid_omega_logger</text>
</a>
</g>
</g>
<!-- Node7&#45;&gt;Node19 -->
<g id="edge22" class="edge">
<title>Node7&#45;&gt;Node19</title>
<path fill="none" stroke="#9a32cd" stroke-dasharray="5,2" d="M682.64,-139.32C726.94,-132.35 782.39,-123.61 823.48,-117.14"/>
<polygon fill="#9a32cd" stroke="#9a32cd" points="681.84,-135.91 672.51,-140.92 682.93,-142.82 681.84,-135.91"/>
<text text-anchor="middle" x="746.5" y="-141" font-family="Helvetica,sans-Serif" font-size="10.00"> CSM</text>
</g>
<!-- Node8&#45;&gt;Node3 -->
<g id="edge7" class="edge">
<title>Node8&#45;&gt;Node3</title>
<path fill="none" stroke="#9a32cd" stroke-dasharray="5,2" d="M958.21,-468.26C995.1,-473.82 1038.86,-480.42 1072.86,-485.54"/>
<polygon fill="#9a32cd" stroke="#9a32cd" points="958.41,-464.75 948,-466.72 957.37,-471.67 958.41,-464.75"/>
<text text-anchor="middle" x="1010.5" y="-486" font-family="Helvetica,sans-Serif" font-size="10.00"> ud</text>
</g>
<!-- Node9 -->
<g id="node9" class="node">
<title>Node9</title>
<g id="a_node9"><a xlink:href="class__user__defined__trajectory__base___1_1trajectory__base.html" target="_top" xlink:title="base trajectory for pixhawk">
<polygon fill="white" stroke="black" points="539,-451 539,-481 676,-481 676,-451 539,-451"/>
<text text-anchor="start" x="547" y="-469" font-family="Helvetica,sans-Serif" font-size="10.00">_user_defined_trajectory</text>
<text text-anchor="middle" x="607.5" y="-458" font-family="Helvetica,sans-Serif" font-size="10.00">_base_::trajectory_base</text>
</a>
</g>
</g>
<!-- Node9&#45;&gt;Node8 -->
<g id="edge8" class="edge">
<title>Node9&#45;&gt;Node8</title>
<path fill="none" stroke="midnightblue" d="M682.76,-482.6C686.55,-483.14 690.31,-483.62 694,-484 740.42,-488.83 752.92,-491.35 799,-484 808.08,-482.55 817.51,-480.26 826.62,-477.61"/>
<polygon fill="midnightblue" stroke="midnightblue" points="683.12,-479.11 672.7,-481.01 682.03,-486.02 683.12,-479.11"/>
</g>
<!-- Node10 -->
<g id="node10" class="node">
<title>Node10</title>
<g id="a_node10"><a xlink:title=" ">
<polygon fill="white" stroke="#bfbfbf" points="301,-456.5 301,-475.5 360,-475.5 360,-456.5 301,-456.5"/>
<text text-anchor="middle" x="330.5" y="-463.5" font-family="Helvetica,sans-Serif" font-size="10.00">Vector3d</text>
</a>
</g>
</g>
<!-- Node10&#45;&gt;Node8 -->
<g id="edge11" class="edge">
<title>Node10&#45;&gt;Node8</title>
<path fill="none" stroke="#9a32cd" stroke-dasharray="5,2" d="M359.05,-480.04C380.9,-490.34 412.57,-503.48 442,-509 522.73,-524.15 683,-542.67 799,-501 808.54,-497.57 808.35,-492.28 817,-487 822.38,-483.72 828.17,-480.55 834,-477.59"/>
<polygon fill="#9a32cd" stroke="#9a32cd" points="360.56,-476.88 350.03,-475.68 357.51,-483.18 360.56,-476.88"/>
<text text-anchor="start" x="552.5" y="-541" font-family="Helvetica,sans-Serif" font-size="10.00"> user_defined_position</text>
<text text-anchor="middle" x="607.5" y="-530" font-family="Helvetica,sans-Serif" font-size="10.00">_previous_</text>
</g>
<!-- Node10&#45;&gt;Node9 -->
<g id="edge9" class="edge">
<title>Node10&#45;&gt;Node9</title>
<path fill="none" stroke="#9a32cd" stroke-dasharray="5,2" d="M353.71,-450.77C375.2,-437.04 409.24,-417.83 442,-410 476.15,-401.84 489.9,-393.7 521,-410 533.45,-416.52 528.18,-427.03 539,-436 546.11,-441.89 554.56,-446.84 563.04,-450.91"/>
<polygon fill="#9a32cd" stroke="#9a32cd" points="351.76,-447.87 345.31,-456.28 355.6,-453.73 351.76,-447.87"/>
<text text-anchor="middle" x="481.5" y="-501" font-family="Helvetica,sans-Serif" font-size="10.00"> ud_acc</text>
<text text-anchor="middle" x="481.5" y="-490" font-family="Helvetica,sans-Serif" font-size="10.00">ud_angle</text>
<text text-anchor="middle" x="481.5" y="-479" font-family="Helvetica,sans-Serif" font-size="10.00">ud_angular_acc</text>
<text text-anchor="middle" x="481.5" y="-468" font-family="Helvetica,sans-Serif" font-size="10.00">ud_angular_rate</text>
<text text-anchor="start" x="442" y="-457" font-family="Helvetica,sans-Serif" font-size="10.00">ud_angular_rate</text>
<text text-anchor="middle" x="481.5" y="-446" font-family="Helvetica,sans-Serif" font-size="10.00">_dot</text>
<text text-anchor="middle" x="481.5" y="-435" font-family="Helvetica,sans-Serif" font-size="10.00">ud_angular_vel</text>
<text text-anchor="middle" x="481.5" y="-424" font-family="Helvetica,sans-Serif" font-size="10.00">ud_pos</text>
<text text-anchor="middle" x="481.5" y="-413" font-family="Helvetica,sans-Serif" font-size="10.00">ud_vel</text>
</g>
<!-- Node11 -->
<g id="node11" class="node">
<title>Node11</title>
<g id="a_node11"><a xlink:title=" ">
<polygon fill="white" stroke="#bfbfbf" points="577.5,-407.5 577.5,-426.5 637.5,-426.5 637.5,-407.5 577.5,-407.5"/>
<text text-anchor="middle" x="607.5" y="-414.5" font-family="Helvetica,sans-Serif" font-size="10.00">VectorXd</text>
</a>
</g>
</g>
<!-- Node11&#45;&gt;Node8 -->
<g id="edge10" class="edge">
<title>Node11&#45;&gt;Node8</title>
<path fill="none" stroke="#9a32cd" stroke-dasharray="5,2" d="M648.12,-410.61C687.12,-405.65 748.05,-401.52 799,-414 817.2,-418.46 835.84,-427.7 850.79,-436.49"/>
<polygon fill="#9a32cd" stroke="#9a32cd" points="647.18,-407.2 637.73,-412.01 648.11,-414.14 647.18,-407.2"/>
<text text-anchor="start" x="694" y="-472" font-family="Helvetica,sans-Serif" font-size="10.00"> landing_acceleration</text>
<text text-anchor="middle" x="746.5" y="-461" font-family="Helvetica,sans-Serif" font-size="10.00">_coef_z_</text>
<text text-anchor="start" x="694" y="-450" font-family="Helvetica,sans-Serif" font-size="10.00">landing_position</text>
<text text-anchor="middle" x="746.5" y="-439" font-family="Helvetica,sans-Serif" font-size="10.00">_coef_z_</text>
<text text-anchor="start" x="694" y="-428" font-family="Helvetica,sans-Serif" font-size="10.00">landing_velocity</text>
<text text-anchor="middle" x="746.5" y="-417" font-family="Helvetica,sans-Serif" font-size="10.00">_coef_z_</text>
</g>
<!-- Node12 -->
<g id="node12" class="node">
<title>Node12</title>
<g id="a_node12"><a xlink:title=" ">
<polygon fill="white" stroke="#bfbfbf" points="577,-190.5 577,-209.5 638,-209.5 638,-190.5 577,-190.5"/>
<text text-anchor="middle" x="607.5" y="-197.5" font-family="Helvetica,sans-Serif" font-size="10.00">MatrixXd</text>
</a>
</g>
</g>
<!-- Node12&#45;&gt;Node8 -->
<g id="edge12" class="edge">
<title>Node12&#45;&gt;Node8</title>
<path fill="none" stroke="#9a32cd" stroke-dasharray="5,2" d="M648.11,-188.57C689.89,-179.08 755.56,-171.77 799,-204 874.32,-259.88 882.06,-386.22 882.04,-436.14"/>
<polygon fill="#9a32cd" stroke="#9a32cd" points="647.19,-185.19 638.29,-190.94 648.84,-192 647.19,-185.19"/>
<text text-anchor="start" x="696" y="-394" font-family="Helvetica,sans-Serif" font-size="10.00"> acceleration_coef_x</text>
<text text-anchor="middle" x="746.5" y="-383" font-family="Helvetica,sans-Serif" font-size="10.00">_</text>
<text text-anchor="start" x="696" y="-372" font-family="Helvetica,sans-Serif" font-size="10.00">acceleration_coef</text>
<text text-anchor="middle" x="746.5" y="-361" font-family="Helvetica,sans-Serif" font-size="10.00">_y_</text>
<text text-anchor="start" x="696" y="-350" font-family="Helvetica,sans-Serif" font-size="10.00">acceleration_coef</text>
<text text-anchor="middle" x="746.5" y="-339" font-family="Helvetica,sans-Serif" font-size="10.00">_z_</text>
<text text-anchor="middle" x="746.5" y="-328" font-family="Helvetica,sans-Serif" font-size="10.00">jerk_coef_x_</text>
<text text-anchor="middle" x="746.5" y="-317" font-family="Helvetica,sans-Serif" font-size="10.00">jerk_coef_y_</text>
<text text-anchor="middle" x="746.5" y="-306" font-family="Helvetica,sans-Serif" font-size="10.00">jerk_coef_z_</text>
<text text-anchor="start" x="696" y="-295" font-family="Helvetica,sans-Serif" font-size="10.00">position_coef</text>
<text text-anchor="middle" x="746.5" y="-284" font-family="Helvetica,sans-Serif" font-size="10.00">_x_</text>
<text text-anchor="start" x="696" y="-273" font-family="Helvetica,sans-Serif" font-size="10.00">position_coef</text>
<text text-anchor="middle" x="746.5" y="-262" font-family="Helvetica,sans-Serif" font-size="10.00">_y_</text>
<text text-anchor="start" x="696" y="-251" font-family="Helvetica,sans-Serif" font-size="10.00">position_coef</text>
<text text-anchor="middle" x="746.5" y="-240" font-family="Helvetica,sans-Serif" font-size="10.00">_z_</text>
<text text-anchor="start" x="696" y="-229" font-family="Helvetica,sans-Serif" font-size="10.00">velocity_coef</text>
<text text-anchor="middle" x="746.5" y="-218" font-family="Helvetica,sans-Serif" font-size="10.00">_x_</text>
<text text-anchor="middle" x="746.5" y="-207" font-family="Helvetica,sans-Serif" font-size="10.00">...</text>
</g>
<!-- Node13 -->
<g id="node13" class="node">
<title>Node13</title>
<g id="a_node13"><a xlink:href="struct__qrbp___1_1__pid__omega___1_1controller__internal__parameters.html" target="_top" xlink:title="Structure for all parameter members of the controller.">
<polygon fill="white" stroke="black" points="824,-496.5 824,-537.5 941,-537.5 941,-496.5 824,-496.5"/>
<text text-anchor="start" x="832" y="-525.5" font-family="Helvetica,sans-Serif" font-size="10.00">_qrbp_::_pid_omega</text>
<text text-anchor="start" x="832" y="-514.5" font-family="Helvetica,sans-Serif" font-size="10.00">_::controller_internal</text>
<text text-anchor="middle" x="882.5" y="-503.5" font-family="Helvetica,sans-Serif" font-size="10.00">_parameters</text>
</a>
</g>
</g>
<!-- Node13&#45;&gt;Node3 -->
<g id="edge14" class="edge">
<title>Node13&#45;&gt;Node3</title>
<path fill="none" stroke="#9a32cd" stroke-dasharray="5,2" d="M951.07,-510.67C989.26,-507.09 1036.46,-502.67 1072.65,-499.28"/>
<polygon fill="#9a32cd" stroke="#9a32cd" points="950.69,-507.19 941.06,-511.61 951.34,-514.16 950.69,-507.19"/>
<text text-anchor="middle" x="1010.5" y="-512" font-family="Helvetica,sans-Serif" font-size="10.00"> cip</text>
</g>
<!-- Node14 -->
<g id="node14" class="node">
<title>Node14</title>
<g id="a_node14"><a xlink:href="struct__qrbp___1_1__pid__omega___1_1controller__internal__members.html" target="_top" xlink:title="Structure for the internal members of the controller.">
<polygon fill="white" stroke="black" points="549,-27.5 549,-68.5 666,-68.5 666,-27.5 549,-27.5"/>
<text text-anchor="start" x="557" y="-56.5" font-family="Helvetica,sans-Serif" font-size="10.00">_qrbp_::_pid_omega</text>
<text text-anchor="start" x="557" y="-45.5" font-family="Helvetica,sans-Serif" font-size="10.00">_::controller_internal</text>
<text text-anchor="middle" x="607.5" y="-34.5" font-family="Helvetica,sans-Serif" font-size="10.00">_members</text>
</a>
</g>
</g>
<!-- Node14&#45;&gt;Node3 -->
<g id="edge15" class="edge">
<title>Node14&#45;&gt;Node3</title>
<path fill="none" stroke="#9a32cd" stroke-dasharray="5,2" d="M676,-30.84C776.94,-9.75 964.95,10.98 1055,-99 1081.08,-130.85 1049.77,-435.02 1073,-469 1075.64,-472.87 1079.03,-476.14 1082.83,-478.92"/>
<polygon fill="#9a32cd" stroke="#9a32cd" points="675.25,-27.42 666.21,-32.95 676.73,-34.27 675.25,-27.42"/>
<text text-anchor="middle" x="882.5" y="-34" font-family="Helvetica,sans-Serif" font-size="10.00"> cim</text>
</g>
<!-- Node14&#45;&gt;Node19 -->
<g id="edge23" class="edge">
<title>Node14&#45;&gt;Node19</title>
<path fill="none" stroke="#9a32cd" stroke-dasharray="5,2" d="M676.09,-62.3C712.53,-70.07 758.25,-79.92 799,-89 806.89,-90.76 815.2,-92.64 823.38,-94.5"/>
<polygon fill="#9a32cd" stroke="#9a32cd" points="676.58,-58.83 666.07,-60.16 675.12,-65.67 676.58,-58.83"/>
<text text-anchor="middle" x="746.5" y="-92" font-family="Helvetica,sans-Serif" font-size="10.00"> CIM</text>
</g>
<!-- Node15 -->
<g id="node15" class="node">
<title>Node15</title>
<g id="a_node15"><a xlink:href="struct__qrbp___1_1__pid__omega___1_1controller__internal__members__aero.html" target="_top" xlink:title="Structure for all the aerodynamic members of the controller.">
<polygon fill="white" stroke="black" points="272,-27.5 272,-68.5 389,-68.5 389,-27.5 272,-27.5"/>
<text text-anchor="start" x="280" y="-56.5" font-family="Helvetica,sans-Serif" font-size="10.00">_qrbp_::_pid_omega</text>
<text text-anchor="start" x="280" y="-45.5" font-family="Helvetica,sans-Serif" font-size="10.00">_::controller_internal</text>
<text text-anchor="middle" x="330.5" y="-34.5" font-family="Helvetica,sans-Serif" font-size="10.00">_members_aero</text>
</a>
</g>
</g>
<!-- Node15&#45;&gt;Node14 -->
<g id="edge16" class="edge">
<title>Node15&#45;&gt;Node14</title>
<path fill="none" stroke="#9a32cd" stroke-dasharray="5,2" d="M399.32,-48C445.26,-48 505.31,-48 548.93,-48"/>
<polygon fill="#9a32cd" stroke="#9a32cd" points="399.15,-44.5 389.15,-48 399.15,-51.5 399.15,-44.5"/>
<text text-anchor="middle" x="481.5" y="-51" font-family="Helvetica,sans-Serif" font-size="10.00"> aero</text>
</g>
<!-- Node16 -->
<g id="node16" class="node">
<title>Node16</title>
<g id="a_node16"><a xlink:href="struct__qrbp___1_1AeroStates.html" target="_top" xlink:title="Angles for the wings and stabilizers.">
<polygon fill="white" stroke="black" points="29.5,-76.5 29.5,-95.5 137.5,-95.5 137.5,-76.5 29.5,-76.5"/>
<text text-anchor="middle" x="83.5" y="-83.5" font-family="Helvetica,sans-Serif" font-size="10.00">_qrbp_::AeroStates</text>
</a>
</g>
</g>
<!-- Node16&#45;&gt;Node15 -->
<g id="edge17" class="edge">
<title>Node16&#45;&gt;Node15</title>
<path fill="none" stroke="#9a32cd" stroke-dasharray="5,2" d="M147.67,-76.2C185.96,-70.26 234.46,-62.74 271.74,-56.96"/>
<polygon fill="#9a32cd" stroke="#9a32cd" points="147.01,-72.76 137.66,-77.75 148.08,-79.68 147.01,-72.76"/>
<text text-anchor="middle" x="202" y="-74" font-family="Helvetica,sans-Serif" font-size="10.00"> states</text>
</g>
<!-- Node17 -->
<g id="node17" class="node">
<title>Node17</title>
<g id="a_node17"><a xlink:href="struct__qrbp___1_1AeroCoeff.html" target="_top" xlink:title="Aerodynamic coefficients for the QRBP.">
<polygon fill="white" stroke="black" points="32,-38.5 32,-57.5 135,-57.5 135,-38.5 32,-38.5"/>
<text text-anchor="middle" x="83.5" y="-45.5" font-family="Helvetica,sans-Serif" font-size="10.00">_qrbp_::AeroCoeff</text>
</a>
</g>
</g>
<!-- Node17&#45;&gt;Node15 -->
<g id="edge18" class="edge">
<title>Node17&#45;&gt;Node15</title>
<path fill="none" stroke="#9a32cd" stroke-dasharray="5,2" d="M145.36,-48C184.07,-48 233.88,-48 271.93,-48"/>
<polygon fill="#9a32cd" stroke="#9a32cd" points="145.26,-44.5 135.26,-48 145.26,-51.5 145.26,-44.5"/>
<text text-anchor="middle" x="202" y="-51" font-family="Helvetica,sans-Serif" font-size="10.00"> coeff</text>
</g>
<!-- Node18 -->
<g id="node18" class="node">
<title>Node18</title>
<g id="a_node18"><a xlink:href="struct__qrbp___1_1AeroDynamicMembers.html" target="_top" xlink:title="Structre for all the aerodynamic members of the controller.">
<polygon fill="white" stroke="black" points="0,-0.5 0,-19.5 167,-19.5 167,-0.5 0,-0.5"/>
<text text-anchor="middle" x="83.5" y="-7.5" font-family="Helvetica,sans-Serif" font-size="10.00">_qrbp_::AeroDynamicMembers</text>
</a>
</g>
</g>
<!-- Node18&#45;&gt;Node15 -->
<g id="edge19" class="edge">
<title>Node18&#45;&gt;Node15</title>
<path fill="none" stroke="#9a32cd" stroke-dasharray="5,2" d="M156.17,-21.12C192.96,-26.82 237.19,-33.68 271.76,-39.04"/>
<polygon fill="#9a32cd" stroke="#9a32cd" points="156.43,-17.61 146.01,-19.54 155.35,-24.53 156.43,-17.61"/>
<text text-anchor="middle" x="202" y="-34" font-family="Helvetica,sans-Serif" font-size="10.00"> dyn</text>
</g>
<!-- Node19&#45;&gt;Node3 -->
<g id="edge20" class="edge">
<title>Node19&#45;&gt;Node3</title>
<path fill="none" stroke="#9a32cd" stroke-dasharray="5,2" d="M951.58,-101.32C987.68,-101.79 1029.69,-109.49 1055,-138 1103.9,-193.09 1031.25,-408.31 1073,-469 1075.66,-472.86 1079.05,-476.13 1082.86,-478.9"/>
<polygon fill="#9a32cd" stroke="#9a32cd" points="951.55,-97.82 941.57,-101.36 951.59,-104.82 951.55,-97.82"/>
<text text-anchor="middle" x="1010.5" y="-141" font-family="Helvetica,sans-Serif" font-size="10.00"> logger</text>
</g>
<!-- Node20 -->
<g id="node20" class="node">
<title>Node20</title>
<g id="a_node20"><a xlink:href="class__flight__log___1_1blackbox.html" target="_top" xlink:title=" ">
<polygon fill="white" stroke="black" points="546.5,-92.5 546.5,-111.5 668.5,-111.5 668.5,-92.5 546.5,-92.5"/>
<text text-anchor="middle" x="607.5" y="-99.5" font-family="Helvetica,sans-Serif" font-size="10.00">_flight_log_::blackbox</text>
</a>
</g>
</g>
<!-- Node20&#45;&gt;Node19 -->
<g id="edge21" class="edge">
<title>Node20&#45;&gt;Node19</title>
<path fill="none" stroke="midnightblue" d="M678.98,-103.55C723.77,-104.53 781.07,-105.79 823.28,-106.72"/>
<polygon fill="midnightblue" stroke="midnightblue" points="678.82,-100.04 668.75,-103.32 678.67,-107.04 678.82,-100.04"/>
</g>
<!-- Node21 -->
<g id="node21" class="node">
<title>Node21</title>
<g id="a_node21"><a xlink:href="classvehicle__states.html" target="_top" xlink:title=" ">
<polygon fill="white" stroke="black" points="1086.5,-440.5 1086.5,-459.5 1173.5,-459.5 1173.5,-440.5 1086.5,-440.5"/>
<text text-anchor="middle" x="1130" y="-447.5" font-family="Helvetica,sans-Serif" font-size="10.00">vehicle_states</text>
</a>
</g>
</g>
<!-- Node21&#45;&gt;Node1 -->
<g id="edge24" class="edge">
<title>Node21&#45;&gt;Node1</title>
<path fill="none" stroke="#9a32cd" stroke-dasharray="5,2" d="M1171.07,-462.91C1176.47,-464.85 1181.9,-466.9 1187,-469 1221.75,-483.29 1231.09,-486.17 1263,-506 1289.26,-522.33 1317.23,-545.51 1332.14,-558.4"/>
<polygon fill="#9a32cd" stroke="#9a32cd" points="1172.08,-459.55 1161.48,-459.57 1169.77,-466.16 1172.08,-459.55"/>
<text text-anchor="middle" x="1234" y="-509" font-family="Helvetica,sans-Serif" font-size="10.00"> vehicle_ptr</text>
</g>
</g>
</svg>
