<?xml version="1.0" encoding="UTF-8" standalone="no"?>
<!DOCTYPE svg PUBLIC "-//W3C//DTD SVG 1.1//EN"
 "http://www.w3.org/Graphics/SVG/1.1/DTD/svg11.dtd">
<!-- Generated by graphviz version 2.43.0 (0)
 -->
<!-- Title: _t265_::_vio_::VioT265Node Pages: 1 -->
<svg width="316pt" height="84pt"
 viewBox="0.00 0.00 315.50 84.00" xmlns="http://www.w3.org/2000/svg" xmlns:xlink="http://www.w3.org/1999/xlink">
<g id="graph0" class="graph" transform="scale(1 1) rotate(0) translate(4 80)">
<title>_t265_::_vio_::VioT265Node</title>
<polygon fill="white" stroke="transparent" points="-4,4 -4,-80 311.5,-80 311.5,4 -4,4"/>
<!-- Node1 -->
<g id="node1" class="node">
<title>Node1</title>
<g id="a_node1"><a xlink:title="VioT265Node class which can recieve position tracking from the Realsense T265.">
<polygon fill="#bfbfbf" stroke="black" points="88.5,-0.5 88.5,-19.5 240.5,-19.5 240.5,-0.5 88.5,-0.5"/>
<text text-anchor="middle" x="164.5" y="-7.5" font-family="Helvetica,sans-Serif" font-size="10.00">_t265_::_vio_::VioT265Node</text>
</a>
</g>
</g>
<!-- Node2 -->
<g id="node2" class="node">
<title>Node2</title>
<g id="a_node2"><a xlink:title=" ">
<polygon fill="white" stroke="#bfbfbf" points="0,-56.5 0,-75.5 167,-75.5 167,-56.5 0,-56.5"/>
<text text-anchor="middle" x="83.5" y="-63.5" font-family="Helvetica,sans-Serif" font-size="10.00">rclcpp_lifecycle::LifecycleNode</text>
</a>
</g>
</g>
<!-- Node2&#45;&gt;Node1 -->
<g id="edge1" class="edge">
<title>Node2&#45;&gt;Node1</title>
<path fill="none" stroke="midnightblue" d="M105.07,-50.62C119.86,-40.76 139.01,-27.99 151.52,-19.65"/>
<polygon fill="midnightblue" stroke="midnightblue" points="102.89,-47.86 96.51,-56.32 106.78,-53.69 102.89,-47.86"/>
</g>
<!-- Node3 -->
<g id="node3" class="node">
<title>Node3</title>
<g id="a_node3"><a xlink:href="class__flight__log___1_1blackbox.html" target="_top" xlink:title=" ">
<polygon fill="white" stroke="black" points="185.5,-56.5 185.5,-75.5 307.5,-75.5 307.5,-56.5 185.5,-56.5"/>
<text text-anchor="middle" x="246.5" y="-63.5" font-family="Helvetica,sans-Serif" font-size="10.00">_flight_log_::blackbox</text>
</a>
</g>
</g>
<!-- Node3&#45;&gt;Node1 -->
<g id="edge2" class="edge">
<title>Node3&#45;&gt;Node1</title>
<path fill="none" stroke="midnightblue" d="M224.67,-50.62C209.69,-40.76 190.3,-27.99 177.64,-19.65"/>
<polygon fill="midnightblue" stroke="midnightblue" points="223.05,-53.75 233.33,-56.32 226.9,-47.9 223.05,-53.75"/>
</g>
</g>
</svg>
