<?xml version="1.0" encoding="UTF-8" standalone="no"?>
<!DOCTYPE svg PUBLIC "-//W3C//DTD SVG 1.1//EN"
 "http://www.w3.org/Graphics/SVG/1.1/DTD/svg11.dtd">
<!-- Generated by graphviz version 2.43.0 (0)
 -->
<!-- Title: _qrbp_::_mrac_omega_::mrac_omega_logger Pages: 1 -->
<!--zoomable 148 -->
<svg id="main" version="1.1" xmlns="http://www.w3.org/2000/svg" xmlns:xlink="http://www.w3.org/1999/xlink" xml:space="preserve" onload="init(evt)">
<style type="text/css"><![CDATA[
.edge:hover path { stroke: red; }
.edge:hover polygon { stroke: red; fill: red; }
]]></style>
<script type="text/javascript"><![CDATA[
var edges = document.getElementsByTagName('g');
if (edges && edges.length) {
  for (var i=0;i<edges.length;i++) {
    if (edges[i].id.substr(0,4)=='edge') {
      edges[i].setAttribute('class','edge');
    }
  }
}
]]></script>
        <defs>
                <circle id="rim" cx="0" cy="0" r="7"/>
                <circle id="rim2" cx="0" cy="0" r="3.5"/>
                <g id="zoomPlus">
                        <use xlink:href="#rim" fill="#404040">
                                <set attributeName="fill" to="#808080" begin="zoomplus.mouseover" end="zoomplus.mouseout"/>
                        </use>
                        <path d="M-4,0h8M0,-4v8" fill="none" stroke="white" stroke-width="1.5" pointer-events="none"/>
                </g>
                <g id="zoomMin">
                        <use xlink:href="#rim" fill="#404040">
                                <set attributeName="fill" to="#808080" begin="zoomminus.mouseover" end="zoomminus.mouseout"/>
                        </use>
                        <path d="M-4,0h8" fill="none" stroke="white" stroke-width="1.5" pointer-events="none"/>
                </g>
                <g id="dirArrow">
                        <path fill="none" stroke="white" stroke-width="1.5" d="M0,-3.0v7 M-2.5,-0.5L0,-3.0L2.5,-0.5"/>
                </g>
               <g id="resetDef">
                       <use xlink:href="#rim2" fill="#404040">
                               <set attributeName="fill" to="#808080" begin="reset.mouseover" end="reset.mouseout"/>
                       </use>
               </g>
        </defs>

<script type="text/javascript">
var viewWidth = 749;
var viewHeight = 148;
var sectionId = 'dynsection-1';
</script>
<script xlink:href="svgpan.js"/>
<svg id="graph" class="graph">
<g id="viewport">
<title>_qrbp_::_mrac_omega_::mrac_omega_logger</title>
<polygon fill="white" stroke="transparent" points="-4,4 -4,-144 745,-144 745,4 -4,4"/>
<!-- Node1 -->
<g id="node1" class="node">
<title>Node1</title>
<g id="a_node1"><a xlink:title=" ">
<polygon fill="#bfbfbf" stroke="black" points="613,-66 613,-96 741,-96 741,-66 613,-66"/>
<text text-anchor="start" x="621" y="-84" font-family="Helvetica,sans-Serif" font-size="10.00">_qrbp_::_mrac_omega</text>
<text text-anchor="middle" x="677" y="-73" font-family="Helvetica,sans-Serif" font-size="10.00">_::mrac_omega_logger</text>
</a>
</g>
</g>
<!-- Node2 -->
<g id="node2" class="node">
<title>Node2</title>
<g id="a_node2"><a xlink:href="class__flight__log___1_1blackbox.html" target="_top" xlink:title=" ">
<polygon fill="white" stroke="black" points="426,-120.5 426,-139.5 548,-139.5 548,-120.5 426,-120.5"/>
<text text-anchor="middle" x="487" y="-127.5" font-family="Helvetica,sans-Serif" font-size="10.00">_flight_log_::blackbox</text>
</a>
</g>
</g>
<!-- Node2&#45;&gt;Node1 -->
<g id="edge1" class="edge">
<title>Node2&#45;&gt;Node1</title>
<path fill="none" stroke="midnightblue" d="M534.43,-117.9C559.78,-111.29 591.39,-103.05 618.31,-96.04"/>
<polygon fill="midnightblue" stroke="midnightblue" points="533.49,-114.53 524.69,-120.44 535.25,-121.3 533.49,-114.53"/>
</g>
<!-- Node3 -->
<g id="node3" class="node">
<title>Node3</title>
<g id="a_node3"><a xlink:href="struct__qrbp___1_1__mrac__omega___1_1controller__internal__members.html" target="_top" xlink:title="Structure for the internal members of the controller.">
<polygon fill="white" stroke="black" points="425,-60.5 425,-101.5 549,-101.5 549,-60.5 425,-60.5"/>
<text text-anchor="start" x="433" y="-89.5" font-family="Helvetica,sans-Serif" font-size="10.00">_qrbp_::_mrac_omega</text>
<text text-anchor="start" x="433" y="-78.5" font-family="Helvetica,sans-Serif" font-size="10.00">_::controller_internal</text>
<text text-anchor="middle" x="487" y="-67.5" font-family="Helvetica,sans-Serif" font-size="10.00">_members</text>
</a>
</g>
</g>
<!-- Node3&#45;&gt;Node1 -->
<g id="edge2" class="edge">
<title>Node3&#45;&gt;Node1</title>
<path fill="none" stroke="#9a32cd" stroke-dasharray="5,2" d="M559.24,-81C576.81,-81 595.52,-81 612.69,-81"/>
<polygon fill="#9a32cd" stroke="#9a32cd" points="559.04,-77.5 549.04,-81 559.04,-84.5 559.04,-77.5"/>
<text text-anchor="middle" x="582.5" y="-84" font-family="Helvetica,sans-Serif" font-size="10.00"> CIM</text>
</g>
<!-- Node4 -->
<g id="node4" class="node">
<title>Node4</title>
<g id="a_node4"><a xlink:href="struct__qrbp___1_1__mrac__omega___1_1controller__internal__members__aero.html" target="_top" xlink:title="Structure for all the aerodynamic members of the controller.">
<polygon fill="white" stroke="black" points="237,-60.5 237,-101.5 361,-101.5 361,-60.5 237,-60.5"/>
<text text-anchor="start" x="245" y="-89.5" font-family="Helvetica,sans-Serif" font-size="10.00">_qrbp_::_mrac_omega</text>
<text text-anchor="start" x="245" y="-78.5" font-family="Helvetica,sans-Serif" font-size="10.00">_::controller_internal</text>
<text text-anchor="middle" x="299" y="-67.5" font-family="Helvetica,sans-Serif" font-size="10.00">_members_aero</text>
</a>
</g>
</g>
<!-- Node4&#45;&gt;Node3 -->
<g id="edge3" class="edge">
<title>Node4&#45;&gt;Node3</title>
<path fill="none" stroke="#9a32cd" stroke-dasharray="5,2" d="M371.39,-81C389,-81 407.72,-81 424.8,-81"/>
<polygon fill="#9a32cd" stroke="#9a32cd" points="371.16,-77.5 361.16,-81 371.16,-84.5 371.16,-77.5"/>
<text text-anchor="middle" x="391.5" y="-84" font-family="Helvetica,sans-Serif" font-size="10.00"> aero</text>
</g>
<!-- Node5 -->
<g id="node5" class="node">
<title>Node5</title>
<g id="a_node5"><a xlink:href="struct__qrbp___1_1AeroStates.html" target="_top" xlink:title="Angles for the wings and stabilizers.">
<polygon fill="white" stroke="black" points="29.5,-109.5 29.5,-128.5 137.5,-128.5 137.5,-109.5 29.5,-109.5"/>
<text text-anchor="middle" x="83.5" y="-116.5" font-family="Helvetica,sans-Serif" font-size="10.00">_qrbp_::AeroStates</text>
</a>
</g>
</g>
<!-- Node5&#45;&gt;Node4 -->
<g id="edge4" class="edge">
<title>Node5&#45;&gt;Node4</title>
<path fill="none" stroke="#9a32cd" stroke-dasharray="5,2" d="M147.68,-108.44C170.2,-104.61 195.75,-100.19 219,-96 224.77,-94.96 230.77,-93.86 236.78,-92.74"/>
<polygon fill="#9a32cd" stroke="#9a32cd" points="146.83,-105.03 137.56,-110.16 148,-111.94 146.83,-105.03"/>
<text text-anchor="middle" x="202" y="-104" font-family="Helvetica,sans-Serif" font-size="10.00"> states</text>
</g>
<!-- Node6 -->
<g id="node6" class="node">
<title>Node6</title>
<g id="a_node6"><a xlink:href="struct__qrbp___1_1AeroCoeff.html" target="_top" xlink:title="Aerodynamic coefficients for the QRBP.">
<polygon fill="white" stroke="black" points="32,-71.5 32,-90.5 135,-90.5 135,-71.5 32,-71.5"/>
<text text-anchor="middle" x="83.5" y="-78.5" font-family="Helvetica,sans-Serif" font-size="10.00">_qrbp_::AeroCoeff</text>
</a>
</g>
</g>
<!-- Node6&#45;&gt;Node4 -->
<g id="edge5" class="edge">
<title>Node6&#45;&gt;Node4</title>
<path fill="none" stroke="#9a32cd" stroke-dasharray="5,2" d="M145.38,-81C174,-81 208.06,-81 236.73,-81"/>
<polygon fill="#9a32cd" stroke="#9a32cd" points="145.1,-77.5 135.1,-81 145.1,-84.5 145.1,-77.5"/>
<text text-anchor="middle" x="202" y="-84" font-family="Helvetica,sans-Serif" font-size="10.00"> coeff</text>
</g>
<!-- Node7 -->
<g id="node7" class="node">
<title>Node7</title>
<g id="a_node7"><a xlink:href="struct__qrbp___1_1AeroDynamicMembers.html" target="_top" xlink:title="Structre for all the aerodynamic members of the controller.">
<polygon fill="white" stroke="black" points="0,-33.5 0,-52.5 167,-52.5 167,-33.5 0,-33.5"/>
<text text-anchor="middle" x="83.5" y="-40.5" font-family="Helvetica,sans-Serif" font-size="10.00">_qrbp_::AeroDynamicMembers</text>
</a>
</g>
</g>
<!-- Node7&#45;&gt;Node4 -->
<g id="edge6" class="edge">
<title>Node7&#45;&gt;Node4</title>
<path fill="none" stroke="#9a32cd" stroke-dasharray="5,2" d="M151.52,-54.21C173.08,-57.89 197.06,-62.04 219,-66 224.77,-67.04 230.77,-68.14 236.78,-69.26"/>
<polygon fill="#9a32cd" stroke="#9a32cd" points="151.92,-50.73 141.48,-52.51 150.75,-57.63 151.92,-50.73"/>
<text text-anchor="middle" x="202" y="-69" font-family="Helvetica,sans-Serif" font-size="10.00"> dyn</text>
</g>
<!-- Node8 -->
<g id="node8" class="node">
<title>Node8</title>
<g id="a_node8"><a xlink:href="struct__qrbp___1_1__mrac__omega___1_1controller__integrated__state__members.html" target="_top" xlink:title="Structure for the members that are mapped to the rk4 vector after integration.">
<polygon fill="white" stroke="black" points="422,-0.5 422,-41.5 552,-41.5 552,-0.5 422,-0.5"/>
<text text-anchor="start" x="430" y="-29.5" font-family="Helvetica,sans-Serif" font-size="10.00">_qrbp_::_mrac_omega</text>
<text text-anchor="start" x="430" y="-18.5" font-family="Helvetica,sans-Serif" font-size="10.00">_::controller_integrated</text>
<text text-anchor="middle" x="487" y="-7.5" font-family="Helvetica,sans-Serif" font-size="10.00">_state_members</text>
</a>
</g>
</g>
<!-- Node8&#45;&gt;Node1 -->
<g id="edge7" class="edge">
<title>Node8&#45;&gt;Node1</title>
<path fill="none" stroke="#9a32cd" stroke-dasharray="5,2" d="M561.72,-44.53C584.26,-51.72 608.44,-59.44 628.73,-65.91"/>
<polygon fill="#9a32cd" stroke="#9a32cd" points="562.76,-41.19 552.17,-41.48 560.64,-47.86 562.76,-41.19"/>
<text text-anchor="middle" x="582.5" y="-58" font-family="Helvetica,sans-Serif" font-size="10.00"> CSM</text>
</g>
</g>
</svg>
        <g id="navigator" transform="translate(0 0)" fill="#404254">
                <rect fill="#f2f5e9" fill-opacity="0.5" stroke="#606060" stroke-width=".5" x="0" y="0" width="60" height="60"/>
                <use id="zoomplus" xlink:href="#zoomPlus" x="17" y="9" onmousedown="handleZoom(evt,'in')"/>
                <use id="zoomminus" xlink:href="#zoomMin" x="42" y="9" onmousedown="handleZoom(evt,'out')"/>
                <use id="reset" xlink:href="#resetDef" x="30" y="36" onmousedown="handleReset()"/>
                <g id="arrowUp" xlink:href="#dirArrow" transform="translate(30 24)" onmousedown="handlePan(0,-1)">
                  <use xlink:href="#rim" fill="#404040">
                        <set attributeName="fill" to="#808080" begin="arrowUp.mouseover" end="arrowUp.mouseout"/>
                  </use>
                  <path fill="none" stroke="white" stroke-width="1.5" d="M0,-3.0v7 M-2.5,-0.5L0,-3.0L2.5,-0.5"/>
                </g>
                <g id="arrowRight" xlink:href="#dirArrow" transform="rotate(90) translate(36 -43)" onmousedown="handlePan(1,0)">
                  <use xlink:href="#rim" fill="#404040">
                        <set attributeName="fill" to="#808080" begin="arrowRight.mouseover" end="arrowRight.mouseout"/>
                  </use>
                  <path fill="none" stroke="white" stroke-width="1.5" d="M0,-3.0v7 M-2.5,-0.5L0,-3.0L2.5,-0.5"/>
                </g>
                <g id="arrowDown" xlink:href="#dirArrow" transform="rotate(180) translate(-30 -48)" onmousedown="handlePan(0,1)">
                  <use xlink:href="#rim" fill="#404040">
                        <set attributeName="fill" to="#808080" begin="arrowDown.mouseover" end="arrowDown.mouseout"/>
                  </use>
                  <path fill="none" stroke="white" stroke-width="1.5" d="M0,-3.0v7 M-2.5,-0.5L0,-3.0L2.5,-0.5"/>
                </g>
                <g id="arrowLeft" xlink:href="#dirArrow" transform="rotate(270) translate(-36 17)" onmousedown="handlePan(-1,0)">
                  <use xlink:href="#rim" fill="#404040">
                        <set attributeName="fill" to="#808080" begin="arrowLeft.mouseover" end="arrowLeft.mouseout"/>
                  </use>
                  <path fill="none" stroke="white" stroke-width="1.5" d="M0,-3.0v7 M-2.5,-0.5L0,-3.0L2.5,-0.5"/>
                </g>
        </g>
        <svg viewBox="0 0 15 15" width="100%" height="30px" preserveAspectRatio="xMaxYMin meet">
         <g id="arrow_out" transform="scale(0.3 0.3)">
          <a xlink:href="class__qrbp___1_1__mrac__omega___1_1mrac__omega__logger__coll__graph_org.svg" target="_base">
           <rect id="button" ry="5" rx="5" y="6" x="6" height="38" width="38"
                fill="#f2f5e9" fill-opacity="0.5" stroke="#606060" stroke-width="1.0"/>
           <path id="arrow"
             d="M 11.500037,31.436501 C 11.940474,20.09759 22.043105,11.32322 32.158766,21.979434 L 37.068811,17.246167 C 37.068811,17.246167 37.088388,32 37.088388,32 L 22.160133,31.978069 C 22.160133,31.978069 26.997745,27.140456 26.997745,27.140456 C 18.528582,18.264221 13.291696,25.230495 11.500037,31.436501 z"
             style="fill:#404040;"/>
          </a>
         </g>
        </svg>
</svg>
