<?xml version="1.0" encoding="UTF-8" standalone="no"?>
<!DOCTYPE svg PUBLIC "-//W3C//DTD SVG 1.1//EN"
 "http://www.w3.org/Graphics/SVG/1.1/DTD/svg11.dtd">
<!-- Generated by graphviz version 2.43.0 (0)
 -->
<!-- Title: _qrbp_::_mrac_pid_::mrac_pid Pages: 1 -->
<!--zoomable 682 -->
<svg id="main" version="1.1" xmlns="http://www.w3.org/2000/svg" xmlns:xlink="http://www.w3.org/1999/xlink" xml:space="preserve" onload="init(evt)">
<style type="text/css"><![CDATA[
.edge:hover path { stroke: red; }
.edge:hover polygon { stroke: red; fill: red; }
]]></style>
<script type="text/javascript"><![CDATA[
var edges = document.getElementsByTagName('g');
if (edges && edges.length) {
  for (var i=0;i<edges.length;i++) {
    if (edges[i].id.substr(0,4)=='edge') {
      edges[i].setAttribute('class','edge');
    }
  }
}
]]></script>
        <defs>
                <circle id="rim" cx="0" cy="0" r="7"/>
                <circle id="rim2" cx="0" cy="0" r="3.5"/>
                <g id="zoomPlus">
                        <use xlink:href="#rim" fill="#404040">
                                <set attributeName="fill" to="#808080" begin="zoomplus.mouseover" end="zoomplus.mouseout"/>
                        </use>
                        <path d="M-4,0h8M0,-4v8" fill="none" stroke="white" stroke-width="1.5" pointer-events="none"/>
                </g>
                <g id="zoomMin">
                        <use xlink:href="#rim" fill="#404040">
                                <set attributeName="fill" to="#808080" begin="zoomminus.mouseover" end="zoomminus.mouseout"/>
                        </use>
                        <path d="M-4,0h8" fill="none" stroke="white" stroke-width="1.5" pointer-events="none"/>
                </g>
                <g id="dirArrow">
                        <path fill="none" stroke="white" stroke-width="1.5" d="M0,-3.0v7 M-2.5,-0.5L0,-3.0L2.5,-0.5"/>
                </g>
               <g id="resetDef">
                       <use xlink:href="#rim2" fill="#404040">
                               <set attributeName="fill" to="#808080" begin="reset.mouseover" end="reset.mouseout"/>
                       </use>
               </g>
        </defs>

<script type="text/javascript">
var viewWidth = 1136;
var viewHeight = 682;
var sectionId = 'dynsection-1';
</script>
<script xlink:href="svgpan.js"/>
<svg id="graph" class="graph">
<g id="viewport">
<title>_qrbp_::_mrac_pid_::mrac_pid</title>
<polygon fill="white" stroke="transparent" points="-4,4 -4,-678.16 1132,-678.16 1132,4 -4,4"/>
<!-- Node1 -->
<g id="node1" class="node">
<title>Node1</title>
<g id="a_node1"><a xlink:title=" ">
<polygon fill="#bfbfbf" stroke="black" points="1018,-130.16 1018,-160.16 1128,-160.16 1128,-130.16 1018,-130.16"/>
<text text-anchor="start" x="1026" y="-148.16" font-family="Helvetica,sans-Serif" font-size="10.00">_qrbp_::_mrac_pid_</text>
<text text-anchor="middle" x="1073" y="-137.16" font-family="Helvetica,sans-Serif" font-size="10.00">::mrac_pid</text>
</a>
</g>
</g>
<!-- Node2 -->
<g id="node2" class="node">
<title>Node2</title>
<g id="a_node2"><a xlink:href="class__control__algorithm__base___1_1controller__base.html" target="_top" xlink:title="controller_base definition">
<polygon fill="white" stroke="black" points="817,-562.16 817,-592.16 948,-592.16 948,-562.16 817,-562.16"/>
<text text-anchor="start" x="825" y="-580.16" font-family="Helvetica,sans-Serif" font-size="10.00">_control_algorithm</text>
<text text-anchor="middle" x="882.5" y="-569.16" font-family="Helvetica,sans-Serif" font-size="10.00">_base_::controller_base</text>
</a>
</g>
</g>
<!-- Node2&#45;&gt;Node1 -->
<g id="edge1" class="edge">
<title>Node2&#45;&gt;Node1</title>
<path fill="none" stroke="midnightblue" d="M903.27,-554.09C917.17,-537.01 935.45,-512.72 948,-489.16 1011.85,-369.24 1055.6,-209.43 1068.24,-160.22"/>
<polygon fill="midnightblue" stroke="midnightblue" points="900.52,-551.92 896.85,-561.86 905.92,-556.38 900.52,-551.92"/>
</g>
<!-- Node3 -->
<g id="node3" class="node">
<title>Node3</title>
<g id="a_node3"><a xlink:href="structflight__params.html" target="_top" xlink:title="If you are adding more parameters to your flight in /src/acsl_flight/params/flight_params....">
<polygon fill="white" stroke="black" points="566,-599.66 566,-618.66 649,-618.66 649,-599.66 566,-599.66"/>
<text text-anchor="middle" x="607.5" y="-606.66" font-family="Helvetica,sans-Serif" font-size="10.00">flight_params</text>
</a>
</g>
</g>
<!-- Node3&#45;&gt;Node2 -->
<g id="edge2" class="edge">
<title>Node3&#45;&gt;Node2</title>
<path fill="none" stroke="#9a32cd" stroke-dasharray="5,2" d="M659.08,-603.23C703.57,-598.02 768.57,-590.4 816.83,-584.74"/>
<polygon fill="#9a32cd" stroke="#9a32cd" points="658.6,-599.76 649.08,-604.4 659.42,-606.72 658.6,-599.76"/>
<text text-anchor="middle" x="746.5" y="-601.16" font-family="Helvetica,sans-Serif" font-size="10.00"> flight_params_ptr</text>
</g>
<!-- Node5 -->
<g id="node5" class="node">
<title>Node5</title>
<g id="a_node5"><a xlink:href="class__piecewise__polynomial__trajectory___1_1piecewise__polynomial__trajectory.html" target="_top" xlink:title="Piecwise polynomial trajectory.">
<polygon fill="white" stroke="black" points="817,-438.66 817,-479.66 948,-479.66 948,-438.66 817,-438.66"/>
<text text-anchor="start" x="825" y="-467.66" font-family="Helvetica,sans-Serif" font-size="10.00">_piecewise_polynomial</text>
<text text-anchor="start" x="825" y="-456.66" font-family="Helvetica,sans-Serif" font-size="10.00">_trajectory_::piecewise</text>
<text text-anchor="middle" x="882.5" y="-445.66" font-family="Helvetica,sans-Serif" font-size="10.00">_polynomial_trajectory</text>
</a>
</g>
</g>
<!-- Node3&#45;&gt;Node5 -->
<g id="edge10" class="edge">
<title>Node3&#45;&gt;Node5</title>
<path fill="none" stroke="#9a32cd" stroke-dasharray="5,2" d="M658.66,-598.18C664.7,-595.96 670.62,-593.31 676,-590.16 685.76,-584.44 684.1,-577.63 694,-572.16 735.89,-549 757.55,-572.11 799,-548.16 828.37,-531.19 853.43,-500.36 867.98,-479.82"/>
<polygon fill="#9a32cd" stroke="#9a32cd" points="657.53,-594.87 649.14,-601.34 659.73,-601.52 657.53,-594.87"/>
<text text-anchor="middle" x="746.5" y="-575.16" font-family="Helvetica,sans-Serif" font-size="10.00"> flight_params_ptr</text>
</g>
<!-- Node4 -->
<g id="node4" class="node">
<title>Node4</title>
<g id="a_node4"><a xlink:href="structPiecewisePolynomialTrajectoryInfo.html" target="_top" xlink:title="Struct containing the trajectory info coming from the .json file.">
<polygon fill="white" stroke="black" points="237,-654.66 237,-673.66 424,-673.66 424,-654.66 237,-654.66"/>
<text text-anchor="middle" x="330.5" y="-661.66" font-family="Helvetica,sans-Serif" font-size="10.00">PiecewisePolynomialTrajectoryInfo</text>
</a>
</g>
</g>
<!-- Node4&#45;&gt;Node3 -->
<g id="edge3" class="edge">
<title>Node4&#45;&gt;Node3</title>
<path fill="none" stroke="#9a32cd" stroke-dasharray="5,2" d="M434.68,-656.96C462.93,-653.7 493.36,-648.98 521,-642.16 543.86,-636.52 568.87,-626.37 585.89,-618.81"/>
<polygon fill="#9a32cd" stroke="#9a32cd" points="433.94,-653.52 424.38,-658.1 434.71,-660.48 433.94,-653.52"/>
<text text-anchor="middle" x="481.5" y="-658.16" font-family="Helvetica,sans-Serif" font-size="10.00"> traj_params</text>
</g>
<!-- Node5&#45;&gt;Node1 -->
<g id="edge4" class="edge">
<title>Node5&#45;&gt;Node1</title>
<path fill="none" stroke="#9a32cd" stroke-dasharray="5,2" d="M901.25,-429.59C940.46,-364.28 1033.3,-209.62 1062.82,-160.45"/>
<polygon fill="#9a32cd" stroke="#9a32cd" points="898.01,-428.18 895.87,-438.56 904.02,-431.79 898.01,-428.18"/>
<text text-anchor="middle" x="983" y="-323.16" font-family="Helvetica,sans-Serif" font-size="10.00"> ud</text>
</g>
<!-- Node6 -->
<g id="node6" class="node">
<title>Node6</title>
<g id="a_node6"><a xlink:href="class__user__defined__trajectory__base___1_1trajectory__base.html" target="_top" xlink:title="base trajectory for pixhawk">
<polygon fill="white" stroke="black" points="539,-550.16 539,-580.16 676,-580.16 676,-550.16 539,-550.16"/>
<text text-anchor="start" x="547" y="-568.16" font-family="Helvetica,sans-Serif" font-size="10.00">_user_defined_trajectory</text>
<text text-anchor="middle" x="607.5" y="-557.16" font-family="Helvetica,sans-Serif" font-size="10.00">_base_::trajectory_base</text>
</a>
</g>
</g>
<!-- Node6&#45;&gt;Node5 -->
<g id="edge5" class="edge">
<title>Node6&#45;&gt;Node5</title>
<path fill="none" stroke="midnightblue" d="M686.17,-550.61C729.58,-541.81 778.87,-530.53 799,-521.16 821.41,-510.72 843.64,-493.52 859.36,-479.88"/>
<polygon fill="midnightblue" stroke="midnightblue" points="685.27,-547.22 676.16,-552.61 686.65,-554.08 685.27,-547.22"/>
</g>
<!-- Node7 -->
<g id="node7" class="node">
<title>Node7</title>
<g id="a_node7"><a xlink:title=" ">
<polygon fill="white" stroke="#bfbfbf" points="301,-516.66 301,-535.66 360,-535.66 360,-516.66 301,-516.66"/>
<text text-anchor="middle" x="330.5" y="-523.66" font-family="Helvetica,sans-Serif" font-size="10.00">Vector3d</text>
</a>
</g>
</g>
<!-- Node7&#45;&gt;Node5 -->
<g id="edge8" class="edge">
<title>Node7&#45;&gt;Node5</title>
<path fill="none" stroke="#9a32cd" stroke-dasharray="5,2" d="M370.15,-524.36C474.69,-519.39 757.88,-505.17 799,-495.16 813.42,-491.65 828.5,-485.78 841.77,-479.8"/>
<polygon fill="#9a32cd" stroke="#9a32cd" points="369.86,-520.87 360.03,-524.84 370.19,-527.86 369.86,-520.87"/>
<text text-anchor="start" x="552.5" y="-529.16" font-family="Helvetica,sans-Serif" font-size="10.00"> user_defined_position</text>
<text text-anchor="middle" x="607.5" y="-518.16" font-family="Helvetica,sans-Serif" font-size="10.00">_previous_</text>
</g>
<!-- Node7&#45;&gt;Node6 -->
<g id="edge6" class="edge">
<title>Node7&#45;&gt;Node6</title>
<path fill="none" stroke="#9a32cd" stroke-dasharray="5,2" d="M370.51,-527.81C408.99,-529.87 469.38,-534.26 521,-543.16 531.57,-544.98 542.76,-547.45 553.43,-550.08"/>
<polygon fill="#9a32cd" stroke="#9a32cd" points="370.43,-524.3 360.26,-527.29 370.07,-531.29 370.43,-524.3"/>
<text text-anchor="middle" x="481.5" y="-634.16" font-family="Helvetica,sans-Serif" font-size="10.00"> ud_acc</text>
<text text-anchor="middle" x="481.5" y="-623.16" font-family="Helvetica,sans-Serif" font-size="10.00">ud_angle</text>
<text text-anchor="middle" x="481.5" y="-612.16" font-family="Helvetica,sans-Serif" font-size="10.00">ud_angular_acc</text>
<text text-anchor="middle" x="481.5" y="-601.16" font-family="Helvetica,sans-Serif" font-size="10.00">ud_angular_rate</text>
<text text-anchor="start" x="442" y="-590.16" font-family="Helvetica,sans-Serif" font-size="10.00">ud_angular_rate</text>
<text text-anchor="middle" x="481.5" y="-579.16" font-family="Helvetica,sans-Serif" font-size="10.00">_dot</text>
<text text-anchor="middle" x="481.5" y="-568.16" font-family="Helvetica,sans-Serif" font-size="10.00">ud_angular_vel</text>
<text text-anchor="middle" x="481.5" y="-557.16" font-family="Helvetica,sans-Serif" font-size="10.00">ud_pos</text>
<text text-anchor="middle" x="481.5" y="-546.16" font-family="Helvetica,sans-Serif" font-size="10.00">ud_vel</text>
</g>
<!-- Node8 -->
<g id="node8" class="node">
<title>Node8</title>
<g id="a_node8"><a xlink:title=" ">
<polygon fill="white" stroke="#bfbfbf" points="577.5,-418.66 577.5,-437.66 637.5,-437.66 637.5,-418.66 577.5,-418.66"/>
<text text-anchor="middle" x="607.5" y="-425.66" font-family="Helvetica,sans-Serif" font-size="10.00">VectorXd</text>
</a>
</g>
</g>
<!-- Node8&#45;&gt;Node5 -->
<g id="edge7" class="edge">
<title>Node8&#45;&gt;Node5</title>
<path fill="none" stroke="#9a32cd" stroke-dasharray="5,2" d="M647.83,-424.47C686.6,-421.75 747.37,-419.92 799,-429.16 810.4,-431.2 822.3,-434.67 833.41,-438.55"/>
<polygon fill="#9a32cd" stroke="#9a32cd" points="647.21,-421.01 637.5,-425.26 647.74,-427.99 647.21,-421.01"/>
<text text-anchor="start" x="694" y="-487.16" font-family="Helvetica,sans-Serif" font-size="10.00"> landing_acceleration</text>
<text text-anchor="middle" x="746.5" y="-476.16" font-family="Helvetica,sans-Serif" font-size="10.00">_coef_z_</text>
<text text-anchor="start" x="694" y="-465.16" font-family="Helvetica,sans-Serif" font-size="10.00">landing_position</text>
<text text-anchor="middle" x="746.5" y="-454.16" font-family="Helvetica,sans-Serif" font-size="10.00">_coef_z_</text>
<text text-anchor="start" x="694" y="-443.16" font-family="Helvetica,sans-Serif" font-size="10.00">landing_velocity</text>
<text text-anchor="middle" x="746.5" y="-432.16" font-family="Helvetica,sans-Serif" font-size="10.00">_coef_z_</text>
</g>
<!-- Node9 -->
<g id="node9" class="node">
<title>Node9</title>
<g id="a_node9"><a xlink:title=" ">
<polygon fill="white" stroke="#bfbfbf" points="577,-197.66 577,-216.66 638,-216.66 638,-197.66 577,-197.66"/>
<text text-anchor="middle" x="607.5" y="-204.66" font-family="Helvetica,sans-Serif" font-size="10.00">MatrixXd</text>
</a>
</g>
</g>
<!-- Node9&#45;&gt;Node5 -->
<g id="edge9" class="edge">
<title>Node9&#45;&gt;Node5</title>
<path fill="none" stroke="#9a32cd" stroke-dasharray="5,2" d="M647.91,-198.18C689.81,-191.07 755.83,-187.12 799,-220.16 869.24,-273.92 880.02,-391.12 881.42,-438.59"/>
<polygon fill="#9a32cd" stroke="#9a32cd" points="647.28,-194.74 638.07,-199.99 648.54,-201.63 647.28,-194.74"/>
<text text-anchor="start" x="696" y="-410.16" font-family="Helvetica,sans-Serif" font-size="10.00"> acceleration_coef_x</text>
<text text-anchor="middle" x="746.5" y="-399.16" font-family="Helvetica,sans-Serif" font-size="10.00">_</text>
<text text-anchor="start" x="696" y="-388.16" font-family="Helvetica,sans-Serif" font-size="10.00">acceleration_coef</text>
<text text-anchor="middle" x="746.5" y="-377.16" font-family="Helvetica,sans-Serif" font-size="10.00">_y_</text>
<text text-anchor="start" x="696" y="-366.16" font-family="Helvetica,sans-Serif" font-size="10.00">acceleration_coef</text>
<text text-anchor="middle" x="746.5" y="-355.16" font-family="Helvetica,sans-Serif" font-size="10.00">_z_</text>
<text text-anchor="middle" x="746.5" y="-344.16" font-family="Helvetica,sans-Serif" font-size="10.00">jerk_coef_x_</text>
<text text-anchor="middle" x="746.5" y="-333.16" font-family="Helvetica,sans-Serif" font-size="10.00">jerk_coef_y_</text>
<text text-anchor="middle" x="746.5" y="-322.16" font-family="Helvetica,sans-Serif" font-size="10.00">jerk_coef_z_</text>
<text text-anchor="start" x="696" y="-311.16" font-family="Helvetica,sans-Serif" font-size="10.00">position_coef</text>
<text text-anchor="middle" x="746.5" y="-300.16" font-family="Helvetica,sans-Serif" font-size="10.00">_x_</text>
<text text-anchor="start" x="696" y="-289.16" font-family="Helvetica,sans-Serif" font-size="10.00">position_coef</text>
<text text-anchor="middle" x="746.5" y="-278.16" font-family="Helvetica,sans-Serif" font-size="10.00">_y_</text>
<text text-anchor="start" x="696" y="-267.16" font-family="Helvetica,sans-Serif" font-size="10.00">position_coef</text>
<text text-anchor="middle" x="746.5" y="-256.16" font-family="Helvetica,sans-Serif" font-size="10.00">_z_</text>
<text text-anchor="start" x="696" y="-245.16" font-family="Helvetica,sans-Serif" font-size="10.00">velocity_coef</text>
<text text-anchor="middle" x="746.5" y="-234.16" font-family="Helvetica,sans-Serif" font-size="10.00">_x_</text>
<text text-anchor="middle" x="746.5" y="-223.16" font-family="Helvetica,sans-Serif" font-size="10.00">...</text>
</g>
<!-- Node10 -->
<g id="node10" class="node">
<title>Node10</title>
<g id="a_node10"><a xlink:href="struct__qrbp___1_1__mrac__pid___1_1controller__internal__members.html" target="_top" xlink:title="Structure for the internal members of the controller.">
<polygon fill="white" stroke="black" points="551.5,-132.66 551.5,-173.66 663.5,-173.66 663.5,-132.66 551.5,-132.66"/>
<text text-anchor="start" x="559.5" y="-161.66" font-family="Helvetica,sans-Serif" font-size="10.00">_qrbp_::_mrac_pid_</text>
<text text-anchor="start" x="559.5" y="-150.66" font-family="Helvetica,sans-Serif" font-size="10.00">::controller_internal</text>
<text text-anchor="middle" x="607.5" y="-139.66" font-family="Helvetica,sans-Serif" font-size="10.00">_members</text>
</a>
</g>
</g>
<!-- Node10&#45;&gt;Node1 -->
<g id="edge11" class="edge">
<title>Node10&#45;&gt;Node1</title>
<path fill="none" stroke="#9a32cd" stroke-dasharray="5,2" d="M673.74,-152.9C751.46,-152.46 885.22,-151.28 1000,-148.16 1005.75,-148 1011.76,-147.81 1017.75,-147.59"/>
<polygon fill="#9a32cd" stroke="#9a32cd" points="673.6,-149.4 663.62,-152.96 673.64,-156.4 673.6,-149.4"/>
<text text-anchor="middle" x="882.5" y="-154.16" font-family="Helvetica,sans-Serif" font-size="10.00"> cim</text>
</g>
<!-- Node16 -->
<g id="node16" class="node">
<title>Node16</title>
<g id="a_node16"><a xlink:href="class__qrbp___1_1__mrac__pid___1_1mrac__pid__logger.html" target="_top" xlink:title=" ">
<polygon fill="white" stroke="black" points="827.5,-47.16 827.5,-77.16 937.5,-77.16 937.5,-47.16 827.5,-47.16"/>
<text text-anchor="start" x="835.5" y="-65.16" font-family="Helvetica,sans-Serif" font-size="10.00">_qrbp_::_mrac_pid_</text>
<text text-anchor="middle" x="882.5" y="-54.16" font-family="Helvetica,sans-Serif" font-size="10.00">::mrac_pid_logger</text>
</a>
</g>
</g>
<!-- Node10&#45;&gt;Node16 -->
<g id="edge19" class="edge">
<title>Node10&#45;&gt;Node16</title>
<path fill="none" stroke="#9a32cd" stroke-dasharray="5,2" d="M673.53,-131.48C723.73,-114.75 791.89,-92.03 836.28,-77.23"/>
<polygon fill="#9a32cd" stroke="#9a32cd" points="672.13,-128.26 663.75,-134.74 674.34,-134.9 672.13,-128.26"/>
<text text-anchor="middle" x="746.5" y="-126.16" font-family="Helvetica,sans-Serif" font-size="10.00"> CIM</text>
</g>
<!-- Node11 -->
<g id="node11" class="node">
<title>Node11</title>
<g id="a_node11"><a xlink:href="struct__qrbp___1_1__mrac__pid___1_1controller__internal__members__aero.html" target="_top" xlink:title="Structure for all the aerodynamic members of the controller.">
<polygon fill="white" stroke="black" points="274.5,-132.66 274.5,-173.66 386.5,-173.66 386.5,-132.66 274.5,-132.66"/>
<text text-anchor="start" x="282.5" y="-161.66" font-family="Helvetica,sans-Serif" font-size="10.00">_qrbp_::_mrac_pid_</text>
<text text-anchor="start" x="282.5" y="-150.66" font-family="Helvetica,sans-Serif" font-size="10.00">::controller_internal</text>
<text text-anchor="middle" x="330.5" y="-139.66" font-family="Helvetica,sans-Serif" font-size="10.00">_members_aero</text>
</a>
</g>
</g>
<!-- Node11&#45;&gt;Node10 -->
<g id="edge12" class="edge">
<title>Node11&#45;&gt;Node10</title>
<path fill="none" stroke="#9a32cd" stroke-dasharray="5,2" d="M396.91,-153.16C443.97,-153.16 506.73,-153.16 551.27,-153.16"/>
<polygon fill="#9a32cd" stroke="#9a32cd" points="396.82,-149.66 386.82,-153.16 396.82,-156.66 396.82,-149.66"/>
<text text-anchor="middle" x="481.5" y="-156.16" font-family="Helvetica,sans-Serif" font-size="10.00"> aero</text>
</g>
<!-- Node12 -->
<g id="node12" class="node">
<title>Node12</title>
<g id="a_node12"><a xlink:href="struct__qrbp___1_1AeroStates.html" target="_top" xlink:title="Angles for the wings and stabilizers.">
<polygon fill="white" stroke="black" points="29.5,-181.66 29.5,-200.66 137.5,-200.66 137.5,-181.66 29.5,-181.66"/>
<text text-anchor="middle" x="83.5" y="-188.66" font-family="Helvetica,sans-Serif" font-size="10.00">_qrbp_::AeroStates</text>
</a>
</g>
</g>
<!-- Node12&#45;&gt;Node11 -->
<g id="edge13" class="edge">
<title>Node12&#45;&gt;Node11</title>
<path fill="none" stroke="#9a32cd" stroke-dasharray="5,2" d="M147.64,-181.37C186.83,-175.29 236.71,-167.55 274.32,-161.72"/>
<polygon fill="#9a32cd" stroke="#9a32cd" points="147.01,-177.92 137.66,-182.91 148.08,-184.84 147.01,-177.92"/>
<text text-anchor="middle" x="202" y="-178.16" font-family="Helvetica,sans-Serif" font-size="10.00"> states</text>
</g>
<!-- Node13 -->
<g id="node13" class="node">
<title>Node13</title>
<g id="a_node13"><a xlink:href="struct__qrbp___1_1AeroCoeff.html" target="_top" xlink:title="Aerodynamic coefficients for the QRBP.">
<polygon fill="white" stroke="black" points="32,-143.66 32,-162.66 135,-162.66 135,-143.66 32,-143.66"/>
<text text-anchor="middle" x="83.5" y="-150.66" font-family="Helvetica,sans-Serif" font-size="10.00">_qrbp_::AeroCoeff</text>
</a>
</g>
</g>
<!-- Node13&#45;&gt;Node11 -->
<g id="edge14" class="edge">
<title>Node13&#45;&gt;Node11</title>
<path fill="none" stroke="#9a32cd" stroke-dasharray="5,2" d="M145.29,-153.16C184.75,-153.16 235.77,-153.16 274.11,-153.16"/>
<polygon fill="#9a32cd" stroke="#9a32cd" points="145.26,-149.66 135.26,-153.16 145.26,-156.66 145.26,-149.66"/>
<text text-anchor="middle" x="202" y="-156.16" font-family="Helvetica,sans-Serif" font-size="10.00"> coeff</text>
</g>
<!-- Node14 -->
<g id="node14" class="node">
<title>Node14</title>
<g id="a_node14"><a xlink:href="struct__qrbp___1_1AeroDynamicMembers.html" target="_top" xlink:title="Structre for all the aerodynamic members of the controller.">
<polygon fill="white" stroke="black" points="0,-105.66 0,-124.66 167,-124.66 167,-105.66 0,-105.66"/>
<text text-anchor="middle" x="83.5" y="-112.66" font-family="Helvetica,sans-Serif" font-size="10.00">_qrbp_::AeroDynamicMembers</text>
</a>
</g>
</g>
<!-- Node14&#45;&gt;Node11 -->
<g id="edge15" class="edge">
<title>Node14&#45;&gt;Node11</title>
<path fill="none" stroke="#9a32cd" stroke-dasharray="5,2" d="M155.92,-126.24C193.65,-132.09 239.25,-139.16 274.24,-144.59"/>
<polygon fill="#9a32cd" stroke="#9a32cd" points="156.43,-122.77 146.01,-124.7 155.35,-129.69 156.43,-122.77"/>
<text text-anchor="middle" x="202" y="-138.16" font-family="Helvetica,sans-Serif" font-size="10.00"> dyn</text>
</g>
<!-- Node15 -->
<g id="node15" class="node">
<title>Node15</title>
<g id="a_node15"><a xlink:href="struct__qrbp___1_1__mrac__pid___1_1controller__internal__parameters.html" target="_top" xlink:title="Structure for all parameter members of the controller.">
<polygon fill="white" stroke="black" points="826.5,-96.66 826.5,-137.66 938.5,-137.66 938.5,-96.66 826.5,-96.66"/>
<text text-anchor="start" x="834.5" y="-125.66" font-family="Helvetica,sans-Serif" font-size="10.00">_qrbp_::_mrac_pid_</text>
<text text-anchor="start" x="834.5" y="-114.66" font-family="Helvetica,sans-Serif" font-size="10.00">::controller_internal</text>
<text text-anchor="middle" x="882.5" y="-103.66" font-family="Helvetica,sans-Serif" font-size="10.00">_parameters</text>
</a>
</g>
</g>
<!-- Node15&#45;&gt;Node1 -->
<g id="edge16" class="edge">
<title>Node15&#45;&gt;Node1</title>
<path fill="none" stroke="#9a32cd" stroke-dasharray="5,2" d="M948.7,-126.85C971.27,-130.2 996.3,-133.92 1017.88,-137.12"/>
<polygon fill="#9a32cd" stroke="#9a32cd" points="948.93,-123.34 938.53,-125.33 947.91,-130.27 948.93,-123.34"/>
<text text-anchor="middle" x="983" y="-136.16" font-family="Helvetica,sans-Serif" font-size="10.00"> cip</text>
</g>
<!-- Node16&#45;&gt;Node1 -->
<g id="edge17" class="edge">
<title>Node16&#45;&gt;Node1</title>
<path fill="none" stroke="#9a32cd" stroke-dasharray="5,2" d="M933.2,-81.03C938.22,-83.05 943.22,-85.12 948,-87.16 980.24,-100.93 1016.49,-118.09 1041.43,-130.16"/>
<polygon fill="#9a32cd" stroke="#9a32cd" points="934.17,-77.65 923.58,-77.21 931.58,-84.16 934.17,-77.65"/>
<text text-anchor="middle" x="983" y="-113.16" font-family="Helvetica,sans-Serif" font-size="10.00"> logger</text>
</g>
<!-- Node17 -->
<g id="node17" class="node">
<title>Node17</title>
<g id="a_node17"><a xlink:href="class__flight__log___1_1blackbox.html" target="_top" xlink:title=" ">
<polygon fill="white" stroke="black" points="546.5,-66.66 546.5,-85.66 668.5,-85.66 668.5,-66.66 546.5,-66.66"/>
<text text-anchor="middle" x="607.5" y="-73.66" font-family="Helvetica,sans-Serif" font-size="10.00">_flight_log_::blackbox</text>
</a>
</g>
</g>
<!-- Node17&#45;&gt;Node16 -->
<g id="edge18" class="edge">
<title>Node17&#45;&gt;Node16</title>
<path fill="none" stroke="midnightblue" d="M679.01,-72.54C725.28,-70.17 784.89,-67.11 827.42,-64.93"/>
<polygon fill="midnightblue" stroke="midnightblue" points="678.56,-69.06 668.75,-73.07 678.92,-76.05 678.56,-69.06"/>
</g>
<!-- Node18 -->
<g id="node18" class="node">
<title>Node18</title>
<g id="a_node18"><a xlink:href="struct__qrbp___1_1__mrac__pid___1_1controller__integrated__state__members.html" target="_top" xlink:title="Structure for the members that are mapped to the rk4 vector after integration.">
<polygon fill="white" stroke="black" points="545,-1.66 545,-42.66 670,-42.66 670,-1.66 545,-1.66"/>
<text text-anchor="start" x="553" y="-30.66" font-family="Helvetica,sans-Serif" font-size="10.00">_qrbp_::_mrac_pid_</text>
<text text-anchor="start" x="553" y="-19.66" font-family="Helvetica,sans-Serif" font-size="10.00">::controller_integrated</text>
<text text-anchor="middle" x="607.5" y="-8.66" font-family="Helvetica,sans-Serif" font-size="10.00">_state_members</text>
</a>
</g>
</g>
<!-- Node18&#45;&gt;Node1 -->
<g id="edge21" class="edge">
<title>Node18&#45;&gt;Node1</title>
<path fill="none" stroke="#9a32cd" stroke-dasharray="5,2" d="M680.19,-8.54C751.04,1.6 861.14,8.31 948,-27.16 1000.27,-48.5 1043.26,-103.17 1061.95,-129.93"/>
<polygon fill="#9a32cd" stroke="#9a32cd" points="679.4,-5.12 670.02,-10.06 680.43,-12.04 679.4,-5.12"/>
<text text-anchor="middle" x="882.5" y="-30.16" font-family="Helvetica,sans-Serif" font-size="10.00"> csm</text>
</g>
<!-- Node18&#45;&gt;Node16 -->
<g id="edge20" class="edge">
<title>Node18&#45;&gt;Node16</title>
<path fill="none" stroke="#9a32cd" stroke-dasharray="5,2" d="M680.01,-32.64C726.01,-39.38 784.85,-48 827.05,-54.18"/>
<polygon fill="#9a32cd" stroke="#9a32cd" points="680.51,-29.17 670.11,-31.19 679.49,-36.1 680.51,-29.17"/>
<text text-anchor="middle" x="746.5" y="-52.16" font-family="Helvetica,sans-Serif" font-size="10.00"> CSM</text>
</g>
</g>
</svg>
        <g id="navigator" transform="translate(0 0)" fill="#404254">
                <rect fill="#f2f5e9" fill-opacity="0.5" stroke="#606060" stroke-width=".5" x="0" y="0" width="60" height="60"/>
                <use id="zoomplus" xlink:href="#zoomPlus" x="17" y="9" onmousedown="handleZoom(evt,'in')"/>
                <use id="zoomminus" xlink:href="#zoomMin" x="42" y="9" onmousedown="handleZoom(evt,'out')"/>
                <use id="reset" xlink:href="#resetDef" x="30" y="36" onmousedown="handleReset()"/>
                <g id="arrowUp" xlink:href="#dirArrow" transform="translate(30 24)" onmousedown="handlePan(0,-1)">
                  <use xlink:href="#rim" fill="#404040">
                        <set attributeName="fill" to="#808080" begin="arrowUp.mouseover" end="arrowUp.mouseout"/>
                  </use>
                  <path fill="none" stroke="white" stroke-width="1.5" d="M0,-3.0v7 M-2.5,-0.5L0,-3.0L2.5,-0.5"/>
                </g>
                <g id="arrowRight" xlink:href="#dirArrow" transform="rotate(90) translate(36 -43)" onmousedown="handlePan(1,0)">
                  <use xlink:href="#rim" fill="#404040">
                        <set attributeName="fill" to="#808080" begin="arrowRight.mouseover" end="arrowRight.mouseout"/>
                  </use>
                  <path fill="none" stroke="white" stroke-width="1.5" d="M0,-3.0v7 M-2.5,-0.5L0,-3.0L2.5,-0.5"/>
                </g>
                <g id="arrowDown" xlink:href="#dirArrow" transform="rotate(180) translate(-30 -48)" onmousedown="handlePan(0,1)">
                  <use xlink:href="#rim" fill="#404040">
                        <set attributeName="fill" to="#808080" begin="arrowDown.mouseover" end="arrowDown.mouseout"/>
                  </use>
                  <path fill="none" stroke="white" stroke-width="1.5" d="M0,-3.0v7 M-2.5,-0.5L0,-3.0L2.5,-0.5"/>
                </g>
                <g id="arrowLeft" xlink:href="#dirArrow" transform="rotate(270) translate(-36 17)" onmousedown="handlePan(-1,0)">
                  <use xlink:href="#rim" fill="#404040">
                        <set attributeName="fill" to="#808080" begin="arrowLeft.mouseover" end="arrowLeft.mouseout"/>
                  </use>
                  <path fill="none" stroke="white" stroke-width="1.5" d="M0,-3.0v7 M-2.5,-0.5L0,-3.0L2.5,-0.5"/>
                </g>
        </g>
        <svg viewBox="0 0 15 15" width="100%" height="30px" preserveAspectRatio="xMaxYMin meet">
         <g id="arrow_out" transform="scale(0.3 0.3)">
          <a xlink:href="class__qrbp___1_1__mrac__pid___1_1mrac__pid__coll__graph_org.svg" target="_base">
           <rect id="button" ry="5" rx="5" y="6" x="6" height="38" width="38"
                fill="#f2f5e9" fill-opacity="0.5" stroke="#606060" stroke-width="1.0"/>
           <path id="arrow"
             d="M 11.500037,31.436501 C 11.940474,20.09759 22.043105,11.32322 32.158766,21.979434 L 37.068811,17.246167 C 37.068811,17.246167 37.088388,32 37.088388,32 L 22.160133,31.978069 C 22.160133,31.978069 26.997745,27.140456 26.997745,27.140456 C 18.528582,18.264221 13.291696,25.230495 11.500037,31.436501 z"
             style="fill:#404040;"/>
          </a>
         </g>
        </svg>
</svg>
