<?xml version="1.0" encoding="UTF-8" standalone="no"?>
<!DOCTYPE svg PUBLIC "-//W3C//DTD SVG 1.1//EN"
 "http://www.w3.org/Graphics/SVG/1.1/DTD/svg11.dtd">
<!-- Generated by graphviz version 2.43.0 (0)
 -->
<!-- Title: _flight_bridge_::flight_bridge Pages: 1 -->
<svg width="248pt" height="173pt"
 viewBox="0.00 0.00 248.00 173.00" xmlns="http://www.w3.org/2000/svg" xmlns:xlink="http://www.w3.org/1999/xlink">
<g id="graph0" class="graph" transform="scale(1 1) rotate(0) translate(4 169)">
<title>_flight_bridge_::flight_bridge</title>
<polygon fill="white" stroke="transparent" points="-4,4 -4,-169 244,-169 244,4 -4,4"/>
<!-- Node1 -->
<g id="node1" class="node">
<title>Node1</title>
<g id="a_node1"><a xlink:title="flight_bridge class">
<polygon fill="#bfbfbf" stroke="black" points="25,-0.5 25,-30.5 144,-30.5 144,-0.5 25,-0.5"/>
<text text-anchor="start" x="33" y="-18.5" font-family="Helvetica,sans-Serif" font-size="10.00">_flight_bridge_::flight</text>
<text text-anchor="middle" x="84.5" y="-7.5" font-family="Helvetica,sans-Serif" font-size="10.00">_bridge</text>
</a>
</g>
</g>
<!-- Node2 -->
<g id="node2" class="node">
<title>Node2</title>
<g id="a_node2"><a xlink:href="classvehicle__states.html" target="_top" xlink:title="vehicle state class">
<polygon fill="white" stroke="black" points="0,-78.5 0,-97.5 87,-97.5 87,-78.5 0,-78.5"/>
<text text-anchor="middle" x="43.5" y="-85.5" font-family="Helvetica,sans-Serif" font-size="10.00">vehicle_states</text>
</a>
</g>
</g>
<!-- Node2&#45;&gt;Node1 -->
<g id="edge1" class="edge">
<title>Node2&#45;&gt;Node1</title>
<path fill="none" stroke="#9a32cd" stroke-dasharray="5,2" d="M53.05,-69.32C56.58,-62.89 60.66,-55.58 64.5,-49 68.04,-42.93 72.08,-36.32 75.59,-30.65"/>
<polygon fill="#9a32cd" stroke="#9a32cd" points="49.77,-68.03 48.06,-78.48 55.91,-71.37 49.77,-68.03"/>
<text text-anchor="middle" x="84" y="-52" font-family="Helvetica,sans-Serif" font-size="10.00"> vehicle</text>
</g>
<!-- Node3 -->
<g id="node3" class="node">
<title>Node3</title>
<g id="a_node3"><a xlink:href="structflight__params.html" target="_top" xlink:title="If you are adding more parameters to your flight in /src/acsl_flight/params/flight_params....">
<polygon fill="white" stroke="black" points="105,-78.5 105,-97.5 188,-97.5 188,-78.5 105,-78.5"/>
<text text-anchor="middle" x="146.5" y="-85.5" font-family="Helvetica,sans-Serif" font-size="10.00">flight_params</text>
</a>
</g>
</g>
<!-- Node3&#45;&gt;Node1 -->
<g id="edge2" class="edge">
<title>Node3&#45;&gt;Node1</title>
<path fill="none" stroke="#9a32cd" stroke-dasharray="5,2" d="M132.2,-70.74C121.52,-58.6 107.07,-42.16 96.88,-30.58"/>
<polygon fill="#9a32cd" stroke="#9a32cd" points="129.67,-73.16 138.9,-78.36 134.92,-68.53 129.67,-73.16"/>
<text text-anchor="middle" x="165" y="-52" font-family="Helvetica,sans-Serif" font-size="10.00"> flight_params_ptr</text>
</g>
<!-- Node4 -->
<g id="node4" class="node">
<title>Node4</title>
<g id="a_node4"><a xlink:href="structPiecewisePolynomialTrajectoryInfo.html" target="_top" xlink:title="Struct containing the trajectory info coming from the .json file.">
<polygon fill="white" stroke="black" points="53,-145.5 53,-164.5 240,-164.5 240,-145.5 53,-145.5"/>
<text text-anchor="middle" x="146.5" y="-152.5" font-family="Helvetica,sans-Serif" font-size="10.00">PiecewisePolynomialTrajectoryInfo</text>
</a>
</g>
</g>
<!-- Node4&#45;&gt;Node3 -->
<g id="edge3" class="edge">
<title>Node4&#45;&gt;Node3</title>
<path fill="none" stroke="#9a32cd" stroke-dasharray="5,2" d="M146.5,-135.04C146.5,-122.67 146.5,-107.12 146.5,-97.63"/>
<polygon fill="#9a32cd" stroke="#9a32cd" points="143,-135.23 146.5,-145.23 150,-135.23 143,-135.23"/>
<text text-anchor="middle" x="177.5" y="-119" font-family="Helvetica,sans-Serif" font-size="10.00"> traj_params</text>
</g>
</g>
</svg>
