<?xml version="1.0" encoding="UTF-8" standalone="no"?>
<!DOCTYPE svg PUBLIC "-//W3C//DTD SVG 1.1//EN"
 "http://www.w3.org/Graphics/SVG/1.1/DTD/svg11.dtd">
<!-- Generated by graphviz version 2.43.0 (0)
 -->
<!-- Title: _drivers_::_udp_driver_::UdpReceiverNode Pages: 1 -->
<svg width="350pt" height="154pt"
 viewBox="0.00 0.00 350.00 153.50" xmlns="http://www.w3.org/2000/svg" xmlns:xlink="http://www.w3.org/1999/xlink">
<g id="graph0" class="graph" transform="scale(1 1) rotate(0) translate(4 149.5)">
<title>_drivers_::_udp_driver_::UdpReceiverNode</title>
<polygon fill="white" stroke="transparent" points="-4,4 -4,-149.5 346,-149.5 346,4 -4,4"/>
<!-- Node1 -->
<g id="node1" class="node">
<title>Node1</title>
<g id="a_node1"><a xlink:title="UdpReceiverNode class which can receive UDP datagrams.">
<polygon fill="#bfbfbf" stroke="black" points="218,-63.5 218,-93.5 342,-93.5 342,-63.5 218,-63.5"/>
<text text-anchor="start" x="226" y="-81.5" font-family="Helvetica,sans-Serif" font-size="10.00">_drivers_::_udp_driver</text>
<text text-anchor="middle" x="280" y="-70.5" font-family="Helvetica,sans-Serif" font-size="10.00">_::UdpReceiverNode</text>
</a>
</g>
</g>
<!-- Node2 -->
<g id="node2" class="node">
<title>Node2</title>
<g id="a_node2"><a xlink:title=" ">
<polygon fill="white" stroke="#bfbfbf" points="12,-126 12,-145 112,-145 112,-126 12,-126"/>
<text text-anchor="middle" x="62" y="-133" font-family="Helvetica,sans-Serif" font-size="10.00">lc::LifecycleNode</text>
</a>
</g>
</g>
<!-- Node2&#45;&gt;Node1 -->
<g id="edge1" class="edge">
<title>Node2&#45;&gt;Node1</title>
<path fill="none" stroke="midnightblue" d="M113.26,-123.54C139.23,-117.23 171.38,-109.21 200,-101.5 209.24,-99.01 219.06,-96.25 228.51,-93.53"/>
<polygon fill="midnightblue" stroke="midnightblue" points="112.17,-120.2 103.27,-125.95 113.82,-127 112.17,-120.2"/>
</g>
<!-- Node3 -->
<g id="node3" class="node">
<title>Node3</title>
<g id="a_node3"><a xlink:href="class__flight__log___1_1blackbox.html" target="_top" xlink:title=" ">
<polygon fill="white" stroke="black" points="1,-88 1,-107 123,-107 123,-88 1,-88"/>
<text text-anchor="middle" x="62" y="-95" font-family="Helvetica,sans-Serif" font-size="10.00">_flight_log_::blackbox</text>
</a>
</g>
</g>
<!-- Node3&#45;&gt;Node1 -->
<g id="edge2" class="edge">
<title>Node3&#45;&gt;Node1</title>
<path fill="none" stroke="midnightblue" d="M133.39,-91.31C160.58,-88.92 191.39,-86.21 217.65,-83.9"/>
<polygon fill="midnightblue" stroke="midnightblue" points="132.82,-87.84 123.17,-92.21 133.44,-94.82 132.82,-87.84"/>
</g>
<!-- Node4 -->
<g id="node4" class="node">
<title>Node4</title>
<g id="a_node4"><a xlink:href="classvehicle__states.html" target="_top" xlink:title="vehicle state class">
<polygon fill="white" stroke="black" points="18.5,-50 18.5,-69 105.5,-69 105.5,-50 18.5,-50"/>
<text text-anchor="middle" x="62" y="-57" font-family="Helvetica,sans-Serif" font-size="10.00">vehicle_states</text>
</a>
</g>
</g>
<!-- Node4&#45;&gt;Node1 -->
<g id="edge3" class="edge">
<title>Node4&#45;&gt;Node1</title>
<path fill="none" stroke="#9a32cd" stroke-dasharray="5,2" d="M115.79,-63.48C141.25,-65.47 172.22,-67.98 200,-70.5 205.77,-71.02 211.77,-71.59 217.77,-72.17"/>
<polygon fill="#9a32cd" stroke="#9a32cd" points="115.84,-59.97 105.6,-62.69 115.3,-66.95 115.84,-59.97"/>
<text text-anchor="middle" x="171" y="-73.5" font-family="Helvetica,sans-Serif" font-size="10.00"> vehicle_ptr</text>
</g>
<!-- Node5 -->
<g id="node5" class="node">
<title>Node5</title>
<g id="a_node5"><a xlink:href="struct__drivers___1_1__udp__driver___1_1mocap__states.html" target="_top" xlink:title=" ">
<polygon fill="white" stroke="black" points="0,-0.5 0,-30.5 124,-30.5 124,-0.5 0,-0.5"/>
<text text-anchor="start" x="8" y="-18.5" font-family="Helvetica,sans-Serif" font-size="10.00">_drivers_::_udp_driver</text>
<text text-anchor="middle" x="62" y="-7.5" font-family="Helvetica,sans-Serif" font-size="10.00">_::mocap_states</text>
</a>
</g>
</g>
<!-- Node5&#45;&gt;Node1 -->
<g id="edge4" class="edge">
<title>Node5&#45;&gt;Node1</title>
<path fill="none" stroke="#9a32cd" stroke-dasharray="5,2" d="M133.99,-32.34C155.32,-37.74 178.71,-44.02 200,-50.5 212.67,-54.35 226.31,-59.01 238.64,-63.4"/>
<polygon fill="#9a32cd" stroke="#9a32cd" points="134.58,-28.87 124.03,-29.83 132.87,-35.66 134.58,-28.87"/>
<text text-anchor="middle" x="171" y="-53.5" font-family="Helvetica,sans-Serif" font-size="10.00"> mc_im</text>
</g>
</g>
</svg>
