<?xml version="1.0" encoding="UTF-8" standalone="no"?>
<!DOCTYPE svg PUBLIC "-//W3C//DTD SVG 1.1//EN"
 "http://www.w3.org/Graphics/SVG/1.1/DTD/svg11.dtd">
<!-- Generated by graphviz version 2.43.0 (0)
 -->
<!-- Title: _read_pix_::read_odometryNode Pages: 1 -->
<svg width="510pt" height="173pt"
 viewBox="0.00 0.00 510.00 173.00" xmlns="http://www.w3.org/2000/svg" xmlns:xlink="http://www.w3.org/1999/xlink">
<g id="graph0" class="graph" transform="scale(1 1) rotate(0) translate(4 169)">
<title>_read_pix_::read_odometryNode</title>
<polygon fill="white" stroke="transparent" points="-4,4 -4,-169 506,-169 506,4 -4,4"/>
<!-- Node1 -->
<g id="node1" class="node">
<title>Node1</title>
<g id="a_node1"><a xlink:title="READ ODOMETRY CLASS.">
<polygon fill="#bfbfbf" stroke="black" points="119,-0.5 119,-19.5 294,-19.5 294,-0.5 119,-0.5"/>
<text text-anchor="middle" x="206.5" y="-7.5" font-family="Helvetica,sans-Serif" font-size="10.00">_read_pix_::read_odometryNode</text>
</a>
</g>
</g>
<!-- Node2 -->
<g id="node2" class="node">
<title>Node2</title>
<g id="a_node2"><a xlink:title=" ">
<polygon fill="white" stroke="#bfbfbf" points="0,-73 0,-92 77,-92 77,-73 0,-73"/>
<text text-anchor="middle" x="38.5" y="-80" font-family="Helvetica,sans-Serif" font-size="10.00">rclcpp::Node</text>
</a>
</g>
</g>
<!-- Node2&#45;&gt;Node1 -->
<g id="edge1" class="edge">
<title>Node2&#45;&gt;Node1</title>
<path fill="none" stroke="midnightblue" d="M68.16,-69.05C102.09,-54.82 156.73,-31.88 186.16,-19.53"/>
<polygon fill="midnightblue" stroke="midnightblue" points="66.63,-65.9 58.76,-73 69.34,-72.35 66.63,-65.9"/>
</g>
<!-- Node3 -->
<g id="node3" class="node">
<title>Node3</title>
<g id="a_node3"><a xlink:href="classvehicle__states.html" target="_top" xlink:title="vehicle state class">
<polygon fill="white" stroke="black" points="95,-73 95,-92 182,-92 182,-73 95,-73"/>
<text text-anchor="middle" x="138.5" y="-80" font-family="Helvetica,sans-Serif" font-size="10.00">vehicle_states</text>
</a>
</g>
</g>
<!-- Node3&#45;&gt;Node1 -->
<g id="edge2" class="edge">
<title>Node3&#45;&gt;Node1</title>
<path fill="none" stroke="#9a32cd" stroke-dasharray="5,2" d="M154.13,-65.3C167.81,-51.12 187.15,-31.06 198.09,-19.72"/>
<polygon fill="#9a32cd" stroke="#9a32cd" points="151.26,-63.23 146.84,-72.86 156.3,-68.09 151.26,-63.23"/>
<text text-anchor="middle" x="207.5" y="-41" font-family="Helvetica,sans-Serif" font-size="10.00"> vehicle_ptr</text>
</g>
<!-- Node4 -->
<g id="node4" class="node">
<title>Node4</title>
<g id="a_node4"><a xlink:href="struct__read__pix___1_1read__odometryNode_1_1init__state.html" target="_top" xlink:title="Private variable for initial vehicle state.">
<polygon fill="white" stroke="black" points="200,-67.5 200,-97.5 349,-97.5 349,-67.5 200,-67.5"/>
<text text-anchor="start" x="208" y="-85.5" font-family="Helvetica,sans-Serif" font-size="10.00">_read_pix_::read_odometry</text>
<text text-anchor="middle" x="274.5" y="-74.5" font-family="Helvetica,sans-Serif" font-size="10.00">Node::init_state</text>
</a>
</g>
</g>
<!-- Node4&#45;&gt;Node1 -->
<g id="edge3" class="edge">
<title>Node4&#45;&gt;Node1</title>
<path fill="none" stroke="#9a32cd" stroke-dasharray="5,2" d="M258.55,-59.02C253.15,-51.99 246.86,-44.41 240.5,-38 233.81,-31.26 225.47,-24.61 218.72,-19.6"/>
<polygon fill="#9a32cd" stroke="#9a32cd" points="256.08,-61.56 264.86,-67.49 261.69,-57.38 256.08,-61.56"/>
<text text-anchor="middle" x="269.5" y="-41" font-family="Helvetica,sans-Serif" font-size="10.00"> initvals</text>
</g>
<!-- Node5 -->
<g id="node5" class="node">
<title>Node5</title>
<g id="a_node5"><a xlink:href="structflight__params.html" target="_top" xlink:title="If you are adding more parameters to your flight in /src/acsl_flight/params/flight_params....">
<polygon fill="white" stroke="black" points="367,-73 367,-92 450,-92 450,-73 367,-73"/>
<text text-anchor="middle" x="408.5" y="-80" font-family="Helvetica,sans-Serif" font-size="10.00">flight_params</text>
</a>
</g>
</g>
<!-- Node5&#45;&gt;Node1 -->
<g id="edge4" class="edge">
<title>Node5&#45;&gt;Node1</title>
<path fill="none" stroke="#9a32cd" stroke-dasharray="5,2" d="M377.44,-69.17C354.41,-60.16 322.16,-47.86 293.5,-38 274.36,-31.42 252.61,-24.67 235.64,-19.56"/>
<polygon fill="#9a32cd" stroke="#9a32cd" points="376.44,-72.53 387.02,-72.93 378.99,-66.02 376.44,-72.53"/>
<text text-anchor="middle" x="366" y="-41" font-family="Helvetica,sans-Serif" font-size="10.00"> flight_params_ptr</text>
</g>
<!-- Node6 -->
<g id="node6" class="node">
<title>Node6</title>
<g id="a_node6"><a xlink:href="structPiecewisePolynomialTrajectoryInfo.html" target="_top" xlink:title="Struct containing the trajectory info coming from the .json file.">
<polygon fill="white" stroke="black" points="315,-145.5 315,-164.5 502,-164.5 502,-145.5 315,-145.5"/>
<text text-anchor="middle" x="408.5" y="-152.5" font-family="Helvetica,sans-Serif" font-size="10.00">PiecewisePolynomialTrajectoryInfo</text>
</a>
</g>
</g>
<!-- Node6&#45;&gt;Node5 -->
<g id="edge5" class="edge">
<title>Node6&#45;&gt;Node5</title>
<path fill="none" stroke="#9a32cd" stroke-dasharray="5,2" d="M408.5,-134.94C408.5,-121.03 408.5,-102.82 408.5,-92.22"/>
<polygon fill="#9a32cd" stroke="#9a32cd" points="405,-135.36 408.5,-145.36 412,-135.36 405,-135.36"/>
<text text-anchor="middle" x="439.5" y="-119" font-family="Helvetica,sans-Serif" font-size="10.00"> traj_params</text>
</g>
</g>
</svg>
