<?xml version="1.0" encoding="UTF-8" standalone="no"?>
<!DOCTYPE svg PUBLIC "-//W3C//DTD SVG 1.1//EN"
 "http://www.w3.org/Graphics/SVG/1.1/DTD/svg11.dtd">
<!-- Generated by graphviz version 2.43.0 (0)
 -->
<!-- Title: ACSL&#45;flightstack&#45;winged/src/acsl_flight/include/utils/lyapunov_solver/continuous_lyapunov_equation.cpp Pages: 1 -->
<svg width="452pt" height="184pt"
 viewBox="0.00 0.00 452.00 184.00" xmlns="http://www.w3.org/2000/svg" xmlns:xlink="http://www.w3.org/1999/xlink">
<g id="graph0" class="graph" transform="scale(1 1) rotate(0) translate(4 180)">
<title>ACSL&#45;flightstack&#45;winged/src/acsl_flight/include/utils/lyapunov_solver/continuous_lyapunov_equation.cpp</title>
<polygon fill="white" stroke="transparent" points="-4,4 -4,-180 448,-180 448,4 -4,4"/>
<!-- Node1 -->
<g id="node1" class="node">
<title>Node1</title>
<g id="a_node1"><a xlink:title=" ">
<polygon fill="#bfbfbf" stroke="black" points="142.5,-123.5 142.5,-175.5 322.5,-175.5 322.5,-123.5 142.5,-123.5"/>
<text text-anchor="start" x="150.5" y="-163.5" font-family="Helvetica,sans-Serif" font-size="10.00">ACSL&#45;flightstack&#45;winged</text>
<text text-anchor="start" x="150.5" y="-152.5" font-family="Helvetica,sans-Serif" font-size="10.00">/src/acsl_flight/include</text>
<text text-anchor="start" x="150.5" y="-141.5" font-family="Helvetica,sans-Serif" font-size="10.00">/utils/lyapunov_solver/continuous</text>
<text text-anchor="middle" x="232.5" y="-130.5" font-family="Helvetica,sans-Serif" font-size="10.00">_lyapunov_equation.cpp</text>
</a>
</g>
</g>
<!-- Node2 -->
<g id="node2" class="node">
<title>Node2</title>
<g id="a_node2"><a xlink:href="continuous__lyapunov__equation_8hpp.html" target="_top" xlink:title="The following code uses a different convention from MATLAB.">
<polygon fill="white" stroke="black" points="172.5,-56.5 172.5,-86.5 292.5,-86.5 292.5,-56.5 172.5,-56.5"/>
<text text-anchor="start" x="180.5" y="-74.5" font-family="Helvetica,sans-Serif" font-size="10.00">continuous_lyapunov</text>
<text text-anchor="middle" x="232.5" y="-63.5" font-family="Helvetica,sans-Serif" font-size="10.00">_equation.hpp</text>
</a>
</g>
</g>
<!-- Node1&#45;&gt;Node2 -->
<g id="edge1" class="edge">
<title>Node1&#45;&gt;Node2</title>
<path fill="none" stroke="midnightblue" d="M232.5,-123.19C232.5,-114.79 232.5,-105.44 232.5,-97.09"/>
<polygon fill="midnightblue" stroke="midnightblue" points="236,-96.85 232.5,-86.85 229,-96.85 236,-96.85"/>
</g>
<!-- Node3 -->
<g id="node3" class="node">
<title>Node3</title>
<g id="a_node3"><a xlink:title=" ">
<polygon fill="white" stroke="#bfbfbf" points="0,-0.5 0,-19.5 77,-19.5 77,-0.5 0,-0.5"/>
<text text-anchor="middle" x="38.5" y="-7.5" font-family="Helvetica,sans-Serif" font-size="10.00">Eigen/Dense</text>
</a>
</g>
</g>
<!-- Node2&#45;&gt;Node3 -->
<g id="edge2" class="edge">
<title>Node2&#45;&gt;Node3</title>
<path fill="none" stroke="midnightblue" d="M186.52,-56.4C152.86,-46.07 107.72,-32.23 76.18,-22.56"/>
<polygon fill="midnightblue" stroke="midnightblue" points="77.03,-19.16 66.45,-19.57 74.98,-25.85 77.03,-19.16"/>
</g>
<!-- Node4 -->
<g id="node4" class="node">
<title>Node4</title>
<g id="a_node4"><a xlink:title=" ">
<polygon fill="white" stroke="#bfbfbf" points="95,-0.5 95,-19.5 156,-19.5 156,-0.5 95,-0.5"/>
<text text-anchor="middle" x="125.5" y="-7.5" font-family="Helvetica,sans-Serif" font-size="10.00">Eigen/QR</text>
</a>
</g>
</g>
<!-- Node2&#45;&gt;Node4 -->
<g id="edge3" class="edge">
<title>Node2&#45;&gt;Node4</title>
<path fill="none" stroke="midnightblue" d="M207.14,-56.4C189.83,-46.77 167.02,-34.09 149.92,-24.58"/>
<polygon fill="midnightblue" stroke="midnightblue" points="151.51,-21.46 141.07,-19.66 148.11,-27.58 151.51,-21.46"/>
</g>
<!-- Node5 -->
<g id="node5" class="node">
<title>Node5</title>
<g id="a_node5"><a xlink:title=" ">
<polygon fill="white" stroke="#bfbfbf" points="174,-0.5 174,-19.5 221,-19.5 221,-0.5 174,-0.5"/>
<text text-anchor="middle" x="197.5" y="-7.5" font-family="Helvetica,sans-Serif" font-size="10.00">cmath</text>
</a>
</g>
</g>
<!-- Node2&#45;&gt;Node5 -->
<g id="edge4" class="edge">
<title>Node2&#45;&gt;Node5</title>
<path fill="none" stroke="midnightblue" d="M224.21,-56.4C219.28,-48.02 212.99,-37.33 207.75,-28.42"/>
<polygon fill="midnightblue" stroke="midnightblue" points="210.68,-26.5 202.59,-19.66 204.65,-30.05 210.68,-26.5"/>
</g>
<!-- Node6 -->
<g id="node6" class="node">
<title>Node6</title>
<g id="a_node6"><a xlink:title=" ">
<polygon fill="white" stroke="#bfbfbf" points="239,-0.5 239,-19.5 298,-19.5 298,-0.5 239,-0.5"/>
<text text-anchor="middle" x="268.5" y="-7.5" font-family="Helvetica,sans-Serif" font-size="10.00">complex</text>
</a>
</g>
</g>
<!-- Node2&#45;&gt;Node6 -->
<g id="edge5" class="edge">
<title>Node2&#45;&gt;Node6</title>
<path fill="none" stroke="midnightblue" d="M241.03,-56.4C246.1,-48.02 252.57,-37.33 257.96,-28.42"/>
<polygon fill="midnightblue" stroke="midnightblue" points="261.08,-30.03 263.26,-19.66 255.09,-26.4 261.08,-30.03"/>
</g>
<!-- Node7 -->
<g id="node7" class="node">
<title>Node7</title>
<g id="a_node7"><a xlink:title=" ">
<polygon fill="white" stroke="#bfbfbf" points="316.5,-0.5 316.5,-19.5 360.5,-19.5 360.5,-0.5 316.5,-0.5"/>
<text text-anchor="middle" x="338.5" y="-7.5" font-family="Helvetica,sans-Serif" font-size="10.00">limits</text>
</a>
</g>
</g>
<!-- Node2&#45;&gt;Node7 -->
<g id="edge6" class="edge">
<title>Node2&#45;&gt;Node7</title>
<path fill="none" stroke="midnightblue" d="M257.62,-56.4C274.77,-46.77 297.36,-34.09 314.31,-24.58"/>
<polygon fill="midnightblue" stroke="midnightblue" points="316.07,-27.6 323.08,-19.66 312.64,-21.5 316.07,-27.6"/>
</g>
<!-- Node8 -->
<g id="node8" class="node">
<title>Node8</title>
<g id="a_node8"><a xlink:title=" ">
<polygon fill="white" stroke="#bfbfbf" points="379,-0.5 379,-19.5 444,-19.5 444,-0.5 379,-0.5"/>
<text text-anchor="middle" x="411.5" y="-7.5" font-family="Helvetica,sans-Serif" font-size="10.00">stdexcept</text>
</a>
</g>
</g>
<!-- Node2&#45;&gt;Node8 -->
<g id="edge7" class="edge">
<title>Node2&#45;&gt;Node8</title>
<path fill="none" stroke="midnightblue" d="M274.92,-56.4C305.72,-46.16 346.91,-32.47 375.98,-22.81"/>
<polygon fill="midnightblue" stroke="midnightblue" points="377.33,-26.05 385.72,-19.57 375.12,-19.4 377.33,-26.05"/>
</g>
</g>
</svg>
