<?xml version="1.0" encoding="UTF-8" standalone="no"?>
<!DOCTYPE svg PUBLIC "-//W3C//DTD SVG 1.1//EN"
 "http://www.w3.org/Graphics/SVG/1.1/DTD/svg11.dtd">
<!-- Generated by graphviz version 2.43.0 (0)
 -->
<!-- Title: ACSL&#45;flightstack&#45;winged/src/acsl_flight/include/utils/lyapunov_solver/continuous_lyapunov_equation.hpp Pages: 1 -->
<svg width="452pt" height="117pt"
 viewBox="0.00 0.00 452.00 117.00" xmlns="http://www.w3.org/2000/svg" xmlns:xlink="http://www.w3.org/1999/xlink">
<g id="graph0" class="graph" transform="scale(1 1) rotate(0) translate(4 113)">
<title>ACSL&#45;flightstack&#45;winged/src/acsl_flight/include/utils/lyapunov_solver/continuous_lyapunov_equation.hpp</title>
<polygon fill="white" stroke="transparent" points="-4,4 -4,-113 448,-113 448,4 -4,4"/>
<!-- Node1 -->
<g id="node1" class="node">
<title>Node1</title>
<g id="a_node1"><a xlink:title="The following code uses a different convention from MATLAB.">
<polygon fill="#bfbfbf" stroke="black" points="142.5,-56.5 142.5,-108.5 322.5,-108.5 322.5,-56.5 142.5,-56.5"/>
<text text-anchor="start" x="150.5" y="-96.5" font-family="Helvetica,sans-Serif" font-size="10.00">ACSL&#45;flightstack&#45;winged</text>
<text text-anchor="start" x="150.5" y="-85.5" font-family="Helvetica,sans-Serif" font-size="10.00">/src/acsl_flight/include</text>
<text text-anchor="start" x="150.5" y="-74.5" font-family="Helvetica,sans-Serif" font-size="10.00">/utils/lyapunov_solver/continuous</text>
<text text-anchor="middle" x="232.5" y="-63.5" font-family="Helvetica,sans-Serif" font-size="10.00">_lyapunov_equation.hpp</text>
</a>
</g>
</g>
<!-- Node2 -->
<g id="node2" class="node">
<title>Node2</title>
<g id="a_node2"><a xlink:title=" ">
<polygon fill="white" stroke="#bfbfbf" points="0,-0.5 0,-19.5 77,-19.5 77,-0.5 0,-0.5"/>
<text text-anchor="middle" x="38.5" y="-7.5" font-family="Helvetica,sans-Serif" font-size="10.00">Eigen/Dense</text>
</a>
</g>
</g>
<!-- Node1&#45;&gt;Node2 -->
<g id="edge1" class="edge">
<title>Node1&#45;&gt;Node2</title>
<path fill="none" stroke="midnightblue" d="M163.56,-56.45C132.21,-45.06 96.59,-32.11 71.41,-22.96"/>
<polygon fill="midnightblue" stroke="midnightblue" points="72.56,-19.65 61.96,-19.53 70.17,-26.23 72.56,-19.65"/>
</g>
<!-- Node3 -->
<g id="node3" class="node">
<title>Node3</title>
<g id="a_node3"><a xlink:title=" ">
<polygon fill="white" stroke="#bfbfbf" points="95,-0.5 95,-19.5 156,-19.5 156,-0.5 95,-0.5"/>
<text text-anchor="middle" x="125.5" y="-7.5" font-family="Helvetica,sans-Serif" font-size="10.00">Eigen/QR</text>
</a>
</g>
</g>
<!-- Node1&#45;&gt;Node3 -->
<g id="edge2" class="edge">
<title>Node1&#45;&gt;Node3</title>
<path fill="none" stroke="midnightblue" d="M194.47,-56.45C178.56,-45.96 160.66,-34.16 147.07,-25.22"/>
<polygon fill="midnightblue" stroke="midnightblue" points="148.72,-22.11 138.44,-19.53 144.87,-27.95 148.72,-22.11"/>
</g>
<!-- Node4 -->
<g id="node4" class="node">
<title>Node4</title>
<g id="a_node4"><a xlink:title=" ">
<polygon fill="white" stroke="#bfbfbf" points="174,-0.5 174,-19.5 221,-19.5 221,-0.5 174,-0.5"/>
<text text-anchor="middle" x="197.5" y="-7.5" font-family="Helvetica,sans-Serif" font-size="10.00">cmath</text>
</a>
</g>
</g>
<!-- Node1&#45;&gt;Node4 -->
<g id="edge3" class="edge">
<title>Node1&#45;&gt;Node4</title>
<path fill="none" stroke="midnightblue" d="M220.06,-56.45C215.54,-47.33 210.52,-37.22 206.36,-28.85"/>
<polygon fill="midnightblue" stroke="midnightblue" points="209.4,-27.1 201.82,-19.7 203.13,-30.21 209.4,-27.1"/>
</g>
<!-- Node5 -->
<g id="node5" class="node">
<title>Node5</title>
<g id="a_node5"><a xlink:title=" ">
<polygon fill="white" stroke="#bfbfbf" points="239,-0.5 239,-19.5 298,-19.5 298,-0.5 239,-0.5"/>
<text text-anchor="middle" x="268.5" y="-7.5" font-family="Helvetica,sans-Serif" font-size="10.00">complex</text>
</a>
</g>
</g>
<!-- Node1&#45;&gt;Node5 -->
<g id="edge4" class="edge">
<title>Node1&#45;&gt;Node5</title>
<path fill="none" stroke="midnightblue" d="M245.29,-56.45C249.95,-47.33 255.11,-37.22 259.38,-28.85"/>
<polygon fill="midnightblue" stroke="midnightblue" points="262.63,-30.19 264.06,-19.7 256.39,-27.01 262.63,-30.19"/>
</g>
<!-- Node6 -->
<g id="node6" class="node">
<title>Node6</title>
<g id="a_node6"><a xlink:title=" ">
<polygon fill="white" stroke="#bfbfbf" points="316.5,-0.5 316.5,-19.5 360.5,-19.5 360.5,-0.5 316.5,-0.5"/>
<text text-anchor="middle" x="338.5" y="-7.5" font-family="Helvetica,sans-Serif" font-size="10.00">limits</text>
</a>
</g>
</g>
<!-- Node1&#45;&gt;Node6 -->
<g id="edge5" class="edge">
<title>Node1&#45;&gt;Node6</title>
<path fill="none" stroke="midnightblue" d="M270.17,-56.45C285.93,-45.96 303.67,-34.16 317.13,-25.22"/>
<polygon fill="midnightblue" stroke="midnightblue" points="319.29,-27.98 325.68,-19.53 315.41,-22.15 319.29,-27.98"/>
</g>
<!-- Node7 -->
<g id="node7" class="node">
<title>Node7</title>
<g id="a_node7"><a xlink:title=" ">
<polygon fill="white" stroke="#bfbfbf" points="379,-0.5 379,-19.5 444,-19.5 444,-0.5 379,-0.5"/>
<text text-anchor="middle" x="411.5" y="-7.5" font-family="Helvetica,sans-Serif" font-size="10.00">stdexcept</text>
</a>
</g>
</g>
<!-- Node1&#45;&gt;Node7 -->
<g id="edge6" class="edge">
<title>Node1&#45;&gt;Node7</title>
<path fill="none" stroke="midnightblue" d="M296.11,-56.45C324.78,-45.16 357.32,-32.34 380.52,-23.2"/>
<polygon fill="midnightblue" stroke="midnightblue" points="381.83,-26.45 389.85,-19.53 379.26,-19.94 381.83,-26.45"/>
</g>
</g>
</svg>
