<?xml version="1.0" encoding="UTF-8" standalone="no"?>
<!DOCTYPE svg PUBLIC "-//W3C//DTD SVG 1.1//EN"
 "http://www.w3.org/Graphics/SVG/1.1/DTD/svg11.dtd">
<!-- Generated by graphviz version 2.43.0 (0)
 -->
<!-- Title: ACSL&#45;flightstack&#45;winged/src/acsl_flight/include/utils/control_algorithm_base/control_algorithm_base.hpp Pages: 1 -->
<svg width="3103pt" height="240pt"
 viewBox="0.00 0.00 3103.00 240.00" xmlns="http://www.w3.org/2000/svg" xmlns:xlink="http://www.w3.org/1999/xlink">
<g id="graph0" class="graph" transform="scale(1 1) rotate(0) translate(4 236)">
<title>ACSL&#45;flightstack&#45;winged/src/acsl_flight/include/utils/control_algorithm_base/control_algorithm_base.hpp</title>
<polygon fill="white" stroke="transparent" points="-4,4 -4,-236 3099,-236 3099,4 -4,4"/>
<!-- Node1 -->
<g id="node1" class="node">
<title>Node1</title>
<g id="a_node1"><a xlink:title="Utilities for Controller Base Definition.">
<polygon fill="#bfbfbf" stroke="black" points="639,-179.5 639,-231.5 823,-231.5 823,-179.5 639,-179.5"/>
<text text-anchor="start" x="647" y="-219.5" font-family="Helvetica,sans-Serif" font-size="10.00">ACSL&#45;flightstack&#45;winged</text>
<text text-anchor="start" x="647" y="-208.5" font-family="Helvetica,sans-Serif" font-size="10.00">/src/acsl_flight/include</text>
<text text-anchor="start" x="647" y="-197.5" font-family="Helvetica,sans-Serif" font-size="10.00">/utils/control_algorithm</text>
<text text-anchor="middle" x="731" y="-186.5" font-family="Helvetica,sans-Serif" font-size="10.00">_base/control_algorithm_base.hpp</text>
</a>
</g>
</g>
<!-- Node2 -->
<g id="node2" class="node">
<title>Node2</title>
<g id="a_node2"><a xlink:href="vehicle__class_8hpp.html" target="_top" xlink:title="Header for the vehicle class object.">
<polygon fill="white" stroke="black" points="679.5,-123.5 679.5,-142.5 782.5,-142.5 782.5,-123.5 679.5,-123.5"/>
<text text-anchor="middle" x="731" y="-130.5" font-family="Helvetica,sans-Serif" font-size="10.00">vehicle_class.hpp</text>
</a>
</g>
</g>
<!-- Node1&#45;&gt;Node2 -->
<g id="edge1" class="edge">
<title>Node1&#45;&gt;Node2</title>
<path fill="none" stroke="midnightblue" d="M731,-179.45C731,-170.73 731,-161.1 731,-152.96"/>
<polygon fill="midnightblue" stroke="midnightblue" points="734.5,-152.7 731,-142.7 727.5,-152.7 734.5,-152.7"/>
</g>
<!-- Node5 -->
<g id="node5" class="node">
<title>Node5</title>
<g id="a_node5"><a xlink:href="flight__params_8hpp.html" target="_top" xlink:title=" ">
<polygon fill="white" stroke="black" points="323,-123.5 323,-142.5 427,-142.5 427,-123.5 323,-123.5"/>
<text text-anchor="middle" x="375" y="-130.5" font-family="Helvetica,sans-Serif" font-size="10.00">flight_params.hpp</text>
</a>
</g>
</g>
<!-- Node1&#45;&gt;Node5 -->
<g id="edge4" class="edge">
<title>Node1&#45;&gt;Node5</title>
<path fill="none" stroke="midnightblue" d="M638.86,-186.25C571.95,-173 483.75,-155.54 428.2,-144.53"/>
<polygon fill="midnightblue" stroke="midnightblue" points="428.71,-141.07 418.22,-142.56 427.35,-147.93 428.71,-141.07"/>
</g>
<!-- Node18 -->
<g id="node18" class="node">
<title>Node18</title>
<g id="a_node18"><a xlink:href="helper__functions_8hpp.html" target="_top" xlink:title="Definitions of some standard templates used in all controllers.">
<polygon fill="white" stroke="black" points="1915.5,-123.5 1915.5,-142.5 2034.5,-142.5 2034.5,-123.5 1915.5,-123.5"/>
<text text-anchor="middle" x="1975" y="-130.5" font-family="Helvetica,sans-Serif" font-size="10.00">helper_functions.hpp</text>
</a>
</g>
</g>
<!-- Node1&#45;&gt;Node18 -->
<g id="edge19" class="edge">
<title>Node1&#45;&gt;Node18</title>
<path fill="none" stroke="midnightblue" d="M823.23,-199.27C1061.66,-185.76 1694.53,-149.89 1905.48,-137.94"/>
<polygon fill="midnightblue" stroke="midnightblue" points="1905.71,-141.43 1915.5,-137.37 1905.32,-134.44 1905.71,-141.43"/>
</g>
<!-- Node3 -->
<g id="node3" class="node">
<title>Node3</title>
<g id="a_node3"><a xlink:title=" ">
<polygon fill="white" stroke="#bfbfbf" points="661,-62 661,-81 711,-81 711,-62 661,-62"/>
<text text-anchor="middle" x="686" y="-69" font-family="Helvetica,sans-Serif" font-size="10.00">atomic</text>
</a>
</g>
</g>
<!-- Node2&#45;&gt;Node3 -->
<g id="edge2" class="edge">
<title>Node2&#45;&gt;Node3</title>
<path fill="none" stroke="midnightblue" d="M724.55,-123.48C717.8,-114.55 707.03,-100.31 698.59,-89.14"/>
<polygon fill="midnightblue" stroke="midnightblue" points="701.26,-86.87 692.44,-81.01 695.68,-91.1 701.26,-86.87"/>
</g>
<!-- Node4 -->
<g id="node4" class="node">
<title>Node4</title>
<g id="a_node4"><a xlink:title=" ">
<polygon fill="white" stroke="#bfbfbf" points="2324.5,-0.5 2324.5,-19.5 2371.5,-19.5 2371.5,-0.5 2324.5,-0.5"/>
<text text-anchor="middle" x="2348" y="-7.5" font-family="Helvetica,sans-Serif" font-size="10.00">cmath</text>
</a>
</g>
</g>
<!-- Node2&#45;&gt;Node4 -->
<g id="edge3" class="edge">
<title>Node2&#45;&gt;Node4</title>
<path fill="none" stroke="midnightblue" d="M739.03,-123.26C755.11,-106.47 793.25,-70.08 834,-56 906.26,-31.03 2096.81,-14.29 2314.1,-11.43"/>
<polygon fill="midnightblue" stroke="midnightblue" points="2314.31,-14.93 2324.26,-11.3 2314.22,-7.93 2314.31,-14.93"/>
</g>
<!-- Node6 -->
<g id="node6" class="node">
<title>Node6</title>
<g id="a_node6"><a xlink:title=" ">
<polygon fill="white" stroke="#bfbfbf" points="117,-0.5 117,-19.5 161,-19.5 161,-0.5 117,-0.5"/>
<text text-anchor="middle" x="139" y="-7.5" font-family="Helvetica,sans-Serif" font-size="10.00">string</text>
</a>
</g>
</g>
<!-- Node5&#45;&gt;Node6 -->
<g id="edge5" class="edge">
<title>Node5&#45;&gt;Node6</title>
<path fill="none" stroke="midnightblue" d="M322.87,-129.17C261.8,-124.65 166.02,-113.47 143,-87 129.48,-71.46 130.94,-46.67 134.15,-29.66"/>
<polygon fill="midnightblue" stroke="midnightblue" points="137.6,-30.3 136.38,-19.77 130.77,-28.76 137.6,-30.3"/>
</g>
<!-- Node7 -->
<g id="node7" class="node">
<title>Node7</title>
<g id="a_node7"><a xlink:title=" ">
<polygon fill="white" stroke="#bfbfbf" points="459.5,-62 459.5,-81 514.5,-81 514.5,-62 459.5,-62"/>
<text text-anchor="middle" x="487" y="-69" font-family="Helvetica,sans-Serif" font-size="10.00">fstream</text>
</a>
</g>
</g>
<!-- Node5&#45;&gt;Node7 -->
<g id="edge6" class="edge">
<title>Node5&#45;&gt;Node7</title>
<path fill="none" stroke="midnightblue" d="M391.05,-123.48C409.59,-113.62 440.34,-97.29 462.02,-85.77"/>
<polygon fill="midnightblue" stroke="midnightblue" points="463.79,-88.79 470.98,-81.01 460.51,-82.61 463.79,-88.79"/>
</g>
<!-- Node8 -->
<g id="node8" class="node">
<title>Node8</title>
<g id="a_node8"><a xlink:title=" ">
<polygon fill="white" stroke="#bfbfbf" points="533,-62 533,-81 643,-81 643,-62 533,-62"/>
<text text-anchor="middle" x="588" y="-69" font-family="Helvetica,sans-Serif" font-size="10.00">nlohmann/json.hpp</text>
</a>
</g>
</g>
<!-- Node5&#45;&gt;Node8 -->
<g id="edge7" class="edge">
<title>Node5&#45;&gt;Node8</title>
<path fill="none" stroke="midnightblue" d="M405.52,-123.48C442.92,-113.03 506.43,-95.29 547.79,-83.73"/>
<polygon fill="midnightblue" stroke="midnightblue" points="548.85,-87.07 557.54,-81.01 546.97,-80.33 548.85,-87.07"/>
</g>
<!-- Node9 -->
<g id="node9" class="node">
<title>Node9</title>
<g id="a_node9"><a xlink:title=" ">
<polygon fill="white" stroke="#bfbfbf" points="401,-0.5 401,-19.5 461,-19.5 461,-0.5 401,-0.5"/>
<text text-anchor="middle" x="431" y="-7.5" font-family="Helvetica,sans-Serif" font-size="10.00">iostream</text>
</a>
</g>
</g>
<!-- Node5&#45;&gt;Node9 -->
<g id="edge8" class="edge">
<title>Node5&#45;&gt;Node9</title>
<path fill="none" stroke="midnightblue" d="M384.28,-123.22C392.72,-114.72 404.9,-101.09 412,-87 421.16,-68.82 426.1,-45.92 428.63,-30.03"/>
<polygon fill="midnightblue" stroke="midnightblue" points="432.13,-30.26 430.07,-19.87 425.2,-29.28 432.13,-30.26"/>
</g>
<!-- Node10 -->
<g id="node10" class="node">
<title>Node10</title>
<g id="a_node10"><a xlink:title=" ">
<polygon fill="white" stroke="#bfbfbf" points="279.5,-62 279.5,-81 328.5,-81 328.5,-62 279.5,-62"/>
<text text-anchor="middle" x="304" y="-69" font-family="Helvetica,sans-Serif" font-size="10.00">cstdlib</text>
</a>
</g>
</g>
<!-- Node5&#45;&gt;Node10 -->
<g id="edge9" class="edge">
<title>Node5&#45;&gt;Node10</title>
<path fill="none" stroke="midnightblue" d="M364.83,-123.48C353.65,-114.11 335.48,-98.88 321.91,-87.51"/>
<polygon fill="midnightblue" stroke="midnightblue" points="324.07,-84.75 314.15,-81.01 319.57,-90.11 324.07,-84.75"/>
</g>
<!-- Node11 -->
<g id="node11" class="node">
<title>Node11</title>
<g id="a_node11"><a xlink:title=" ">
<polygon fill="white" stroke="#bfbfbf" points="347,-62 347,-81 403,-81 403,-62 347,-62"/>
<text text-anchor="middle" x="375" y="-69" font-family="Helvetica,sans-Serif" font-size="10.00">unistd.h</text>
</a>
</g>
</g>
<!-- Node5&#45;&gt;Node11 -->
<g id="edge10" class="edge">
<title>Node5&#45;&gt;Node11</title>
<path fill="none" stroke="midnightblue" d="M375,-123.48C375,-115.08 375,-101.98 375,-91.16"/>
<polygon fill="midnightblue" stroke="midnightblue" points="378.5,-91.01 375,-81.01 371.5,-91.01 378.5,-91.01"/>
</g>
<!-- Node12 -->
<g id="node12" class="node">
<title>Node12</title>
<g id="a_node12"><a xlink:href="px4__defines_8hpp.html" target="_top" xlink:title="Contains useful constant defines for use in the flight stack in a central location.">
<polygon fill="white" stroke="black" points="0,-62 0,-81 96,-81 96,-62 0,-62"/>
<text text-anchor="middle" x="48" y="-69" font-family="Helvetica,sans-Serif" font-size="10.00">px4_defines.hpp</text>
</a>
</g>
</g>
<!-- Node5&#45;&gt;Node12 -->
<g id="edge11" class="edge">
<title>Node5&#45;&gt;Node12</title>
<path fill="none" stroke="midnightblue" d="M322.53,-124.07C268.94,-115.73 183.42,-101.8 110,-87 104.31,-85.85 98.34,-84.56 92.45,-83.24"/>
<polygon fill="midnightblue" stroke="midnightblue" points="93.21,-79.83 82.68,-81.01 91.64,-86.65 93.21,-79.83"/>
</g>
<!-- Node14 -->
<g id="node14" class="node">
<title>Node14</title>
<g id="a_node14"><a xlink:href="global__helpers_8hpp.html" target="_top" xlink:title="Inline functions for all the classes of the flighstack to use.">
<polygon fill="white" stroke="black" points="152.5,-62 152.5,-81 261.5,-81 261.5,-62 152.5,-62"/>
<text text-anchor="middle" x="207" y="-69" font-family="Helvetica,sans-Serif" font-size="10.00">global_helpers.hpp</text>
</a>
</g>
</g>
<!-- Node5&#45;&gt;Node14 -->
<g id="edge13" class="edge">
<title>Node5&#45;&gt;Node14</title>
<path fill="none" stroke="midnightblue" d="M350.93,-123.48C321.99,-113.22 273.24,-95.96 240.6,-84.4"/>
<polygon fill="midnightblue" stroke="midnightblue" points="241.62,-81.05 231.03,-81.01 239.28,-87.65 241.62,-81.05"/>
</g>
<!-- Node13 -->
<g id="node13" class="node">
<title>Node13</title>
<g id="a_node13"><a xlink:title=" ">
<polygon fill="white" stroke="#bfbfbf" points="23,-0.5 23,-19.5 73,-19.5 73,-0.5 23,-0.5"/>
<text text-anchor="middle" x="48" y="-7.5" font-family="Helvetica,sans-Serif" font-size="10.00">cstdint</text>
</a>
</g>
</g>
<!-- Node12&#45;&gt;Node13 -->
<g id="edge12" class="edge">
<title>Node12&#45;&gt;Node13</title>
<path fill="none" stroke="midnightblue" d="M48,-61.98C48,-53.58 48,-40.48 48,-29.66"/>
<polygon fill="midnightblue" stroke="midnightblue" points="51.5,-29.51 48,-19.51 44.5,-29.51 51.5,-29.51"/>
</g>
<!-- Node14&#45;&gt;Node6 -->
<g id="edge15" class="edge">
<title>Node14&#45;&gt;Node6</title>
<path fill="none" stroke="midnightblue" d="M197.26,-61.98C186.65,-52.7 169.48,-37.67 156.52,-26.33"/>
<polygon fill="midnightblue" stroke="midnightblue" points="158.56,-23.46 148.72,-19.51 153.95,-28.73 158.56,-23.46"/>
</g>
<!-- Node14&#45;&gt;Node9 -->
<g id="edge14" class="edge">
<title>Node14&#45;&gt;Node9</title>
<path fill="none" stroke="midnightblue" d="M239.09,-61.98C279.08,-51.35 347.41,-33.2 390.82,-21.67"/>
<polygon fill="midnightblue" stroke="midnightblue" points="391.99,-24.98 400.76,-19.03 390.2,-18.22 391.99,-24.98"/>
</g>
<!-- Node15 -->
<g id="node15" class="node">
<title>Node15</title>
<g id="a_node15"><a xlink:title=" ">
<polygon fill="white" stroke="#bfbfbf" points="179,-0.5 179,-19.5 235,-19.5 235,-0.5 179,-0.5"/>
<text text-anchor="middle" x="207" y="-7.5" font-family="Helvetica,sans-Serif" font-size="10.00">sstream</text>
</a>
</g>
</g>
<!-- Node14&#45;&gt;Node15 -->
<g id="edge16" class="edge">
<title>Node14&#45;&gt;Node15</title>
<path fill="none" stroke="midnightblue" d="M207,-61.98C207,-53.58 207,-40.48 207,-29.66"/>
<polygon fill="midnightblue" stroke="midnightblue" points="210.5,-29.51 207,-19.51 203.5,-29.51 210.5,-29.51"/>
</g>
<!-- Node16 -->
<g id="node16" class="node">
<title>Node16</title>
<g id="a_node16"><a xlink:title=" ">
<polygon fill="white" stroke="#bfbfbf" points="253.5,-0.5 253.5,-19.5 322.5,-19.5 322.5,-0.5 253.5,-0.5"/>
<text text-anchor="middle" x="288" y="-7.5" font-family="Helvetica,sans-Serif" font-size="10.00">type_traits</text>
</a>
</g>
</g>
<!-- Node14&#45;&gt;Node16 -->
<g id="edge17" class="edge">
<title>Node14&#45;&gt;Node16</title>
<path fill="none" stroke="midnightblue" d="M218.61,-61.98C231.48,-52.52 252.47,-37.1 268.01,-25.69"/>
<polygon fill="midnightblue" stroke="midnightblue" points="270.43,-28.25 276.42,-19.51 266.28,-22.61 270.43,-28.25"/>
</g>
<!-- Node17 -->
<g id="node17" class="node">
<title>Node17</title>
<g id="a_node17"><a xlink:title=" ">
<polygon fill="white" stroke="#bfbfbf" points="1388.5,-0.5 1388.5,-19.5 1465.5,-19.5 1465.5,-0.5 1388.5,-0.5"/>
<text text-anchor="middle" x="1427" y="-7.5" font-family="Helvetica,sans-Serif" font-size="10.00">Eigen/Dense</text>
</a>
</g>
</g>
<!-- Node14&#45;&gt;Node17 -->
<g id="edge18" class="edge">
<title>Node14&#45;&gt;Node17</title>
<path fill="none" stroke="midnightblue" d="M238.84,-61.95C248.75,-59.62 259.76,-57.36 270,-56 489.38,-26.75 1187.38,-14.53 1378.32,-11.68"/>
<polygon fill="midnightblue" stroke="midnightblue" points="1378.39,-15.18 1388.33,-11.53 1378.28,-8.18 1378.39,-15.18"/>
</g>
<!-- Node18&#45;&gt;Node4 -->
<g id="edge35" class="edge">
<title>Node18&#45;&gt;Node4</title>
<path fill="none" stroke="midnightblue" d="M2034.58,-129.65C2141.17,-124.84 2355.53,-112.12 2378,-87 2393.3,-69.89 2377.28,-44.05 2363.41,-27.35"/>
<polygon fill="midnightblue" stroke="midnightblue" points="2365.77,-24.73 2356.54,-19.54 2360.52,-29.36 2365.77,-24.73"/>
</g>
<!-- Node18&#45;&gt;Node6 -->
<g id="edge41" class="edge">
<title>Node18&#45;&gt;Node6</title>
<path fill="none" stroke="midnightblue" d="M1915.3,-132.25C1684.85,-132.88 860.69,-131.96 753,-87 734.43,-79.25 738.46,-64.02 720,-56 610.51,-8.44 306.6,-39.53 171.43,-19.73"/>
<polygon fill="midnightblue" stroke="midnightblue" points="171.65,-16.22 161.21,-18.08 170.53,-23.13 171.65,-16.22"/>
</g>
<!-- Node18&#45;&gt;Node7 -->
<g id="edge40" class="edge">
<title>Node18&#45;&gt;Node7</title>
<path fill="none" stroke="midnightblue" d="M1915.31,-131.35C1659.39,-128.41 661.57,-115.21 524,-87 520.92,-86.37 517.77,-85.5 514.67,-84.51"/>
<polygon fill="midnightblue" stroke="midnightblue" points="515.66,-81.14 505.07,-81.01 513.26,-87.72 515.66,-81.14"/>
</g>
<!-- Node18&#45;&gt;Node8 -->
<g id="edge22" class="edge">
<title>Node18&#45;&gt;Node8</title>
<path fill="none" stroke="midnightblue" d="M1915.34,-131.47C1691.45,-129.24 901.44,-119.21 652,-87 645.02,-86.1 637.67,-84.79 630.55,-83.32"/>
<polygon fill="midnightblue" stroke="midnightblue" points="630.86,-79.8 620.35,-81.08 629.36,-86.64 630.86,-79.8"/>
</g>
<!-- Node18&#45;&gt;Node9 -->
<g id="edge32" class="edge">
<title>Node18&#45;&gt;Node9</title>
<path fill="none" stroke="midnightblue" d="M1915.5,-132.2C1711.83,-132.49 1043.73,-130.05 834,-87 796.24,-79.25 790.33,-65.62 753,-56 653.53,-30.37 532.77,-18.44 471.25,-13.68"/>
<polygon fill="midnightblue" stroke="midnightblue" points="471.42,-10.19 461.18,-12.93 470.9,-17.17 471.42,-10.19"/>
</g>
<!-- Node18&#45;&gt;Node17 -->
<g id="edge21" class="edge">
<title>Node18&#45;&gt;Node17</title>
<path fill="none" stroke="midnightblue" d="M1915.17,-130.77C1784.23,-127.54 1481.09,-116.88 1446,-87 1429.69,-73.11 1426.26,-47.55 1426.03,-29.93"/>
<polygon fill="midnightblue" stroke="midnightblue" points="1429.53,-29.77 1426.24,-19.7 1422.54,-29.63 1429.53,-29.77"/>
</g>
<!-- Node19 -->
<g id="node19" class="node">
<title>Node19</title>
<g id="a_node19"><a xlink:title=" ">
<polygon fill="white" stroke="#bfbfbf" points="3053,-62 3053,-81 3095,-81 3095,-62 3053,-62"/>
<text text-anchor="middle" x="3074" y="-69" font-family="Helvetica,sans-Serif" font-size="10.00">array</text>
</a>
</g>
</g>
<!-- Node18&#45;&gt;Node19 -->
<g id="edge20" class="edge">
<title>Node18&#45;&gt;Node19</title>
<path fill="none" stroke="midnightblue" d="M2034.7,-130.9C2245.32,-126.83 2946.21,-111.57 3044,-87 3045.94,-86.51 3047.89,-85.9 3049.83,-85.19"/>
<polygon fill="midnightblue" stroke="midnightblue" points="3051.41,-88.32 3059.19,-81.13 3048.63,-81.9 3051.41,-88.32"/>
</g>
<!-- Node20 -->
<g id="node20" class="node">
<title>Node20</title>
<g id="a_node20"><a xlink:title=" ">
<polygon fill="white" stroke="#bfbfbf" points="843,-62 843,-81 935,-81 935,-62 843,-62"/>
<text text-anchor="middle" x="889" y="-69" font-family="Helvetica,sans-Serif" font-size="10.00">boost/array.hpp</text>
</a>
</g>
</g>
<!-- Node18&#45;&gt;Node20 -->
<g id="edge23" class="edge">
<title>Node18&#45;&gt;Node20</title>
<path fill="none" stroke="midnightblue" d="M1915.22,-131.03C1724.83,-127.7 1134.08,-115.29 945,-87 939.15,-86.12 933.02,-84.88 927.06,-83.49"/>
<polygon fill="midnightblue" stroke="midnightblue" points="927.8,-80.07 917.25,-81.04 926.11,-86.86 927.8,-80.07"/>
</g>
<!-- Node21 -->
<g id="node21" class="node">
<title>Node21</title>
<g id="a_node21"><a xlink:title=" ">
<polygon fill="white" stroke="#bfbfbf" points="953.5,-62 953.5,-81 1066.5,-81 1066.5,-62 953.5,-62"/>
<text text-anchor="middle" x="1010" y="-69" font-family="Helvetica,sans-Serif" font-size="10.00">boost/bind/bind.hpp</text>
</a>
</g>
</g>
<!-- Node18&#45;&gt;Node21 -->
<g id="edge24" class="edge">
<title>Node18&#45;&gt;Node21</title>
<path fill="none" stroke="midnightblue" d="M1915.25,-132.43C1770.54,-132.72 1390.04,-129.06 1076,-87 1068.73,-86.03 1061.06,-84.66 1053.64,-83.16"/>
<polygon fill="midnightblue" stroke="midnightblue" points="1054.23,-79.7 1043.72,-81.04 1052.77,-86.55 1054.23,-79.7"/>
</g>
<!-- Node22 -->
<g id="node22" class="node">
<title>Node22</title>
<g id="a_node22"><a xlink:title=" ">
<polygon fill="white" stroke="#bfbfbf" points="1085,-62 1085,-81 1239,-81 1239,-62 1085,-62"/>
<text text-anchor="middle" x="1162" y="-69" font-family="Helvetica,sans-Serif" font-size="10.00">boost/bind/placeholders.hpp</text>
</a>
</g>
</g>
<!-- Node18&#45;&gt;Node22 -->
<g id="edge25" class="edge">
<title>Node18&#45;&gt;Node22</title>
<path fill="none" stroke="midnightblue" d="M1915.06,-130.38C1790.6,-126.55 1495.24,-115.08 1249,-87 1238.96,-85.86 1228.31,-84.34 1218.04,-82.71"/>
<polygon fill="midnightblue" stroke="midnightblue" points="1218.36,-79.22 1207.93,-81.07 1217.24,-86.13 1218.36,-79.22"/>
</g>
<!-- Node23 -->
<g id="node23" class="node">
<title>Node23</title>
<g id="a_node23"><a xlink:title=" ">
<polygon fill="white" stroke="#bfbfbf" points="1257.5,-62 1257.5,-81 1398.5,-81 1398.5,-62 1257.5,-62"/>
<text text-anchor="middle" x="1328" y="-69" font-family="Helvetica,sans-Serif" font-size="10.00">boost/numeric/odeint.hpp</text>
</a>
</g>
</g>
<!-- Node18&#45;&gt;Node23 -->
<g id="edge26" class="edge">
<title>Node18&#45;&gt;Node23</title>
<path fill="none" stroke="midnightblue" d="M1915.35,-128.97C1812.52,-123.37 1595.35,-109.81 1413,-87 1403.41,-85.8 1393.25,-84.28 1383.42,-82.69"/>
<polygon fill="midnightblue" stroke="midnightblue" points="1383.77,-79.2 1373.33,-81 1382.61,-86.1 1383.77,-79.2"/>
</g>
<!-- Node24 -->
<g id="node24" class="node">
<title>Node24</title>
<g id="a_node24"><a xlink:title=" ">
<polygon fill="white" stroke="#bfbfbf" points="1455,-62 1455,-81 1603,-81 1603,-62 1455,-62"/>
<text text-anchor="middle" x="1529" y="-69" font-family="Helvetica,sans-Serif" font-size="10.00">boost/numeric/interval.hpp</text>
</a>
</g>
</g>
<!-- Node18&#45;&gt;Node24 -->
<g id="edge27" class="edge">
<title>Node18&#45;&gt;Node24</title>
<path fill="none" stroke="midnightblue" d="M1915.46,-125.54C1843.45,-117.51 1718.62,-102.91 1612,-87 1603.38,-85.71 1594.28,-84.24 1585.38,-82.74"/>
<polygon fill="midnightblue" stroke="midnightblue" points="1585.91,-79.28 1575.47,-81.04 1584.73,-86.18 1585.91,-79.28"/>
</g>
<!-- Node25 -->
<g id="node25" class="node">
<title>Node25</title>
<g id="a_node25"><a xlink:title=" ">
<polygon fill="white" stroke="#bfbfbf" points="1621,-56.5 1621,-86.5 1765,-86.5 1765,-56.5 1621,-56.5"/>
<text text-anchor="start" x="1629" y="-74.5" font-family="Helvetica,sans-Serif" font-size="10.00">boost/numeric/odeint</text>
<text text-anchor="middle" x="1693" y="-63.5" font-family="Helvetica,sans-Serif" font-size="10.00">/stepper/runge_kutta4.hpp</text>
</a>
</g>
</g>
<!-- Node18&#45;&gt;Node25 -->
<g id="edge28" class="edge">
<title>Node18&#45;&gt;Node25</title>
<path fill="none" stroke="midnightblue" d="M1934.6,-123.48C1891.67,-114.42 1822.8,-99.89 1769.55,-88.65"/>
<polygon fill="midnightblue" stroke="midnightblue" points="1769.97,-85.16 1759.46,-86.52 1768.52,-92.01 1769.97,-85.16"/>
</g>
<!-- Node26 -->
<g id="node26" class="node">
<title>Node26</title>
<g id="a_node26"><a xlink:title=" ">
<polygon fill="white" stroke="#bfbfbf" points="1783,-56.5 1783,-86.5 1899,-86.5 1899,-56.5 1783,-56.5"/>
<text text-anchor="start" x="1791" y="-74.5" font-family="Helvetica,sans-Serif" font-size="10.00">boost/numeric/ublas</text>
<text text-anchor="middle" x="1841" y="-63.5" font-family="Helvetica,sans-Serif" font-size="10.00">/matrix.hpp</text>
</a>
</g>
</g>
<!-- Node18&#45;&gt;Node26 -->
<g id="edge29" class="edge">
<title>Node18&#45;&gt;Node26</title>
<path fill="none" stroke="midnightblue" d="M1955.8,-123.48C1936.63,-114.96 1906.58,-101.62 1882.03,-90.72"/>
<polygon fill="midnightblue" stroke="midnightblue" points="1883.14,-87.38 1872.58,-86.52 1880.3,-93.78 1883.14,-87.38"/>
</g>
<!-- Node27 -->
<g id="node27" class="node">
<title>Node27</title>
<g id="a_node27"><a xlink:title=" ">
<polygon fill="white" stroke="#bfbfbf" points="1917,-56.5 1917,-86.5 2033,-86.5 2033,-56.5 1917,-56.5"/>
<text text-anchor="start" x="1925" y="-74.5" font-family="Helvetica,sans-Serif" font-size="10.00">boost/numeric/ublas</text>
<text text-anchor="middle" x="1975" y="-63.5" font-family="Helvetica,sans-Serif" font-size="10.00">/io.hpp</text>
</a>
</g>
</g>
<!-- Node18&#45;&gt;Node27 -->
<g id="edge30" class="edge">
<title>Node18&#45;&gt;Node27</title>
<path fill="none" stroke="midnightblue" d="M1975,-123.48C1975,-116.47 1975,-106.19 1975,-96.7"/>
<polygon fill="midnightblue" stroke="midnightblue" points="1978.5,-96.52 1975,-86.52 1971.5,-96.52 1978.5,-96.52"/>
</g>
<!-- Node28 -->
<g id="node28" class="node">
<title>Node28</title>
<g id="a_node28"><a xlink:title=" ">
<polygon fill="white" stroke="#bfbfbf" points="2051,-62 2051,-81 2229,-81 2229,-62 2051,-62"/>
<text text-anchor="middle" x="2140" y="-69" font-family="Helvetica,sans-Serif" font-size="10.00">boost/math/tools/polynomial.hpp</text>
</a>
</g>
</g>
<!-- Node18&#45;&gt;Node28 -->
<g id="edge31" class="edge">
<title>Node18&#45;&gt;Node28</title>
<path fill="none" stroke="midnightblue" d="M1998.64,-123.48C2026.94,-113.27 2074.53,-96.11 2106.59,-84.55"/>
<polygon fill="midnightblue" stroke="midnightblue" points="2108.18,-87.69 2116.4,-81.01 2105.81,-81.11 2108.18,-87.69"/>
</g>
<!-- Node29 -->
<g id="node29" class="node">
<title>Node29</title>
<g id="a_node29"><a xlink:title=" ">
<polygon fill="white" stroke="#bfbfbf" points="2247,-62 2247,-81 2297,-81 2297,-62 2247,-62"/>
<text text-anchor="middle" x="2272" y="-69" font-family="Helvetica,sans-Serif" font-size="10.00">stdio.h</text>
</a>
</g>
</g>
<!-- Node18&#45;&gt;Node29 -->
<g id="edge33" class="edge">
<title>Node18&#45;&gt;Node29</title>
<path fill="none" stroke="midnightblue" d="M2034.66,-125.82C2088.56,-119.3 2169.68,-107.11 2238,-87 2240.15,-86.37 2242.35,-85.64 2244.54,-84.85"/>
<polygon fill="midnightblue" stroke="midnightblue" points="2245.93,-88.06 2253.94,-81.13 2243.35,-81.55 2245.93,-88.06"/>
</g>
<!-- Node30 -->
<g id="node30" class="node">
<title>Node30</title>
<g id="a_node30"><a xlink:title=" ">
<polygon fill="white" stroke="#bfbfbf" points="2315.5,-62 2315.5,-81 2368.5,-81 2368.5,-62 2315.5,-62"/>
<text text-anchor="middle" x="2342" y="-69" font-family="Helvetica,sans-Serif" font-size="10.00">stdlib.h</text>
</a>
</g>
</g>
<!-- Node18&#45;&gt;Node30 -->
<g id="edge34" class="edge">
<title>Node18&#45;&gt;Node30</title>
<path fill="none" stroke="midnightblue" d="M2034.76,-128.34C2101.73,-123.22 2213.08,-111.62 2306,-87 2308.51,-86.34 2311.08,-85.54 2313.63,-84.68"/>
<polygon fill="midnightblue" stroke="midnightblue" points="2315.1,-87.86 2323.24,-81.08 2312.65,-81.3 2315.1,-87.86"/>
</g>
<!-- Node31 -->
<g id="node31" class="node">
<title>Node31</title>
<g id="a_node31"><a xlink:title=" ">
<polygon fill="white" stroke="#bfbfbf" points="2563.5,-62 2563.5,-81 2614.5,-81 2614.5,-62 2563.5,-62"/>
<text text-anchor="middle" x="2589" y="-69" font-family="Helvetica,sans-Serif" font-size="10.00">math.h</text>
</a>
</g>
</g>
<!-- Node18&#45;&gt;Node31 -->
<g id="edge36" class="edge">
<title>Node18&#45;&gt;Node31</title>
<path fill="none" stroke="midnightblue" d="M2034.78,-129.74C2162.17,-124.53 2456.69,-110.32 2554,-87 2556.52,-86.4 2559.09,-85.64 2561.64,-84.78"/>
<polygon fill="midnightblue" stroke="midnightblue" points="2563.1,-87.97 2571.2,-81.14 2560.61,-81.43 2563.1,-87.97"/>
</g>
<!-- Node32 -->
<g id="node32" class="node">
<title>Node32</title>
<g id="a_node32"><a xlink:title=" ">
<polygon fill="white" stroke="#bfbfbf" points="2633,-62 2633,-81 2681,-81 2681,-62 2633,-62"/>
<text text-anchor="middle" x="2657" y="-69" font-family="Helvetica,sans-Serif" font-size="10.00">time.h</text>
</a>
</g>
</g>
<!-- Node18&#45;&gt;Node32 -->
<g id="edge37" class="edge">
<title>Node18&#45;&gt;Node32</title>
<path fill="none" stroke="midnightblue" d="M2034.66,-130.48C2173.19,-126.53 2513.24,-114.29 2624,-87 2626.36,-86.42 2628.76,-85.68 2631.14,-84.85"/>
<polygon fill="midnightblue" stroke="midnightblue" points="2632.64,-88.02 2640.6,-81.03 2630.02,-81.52 2632.64,-88.02"/>
</g>
<!-- Node33 -->
<g id="node33" class="node">
<title>Node33</title>
<g id="a_node33"><a xlink:title=" ">
<polygon fill="white" stroke="#bfbfbf" points="2699,-62 2699,-81 2743,-81 2743,-62 2699,-62"/>
<text text-anchor="middle" x="2721" y="-69" font-family="Helvetica,sans-Serif" font-size="10.00">ctime</text>
</a>
</g>
</g>
<!-- Node18&#45;&gt;Node33 -->
<g id="edge38" class="edge">
<title>Node18&#45;&gt;Node33</title>
<path fill="none" stroke="midnightblue" d="M2034.66,-131.1C2183.23,-128.41 2566.63,-118.52 2690,-87 2691.99,-86.49 2694,-85.86 2696,-85.14"/>
<polygon fill="midnightblue" stroke="midnightblue" points="2697.8,-88.18 2705.65,-81.06 2695.08,-81.73 2697.8,-88.18"/>
</g>
<!-- Node34 -->
<g id="node34" class="node">
<title>Node34</title>
<g id="a_node34"><a xlink:title=" ">
<polygon fill="white" stroke="#bfbfbf" points="2761,-62 2761,-81 2817,-81 2817,-62 2761,-62"/>
<text text-anchor="middle" x="2789" y="-69" font-family="Helvetica,sans-Serif" font-size="10.00">iomanip</text>
</a>
</g>
</g>
<!-- Node18&#45;&gt;Node34 -->
<g id="edge39" class="edge">
<title>Node18&#45;&gt;Node34</title>
<path fill="none" stroke="midnightblue" d="M2034.77,-130.97C2192.19,-127.87 2615.47,-116.91 2752,-87 2755,-86.34 2758.08,-85.47 2761.12,-84.49"/>
<polygon fill="midnightblue" stroke="midnightblue" points="2762.34,-87.77 2770.53,-81.06 2759.94,-81.19 2762.34,-87.77"/>
</g>
<!-- Node35 -->
<g id="node35" class="node">
<title>Node35</title>
<g id="a_node35"><a xlink:title=" ">
<polygon fill="white" stroke="#bfbfbf" points="2835.5,-62 2835.5,-81 2882.5,-81 2882.5,-62 2835.5,-62"/>
<text text-anchor="middle" x="2859" y="-69" font-family="Helvetica,sans-Serif" font-size="10.00">vector</text>
</a>
</g>
</g>
<!-- Node18&#45;&gt;Node35 -->
<g id="edge42" class="edge">
<title>Node18&#45;&gt;Node35</title>
<path fill="none" stroke="midnightblue" d="M2034.71,-131.63C2202.43,-130.14 2675.41,-122.8 2826,-87 2828.36,-86.44 2830.77,-85.71 2833.15,-84.89"/>
<polygon fill="midnightblue" stroke="midnightblue" points="2834.64,-88.06 2842.62,-81.09 2832.03,-81.56 2834.64,-88.06"/>
</g>
<!-- Node36 -->
<g id="node36" class="node">
<title>Node36</title>
<g id="a_node36"><a xlink:title=" ">
<polygon fill="white" stroke="#bfbfbf" points="2901,-62 2901,-81 2951,-81 2951,-62 2901,-62"/>
<text text-anchor="middle" x="2926" y="-69" font-family="Helvetica,sans-Serif" font-size="10.00">chrono</text>
</a>
</g>
</g>
<!-- Node18&#45;&gt;Node36 -->
<g id="edge43" class="edge">
<title>Node18&#45;&gt;Node36</title>
<path fill="none" stroke="midnightblue" d="M2034.54,-131.81C2210.82,-130.83 2728.02,-124.72 2892,-87 2894.52,-86.42 2897.08,-85.67 2899.62,-84.8"/>
<polygon fill="midnightblue" stroke="midnightblue" points="2901.06,-88 2909.1,-81.1 2898.51,-81.48 2901.06,-88"/>
</g>
<!-- Node37 -->
<g id="node37" class="node">
<title>Node37</title>
<g id="a_node37"><a xlink:title=" ">
<polygon fill="white" stroke="#bfbfbf" points="2969.5,-62 2969.5,-81 3034.5,-81 3034.5,-62 2969.5,-62"/>
<text text-anchor="middle" x="3002" y="-69" font-family="Helvetica,sans-Serif" font-size="10.00">functional</text>
</a>
</g>
</g>
<!-- Node18&#45;&gt;Node37 -->
<g id="edge44" class="edge">
<title>Node18&#45;&gt;Node37</title>
<path fill="none" stroke="midnightblue" d="M2034.53,-131.51C2219.27,-129.64 2781.15,-121.22 2960,-87 2963.7,-86.29 2967.52,-85.33 2971.28,-84.22"/>
<polygon fill="midnightblue" stroke="midnightblue" points="2972.52,-87.5 2980.96,-81.09 2970.36,-80.84 2972.52,-87.5"/>
</g>
<!-- Node38 -->
<g id="node38" class="node">
<title>Node38</title>
<g id="a_node38"><a xlink:href="continuous__lyapunov__equation_8hpp.html" target="_top" xlink:title="The following code uses a different convention from MATLAB.">
<polygon fill="white" stroke="black" points="2425,-56.5 2425,-86.5 2545,-86.5 2545,-56.5 2425,-56.5"/>
<text text-anchor="start" x="2433" y="-74.5" font-family="Helvetica,sans-Serif" font-size="10.00">continuous_lyapunov</text>
<text text-anchor="middle" x="2485" y="-63.5" font-family="Helvetica,sans-Serif" font-size="10.00">_equation.hpp</text>
</a>
</g>
</g>
<!-- Node18&#45;&gt;Node38 -->
<g id="edge45" class="edge">
<title>Node18&#45;&gt;Node38</title>
<path fill="none" stroke="midnightblue" d="M2034.81,-127.55C2119.02,-120.9 2277.22,-106.97 2411,-87 2412.27,-86.81 2413.56,-86.61 2414.86,-86.41"/>
<polygon fill="midnightblue" stroke="midnightblue" points="2415.61,-89.83 2424.9,-84.75 2414.47,-82.93 2415.61,-89.83"/>
</g>
<!-- Node38&#45;&gt;Node4 -->
<g id="edge48" class="edge">
<title>Node38&#45;&gt;Node4</title>
<path fill="none" stroke="midnightblue" d="M2452.53,-56.4C2429.65,-46.46 2399.27,-33.26 2377.16,-23.66"/>
<polygon fill="midnightblue" stroke="midnightblue" points="2378.5,-20.43 2367.93,-19.66 2375.71,-26.85 2378.5,-20.43"/>
</g>
<!-- Node38&#45;&gt;Node17 -->
<g id="edge46" class="edge">
<title>Node38&#45;&gt;Node17</title>
<path fill="none" stroke="midnightblue" d="M2424.84,-61.41C2409.59,-59.36 2393.21,-57.39 2378,-56 2033.14,-24.53 1615.8,-14.43 1475.58,-11.8"/>
<polygon fill="midnightblue" stroke="midnightblue" points="1475.65,-8.3 1465.58,-11.62 1475.52,-15.3 1475.65,-8.3"/>
</g>
<!-- Node39 -->
<g id="node39" class="node">
<title>Node39</title>
<g id="a_node39"><a xlink:title=" ">
<polygon fill="white" stroke="#bfbfbf" points="2535.5,-0.5 2535.5,-19.5 2596.5,-19.5 2596.5,-0.5 2535.5,-0.5"/>
<text text-anchor="middle" x="2566" y="-7.5" font-family="Helvetica,sans-Serif" font-size="10.00">Eigen/QR</text>
</a>
</g>
</g>
<!-- Node38&#45;&gt;Node39 -->
<g id="edge47" class="edge">
<title>Node38&#45;&gt;Node39</title>
<path fill="none" stroke="midnightblue" d="M2504.2,-56.4C2516.82,-47.13 2533.29,-35.03 2546.06,-25.65"/>
<polygon fill="midnightblue" stroke="midnightblue" points="2548.23,-28.4 2554.21,-19.66 2544.08,-22.76 2548.23,-28.4"/>
</g>
<!-- Node40 -->
<g id="node40" class="node">
<title>Node40</title>
<g id="a_node40"><a xlink:title=" ">
<polygon fill="white" stroke="#bfbfbf" points="2614.5,-0.5 2614.5,-19.5 2673.5,-19.5 2673.5,-0.5 2614.5,-0.5"/>
<text text-anchor="middle" x="2644" y="-7.5" font-family="Helvetica,sans-Serif" font-size="10.00">complex</text>
</a>
</g>
</g>
<!-- Node38&#45;&gt;Node40 -->
<g id="edge49" class="edge">
<title>Node38&#45;&gt;Node40</title>
<path fill="none" stroke="midnightblue" d="M2522.68,-56.4C2549.6,-46.33 2585.45,-32.91 2611.19,-23.28"/>
<polygon fill="midnightblue" stroke="midnightblue" points="2612.73,-26.44 2620.86,-19.66 2610.27,-19.88 2612.73,-26.44"/>
</g>
<!-- Node41 -->
<g id="node41" class="node">
<title>Node41</title>
<g id="a_node41"><a xlink:title=" ">
<polygon fill="white" stroke="#bfbfbf" points="2390,-0.5 2390,-19.5 2434,-19.5 2434,-0.5 2390,-0.5"/>
<text text-anchor="middle" x="2412" y="-7.5" font-family="Helvetica,sans-Serif" font-size="10.00">limits</text>
</a>
</g>
</g>
<!-- Node38&#45;&gt;Node41 -->
<g id="edge50" class="edge">
<title>Node38&#45;&gt;Node41</title>
<path fill="none" stroke="midnightblue" d="M2467.7,-56.4C2456.55,-47.31 2442.05,-35.49 2430.64,-26.19"/>
<polygon fill="midnightblue" stroke="midnightblue" points="2432.58,-23.26 2422.62,-19.66 2428.16,-28.69 2432.58,-23.26"/>
</g>
<!-- Node42 -->
<g id="node42" class="node">
<title>Node42</title>
<g id="a_node42"><a xlink:title=" ">
<polygon fill="white" stroke="#bfbfbf" points="2452.5,-0.5 2452.5,-19.5 2517.5,-19.5 2517.5,-0.5 2452.5,-0.5"/>
<text text-anchor="middle" x="2485" y="-7.5" font-family="Helvetica,sans-Serif" font-size="10.00">stdexcept</text>
</a>
</g>
</g>
<!-- Node38&#45;&gt;Node42 -->
<g id="edge51" class="edge">
<title>Node38&#45;&gt;Node42</title>
<path fill="none" stroke="midnightblue" d="M2485,-56.4C2485,-48.47 2485,-38.46 2485,-29.86"/>
<polygon fill="midnightblue" stroke="midnightblue" points="2488.5,-29.66 2485,-19.66 2481.5,-29.66 2488.5,-29.66"/>
</g>
</g>
</svg>
