<?xml version="1.0" encoding="UTF-8" standalone="no"?>
<!DOCTYPE svg PUBLIC "-//W3C//DTD SVG 1.1//EN"
 "http://www.w3.org/Graphics/SVG/1.1/DTD/svg11.dtd">
<!-- Generated by graphviz version 2.43.0 (0)
 -->
<!-- Title: ACSL&#45;flightstack&#45;winged/src/acsl_flight/include/control/control.hpp Pages: 1 -->
<svg width="407pt" height="284pt"
 viewBox="0.00 0.00 406.50 284.00" xmlns="http://www.w3.org/2000/svg" xmlns:xlink="http://www.w3.org/1999/xlink">
<g id="graph0" class="graph" transform="scale(1 1) rotate(0) translate(4 280)">
<title>ACSL&#45;flightstack&#45;winged/src/acsl_flight/include/control/control.hpp</title>
<polygon fill="white" stroke="transparent" points="-4,4 -4,-280 402.5,-280 402.5,4 -4,4"/>
<!-- Node1 -->
<g id="node1" class="node">
<title>Node1</title>
<g id="a_node1"><a xlink:title="Class declaration for computing and publishing the control.">
<polygon fill="#bfbfbf" stroke="black" points="90,-234.5 90,-275.5 225,-275.5 225,-234.5 90,-234.5"/>
<text text-anchor="start" x="98" y="-263.5" font-family="Helvetica,sans-Serif" font-size="10.00">ACSL&#45;flightstack&#45;winged</text>
<text text-anchor="start" x="98" y="-252.5" font-family="Helvetica,sans-Serif" font-size="10.00">/src/acsl_flight/include</text>
<text text-anchor="middle" x="157.5" y="-241.5" font-family="Helvetica,sans-Serif" font-size="10.00">/control/control.hpp</text>
</a>
</g>
</g>
<!-- Node2 -->
<g id="node2" class="node">
<title>Node2</title>
<g id="a_node2"><a xlink:href="flight__bridge_8hpp.html" target="_top" xlink:title=" ">
<polygon fill="white" stroke="black" points="75,-156.5 75,-197.5 240,-197.5 240,-156.5 75,-156.5"/>
<text text-anchor="start" x="83" y="-185.5" font-family="Helvetica,sans-Serif" font-size="10.00">ACSL&#45;flightstack&#45;winged</text>
<text text-anchor="start" x="83" y="-174.5" font-family="Helvetica,sans-Serif" font-size="10.00">/src/acsl_flight/include</text>
<text text-anchor="middle" x="157.5" y="-163.5" font-family="Helvetica,sans-Serif" font-size="10.00">/flight_bridge/flight_bridge.hpp</text>
</a>
</g>
</g>
<!-- Node1&#45;&gt;Node2 -->
<g id="edge1" class="edge">
<title>Node1&#45;&gt;Node2</title>
<path fill="none" stroke="midnightblue" d="M150.9,-224.3C150.58,-215.3 150.78,-205.65 151.52,-197.51"/>
<polygon fill="midnightblue" stroke="midnightblue" points="147.41,-224.66 151.51,-234.43 154.4,-224.23 147.41,-224.66"/>
</g>
<!-- Node6 -->
<g id="node6" class="node">
<title>Node6</title>
<g id="a_node6"><a xlink:href="control_8cpp.html" target="_top" xlink:title="Control node definition. Runs all the control algorithms. Adds as a hub for all the control actions.">
<polygon fill="white" stroke="black" points="258.5,-156.5 258.5,-197.5 398.5,-197.5 398.5,-156.5 258.5,-156.5"/>
<text text-anchor="start" x="266.5" y="-185.5" font-family="Helvetica,sans-Serif" font-size="10.00">ACSL&#45;flightstack&#45;winged</text>
<text text-anchor="start" x="266.5" y="-174.5" font-family="Helvetica,sans-Serif" font-size="10.00">/src/acsl_flight/src/control</text>
<text text-anchor="middle" x="328.5" y="-163.5" font-family="Helvetica,sans-Serif" font-size="10.00">/control.cpp</text>
</a>
</g>
</g>
<!-- Node1&#45;&gt;Node6 -->
<g id="edge6" class="edge">
<title>Node1&#45;&gt;Node6</title>
<path fill="none" stroke="midnightblue" d="M210.76,-230.33C234.49,-219.78 262.1,-207.51 284.61,-197.51"/>
<polygon fill="midnightblue" stroke="midnightblue" points="209.25,-227.17 201.54,-234.43 212.1,-233.57 209.25,-227.17"/>
</g>
<!-- Node2&#45;&gt;Node1 -->
<g id="edge2" class="edge">
<title>Node2&#45;&gt;Node1</title>
<path fill="none" stroke="midnightblue" d="M164.1,-207.63C164.42,-216.62 164.22,-226.27 163.49,-234.43"/>
<polygon fill="midnightblue" stroke="midnightblue" points="167.59,-207.27 163.48,-197.51 160.6,-207.7 167.59,-207.27"/>
</g>
<!-- Node3 -->
<g id="node3" class="node">
<title>Node3</title>
<g id="a_node3"><a xlink:href="flight__main_8hpp.html" target="_top" xlink:title=" ">
<polygon fill="white" stroke="black" points="0,-78.5 0,-119.5 153,-119.5 153,-78.5 0,-78.5"/>
<text text-anchor="start" x="8" y="-107.5" font-family="Helvetica,sans-Serif" font-size="10.00">ACSL&#45;flightstack&#45;winged</text>
<text text-anchor="start" x="8" y="-96.5" font-family="Helvetica,sans-Serif" font-size="10.00">/src/acsl_flight/include</text>
<text text-anchor="middle" x="76.5" y="-85.5" font-family="Helvetica,sans-Serif" font-size="10.00">/flight_main/flight_main.hpp</text>
</a>
</g>
</g>
<!-- Node2&#45;&gt;Node3 -->
<g id="edge3" class="edge">
<title>Node2&#45;&gt;Node3</title>
<path fill="none" stroke="midnightblue" d="M129.25,-149.49C118.74,-139.63 107.01,-128.63 97.29,-119.51"/>
<polygon fill="midnightblue" stroke="midnightblue" points="126.95,-152.14 136.64,-156.43 131.74,-147.03 126.95,-152.14"/>
</g>
<!-- Node5 -->
<g id="node5" class="node">
<title>Node5</title>
<g id="a_node5"><a xlink:href="flight__bridge_8cpp.html" target="_top" xlink:title="Utlities for multithreading.">
<polygon fill="white" stroke="black" points="171,-78.5 171,-119.5 308,-119.5 308,-78.5 171,-78.5"/>
<text text-anchor="start" x="179" y="-107.5" font-family="Helvetica,sans-Serif" font-size="10.00">ACSL&#45;flightstack&#45;winged</text>
<text text-anchor="start" x="179" y="-96.5" font-family="Helvetica,sans-Serif" font-size="10.00">/src/acsl_flight/src/flight</text>
<text text-anchor="middle" x="239.5" y="-85.5" font-family="Helvetica,sans-Serif" font-size="10.00">_bridge/flight_bridge.cpp</text>
</a>
</g>
</g>
<!-- Node2&#45;&gt;Node5 -->
<g id="edge5" class="edge">
<title>Node2&#45;&gt;Node5</title>
<path fill="none" stroke="midnightblue" d="M186.1,-149.49C196.74,-139.63 208.61,-128.63 218.45,-119.51"/>
<polygon fill="midnightblue" stroke="midnightblue" points="183.57,-147.06 178.62,-156.43 188.33,-152.2 183.57,-147.06"/>
</g>
<!-- Node4 -->
<g id="node4" class="node">
<title>Node4</title>
<g id="a_node4"><a xlink:href="flight__main_8cpp.html" target="_top" xlink:title="Main function to initiate ROS2.">
<polygon fill="white" stroke="black" points="9,-0.5 9,-41.5 144,-41.5 144,-0.5 9,-0.5"/>
<text text-anchor="start" x="17" y="-29.5" font-family="Helvetica,sans-Serif" font-size="10.00">ACSL&#45;flightstack&#45;winged</text>
<text text-anchor="start" x="17" y="-18.5" font-family="Helvetica,sans-Serif" font-size="10.00">/src/acsl_flight/src/flight</text>
<text text-anchor="middle" x="76.5" y="-7.5" font-family="Helvetica,sans-Serif" font-size="10.00">_main/flight_main.cpp</text>
</a>
</g>
</g>
<!-- Node3&#45;&gt;Node4 -->
<g id="edge4" class="edge">
<title>Node3&#45;&gt;Node4</title>
<path fill="none" stroke="midnightblue" d="M76.5,-68.3C76.5,-59.3 76.5,-49.65 76.5,-41.51"/>
<polygon fill="midnightblue" stroke="midnightblue" points="73,-68.43 76.5,-78.43 80,-68.43 73,-68.43"/>
</g>
</g>
</svg>
