<?xml version="1.0" encoding="UTF-8" standalone="no"?>
<!DOCTYPE svg PUBLIC "-//W3C//DTD SVG 1.1//EN"
 "http://www.w3.org/Graphics/SVG/1.1/DTD/svg11.dtd">
<!-- Generated by graphviz version 2.43.0 (0)
 -->
<!-- Title: ACSL&#45;flightstack&#45;winged/src/acsl_flight/src/control/control.cpp Pages: 1 -->
<svg width="3153pt" height="598pt"
 viewBox="0.00 0.00 3152.50 598.00" xmlns="http://www.w3.org/2000/svg" xmlns:xlink="http://www.w3.org/1999/xlink">
<g id="graph0" class="graph" transform="scale(1 1) rotate(0) translate(4 594)">
<title>ACSL&#45;flightstack&#45;winged/src/acsl_flight/src/control/control.cpp</title>
<polygon fill="white" stroke="transparent" points="-4,4 -4,-594 3148.5,-594 3148.5,4 -4,4"/>
<!-- Node1 -->
<g id="node1" class="node">
<title>Node1</title>
<g id="a_node1"><a xlink:title="Control node definition. Runs all the control algorithms. Adds as a hub for all the control actions.">
<polygon fill="#bfbfbf" stroke="black" points="2304.5,-548.5 2304.5,-589.5 2444.5,-589.5 2444.5,-548.5 2304.5,-548.5"/>
<text text-anchor="start" x="2312.5" y="-577.5" font-family="Helvetica,sans-Serif" font-size="10.00">ACSL&#45;flightstack&#45;winged</text>
<text text-anchor="start" x="2312.5" y="-566.5" font-family="Helvetica,sans-Serif" font-size="10.00">/src/acsl_flight/src/control</text>
<text text-anchor="middle" x="2374.5" y="-555.5" font-family="Helvetica,sans-Serif" font-size="10.00">/control.cpp</text>
</a>
</g>
</g>
<!-- Node2 -->
<g id="node2" class="node">
<title>Node2</title>
<g id="a_node2"><a xlink:href="control_8hpp.html" target="_top" xlink:title="Class declaration for computing and publishing the control.">
<polygon fill="white" stroke="black" points="2339,-492.5 2339,-511.5 2410,-511.5 2410,-492.5 2339,-492.5"/>
<text text-anchor="middle" x="2374.5" y="-499.5" font-family="Helvetica,sans-Serif" font-size="10.00">control.hpp</text>
</a>
</g>
</g>
<!-- Node1&#45;&gt;Node2 -->
<g id="edge1" class="edge">
<title>Node1&#45;&gt;Node2</title>
<path fill="none" stroke="midnightblue" d="M2374.5,-548.5C2374.5,-540.07 2374.5,-530.24 2374.5,-521.87"/>
<polygon fill="midnightblue" stroke="midnightblue" points="2378,-521.65 2374.5,-511.65 2371,-521.65 2378,-521.65"/>
</g>
<!-- Node3 -->
<g id="node3" class="node">
<title>Node3</title>
<g id="a_node3"><a xlink:title=" ">
<polygon fill="white" stroke="#bfbfbf" points="1277,-431 1277,-450 1376,-450 1376,-431 1277,-431"/>
<text text-anchor="middle" x="1326.5" y="-438" font-family="Helvetica,sans-Serif" font-size="10.00">rclcpp/rclcpp.hpp</text>
</a>
</g>
</g>
<!-- Node2&#45;&gt;Node3 -->
<g id="edge2" class="edge">
<title>Node2&#45;&gt;Node3</title>
<path fill="none" stroke="midnightblue" d="M2338.82,-500.22C2185.2,-496.71 1579.36,-481.51 1390.5,-456 1383.52,-455.06 1376.18,-453.72 1369.06,-452.25"/>
<polygon fill="midnightblue" stroke="midnightblue" points="1369.37,-448.73 1358.86,-450 1367.87,-455.57 1369.37,-448.73"/>
</g>
<!-- Node4 -->
<g id="node4" class="node">
<title>Node4</title>
<g id="a_node4"><a xlink:href="vehicle__class_8hpp.html" target="_top" xlink:title="Header for the vehicle class object.">
<polygon fill="white" stroke="black" points="1365,-129 1365,-148 1468,-148 1468,-129 1365,-129"/>
<text text-anchor="middle" x="1416.5" y="-136" font-family="Helvetica,sans-Serif" font-size="10.00">vehicle_class.hpp</text>
</a>
</g>
</g>
<!-- Node2&#45;&gt;Node4 -->
<g id="edge3" class="edge">
<title>Node2&#45;&gt;Node4</title>
<path fill="none" stroke="midnightblue" d="M2338.83,-500.38C2163.83,-496.87 1404.5,-476.1 1404.5,-380 1404.5,-380 1404.5,-380 1404.5,-266 1404.5,-227.53 1410.07,-182.77 1413.62,-158.14"/>
<polygon fill="midnightblue" stroke="midnightblue" points="1417.11,-158.47 1415.12,-148.06 1410.19,-157.44 1417.11,-158.47"/>
</g>
<!-- Node7 -->
<g id="node7" class="node">
<title>Node7</title>
<g id="a_node7"><a xlink:href="px4__defines_8hpp.html" target="_top" xlink:title="Contains useful constant defines for use in the flight stack in a central location.">
<polygon fill="white" stroke="black" points="2366.5,-67.5 2366.5,-86.5 2462.5,-86.5 2462.5,-67.5 2366.5,-67.5"/>
<text text-anchor="middle" x="2414.5" y="-74.5" font-family="Helvetica,sans-Serif" font-size="10.00">px4_defines.hpp</text>
</a>
</g>
</g>
<!-- Node2&#45;&gt;Node7 -->
<g id="edge6" class="edge">
<title>Node2&#45;&gt;Node7</title>
<path fill="none" stroke="midnightblue" d="M2374.5,-492.49C2374.5,-472.74 2374.5,-422.22 2374.5,-380 2374.5,-380 2374.5,-380 2374.5,-204.5 2374.5,-163.99 2393.38,-119.44 2405.2,-95.51"/>
<polygon fill="midnightblue" stroke="midnightblue" points="2408.32,-97.09 2409.75,-86.6 2402.09,-93.91 2408.32,-97.09"/>
</g>
<!-- Node9 -->
<g id="node9" class="node">
<title>Node9</title>
<g id="a_node9"><a xlink:title=" ">
<polygon fill="white" stroke="#bfbfbf" points="2065.5,-6 2065.5,-25 2121.5,-25 2121.5,-6 2065.5,-6"/>
<text text-anchor="middle" x="2093.5" y="-13" font-family="Helvetica,sans-Serif" font-size="10.00">iomanip</text>
</a>
</g>
</g>
<!-- Node2&#45;&gt;Node9 -->
<g id="edge8" class="edge">
<title>Node2&#45;&gt;Node9</title>
<path fill="none" stroke="midnightblue" d="M2369.84,-492.48C2359.69,-473.12 2336.5,-424.04 2336.5,-380 2336.5,-380 2336.5,-380 2336.5,-204.5 2336.5,-142.92 2361.6,-111.94 2319.5,-67 2261.04,-4.6 2212.66,-54.7 2130.5,-31 2127.92,-30.25 2125.26,-29.4 2122.62,-28.49"/>
<polygon fill="midnightblue" stroke="midnightblue" points="2123.83,-25.2 2113.24,-25.01 2121.4,-31.77 2123.83,-25.2"/>
</g>
<!-- Node10 -->
<g id="node10" class="node">
<title>Node10</title>
<g id="a_node10"><a xlink:title=" ">
<polygon fill="white" stroke="#bfbfbf" points="2402.5,-425.5 2402.5,-455.5 2536.5,-455.5 2536.5,-425.5 2402.5,-425.5"/>
<text text-anchor="start" x="2410.5" y="-443.5" font-family="Helvetica,sans-Serif" font-size="10.00">px4_msgs/msg/actuator</text>
<text text-anchor="middle" x="2469.5" y="-432.5" font-family="Helvetica,sans-Serif" font-size="10.00">_motors.hpp</text>
</a>
</g>
</g>
<!-- Node2&#45;&gt;Node10 -->
<g id="edge9" class="edge">
<title>Node2&#45;&gt;Node10</title>
<path fill="none" stroke="midnightblue" d="M2388.11,-492.48C2401.22,-484.27 2421.51,-471.56 2438.55,-460.88"/>
<polygon fill="midnightblue" stroke="midnightblue" points="2440.49,-463.8 2447.11,-455.52 2436.78,-457.86 2440.49,-463.8"/>
</g>
<!-- Node11 -->
<g id="node11" class="node">
<title>Node11</title>
<g id="a_node11"><a xlink:title=" ">
<polygon fill="white" stroke="#bfbfbf" points="2554.5,-425.5 2554.5,-455.5 2688.5,-455.5 2688.5,-425.5 2554.5,-425.5"/>
<text text-anchor="start" x="2562.5" y="-443.5" font-family="Helvetica,sans-Serif" font-size="10.00">px4_msgs/msg/offboard</text>
<text text-anchor="middle" x="2621.5" y="-432.5" font-family="Helvetica,sans-Serif" font-size="10.00">_control_mode.hpp</text>
</a>
</g>
</g>
<!-- Node2&#45;&gt;Node11 -->
<g id="edge10" class="edge">
<title>Node2&#45;&gt;Node11</title>
<path fill="none" stroke="midnightblue" d="M2409.89,-492.48C2447.17,-483.49 2506.81,-469.13 2553.28,-457.93"/>
<polygon fill="midnightblue" stroke="midnightblue" points="2554.38,-461.27 2563.29,-455.52 2552.75,-454.46 2554.38,-461.27"/>
</g>
<!-- Node12 -->
<g id="node12" class="node">
<title>Node12</title>
<g id="a_node12"><a xlink:title=" ">
<polygon fill="white" stroke="#bfbfbf" points="2706.5,-425.5 2706.5,-455.5 2834.5,-455.5 2834.5,-425.5 2706.5,-425.5"/>
<text text-anchor="start" x="2714.5" y="-443.5" font-family="Helvetica,sans-Serif" font-size="10.00">px4_msgs/msg/vehicle</text>
<text text-anchor="middle" x="2770.5" y="-432.5" font-family="Helvetica,sans-Serif" font-size="10.00">_command.hpp</text>
</a>
</g>
</g>
<!-- Node2&#45;&gt;Node12 -->
<g id="edge11" class="edge">
<title>Node2&#45;&gt;Node12</title>
<path fill="none" stroke="midnightblue" d="M2410.45,-496.68C2468.45,-489.56 2586.48,-474.45 2696.51,-456.11"/>
<polygon fill="midnightblue" stroke="midnightblue" points="2697.16,-459.55 2706.44,-454.44 2696,-452.65 2697.16,-459.55"/>
</g>
<!-- Node13 -->
<g id="node13" class="node">
<title>Node13</title>
<g id="a_node13"><a xlink:title=" ">
<polygon fill="white" stroke="#bfbfbf" points="2852.5,-425.5 2852.5,-455.5 2980.5,-455.5 2980.5,-425.5 2852.5,-425.5"/>
<text text-anchor="start" x="2860.5" y="-443.5" font-family="Helvetica,sans-Serif" font-size="10.00">px4_msgs/msg/vehicle</text>
<text text-anchor="middle" x="2916.5" y="-432.5" font-family="Helvetica,sans-Serif" font-size="10.00">_control_mode.hpp</text>
</a>
</g>
</g>
<!-- Node2&#45;&gt;Node13 -->
<g id="edge12" class="edge">
<title>Node2&#45;&gt;Node13</title>
<path fill="none" stroke="midnightblue" d="M2410.24,-498.8C2487.34,-493.79 2675.13,-480.18 2842.49,-456.05"/>
<polygon fill="midnightblue" stroke="midnightblue" points="2843.08,-459.5 2852.47,-454.6 2842.07,-452.58 2843.08,-459.5"/>
</g>
<!-- Node14 -->
<g id="node14" class="node">
<title>Node14</title>
<g id="a_node14"><a xlink:title=" ">
<polygon fill="white" stroke="#bfbfbf" points="2999,-431 2999,-450 3028,-450 3028,-431 2999,-431"/>
<text text-anchor="middle" x="3013.5" y="-438" font-family="Helvetica,sans-Serif" font-size="10.00">bit</text>
</a>
</g>
</g>
<!-- Node2&#45;&gt;Node14 -->
<g id="edge13" class="edge">
<title>Node2&#45;&gt;Node14</title>
<path fill="none" stroke="midnightblue" d="M2410.32,-500.56C2524.76,-498.83 2880.48,-490.71 2989.5,-456 2990.57,-455.66 2991.64,-455.26 2992.7,-454.83"/>
<polygon fill="midnightblue" stroke="midnightblue" points="2994.58,-457.79 3001.83,-450.05 2991.34,-451.59 2994.58,-457.79"/>
</g>
<!-- Node15 -->
<g id="node15" class="node">
<title>Node15</title>
<g id="a_node15"><a xlink:href="global__helpers_8hpp.html" target="_top" xlink:title="Inline functions for all the classes of the flighstack to use.">
<polygon fill="white" stroke="black" points="2201,-67.5 2201,-86.5 2310,-86.5 2310,-67.5 2201,-67.5"/>
<text text-anchor="middle" x="2255.5" y="-74.5" font-family="Helvetica,sans-Serif" font-size="10.00">global_helpers.hpp</text>
</a>
</g>
</g>
<!-- Node2&#45;&gt;Node15 -->
<g id="edge14" class="edge">
<title>Node2&#45;&gt;Node15</title>
<path fill="none" stroke="midnightblue" d="M2360.66,-492.26C2348.93,-484.18 2332.47,-471.16 2322.5,-456 2303.04,-426.4 2298.5,-415.42 2298.5,-380 2298.5,-380 2298.5,-380 2298.5,-204.5 2298.5,-163.7 2278.2,-119.26 2265.5,-95.43"/>
<polygon fill="midnightblue" stroke="midnightblue" points="2268.5,-93.62 2260.6,-86.55 2262.37,-97 2268.5,-93.62"/>
</g>
<!-- Node21 -->
<g id="node21" class="node">
<title>Node21</title>
<g id="a_node21"><a xlink:href="flight__bridge_8hpp.html" target="_top" xlink:title=" ">
<polygon fill="white" stroke="black" points="3046.5,-431 3046.5,-450 3144.5,-450 3144.5,-431 3046.5,-431"/>
<text text-anchor="middle" x="3095.5" y="-438" font-family="Helvetica,sans-Serif" font-size="10.00">flight_bridge.hpp</text>
</a>
</g>
</g>
<!-- Node2&#45;&gt;Node21 -->
<g id="edge20" class="edge">
<title>Node2&#45;&gt;Node21</title>
<path fill="none" stroke="midnightblue" d="M2410.32,-500.79C2510.23,-499.74 2800.18,-493.42 3037.5,-456 3043.41,-455.07 3049.6,-453.82 3055.65,-452.45"/>
<polygon fill="midnightblue" stroke="midnightblue" points="3056.7,-455.79 3065.6,-450.05 3055.06,-448.99 3056.7,-455.79"/>
</g>
<!-- Node22 -->
<g id="node22" class="node">
<title>Node22</title>
<g id="a_node22"><a xlink:href="flight__params_8hpp.html" target="_top" xlink:title="Header file for the main flight parameters that will be used for the entire controller.">
<polygon fill="white" stroke="black" points="2026.5,-129 2026.5,-148 2130.5,-148 2130.5,-129 2026.5,-129"/>
<text text-anchor="middle" x="2078.5" y="-136" font-family="Helvetica,sans-Serif" font-size="10.00">flight_params.hpp</text>
</a>
</g>
</g>
<!-- Node2&#45;&gt;Node22 -->
<g id="edge21" class="edge">
<title>Node2&#45;&gt;Node22</title>
<path fill="none" stroke="midnightblue" d="M2344.02,-492.4C2324.56,-485.47 2300.14,-473.89 2284.5,-456 2261,-429.12 2258.5,-415.7 2258.5,-380 2258.5,-380 2258.5,-380 2258.5,-266 2258.5,-201.1 2179.19,-166.62 2125.86,-150.77"/>
<polygon fill="midnightblue" stroke="midnightblue" points="2126.81,-147.4 2116.23,-148.03 2124.89,-154.14 2126.81,-147.4"/>
</g>
<!-- Node27 -->
<g id="node27" class="node">
<title>Node27</title>
<g id="a_node27"><a xlink:href="control__config_8hpp.html" target="_top" xlink:title="Just a header file for configuring which platform and controller to pick during compilation.">
<polygon fill="white" stroke="black" points="1999.5,-431 1999.5,-450 2105.5,-450 2105.5,-431 1999.5,-431"/>
<text text-anchor="middle" x="2052.5" y="-438" font-family="Helvetica,sans-Serif" font-size="10.00">control_config.hpp</text>
</a>
</g>
</g>
<!-- Node2&#45;&gt;Node27 -->
<g id="edge30" class="edge">
<title>Node2&#45;&gt;Node27</title>
<path fill="none" stroke="midnightblue" d="M2338.81,-494.41C2283.05,-484.1 2174.82,-464.1 2108.57,-451.86"/>
<polygon fill="midnightblue" stroke="midnightblue" points="2109.18,-448.42 2098.72,-450.04 2107.91,-455.3 2109.18,-448.42"/>
</g>
<!-- Node5 -->
<g id="node5" class="node">
<title>Node5</title>
<g id="a_node5"><a xlink:title=" ">
<polygon fill="white" stroke="#bfbfbf" points="1795.5,-6 1795.5,-25 1845.5,-25 1845.5,-6 1795.5,-6"/>
<text text-anchor="middle" x="1820.5" y="-13" font-family="Helvetica,sans-Serif" font-size="10.00">atomic</text>
</a>
</g>
</g>
<!-- Node4&#45;&gt;Node5 -->
<g id="edge4" class="edge">
<title>Node4&#45;&gt;Node5</title>
<path fill="none" stroke="midnightblue" d="M1450.73,-128.99C1516.38,-112.37 1664.2,-73.48 1785.5,-31 1787.41,-30.33 1789.36,-29.61 1791.33,-28.87"/>
<polygon fill="midnightblue" stroke="midnightblue" points="1793.02,-31.96 1801.03,-25.02 1790.44,-25.46 1793.02,-31.96"/>
</g>
<!-- Node6 -->
<g id="node6" class="node">
<title>Node6</title>
<g id="a_node6"><a xlink:title=" ">
<polygon fill="white" stroke="#bfbfbf" points="0,-6 0,-25 47,-25 47,-6 0,-6"/>
<text text-anchor="middle" x="23.5" y="-13" font-family="Helvetica,sans-Serif" font-size="10.00">cmath</text>
</a>
</g>
</g>
<!-- Node4&#45;&gt;Node6 -->
<g id="edge5" class="edge">
<title>Node4&#45;&gt;Node6</title>
<path fill="none" stroke="midnightblue" d="M1364.76,-135.76C1147.91,-128.14 311.61,-95.07 56.5,-31 54.14,-30.41 51.74,-29.66 49.37,-28.82"/>
<polygon fill="midnightblue" stroke="midnightblue" points="50.49,-25.5 39.9,-25 47.86,-31.99 50.49,-25.5"/>
</g>
<!-- Node8 -->
<g id="node8" class="node">
<title>Node8</title>
<g id="a_node8"><a xlink:title=" ">
<polygon fill="white" stroke="#bfbfbf" points="2441.5,-6 2441.5,-25 2491.5,-25 2491.5,-6 2441.5,-6"/>
<text text-anchor="middle" x="2466.5" y="-13" font-family="Helvetica,sans-Serif" font-size="10.00">cstdint</text>
</a>
</g>
</g>
<!-- Node7&#45;&gt;Node8 -->
<g id="edge7" class="edge">
<title>Node7&#45;&gt;Node8</title>
<path fill="none" stroke="midnightblue" d="M2421.95,-67.48C2429.83,-58.46 2442.44,-44.02 2452.24,-32.81"/>
<polygon fill="midnightblue" stroke="midnightblue" points="2455.12,-34.84 2459.06,-25.01 2449.85,-30.24 2455.12,-34.84"/>
</g>
<!-- Node16 -->
<g id="node16" class="node">
<title>Node16</title>
<g id="a_node16"><a xlink:title=" ">
<polygon fill="white" stroke="#bfbfbf" points="2139.5,-6 2139.5,-25 2199.5,-25 2199.5,-6 2139.5,-6"/>
<text text-anchor="middle" x="2169.5" y="-13" font-family="Helvetica,sans-Serif" font-size="10.00">iostream</text>
</a>
</g>
</g>
<!-- Node15&#45;&gt;Node16 -->
<g id="edge15" class="edge">
<title>Node15&#45;&gt;Node16</title>
<path fill="none" stroke="midnightblue" d="M2243.18,-67.48C2229.38,-57.93 2206.8,-42.31 2190.27,-30.87"/>
<polygon fill="midnightblue" stroke="midnightblue" points="2192.01,-27.82 2181.8,-25.01 2188.03,-33.58 2192.01,-27.82"/>
</g>
<!-- Node17 -->
<g id="node17" class="node">
<title>Node17</title>
<g id="a_node17"><a xlink:title=" ">
<polygon fill="white" stroke="#bfbfbf" points="2217.5,-6 2217.5,-25 2261.5,-25 2261.5,-6 2217.5,-6"/>
<text text-anchor="middle" x="2239.5" y="-13" font-family="Helvetica,sans-Serif" font-size="10.00">string</text>
</a>
</g>
</g>
<!-- Node15&#45;&gt;Node17 -->
<g id="edge16" class="edge">
<title>Node15&#45;&gt;Node17</title>
<path fill="none" stroke="midnightblue" d="M2253.21,-67.48C2250.93,-58.99 2247.35,-45.7 2244.43,-34.82"/>
<polygon fill="midnightblue" stroke="midnightblue" points="2247.76,-33.76 2241.79,-25.01 2241.01,-35.57 2247.76,-33.76"/>
</g>
<!-- Node18 -->
<g id="node18" class="node">
<title>Node18</title>
<g id="a_node18"><a xlink:title=" ">
<polygon fill="white" stroke="#bfbfbf" points="2279.5,-6 2279.5,-25 2335.5,-25 2335.5,-6 2279.5,-6"/>
<text text-anchor="middle" x="2307.5" y="-13" font-family="Helvetica,sans-Serif" font-size="10.00">sstream</text>
</a>
</g>
</g>
<!-- Node15&#45;&gt;Node18 -->
<g id="edge17" class="edge">
<title>Node15&#45;&gt;Node18</title>
<path fill="none" stroke="midnightblue" d="M2262.95,-67.48C2270.83,-58.46 2283.44,-44.02 2293.24,-32.81"/>
<polygon fill="midnightblue" stroke="midnightblue" points="2296.12,-34.84 2300.06,-25.01 2290.85,-30.24 2296.12,-34.84"/>
</g>
<!-- Node19 -->
<g id="node19" class="node">
<title>Node19</title>
<g id="a_node19"><a xlink:title=" ">
<polygon fill="white" stroke="#bfbfbf" points="2354,-6 2354,-25 2423,-25 2423,-6 2354,-6"/>
<text text-anchor="middle" x="2388.5" y="-13" font-family="Helvetica,sans-Serif" font-size="10.00">type_traits</text>
</a>
</g>
</g>
<!-- Node15&#45;&gt;Node19 -->
<g id="edge18" class="edge">
<title>Node15&#45;&gt;Node19</title>
<path fill="none" stroke="midnightblue" d="M2274.56,-67.48C2296.97,-57.45 2334.41,-40.7 2360.21,-29.15"/>
<polygon fill="midnightblue" stroke="midnightblue" points="2361.78,-32.29 2369.48,-25.01 2358.92,-25.9 2361.78,-32.29"/>
</g>
<!-- Node20 -->
<g id="node20" class="node">
<title>Node20</title>
<g id="a_node20"><a xlink:title=" ">
<polygon fill="white" stroke="#bfbfbf" points="1700,-6 1700,-25 1777,-25 1777,-6 1700,-6"/>
<text text-anchor="middle" x="1738.5" y="-13" font-family="Helvetica,sans-Serif" font-size="10.00">Eigen/Dense</text>
</a>
</g>
</g>
<!-- Node15&#45;&gt;Node20 -->
<g id="edge19" class="edge">
<title>Node15&#45;&gt;Node20</title>
<path fill="none" stroke="midnightblue" d="M2200.82,-72.12C2094.73,-64.36 1864.55,-46.38 1786.5,-31 1782.27,-30.17 1777.88,-29.11 1773.56,-27.96"/>
<polygon fill="midnightblue" stroke="midnightblue" points="1774.25,-24.52 1763.67,-25.12 1772.32,-31.24 1774.25,-24.52"/>
</g>
<!-- Node22&#45;&gt;Node7 -->
<g id="edge28" class="edge">
<title>Node22&#45;&gt;Node7</title>
<path fill="none" stroke="midnightblue" d="M2126.64,-128.98C2187.27,-118.24 2291.36,-99.81 2356.36,-88.29"/>
<polygon fill="midnightblue" stroke="midnightblue" points="2357.21,-91.7 2366.45,-86.51 2355.99,-84.81 2357.21,-91.7"/>
</g>
<!-- Node22&#45;&gt;Node15 -->
<g id="edge29" class="edge">
<title>Node22&#45;&gt;Node15</title>
<path fill="none" stroke="midnightblue" d="M2103.86,-128.98C2134.48,-118.68 2186.16,-101.31 2220.55,-89.75"/>
<polygon fill="midnightblue" stroke="midnightblue" points="2221.82,-93.01 2230.19,-86.51 2219.59,-86.38 2221.82,-93.01"/>
</g>
<!-- Node22&#45;&gt;Node16 -->
<g id="edge25" class="edge">
<title>Node22&#45;&gt;Node16</title>
<path fill="none" stroke="midnightblue" d="M2085.04,-128.8C2100.06,-108.83 2137.22,-59.42 2156.86,-33.3"/>
<polygon fill="midnightblue" stroke="midnightblue" points="2159.8,-35.22 2163.01,-25.12 2154.21,-31.01 2159.8,-35.22"/>
</g>
<!-- Node22&#45;&gt;Node17 -->
<g id="edge22" class="edge">
<title>Node22&#45;&gt;Node17</title>
<path fill="none" stroke="midnightblue" d="M2089.82,-128.99C2116.89,-108.65 2185.64,-56.98 2219.72,-31.36"/>
<polygon fill="midnightblue" stroke="midnightblue" points="2222.08,-33.97 2227.98,-25.16 2217.88,-28.37 2222.08,-33.97"/>
</g>
<!-- Node23 -->
<g id="node23" class="node">
<title>Node23</title>
<g id="a_node23"><a xlink:title=" ">
<polygon fill="white" stroke="#bfbfbf" points="1864,-6 1864,-25 1919,-25 1919,-6 1864,-6"/>
<text text-anchor="middle" x="1891.5" y="-13" font-family="Helvetica,sans-Serif" font-size="10.00">fstream</text>
</a>
</g>
</g>
<!-- Node22&#45;&gt;Node23 -->
<g id="edge23" class="edge">
<title>Node22&#45;&gt;Node23</title>
<path fill="none" stroke="midnightblue" d="M2052.99,-128.95C2029.21,-120.34 1993.34,-105.67 1965.5,-87 1942.37,-71.49 1919.79,-48.5 1905.78,-33.03"/>
<polygon fill="midnightblue" stroke="midnightblue" points="1908.18,-30.47 1898.92,-25.31 1902.94,-35.11 1908.18,-30.47"/>
</g>
<!-- Node24 -->
<g id="node24" class="node">
<title>Node24</title>
<g id="a_node24"><a xlink:title=" ">
<polygon fill="white" stroke="#bfbfbf" points="1937.5,-6 1937.5,-25 2047.5,-25 2047.5,-6 1937.5,-6"/>
<text text-anchor="middle" x="1992.5" y="-13" font-family="Helvetica,sans-Serif" font-size="10.00">nlohmann/json.hpp</text>
</a>
</g>
</g>
<!-- Node22&#45;&gt;Node24 -->
<g id="edge24" class="edge">
<title>Node22&#45;&gt;Node24</title>
<path fill="none" stroke="midnightblue" d="M2037.14,-128.94C2014.15,-121.84 1987.44,-109.18 1973.5,-87 1963.32,-70.8 1971.75,-49.2 1980.38,-34.19"/>
<polygon fill="midnightblue" stroke="midnightblue" points="1983.54,-35.74 1985.89,-25.41 1977.61,-32.02 1983.54,-35.74"/>
</g>
<!-- Node25 -->
<g id="node25" class="node">
<title>Node25</title>
<g id="a_node25"><a xlink:title=" ">
<polygon fill="white" stroke="#bfbfbf" points="1983,-67.5 1983,-86.5 2032,-86.5 2032,-67.5 1983,-67.5"/>
<text text-anchor="middle" x="2007.5" y="-74.5" font-family="Helvetica,sans-Serif" font-size="10.00">cstdlib</text>
</a>
</g>
</g>
<!-- Node22&#45;&gt;Node25 -->
<g id="edge26" class="edge">
<title>Node22&#45;&gt;Node25</title>
<path fill="none" stroke="midnightblue" d="M2068.33,-128.98C2057.15,-119.61 2038.98,-104.38 2025.41,-93.01"/>
<polygon fill="midnightblue" stroke="midnightblue" points="2027.57,-90.25 2017.65,-86.51 2023.07,-95.61 2027.57,-90.25"/>
</g>
<!-- Node26 -->
<g id="node26" class="node">
<title>Node26</title>
<g id="a_node26"><a xlink:title=" ">
<polygon fill="white" stroke="#bfbfbf" points="2050.5,-67.5 2050.5,-86.5 2106.5,-86.5 2106.5,-67.5 2050.5,-67.5"/>
<text text-anchor="middle" x="2078.5" y="-74.5" font-family="Helvetica,sans-Serif" font-size="10.00">unistd.h</text>
</a>
</g>
</g>
<!-- Node22&#45;&gt;Node26 -->
<g id="edge27" class="edge">
<title>Node22&#45;&gt;Node26</title>
<path fill="none" stroke="midnightblue" d="M2078.5,-128.98C2078.5,-120.58 2078.5,-107.48 2078.5,-96.66"/>
<polygon fill="midnightblue" stroke="midnightblue" points="2082,-96.51 2078.5,-86.51 2075,-96.51 2082,-96.51"/>
</g>
<!-- Node28 -->
<g id="node28" class="node">
<title>Node28</title>
<g id="a_node28"><a xlink:href="PID__OMEGA_8hpp.html" target="_top" xlink:title="PID with angular veocities for the QRBP.">
<polygon fill="white" stroke="black" points="1878.5,-369.5 1878.5,-388.5 1974.5,-388.5 1974.5,-369.5 1878.5,-369.5"/>
<text text-anchor="middle" x="1926.5" y="-376.5" font-family="Helvetica,sans-Serif" font-size="10.00">PID_OMEGA.hpp</text>
</a>
</g>
</g>
<!-- Node27&#45;&gt;Node28 -->
<g id="edge31" class="edge">
<title>Node27&#45;&gt;Node28</title>
<path fill="none" stroke="midnightblue" d="M2034.45,-430.98C2013.3,-420.99 1978.06,-404.35 1953.62,-392.81"/>
<polygon fill="midnightblue" stroke="midnightblue" points="1955.06,-389.61 1944.52,-388.51 1952.07,-395.94 1955.06,-389.61"/>
</g>
<!-- Node29 -->
<g id="node29" class="node">
<title>Node29</title>
<g id="a_node29"><a xlink:href="control__algorithm__base_8hpp.html" target="_top" xlink:title="Utilities for Controller Base Definition.">
<polygon fill="white" stroke="black" points="1432.5,-196 1432.5,-215 1584.5,-215 1584.5,-196 1432.5,-196"/>
<text text-anchor="middle" x="1508.5" y="-203" font-family="Helvetica,sans-Serif" font-size="10.00">control_algorithm_base.hpp</text>
</a>
</g>
</g>
<!-- Node28&#45;&gt;Node29 -->
<g id="edge32" class="edge">
<title>Node28&#45;&gt;Node29</title>
<path fill="none" stroke="midnightblue" d="M1905.77,-369.5C1837.53,-341.49 1619.62,-252.09 1538.93,-218.99"/>
<polygon fill="midnightblue" stroke="midnightblue" points="1539.93,-215.61 1529.35,-215.06 1537.28,-222.09 1539.93,-215.61"/>
</g>
<!-- Node54 -->
<g id="node44" class="node">
<title>Node54</title>
<g id="a_node44"><a xlink:href="PID__OMEGA__members_8hpp.html" target="_top" xlink:title="PID with angular velocities controller class members.">
<polygon fill="white" stroke="black" points="1699.5,-257.5 1699.5,-276.5 1847.5,-276.5 1847.5,-257.5 1699.5,-257.5"/>
<text text-anchor="middle" x="1773.5" y="-264.5" font-family="Helvetica,sans-Serif" font-size="10.00">PID_OMEGA_members.hpp</text>
</a>
</g>
</g>
<!-- Node28&#45;&gt;Node54 -->
<g id="edge56" class="edge">
<title>Node28&#45;&gt;Node54</title>
<path fill="none" stroke="midnightblue" d="M1910.54,-369.37C1895.04,-360.78 1871.06,-346.89 1851.5,-333 1829.67,-317.5 1806.29,-297.51 1790.88,-283.82"/>
<polygon fill="midnightblue" stroke="midnightblue" points="1792.98,-281 1783.2,-276.93 1788.31,-286.21 1792.98,-281"/>
</g>
<!-- Node57 -->
<g id="node47" class="node">
<title>Node57</title>
<g id="a_node47"><a xlink:href="PID__OMEGA__logger_8hpp.html" target="_top" xlink:title="Logger for the PID controller.">
<polygon fill="white" stroke="black" points="1861,-313.5 1861,-332.5 1992,-332.5 1992,-313.5 1861,-313.5"/>
<text text-anchor="middle" x="1926.5" y="-320.5" font-family="Helvetica,sans-Serif" font-size="10.00">PID_OMEGA_logger.hpp</text>
</a>
</g>
</g>
<!-- Node28&#45;&gt;Node57 -->
<g id="edge65" class="edge">
<title>Node28&#45;&gt;Node57</title>
<path fill="none" stroke="midnightblue" d="M1926.5,-369.08C1926.5,-362.01 1926.5,-351.86 1926.5,-342.99"/>
<polygon fill="midnightblue" stroke="midnightblue" points="1930,-342.75 1926.5,-332.75 1923,-342.75 1930,-342.75"/>
</g>
<!-- Node81 -->
<g id="node49" class="node">
<title>Node81</title>
<g id="a_node49"><a xlink:href="piecewise__polynomial__trajectory_8hpp.html" target="_top" xlink:title="Header file for piecewise polynomial trajectory.">
<polygon fill="white" stroke="black" points="2002,-190.5 2002,-220.5 2127,-220.5 2127,-190.5 2002,-190.5"/>
<text text-anchor="start" x="2010" y="-208.5" font-family="Helvetica,sans-Serif" font-size="10.00">piecewise_polynomial</text>
<text text-anchor="middle" x="2064.5" y="-197.5" font-family="Helvetica,sans-Serif" font-size="10.00">_trajectory.hpp</text>
</a>
</g>
</g>
<!-- Node28&#45;&gt;Node81 -->
<g id="edge74" class="edge">
<title>Node28&#45;&gt;Node81</title>
<path fill="none" stroke="midnightblue" d="M1946.83,-369.45C1963.02,-361.82 1985.39,-349.34 2000.5,-333 2028.66,-302.56 2047.47,-257.4 2057.05,-230.07"/>
<polygon fill="midnightblue" stroke="midnightblue" points="2060.38,-231.14 2060.26,-220.54 2053.75,-228.9 2060.38,-231.14"/>
</g>
<!-- Node29&#45;&gt;Node4 -->
<g id="edge33" class="edge">
<title>Node29&#45;&gt;Node4</title>
<path fill="none" stroke="midnightblue" d="M1496.09,-195.73C1480.92,-185.01 1455.02,-166.72 1436.9,-153.91"/>
<polygon fill="midnightblue" stroke="midnightblue" points="1438.9,-151.04 1428.71,-148.13 1434.86,-156.76 1438.9,-151.04"/>
</g>
<!-- Node29&#45;&gt;Node22 -->
<g id="edge34" class="edge">
<title>Node29&#45;&gt;Node22</title>
<path fill="none" stroke="midnightblue" d="M1580.36,-195.97C1597.14,-193.99 1614.95,-191.91 1631.5,-190 1768.68,-174.17 1929.6,-156.11 2016.03,-146.46"/>
<polygon fill="midnightblue" stroke="midnightblue" points="2016.64,-149.91 2026.19,-145.33 2015.86,-142.96 2016.64,-149.91"/>
</g>
<!-- Node30 -->
<g id="node30" class="node">
<title>Node30</title>
<g id="a_node30"><a xlink:href="helper__functions_8hpp.html" target="_top" xlink:title="Definitions of some standard templates used in all controllers.">
<polygon fill="white" stroke="red" points="1449,-67.5 1449,-86.5 1568,-86.5 1568,-67.5 1449,-67.5"/>
<text text-anchor="middle" x="1508.5" y="-74.5" font-family="Helvetica,sans-Serif" font-size="10.00">helper_functions.hpp</text>
</a>
</g>
</g>
<!-- Node29&#45;&gt;Node30 -->
<g id="edge35" class="edge">
<title>Node29&#45;&gt;Node30</title>
<path fill="none" stroke="midnightblue" d="M1508.5,-195.81C1508.5,-175.49 1508.5,-124.55 1508.5,-96.78"/>
<polygon fill="midnightblue" stroke="midnightblue" points="1512,-96.76 1508.5,-86.76 1505,-96.76 1512,-96.76"/>
</g>
<!-- Node30&#45;&gt;Node6 -->
<g id="edge51" class="edge">
<title>Node30&#45;&gt;Node6</title>
<path fill="none" stroke="midnightblue" d="M1448.9,-74.79C1184.22,-69.32 125.34,-46.57 56.5,-31 53.99,-30.43 51.43,-29.67 48.91,-28.8"/>
<polygon fill="midnightblue" stroke="midnightblue" points="50.11,-25.51 39.53,-25.01 47.49,-32 50.11,-25.51"/>
</g>
<!-- Node30&#45;&gt;Node9 -->
<g id="edge52" class="edge">
<title>Node30&#45;&gt;Node9</title>
<path fill="none" stroke="midnightblue" d="M1568.27,-73.29C1690.46,-67.39 1965.02,-52.2 2056.5,-31 2059.34,-30.34 2062.24,-29.51 2065.12,-28.57"/>
<polygon fill="midnightblue" stroke="midnightblue" points="2066.43,-31.82 2074.63,-25.12 2064.04,-25.24 2066.43,-31.82"/>
</g>
<!-- Node30&#45;&gt;Node16 -->
<g id="edge48" class="edge">
<title>Node30&#45;&gt;Node16</title>
<path fill="none" stroke="midnightblue" d="M1568.07,-73.84C1702.17,-68.64 2024.31,-54.09 2130.5,-31 2133.58,-30.33 2136.74,-29.47 2139.86,-28.5"/>
<polygon fill="midnightblue" stroke="midnightblue" points="2141.28,-31.71 2149.59,-25.14 2138.99,-25.1 2141.28,-31.71"/>
</g>
<!-- Node30&#45;&gt;Node17 -->
<g id="edge54" class="edge">
<title>Node30&#45;&gt;Node17</title>
<path fill="none" stroke="midnightblue" d="M1568.05,-73.44C1725.93,-66.48 2147.34,-46.67 2208.5,-31 2210.49,-30.49 2212.5,-29.86 2214.5,-29.14"/>
<polygon fill="midnightblue" stroke="midnightblue" points="2216.3,-32.17 2224.15,-25.06 2213.58,-25.73 2216.3,-32.17"/>
</g>
<!-- Node30&#45;&gt;Node20 -->
<g id="edge37" class="edge">
<title>Node30&#45;&gt;Node20</title>
<path fill="none" stroke="midnightblue" d="M1545.25,-67.5C1582.11,-58.83 1640.44,-44.74 1690.5,-31 1694.07,-30.02 1697.77,-28.97 1701.47,-27.89"/>
<polygon fill="midnightblue" stroke="midnightblue" points="1702.56,-31.22 1711.16,-25.02 1700.57,-24.51 1702.56,-31.22"/>
</g>
<!-- Node30&#45;&gt;Node23 -->
<g id="edge53" class="edge">
<title>Node30&#45;&gt;Node23</title>
<path fill="none" stroke="midnightblue" d="M1568.1,-72.68C1637.73,-67.79 1755.93,-56.32 1854.5,-31 1857.16,-30.32 1859.9,-29.49 1862.61,-28.59"/>
<polygon fill="midnightblue" stroke="midnightblue" points="1864.02,-31.8 1872.21,-25.09 1861.61,-25.23 1864.02,-31.8"/>
</g>
<!-- Node30&#45;&gt;Node24 -->
<g id="edge38" class="edge">
<title>Node30&#45;&gt;Node24</title>
<path fill="none" stroke="midnightblue" d="M1568.11,-71.72C1649.62,-65.39 1800.27,-51.96 1927.5,-31 1933.94,-29.94 1940.7,-28.64 1947.32,-27.26"/>
<polygon fill="midnightblue" stroke="midnightblue" points="1948.52,-30.58 1957.56,-25.05 1947.04,-23.74 1948.52,-30.58"/>
</g>
<!-- Node31 -->
<g id="node31" class="node">
<title>Node31</title>
<g id="a_node31"><a xlink:title=" ">
<polygon fill="white" stroke="#bfbfbf" points="65.5,-6 65.5,-25 107.5,-25 107.5,-6 65.5,-6"/>
<text text-anchor="middle" x="86.5" y="-13" font-family="Helvetica,sans-Serif" font-size="10.00">array</text>
</a>
</g>
</g>
<!-- Node30&#45;&gt;Node31 -->
<g id="edge36" class="edge">
<title>Node30&#45;&gt;Node31</title>
<path fill="none" stroke="midnightblue" d="M1448.77,-74.76C1190.76,-69.32 181.98,-47.11 116.5,-31 114.52,-30.51 112.52,-29.88 110.53,-29.16"/>
<polygon fill="midnightblue" stroke="midnightblue" points="111.56,-25.79 100.99,-25.01 108.76,-32.21 111.56,-25.79"/>
</g>
<!-- Node32 -->
<g id="node32" class="node">
<title>Node32</title>
<g id="a_node32"><a xlink:title=" ">
<polygon fill="white" stroke="#bfbfbf" points="125.5,-6 125.5,-25 217.5,-25 217.5,-6 125.5,-6"/>
<text text-anchor="middle" x="171.5" y="-13" font-family="Helvetica,sans-Serif" font-size="10.00">boost/array.hpp</text>
</a>
</g>
</g>
<!-- Node30&#45;&gt;Node32 -->
<g id="edge39" class="edge">
<title>Node30&#45;&gt;Node32</title>
<path fill="none" stroke="midnightblue" d="M1448.79,-74.69C1212.26,-69.38 348.02,-48.92 226.5,-31 220.68,-30.14 214.59,-28.9 208.67,-27.49"/>
<polygon fill="midnightblue" stroke="midnightblue" points="209.5,-24.09 198.95,-25.02 207.78,-30.88 209.5,-24.09"/>
</g>
<!-- Node33 -->
<g id="node33" class="node">
<title>Node33</title>
<g id="a_node33"><a xlink:title=" ">
<polygon fill="white" stroke="#bfbfbf" points="236,-6 236,-25 349,-25 349,-6 236,-6"/>
<text text-anchor="middle" x="292.5" y="-13" font-family="Helvetica,sans-Serif" font-size="10.00">boost/bind/bind.hpp</text>
</a>
</g>
</g>
<!-- Node30&#45;&gt;Node33 -->
<g id="edge40" class="edge">
<title>Node30&#45;&gt;Node33</title>
<path fill="none" stroke="midnightblue" d="M1448.67,-74.28C1227.98,-67.85 466.76,-44.9 358.5,-31 351.14,-30.06 343.39,-28.69 335.89,-27.17"/>
<polygon fill="midnightblue" stroke="midnightblue" points="336.39,-23.7 325.87,-25.04 334.92,-30.55 336.39,-23.7"/>
</g>
<!-- Node34 -->
<g id="node34" class="node">
<title>Node34</title>
<g id="a_node34"><a xlink:title=" ">
<polygon fill="white" stroke="#bfbfbf" points="367.5,-6 367.5,-25 521.5,-25 521.5,-6 367.5,-6"/>
<text text-anchor="middle" x="444.5" y="-13" font-family="Helvetica,sans-Serif" font-size="10.00">boost/bind/placeholders.hpp</text>
</a>
</g>
</g>
<!-- Node30&#45;&gt;Node34 -->
<g id="edge41" class="edge">
<title>Node30&#45;&gt;Node34</title>
<path fill="none" stroke="midnightblue" d="M1448.94,-74.21C1265.4,-68.53 710.07,-50.2 530.5,-31 520.23,-29.9 509.33,-28.36 498.86,-26.69"/>
<polygon fill="midnightblue" stroke="midnightblue" points="499.43,-23.24 488.99,-25.06 498.29,-30.14 499.43,-23.24"/>
</g>
<!-- Node35 -->
<g id="node35" class="node">
<title>Node35</title>
<g id="a_node35"><a xlink:title=" ">
<polygon fill="white" stroke="#bfbfbf" points="540,-6 540,-25 681,-25 681,-6 540,-6"/>
<text text-anchor="middle" x="610.5" y="-13" font-family="Helvetica,sans-Serif" font-size="10.00">boost/numeric/odeint.hpp</text>
</a>
</g>
</g>
<!-- Node30&#45;&gt;Node35 -->
<g id="edge42" class="edge">
<title>Node30&#45;&gt;Node35</title>
<path fill="none" stroke="midnightblue" d="M1448.75,-75.25C1313.36,-73.01 973.01,-64.24 690.5,-31 681.23,-29.91 671.42,-28.42 661.96,-26.8"/>
<polygon fill="midnightblue" stroke="midnightblue" points="662.33,-23.31 651.87,-25.01 661.11,-30.2 662.33,-23.31"/>
</g>
<!-- Node36 -->
<g id="node36" class="node">
<title>Node36</title>
<g id="a_node36"><a xlink:title=" ">
<polygon fill="white" stroke="#bfbfbf" points="699.5,-6 699.5,-25 847.5,-25 847.5,-6 699.5,-6"/>
<text text-anchor="middle" x="773.5" y="-13" font-family="Helvetica,sans-Serif" font-size="10.00">boost/numeric/interval.hpp</text>
</a>
</g>
</g>
<!-- Node30&#45;&gt;Node36 -->
<g id="edge43" class="edge">
<title>Node30&#45;&gt;Node36</title>
<path fill="none" stroke="midnightblue" d="M1448.97,-73.97C1334.07,-69.58 1073.89,-57.42 856.5,-31 847.02,-29.85 836.97,-28.34 827.26,-26.73"/>
<polygon fill="midnightblue" stroke="midnightblue" points="827.76,-23.27 817.31,-25.03 826.58,-30.17 827.76,-23.27"/>
</g>
<!-- Node37 -->
<g id="node37" class="node">
<title>Node37</title>
<g id="a_node37"><a xlink:title=" ">
<polygon fill="white" stroke="#bfbfbf" points="865.5,-0.5 865.5,-30.5 1009.5,-30.5 1009.5,-0.5 865.5,-0.5"/>
<text text-anchor="start" x="873.5" y="-18.5" font-family="Helvetica,sans-Serif" font-size="10.00">boost/numeric/odeint</text>
<text text-anchor="middle" x="937.5" y="-7.5" font-family="Helvetica,sans-Serif" font-size="10.00">/stepper/runge_kutta4.hpp</text>
</a>
</g>
</g>
<!-- Node30&#45;&gt;Node37 -->
<g id="edge44" class="edge">
<title>Node30&#45;&gt;Node37</title>
<path fill="none" stroke="midnightblue" d="M1448.73,-72.17C1358.14,-65.99 1180.48,-52.45 1019.94,-31.12"/>
<polygon fill="midnightblue" stroke="midnightblue" points="1020.25,-27.63 1009.88,-29.77 1019.32,-34.57 1020.25,-27.63"/>
</g>
<!-- Node38 -->
<g id="node38" class="node">
<title>Node38</title>
<g id="a_node38"><a xlink:title=" ">
<polygon fill="white" stroke="#bfbfbf" points="1027.5,-0.5 1027.5,-30.5 1143.5,-30.5 1143.5,-0.5 1027.5,-0.5"/>
<text text-anchor="start" x="1035.5" y="-18.5" font-family="Helvetica,sans-Serif" font-size="10.00">boost/numeric/ublas</text>
<text text-anchor="middle" x="1085.5" y="-7.5" font-family="Helvetica,sans-Serif" font-size="10.00">/matrix.hpp</text>
</a>
</g>
</g>
<!-- Node30&#45;&gt;Node38 -->
<g id="edge45" class="edge">
<title>Node30&#45;&gt;Node38</title>
<path fill="none" stroke="midnightblue" d="M1448.74,-70.06C1379.9,-62.85 1263.21,-49.54 1153.46,-31.07"/>
<polygon fill="midnightblue" stroke="midnightblue" points="1153.99,-27.61 1143.54,-29.39 1152.82,-34.51 1153.99,-27.61"/>
</g>
<!-- Node39 -->
<g id="node39" class="node">
<title>Node39</title>
<g id="a_node39"><a xlink:title=" ">
<polygon fill="white" stroke="#bfbfbf" points="1161.5,-0.5 1161.5,-30.5 1277.5,-30.5 1277.5,-0.5 1161.5,-0.5"/>
<text text-anchor="start" x="1169.5" y="-18.5" font-family="Helvetica,sans-Serif" font-size="10.00">boost/numeric/ublas</text>
<text text-anchor="middle" x="1219.5" y="-7.5" font-family="Helvetica,sans-Serif" font-size="10.00">/io.hpp</text>
</a>
</g>
</g>
<!-- Node30&#45;&gt;Node39 -->
<g id="edge46" class="edge">
<title>Node30&#45;&gt;Node39</title>
<path fill="none" stroke="midnightblue" d="M1465.49,-67.46C1422.84,-58.94 1355.36,-45.37 1287.59,-31.21"/>
<polygon fill="midnightblue" stroke="midnightblue" points="1288.1,-27.74 1277.59,-29.12 1286.67,-34.6 1288.1,-27.74"/>
</g>
<!-- Node40 -->
<g id="node40" class="node">
<title>Node40</title>
<g id="a_node40"><a xlink:title=" ">
<polygon fill="white" stroke="#bfbfbf" points="1295.5,-6 1295.5,-25 1473.5,-25 1473.5,-6 1295.5,-6"/>
<text text-anchor="middle" x="1384.5" y="-13" font-family="Helvetica,sans-Serif" font-size="10.00">boost/math/tools/polynomial.hpp</text>
</a>
</g>
</g>
<!-- Node30&#45;&gt;Node40 -->
<g id="edge47" class="edge">
<title>Node30&#45;&gt;Node40</title>
<path fill="none" stroke="midnightblue" d="M1490.73,-67.48C1470.02,-57.53 1435.55,-40.99 1411.51,-29.46"/>
<polygon fill="midnightblue" stroke="midnightblue" points="1412.76,-26.18 1402.23,-25.01 1409.73,-32.49 1412.76,-26.18"/>
</g>
<!-- Node41 -->
<g id="node41" class="node">
<title>Node41</title>
<g id="a_node41"><a xlink:title=" ">
<polygon fill="white" stroke="#bfbfbf" points="1491.5,-6 1491.5,-25 1541.5,-25 1541.5,-6 1491.5,-6"/>
<text text-anchor="middle" x="1516.5" y="-13" font-family="Helvetica,sans-Serif" font-size="10.00">stdio.h</text>
</a>
</g>
</g>
<!-- Node30&#45;&gt;Node41 -->
<g id="edge49" class="edge">
<title>Node30&#45;&gt;Node41</title>
<path fill="none" stroke="midnightblue" d="M1509.65,-67.48C1510.77,-59.08 1512.54,-45.98 1513.99,-35.16"/>
<polygon fill="midnightblue" stroke="midnightblue" points="1517.49,-35.39 1515.36,-25.01 1510.55,-34.45 1517.49,-35.39"/>
</g>
<!-- Node42 -->
<g id="node42" class="node">
<title>Node42</title>
<g id="a_node42"><a xlink:title=" ">
<polygon fill="white" stroke="#bfbfbf" points="1560,-6 1560,-25 1613,-25 1613,-6 1560,-6"/>
<text text-anchor="middle" x="1586.5" y="-13" font-family="Helvetica,sans-Serif" font-size="10.00">stdlib.h</text>
</a>
</g>
</g>
<!-- Node30&#45;&gt;Node42 -->
<g id="edge50" class="edge">
<title>Node30&#45;&gt;Node42</title>
<path fill="none" stroke="midnightblue" d="M1519.68,-67.48C1532.07,-58.02 1552.29,-42.6 1567.25,-31.19"/>
<polygon fill="midnightblue" stroke="midnightblue" points="1569.52,-33.86 1575.35,-25.01 1565.27,-28.29 1569.52,-33.86"/>
</g>
<!-- Node47 -->
<g id="node43" class="node">
<title>Node47</title>
<g id="a_node43"><a xlink:title=" ">
<polygon fill="white" stroke="#bfbfbf" points="1631.5,-6 1631.5,-25 1681.5,-25 1681.5,-6 1631.5,-6"/>
<text text-anchor="middle" x="1656.5" y="-13" font-family="Helvetica,sans-Serif" font-size="10.00">chrono</text>
</a>
</g>
</g>
<!-- Node30&#45;&gt;Node47 -->
<g id="edge55" class="edge">
<title>Node30&#45;&gt;Node47</title>
<path fill="none" stroke="midnightblue" d="M1530.2,-67.46C1552.97,-58.48 1589.81,-43.87 1621.5,-31 1623.09,-30.35 1624.72,-29.69 1626.37,-29.01"/>
<polygon fill="midnightblue" stroke="midnightblue" points="1627.88,-32.18 1635.79,-25.13 1625.21,-25.71 1627.88,-32.18"/>
</g>
<!-- Node54&#45;&gt;Node20 -->
<g id="edge57" class="edge">
<title>Node54&#45;&gt;Node20</title>
<path fill="none" stroke="midnightblue" d="M1772.24,-257.29C1769.52,-238.45 1762.91,-192.51 1757.5,-154 1751.54,-111.59 1744.7,-61.81 1741.07,-35.32"/>
<polygon fill="midnightblue" stroke="midnightblue" points="1744.51,-34.62 1739.69,-25.19 1737.57,-35.57 1744.51,-34.62"/>
</g>
<!-- Node54&#45;&gt;Node47 -->
<g id="edge58" class="edge">
<title>Node54&#45;&gt;Node47</title>
<path fill="none" stroke="midnightblue" d="M1699.2,-260.11C1673.55,-254.09 1647.31,-242.6 1631.5,-221 1589.61,-163.78 1627.61,-72.52 1646.87,-34.27"/>
<polygon fill="midnightblue" stroke="midnightblue" points="1650,-35.84 1651.52,-25.35 1643.79,-32.6 1650,-35.84"/>
</g>
<!-- Node55 -->
<g id="node45" class="node">
<title>Node55</title>
<g id="a_node45"><a xlink:href="qrbp_8hpp.html" target="_top" xlink:title="Vehicle Information of the QRBP with the NACA 0012 wings and the Velox V2808 kv1300 motors used in al...">
<polygon fill="white" stroke="red" points="1641,-129 1641,-148 1700,-148 1700,-129 1641,-129"/>
<text text-anchor="middle" x="1670.5" y="-136" font-family="Helvetica,sans-Serif" font-size="10.00">qrbp.hpp</text>
</a>
</g>
</g>
<!-- Node54&#45;&gt;Node55 -->
<g id="edge59" class="edge">
<title>Node54&#45;&gt;Node55</title>
<path fill="none" stroke="midnightblue" d="M1770.6,-257.3C1765.34,-242.38 1753.09,-211.44 1735.5,-190 1723.72,-175.64 1707.14,-162.84 1693.68,-153.72"/>
<polygon fill="midnightblue" stroke="midnightblue" points="1695.24,-150.56 1684.95,-148.02 1691.41,-156.42 1695.24,-150.56"/>
</g>
<!-- Node56 -->
<g id="node46" class="node">
<title>Node56</title>
<g id="a_node46"><a xlink:href="aero__qrbp_8hpp.html" target="_top" xlink:title="Aerodynamics class for all algorithms to use with the grbp platform of ACSL.">
<polygon fill="white" stroke="black" points="1640.5,-196 1640.5,-215 1726.5,-215 1726.5,-196 1640.5,-196"/>
<text text-anchor="middle" x="1683.5" y="-203" font-family="Helvetica,sans-Serif" font-size="10.00">aero_qrbp.hpp</text>
</a>
</g>
</g>
<!-- Node54&#45;&gt;Node56 -->
<g id="edge63" class="edge">
<title>Node54&#45;&gt;Node56</title>
<path fill="none" stroke="midnightblue" d="M1760.61,-257.48C1746.04,-247.84 1722.1,-232.02 1704.75,-220.55"/>
<polygon fill="midnightblue" stroke="midnightblue" points="1706.64,-217.6 1696.37,-215.01 1702.78,-223.44 1706.64,-217.6"/>
</g>
<!-- Node55&#45;&gt;Node6 -->
<g id="edge61" class="edge">
<title>Node55&#45;&gt;Node6</title>
<path fill="none" stroke="midnightblue" d="M1640.93,-135.2C1602.89,-132.26 1534.79,-127.07 1476.5,-123 1318.77,-112 210.1,-68.48 56.5,-31 54.14,-30.42 51.74,-29.69 49.36,-28.86"/>
<polygon fill="midnightblue" stroke="midnightblue" points="50.47,-25.53 39.89,-25.05 47.86,-32.03 50.47,-25.53"/>
</g>
<!-- Node55&#45;&gt;Node20 -->
<g id="edge60" class="edge">
<title>Node55&#45;&gt;Node20</title>
<path fill="none" stroke="midnightblue" d="M1675.39,-128.8C1686.52,-109 1713.9,-60.28 1728.67,-33.99"/>
<polygon fill="midnightblue" stroke="midnightblue" points="1731.81,-35.56 1733.65,-25.12 1725.7,-32.13 1731.81,-35.56"/>
</g>
<!-- Node55&#45;&gt;Node30 -->
<g id="edge62" class="edge">
<title>Node55&#45;&gt;Node30</title>
<path fill="none" stroke="midnightblue" d="M1647.29,-128.98C1619.5,-118.77 1572.78,-101.61 1541.31,-90.05"/>
<polygon fill="midnightblue" stroke="midnightblue" points="1542.26,-86.67 1531.67,-86.51 1539.85,-93.24 1542.26,-86.67"/>
</g>
<!-- Node56&#45;&gt;Node55 -->
<g id="edge64" class="edge">
<title>Node56&#45;&gt;Node55</title>
<path fill="none" stroke="midnightblue" d="M1681.75,-195.73C1679.84,-186.18 1676.72,-170.62 1674.26,-158.28"/>
<polygon fill="midnightblue" stroke="midnightblue" points="1677.62,-157.25 1672.23,-148.13 1670.75,-158.62 1677.62,-157.25"/>
</g>
<!-- Node57&#45;&gt;Node15 -->
<g id="edge73" class="edge">
<title>Node57&#45;&gt;Node15</title>
<path fill="none" stroke="midnightblue" d="M1952.57,-313.45C1994.17,-298.97 2076.83,-266.67 2135.5,-221 2183.29,-183.8 2225.26,-124.71 2244.43,-95.51"/>
<polygon fill="midnightblue" stroke="midnightblue" points="2247.55,-97.13 2250.04,-86.83 2241.67,-93.33 2247.55,-97.13"/>
</g>
<!-- Node57&#45;&gt;Node54 -->
<g id="edge66" class="edge">
<title>Node57&#45;&gt;Node54</title>
<path fill="none" stroke="midnightblue" d="M1902.26,-313.44C1876.63,-304.4 1836.01,-290.06 1807.26,-279.92"/>
<polygon fill="midnightblue" stroke="midnightblue" points="1808.22,-276.54 1797.63,-276.52 1805.89,-283.15 1808.22,-276.54"/>
</g>
<!-- Node58 -->
<g id="node48" class="node">
<title>Node58</title>
<g id="a_node48"><a xlink:href="flight__log_8hpp.html" target="_top" xlink:title="Utilities for logging flight data.">
<polygon fill="white" stroke="red" points="1805,-67.5 1805,-86.5 1888,-86.5 1888,-67.5 1805,-67.5"/>
<text text-anchor="middle" x="1846.5" y="-74.5" font-family="Helvetica,sans-Serif" font-size="10.00">flight_log.hpp</text>
</a>
</g>
</g>
<!-- Node57&#45;&gt;Node58 -->
<g id="edge67" class="edge">
<title>Node57&#45;&gt;Node58</title>
<path fill="none" stroke="midnightblue" d="M1927.95,-313.33C1932.36,-284.19 1943.19,-188.02 1906.5,-123 1899.06,-109.81 1885.98,-99.31 1873.94,-91.79"/>
<polygon fill="midnightblue" stroke="midnightblue" points="1875.44,-88.61 1865.04,-86.61 1871.93,-94.66 1875.44,-88.61"/>
</g>
<!-- Node58&#45;&gt;Node5 -->
<g id="edge68" class="edge">
<title>Node58&#45;&gt;Node5</title>
<path fill="none" stroke="midnightblue" d="M1842.77,-67.48C1839.03,-58.9 1833.14,-45.43 1828.36,-34.48"/>
<polygon fill="midnightblue" stroke="midnightblue" points="1831.43,-32.77 1824.22,-25.01 1825.02,-35.57 1831.43,-32.77"/>
</g>
<!-- Node58&#45;&gt;Node9 -->
<g id="edge70" class="edge">
<title>Node58&#45;&gt;Node9</title>
<path fill="none" stroke="midnightblue" d="M1888.05,-69.15C1930.78,-61.64 1999.02,-48.3 2056.5,-31 2058.93,-30.27 2061.42,-29.45 2063.91,-28.58"/>
<polygon fill="midnightblue" stroke="midnightblue" points="2065.19,-31.84 2073.35,-25.08 2062.76,-25.28 2065.19,-31.84"/>
</g>
<!-- Node58&#45;&gt;Node18 -->
<g id="edge71" class="edge">
<title>Node58&#45;&gt;Node18</title>
<path fill="none" stroke="midnightblue" d="M1888.17,-73C1980.25,-66.15 2198.59,-48.57 2270.5,-31 2273.33,-30.31 2276.23,-29.45 2279.1,-28.5"/>
<polygon fill="midnightblue" stroke="midnightblue" points="2280.42,-31.75 2288.61,-25.02 2278.02,-25.17 2280.42,-31.75"/>
</g>
<!-- Node58&#45;&gt;Node23 -->
<g id="edge72" class="edge">
<title>Node58&#45;&gt;Node23</title>
<path fill="none" stroke="midnightblue" d="M1852.95,-67.48C1859.7,-58.55 1870.47,-44.31 1878.91,-33.14"/>
<polygon fill="midnightblue" stroke="midnightblue" points="1881.82,-35.1 1885.06,-25.01 1876.24,-30.87 1881.82,-35.1"/>
</g>
<!-- Node58&#45;&gt;Node47 -->
<g id="edge69" class="edge">
<title>Node58&#45;&gt;Node47</title>
<path fill="none" stroke="midnightblue" d="M1812.34,-67.44C1780.48,-59.14 1731.79,-45.7 1690.5,-31 1688.64,-30.34 1686.74,-29.63 1684.83,-28.89"/>
<polygon fill="midnightblue" stroke="midnightblue" points="1685.98,-25.58 1675.4,-25.04 1683.34,-32.06 1685.98,-25.58"/>
</g>
<!-- Node81&#45;&gt;Node15 -->
<g id="edge79" class="edge">
<title>Node81&#45;&gt;Node15</title>
<path fill="none" stroke="midnightblue" d="M2085.67,-190.48C2122.2,-166.28 2196.71,-116.94 2233.68,-92.45"/>
<polygon fill="midnightblue" stroke="midnightblue" points="2235.83,-95.23 2242.23,-86.79 2231.96,-89.39 2235.83,-95.23"/>
</g>
<!-- Node81&#45;&gt;Node22 -->
<g id="edge78" class="edge">
<title>Node81&#45;&gt;Node22</title>
<path fill="none" stroke="midnightblue" d="M2067.54,-190.4C2069.57,-180.96 2072.26,-168.45 2074.47,-158.19"/>
<polygon fill="midnightblue" stroke="midnightblue" points="2077.94,-158.71 2076.63,-148.19 2071.1,-157.23 2077.94,-158.71"/>
</g>
<!-- Node82 -->
<g id="node50" class="node">
<title>Node82</title>
<g id="a_node50"><a xlink:href="user__defined__trajectory__base_8hpp.html" target="_top" xlink:title="User Defined Trajectory Base Definition.">
<polygon fill="white" stroke="black" points="1767,-123.5 1767,-153.5 1898,-153.5 1898,-123.5 1767,-123.5"/>
<text text-anchor="start" x="1775" y="-141.5" font-family="Helvetica,sans-Serif" font-size="10.00">user_defined_trajectory</text>
<text text-anchor="middle" x="1832.5" y="-130.5" font-family="Helvetica,sans-Serif" font-size="10.00">_base.hpp</text>
</a>
</g>
</g>
<!-- Node81&#45;&gt;Node82 -->
<g id="edge75" class="edge">
<title>Node81&#45;&gt;Node82</title>
<path fill="none" stroke="midnightblue" d="M2014.45,-190.48C1978.74,-180.47 1930.55,-166.97 1892.74,-156.38"/>
<polygon fill="midnightblue" stroke="midnightblue" points="1893.44,-152.94 1882.87,-153.61 1891.55,-159.68 1893.44,-152.94"/>
</g>
<!-- Node82&#45;&gt;Node20 -->
<g id="edge76" class="edge">
<title>Node82&#45;&gt;Node20</title>
<path fill="none" stroke="midnightblue" d="M1821.35,-123.14C1803.84,-100.61 1769.99,-57.04 1751.44,-33.16"/>
<polygon fill="midnightblue" stroke="midnightblue" points="1754.04,-30.8 1745.14,-25.05 1748.51,-35.1 1754.04,-30.8"/>
</g>
<!-- Node82&#45;&gt;Node30 -->
<g id="edge77" class="edge">
<title>Node82&#45;&gt;Node30</title>
<path fill="none" stroke="midnightblue" d="M1766.93,-125.46C1707.75,-114.59 1621.56,-98.76 1565.27,-88.42"/>
<polygon fill="midnightblue" stroke="midnightblue" points="1565.58,-84.92 1555.12,-86.56 1564.32,-91.81 1565.58,-84.92"/>
</g>
</g>
</svg>
