<?xml version="1.0" encoding="UTF-8" standalone="no"?>
<!DOCTYPE svg PUBLIC "-//W3C//DTD SVG 1.1//EN"
 "http://www.w3.org/Graphics/SVG/1.1/DTD/svg11.dtd">
<!-- Generated by graphviz version 2.43.0 (0)
 -->
<!-- Title: ACSL&#45;flightstack&#45;winged/src/acsl_flight/src/control/platforms/qrbp/control_algorithms/PID_OMEGA Pages: 1 -->
<svg width="132pt" height="151pt"
 viewBox="0.00 0.00 132.00 151.00" xmlns="http://www.w3.org/2000/svg" xmlns:xlink="http://www.w3.org/1999/xlink">
<g id="graph0" class="graph" transform="scale(1 1) rotate(0) translate(4 147)">
<title>ACSL&#45;flightstack&#45;winged/src/acsl_flight/src/control/platforms/qrbp/control_algorithms/PID_OMEGA</title>
<polygon fill="white" stroke="transparent" points="-4,4 -4,-147 128,-147 128,4 -4,4"/>
<g id="clust1" class="cluster">
<title>clusterdir_050819add4eb97d7531514d63b962f2b</title>
<g id="a_clust1"><a xlink:href="dir_050819add4eb97d7531514d63b962f2b.html" target="_top" xlink:title="control_algorithms">
<polygon fill="#ddddee" stroke="black" points="8,-64 8,-135 116,-135 116,-64 8,-64"/>
<text text-anchor="middle" x="62" y="-123" font-family="Helvetica,sans-Serif" font-size="10.00">control_algorithms</text>
</a>
</g>
</g>
<!-- dir_2c226f845b92ae2fd9907189919220dc -->
<g id="node1" class="node">
<title>dir_2c226f845b92ae2fd9907189919220dc</title>
<g id="a_node1"><a xlink:href="dir_2c226f845b92ae2fd9907189919220dc.html" target="_top" xlink:title="PID_OMEGA">
<polygon fill="#eeeeff" stroke="black" points="99.5,-108 24.5,-108 24.5,-72 99.5,-72 99.5,-108"/>
<text text-anchor="middle" x="62" y="-87.5" font-family="Helvetica,sans-Serif" font-size="10.00">PID_OMEGA</text>
</a>
</g>
</g>
<!-- dir_b59d6e0e1db631c1aaa97e9d05ec23c1 -->
<g id="node2" class="node">
<title>dir_b59d6e0e1db631c1aaa97e9d05ec23c1</title>
<g id="a_node2"><a xlink:href="dir_b59d6e0e1db631c1aaa97e9d05ec23c1.html" target="_top" xlink:title="include">
<polygon fill="white" stroke="red" points="89,-36 35,-36 35,0 89,0 89,-36"/>
<text text-anchor="middle" x="62" y="-15.5" font-family="Helvetica,sans-Serif" font-size="10.00">include</text>
</a>
</g>
</g>
<!-- dir_2c226f845b92ae2fd9907189919220dc&#45;&gt;dir_b59d6e0e1db631c1aaa97e9d05ec23c1 -->
<g id="edge1" class="edge">
<title>dir_2c226f845b92ae2fd9907189919220dc&#45;&gt;dir_b59d6e0e1db631c1aaa97e9d05ec23c1</title>
<path fill="none" stroke="black" d="M62,-71.7C62,-63.98 62,-54.71 62,-46.11"/>
<polygon fill="black" stroke="black" points="65.5,-46.1 62,-36.1 58.5,-46.1 65.5,-46.1"/>
<g id="a_edge1&#45;headlabel"><a xlink:href="dir_000043_000004.html" target="_top" xlink:title="2">
<text text-anchor="middle" x="68.34" y="-47.2" font-family="Helvetica,sans-Serif" font-size="10.00">2</text>
</a>
</g>
</g>
</g>
</svg>
