<?xml version="1.0" encoding="UTF-8" standalone="no"?>
<!DOCTYPE svg PUBLIC "-//W3C//DTD SVG 1.1//EN"
 "http://www.w3.org/Graphics/SVG/1.1/DTD/svg11.dtd">
<!-- Generated by graphviz version 2.43.0 (0)
 -->
<!-- Title: ACSL&#45;flightstack&#45;winged/src/acsl_flight/include/control/platforms/qrbp/control_algorithms Pages: 1 -->
<!--zoomable 231 -->
<svg id="main" version="1.1" xmlns="http://www.w3.org/2000/svg" xmlns:xlink="http://www.w3.org/1999/xlink" xml:space="preserve" onload="init(evt)">
<style type="text/css"><![CDATA[
.edge:hover path { stroke: red; }
.edge:hover polygon { stroke: red; fill: red; }
]]></style>
<script type="text/javascript"><![CDATA[
var edges = document.getElementsByTagName('g');
if (edges && edges.length) {
  for (var i=0;i<edges.length;i++) {
    if (edges[i].id.substr(0,4)=='edge') {
      edges[i].setAttribute('class','edge');
    }
  }
}
]]></script>
        <defs>
                <circle id="rim" cx="0" cy="0" r="7"/>
                <circle id="rim2" cx="0" cy="0" r="3.5"/>
                <g id="zoomPlus">
                        <use xlink:href="#rim" fill="#404040">
                                <set attributeName="fill" to="#808080" begin="zoomplus.mouseover" end="zoomplus.mouseout"/>
                        </use>
                        <path d="M-4,0h8M0,-4v8" fill="none" stroke="white" stroke-width="1.5" pointer-events="none"/>
                </g>
                <g id="zoomMin">
                        <use xlink:href="#rim" fill="#404040">
                                <set attributeName="fill" to="#808080" begin="zoomminus.mouseover" end="zoomminus.mouseout"/>
                        </use>
                        <path d="M-4,0h8" fill="none" stroke="white" stroke-width="1.5" pointer-events="none"/>
                </g>
                <g id="dirArrow">
                        <path fill="none" stroke="white" stroke-width="1.5" d="M0,-3.0v7 M-2.5,-0.5L0,-3.0L2.5,-0.5"/>
                </g>
               <g id="resetDef">
                       <use xlink:href="#rim2" fill="#404040">
                               <set attributeName="fill" to="#808080" begin="reset.mouseover" end="reset.mouseout"/>
                       </use>
               </g>
        </defs>

<script type="text/javascript">
var viewWidth = 749;
var viewHeight = 231;
var sectionId = 'dynsection-0';
</script>
<script xlink:href="svgpan.js"/>
<svg id="graph" class="graph">
<g id="viewport">
<title>ACSL&#45;flightstack&#45;winged/src/acsl_flight/include/control/platforms/qrbp/control_algorithms</title>
<polygon fill="white" stroke="transparent" points="-4,4 -4,-227 745.36,-227 745.36,4 -4,4"/>
<g id="clust1" class="cluster">
<title>clusterdir_ae85358b1933238a0a6154cc32e219b9</title>
<g id="a_clust1"><a xlink:href="dir_ae85358b1933238a0a6154cc32e219b9.html" target="_top" xlink:title="qrbp">
<polygon fill="#ddddee" stroke="black" points="8,-64 8,-215 504,-215 504,-64 8,-64"/>
<text text-anchor="middle" x="256" y="-203" font-family="Helvetica,sans-Serif" font-size="10.00">qrbp</text>
</a>
</g>
</g>
<g id="clust2" class="cluster">
<title>clusterdir_82022d225b2379d26d7525e63dec03f3</title>
<g id="a_clust2"><a xlink:href="dir_82022d225b2379d26d7525e63dec03f3.html" target="_top">
<polygon fill="#eeeeff" stroke="black" points="16,-136 16,-188 496,-188 496,-136 16,-136"/>
</a>
</g>
</g>
<!-- dir_e23ed2e74c04421aa8489eea3be87a5e -->
<g id="node1" class="node">
<title>dir_e23ed2e74c04421aa8489eea3be87a5e</title>
<g id="a_node1"><a xlink:href="dir_e23ed2e74c04421aa8489eea3be87a5e.html" target="_top" xlink:title="aerodynamics">
<polygon fill="none" stroke="black" points="230,-108 144,-108 144,-72 230,-72 230,-108"/>
<text text-anchor="middle" x="187" y="-87.5" font-family="Helvetica,sans-Serif" font-size="10.00">aerodynamics</text>
</a>
</g>
</g>
<!-- dir_82022d225b2379d26d7525e63dec03f3 -->
<g id="node2" class="node">
<title>dir_82022d225b2379d26d7525e63dec03f3</title>
<text text-anchor="middle" x="434" y="-159.5" font-family="Helvetica,sans-Serif" font-size="10.00">control_algorithms</text>
</g>
<!-- dir_962bba8fe438adee815256e99b0f10e3 -->
<g id="node3" class="node">
<title>dir_962bba8fe438adee815256e99b0f10e3</title>
<g id="a_node3"><a xlink:href="dir_962bba8fe438adee815256e99b0f10e3.html" target="_top" xlink:title="MRAC_OMEGA">
<polygon fill="white" stroke="black" points="204,-180 116,-180 116,-144 204,-144 204,-180"/>
<text text-anchor="middle" x="160" y="-159.5" font-family="Helvetica,sans-Serif" font-size="10.00">MRAC_OMEGA</text>
</a>
</g>
</g>
<!-- dir_962bba8fe438adee815256e99b0f10e3&#45;&gt;dir_e23ed2e74c04421aa8489eea3be87a5e -->
<g id="edge9" class="edge">
<title>dir_962bba8fe438adee815256e99b0f10e3&#45;&gt;dir_e23ed2e74c04421aa8489eea3be87a5e</title>
<path fill="none" stroke="black" d="M166.67,-143.7C169.71,-135.81 173.38,-126.3 176.76,-117.55"/>
<polygon fill="black" stroke="black" points="180.07,-118.69 180.4,-108.1 173.54,-116.17 180.07,-118.69"/>
<g id="a_edge9&#45;headlabel"><a xlink:href="dir_000010_000008.html" target="_top" xlink:title="1">
<text text-anchor="middle" x="181.42" y="-120.57" font-family="Helvetica,sans-Serif" font-size="10.00">1</text>
</a>
</g>
</g>
<!-- dir_21e9e6473ae68b51f10683f3306be290 -->
<g id="node7" class="node">
<title>dir_21e9e6473ae68b51f10683f3306be290</title>
<g id="a_node7"><a xlink:href="dir_21e9e6473ae68b51f10683f3306be290.html" target="_top" xlink:title="utils">
<polygon fill="white" stroke="red" points="628,-36 574,-36 574,0 628,0 628,-36"/>
<text text-anchor="middle" x="601" y="-15.5" font-family="Helvetica,sans-Serif" font-size="10.00">utils</text>
</a>
</g>
</g>
<!-- dir_962bba8fe438adee815256e99b0f10e3&#45;&gt;dir_21e9e6473ae68b51f10683f3306be290 -->
<g id="edge7" class="edge">
<title>dir_962bba8fe438adee815256e99b0f10e3&#45;&gt;dir_21e9e6473ae68b51f10683f3306be290</title>
<path fill="none" stroke="black" d="M194.18,-143.98C200.37,-141.15 206.83,-138.37 213,-136 246.56,-123.11 473.82,-56.23 564.12,-29.78"/>
<polygon fill="black" stroke="black" points="565.32,-33.08 573.93,-26.91 563.35,-26.36 565.32,-33.08"/>
<g id="a_edge7&#45;headlabel"><a xlink:href="dir_000010_000026.html" target="_top" xlink:title="3">
<text text-anchor="middle" x="562.66" y="-34.31" font-family="Helvetica,sans-Serif" font-size="10.00">3</text>
</a>
</g>
</g>
<!-- dir_653c48f60ee8ceb0961c6a3849e63394 -->
<g id="node8" class="node">
<title>dir_653c48f60ee8ceb0961c6a3849e63394</title>
<g id="a_node8"><a xlink:href="dir_653c48f60ee8ceb0961c6a3849e63394.html" target="_top" xlink:title="piecewise_polynomial_trajectory">
<polygon fill="none" stroke="black" points="690,-108 512,-108 512,-72 690,-72 690,-108"/>
<text text-anchor="middle" x="601" y="-87.5" font-family="Helvetica,sans-Serif" font-size="10.00">piecewise_polynomial_trajectory</text>
</a>
</g>
</g>
<!-- dir_962bba8fe438adee815256e99b0f10e3&#45;&gt;dir_653c48f60ee8ceb0961c6a3849e63394 -->
<g id="edge8" class="edge">
<title>dir_962bba8fe438adee815256e99b0f10e3&#45;&gt;dir_653c48f60ee8ceb0961c6a3849e63394</title>
<path fill="none" stroke="black" d="M191.86,-143.94C198.68,-140.87 205.96,-138.01 213,-136 265.43,-121.03 405.09,-107.11 501.7,-98.83"/>
<polygon fill="black" stroke="black" points="502.13,-102.31 511.79,-97.97 501.53,-95.33 502.13,-102.31"/>
<g id="a_edge8&#45;headlabel"><a xlink:href="dir_000010_000024.html" target="_top" xlink:title="1">
<text text-anchor="middle" x="498.78" y="-102.94" font-family="Helvetica,sans-Serif" font-size="10.00">1</text>
</a>
</g>
</g>
<!-- dir_b996325e17d267980a16186ece650320 -->
<g id="node4" class="node">
<title>dir_b996325e17d267980a16186ece650320</title>
<g id="a_node4"><a xlink:href="dir_b996325e17d267980a16186ece650320.html" target="_top" xlink:title="MRAC_PID">
<polygon fill="white" stroke="black" points="290,-180 222,-180 222,-144 290,-144 290,-180"/>
<text text-anchor="middle" x="256" y="-159.5" font-family="Helvetica,sans-Serif" font-size="10.00">MRAC_PID</text>
</a>
</g>
</g>
<!-- dir_b996325e17d267980a16186ece650320&#45;&gt;dir_e23ed2e74c04421aa8489eea3be87a5e -->
<g id="edge3" class="edge">
<title>dir_b996325e17d267980a16186ece650320&#45;&gt;dir_e23ed2e74c04421aa8489eea3be87a5e</title>
<path fill="none" stroke="black" d="M238.94,-143.7C230.5,-135.14 220.18,-124.66 210.96,-115.3"/>
<polygon fill="black" stroke="black" points="213.37,-112.77 203.86,-108.1 208.39,-117.68 213.37,-112.77"/>
<g id="a_edge3&#45;headlabel"><a xlink:href="dir_000011_000008.html" target="_top" xlink:title="1">
<text text-anchor="middle" x="217.92" y="-110.84" font-family="Helvetica,sans-Serif" font-size="10.00">1</text>
</a>
</g>
</g>
<!-- dir_b996325e17d267980a16186ece650320&#45;&gt;dir_21e9e6473ae68b51f10683f3306be290 -->
<g id="edge1" class="edge">
<title>dir_b996325e17d267980a16186ece650320&#45;&gt;dir_21e9e6473ae68b51f10683f3306be290</title>
<path fill="none" stroke="black" d="M281.04,-143.91C286.72,-140.76 292.89,-137.88 299,-136 341.59,-122.91 668.62,-140.59 699,-108 712.34,-93.7 709.56,-80.46 699,-64 685.65,-43.18 659.99,-31.87 638.27,-25.79"/>
<polygon fill="black" stroke="black" points="638.87,-22.33 628.32,-23.28 637.16,-29.12 638.87,-22.33"/>
<g id="a_edge1&#45;headlabel"><a xlink:href="dir_000011_000026.html" target="_top" xlink:title="3">
<text text-anchor="middle" x="643.05" y="-17.96" font-family="Helvetica,sans-Serif" font-size="10.00">3</text>
</a>
</g>
</g>
<!-- dir_b996325e17d267980a16186ece650320&#45;&gt;dir_653c48f60ee8ceb0961c6a3849e63394 -->
<g id="edge2" class="edge">
<title>dir_b996325e17d267980a16186ece650320&#45;&gt;dir_653c48f60ee8ceb0961c6a3849e63394</title>
<path fill="none" stroke="black" d="M282.08,-143.75C287.5,-140.78 293.3,-138 299,-136 364.37,-113.07 441.71,-101.83 501.75,-96.31"/>
<polygon fill="black" stroke="black" points="502.34,-99.77 511.99,-95.41 501.72,-92.8 502.34,-99.77"/>
<g id="a_edge2&#45;headlabel"><a xlink:href="dir_000011_000024.html" target="_top" xlink:title="1">
<text text-anchor="middle" x="499.01" y="-100.42" font-family="Helvetica,sans-Serif" font-size="10.00">1</text>
</a>
</g>
</g>
<!-- dir_c0f2b0bd974b694d0107f4a97d5106bc -->
<g id="node5" class="node">
<title>dir_c0f2b0bd974b694d0107f4a97d5106bc</title>
<g id="a_node5"><a xlink:href="dir_c0f2b0bd974b694d0107f4a97d5106bc.html" target="_top" xlink:title="PID">
<polygon fill="white" stroke="black" points="362,-180 308,-180 308,-144 362,-144 362,-180"/>
<text text-anchor="middle" x="335" y="-159.5" font-family="Helvetica,sans-Serif" font-size="10.00">PID</text>
</a>
</g>
</g>
<!-- dir_c0f2b0bd974b694d0107f4a97d5106bc&#45;&gt;dir_e23ed2e74c04421aa8489eea3be87a5e -->
<g id="edge6" class="edge">
<title>dir_c0f2b0bd974b694d0107f4a97d5106bc&#45;&gt;dir_e23ed2e74c04421aa8489eea3be87a5e</title>
<path fill="none" stroke="black" d="M311.86,-143.81C307.68,-141.03 303.29,-138.31 299,-136 280.22,-125.88 258.67,-116.69 239.52,-109.29"/>
<polygon fill="black" stroke="black" points="240.63,-105.97 230.04,-105.7 238.15,-112.52 240.63,-105.97"/>
<g id="a_edge6&#45;headlabel"><a xlink:href="dir_000012_000008.html" target="_top" xlink:title="1">
<text text-anchor="middle" x="245" y="-102.09" font-family="Helvetica,sans-Serif" font-size="10.00">1</text>
</a>
</g>
</g>
<!-- dir_c0f2b0bd974b694d0107f4a97d5106bc&#45;&gt;dir_21e9e6473ae68b51f10683f3306be290 -->
<g id="edge4" class="edge">
<title>dir_c0f2b0bd974b694d0107f4a97d5106bc&#45;&gt;dir_21e9e6473ae68b51f10683f3306be290</title>
<path fill="none" stroke="black" d="M355.67,-143.92C360.45,-140.78 365.7,-137.89 371,-136 446.8,-109 677.35,-167.05 732,-108 745.28,-93.65 743.36,-79.92 732,-64 710.94,-34.5 669.27,-24.14 638.55,-20.6"/>
<polygon fill="black" stroke="black" points="638.49,-17.08 628.2,-19.62 637.82,-24.05 638.49,-17.08"/>
<g id="a_edge4&#45;headlabel"><a xlink:href="dir_000012_000026.html" target="_top" xlink:title="3">
<text text-anchor="middle" x="642.33" y="-12.1" font-family="Helvetica,sans-Serif" font-size="10.00">3</text>
</a>
</g>
</g>
<!-- dir_c0f2b0bd974b694d0107f4a97d5106bc&#45;&gt;dir_653c48f60ee8ceb0961c6a3849e63394 -->
<g id="edge5" class="edge">
<title>dir_c0f2b0bd974b694d0107f4a97d5106bc&#45;&gt;dir_653c48f60ee8ceb0961c6a3849e63394</title>
<path fill="none" stroke="black" d="M356.63,-143.87C361.18,-140.88 366.09,-138.07 371,-136 412.11,-118.61 460.22,-107.86 501.79,-101.26"/>
<polygon fill="black" stroke="black" points="502.57,-104.68 511.93,-99.71 501.52,-97.76 502.57,-104.68"/>
<g id="a_edge5&#45;headlabel"><a xlink:href="dir_000012_000024.html" target="_top" xlink:title="1">
<text text-anchor="middle" x="499.45" y="-105.53" font-family="Helvetica,sans-Serif" font-size="10.00">1</text>
</a>
</g>
</g>
<!-- dir_6f59db414d12fd7104b849da5f604b6e -->
<g id="node6" class="node">
<title>dir_6f59db414d12fd7104b849da5f604b6e</title>
<g id="a_node6"><a xlink:href="dir_6f59db414d12fd7104b849da5f604b6e.html" target="_top" xlink:title="PID_OMEGA">
<polygon fill="white" stroke="black" points="98.5,-180 23.5,-180 23.5,-144 98.5,-144 98.5,-180"/>
<text text-anchor="middle" x="61" y="-159.5" font-family="Helvetica,sans-Serif" font-size="10.00">PID_OMEGA</text>
</a>
</g>
</g>
<!-- dir_6f59db414d12fd7104b849da5f604b6e&#45;&gt;dir_e23ed2e74c04421aa8489eea3be87a5e -->
<g id="edge12" class="edge">
<title>dir_6f59db414d12fd7104b849da5f604b6e&#45;&gt;dir_e23ed2e74c04421aa8489eea3be87a5e</title>
<path fill="none" stroke="black" d="M91.82,-143.88C108.45,-134.64 129.16,-123.13 147.02,-113.21"/>
<polygon fill="black" stroke="black" points="149.02,-116.11 156.06,-108.19 145.62,-109.99 149.02,-116.11"/>
<g id="a_edge12&#45;headlabel"><a xlink:href="dir_000013_000008.html" target="_top" xlink:title="1">
<text text-anchor="middle" x="147.25" y="-117.83" font-family="Helvetica,sans-Serif" font-size="10.00">1</text>
</a>
</g>
</g>
<!-- dir_6f59db414d12fd7104b849da5f604b6e&#45;&gt;dir_21e9e6473ae68b51f10683f3306be290 -->
<g id="edge10" class="edge">
<title>dir_6f59db414d12fd7104b849da5f604b6e&#45;&gt;dir_21e9e6473ae68b51f10683f3306be290</title>
<path fill="none" stroke="black" d="M89.04,-143.88C94.82,-140.9 100.99,-138.08 107,-136 176.87,-111.8 208.78,-147.95 271,-108 290.92,-95.21 280.95,-76.59 301,-64 344.06,-36.96 492.83,-25.11 563.35,-20.92"/>
<polygon fill="black" stroke="black" points="563.79,-24.4 573.57,-20.33 563.39,-17.41 563.79,-24.4"/>
<g id="a_edge10&#45;headlabel"><a xlink:href="dir_000013_000026.html" target="_top" xlink:title="3">
<text text-anchor="middle" x="560.36" y="-24.94" font-family="Helvetica,sans-Serif" font-size="10.00">3</text>
</a>
</g>
</g>
<!-- dir_6f59db414d12fd7104b849da5f604b6e&#45;&gt;dir_653c48f60ee8ceb0961c6a3849e63394 -->
<g id="edge11" class="edge">
<title>dir_6f59db414d12fd7104b849da5f604b6e&#45;&gt;dir_653c48f60ee8ceb0961c6a3849e63394</title>
<path fill="none" stroke="black" d="M88.42,-143.76C94.36,-140.71 100.74,-137.9 107,-136 178.34,-114.37 379.13,-101.42 501.65,-95.29"/>
<polygon fill="black" stroke="black" points="501.98,-98.78 511.79,-94.79 501.63,-91.79 501.98,-98.78"/>
<g id="a_edge11&#45;headlabel"><a xlink:href="dir_000013_000024.html" target="_top" xlink:title="1">
<text text-anchor="middle" x="498.53" y="-99.3" font-family="Helvetica,sans-Serif" font-size="10.00">1</text>
</a>
</g>
</g>
<!-- dir_653c48f60ee8ceb0961c6a3849e63394&#45;&gt;dir_21e9e6473ae68b51f10683f3306be290 -->
<g id="edge13" class="edge">
<title>dir_653c48f60ee8ceb0961c6a3849e63394&#45;&gt;dir_21e9e6473ae68b51f10683f3306be290</title>
<path fill="none" stroke="black" d="M601,-71.7C601,-63.98 601,-54.71 601,-46.11"/>
<polygon fill="black" stroke="black" points="604.5,-46.1 601,-36.1 597.5,-46.1 604.5,-46.1"/>
<g id="a_edge13&#45;headlabel"><a xlink:href="dir_000024_000026.html" target="_top" xlink:title="2">
<text text-anchor="middle" x="607.34" y="-47.2" font-family="Helvetica,sans-Serif" font-size="10.00">2</text>
</a>
</g>
</g>
</g>
</svg>
        <g id="navigator" transform="translate(0 0)" fill="#404254">
                <rect fill="#f2f5e9" fill-opacity="0.5" stroke="#606060" stroke-width=".5" x="0" y="0" width="60" height="60"/>
                <use id="zoomplus" xlink:href="#zoomPlus" x="17" y="9" onmousedown="handleZoom(evt,'in')"/>
                <use id="zoomminus" xlink:href="#zoomMin" x="42" y="9" onmousedown="handleZoom(evt,'out')"/>
                <use id="reset" xlink:href="#resetDef" x="30" y="36" onmousedown="handleReset()"/>
                <g id="arrowUp" xlink:href="#dirArrow" transform="translate(30 24)" onmousedown="handlePan(0,-1)">
                  <use xlink:href="#rim" fill="#404040">
                        <set attributeName="fill" to="#808080" begin="arrowUp.mouseover" end="arrowUp.mouseout"/>
                  </use>
                  <path fill="none" stroke="white" stroke-width="1.5" d="M0,-3.0v7 M-2.5,-0.5L0,-3.0L2.5,-0.5"/>
                </g>
                <g id="arrowRight" xlink:href="#dirArrow" transform="rotate(90) translate(36 -43)" onmousedown="handlePan(1,0)">
                  <use xlink:href="#rim" fill="#404040">
                        <set attributeName="fill" to="#808080" begin="arrowRight.mouseover" end="arrowRight.mouseout"/>
                  </use>
                  <path fill="none" stroke="white" stroke-width="1.5" d="M0,-3.0v7 M-2.5,-0.5L0,-3.0L2.5,-0.5"/>
                </g>
                <g id="arrowDown" xlink:href="#dirArrow" transform="rotate(180) translate(-30 -48)" onmousedown="handlePan(0,1)">
                  <use xlink:href="#rim" fill="#404040">
                        <set attributeName="fill" to="#808080" begin="arrowDown.mouseover" end="arrowDown.mouseout"/>
                  </use>
                  <path fill="none" stroke="white" stroke-width="1.5" d="M0,-3.0v7 M-2.5,-0.5L0,-3.0L2.5,-0.5"/>
                </g>
                <g id="arrowLeft" xlink:href="#dirArrow" transform="rotate(270) translate(-36 17)" onmousedown="handlePan(-1,0)">
                  <use xlink:href="#rim" fill="#404040">
                        <set attributeName="fill" to="#808080" begin="arrowLeft.mouseover" end="arrowLeft.mouseout"/>
                  </use>
                  <path fill="none" stroke="white" stroke-width="1.5" d="M0,-3.0v7 M-2.5,-0.5L0,-3.0L2.5,-0.5"/>
                </g>
        </g>
        <svg viewBox="0 0 15 15" width="100%" height="30px" preserveAspectRatio="xMaxYMin meet">
         <g id="arrow_out" transform="scale(0.3 0.3)">
          <a xlink:href="dir_82022d225b2379d26d7525e63dec03f3_dep_org.svg" target="_base">
           <rect id="button" ry="5" rx="5" y="6" x="6" height="38" width="38"
                fill="#f2f5e9" fill-opacity="0.5" stroke="#606060" stroke-width="1.0"/>
           <path id="arrow"
             d="M 11.500037,31.436501 C 11.940474,20.09759 22.043105,11.32322 32.158766,21.979434 L 37.068811,17.246167 C 37.068811,17.246167 37.088388,32 37.088388,32 L 22.160133,31.978069 C 22.160133,31.978069 26.997745,27.140456 26.997745,27.140456 C 18.528582,18.264221 13.291696,25.230495 11.500037,31.436501 z"
             style="fill:#404040;"/>
          </a>
         </g>
        </svg>
</svg>
