<?xml version="1.0" encoding="UTF-8" standalone="no"?>
<!DOCTYPE svg PUBLIC "-//W3C//DTD SVG 1.1//EN"
 "http://www.w3.org/Graphics/SVG/1.1/DTD/svg11.dtd">
<!-- Generated by graphviz version 2.43.0 (0)
 -->
<!-- Title: ACSL&#45;flightstack&#45;winged/src/acsl_flight/src/control/platforms/qrbp/control_algorithms Pages: 1 -->
<svg width="521pt" height="159pt"
 viewBox="0.00 0.00 521.00 159.00" xmlns="http://www.w3.org/2000/svg" xmlns:xlink="http://www.w3.org/1999/xlink">
<g id="graph0" class="graph" transform="scale(1 1) rotate(0) translate(4 155)">
<title>ACSL&#45;flightstack&#45;winged/src/acsl_flight/src/control/platforms/qrbp/control_algorithms</title>
<polygon fill="white" stroke="transparent" points="-4,4 -4,-155 517,-155 517,4 -4,4"/>
<g id="clust1" class="cluster">
<title>clusterdir_db4fad7582c74e62bc80cb4a5a27a6aa</title>
<g id="a_clust1"><a xlink:href="dir_db4fad7582c74e62bc80cb4a5a27a6aa.html" target="_top" xlink:title="qrbp">
<polygon fill="#ddddee" stroke="black" points="8,-56 8,-143 505,-143 505,-56 8,-56"/>
<text text-anchor="middle" x="256.5" y="-131" font-family="Helvetica,sans-Serif" font-size="10.00">qrbp</text>
</a>
</g>
</g>
<g id="clust2" class="cluster">
<title>clusterdir_050819add4eb97d7531514d63b962f2b</title>
<g id="a_clust2"><a xlink:href="dir_050819add4eb97d7531514d63b962f2b.html" target="_top">
<polygon fill="#eeeeff" stroke="black" points="16,-64 16,-116 497,-116 497,-64 16,-64"/>
</a>
</g>
</g>
<!-- dir_050819add4eb97d7531514d63b962f2b -->
<g id="node1" class="node">
<title>dir_050819add4eb97d7531514d63b962f2b</title>
<text text-anchor="middle" x="435" y="-87.5" font-family="Helvetica,sans-Serif" font-size="10.00">control_algorithms</text>
</g>
<!-- dir_386a5a007e417477c79f13c61590b68d -->
<g id="node2" class="node">
<title>dir_386a5a007e417477c79f13c61590b68d</title>
<g id="a_node2"><a xlink:href="dir_386a5a007e417477c79f13c61590b68d.html" target="_top" xlink:title="MRAC_OMEGA">
<polygon fill="white" stroke="black" points="363,-108 275,-108 275,-72 363,-72 363,-108"/>
<text text-anchor="middle" x="319" y="-87.5" font-family="Helvetica,sans-Serif" font-size="10.00">MRAC_OMEGA</text>
</a>
</g>
</g>
<!-- dir_b59d6e0e1db631c1aaa97e9d05ec23c1 -->
<g id="node6" class="node">
<title>dir_b59d6e0e1db631c1aaa97e9d05ec23c1</title>
<g id="a_node6"><a xlink:href="dir_b59d6e0e1db631c1aaa97e9d05ec23c1.html" target="_top" xlink:title="include">
<polygon fill="white" stroke="red" points="210,-36 156,-36 156,0 210,0 210,-36"/>
<text text-anchor="middle" x="183" y="-15.5" font-family="Helvetica,sans-Serif" font-size="10.00">include</text>
</a>
</g>
</g>
<!-- dir_386a5a007e417477c79f13c61590b68d&#45;&gt;dir_b59d6e0e1db631c1aaa97e9d05ec23c1 -->
<g id="edge1" class="edge">
<title>dir_386a5a007e417477c79f13c61590b68d&#45;&gt;dir_b59d6e0e1db631c1aaa97e9d05ec23c1</title>
<path fill="none" stroke="black" d="M293.27,-71.99C284.74,-66.62 275.09,-60.83 266,-56 251.14,-48.11 234.26,-40.37 219.62,-34.03"/>
<polygon fill="black" stroke="black" points="220.93,-30.79 210.36,-30.08 218.18,-37.22 220.93,-30.79"/>
<g id="a_edge1&#45;headlabel"><a xlink:href="dir_000040_000004.html" target="_top" xlink:title="2">
<text text-anchor="middle" x="225.35" y="-27.09" font-family="Helvetica,sans-Serif" font-size="10.00">2</text>
</a>
</g>
</g>
<!-- dir_e80378bf35f458e3d4dc9119910509d1 -->
<g id="node3" class="node">
<title>dir_e80378bf35f458e3d4dc9119910509d1</title>
<g id="a_node3"><a xlink:href="dir_e80378bf35f458e3d4dc9119910509d1.html" target="_top" xlink:title="MRAC_PID">
<polygon fill="white" stroke="black" points="257,-108 189,-108 189,-72 257,-72 257,-108"/>
<text text-anchor="middle" x="223" y="-87.5" font-family="Helvetica,sans-Serif" font-size="10.00">MRAC_PID</text>
</a>
</g>
</g>
<!-- dir_e80378bf35f458e3d4dc9119910509d1&#45;&gt;dir_b59d6e0e1db631c1aaa97e9d05ec23c1 -->
<g id="edge2" class="edge">
<title>dir_e80378bf35f458e3d4dc9119910509d1&#45;&gt;dir_b59d6e0e1db631c1aaa97e9d05ec23c1</title>
<path fill="none" stroke="black" d="M213.11,-71.7C208.51,-63.64 202.94,-53.89 197.85,-44.98"/>
<polygon fill="black" stroke="black" points="200.77,-43.05 192.77,-36.1 194.7,-46.52 200.77,-43.05"/>
<g id="a_edge2&#45;headlabel"><a xlink:href="dir_000041_000004.html" target="_top" xlink:title="2">
<text text-anchor="middle" x="205.02" y="-42.26" font-family="Helvetica,sans-Serif" font-size="10.00">2</text>
</a>
</g>
</g>
<!-- dir_cf719d7499ff5fc303d320eadf77c49b -->
<g id="node4" class="node">
<title>dir_cf719d7499ff5fc303d320eadf77c49b</title>
<g id="a_node4"><a xlink:href="dir_cf719d7499ff5fc303d320eadf77c49b.html" target="_top" xlink:title="PID">
<polygon fill="white" stroke="black" points="171,-108 117,-108 117,-72 171,-72 171,-108"/>
<text text-anchor="middle" x="144" y="-87.5" font-family="Helvetica,sans-Serif" font-size="10.00">PID</text>
</a>
</g>
</g>
<!-- dir_cf719d7499ff5fc303d320eadf77c49b&#45;&gt;dir_b59d6e0e1db631c1aaa97e9d05ec23c1 -->
<g id="edge4" class="edge">
<title>dir_cf719d7499ff5fc303d320eadf77c49b&#45;&gt;dir_b59d6e0e1db631c1aaa97e9d05ec23c1</title>
<path fill="none" stroke="black" d="M153.64,-71.7C158.13,-63.64 163.56,-53.89 168.52,-44.98"/>
<polygon fill="black" stroke="black" points="171.66,-46.54 173.47,-36.1 165.55,-43.14 171.66,-46.54"/>
<g id="a_edge4&#45;headlabel"><a xlink:href="dir_000042_000004.html" target="_top" xlink:title="2">
<text text-anchor="middle" x="172.39" y="-48.57" font-family="Helvetica,sans-Serif" font-size="10.00">2</text>
</a>
</g>
</g>
<!-- dir_2c226f845b92ae2fd9907189919220dc -->
<g id="node5" class="node">
<title>dir_2c226f845b92ae2fd9907189919220dc</title>
<g id="a_node5"><a xlink:href="dir_2c226f845b92ae2fd9907189919220dc.html" target="_top" xlink:title="PID_OMEGA">
<polygon fill="white" stroke="black" points="98.5,-108 23.5,-108 23.5,-72 98.5,-72 98.5,-108"/>
<text text-anchor="middle" x="61" y="-87.5" font-family="Helvetica,sans-Serif" font-size="10.00">PID_OMEGA</text>
</a>
</g>
</g>
<!-- dir_2c226f845b92ae2fd9907189919220dc&#45;&gt;dir_b59d6e0e1db631c1aaa97e9d05ec23c1 -->
<g id="edge3" class="edge">
<title>dir_2c226f845b92ae2fd9907189919220dc&#45;&gt;dir_b59d6e0e1db631c1aaa97e9d05ec23c1</title>
<path fill="none" stroke="black" d="M83.96,-71.82C91.46,-66.5 99.94,-60.78 108,-56 120.24,-48.74 134.1,-41.62 146.55,-35.59"/>
<polygon fill="black" stroke="black" points="148.22,-38.67 155.74,-31.21 145.21,-32.35 148.22,-38.67"/>
<g id="a_edge3&#45;headlabel"><a xlink:href="dir_000043_000004.html" target="_top" xlink:title="2">
<text text-anchor="middle" x="146.2" y="-40.28" font-family="Helvetica,sans-Serif" font-size="10.00">2</text>
</a>
</g>
</g>
</g>
</svg>
