<?xml version="1.0" encoding="UTF-8" standalone="no"?>
<!DOCTYPE svg PUBLIC "-//W3C//DTD SVG 1.1//EN"
 "http://www.w3.org/Graphics/SVG/1.1/DTD/svg11.dtd">
<!-- Generated by graphviz version 2.43.0 (0)
 -->
<!-- Title: ACSL&#45;flightstack&#45;winged/src/acsl_flight/include/utils/control_algorithm_base Pages: 1 -->
<svg width="356pt" height="167pt"
 viewBox="0.00 0.00 355.50 167.00" xmlns="http://www.w3.org/2000/svg" xmlns:xlink="http://www.w3.org/1999/xlink">
<g id="graph0" class="graph" transform="scale(1 1) rotate(0) translate(4 163)">
<title>ACSL&#45;flightstack&#45;winged/src/acsl_flight/include/utils/control_algorithm_base</title>
<polygon fill="white" stroke="transparent" points="-4,4 -4,-163 351.5,-163 351.5,4 -4,4"/>
<g id="clust1" class="cluster">
<title>clusterdir_21e9e6473ae68b51f10683f3306be290</title>
<g id="a_clust1"><a xlink:href="dir_21e9e6473ae68b51f10683f3306be290.html" target="_top" xlink:title="utils">
<polygon fill="#ddddee" stroke="black" points="8,-8 8,-151 156,-151 156,-8 8,-8"/>
<text text-anchor="middle" x="82" y="-139" font-family="Helvetica,sans-Serif" font-size="10.00">utils</text>
</a>
</g>
</g>
<!-- dir_07f18c2b80d85e75bcad381462cf5907 -->
<g id="node1" class="node">
<title>dir_07f18c2b80d85e75bcad381462cf5907</title>
<g id="a_node1"><a xlink:href="dir_07f18c2b80d85e75bcad381462cf5907.html" target="_top" xlink:title="flightstack_helpers">
<polygon fill="none" stroke="black" points="140.5,-52 31.5,-52 31.5,-16 140.5,-16 140.5,-52"/>
<text text-anchor="middle" x="86" y="-31.5" font-family="Helvetica,sans-Serif" font-size="10.00">flightstack_helpers</text>
</a>
</g>
</g>
<!-- dir_ac37127abe12b88e737ec0c85fceb93d -->
<g id="node2" class="node">
<title>dir_ac37127abe12b88e737ec0c85fceb93d</title>
<g id="a_node2"><a xlink:href="dir_ac37127abe12b88e737ec0c85fceb93d.html" target="_top" xlink:title="control_algorithm_base">
<polygon fill="#eeeeff" stroke="black" points="147.5,-124 16.5,-124 16.5,-88 147.5,-88 147.5,-124"/>
<text text-anchor="middle" x="82" y="-103.5" font-family="Helvetica,sans-Serif" font-size="10.00">control_algorithm_base</text>
</a>
</g>
</g>
<!-- dir_ac37127abe12b88e737ec0c85fceb93d&#45;&gt;dir_07f18c2b80d85e75bcad381462cf5907 -->
<g id="edge2" class="edge">
<title>dir_ac37127abe12b88e737ec0c85fceb93d&#45;&gt;dir_07f18c2b80d85e75bcad381462cf5907</title>
<path fill="none" stroke="black" d="M82.99,-87.7C83.43,-79.98 83.96,-70.71 84.45,-62.11"/>
<polygon fill="black" stroke="black" points="87.95,-62.29 85.02,-52.1 80.96,-61.89 87.95,-62.29"/>
<g id="a_edge2&#45;headlabel"><a xlink:href="dir_000028_000030.html" target="_top" xlink:title="1">
<text text-anchor="middle" x="90.58" y="-63.54" font-family="Helvetica,sans-Serif" font-size="10.00">1</text>
</a>
</g>
</g>
<!-- dir_91384f3ca66e108434602bccde0dca6a -->
<g id="node3" class="node">
<title>dir_91384f3ca66e108434602bccde0dca6a</title>
<g id="a_node3"><a xlink:href="dir_91384f3ca66e108434602bccde0dca6a.html" target="_top" xlink:title="vehicle_class">
<polygon fill="none" stroke="black" points="246,-52 164,-52 164,-16 246,-16 246,-52"/>
<text text-anchor="middle" x="205" y="-31.5" font-family="Helvetica,sans-Serif" font-size="10.00">vehicle_class</text>
</a>
</g>
</g>
<!-- dir_ac37127abe12b88e737ec0c85fceb93d&#45;&gt;dir_91384f3ca66e108434602bccde0dca6a -->
<g id="edge3" class="edge">
<title>dir_ac37127abe12b88e737ec0c85fceb93d&#45;&gt;dir_91384f3ca66e108434602bccde0dca6a</title>
<path fill="none" stroke="black" d="M112.09,-87.88C128.32,-78.64 148.54,-67.13 165.97,-57.21"/>
<polygon fill="black" stroke="black" points="167.84,-60.18 174.8,-52.19 164.37,-54.09 167.84,-60.18"/>
<g id="a_edge3&#45;headlabel"><a xlink:href="dir_000028_000033.html" target="_top" xlink:title="1">
<text text-anchor="middle" x="166.12" y="-61.92" font-family="Helvetica,sans-Serif" font-size="10.00">1</text>
</a>
</g>
</g>
<!-- dir_a7f5c1eab6a9db649807e802721f3c44 -->
<g id="node4" class="node">
<title>dir_a7f5c1eab6a9db649807e802721f3c44</title>
<g id="a_node4"><a xlink:href="dir_a7f5c1eab6a9db649807e802721f3c44.html" target="_top" xlink:title="flight_params">
<polygon fill="none" stroke="black" points="347.5,-52 264.5,-52 264.5,-16 347.5,-16 347.5,-52"/>
<text text-anchor="middle" x="306" y="-31.5" font-family="Helvetica,sans-Serif" font-size="10.00">flight_params</text>
</a>
</g>
</g>
<!-- dir_ac37127abe12b88e737ec0c85fceb93d&#45;&gt;dir_a7f5c1eab6a9db649807e802721f3c44 -->
<g id="edge4" class="edge">
<title>dir_ac37127abe12b88e737ec0c85fceb93d&#45;&gt;dir_a7f5c1eab6a9db649807e802721f3c44</title>
<path fill="none" stroke="black" d="M138.99,-87.92C170.47,-78.4 210.48,-66.16 254.52,-52.12"/>
<polygon fill="black" stroke="black" points="255.82,-55.38 264.28,-49 253.69,-48.71 255.82,-55.38"/>
<g id="a_edge4&#45;headlabel"><a xlink:href="dir_000028_000019.html" target="_top" xlink:title="1">
<text text-anchor="middle" x="253.26" y="-56.68" font-family="Helvetica,sans-Serif" font-size="10.00">1</text>
</a>
</g>
</g>
<!-- dir_a7f5c1eab6a9db649807e802721f3c44&#45;&gt;dir_07f18c2b80d85e75bcad381462cf5907 -->
<g id="edge1" class="edge">
<title>dir_a7f5c1eab6a9db649807e802721f3c44&#45;&gt;dir_07f18c2b80d85e75bcad381462cf5907</title>
<path fill="none" stroke="black" d="M282.57,-52.1C272,-59.15 258.99,-66.4 246,-70 210.88,-79.73 199.6,-77.82 164,-70 151.24,-67.2 138.08,-62.1 126.29,-56.6"/>
<polygon fill="black" stroke="black" points="127.68,-53.39 117.16,-52.15 124.61,-59.68 127.68,-53.39"/>
<g id="a_edge1&#45;headlabel"><a xlink:href="dir_000019_000030.html" target="_top" xlink:title="2">
<text text-anchor="middle" x="132.16" y="-49.91" font-family="Helvetica,sans-Serif" font-size="10.00">2</text>
</a>
</g>
</g>
</g>
</svg>
