<?xml version="1.0" encoding="UTF-8" standalone="no"?>
<!DOCTYPE svg PUBLIC "-//W3C//DTD SVG 1.1//EN"
 "http://www.w3.org/Graphics/SVG/1.1/DTD/svg11.dtd">
<!-- Generated by graphviz version 2.43.0 (0)
 -->
<!-- Title: ACSL&#45;flightstack&#45;winged/src/acsl_flight/src/control/platforms/rostestdrone/control_algorithms Pages: 1 -->
<svg width="236pt" height="159pt"
 viewBox="0.00 0.00 236.00 159.00" xmlns="http://www.w3.org/2000/svg" xmlns:xlink="http://www.w3.org/1999/xlink">
<g id="graph0" class="graph" transform="scale(1 1) rotate(0) translate(4 155)">
<title>ACSL&#45;flightstack&#45;winged/src/acsl_flight/src/control/platforms/rostestdrone/control_algorithms</title>
<polygon fill="white" stroke="transparent" points="-4,4 -4,-155 232,-155 232,4 -4,4"/>
<g id="clust1" class="cluster">
<title>clusterdir_6aa955054e6872401e8e24a6ccc1e3ee</title>
<g id="a_clust1"><a xlink:href="dir_6aa955054e6872401e8e24a6ccc1e3ee.html" target="_top" xlink:title="rostestdrone">
<polygon fill="#ddddee" stroke="black" points="8,-56 8,-143 220,-143 220,-56 8,-56"/>
<text text-anchor="middle" x="114" y="-131" font-family="Helvetica,sans-Serif" font-size="10.00">rostestdrone</text>
</a>
</g>
</g>
<g id="clust2" class="cluster">
<title>clusterdir_9a9cddb92effba58c41714505fd8d954</title>
<g id="a_clust2"><a xlink:href="dir_9a9cddb92effba58c41714505fd8d954.html" target="_top">
<polygon fill="#eeeeff" stroke="black" points="16,-64 16,-116 212,-116 212,-64 16,-64"/>
</a>
</g>
</g>
<!-- dir_9a9cddb92effba58c41714505fd8d954 -->
<g id="node1" class="node">
<title>dir_9a9cddb92effba58c41714505fd8d954</title>
<text text-anchor="middle" x="150" y="-87.5" font-family="Helvetica,sans-Serif" font-size="10.00">control_algorithms</text>
</g>
<!-- dir_cf88906da34f8065b891c00027ada1b3 -->
<g id="node2" class="node">
<title>dir_cf88906da34f8065b891c00027ada1b3</title>
<g id="a_node2"><a xlink:href="dir_cf88906da34f8065b891c00027ada1b3.html" target="_top" xlink:title="PID">
<polygon fill="white" stroke="black" points="78,-108 24,-108 24,-72 78,-72 78,-108"/>
<text text-anchor="middle" x="51" y="-87.5" font-family="Helvetica,sans-Serif" font-size="10.00">PID</text>
</a>
</g>
</g>
<!-- dir_b59d6e0e1db631c1aaa97e9d05ec23c1 -->
<g id="node3" class="node">
<title>dir_b59d6e0e1db631c1aaa97e9d05ec23c1</title>
<g id="a_node3"><a xlink:href="dir_b59d6e0e1db631c1aaa97e9d05ec23c1.html" target="_top" xlink:title="include">
<polygon fill="white" stroke="red" points="78,-36 24,-36 24,0 78,0 78,-36"/>
<text text-anchor="middle" x="51" y="-15.5" font-family="Helvetica,sans-Serif" font-size="10.00">include</text>
</a>
</g>
</g>
<!-- dir_cf88906da34f8065b891c00027ada1b3&#45;&gt;dir_b59d6e0e1db631c1aaa97e9d05ec23c1 -->
<g id="edge1" class="edge">
<title>dir_cf88906da34f8065b891c00027ada1b3&#45;&gt;dir_b59d6e0e1db631c1aaa97e9d05ec23c1</title>
<path fill="none" stroke="black" d="M51,-71.7C51,-63.98 51,-54.71 51,-46.11"/>
<polygon fill="black" stroke="black" points="54.5,-46.1 51,-36.1 47.5,-46.1 54.5,-46.1"/>
<g id="a_edge1&#45;headlabel"><a xlink:href="dir_000046_000004.html" target="_top" xlink:title="2">
<text text-anchor="middle" x="57.34" y="-47.2" font-family="Helvetica,sans-Serif" font-size="10.00">2</text>
</a>
</g>
</g>
</g>
</svg>
