<?xml version="1.0" encoding="UTF-8" standalone="no"?>
<!DOCTYPE svg PUBLIC "-//W3C//DTD SVG 1.1//EN"
 "http://www.w3.org/Graphics/SVG/1.1/DTD/svg11.dtd">
<!-- Generated by graphviz version 2.43.0 (0)
 -->
<!-- Title: ACSL&#45;flightstack&#45;winged/src/acsl_flight/include/control/platforms Pages: 1 -->
<svg width="299pt" height="231pt"
 viewBox="0.00 0.00 298.68 231.00" xmlns="http://www.w3.org/2000/svg" xmlns:xlink="http://www.w3.org/1999/xlink">
<g id="graph0" class="graph" transform="scale(1 1) rotate(0) translate(4 227)">
<title>ACSL&#45;flightstack&#45;winged/src/acsl_flight/include/control/platforms</title>
<polygon fill="white" stroke="transparent" points="-4,4 -4,-227 294.68,-227 294.68,4 -4,4"/>
<g id="clust1" class="cluster">
<title>clusterdir_16b06bd99d94bcbd51e36f39541e14af</title>
<g id="a_clust1"><a xlink:href="dir_16b06bd99d94bcbd51e36f39541e14af.html" target="_top" xlink:title="control">
<polygon fill="#ddddee" stroke="black" points="18.68,-128 18.68,-215 282.68,-215 282.68,-128 18.68,-128"/>
<text text-anchor="middle" x="150.68" y="-203" font-family="Helvetica,sans-Serif" font-size="10.00">control</text>
</a>
</g>
</g>
<g id="clust2" class="cluster">
<title>clusterdir_b0206072910f6abc79eb007ee8e44bd4</title>
<g id="a_clust2"><a xlink:href="dir_b0206072910f6abc79eb007ee8e44bd4.html" target="_top">
<polygon fill="#eeeeff" stroke="black" points="26.68,-136 26.68,-188 274.68,-188 274.68,-136 26.68,-136"/>
</a>
</g>
</g>
<!-- dir_b0206072910f6abc79eb007ee8e44bd4 -->
<g id="node1" class="node">
<title>dir_b0206072910f6abc79eb007ee8e44bd4</title>
<text text-anchor="middle" x="234.68" y="-159.5" font-family="Helvetica,sans-Serif" font-size="10.00">platforms</text>
</g>
<!-- dir_ae85358b1933238a0a6154cc32e219b9 -->
<g id="node2" class="node">
<title>dir_ae85358b1933238a0a6154cc32e219b9</title>
<g id="a_node2"><a xlink:href="dir_ae85358b1933238a0a6154cc32e219b9.html" target="_top" xlink:title="qrbp">
<polygon fill="white" stroke="red" points="88.68,-180 34.68,-180 34.68,-144 88.68,-144 88.68,-180"/>
<text text-anchor="middle" x="61.68" y="-159.5" font-family="Helvetica,sans-Serif" font-size="10.00">qrbp</text>
</a>
</g>
</g>
<!-- dir_21e9e6473ae68b51f10683f3306be290 -->
<g id="node4" class="node">
<title>dir_21e9e6473ae68b51f10683f3306be290</title>
<g id="a_node4"><a xlink:href="dir_21e9e6473ae68b51f10683f3306be290.html" target="_top" xlink:title="utils">
<polygon fill="white" stroke="red" points="130.68,-36 76.68,-36 76.68,0 130.68,0 130.68,-36"/>
<text text-anchor="middle" x="103.68" y="-15.5" font-family="Helvetica,sans-Serif" font-size="10.00">utils</text>
</a>
</g>
</g>
<!-- dir_ae85358b1933238a0a6154cc32e219b9&#45;&gt;dir_21e9e6473ae68b51f10683f3306be290 -->
<g id="edge3" class="edge">
<title>dir_ae85358b1933238a0a6154cc32e219b9&#45;&gt;dir_21e9e6473ae68b51f10683f3306be290</title>
<path fill="none" stroke="black" d="M35.55,-143.82C24.1,-134.69 11.87,-122.39 5.68,-108 -0.65,-93.3 -2.51,-85.74 5.68,-72 18.9,-49.81 45,-36.35 66.94,-28.55"/>
<polygon fill="black" stroke="black" points="68.26,-31.8 76.67,-25.35 66.07,-25.15 68.26,-31.8"/>
<g id="a_edge3&#45;headlabel"><a xlink:href="dir_000007_000026.html" target="_top" xlink:title="13">
<text text-anchor="middle" x="65.73" y="-33.12" font-family="Helvetica,sans-Serif" font-size="10.00">13</text>
</a>
</g>
</g>
<!-- dir_653c48f60ee8ceb0961c6a3849e63394 -->
<g id="node5" class="node">
<title>dir_653c48f60ee8ceb0961c6a3849e63394</title>
<g id="a_node5"><a xlink:href="dir_653c48f60ee8ceb0961c6a3849e63394.html" target="_top" xlink:title="piecewise_polynomial_trajectory">
<polygon fill="none" stroke="black" points="192.68,-108 14.68,-108 14.68,-72 192.68,-72 192.68,-108"/>
<text text-anchor="middle" x="103.68" y="-87.5" font-family="Helvetica,sans-Serif" font-size="10.00">piecewise_polynomial_trajectory</text>
</a>
</g>
</g>
<!-- dir_ae85358b1933238a0a6154cc32e219b9&#45;&gt;dir_653c48f60ee8ceb0961c6a3849e63394 -->
<g id="edge4" class="edge">
<title>dir_ae85358b1933238a0a6154cc32e219b9&#45;&gt;dir_653c48f60ee8ceb0961c6a3849e63394</title>
<path fill="none" stroke="black" d="M72.06,-143.7C76.94,-135.56 82.86,-125.69 88.26,-116.7"/>
<polygon fill="black" stroke="black" points="91.27,-118.48 93.41,-108.1 85.27,-114.88 91.27,-118.48"/>
<g id="a_edge4&#45;headlabel"><a xlink:href="dir_000007_000024.html" target="_top" xlink:title="4">
<text text-anchor="middle" x="91.86" y="-120.52" font-family="Helvetica,sans-Serif" font-size="10.00">4</text>
</a>
</g>
</g>
<!-- dir_6a5e7e919b399ca3ff89df37396df085 -->
<g id="node3" class="node">
<title>dir_6a5e7e919b399ca3ff89df37396df085</title>
<g id="a_node3"><a xlink:href="dir_6a5e7e919b399ca3ff89df37396df085.html" target="_top" xlink:title="rostestdrone">
<polygon fill="white" stroke="red" points="184.68,-180 106.68,-180 106.68,-144 184.68,-144 184.68,-180"/>
<text text-anchor="middle" x="145.68" y="-159.5" font-family="Helvetica,sans-Serif" font-size="10.00">rostestdrone</text>
</a>
</g>
</g>
<!-- dir_6a5e7e919b399ca3ff89df37396df085&#45;&gt;dir_21e9e6473ae68b51f10683f3306be290 -->
<g id="edge1" class="edge">
<title>dir_6a5e7e919b399ca3ff89df37396df085&#45;&gt;dir_21e9e6473ae68b51f10683f3306be290</title>
<path fill="none" stroke="black" d="M171.8,-143.82C183.26,-134.69 195.49,-122.39 201.68,-108 208,-93.3 209.87,-85.74 201.68,-72 188.45,-49.81 162.36,-36.35 140.42,-28.55"/>
<polygon fill="black" stroke="black" points="141.28,-25.15 130.69,-25.35 139.1,-31.8 141.28,-25.15"/>
<g id="a_edge1&#45;headlabel"><a xlink:href="dir_000014_000026.html" target="_top" xlink:title="3">
<text text-anchor="middle" x="145.58" y="-21.07" font-family="Helvetica,sans-Serif" font-size="10.00">3</text>
</a>
</g>
</g>
<!-- dir_6a5e7e919b399ca3ff89df37396df085&#45;&gt;dir_653c48f60ee8ceb0961c6a3849e63394 -->
<g id="edge2" class="edge">
<title>dir_6a5e7e919b399ca3ff89df37396df085&#45;&gt;dir_653c48f60ee8ceb0961c6a3849e63394</title>
<path fill="none" stroke="black" d="M135.3,-143.7C130.41,-135.56 124.49,-125.69 119.1,-116.7"/>
<polygon fill="black" stroke="black" points="122.09,-114.88 113.94,-108.1 116.08,-118.48 122.09,-114.88"/>
<g id="a_edge2&#45;headlabel"><a xlink:href="dir_000014_000024.html" target="_top" xlink:title="1">
<text text-anchor="middle" x="126.37" y="-114" font-family="Helvetica,sans-Serif" font-size="10.00">1</text>
</a>
</g>
</g>
<!-- dir_653c48f60ee8ceb0961c6a3849e63394&#45;&gt;dir_21e9e6473ae68b51f10683f3306be290 -->
<g id="edge5" class="edge">
<title>dir_653c48f60ee8ceb0961c6a3849e63394&#45;&gt;dir_21e9e6473ae68b51f10683f3306be290</title>
<path fill="none" stroke="black" d="M103.68,-71.7C103.68,-63.98 103.68,-54.71 103.68,-46.11"/>
<polygon fill="black" stroke="black" points="107.18,-46.1 103.68,-36.1 100.18,-46.1 107.18,-46.1"/>
<g id="a_edge5&#45;headlabel"><a xlink:href="dir_000024_000026.html" target="_top" xlink:title="2">
<text text-anchor="middle" x="110.02" y="-47.2" font-family="Helvetica,sans-Serif" font-size="10.00">2</text>
</a>
</g>
</g>
</g>
</svg>
