<?xml version="1.0" encoding="UTF-8" standalone="no"?>
<!DOCTYPE svg PUBLIC "-//W3C//DTD SVG 1.1//EN"
 "http://www.w3.org/Graphics/SVG/1.1/DTD/svg11.dtd">
<!-- Generated by graphviz version 2.43.0 (0)
 -->
<!-- Title: ACSL&#45;flightstack&#45;winged/src/acsl_flight/src/control/platforms/qrbp Pages: 1 -->
<svg width="236pt" height="159pt"
 viewBox="0.00 0.00 236.00 159.00" xmlns="http://www.w3.org/2000/svg" xmlns:xlink="http://www.w3.org/1999/xlink">
<g id="graph0" class="graph" transform="scale(1 1) rotate(0) translate(4 155)">
<title>ACSL&#45;flightstack&#45;winged/src/acsl_flight/src/control/platforms/qrbp</title>
<polygon fill="white" stroke="transparent" points="-4,4 -4,-155 232,-155 232,4 -4,4"/>
<g id="clust1" class="cluster">
<title>clusterdir_569eed2c14c2d5b6009124e6036b1a48</title>
<g id="a_clust1"><a xlink:href="dir_569eed2c14c2d5b6009124e6036b1a48.html" target="_top" xlink:title="platforms">
<polygon fill="#ddddee" stroke="black" points="8,-56 8,-143 220,-143 220,-56 8,-56"/>
<text text-anchor="middle" x="114" y="-131" font-family="Helvetica,sans-Serif" font-size="10.00">platforms</text>
</a>
</g>
</g>
<g id="clust2" class="cluster">
<title>clusterdir_db4fad7582c74e62bc80cb4a5a27a6aa</title>
<g id="a_clust2"><a xlink:href="dir_db4fad7582c74e62bc80cb4a5a27a6aa.html" target="_top">
<polygon fill="#eeeeff" stroke="black" points="16,-64 16,-116 212,-116 212,-64 16,-64"/>
</a>
</g>
</g>
<!-- dir_db4fad7582c74e62bc80cb4a5a27a6aa -->
<g id="node1" class="node">
<title>dir_db4fad7582c74e62bc80cb4a5a27a6aa</title>
<text text-anchor="middle" x="177" y="-87.5" font-family="Helvetica,sans-Serif" font-size="10.00">qrbp</text>
</g>
<!-- dir_050819add4eb97d7531514d63b962f2b -->
<g id="node2" class="node">
<title>dir_050819add4eb97d7531514d63b962f2b</title>
<g id="a_node2"><a xlink:href="dir_050819add4eb97d7531514d63b962f2b.html" target="_top" xlink:title="control_algorithms">
<polygon fill="white" stroke="red" points="132,-108 24,-108 24,-72 132,-72 132,-108"/>
<text text-anchor="middle" x="78" y="-87.5" font-family="Helvetica,sans-Serif" font-size="10.00">control_algorithms</text>
</a>
</g>
</g>
<!-- dir_b59d6e0e1db631c1aaa97e9d05ec23c1 -->
<g id="node3" class="node">
<title>dir_b59d6e0e1db631c1aaa97e9d05ec23c1</title>
<g id="a_node3"><a xlink:href="dir_b59d6e0e1db631c1aaa97e9d05ec23c1.html" target="_top" xlink:title="include">
<polygon fill="white" stroke="red" points="105,-36 51,-36 51,0 105,0 105,-36"/>
<text text-anchor="middle" x="78" y="-15.5" font-family="Helvetica,sans-Serif" font-size="10.00">include</text>
</a>
</g>
</g>
<!-- dir_050819add4eb97d7531514d63b962f2b&#45;&gt;dir_b59d6e0e1db631c1aaa97e9d05ec23c1 -->
<g id="edge1" class="edge">
<title>dir_050819add4eb97d7531514d63b962f2b&#45;&gt;dir_b59d6e0e1db631c1aaa97e9d05ec23c1</title>
<path fill="none" stroke="black" d="M78,-71.7C78,-63.98 78,-54.71 78,-46.11"/>
<polygon fill="black" stroke="black" points="81.5,-46.1 78,-36.1 74.5,-46.1 81.5,-46.1"/>
<g id="a_edge1&#45;headlabel"><a xlink:href="dir_000039_000004.html" target="_top" xlink:title="8">
<text text-anchor="middle" x="84.34" y="-47.2" font-family="Helvetica,sans-Serif" font-size="10.00">8</text>
</a>
</g>
</g>
</g>
</svg>
