<?xml version="1.0" encoding="UTF-8" standalone="no"?>
<!DOCTYPE svg PUBLIC "-//W3C//DTD SVG 1.1//EN"
 "http://www.w3.org/Graphics/SVG/1.1/DTD/svg11.dtd">
<!-- Generated by graphviz version 2.43.0 (0)
 -->
<!-- Title: ACSL&#45;flightstack&#45;winged/src/acsl_flight/include/flight_bridge Pages: 1 -->
<svg width="324pt" height="311pt"
 viewBox="0.00 0.00 324.00 311.00" xmlns="http://www.w3.org/2000/svg" xmlns:xlink="http://www.w3.org/1999/xlink">
<g id="graph0" class="graph" transform="scale(1 1) rotate(0) translate(4 307)">
<title>ACSL&#45;flightstack&#45;winged/src/acsl_flight/include/flight_bridge</title>
<polygon fill="white" stroke="transparent" points="-4,4 -4,-307 320,-307 320,4 -4,4"/>
<g id="clust1" class="cluster">
<title>clusterdir_b59d6e0e1db631c1aaa97e9d05ec23c1</title>
<g id="a_clust1"><a xlink:href="dir_b59d6e0e1db631c1aaa97e9d05ec23c1.html" target="_top" xlink:title="include">
<polygon fill="#ddddee" stroke="black" points="8,-8 8,-295 308,-295 308,-8 8,-8"/>
<text text-anchor="middle" x="158" y="-283" font-family="Helvetica,sans-Serif" font-size="10.00">include</text>
</a>
</g>
</g>
<!-- dir_01cb7144c76989b29a79f3c9e4dc792f -->
<g id="node1" class="node">
<title>dir_01cb7144c76989b29a79f3c9e4dc792f</title>
<g id="a_node1"><a xlink:href="dir_01cb7144c76989b29a79f3c9e4dc792f.html" target="_top" xlink:title="read_pix">
<polygon fill="none" stroke="black" points="115.5,-124 56.5,-124 56.5,-88 115.5,-88 115.5,-124"/>
<text text-anchor="middle" x="86" y="-103.5" font-family="Helvetica,sans-Serif" font-size="10.00">read_pix</text>
</a>
</g>
</g>
<!-- dir_91384f3ca66e108434602bccde0dca6a -->
<g id="node5" class="node">
<title>dir_91384f3ca66e108434602bccde0dca6a</title>
<g id="a_node5"><a xlink:href="dir_91384f3ca66e108434602bccde0dca6a.html" target="_top" xlink:title="vehicle_class">
<polygon fill="none" stroke="black" points="222,-52 140,-52 140,-16 222,-16 222,-52"/>
<text text-anchor="middle" x="181" y="-31.5" font-family="Helvetica,sans-Serif" font-size="10.00">vehicle_class</text>
</a>
</g>
</g>
<!-- dir_01cb7144c76989b29a79f3c9e4dc792f&#45;&gt;dir_91384f3ca66e108434602bccde0dca6a -->
<g id="edge14" class="edge">
<title>dir_01cb7144c76989b29a79f3c9e4dc792f&#45;&gt;dir_91384f3ca66e108434602bccde0dca6a</title>
<path fill="none" stroke="black" d="M109.48,-87.7C121.56,-78.8 136.45,-67.82 149.52,-58.2"/>
<polygon fill="black" stroke="black" points="151.81,-60.85 157.79,-52.1 147.66,-55.22 151.81,-60.85"/>
<g id="a_edge14&#45;headlabel"><a xlink:href="dir_000025_000033.html" target="_top" xlink:title="1">
<text text-anchor="middle" x="150.6" y="-62.77" font-family="Helvetica,sans-Serif" font-size="10.00">1</text>
</a>
</g>
</g>
<!-- dir_a7f5c1eab6a9db649807e802721f3c44 -->
<g id="node6" class="node">
<title>dir_a7f5c1eab6a9db649807e802721f3c44</title>
<g id="a_node6"><a xlink:href="dir_a7f5c1eab6a9db649807e802721f3c44.html" target="_top" xlink:title="flight_params">
<polygon fill="none" stroke="black" points="99.5,-52 16.5,-52 16.5,-16 99.5,-16 99.5,-52"/>
<text text-anchor="middle" x="58" y="-31.5" font-family="Helvetica,sans-Serif" font-size="10.00">flight_params</text>
</a>
</g>
</g>
<!-- dir_01cb7144c76989b29a79f3c9e4dc792f&#45;&gt;dir_a7f5c1eab6a9db649807e802721f3c44 -->
<g id="edge15" class="edge">
<title>dir_01cb7144c76989b29a79f3c9e4dc792f&#45;&gt;dir_a7f5c1eab6a9db649807e802721f3c44</title>
<path fill="none" stroke="black" d="M79.08,-87.7C75.93,-79.81 72.12,-70.3 68.62,-61.55"/>
<polygon fill="black" stroke="black" points="71.81,-60.09 64.84,-52.1 65.31,-62.69 71.81,-60.09"/>
<g id="a_edge15&#45;headlabel"><a xlink:href="dir_000025_000019.html" target="_top" xlink:title="1">
<text text-anchor="middle" x="75.78" y="-59.87" font-family="Helvetica,sans-Serif" font-size="10.00">1</text>
</a>
</g>
</g>
<!-- dir_16b06bd99d94bcbd51e36f39541e14af -->
<g id="node2" class="node">
<title>dir_16b06bd99d94bcbd51e36f39541e14af</title>
<g id="a_node2"><a xlink:href="dir_16b06bd99d94bcbd51e36f39541e14af.html" target="_top" xlink:title="control">
<polygon fill="white" stroke="red" points="191,-268 137,-268 137,-232 191,-232 191,-268"/>
<text text-anchor="middle" x="164" y="-247.5" font-family="Helvetica,sans-Serif" font-size="10.00">control</text>
</a>
</g>
</g>
<!-- dir_16b06bd99d94bcbd51e36f39541e14af&#45;&gt;dir_91384f3ca66e108434602bccde0dca6a -->
<g id="edge12" class="edge">
<title>dir_16b06bd99d94bcbd51e36f39541e14af&#45;&gt;dir_91384f3ca66e108434602bccde0dca6a</title>
<path fill="none" stroke="black" d="M190.89,-231.92C221.32,-210.81 269.21,-171.78 289,-124 295.12,-109.22 297.46,-101.58 289,-88 276.36,-67.71 253.43,-54.97 231.94,-47.08"/>
<polygon fill="black" stroke="black" points="232.8,-43.68 222.21,-43.79 230.56,-50.31 232.8,-43.68"/>
<g id="a_edge12&#45;headlabel"><a xlink:href="dir_000005_000033.html" target="_top" xlink:title="1">
<text text-anchor="middle" x="237.12" y="-39.64" font-family="Helvetica,sans-Serif" font-size="10.00">1</text>
</a>
</g>
</g>
<!-- dir_16b06bd99d94bcbd51e36f39541e14af&#45;&gt;dir_a7f5c1eab6a9db649807e802721f3c44 -->
<g id="edge13" class="edge">
<title>dir_16b06bd99d94bcbd51e36f39541e14af&#45;&gt;dir_a7f5c1eab6a9db649807e802721f3c44</title>
<path fill="none" stroke="black" d="M136.76,-233.44C104.68,-213.16 53.75,-174.28 38,-124 31.53,-103.34 37.67,-79.37 44.8,-61.52"/>
<polygon fill="black" stroke="black" points="48.04,-62.85 48.79,-52.28 41.61,-60.08 48.04,-62.85"/>
<g id="a_edge13&#45;headlabel"><a xlink:href="dir_000005_000019.html" target="_top" xlink:title="1">
<text text-anchor="middle" x="49.22" y="-64.78" font-family="Helvetica,sans-Serif" font-size="10.00">1</text>
</a>
</g>
</g>
<!-- dir_56c205456dc4fe9727e9169e57f90230 -->
<g id="node7" class="node">
<title>dir_56c205456dc4fe9727e9169e57f90230</title>
<g id="a_node7"><a xlink:href="dir_56c205456dc4fe9727e9169e57f90230.html" target="_top" xlink:title="flight_bridge">
<polygon fill="#eeeeff" stroke="black" points="173.5,-196 96.5,-196 96.5,-160 173.5,-160 173.5,-196"/>
<text text-anchor="middle" x="135" y="-175.5" font-family="Helvetica,sans-Serif" font-size="10.00">flight_bridge</text>
</a>
</g>
</g>
<!-- dir_16b06bd99d94bcbd51e36f39541e14af&#45;&gt;dir_56c205456dc4fe9727e9169e57f90230 -->
<g id="edge11" class="edge">
<title>dir_16b06bd99d94bcbd51e36f39541e14af&#45;&gt;dir_56c205456dc4fe9727e9169e57f90230</title>
<path fill="none" stroke="black" d="M150.92,-231.7C146.88,-223.9 142.77,-214.51 139.53,-205.83"/>
<polygon fill="black" stroke="black" points="142.75,-204.43 136.19,-196.1 136.13,-206.7 142.75,-204.43"/>
<g id="a_edge11&#45;headlabel"><a xlink:href="dir_000005_000017.html" target="_top" xlink:title="1">
<text text-anchor="middle" x="146.6" y="-204.4" font-family="Helvetica,sans-Serif" font-size="10.00">1</text>
</a>
</g>
</g>
<!-- dir_19e0355432fca8646d27743e85495d16 -->
<g id="node3" class="node">
<title>dir_19e0355432fca8646d27743e85495d16</title>
<g id="a_node3"><a xlink:href="dir_19e0355432fca8646d27743e85495d16.html" target="_top" xlink:title="vio">
<polygon fill="none" stroke="black" points="280,-124 226,-124 226,-88 280,-88 280,-124"/>
<text text-anchor="middle" x="253" y="-103.5" font-family="Helvetica,sans-Serif" font-size="10.00">vio</text>
</a>
</g>
</g>
<!-- dir_19e0355432fca8646d27743e85495d16&#45;&gt;dir_16b06bd99d94bcbd51e36f39541e14af -->
<g id="edge7" class="edge">
<title>dir_19e0355432fca8646d27743e85495d16&#45;&gt;dir_16b06bd99d94bcbd51e36f39541e14af</title>
<path fill="none" stroke="black" d="M242.23,-124.19C226.77,-148.85 198.18,-194.46 180.18,-223.19"/>
<polygon fill="black" stroke="black" points="177.08,-221.54 174.74,-231.87 183.01,-225.26 177.08,-221.54"/>
<g id="a_edge7&#45;headlabel"><a xlink:href="dir_000034_000005.html" target="_top" xlink:title="1">
<text text-anchor="middle" x="176.58" y="-214.49" font-family="Helvetica,sans-Serif" font-size="10.00">1</text>
</a>
</g>
</g>
<!-- dir_19e0355432fca8646d27743e85495d16&#45;&gt;dir_91384f3ca66e108434602bccde0dca6a -->
<g id="edge8" class="edge">
<title>dir_19e0355432fca8646d27743e85495d16&#45;&gt;dir_91384f3ca66e108434602bccde0dca6a</title>
<path fill="none" stroke="black" d="M235.2,-87.7C226.4,-79.14 215.62,-68.66 206,-59.3"/>
<polygon fill="black" stroke="black" points="208.2,-56.57 198.59,-52.1 203.32,-61.58 208.2,-56.57"/>
<g id="a_edge8&#45;headlabel"><a xlink:href="dir_000034_000033.html" target="_top" xlink:title="1">
<text text-anchor="middle" x="212.76" y="-54.54" font-family="Helvetica,sans-Serif" font-size="10.00">1</text>
</a>
</g>
</g>
<!-- dir_24e1b6e1c79d753179c206c8bcc4a2aa -->
<g id="node4" class="node">
<title>dir_24e1b6e1c79d753179c206c8bcc4a2aa</title>
<g id="a_node4"><a xlink:href="dir_24e1b6e1c79d753179c206c8bcc4a2aa.html" target="_top" xlink:title="mocap">
<polygon fill="white" stroke="red" points="208,-124 154,-124 154,-88 208,-88 208,-124"/>
<text text-anchor="middle" x="181" y="-103.5" font-family="Helvetica,sans-Serif" font-size="10.00">mocap</text>
</a>
</g>
</g>
<!-- dir_24e1b6e1c79d753179c206c8bcc4a2aa&#45;&gt;dir_16b06bd99d94bcbd51e36f39541e14af -->
<g id="edge9" class="edge">
<title>dir_24e1b6e1c79d753179c206c8bcc4a2aa&#45;&gt;dir_16b06bd99d94bcbd51e36f39541e14af</title>
<path fill="none" stroke="black" d="M183.35,-124.21C185.35,-142.24 187.29,-171.33 183,-196 181.48,-204.76 178.64,-213.99 175.61,-222.25"/>
<polygon fill="black" stroke="black" points="172.28,-221.16 171.89,-231.75 178.79,-223.71 172.28,-221.16"/>
<g id="a_edge9&#45;headlabel"><a xlink:href="dir_000020_000005.html" target="_top" xlink:title="1">
<text text-anchor="middle" x="170.94" y="-214.28" font-family="Helvetica,sans-Serif" font-size="10.00">1</text>
</a>
</g>
</g>
<!-- dir_24e1b6e1c79d753179c206c8bcc4a2aa&#45;&gt;dir_91384f3ca66e108434602bccde0dca6a -->
<g id="edge10" class="edge">
<title>dir_24e1b6e1c79d753179c206c8bcc4a2aa&#45;&gt;dir_91384f3ca66e108434602bccde0dca6a</title>
<path fill="none" stroke="black" d="M181,-87.7C181,-79.98 181,-70.71 181,-62.11"/>
<polygon fill="black" stroke="black" points="184.5,-62.1 181,-52.1 177.5,-62.1 184.5,-62.1"/>
<g id="a_edge10&#45;headlabel"><a xlink:href="dir_000020_000033.html" target="_top" xlink:title="1">
<text text-anchor="middle" x="187.34" y="-63.2" font-family="Helvetica,sans-Serif" font-size="10.00">1</text>
</a>
</g>
</g>
<!-- dir_56c205456dc4fe9727e9169e57f90230&#45;&gt;dir_01cb7144c76989b29a79f3c9e4dc792f -->
<g id="edge1" class="edge">
<title>dir_56c205456dc4fe9727e9169e57f90230&#45;&gt;dir_01cb7144c76989b29a79f3c9e4dc792f</title>
<path fill="none" stroke="black" d="M122.89,-159.7C117.13,-151.47 110.14,-141.48 103.79,-132.42"/>
<polygon fill="black" stroke="black" points="106.58,-130.29 97.97,-124.1 100.84,-134.3 106.58,-130.29"/>
<g id="a_edge1&#45;headlabel"><a xlink:href="dir_000017_000025.html" target="_top" xlink:title="1">
<text text-anchor="middle" x="110.96" y="-129.11" font-family="Helvetica,sans-Serif" font-size="10.00">1</text>
</a>
</g>
</g>
<!-- dir_56c205456dc4fe9727e9169e57f90230&#45;&gt;dir_16b06bd99d94bcbd51e36f39541e14af -->
<g id="edge2" class="edge">
<title>dir_56c205456dc4fe9727e9169e57f90230&#45;&gt;dir_16b06bd99d94bcbd51e36f39541e14af</title>
<path fill="none" stroke="black" d="M147.98,-196.1C152.06,-203.96 156.22,-213.46 159.49,-222.23"/>
<polygon fill="black" stroke="black" points="156.18,-223.38 162.75,-231.7 162.8,-221.1 156.18,-223.38"/>
<g id="a_edge2&#45;headlabel"><a xlink:href="dir_000017_000005.html" target="_top" xlink:title="2">
<text text-anchor="middle" x="152.33" y="-218.4" font-family="Helvetica,sans-Serif" font-size="10.00">2</text>
</a>
</g>
</g>
<!-- dir_56c205456dc4fe9727e9169e57f90230&#45;&gt;dir_19e0355432fca8646d27743e85495d16 -->
<g id="edge3" class="edge">
<title>dir_56c205456dc4fe9727e9169e57f90230&#45;&gt;dir_19e0355432fca8646d27743e85495d16</title>
<path fill="none" stroke="black" d="M163.87,-159.88C179.76,-150.45 199.63,-138.66 216.58,-128.61"/>
<polygon fill="black" stroke="black" points="218.83,-131.34 225.65,-123.23 215.26,-125.32 218.83,-131.34"/>
<g id="a_edge3&#45;headlabel"><a xlink:href="dir_000017_000034.html" target="_top" xlink:title="1">
<text text-anchor="middle" x="217.19" y="-133.11" font-family="Helvetica,sans-Serif" font-size="10.00">1</text>
</a>
</g>
</g>
<!-- dir_56c205456dc4fe9727e9169e57f90230&#45;&gt;dir_24e1b6e1c79d753179c206c8bcc4a2aa -->
<g id="edge4" class="edge">
<title>dir_56c205456dc4fe9727e9169e57f90230&#45;&gt;dir_24e1b6e1c79d753179c206c8bcc4a2aa</title>
<path fill="none" stroke="black" d="M146.37,-159.7C151.72,-151.56 158.2,-141.69 164.11,-132.7"/>
<polygon fill="black" stroke="black" points="167.19,-134.38 169.76,-124.1 161.34,-130.54 167.19,-134.38"/>
<g id="a_edge4&#45;headlabel"><a xlink:href="dir_000017_000020.html" target="_top" xlink:title="1">
<text text-anchor="middle" x="167.59" y="-136.45" font-family="Helvetica,sans-Serif" font-size="10.00">1</text>
</a>
</g>
</g>
<!-- dir_56c205456dc4fe9727e9169e57f90230&#45;&gt;dir_91384f3ca66e108434602bccde0dca6a -->
<g id="edge5" class="edge">
<title>dir_56c205456dc4fe9727e9169e57f90230&#45;&gt;dir_91384f3ca66e108434602bccde0dca6a</title>
<path fill="none" stroke="black" d="M134.52,-159.71C134.56,-141.35 136.21,-111.77 145,-88 148.55,-78.4 154.2,-68.85 159.98,-60.56"/>
<polygon fill="black" stroke="black" points="162.86,-62.55 165.97,-52.42 157.23,-58.4 162.86,-62.55"/>
<g id="a_edge5&#45;headlabel"><a xlink:href="dir_000017_000033.html" target="_top" xlink:title="1">
<text text-anchor="middle" x="163.02" y="-64.63" font-family="Helvetica,sans-Serif" font-size="10.00">1</text>
</a>
</g>
</g>
<!-- dir_56c205456dc4fe9727e9169e57f90230&#45;&gt;dir_a7f5c1eab6a9db649807e802721f3c44 -->
<g id="edge6" class="edge">
<title>dir_56c205456dc4fe9727e9169e57f90230&#45;&gt;dir_a7f5c1eab6a9db649807e802721f3c44</title>
<path fill="none" stroke="black" d="M96.23,-163.69C78.16,-155.31 58.39,-142.5 48,-124 37.4,-105.13 41.28,-80.46 47.04,-61.88"/>
<polygon fill="black" stroke="black" points="50.4,-62.86 50.34,-52.26 43.78,-60.58 50.4,-62.86"/>
<g id="a_edge6&#45;headlabel"><a xlink:href="dir_000017_000019.html" target="_top" xlink:title="1">
<text text-anchor="middle" x="51.92" y="-64.68" font-family="Helvetica,sans-Serif" font-size="10.00">1</text>
</a>
</g>
</g>
</g>
</svg>
