<?xml version="1.0" encoding="UTF-8" standalone="no"?>
<!DOCTYPE svg PUBLIC "-//W3C//DTD SVG 1.1//EN"
 "http://www.w3.org/Graphics/SVG/1.1/DTD/svg11.dtd">
<!-- Generated by graphviz version 2.43.0 (0)
 -->
<!-- Title: ACSL&#45;flightstack&#45;winged/src/acsl_flight Pages: 1 -->
<svg width="194pt" height="183pt"
 viewBox="0.00 0.00 194.00 183.00" xmlns="http://www.w3.org/2000/svg" xmlns:xlink="http://www.w3.org/1999/xlink">
<g id="graph0" class="graph" transform="scale(1 1) rotate(0) translate(4 179)">
<title>ACSL&#45;flightstack&#45;winged/src/acsl_flight</title>
<polygon fill="white" stroke="transparent" points="-4,4 -4,-179 190,-179 190,4 -4,4"/>
<g id="clust1" class="cluster">
<title>clusterdir_2133a1c1918d056891506a58d7630a3f</title>
<g id="a_clust1"><a xlink:href="dir_2133a1c1918d056891506a58d7630a3f.html" target="_top" xlink:title="src">
<polygon fill="#ddddee" stroke="black" points="8,-8 8,-167 178,-167 178,-8 8,-8"/>
<text text-anchor="middle" x="93" y="-155" font-family="Helvetica,sans-Serif" font-size="10.00">src</text>
</a>
</g>
</g>
<g id="clust2" class="cluster">
<title>clusterdir_a964ec745bb3c23b753cfa036932779d</title>
<g id="a_clust2"><a xlink:href="dir_a964ec745bb3c23b753cfa036932779d.html" target="_top">
<polygon fill="#eeeeff" stroke="black" points="16,-16 16,-140 170,-140 170,-16 16,-16"/>
</a>
</g>
</g>
<!-- dir_a964ec745bb3c23b753cfa036932779d -->
<g id="node1" class="node">
<title>dir_a964ec745bb3c23b753cfa036932779d</title>
<text text-anchor="middle" x="129" y="-111.5" font-family="Helvetica,sans-Serif" font-size="10.00">acsl_flight</text>
</g>
<!-- dir_b59d6e0e1db631c1aaa97e9d05ec23c1 -->
<g id="node2" class="node">
<title>dir_b59d6e0e1db631c1aaa97e9d05ec23c1</title>
<g id="a_node2"><a xlink:href="dir_b59d6e0e1db631c1aaa97e9d05ec23c1.html" target="_top" xlink:title="include">
<polygon fill="white" stroke="red" points="78,-60 24,-60 24,-24 78,-24 78,-60"/>
<text text-anchor="middle" x="51" y="-39.5" font-family="Helvetica,sans-Serif" font-size="10.00">include</text>
</a>
</g>
</g>
<!-- dir_df441872dcf22906b3455ec7d1a1fa58 -->
<g id="node3" class="node">
<title>dir_df441872dcf22906b3455ec7d1a1fa58</title>
<g id="a_node3"><a xlink:href="dir_df441872dcf22906b3455ec7d1a1fa58.html" target="_top" xlink:title="src">
<polygon fill="white" stroke="red" points="78,-132 24,-132 24,-96 78,-96 78,-132"/>
<text text-anchor="middle" x="51" y="-111.5" font-family="Helvetica,sans-Serif" font-size="10.00">src</text>
</a>
</g>
</g>
<!-- dir_df441872dcf22906b3455ec7d1a1fa58&#45;&gt;dir_b59d6e0e1db631c1aaa97e9d05ec23c1 -->
<g id="edge1" class="edge">
<title>dir_df441872dcf22906b3455ec7d1a1fa58&#45;&gt;dir_b59d6e0e1db631c1aaa97e9d05ec23c1</title>
<path fill="none" stroke="black" d="M51,-95.7C51,-87.98 51,-78.71 51,-70.11"/>
<polygon fill="black" stroke="black" points="54.5,-70.1 51,-60.1 47.5,-70.1 54.5,-70.1"/>
<g id="a_edge1&#45;headlabel"><a xlink:href="dir_000035_000004.html" target="_top" xlink:title="23">
<text text-anchor="middle" x="57.34" y="-71.2" font-family="Helvetica,sans-Serif" font-size="10.00">23</text>
</a>
</g>
</g>
</g>
</svg>
