<?xml version="1.0" encoding="UTF-8" standalone="no"?>
<!DOCTYPE svg PUBLIC "-//W3C//DTD SVG 1.1//EN"
 "http://www.w3.org/Graphics/SVG/1.1/DTD/svg11.dtd">
<!-- Generated by graphviz version 2.43.0 (0)
 -->
<!-- Title: ACSL&#45;flightstack&#45;winged/src/acsl_flight/include/mocap Pages: 1 -->
<svg width="230pt" height="391pt"
 viewBox="0.00 0.00 230.00 391.00" xmlns="http://www.w3.org/2000/svg" xmlns:xlink="http://www.w3.org/1999/xlink">
<g id="graph0" class="graph" transform="scale(1 1) rotate(0) translate(4 387)">
<title>ACSL&#45;flightstack&#45;winged/src/acsl_flight/include/mocap</title>
<polygon fill="white" stroke="transparent" points="-4,4 -4,-387 226,-387 226,4 -4,4"/>
<g id="clust1" class="cluster">
<title>clusterdir_b59d6e0e1db631c1aaa97e9d05ec23c1</title>
<g id="a_clust1"><a xlink:href="dir_b59d6e0e1db631c1aaa97e9d05ec23c1.html" target="_top" xlink:title="include">
<polygon fill="#ddddee" stroke="black" points="8,-8 8,-375 214,-375 214,-8 8,-8"/>
<text text-anchor="middle" x="111" y="-363" font-family="Helvetica,sans-Serif" font-size="10.00">include</text>
</a>
</g>
</g>
<g id="clust2" class="cluster">
<title>clusterdir_24e1b6e1c79d753179c206c8bcc4a2aa</title>
<g id="a_clust2"><a xlink:href="dir_24e1b6e1c79d753179c206c8bcc4a2aa.html" target="_top">
<polygon fill="#eeeeff" stroke="black" points="16,-80 16,-348 104,-348 104,-80 16,-80"/>
</a>
</g>
</g>
<!-- dir_16b06bd99d94bcbd51e36f39541e14af -->
<g id="node1" class="node">
<title>dir_16b06bd99d94bcbd51e36f39541e14af</title>
<g id="a_node1"><a xlink:href="dir_16b06bd99d94bcbd51e36f39541e14af.html" target="_top" xlink:title="control">
<polygon fill="white" stroke="red" points="186,-268 132,-268 132,-232 186,-232 186,-268"/>
<text text-anchor="middle" x="159" y="-247.5" font-family="Helvetica,sans-Serif" font-size="10.00">control</text>
</a>
</g>
</g>
<!-- dir_21e9e6473ae68b51f10683f3306be290 -->
<g id="node2" class="node">
<title>dir_21e9e6473ae68b51f10683f3306be290</title>
<g id="a_node2"><a xlink:href="dir_21e9e6473ae68b51f10683f3306be290.html" target="_top" xlink:title="utils">
<polygon fill="white" stroke="red" points="166,-124 112,-124 112,-88 166,-88 166,-124"/>
<text text-anchor="middle" x="139" y="-103.5" font-family="Helvetica,sans-Serif" font-size="10.00">utils</text>
</a>
</g>
</g>
<!-- dir_16b06bd99d94bcbd51e36f39541e14af&#45;&gt;dir_21e9e6473ae68b51f10683f3306be290 -->
<g id="edge7" class="edge">
<title>dir_16b06bd99d94bcbd51e36f39541e14af&#45;&gt;dir_21e9e6473ae68b51f10683f3306be290</title>
<path fill="none" stroke="black" d="M156.59,-231.87C153.18,-207.67 146.92,-163.21 142.86,-134.39"/>
<polygon fill="black" stroke="black" points="146.28,-133.6 141.42,-124.19 139.35,-134.58 146.28,-133.6"/>
<g id="a_edge7&#45;headlabel"><a xlink:href="dir_000005_000026.html" target="_top" xlink:title="18">
<text text-anchor="middle" x="149.59" y="-134.27" font-family="Helvetica,sans-Serif" font-size="10.00">18</text>
</a>
</g>
</g>
<!-- dir_91384f3ca66e108434602bccde0dca6a -->
<g id="node3" class="node">
<title>dir_91384f3ca66e108434602bccde0dca6a</title>
<g id="a_node3"><a xlink:href="dir_91384f3ca66e108434602bccde0dca6a.html" target="_top" xlink:title="vehicle_class">
<polygon fill="none" stroke="black" points="206,-52 124,-52 124,-16 206,-16 206,-52"/>
<text text-anchor="middle" x="165" y="-31.5" font-family="Helvetica,sans-Serif" font-size="10.00">vehicle_class</text>
</a>
</g>
</g>
<!-- dir_16b06bd99d94bcbd51e36f39541e14af&#45;&gt;dir_91384f3ca66e108434602bccde0dca6a -->
<g id="edge8" class="edge">
<title>dir_16b06bd99d94bcbd51e36f39541e14af&#45;&gt;dir_91384f3ca66e108434602bccde0dca6a</title>
<path fill="none" stroke="black" d="M162.96,-231.71C169.46,-201.1 181.08,-135.37 175,-80 174.37,-74.23 173.29,-68.12 172.07,-62.33"/>
<polygon fill="black" stroke="black" points="175.44,-61.34 169.79,-52.38 168.61,-62.9 175.44,-61.34"/>
<g id="a_edge8&#45;headlabel"><a xlink:href="dir_000005_000033.html" target="_top" xlink:title="1">
<text text-anchor="middle" x="179.01" y="-61.71" font-family="Helvetica,sans-Serif" font-size="10.00">1</text>
</a>
</g>
</g>
<!-- dir_21e9e6473ae68b51f10683f3306be290&#45;&gt;dir_91384f3ca66e108434602bccde0dca6a -->
<g id="edge6" class="edge">
<title>dir_21e9e6473ae68b51f10683f3306be290&#45;&gt;dir_91384f3ca66e108434602bccde0dca6a</title>
<path fill="none" stroke="black" d="M145.43,-87.7C148.36,-79.81 151.89,-70.3 155.14,-61.55"/>
<polygon fill="black" stroke="black" points="158.45,-62.7 158.65,-52.1 151.88,-60.26 158.45,-62.7"/>
<g id="a_edge6&#45;headlabel"><a xlink:href="dir_000026_000033.html" target="_top" xlink:title="1">
<text text-anchor="middle" x="159.86" y="-64.56" font-family="Helvetica,sans-Serif" font-size="10.00">1</text>
</a>
</g>
</g>
<!-- dir_24e1b6e1c79d753179c206c8bcc4a2aa -->
<g id="node4" class="node">
<title>dir_24e1b6e1c79d753179c206c8bcc4a2aa</title>
<text text-anchor="middle" x="69" y="-319.5" font-family="Helvetica,sans-Serif" font-size="10.00">mocap</text>
</g>
<!-- dir_24e1b6e1c79d753179c206c8bcc4a2aa&#45;&gt;dir_16b06bd99d94bcbd51e36f39541e14af -->
<g id="edge2" class="edge">
<title>dir_24e1b6e1c79d753179c206c8bcc4a2aa&#45;&gt;dir_16b06bd99d94bcbd51e36f39541e14af</title>
<path fill="none" stroke="black" d="M91.25,-303.7C102.58,-294.88 116.53,-284.03 128.82,-274.47"/>
<polygon fill="black" stroke="black" points="131.26,-277.01 137.01,-268.1 126.97,-271.48 131.26,-277.01"/>
<g id="a_edge2&#45;headlabel"><a xlink:href="dir_000020_000005.html" target="_top" xlink:title="1">
<text text-anchor="middle" x="130.17" y="-278.95" font-family="Helvetica,sans-Serif" font-size="10.00">1</text>
</a>
</g>
</g>
<!-- dir_24e1b6e1c79d753179c206c8bcc4a2aa&#45;&gt;dir_21e9e6473ae68b51f10683f3306be290 -->
<g id="edge3" class="edge">
<title>dir_24e1b6e1c79d753179c206c8bcc4a2aa&#45;&gt;dir_21e9e6473ae68b51f10683f3306be290</title>
<path fill="none" stroke="black" d="M82.3,-303.71C89.38,-293.75 97.7,-280.71 103,-268 121.72,-223.11 131.45,-166.94 135.87,-134.2"/>
<polygon fill="black" stroke="black" points="139.37,-134.41 137.18,-124.05 132.43,-133.52 139.37,-134.41"/>
<g id="a_edge3&#45;headlabel"><a xlink:href="dir_000020_000026.html" target="_top" xlink:title="4">
<text text-anchor="middle" x="141.73" y="-135.84" font-family="Helvetica,sans-Serif" font-size="10.00">4</text>
</a>
</g>
</g>
<!-- dir_24e1b6e1c79d753179c206c8bcc4a2aa&#45;&gt;dir_91384f3ca66e108434602bccde0dca6a -->
<g id="edge5" class="edge">
<title>dir_24e1b6e1c79d753179c206c8bcc4a2aa&#45;&gt;dir_91384f3ca66e108434602bccde0dca6a</title>
<path fill="none" stroke="black" d="M96.15,-318.21C126.13,-313.51 173.07,-301.01 195,-268 237.66,-203.77 200.95,-107.34 178.83,-61.29"/>
<polygon fill="black" stroke="black" points="181.94,-59.67 174.37,-52.26 175.66,-62.78 181.94,-59.67"/>
<g id="a_edge5&#45;headlabel"><a xlink:href="dir_000020_000033.html" target="_top" xlink:title="1">
<text text-anchor="middle" x="186.08" y="-59.14" font-family="Helvetica,sans-Serif" font-size="10.00">1</text>
</a>
</g>
</g>
<!-- dir_4d5dca36e688efb808ff32630d90e917 -->
<g id="node6" class="node">
<title>dir_4d5dca36e688efb808ff32630d90e917</title>
<g id="a_node6"><a xlink:href="dir_4d5dca36e688efb808ff32630d90e917.html" target="_top" xlink:title="udp_driver">
<polygon fill="white" stroke="black" points="94,-268 26,-268 26,-232 94,-232 94,-268"/>
<text text-anchor="middle" x="60" y="-247.5" font-family="Helvetica,sans-Serif" font-size="10.00">udp_driver</text>
</a>
</g>
</g>
<!-- dir_24e1b6e1c79d753179c206c8bcc4a2aa&#45;&gt;dir_4d5dca36e688efb808ff32630d90e917 -->
<g id="edge4" class="edge">
<title>dir_24e1b6e1c79d753179c206c8bcc4a2aa&#45;&gt;dir_4d5dca36e688efb808ff32630d90e917</title>
<path fill="none" stroke="black" d="M66.78,-303.7C65.78,-295.98 64.59,-286.71 63.49,-278.11"/>
<polygon fill="black" stroke="black" points="66.95,-277.58 62.2,-268.1 60,-278.47 66.95,-277.58"/>
<g id="a_edge4&#45;headlabel"><a xlink:href="dir_000020_000022.html" target="_top" xlink:title="1">
<text text-anchor="middle" x="70.22" y="-278.28" font-family="Helvetica,sans-Serif" font-size="10.00">1</text>
</a>
</g>
</g>
<!-- dir_1a8c52e4adf6c8fa17280f769327fe2a -->
<g id="node5" class="node">
<title>dir_1a8c52e4adf6c8fa17280f769327fe2a</title>
<g id="a_node5"><a xlink:href="dir_1a8c52e4adf6c8fa17280f769327fe2a.html" target="_top" xlink:title="io_context">
<polygon fill="white" stroke="black" points="94,-124 26,-124 26,-88 94,-88 94,-124"/>
<text text-anchor="middle" x="60" y="-103.5" font-family="Helvetica,sans-Serif" font-size="10.00">io_context</text>
</a>
</g>
</g>
<!-- dir_5f3919c4e81f2d04e401400c52cca7c8 -->
<g id="node7" class="node">
<title>dir_5f3919c4e81f2d04e401400c52cca7c8</title>
<g id="a_node7"><a xlink:href="dir_5f3919c4e81f2d04e401400c52cca7c8.html" target="_top" xlink:title="udp_socket">
<polygon fill="white" stroke="black" points="95.5,-196 24.5,-196 24.5,-160 95.5,-160 95.5,-196"/>
<text text-anchor="middle" x="60" y="-175.5" font-family="Helvetica,sans-Serif" font-size="10.00">udp_socket</text>
</a>
</g>
</g>
<!-- dir_4d5dca36e688efb808ff32630d90e917&#45;&gt;dir_5f3919c4e81f2d04e401400c52cca7c8 -->
<g id="edge1" class="edge">
<title>dir_4d5dca36e688efb808ff32630d90e917&#45;&gt;dir_5f3919c4e81f2d04e401400c52cca7c8</title>
<path fill="none" stroke="black" d="M60,-231.7C60,-223.98 60,-214.71 60,-206.11"/>
<polygon fill="black" stroke="black" points="63.5,-206.1 60,-196.1 56.5,-206.1 63.5,-206.1"/>
<g id="a_edge1&#45;headlabel"><a xlink:href="dir_000022_000023.html" target="_top" xlink:title="1">
<text text-anchor="middle" x="66.34" y="-207.2" font-family="Helvetica,sans-Serif" font-size="10.00">1</text>
</a>
</g>
</g>
<!-- dir_5f3919c4e81f2d04e401400c52cca7c8&#45;&gt;dir_21e9e6473ae68b51f10683f3306be290 -->
<g id="edge10" class="edge">
<title>dir_5f3919c4e81f2d04e401400c52cca7c8&#45;&gt;dir_21e9e6473ae68b51f10683f3306be290</title>
<path fill="none" stroke="black" d="M79.53,-159.7C89.38,-150.97 101.49,-140.24 112.2,-130.75"/>
<polygon fill="black" stroke="black" points="114.53,-133.36 119.7,-124.1 109.89,-128.12 114.53,-133.36"/>
<g id="a_edge10&#45;headlabel"><a xlink:href="dir_000023_000026.html" target="_top" xlink:title="1">
<text text-anchor="middle" x="113.73" y="-135.36" font-family="Helvetica,sans-Serif" font-size="10.00">1</text>
</a>
</g>
</g>
<!-- dir_5f3919c4e81f2d04e401400c52cca7c8&#45;&gt;dir_1a8c52e4adf6c8fa17280f769327fe2a -->
<g id="edge9" class="edge">
<title>dir_5f3919c4e81f2d04e401400c52cca7c8&#45;&gt;dir_1a8c52e4adf6c8fa17280f769327fe2a</title>
<path fill="none" stroke="black" d="M60,-159.7C60,-151.98 60,-142.71 60,-134.11"/>
<polygon fill="black" stroke="black" points="63.5,-134.1 60,-124.1 56.5,-134.1 63.5,-134.1"/>
<g id="a_edge9&#45;headlabel"><a xlink:href="dir_000023_000021.html" target="_top" xlink:title="1">
<text text-anchor="middle" x="66.34" y="-135.2" font-family="Helvetica,sans-Serif" font-size="10.00">1</text>
</a>
</g>
</g>
</g>
</svg>
