<?xml version="1.0" encoding="UTF-8" standalone="no"?>
<!DOCTYPE svg PUBLIC "-//W3C//DTD SVG 1.1//EN"
 "http://www.w3.org/Graphics/SVG/1.1/DTD/svg11.dtd">
<!-- Generated by graphviz version 2.43.0 (0)
 -->
<!-- Title: ACSL&#45;flightstack&#45;winged/src/acsl_flight/include/utils Pages: 1 -->
<svg width="807pt" height="281pt"
 viewBox="0.00 0.00 807.00 281.02" xmlns="http://www.w3.org/2000/svg" xmlns:xlink="http://www.w3.org/1999/xlink">
<g id="graph0" class="graph" transform="scale(1 1) rotate(0) translate(4 277.02)">
<title>ACSL&#45;flightstack&#45;winged/src/acsl_flight/include/utils</title>
<polygon fill="white" stroke="transparent" points="-4,4 -4,-277.02 803,-277.02 803,4 -4,4"/>
<g id="clust1" class="cluster">
<title>clusterdir_b59d6e0e1db631c1aaa97e9d05ec23c1</title>
<g id="a_clust1"><a xlink:href="dir_b59d6e0e1db631c1aaa97e9d05ec23c1.html" target="_top" xlink:title="include">
<polygon fill="#ddddee" stroke="black" points="8,-8 8,-239 791,-239 791,-8 8,-8"/>
<text text-anchor="middle" x="399.5" y="-227" font-family="Helvetica,sans-Serif" font-size="10.00">include</text>
</a>
</g>
</g>
<g id="clust2" class="cluster">
<title>clusterdir_21e9e6473ae68b51f10683f3306be290</title>
<g id="a_clust2"><a xlink:href="dir_21e9e6473ae68b51f10683f3306be290.html" target="_top">
<polygon fill="#eeeeff" stroke="black" points="110,-16 110,-212 693,-212 693,-16 110,-16"/>
</a>
</g>
</g>
<!-- dir_91384f3ca66e108434602bccde0dca6a -->
<g id="node1" class="node">
<title>dir_91384f3ca66e108434602bccde0dca6a</title>
<g id="a_node1"><a xlink:href="dir_91384f3ca66e108434602bccde0dca6a.html" target="_top" xlink:title="vehicle_class">
<polygon fill="none" stroke="black" points="783,-132 701,-132 701,-96 783,-96 783,-132"/>
<text text-anchor="middle" x="742" y="-111.5" font-family="Helvetica,sans-Serif" font-size="10.00">vehicle_class</text>
</a>
</g>
</g>
<!-- dir_a7f5c1eab6a9db649807e802721f3c44 -->
<g id="node2" class="node">
<title>dir_a7f5c1eab6a9db649807e802721f3c44</title>
<g id="a_node2"><a xlink:href="dir_a7f5c1eab6a9db649807e802721f3c44.html" target="_top" xlink:title="flight_params">
<polygon fill="none" stroke="black" points="99.5,-204 16.5,-204 16.5,-168 99.5,-168 99.5,-204"/>
<text text-anchor="middle" x="58" y="-183.5" font-family="Helvetica,sans-Serif" font-size="10.00">flight_params</text>
</a>
</g>
</g>
<!-- dir_21e9e6473ae68b51f10683f3306be290 -->
<g id="node3" class="node">
<title>dir_21e9e6473ae68b51f10683f3306be290</title>
<text text-anchor="middle" x="658" y="-183.5" font-family="Helvetica,sans-Serif" font-size="10.00">utils</text>
</g>
<!-- dir_a7f5c1eab6a9db649807e802721f3c44&#45;&gt;dir_21e9e6473ae68b51f10683f3306be290 -->
<g id="edge2" class="edge">
<title>dir_a7f5c1eab6a9db649807e802721f3c44&#45;&gt;dir_21e9e6473ae68b51f10683f3306be290</title>
<path fill="none" stroke="black" d="M66.59,-204.17C75.84,-221.38 92.34,-246.13 115,-257 139.95,-268.96 588.76,-270.34 613,-257 629.84,-247.74 641.26,-229.22 648.38,-213.42"/>
<polygon fill="black" stroke="black" points="651.67,-214.62 652.27,-204.04 645.21,-211.94 651.67,-214.62"/>
<g id="a_edge2&#45;headlabel"><a xlink:href="dir_000019_000026.html" target="_top" xlink:title="2">
<text text-anchor="middle" x="652.92" y="-216.52" font-family="Helvetica,sans-Serif" font-size="10.00">2</text>
</a>
</g>
</g>
<!-- dir_07f18c2b80d85e75bcad381462cf5907 -->
<g id="node7" class="node">
<title>dir_07f18c2b80d85e75bcad381462cf5907</title>
<g id="a_node7"><a xlink:href="dir_07f18c2b80d85e75bcad381462cf5907.html" target="_top" xlink:title="flightstack_helpers">
<polygon fill="white" stroke="black" points="252.5,-132 143.5,-132 143.5,-96 252.5,-96 252.5,-132"/>
<text text-anchor="middle" x="198" y="-111.5" font-family="Helvetica,sans-Serif" font-size="10.00">flightstack_helpers</text>
</a>
</g>
</g>
<!-- dir_a7f5c1eab6a9db649807e802721f3c44&#45;&gt;dir_07f18c2b80d85e75bcad381462cf5907 -->
<g id="edge1" class="edge">
<title>dir_a7f5c1eab6a9db649807e802721f3c44&#45;&gt;dir_07f18c2b80d85e75bcad381462cf5907</title>
<path fill="none" stroke="black" d="M92.25,-167.88C111.06,-158.47 134.58,-146.71 154.67,-136.67"/>
<polygon fill="black" stroke="black" points="156.24,-139.79 163.62,-132.19 153.11,-133.53 156.24,-139.79"/>
<g id="a_edge1&#45;headlabel"><a xlink:href="dir_000019_000030.html" target="_top" xlink:title="2">
<text text-anchor="middle" x="154.3" y="-141.44" font-family="Helvetica,sans-Serif" font-size="10.00">2</text>
</a>
</g>
</g>
<!-- dir_408948dd4781f28da94d0705f701205d -->
<g id="node4" class="node">
<title>dir_408948dd4781f28da94d0705f701205d</title>
<g id="a_node4"><a xlink:href="dir_408948dd4781f28da94d0705f701205d.html" target="_top" xlink:title="adaptive_laws">
<polygon fill="white" stroke="black" points="612.5,-204 525.5,-204 525.5,-168 612.5,-168 612.5,-204"/>
<text text-anchor="middle" x="569" y="-183.5" font-family="Helvetica,sans-Serif" font-size="10.00">adaptive_laws</text>
</a>
</g>
</g>
<!-- dir_ac37127abe12b88e737ec0c85fceb93d -->
<g id="node5" class="node">
<title>dir_ac37127abe12b88e737ec0c85fceb93d</title>
<g id="a_node5"><a xlink:href="dir_ac37127abe12b88e737ec0c85fceb93d.html" target="_top" xlink:title="control_algorithm_base">
<polygon fill="white" stroke="black" points="507.5,-204 376.5,-204 376.5,-168 507.5,-168 507.5,-204"/>
<text text-anchor="middle" x="442" y="-183.5" font-family="Helvetica,sans-Serif" font-size="10.00">control_algorithm_base</text>
</a>
</g>
</g>
<!-- dir_ac37127abe12b88e737ec0c85fceb93d&#45;&gt;dir_91384f3ca66e108434602bccde0dca6a -->
<g id="edge4" class="edge">
<title>dir_ac37127abe12b88e737ec0c85fceb93d&#45;&gt;dir_91384f3ca66e108434602bccde0dca6a</title>
<path fill="none" stroke="black" d="M507.83,-169.98C510.93,-169.3 514,-168.64 517,-168 593.52,-151.68 616.69,-154.24 691.06,-133.61"/>
<polygon fill="black" stroke="black" points="692.22,-136.92 700.89,-130.84 690.32,-130.19 692.22,-136.92"/>
<g id="a_edge4&#45;headlabel"><a xlink:href="dir_000028_000033.html" target="_top" xlink:title="1">
<text text-anchor="middle" x="689.53" y="-138.13" font-family="Helvetica,sans-Serif" font-size="10.00">1</text>
</a>
</g>
</g>
<!-- dir_ac37127abe12b88e737ec0c85fceb93d&#45;&gt;dir_a7f5c1eab6a9db649807e802721f3c44 -->
<g id="edge5" class="edge">
<title>dir_ac37127abe12b88e737ec0c85fceb93d&#45;&gt;dir_a7f5c1eab6a9db649807e802721f3c44</title>
<path fill="none" stroke="black" d="M427.53,-204.03C412.33,-221.39 386.69,-246.5 358,-257 307.29,-275.56 163.69,-280.35 115,-257 96.06,-247.91 81.42,-229.12 71.72,-213.16"/>
<polygon fill="black" stroke="black" points="74.59,-211.12 66.59,-204.17 68.51,-214.59 74.59,-211.12"/>
<g id="a_edge5&#45;headlabel"><a xlink:href="dir_000028_000019.html" target="_top" xlink:title="1">
<text text-anchor="middle" x="78.84" y="-210.33" font-family="Helvetica,sans-Serif" font-size="10.00">1</text>
</a>
</g>
</g>
<!-- dir_ac37127abe12b88e737ec0c85fceb93d&#45;&gt;dir_07f18c2b80d85e75bcad381462cf5907 -->
<g id="edge3" class="edge">
<title>dir_ac37127abe12b88e737ec0c85fceb93d&#45;&gt;dir_07f18c2b80d85e75bcad381462cf5907</title>
<path fill="none" stroke="black" d="M382.42,-167.96C348.71,-158.31 305.5,-145.93 262.41,-133.55"/>
<polygon fill="black" stroke="black" points="263.22,-130.15 252.64,-130.75 261.29,-136.87 263.22,-130.15"/>
<g id="a_edge3&#45;headlabel"><a xlink:href="dir_000028_000030.html" target="_top" xlink:title="1">
<text text-anchor="middle" x="267.46" y="-125.91" font-family="Helvetica,sans-Serif" font-size="10.00">1</text>
</a>
</g>
</g>
<!-- dir_f920a081d7ca504c601dcebc26fc8400 -->
<g id="node6" class="node">
<title>dir_f920a081d7ca504c601dcebc26fc8400</title>
<g id="a_node6"><a xlink:href="dir_f920a081d7ca504c601dcebc26fc8400.html" target="_top" xlink:title="flight_log">
<polygon fill="white" stroke="black" points="358,-204 296,-204 296,-168 358,-168 358,-204"/>
<text text-anchor="middle" x="327" y="-183.5" font-family="Helvetica,sans-Serif" font-size="10.00">flight_log</text>
</a>
</g>
</g>
<!-- dir_673955490f6f3f9e4d4cf376ad957318 -->
<g id="node8" class="node">
<title>dir_673955490f6f3f9e4d4cf376ad957318</title>
<g id="a_node8"><a xlink:href="dir_673955490f6f3f9e4d4cf376ad957318.html" target="_top" xlink:title="lyapunov_solver">
<polygon fill="white" stroke="black" points="246.5,-60 149.5,-60 149.5,-24 246.5,-24 246.5,-60"/>
<text text-anchor="middle" x="198" y="-39.5" font-family="Helvetica,sans-Serif" font-size="10.00">lyapunov_solver</text>
</a>
</g>
</g>
<!-- dir_07f18c2b80d85e75bcad381462cf5907&#45;&gt;dir_673955490f6f3f9e4d4cf376ad957318 -->
<g id="edge6" class="edge">
<title>dir_07f18c2b80d85e75bcad381462cf5907&#45;&gt;dir_673955490f6f3f9e4d4cf376ad957318</title>
<path fill="none" stroke="black" d="M198,-95.7C198,-87.98 198,-78.71 198,-70.11"/>
<polygon fill="black" stroke="black" points="201.5,-70.1 198,-60.1 194.5,-70.1 201.5,-70.1"/>
<g id="a_edge6&#45;headlabel"><a xlink:href="dir_000030_000031.html" target="_top" xlink:title="1">
<text text-anchor="middle" x="204.34" y="-71.2" font-family="Helvetica,sans-Serif" font-size="10.00">1</text>
</a>
</g>
</g>
<!-- dir_9cfa8c6d8be1304ef66aa96c0f1f7e61 -->
<g id="node9" class="node">
<title>dir_9cfa8c6d8be1304ef66aa96c0f1f7e61</title>
<g id="a_node9"><a xlink:href="dir_9cfa8c6d8be1304ef66aa96c0f1f7e61.html" target="_top" xlink:title="user_defined_trajectory_base">
<polygon fill="white" stroke="black" points="278,-204 118,-204 118,-168 278,-168 278,-204"/>
<text text-anchor="middle" x="198" y="-183.5" font-family="Helvetica,sans-Serif" font-size="10.00">user_defined_trajectory_base</text>
</a>
</g>
</g>
<!-- dir_9cfa8c6d8be1304ef66aa96c0f1f7e61&#45;&gt;dir_07f18c2b80d85e75bcad381462cf5907 -->
<g id="edge7" class="edge">
<title>dir_9cfa8c6d8be1304ef66aa96c0f1f7e61&#45;&gt;dir_07f18c2b80d85e75bcad381462cf5907</title>
<path fill="none" stroke="black" d="M198,-167.7C198,-159.98 198,-150.71 198,-142.11"/>
<polygon fill="black" stroke="black" points="201.5,-142.1 198,-132.1 194.5,-142.1 201.5,-142.1"/>
<g id="a_edge7&#45;headlabel"><a xlink:href="dir_000032_000030.html" target="_top" xlink:title="1">
<text text-anchor="middle" x="204.34" y="-143.2" font-family="Helvetica,sans-Serif" font-size="10.00">1</text>
</a>
</g>
</g>
</g>
</svg>
