<?xml version="1.0" encoding="UTF-8" standalone="no"?>
<!DOCTYPE svg PUBLIC "-//W3C//DTD SVG 1.1//EN"
 "http://www.w3.org/Graphics/SVG/1.1/DTD/svg11.dtd">
<!-- Generated by graphviz version 2.43.0 (0)
 -->
<!-- Title: ACSL&#45;flightstack&#45;winged/src/acsl_flight/include/control/platforms/rostestdrone/control_algorithms Pages: 1 -->
<svg width="236pt" height="231pt"
 viewBox="0.00 0.00 236.00 231.00" xmlns="http://www.w3.org/2000/svg" xmlns:xlink="http://www.w3.org/1999/xlink">
<g id="graph0" class="graph" transform="scale(1 1) rotate(0) translate(4 227)">
<title>ACSL&#45;flightstack&#45;winged/src/acsl_flight/include/control/platforms/rostestdrone/control_algorithms</title>
<polygon fill="white" stroke="transparent" points="-4,4 -4,-227 232,-227 232,4 -4,4"/>
<g id="clust1" class="cluster">
<title>clusterdir_6a5e7e919b399ca3ff89df37396df085</title>
<g id="a_clust1"><a xlink:href="dir_6a5e7e919b399ca3ff89df37396df085.html" target="_top" xlink:title="rostestdrone">
<polygon fill="#ddddee" stroke="black" points="8,-128 8,-215 220,-215 220,-128 8,-128"/>
<text text-anchor="middle" x="114" y="-203" font-family="Helvetica,sans-Serif" font-size="10.00">rostestdrone</text>
</a>
</g>
</g>
<g id="clust2" class="cluster">
<title>clusterdir_a7a24523204c83181a5a9d1f36dd7aa0</title>
<g id="a_clust2"><a xlink:href="dir_a7a24523204c83181a5a9d1f36dd7aa0.html" target="_top">
<polygon fill="#eeeeff" stroke="black" points="16,-136 16,-188 212,-188 212,-136 16,-136"/>
</a>
</g>
</g>
<!-- dir_a7a24523204c83181a5a9d1f36dd7aa0 -->
<g id="node1" class="node">
<title>dir_a7a24523204c83181a5a9d1f36dd7aa0</title>
<text text-anchor="middle" x="150" y="-159.5" font-family="Helvetica,sans-Serif" font-size="10.00">control_algorithms</text>
</g>
<!-- dir_78bfaabb1b1e3c13f9c7a35488f35262 -->
<g id="node2" class="node">
<title>dir_78bfaabb1b1e3c13f9c7a35488f35262</title>
<g id="a_node2"><a xlink:href="dir_78bfaabb1b1e3c13f9c7a35488f35262.html" target="_top" xlink:title="PID">
<polygon fill="white" stroke="black" points="78,-180 24,-180 24,-144 78,-144 78,-180"/>
<text text-anchor="middle" x="51" y="-159.5" font-family="Helvetica,sans-Serif" font-size="10.00">PID</text>
</a>
</g>
</g>
<!-- dir_21e9e6473ae68b51f10683f3306be290 -->
<g id="node3" class="node">
<title>dir_21e9e6473ae68b51f10683f3306be290</title>
<g id="a_node3"><a xlink:href="dir_21e9e6473ae68b51f10683f3306be290.html" target="_top" xlink:title="utils">
<polygon fill="white" stroke="red" points="78,-36 24,-36 24,0 78,0 78,-36"/>
<text text-anchor="middle" x="51" y="-15.5" font-family="Helvetica,sans-Serif" font-size="10.00">utils</text>
</a>
</g>
</g>
<!-- dir_78bfaabb1b1e3c13f9c7a35488f35262&#45;&gt;dir_21e9e6473ae68b51f10683f3306be290 -->
<g id="edge1" class="edge">
<title>dir_78bfaabb1b1e3c13f9c7a35488f35262&#45;&gt;dir_21e9e6473ae68b51f10683f3306be290</title>
<path fill="none" stroke="black" d="M34.11,-143.99C25.71,-134.31 16.42,-121.46 12,-108 7.01,-92.8 7.01,-87.2 12,-72 15.31,-61.91 21.37,-52.15 27.73,-43.82"/>
<polygon fill="black" stroke="black" points="30.5,-45.97 34.11,-36.01 25.08,-41.54 30.5,-45.97"/>
<g id="a_edge1&#45;headlabel"><a xlink:href="dir_000016_000026.html" target="_top" xlink:title="3">
<text text-anchor="middle" x="30.42" y="-48.05" font-family="Helvetica,sans-Serif" font-size="10.00">3</text>
</a>
</g>
</g>
<!-- dir_653c48f60ee8ceb0961c6a3849e63394 -->
<g id="node4" class="node">
<title>dir_653c48f60ee8ceb0961c6a3849e63394</title>
<g id="a_node4"><a xlink:href="dir_653c48f60ee8ceb0961c6a3849e63394.html" target="_top" xlink:title="piecewise_polynomial_trajectory">
<polygon fill="none" stroke="black" points="199,-108 21,-108 21,-72 199,-72 199,-108"/>
<text text-anchor="middle" x="110" y="-87.5" font-family="Helvetica,sans-Serif" font-size="10.00">piecewise_polynomial_trajectory</text>
</a>
</g>
</g>
<!-- dir_78bfaabb1b1e3c13f9c7a35488f35262&#45;&gt;dir_653c48f60ee8ceb0961c6a3849e63394 -->
<g id="edge2" class="edge">
<title>dir_78bfaabb1b1e3c13f9c7a35488f35262&#45;&gt;dir_653c48f60ee8ceb0961c6a3849e63394</title>
<path fill="none" stroke="black" d="M65.58,-143.7C72.66,-135.3 81.28,-125.07 89.05,-115.86"/>
<polygon fill="black" stroke="black" points="91.81,-118.01 95.58,-108.1 86.46,-113.49 91.81,-118.01"/>
<g id="a_edge2&#45;headlabel"><a xlink:href="dir_000016_000024.html" target="_top" xlink:title="1">
<text text-anchor="middle" x="91.67" y="-120.08" font-family="Helvetica,sans-Serif" font-size="10.00">1</text>
</a>
</g>
</g>
<!-- dir_653c48f60ee8ceb0961c6a3849e63394&#45;&gt;dir_21e9e6473ae68b51f10683f3306be290 -->
<g id="edge3" class="edge">
<title>dir_653c48f60ee8ceb0961c6a3849e63394&#45;&gt;dir_21e9e6473ae68b51f10683f3306be290</title>
<path fill="none" stroke="black" d="M95.42,-71.7C88.34,-63.3 79.72,-53.07 71.95,-43.86"/>
<polygon fill="black" stroke="black" points="74.54,-41.49 65.42,-36.1 69.19,-46.01 74.54,-41.49"/>
<g id="a_edge3&#45;headlabel"><a xlink:href="dir_000024_000026.html" target="_top" xlink:title="2">
<text text-anchor="middle" x="79.03" y="-39.91" font-family="Helvetica,sans-Serif" font-size="10.00">2</text>
</a>
</g>
</g>
</g>
</svg>
