<?xml version="1.0" encoding="UTF-8" standalone="no"?>
<!DOCTYPE svg PUBLIC "-//W3C//DTD SVG 1.1//EN"
 "http://www.w3.org/Graphics/SVG/1.1/DTD/svg11.dtd">
<!-- Generated by graphviz version 2.43.0 (0)
 -->
<!-- Title: ACSL&#45;flightstack&#45;winged/src/acsl_flight/src/flight_main Pages: 1 -->
<svg width="112pt" height="151pt"
 viewBox="0.00 0.00 112.00 151.00" xmlns="http://www.w3.org/2000/svg" xmlns:xlink="http://www.w3.org/1999/xlink">
<g id="graph0" class="graph" transform="scale(1 1) rotate(0) translate(4 147)">
<title>ACSL&#45;flightstack&#45;winged/src/acsl_flight/src/flight_main</title>
<polygon fill="white" stroke="transparent" points="-4,4 -4,-147 108,-147 108,4 -4,4"/>
<g id="clust1" class="cluster">
<title>clusterdir_df441872dcf22906b3455ec7d1a1fa58</title>
<g id="a_clust1"><a xlink:href="dir_df441872dcf22906b3455ec7d1a1fa58.html" target="_top" xlink:title="src">
<polygon fill="#ddddee" stroke="black" points="8,-64 8,-135 96,-135 96,-64 8,-64"/>
<text text-anchor="middle" x="52" y="-123" font-family="Helvetica,sans-Serif" font-size="10.00">src</text>
</a>
</g>
</g>
<!-- dir_9387b8e0bb00cad81eea7775790314b1 -->
<g id="node1" class="node">
<title>dir_9387b8e0bb00cad81eea7775790314b1</title>
<g id="a_node1"><a xlink:href="dir_9387b8e0bb00cad81eea7775790314b1.html" target="_top" xlink:title="flight_main">
<polygon fill="#eeeeff" stroke="black" points="87.5,-108 16.5,-108 16.5,-72 87.5,-72 87.5,-108"/>
<text text-anchor="middle" x="52" y="-87.5" font-family="Helvetica,sans-Serif" font-size="10.00">flight_main</text>
</a>
</g>
</g>
<!-- dir_b59d6e0e1db631c1aaa97e9d05ec23c1 -->
<g id="node2" class="node">
<title>dir_b59d6e0e1db631c1aaa97e9d05ec23c1</title>
<g id="a_node2"><a xlink:href="dir_b59d6e0e1db631c1aaa97e9d05ec23c1.html" target="_top" xlink:title="include">
<polygon fill="white" stroke="red" points="79,-36 25,-36 25,0 79,0 79,-36"/>
<text text-anchor="middle" x="52" y="-15.5" font-family="Helvetica,sans-Serif" font-size="10.00">include</text>
</a>
</g>
</g>
<!-- dir_9387b8e0bb00cad81eea7775790314b1&#45;&gt;dir_b59d6e0e1db631c1aaa97e9d05ec23c1 -->
<g id="edge1" class="edge">
<title>dir_9387b8e0bb00cad81eea7775790314b1&#45;&gt;dir_b59d6e0e1db631c1aaa97e9d05ec23c1</title>
<path fill="none" stroke="black" d="M52,-71.7C52,-63.98 52,-54.71 52,-46.11"/>
<polygon fill="black" stroke="black" points="55.5,-46.1 52,-36.1 48.5,-46.1 55.5,-46.1"/>
<g id="a_edge1&#45;headlabel"><a xlink:href="dir_000048_000004.html" target="_top" xlink:title="2">
<text text-anchor="middle" x="58.34" y="-47.2" font-family="Helvetica,sans-Serif" font-size="10.00">2</text>
</a>
</g>
</g>
</g>
</svg>
