<?xml version="1.0" encoding="UTF-8" standalone="no"?>
<!DOCTYPE svg PUBLIC "-//W3C//DTD SVG 1.1//EN"
 "http://www.w3.org/Graphics/SVG/1.1/DTD/svg11.dtd">
<!-- Generated by graphviz version 2.43.0 (0)
 -->
<!-- Title: ACSL&#45;flightstack&#45;winged/src/acsl_flight/src/control/platforms/rostestdrone Pages: 1 -->
<svg width="260pt" height="159pt"
 viewBox="0.00 0.00 260.00 159.00" xmlns="http://www.w3.org/2000/svg" xmlns:xlink="http://www.w3.org/1999/xlink">
<g id="graph0" class="graph" transform="scale(1 1) rotate(0) translate(4 155)">
<title>ACSL&#45;flightstack&#45;winged/src/acsl_flight/src/control/platforms/rostestdrone</title>
<polygon fill="white" stroke="transparent" points="-4,4 -4,-155 256,-155 256,4 -4,4"/>
<g id="clust1" class="cluster">
<title>clusterdir_569eed2c14c2d5b6009124e6036b1a48</title>
<g id="a_clust1"><a xlink:href="dir_569eed2c14c2d5b6009124e6036b1a48.html" target="_top" xlink:title="platforms">
<polygon fill="#ddddee" stroke="black" points="8,-56 8,-143 244,-143 244,-56 8,-56"/>
<text text-anchor="middle" x="126" y="-131" font-family="Helvetica,sans-Serif" font-size="10.00">platforms</text>
</a>
</g>
</g>
<g id="clust2" class="cluster">
<title>clusterdir_6aa955054e6872401e8e24a6ccc1e3ee</title>
<g id="a_clust2"><a xlink:href="dir_6aa955054e6872401e8e24a6ccc1e3ee.html" target="_top">
<polygon fill="#eeeeff" stroke="black" points="16,-64 16,-116 236,-116 236,-64 16,-64"/>
</a>
</g>
</g>
<!-- dir_6aa955054e6872401e8e24a6ccc1e3ee -->
<g id="node1" class="node">
<title>dir_6aa955054e6872401e8e24a6ccc1e3ee</title>
<text text-anchor="middle" x="189" y="-87.5" font-family="Helvetica,sans-Serif" font-size="10.00">rostestdrone</text>
</g>
<!-- dir_9a9cddb92effba58c41714505fd8d954 -->
<g id="node2" class="node">
<title>dir_9a9cddb92effba58c41714505fd8d954</title>
<g id="a_node2"><a xlink:href="dir_9a9cddb92effba58c41714505fd8d954.html" target="_top" xlink:title="control_algorithms">
<polygon fill="white" stroke="red" points="132,-108 24,-108 24,-72 132,-72 132,-108"/>
<text text-anchor="middle" x="78" y="-87.5" font-family="Helvetica,sans-Serif" font-size="10.00">control_algorithms</text>
</a>
</g>
</g>
<!-- dir_b59d6e0e1db631c1aaa97e9d05ec23c1 -->
<g id="node3" class="node">
<title>dir_b59d6e0e1db631c1aaa97e9d05ec23c1</title>
<g id="a_node3"><a xlink:href="dir_b59d6e0e1db631c1aaa97e9d05ec23c1.html" target="_top" xlink:title="include">
<polygon fill="white" stroke="red" points="105,-36 51,-36 51,0 105,0 105,-36"/>
<text text-anchor="middle" x="78" y="-15.5" font-family="Helvetica,sans-Serif" font-size="10.00">include</text>
</a>
</g>
</g>
<!-- dir_9a9cddb92effba58c41714505fd8d954&#45;&gt;dir_b59d6e0e1db631c1aaa97e9d05ec23c1 -->
<g id="edge1" class="edge">
<title>dir_9a9cddb92effba58c41714505fd8d954&#45;&gt;dir_b59d6e0e1db631c1aaa97e9d05ec23c1</title>
<path fill="none" stroke="black" d="M78,-71.7C78,-63.98 78,-54.71 78,-46.11"/>
<polygon fill="black" stroke="black" points="81.5,-46.1 78,-36.1 74.5,-46.1 81.5,-46.1"/>
<g id="a_edge1&#45;headlabel"><a xlink:href="dir_000045_000004.html" target="_top" xlink:title="2">
<text text-anchor="middle" x="84.34" y="-47.2" font-family="Helvetica,sans-Serif" font-size="10.00">2</text>
</a>
</g>
</g>
</g>
</svg>
