<?xml version="1.0" encoding="UTF-8" standalone="no"?>
<!DOCTYPE svg PUBLIC "-//W3C//DTD SVG 1.1//EN"
 "http://www.w3.org/Graphics/SVG/1.1/DTD/svg11.dtd">
<!-- Generated by graphviz version 2.43.0 (0)
 -->
<!-- Title: ACSL&#45;flightstack&#45;winged/src/acsl_flight/include/control/platforms/qrbp/control_algorithms/MRAC_PID Pages: 1 -->
<svg width="304pt" height="223pt"
 viewBox="0.00 0.00 304.03 223.00" xmlns="http://www.w3.org/2000/svg" xmlns:xlink="http://www.w3.org/1999/xlink">
<g id="graph0" class="graph" transform="scale(1 1) rotate(0) translate(4 219)">
<title>ACSL&#45;flightstack&#45;winged/src/acsl_flight/include/control/platforms/qrbp/control_algorithms/MRAC_PID</title>
<polygon fill="white" stroke="transparent" points="-4,4 -4,-219 300.03,-219 300.03,4 -4,4"/>
<g id="clust1" class="cluster">
<title>clusterdir_82022d225b2379d26d7525e63dec03f3</title>
<g id="a_clust1"><a xlink:href="dir_82022d225b2379d26d7525e63dec03f3.html" target="_top" xlink:title="control_algorithms">
<polygon fill="#ddddee" stroke="black" points="49.03,-136 49.03,-207 157.03,-207 157.03,-136 49.03,-136"/>
<text text-anchor="middle" x="103.03" y="-195" font-family="Helvetica,sans-Serif" font-size="10.00">control_algorithms</text>
</a>
</g>
</g>
<!-- dir_b996325e17d267980a16186ece650320 -->
<g id="node1" class="node">
<title>dir_b996325e17d267980a16186ece650320</title>
<g id="a_node1"><a xlink:href="dir_b996325e17d267980a16186ece650320.html" target="_top" xlink:title="MRAC_PID">
<polygon fill="#eeeeff" stroke="black" points="137.03,-180 69.03,-180 69.03,-144 137.03,-144 137.03,-180"/>
<text text-anchor="middle" x="103.03" y="-159.5" font-family="Helvetica,sans-Serif" font-size="10.00">MRAC_PID</text>
</a>
</g>
</g>
<!-- dir_21e9e6473ae68b51f10683f3306be290 -->
<g id="node2" class="node">
<title>dir_21e9e6473ae68b51f10683f3306be290</title>
<g id="a_node2"><a xlink:href="dir_21e9e6473ae68b51f10683f3306be290.html" target="_top" xlink:title="utils">
<polygon fill="white" stroke="red" points="71.03,-36 17.03,-36 17.03,0 71.03,0 71.03,-36"/>
<text text-anchor="middle" x="44.03" y="-15.5" font-family="Helvetica,sans-Serif" font-size="10.00">utils</text>
</a>
</g>
</g>
<!-- dir_b996325e17d267980a16186ece650320&#45;&gt;dir_21e9e6473ae68b51f10683f3306be290 -->
<g id="edge1" class="edge">
<title>dir_b996325e17d267980a16186ece650320&#45;&gt;dir_21e9e6473ae68b51f10683f3306be290</title>
<path fill="none" stroke="black" d="M68.96,-152.38C46.51,-144.74 18.8,-131.09 5.03,-108 -7.25,-87.39 6.15,-62.21 20.49,-43.9"/>
<polygon fill="black" stroke="black" points="23.35,-45.94 27.05,-36.01 17.96,-41.46 23.35,-45.94"/>
<g id="a_edge1&#45;headlabel"><a xlink:href="dir_000011_000026.html" target="_top" xlink:title="3">
<text text-anchor="middle" x="23.23" y="-48.02" font-family="Helvetica,sans-Serif" font-size="10.00">3</text>
</a>
</g>
</g>
<!-- dir_653c48f60ee8ceb0961c6a3849e63394 -->
<g id="node3" class="node">
<title>dir_653c48f60ee8ceb0961c6a3849e63394</title>
<g id="a_node3"><a xlink:href="dir_653c48f60ee8ceb0961c6a3849e63394.html" target="_top" xlink:title="piecewise_polynomial_trajectory">
<polygon fill="none" stroke="black" points="192.03,-108 14.03,-108 14.03,-72 192.03,-72 192.03,-108"/>
<text text-anchor="middle" x="103.03" y="-87.5" font-family="Helvetica,sans-Serif" font-size="10.00">piecewise_polynomial_trajectory</text>
</a>
</g>
</g>
<!-- dir_b996325e17d267980a16186ece650320&#45;&gt;dir_653c48f60ee8ceb0961c6a3849e63394 -->
<g id="edge2" class="edge">
<title>dir_b996325e17d267980a16186ece650320&#45;&gt;dir_653c48f60ee8ceb0961c6a3849e63394</title>
<path fill="none" stroke="black" d="M103.03,-143.7C103.03,-135.98 103.03,-126.71 103.03,-118.11"/>
<polygon fill="black" stroke="black" points="106.53,-118.1 103.03,-108.1 99.53,-118.1 106.53,-118.1"/>
<g id="a_edge2&#45;headlabel"><a xlink:href="dir_000011_000024.html" target="_top" xlink:title="1">
<text text-anchor="middle" x="109.37" y="-119.2" font-family="Helvetica,sans-Serif" font-size="10.00">1</text>
</a>
</g>
</g>
<!-- dir_e23ed2e74c04421aa8489eea3be87a5e -->
<g id="node4" class="node">
<title>dir_e23ed2e74c04421aa8489eea3be87a5e</title>
<g id="a_node4"><a xlink:href="dir_e23ed2e74c04421aa8489eea3be87a5e.html" target="_top" xlink:title="aerodynamics">
<polygon fill="none" stroke="black" points="296.03,-108 210.03,-108 210.03,-72 296.03,-72 296.03,-108"/>
<text text-anchor="middle" x="253.03" y="-87.5" font-family="Helvetica,sans-Serif" font-size="10.00">aerodynamics</text>
</a>
</g>
</g>
<!-- dir_b996325e17d267980a16186ece650320&#45;&gt;dir_e23ed2e74c04421aa8489eea3be87a5e -->
<g id="edge3" class="edge">
<title>dir_b996325e17d267980a16186ece650320&#45;&gt;dir_e23ed2e74c04421aa8489eea3be87a5e</title>
<path fill="none" stroke="black" d="M137.07,-145.12C157.88,-135.4 184.77,-122.85 207.42,-112.29"/>
<polygon fill="black" stroke="black" points="208.93,-115.44 216.51,-108.04 205.97,-109.1 208.93,-115.44"/>
<g id="a_edge3&#45;headlabel"><a xlink:href="dir_000011_000008.html" target="_top" xlink:title="1">
<text text-anchor="middle" x="206.87" y="-117.04" font-family="Helvetica,sans-Serif" font-size="10.00">1</text>
</a>
</g>
</g>
<!-- dir_653c48f60ee8ceb0961c6a3849e63394&#45;&gt;dir_21e9e6473ae68b51f10683f3306be290 -->
<g id="edge4" class="edge">
<title>dir_653c48f60ee8ceb0961c6a3849e63394&#45;&gt;dir_21e9e6473ae68b51f10683f3306be290</title>
<path fill="none" stroke="black" d="M88.45,-71.7C81.37,-63.3 72.75,-53.07 64.99,-43.86"/>
<polygon fill="black" stroke="black" points="67.57,-41.49 58.45,-36.1 62.22,-46.01 67.57,-41.49"/>
<g id="a_edge4&#45;headlabel"><a xlink:href="dir_000024_000026.html" target="_top" xlink:title="2">
<text text-anchor="middle" x="72.06" y="-39.91" font-family="Helvetica,sans-Serif" font-size="10.00">2</text>
</a>
</g>
</g>
</g>
</svg>
