<?xml version="1.0" encoding="UTF-8" standalone="no"?>
<!DOCTYPE svg PUBLIC "-//W3C//DTD SVG 1.1//EN"
 "http://www.w3.org/Graphics/SVG/1.1/DTD/svg11.dtd">
<!-- Generated by graphviz version 2.43.0 (0)
 -->
<!-- Title: ACSL&#45;flightstack&#45;winged/src/acsl_flight/include Pages: 1 -->
<!--zoomable 471 -->
<svg id="main" version="1.1" xmlns="http://www.w3.org/2000/svg" xmlns:xlink="http://www.w3.org/1999/xlink" xml:space="preserve" onload="init(evt)">
<style type="text/css"><![CDATA[
.edge:hover path { stroke: red; }
.edge:hover polygon { stroke: red; fill: red; }
]]></style>
<script type="text/javascript"><![CDATA[
var edges = document.getElementsByTagName('g');
if (edges && edges.length) {
  for (var i=0;i<edges.length;i++) {
    if (edges[i].id.substr(0,4)=='edge') {
      edges[i].setAttribute('class','edge');
    }
  }
}
]]></script>
        <defs>
                <circle id="rim" cx="0" cy="0" r="7"/>
                <circle id="rim2" cx="0" cy="0" r="3.5"/>
                <g id="zoomPlus">
                        <use xlink:href="#rim" fill="#404040">
                                <set attributeName="fill" to="#808080" begin="zoomplus.mouseover" end="zoomplus.mouseout"/>
                        </use>
                        <path d="M-4,0h8M0,-4v8" fill="none" stroke="white" stroke-width="1.5" pointer-events="none"/>
                </g>
                <g id="zoomMin">
                        <use xlink:href="#rim" fill="#404040">
                                <set attributeName="fill" to="#808080" begin="zoomminus.mouseover" end="zoomminus.mouseout"/>
                        </use>
                        <path d="M-4,0h8" fill="none" stroke="white" stroke-width="1.5" pointer-events="none"/>
                </g>
                <g id="dirArrow">
                        <path fill="none" stroke="white" stroke-width="1.5" d="M0,-3.0v7 M-2.5,-0.5L0,-3.0L2.5,-0.5"/>
                </g>
               <g id="resetDef">
                       <use xlink:href="#rim2" fill="#404040">
                               <set attributeName="fill" to="#808080" begin="reset.mouseover" end="reset.mouseout"/>
                       </use>
               </g>
        </defs>

<script type="text/javascript">
var viewWidth = 568;
var viewHeight = 471;
var sectionId = 'dynsection-0';
</script>
<script xlink:href="svgpan.js"/>
<svg id="graph" class="graph">
<g id="viewport">
<title>ACSL&#45;flightstack&#45;winged/src/acsl_flight/include</title>
<polygon fill="white" stroke="transparent" points="-4,4 -4,-467 564,-467 564,4 -4,4"/>
<g id="clust1" class="cluster">
<title>clusterdir_a964ec745bb3c23b753cfa036932779d</title>
<g id="a_clust1"><a xlink:href="dir_a964ec745bb3c23b753cfa036932779d.html" target="_top" xlink:title="acsl_flight">
<polygon fill="#ddddee" stroke="black" points="8,-8 8,-455 552,-455 552,-8 8,-8"/>
<text text-anchor="middle" x="280" y="-443" font-family="Helvetica,sans-Serif" font-size="10.00">acsl_flight</text>
</a>
</g>
</g>
<g id="clust2" class="cluster">
<title>clusterdir_b59d6e0e1db631c1aaa97e9d05ec23c1</title>
<g id="a_clust2"><a xlink:href="dir_b59d6e0e1db631c1aaa97e9d05ec23c1.html" target="_top">
<polygon fill="#eeeeff" stroke="black" points="16,-16 16,-428 544,-428 544,-16 16,-16"/>
</a>
</g>
</g>
<!-- dir_b59d6e0e1db631c1aaa97e9d05ec23c1 -->
<g id="node1" class="node">
<title>dir_b59d6e0e1db631c1aaa97e9d05ec23c1</title>
<text text-anchor="middle" x="509" y="-399.5" font-family="Helvetica,sans-Serif" font-size="10.00">include</text>
</g>
<!-- dir_16b06bd99d94bcbd51e36f39541e14af -->
<g id="node2" class="node">
<title>dir_16b06bd99d94bcbd51e36f39541e14af</title>
<g id="a_node2"><a xlink:href="dir_16b06bd99d94bcbd51e36f39541e14af.html" target="_top" xlink:title="control">
<polygon fill="white" stroke="red" points="220,-348 166,-348 166,-312 220,-312 220,-348"/>
<text text-anchor="middle" x="193" y="-327.5" font-family="Helvetica,sans-Serif" font-size="10.00">control</text>
</a>
</g>
</g>
<!-- dir_56c205456dc4fe9727e9169e57f90230 -->
<g id="node3" class="node">
<title>dir_56c205456dc4fe9727e9169e57f90230</title>
<g id="a_node3"><a xlink:href="dir_56c205456dc4fe9727e9169e57f90230.html" target="_top" xlink:title="flight_bridge">
<polygon fill="white" stroke="black" points="397.5,-276 320.5,-276 320.5,-240 397.5,-240 397.5,-276"/>
<text text-anchor="middle" x="359" y="-255.5" font-family="Helvetica,sans-Serif" font-size="10.00">flight_bridge</text>
</a>
</g>
</g>
<!-- dir_16b06bd99d94bcbd51e36f39541e14af&#45;&gt;dir_56c205456dc4fe9727e9169e57f90230 -->
<g id="edge13" class="edge">
<title>dir_16b06bd99d94bcbd51e36f39541e14af&#45;&gt;dir_56c205456dc4fe9727e9169e57f90230</title>
<path fill="none" stroke="black" d="M220.04,-317.6C244.58,-307.25 281.33,-291.75 310.88,-279.29"/>
<polygon fill="black" stroke="black" points="312.34,-282.48 320.19,-275.36 309.62,-276.03 312.34,-282.48"/>
<g id="a_edge13&#45;headlabel"><a xlink:href="dir_000005_000017.html" target="_top" xlink:title="1">
<text text-anchor="middle" x="310.13" y="-283.99" font-family="Helvetica,sans-Serif" font-size="10.00">1</text>
</a>
</g>
</g>
<!-- dir_a7f5c1eab6a9db649807e802721f3c44 -->
<g id="node5" class="node">
<title>dir_a7f5c1eab6a9db649807e802721f3c44</title>
<g id="a_node5"><a xlink:href="dir_a7f5c1eab6a9db649807e802721f3c44.html" target="_top" xlink:title="flight_params">
<polygon fill="white" stroke="black" points="319.5,-204 236.5,-204 236.5,-168 319.5,-168 319.5,-204"/>
<text text-anchor="middle" x="278" y="-183.5" font-family="Helvetica,sans-Serif" font-size="10.00">flight_params</text>
</a>
</g>
</g>
<!-- dir_16b06bd99d94bcbd51e36f39541e14af&#45;&gt;dir_a7f5c1eab6a9db649807e802721f3c44 -->
<g id="edge15" class="edge">
<title>dir_16b06bd99d94bcbd51e36f39541e14af&#45;&gt;dir_a7f5c1eab6a9db649807e802721f3c44</title>
<path fill="none" stroke="black" d="M220.01,-322.65C243.38,-315.57 275.75,-301.59 291,-276 302.25,-257.13 297.21,-232.11 290.38,-213.41"/>
<polygon fill="black" stroke="black" points="293.58,-211.99 286.61,-204.01 287.08,-214.59 293.58,-211.99"/>
<g id="a_edge15&#45;headlabel"><a xlink:href="dir_000005_000019.html" target="_top" xlink:title="1">
<text text-anchor="middle" x="297.55" y="-211.77" font-family="Helvetica,sans-Serif" font-size="10.00">1</text>
</a>
</g>
</g>
<!-- dir_653c48f60ee8ceb0961c6a3849e63394 -->
<g id="node7" class="node">
<title>dir_653c48f60ee8ceb0961c6a3849e63394</title>
<g id="a_node7"><a xlink:href="dir_653c48f60ee8ceb0961c6a3849e63394.html" target="_top" xlink:title="piecewise_polynomial_trajectory">
<polygon fill="white" stroke="black" points="282,-276 104,-276 104,-240 282,-240 282,-276"/>
<text text-anchor="middle" x="193" y="-255.5" font-family="Helvetica,sans-Serif" font-size="10.00">piecewise_polynomial_trajectory</text>
</a>
</g>
</g>
<!-- dir_16b06bd99d94bcbd51e36f39541e14af&#45;&gt;dir_653c48f60ee8ceb0961c6a3849e63394 -->
<g id="edge16" class="edge">
<title>dir_16b06bd99d94bcbd51e36f39541e14af&#45;&gt;dir_653c48f60ee8ceb0961c6a3849e63394</title>
<path fill="none" stroke="black" d="M193,-311.7C193,-303.98 193,-294.71 193,-286.11"/>
<polygon fill="black" stroke="black" points="196.5,-286.1 193,-276.1 189.5,-286.1 196.5,-286.1"/>
<g id="a_edge16&#45;headlabel"><a xlink:href="dir_000005_000024.html" target="_top" xlink:title="5">
<text text-anchor="middle" x="199.34" y="-287.2" font-family="Helvetica,sans-Serif" font-size="10.00">5</text>
</a>
</g>
</g>
<!-- dir_21e9e6473ae68b51f10683f3306be290 -->
<g id="node9" class="node">
<title>dir_21e9e6473ae68b51f10683f3306be290</title>
<g id="a_node9"><a xlink:href="dir_21e9e6473ae68b51f10683f3306be290.html" target="_top" xlink:title="utils">
<polygon fill="white" stroke="red" points="274,-132 220,-132 220,-96 274,-96 274,-132"/>
<text text-anchor="middle" x="247" y="-111.5" font-family="Helvetica,sans-Serif" font-size="10.00">utils</text>
</a>
</g>
</g>
<!-- dir_16b06bd99d94bcbd51e36f39541e14af&#45;&gt;dir_21e9e6473ae68b51f10683f3306be290 -->
<g id="edge12" class="edge">
<title>dir_16b06bd99d94bcbd51e36f39541e14af&#45;&gt;dir_21e9e6473ae68b51f10683f3306be290</title>
<path fill="none" stroke="black" d="M165.99,-322.65C142.62,-315.57 110.25,-301.59 95,-276 86.81,-262.26 88.17,-254.47 95,-240 118.81,-189.59 174.02,-152.66 210.93,-132.5"/>
<polygon fill="black" stroke="black" points="212.7,-135.53 219.89,-127.74 209.41,-129.34 212.7,-135.53"/>
<g id="a_edge12&#45;headlabel"><a xlink:href="dir_000005_000026.html" target="_top" xlink:title="18">
<text text-anchor="middle" x="210.86" y="-137.22" font-family="Helvetica,sans-Serif" font-size="10.00">18</text>
</a>
</g>
</g>
<!-- dir_91384f3ca66e108434602bccde0dca6a -->
<g id="node10" class="node">
<title>dir_91384f3ca66e108434602bccde0dca6a</title>
<g id="a_node10"><a xlink:href="dir_91384f3ca66e108434602bccde0dca6a.html" target="_top" xlink:title="vehicle_class">
<polygon fill="white" stroke="black" points="288,-60 206,-60 206,-24 288,-24 288,-60"/>
<text text-anchor="middle" x="247" y="-39.5" font-family="Helvetica,sans-Serif" font-size="10.00">vehicle_class</text>
</a>
</g>
</g>
<!-- dir_16b06bd99d94bcbd51e36f39541e14af&#45;&gt;dir_91384f3ca66e108434602bccde0dca6a -->
<g id="edge14" class="edge">
<title>dir_16b06bd99d94bcbd51e36f39541e14af&#45;&gt;dir_91384f3ca66e108434602bccde0dca6a</title>
<path fill="none" stroke="black" d="M165.8,-324.08C139.97,-317.8 102.56,-304.18 85,-276 76.54,-262.42 81.77,-255.67 85,-240 92.03,-205.88 96.11,-196.6 116,-168 144.1,-127.6 186.82,-89.87 215.77,-66.65"/>
<polygon fill="black" stroke="black" points="218.24,-69.15 223.91,-60.21 213.9,-63.66 218.24,-69.15"/>
<g id="a_edge14&#45;headlabel"><a xlink:href="dir_000005_000033.html" target="_top" xlink:title="1">
<text text-anchor="middle" x="217.18" y="-71.11" font-family="Helvetica,sans-Serif" font-size="10.00">1</text>
</a>
</g>
</g>
<!-- dir_90644455f2d345de552edf45956f4bf6 -->
<g id="node4" class="node">
<title>dir_90644455f2d345de552edf45956f4bf6</title>
<g id="a_node4"><a xlink:href="dir_90644455f2d345de552edf45956f4bf6.html" target="_top" xlink:title="flight_main">
<polygon fill="white" stroke="black" points="405.5,-348 334.5,-348 334.5,-312 405.5,-312 405.5,-348"/>
<text text-anchor="middle" x="370" y="-327.5" font-family="Helvetica,sans-Serif" font-size="10.00">flight_main</text>
</a>
</g>
</g>
<!-- dir_90644455f2d345de552edf45956f4bf6&#45;&gt;dir_56c205456dc4fe9727e9169e57f90230 -->
<g id="edge5" class="edge">
<title>dir_90644455f2d345de552edf45956f4bf6&#45;&gt;dir_56c205456dc4fe9727e9169e57f90230</title>
<path fill="none" stroke="black" d="M367.28,-311.7C366.07,-303.98 364.61,-294.71 363.26,-286.11"/>
<polygon fill="black" stroke="black" points="366.7,-285.44 361.69,-276.1 359.78,-286.53 366.7,-285.44"/>
<g id="a_edge5&#45;headlabel"><a xlink:href="dir_000018_000017.html" target="_top" xlink:title="1">
<text text-anchor="middle" x="370.06" y="-286.05" font-family="Helvetica,sans-Serif" font-size="10.00">1</text>
</a>
</g>
</g>
<!-- dir_90644455f2d345de552edf45956f4bf6&#45;&gt;dir_a7f5c1eab6a9db649807e802721f3c44 -->
<g id="edge6" class="edge">
<title>dir_90644455f2d345de552edf45956f4bf6&#45;&gt;dir_a7f5c1eab6a9db649807e802721f3c44</title>
<path fill="none" stroke="black" d="M386.53,-311.95C402.56,-293.28 422.37,-262.93 407,-240 389.77,-214.3 357.59,-201.05 329.69,-194.22"/>
<polygon fill="black" stroke="black" points="330.16,-190.74 319.63,-191.99 328.64,-197.58 330.16,-190.74"/>
<g id="a_edge6&#45;headlabel"><a xlink:href="dir_000018_000019.html" target="_top" xlink:title="1">
<text text-anchor="middle" x="334.28" y="-186.25" font-family="Helvetica,sans-Serif" font-size="10.00">1</text>
</a>
</g>
</g>
<!-- dir_a7f5c1eab6a9db649807e802721f3c44&#45;&gt;dir_21e9e6473ae68b51f10683f3306be290 -->
<g id="edge1" class="edge">
<title>dir_a7f5c1eab6a9db649807e802721f3c44&#45;&gt;dir_21e9e6473ae68b51f10683f3306be290</title>
<path fill="none" stroke="black" d="M264.42,-167.7C260.12,-159.81 255.69,-150.3 252.18,-141.55"/>
<polygon fill="black" stroke="black" points="255.44,-140.26 248.68,-132.1 248.88,-142.7 255.44,-140.26"/>
<g id="a_edge1&#45;headlabel"><a xlink:href="dir_000019_000026.html" target="_top" xlink:title="2">
<text text-anchor="middle" x="259.35" y="-140.14" font-family="Helvetica,sans-Serif" font-size="10.00">2</text>
</a>
</g>
</g>
<!-- dir_24e1b6e1c79d753179c206c8bcc4a2aa -->
<g id="node6" class="node">
<title>dir_24e1b6e1c79d753179c206c8bcc4a2aa</title>
<g id="a_node6"><a xlink:href="dir_24e1b6e1c79d753179c206c8bcc4a2aa.html" target="_top" xlink:title="mocap">
<polygon fill="white" stroke="red" points="464,-420 410,-420 410,-384 464,-384 464,-420"/>
<text text-anchor="middle" x="437" y="-399.5" font-family="Helvetica,sans-Serif" font-size="10.00">mocap</text>
</a>
</g>
</g>
<!-- dir_24e1b6e1c79d753179c206c8bcc4a2aa&#45;&gt;dir_16b06bd99d94bcbd51e36f39541e14af -->
<g id="edge7" class="edge">
<title>dir_24e1b6e1c79d753179c206c8bcc4a2aa&#45;&gt;dir_16b06bd99d94bcbd51e36f39541e14af</title>
<path fill="none" stroke="black" d="M409.96,-393.24C366.08,-380.65 279.31,-355.76 229.83,-341.57"/>
<polygon fill="black" stroke="black" points="230.74,-338.19 220.17,-338.79 228.81,-344.92 230.74,-338.19"/>
<g id="a_edge7&#45;headlabel"><a xlink:href="dir_000020_000005.html" target="_top" xlink:title="1">
<text text-anchor="middle" x="234.98" y="-333.95" font-family="Helvetica,sans-Serif" font-size="10.00">1</text>
</a>
</g>
</g>
<!-- dir_24e1b6e1c79d753179c206c8bcc4a2aa&#45;&gt;dir_21e9e6473ae68b51f10683f3306be290 -->
<g id="edge8" class="edge">
<title>dir_24e1b6e1c79d753179c206c8bcc4a2aa&#45;&gt;dir_21e9e6473ae68b51f10683f3306be290</title>
<path fill="none" stroke="black" d="M438.38,-383.78C440.05,-352.89 439.95,-286.95 414,-240 384.8,-187.18 322.86,-150.16 283.17,-130.75"/>
<polygon fill="black" stroke="black" points="284.61,-127.56 274.08,-126.42 281.6,-133.88 284.61,-127.56"/>
<g id="a_edge8&#45;headlabel"><a xlink:href="dir_000020_000026.html" target="_top" xlink:title="4">
<text text-anchor="middle" x="289.08" y="-124.05" font-family="Helvetica,sans-Serif" font-size="10.00">4</text>
</a>
</g>
</g>
<!-- dir_24e1b6e1c79d753179c206c8bcc4a2aa&#45;&gt;dir_91384f3ca66e108434602bccde0dca6a -->
<g id="edge9" class="edge">
<title>dir_24e1b6e1c79d753179c206c8bcc4a2aa&#45;&gt;dir_91384f3ca66e108434602bccde0dca6a</title>
<path fill="none" stroke="black" d="M459.24,-383.92C488.15,-359.6 535,-312.02 535,-259 535,-259 535,-259 535,-185 535,-80.65 381.01,-52.98 298.23,-45.64"/>
<polygon fill="black" stroke="black" points="298.52,-42.16 288.26,-44.83 297.94,-49.13 298.52,-42.16"/>
<g id="a_edge9&#45;headlabel"><a xlink:href="dir_000020_000033.html" target="_top" xlink:title="1">
<text text-anchor="middle" x="302.33" y="-37.12" font-family="Helvetica,sans-Serif" font-size="10.00">1</text>
</a>
</g>
</g>
<!-- dir_653c48f60ee8ceb0961c6a3849e63394&#45;&gt;dir_a7f5c1eab6a9db649807e802721f3c44 -->
<g id="edge18" class="edge">
<title>dir_653c48f60ee8ceb0961c6a3849e63394&#45;&gt;dir_a7f5c1eab6a9db649807e802721f3c44</title>
<path fill="none" stroke="black" d="M214.01,-239.7C224.72,-230.88 237.89,-220.03 249.5,-210.47"/>
<polygon fill="black" stroke="black" points="251.74,-213.16 257.23,-204.1 247.29,-207.76 251.74,-213.16"/>
<g id="a_edge18&#45;headlabel"><a xlink:href="dir_000024_000019.html" target="_top" xlink:title="1">
<text text-anchor="middle" x="250.77" y="-215.14" font-family="Helvetica,sans-Serif" font-size="10.00">1</text>
</a>
</g>
</g>
<!-- dir_653c48f60ee8ceb0961c6a3849e63394&#45;&gt;dir_21e9e6473ae68b51f10683f3306be290 -->
<g id="edge17" class="edge">
<title>dir_653c48f60ee8ceb0961c6a3849e63394&#45;&gt;dir_21e9e6473ae68b51f10683f3306be290</title>
<path fill="none" stroke="black" d="M199.51,-239.87C208.8,-215.46 225.92,-170.43 236.87,-141.64"/>
<polygon fill="black" stroke="black" points="240.18,-142.78 240.46,-132.19 233.64,-140.29 240.18,-142.78"/>
<g id="a_edge17&#45;headlabel"><a xlink:href="dir_000024_000026.html" target="_top" xlink:title="2">
<text text-anchor="middle" x="241.56" y="-144.65" font-family="Helvetica,sans-Serif" font-size="10.00">2</text>
</a>
</g>
</g>
<!-- dir_01cb7144c76989b29a79f3c9e4dc792f -->
<g id="node8" class="node">
<title>dir_01cb7144c76989b29a79f3c9e4dc792f</title>
<g id="a_node8"><a xlink:href="dir_01cb7144c76989b29a79f3c9e4dc792f.html" target="_top" xlink:title="read_pix">
<polygon fill="white" stroke="black" points="515.5,-276 456.5,-276 456.5,-240 515.5,-240 515.5,-276"/>
<text text-anchor="middle" x="486" y="-255.5" font-family="Helvetica,sans-Serif" font-size="10.00">read_pix</text>
</a>
</g>
</g>
<!-- dir_01cb7144c76989b29a79f3c9e4dc792f&#45;&gt;dir_a7f5c1eab6a9db649807e802721f3c44 -->
<g id="edge20" class="edge">
<title>dir_01cb7144c76989b29a79f3c9e4dc792f&#45;&gt;dir_a7f5c1eab6a9db649807e802721f3c44</title>
<path fill="none" stroke="black" d="M456.2,-246.97C423.09,-235.83 369.06,-217.65 329.16,-204.22"/>
<polygon fill="black" stroke="black" points="330.19,-200.87 319.6,-201 327.96,-207.51 330.19,-200.87"/>
<g id="a_edge20&#45;headlabel"><a xlink:href="dir_000025_000019.html" target="_top" xlink:title="1">
<text text-anchor="middle" x="334.5" y="-196.83" font-family="Helvetica,sans-Serif" font-size="10.00">1</text>
</a>
</g>
</g>
<!-- dir_01cb7144c76989b29a79f3c9e4dc792f&#45;&gt;dir_91384f3ca66e108434602bccde0dca6a -->
<g id="edge19" class="edge">
<title>dir_01cb7144c76989b29a79f3c9e4dc792f&#45;&gt;dir_91384f3ca66e108434602bccde0dca6a</title>
<path fill="none" stroke="black" d="M480.7,-239.99C474.07,-220.79 461.19,-189.45 442,-168 400.53,-121.66 338,-85.69 294.99,-64.47"/>
<polygon fill="black" stroke="black" points="296.38,-61.25 285.85,-60.04 293.32,-67.55 296.38,-61.25"/>
<g id="a_edge19&#45;headlabel"><a xlink:href="dir_000025_000033.html" target="_top" xlink:title="1">
<text text-anchor="middle" x="300.85" y="-57.77" font-family="Helvetica,sans-Serif" font-size="10.00">1</text>
</a>
</g>
</g>
<!-- dir_21e9e6473ae68b51f10683f3306be290&#45;&gt;dir_a7f5c1eab6a9db649807e802721f3c44 -->
<g id="edge11" class="edge">
<title>dir_21e9e6473ae68b51f10683f3306be290&#45;&gt;dir_a7f5c1eab6a9db649807e802721f3c44</title>
<path fill="none" stroke="black" d="M260.47,-132.1C264.77,-139.96 269.21,-149.46 272.73,-158.23"/>
<polygon fill="black" stroke="black" points="269.48,-159.55 276.25,-167.7 276.04,-157.1 269.48,-159.55"/>
<g id="a_edge11&#45;headlabel"><a xlink:href="dir_000026_000019.html" target="_top" xlink:title="1">
<text text-anchor="middle" x="265.57" y="-154.67" font-family="Helvetica,sans-Serif" font-size="10.00">1</text>
</a>
</g>
</g>
<!-- dir_21e9e6473ae68b51f10683f3306be290&#45;&gt;dir_91384f3ca66e108434602bccde0dca6a -->
<g id="edge10" class="edge">
<title>dir_21e9e6473ae68b51f10683f3306be290&#45;&gt;dir_91384f3ca66e108434602bccde0dca6a</title>
<path fill="none" stroke="black" d="M247,-95.7C247,-87.98 247,-78.71 247,-70.11"/>
<polygon fill="black" stroke="black" points="250.5,-70.1 247,-60.1 243.5,-70.1 250.5,-70.1"/>
<g id="a_edge10&#45;headlabel"><a xlink:href="dir_000026_000033.html" target="_top" xlink:title="1">
<text text-anchor="middle" x="253.34" y="-71.2" font-family="Helvetica,sans-Serif" font-size="10.00">1</text>
</a>
</g>
</g>
<!-- dir_19e0355432fca8646d27743e85495d16 -->
<g id="node11" class="node">
<title>dir_19e0355432fca8646d27743e85495d16</title>
<g id="a_node11"><a xlink:href="dir_19e0355432fca8646d27743e85495d16.html" target="_top" xlink:title="vio">
<polygon fill="white" stroke="black" points="78,-420 24,-420 24,-384 78,-384 78,-420"/>
<text text-anchor="middle" x="51" y="-399.5" font-family="Helvetica,sans-Serif" font-size="10.00">vio</text>
</a>
</g>
</g>
<!-- dir_19e0355432fca8646d27743e85495d16&#45;&gt;dir_16b06bd99d94bcbd51e36f39541e14af -->
<g id="edge2" class="edge">
<title>dir_19e0355432fca8646d27743e85495d16&#45;&gt;dir_16b06bd99d94bcbd51e36f39541e14af</title>
<path fill="none" stroke="black" d="M78.04,-387.67C100.31,-376.69 132.07,-361.03 156.57,-348.96"/>
<polygon fill="black" stroke="black" points="158.15,-352.08 165.57,-344.52 155.06,-345.8 158.15,-352.08"/>
<g id="a_edge2&#45;headlabel"><a xlink:href="dir_000034_000005.html" target="_top" xlink:title="1">
<text text-anchor="middle" x="156.18" y="-353.72" font-family="Helvetica,sans-Serif" font-size="10.00">1</text>
</a>
</g>
</g>
<!-- dir_19e0355432fca8646d27743e85495d16&#45;&gt;dir_21e9e6473ae68b51f10683f3306be290 -->
<g id="edge3" class="edge">
<title>dir_19e0355432fca8646d27743e85495d16&#45;&gt;dir_21e9e6473ae68b51f10683f3306be290</title>
<path fill="none" stroke="black" d="M50.38,-383.8C49.82,-340.85 54.6,-228.05 116,-168 141.7,-142.87 180.89,-129.14 209.71,-122"/>
<polygon fill="black" stroke="black" points="210.86,-125.32 219.81,-119.66 209.28,-118.51 210.86,-125.32"/>
<g id="a_edge3&#45;headlabel"><a xlink:href="dir_000034_000026.html" target="_top" xlink:title="4">
<text text-anchor="middle" x="208" y="-126.4" font-family="Helvetica,sans-Serif" font-size="10.00">4</text>
</a>
</g>
</g>
<!-- dir_19e0355432fca8646d27743e85495d16&#45;&gt;dir_91384f3ca66e108434602bccde0dca6a -->
<g id="edge4" class="edge">
<title>dir_19e0355432fca8646d27743e85495d16&#45;&gt;dir_91384f3ca66e108434602bccde0dca6a</title>
<path fill="none" stroke="black" d="M45.74,-383.7C38.14,-357.14 25,-304.61 25,-259 25,-259 25,-259 25,-185 25,-104.44 130.03,-67.52 195.6,-52.32"/>
<polygon fill="black" stroke="black" points="196.76,-55.65 205.76,-50.07 195.24,-48.82 196.76,-55.65"/>
<g id="a_edge4&#45;headlabel"><a xlink:href="dir_000034_000033.html" target="_top" xlink:title="1">
<text text-anchor="middle" x="193.87" y="-56.7" font-family="Helvetica,sans-Serif" font-size="10.00">1</text>
</a>
</g>
</g>
</g>
</svg>
        <g id="navigator" transform="translate(0 0)" fill="#404254">
                <rect fill="#f2f5e9" fill-opacity="0.5" stroke="#606060" stroke-width=".5" x="0" y="0" width="60" height="60"/>
                <use id="zoomplus" xlink:href="#zoomPlus" x="17" y="9" onmousedown="handleZoom(evt,'in')"/>
                <use id="zoomminus" xlink:href="#zoomMin" x="42" y="9" onmousedown="handleZoom(evt,'out')"/>
                <use id="reset" xlink:href="#resetDef" x="30" y="36" onmousedown="handleReset()"/>
                <g id="arrowUp" xlink:href="#dirArrow" transform="translate(30 24)" onmousedown="handlePan(0,-1)">
                  <use xlink:href="#rim" fill="#404040">
                        <set attributeName="fill" to="#808080" begin="arrowUp.mouseover" end="arrowUp.mouseout"/>
                  </use>
                  <path fill="none" stroke="white" stroke-width="1.5" d="M0,-3.0v7 M-2.5,-0.5L0,-3.0L2.5,-0.5"/>
                </g>
                <g id="arrowRight" xlink:href="#dirArrow" transform="rotate(90) translate(36 -43)" onmousedown="handlePan(1,0)">
                  <use xlink:href="#rim" fill="#404040">
                        <set attributeName="fill" to="#808080" begin="arrowRight.mouseover" end="arrowRight.mouseout"/>
                  </use>
                  <path fill="none" stroke="white" stroke-width="1.5" d="M0,-3.0v7 M-2.5,-0.5L0,-3.0L2.5,-0.5"/>
                </g>
                <g id="arrowDown" xlink:href="#dirArrow" transform="rotate(180) translate(-30 -48)" onmousedown="handlePan(0,1)">
                  <use xlink:href="#rim" fill="#404040">
                        <set attributeName="fill" to="#808080" begin="arrowDown.mouseover" end="arrowDown.mouseout"/>
                  </use>
                  <path fill="none" stroke="white" stroke-width="1.5" d="M0,-3.0v7 M-2.5,-0.5L0,-3.0L2.5,-0.5"/>
                </g>
                <g id="arrowLeft" xlink:href="#dirArrow" transform="rotate(270) translate(-36 17)" onmousedown="handlePan(-1,0)">
                  <use xlink:href="#rim" fill="#404040">
                        <set attributeName="fill" to="#808080" begin="arrowLeft.mouseover" end="arrowLeft.mouseout"/>
                  </use>
                  <path fill="none" stroke="white" stroke-width="1.5" d="M0,-3.0v7 M-2.5,-0.5L0,-3.0L2.5,-0.5"/>
                </g>
        </g>
        <svg viewBox="0 0 15 15" width="100%" height="30px" preserveAspectRatio="xMaxYMin meet">
         <g id="arrow_out" transform="scale(0.3 0.3)">
          <a xlink:href="dir_b59d6e0e1db631c1aaa97e9d05ec23c1_dep_org.svg" target="_base">
           <rect id="button" ry="5" rx="5" y="6" x="6" height="38" width="38"
                fill="#f2f5e9" fill-opacity="0.5" stroke="#606060" stroke-width="1.0"/>
           <path id="arrow"
             d="M 11.500037,31.436501 C 11.940474,20.09759 22.043105,11.32322 32.158766,21.979434 L 37.068811,17.246167 C 37.068811,17.246167 37.088388,32 37.088388,32 L 22.160133,31.978069 C 22.160133,31.978069 26.997745,27.140456 26.997745,27.140456 C 18.528582,18.264221 13.291696,25.230495 11.500037,31.436501 z"
             style="fill:#404040;"/>
          </a>
         </g>
        </svg>
</svg>
