<?xml version="1.0" encoding="UTF-8" standalone="no"?>
<!DOCTYPE svg PUBLIC "-//W3C//DTD SVG 1.1//EN"
 "http://www.w3.org/Graphics/SVG/1.1/DTD/svg11.dtd">
<!-- Generated by graphviz version 2.43.0 (0)
 -->
<!-- Title: ACSL&#45;flightstack&#45;winged/src/acsl_flight/src/mocap Pages: 1 -->
<svg width="372pt" height="159pt"
 viewBox="0.00 0.00 372.00 159.00" xmlns="http://www.w3.org/2000/svg" xmlns:xlink="http://www.w3.org/1999/xlink">
<g id="graph0" class="graph" transform="scale(1 1) rotate(0) translate(4 155)">
<title>ACSL&#45;flightstack&#45;winged/src/acsl_flight/src/mocap</title>
<polygon fill="white" stroke="transparent" points="-4,4 -4,-155 368,-155 368,4 -4,4"/>
<g id="clust1" class="cluster">
<title>clusterdir_df441872dcf22906b3455ec7d1a1fa58</title>
<g id="a_clust1"><a xlink:href="dir_df441872dcf22906b3455ec7d1a1fa58.html" target="_top" xlink:title="src">
<polygon fill="#ddddee" stroke="black" points="8,-56 8,-143 356,-143 356,-56 8,-56"/>
<text text-anchor="middle" x="182" y="-131" font-family="Helvetica,sans-Serif" font-size="10.00">src</text>
</a>
</g>
</g>
<g id="clust2" class="cluster">
<title>clusterdir_d8e5604113ab6a5e93375b96059e62c5</title>
<g id="a_clust2"><a xlink:href="dir_d8e5604113ab6a5e93375b96059e62c5.html" target="_top">
<polygon fill="#eeeeff" stroke="black" points="16,-64 16,-116 348,-116 348,-64 16,-64"/>
</a>
</g>
</g>
<!-- dir_d8e5604113ab6a5e93375b96059e62c5 -->
<g id="node1" class="node">
<title>dir_d8e5604113ab6a5e93375b96059e62c5</title>
<text text-anchor="middle" x="313" y="-87.5" font-family="Helvetica,sans-Serif" font-size="10.00">mocap</text>
</g>
<!-- dir_4df09ab510dfcb4e99295e75cf204fa6 -->
<g id="node2" class="node">
<title>dir_4df09ab510dfcb4e99295e75cf204fa6</title>
<g id="a_node2"><a xlink:href="dir_4df09ab510dfcb4e99295e75cf204fa6.html" target="_top" xlink:title="io_context">
<polygon fill="white" stroke="black" points="268,-108 200,-108 200,-72 268,-72 268,-108"/>
<text text-anchor="middle" x="234" y="-87.5" font-family="Helvetica,sans-Serif" font-size="10.00">io_context</text>
</a>
</g>
</g>
<!-- dir_b59d6e0e1db631c1aaa97e9d05ec23c1 -->
<g id="node5" class="node">
<title>dir_b59d6e0e1db631c1aaa97e9d05ec23c1</title>
<g id="a_node5"><a xlink:href="dir_b59d6e0e1db631c1aaa97e9d05ec23c1.html" target="_top" xlink:title="include">
<polygon fill="white" stroke="red" points="175,-36 121,-36 121,0 175,0 175,-36"/>
<text text-anchor="middle" x="148" y="-15.5" font-family="Helvetica,sans-Serif" font-size="10.00">include</text>
</a>
</g>
</g>
<!-- dir_4df09ab510dfcb4e99295e75cf204fa6&#45;&gt;dir_b59d6e0e1db631c1aaa97e9d05ec23c1 -->
<g id="edge3" class="edge">
<title>dir_4df09ab510dfcb4e99295e75cf204fa6&#45;&gt;dir_b59d6e0e1db631c1aaa97e9d05ec23c1</title>
<path fill="none" stroke="black" d="M212.74,-71.7C201.91,-62.88 188.58,-52.03 176.84,-42.47"/>
<polygon fill="black" stroke="black" points="178.98,-39.7 169.01,-36.1 174.56,-45.13 178.98,-39.7"/>
<g id="a_edge3&#45;headlabel"><a xlink:href="dir_000051_000004.html" target="_top" xlink:title="1">
<text text-anchor="middle" x="183.56" y="-37.27" font-family="Helvetica,sans-Serif" font-size="10.00">1</text>
</a>
</g>
</g>
<!-- dir_ab673ab43c4ebf4f5c602c6d79948297 -->
<g id="node3" class="node">
<title>dir_ab673ab43c4ebf4f5c602c6d79948297</title>
<g id="a_node3"><a xlink:href="dir_ab673ab43c4ebf4f5c602c6d79948297.html" target="_top" xlink:title="udp_driver">
<polygon fill="white" stroke="black" points="182,-108 114,-108 114,-72 182,-72 182,-108"/>
<text text-anchor="middle" x="148" y="-87.5" font-family="Helvetica,sans-Serif" font-size="10.00">udp_driver</text>
</a>
</g>
</g>
<!-- dir_ab673ab43c4ebf4f5c602c6d79948297&#45;&gt;dir_b59d6e0e1db631c1aaa97e9d05ec23c1 -->
<g id="edge1" class="edge">
<title>dir_ab673ab43c4ebf4f5c602c6d79948297&#45;&gt;dir_b59d6e0e1db631c1aaa97e9d05ec23c1</title>
<path fill="none" stroke="black" d="M148,-71.7C148,-63.98 148,-54.71 148,-46.11"/>
<polygon fill="black" stroke="black" points="151.5,-46.1 148,-36.1 144.5,-46.1 151.5,-46.1"/>
<g id="a_edge1&#45;headlabel"><a xlink:href="dir_000052_000004.html" target="_top" xlink:title="1">
<text text-anchor="middle" x="154.34" y="-47.2" font-family="Helvetica,sans-Serif" font-size="10.00">1</text>
</a>
</g>
</g>
<!-- dir_a6fd35f35b15dcfe3ed2084661642a51 -->
<g id="node4" class="node">
<title>dir_a6fd35f35b15dcfe3ed2084661642a51</title>
<g id="a_node4"><a xlink:href="dir_a6fd35f35b15dcfe3ed2084661642a51.html" target="_top" xlink:title="udp_socket">
<polygon fill="white" stroke="black" points="95.5,-108 24.5,-108 24.5,-72 95.5,-72 95.5,-108"/>
<text text-anchor="middle" x="60" y="-87.5" font-family="Helvetica,sans-Serif" font-size="10.00">udp_socket</text>
</a>
</g>
</g>
<!-- dir_a6fd35f35b15dcfe3ed2084661642a51&#45;&gt;dir_b59d6e0e1db631c1aaa97e9d05ec23c1 -->
<g id="edge2" class="edge">
<title>dir_a6fd35f35b15dcfe3ed2084661642a51&#45;&gt;dir_b59d6e0e1db631c1aaa97e9d05ec23c1</title>
<path fill="none" stroke="black" d="M81.75,-71.7C92.84,-62.88 106.47,-52.03 118.49,-42.47"/>
<polygon fill="black" stroke="black" points="120.85,-45.07 126.5,-36.1 116.49,-39.59 120.85,-45.07"/>
<g id="a_edge2&#45;headlabel"><a xlink:href="dir_000053_000004.html" target="_top" xlink:title="1">
<text text-anchor="middle" x="119.8" y="-47.03" font-family="Helvetica,sans-Serif" font-size="10.00">1</text>
</a>
</g>
</g>
</g>
</svg>
