<?xml version="1.0" encoding="UTF-8" standalone="no"?>
<!DOCTYPE svg PUBLIC "-//W3C//DTD SVG 1.1//EN"
 "http://www.w3.org/Graphics/SVG/1.1/DTD/svg11.dtd">
<!-- Generated by graphviz version 2.43.0 (0)
 -->
<!-- Title: ACSL&#45;flightstack&#45;winged/src/acsl_flight/src/piecewise_polynomial_trajectory Pages: 1 -->
<svg width="218pt" height="151pt"
 viewBox="0.00 0.00 218.00 151.00" xmlns="http://www.w3.org/2000/svg" xmlns:xlink="http://www.w3.org/1999/xlink">
<g id="graph0" class="graph" transform="scale(1 1) rotate(0) translate(4 147)">
<title>ACSL&#45;flightstack&#45;winged/src/acsl_flight/src/piecewise_polynomial_trajectory</title>
<polygon fill="white" stroke="transparent" points="-4,4 -4,-147 214,-147 214,4 -4,4"/>
<g id="clust1" class="cluster">
<title>clusterdir_df441872dcf22906b3455ec7d1a1fa58</title>
<g id="a_clust1"><a xlink:href="dir_df441872dcf22906b3455ec7d1a1fa58.html" target="_top" xlink:title="src">
<polygon fill="#ddddee" stroke="black" points="8,-64 8,-135 202,-135 202,-64 8,-64"/>
<text text-anchor="middle" x="105" y="-123" font-family="Helvetica,sans-Serif" font-size="10.00">src</text>
</a>
</g>
</g>
<!-- dir_60149df5a82d4873a10040276e111088 -->
<g id="node1" class="node">
<title>dir_60149df5a82d4873a10040276e111088</title>
<g id="a_node1"><a xlink:href="dir_60149df5a82d4873a10040276e111088.html" target="_top" xlink:title="piecewise_polynomial_trajectory">
<polygon fill="#eeeeff" stroke="black" points="194,-108 16,-108 16,-72 194,-72 194,-108"/>
<text text-anchor="middle" x="105" y="-87.5" font-family="Helvetica,sans-Serif" font-size="10.00">piecewise_polynomial_trajectory</text>
</a>
</g>
</g>
<!-- dir_b59d6e0e1db631c1aaa97e9d05ec23c1 -->
<g id="node2" class="node">
<title>dir_b59d6e0e1db631c1aaa97e9d05ec23c1</title>
<g id="a_node2"><a xlink:href="dir_b59d6e0e1db631c1aaa97e9d05ec23c1.html" target="_top" xlink:title="include">
<polygon fill="white" stroke="red" points="132,-36 78,-36 78,0 132,0 132,-36"/>
<text text-anchor="middle" x="105" y="-15.5" font-family="Helvetica,sans-Serif" font-size="10.00">include</text>
</a>
</g>
</g>
<!-- dir_60149df5a82d4873a10040276e111088&#45;&gt;dir_b59d6e0e1db631c1aaa97e9d05ec23c1 -->
<g id="edge1" class="edge">
<title>dir_60149df5a82d4873a10040276e111088&#45;&gt;dir_b59d6e0e1db631c1aaa97e9d05ec23c1</title>
<path fill="none" stroke="black" d="M105,-71.7C105,-63.98 105,-54.71 105,-46.11"/>
<polygon fill="black" stroke="black" points="108.5,-46.1 105,-36.1 101.5,-46.1 108.5,-46.1"/>
<g id="a_edge1&#45;headlabel"><a xlink:href="dir_000054_000004.html" target="_top" xlink:title="1">
<text text-anchor="middle" x="111.34" y="-47.2" font-family="Helvetica,sans-Serif" font-size="10.00">1</text>
</a>
</g>
</g>
</g>
</svg>
