<?xml version="1.0" encoding="UTF-8" standalone="no"?>
<!DOCTYPE svg PUBLIC "-//W3C//DTD SVG 1.1//EN"
 "http://www.w3.org/Graphics/SVG/1.1/DTD/svg11.dtd">
<!-- Generated by graphviz version 2.43.0 (0)
 -->
<!-- Title: ACSL&#45;flightstack&#45;winged/src/acsl_flight/include/control Pages: 1 -->
<svg width="338pt" height="391pt"
 viewBox="0.00 0.00 338.00 391.00" xmlns="http://www.w3.org/2000/svg" xmlns:xlink="http://www.w3.org/1999/xlink">
<g id="graph0" class="graph" transform="scale(1 1) rotate(0) translate(4 387)">
<title>ACSL&#45;flightstack&#45;winged/src/acsl_flight/include/control</title>
<polygon fill="white" stroke="transparent" points="-4,4 -4,-387 334,-387 334,4 -4,4"/>
<g id="clust1" class="cluster">
<title>clusterdir_b59d6e0e1db631c1aaa97e9d05ec23c1</title>
<g id="a_clust1"><a xlink:href="dir_b59d6e0e1db631c1aaa97e9d05ec23c1.html" target="_top" xlink:title="include">
<polygon fill="#ddddee" stroke="black" points="8,-8 8,-375 322,-375 322,-8 8,-8"/>
<text text-anchor="middle" x="165" y="-363" font-family="Helvetica,sans-Serif" font-size="10.00">include</text>
</a>
</g>
</g>
<g id="clust2" class="cluster">
<title>clusterdir_16b06bd99d94bcbd51e36f39541e14af</title>
<g id="a_clust2"><a xlink:href="dir_16b06bd99d94bcbd51e36f39541e14af.html" target="_top">
<polygon fill="#eeeeff" stroke="black" points="106,-224 106,-348 186,-348 186,-224 106,-224"/>
</a>
</g>
</g>
<!-- dir_21e9e6473ae68b51f10683f3306be290 -->
<g id="node1" class="node">
<title>dir_21e9e6473ae68b51f10683f3306be290</title>
<g id="a_node1"><a xlink:href="dir_21e9e6473ae68b51f10683f3306be290.html" target="_top" xlink:title="utils">
<polygon fill="white" stroke="red" points="227,-124 173,-124 173,-88 227,-88 227,-124"/>
<text text-anchor="middle" x="200" y="-103.5" font-family="Helvetica,sans-Serif" font-size="10.00">utils</text>
</a>
</g>
</g>
<!-- dir_91384f3ca66e108434602bccde0dca6a -->
<g id="node3" class="node">
<title>dir_91384f3ca66e108434602bccde0dca6a</title>
<g id="a_node3"><a xlink:href="dir_91384f3ca66e108434602bccde0dca6a.html" target="_top" xlink:title="vehicle_class">
<polygon fill="none" stroke="black" points="314,-52 232,-52 232,-16 314,-16 314,-52"/>
<text text-anchor="middle" x="273" y="-31.5" font-family="Helvetica,sans-Serif" font-size="10.00">vehicle_class</text>
</a>
</g>
</g>
<!-- dir_21e9e6473ae68b51f10683f3306be290&#45;&gt;dir_91384f3ca66e108434602bccde0dca6a -->
<g id="edge5" class="edge">
<title>dir_21e9e6473ae68b51f10683f3306be290&#45;&gt;dir_91384f3ca66e108434602bccde0dca6a</title>
<path fill="none" stroke="black" d="M218.04,-87.7C227.06,-79.05 238.12,-68.45 247.94,-59.03"/>
<polygon fill="black" stroke="black" points="250.37,-61.55 255.16,-52.1 245.52,-56.5 250.37,-61.55"/>
<g id="a_edge5&#45;headlabel"><a xlink:href="dir_000026_000033.html" target="_top" xlink:title="1">
<text text-anchor="middle" x="249.74" y="-63.59" font-family="Helvetica,sans-Serif" font-size="10.00">1</text>
</a>
</g>
</g>
<!-- dir_a7f5c1eab6a9db649807e802721f3c44 -->
<g id="node4" class="node">
<title>dir_a7f5c1eab6a9db649807e802721f3c44</title>
<g id="a_node4"><a xlink:href="dir_a7f5c1eab6a9db649807e802721f3c44.html" target="_top" xlink:title="flight_params">
<polygon fill="none" stroke="black" points="213.5,-52 130.5,-52 130.5,-16 213.5,-16 213.5,-52"/>
<text text-anchor="middle" x="172" y="-31.5" font-family="Helvetica,sans-Serif" font-size="10.00">flight_params</text>
</a>
</g>
</g>
<!-- dir_21e9e6473ae68b51f10683f3306be290&#45;&gt;dir_a7f5c1eab6a9db649807e802721f3c44 -->
<g id="edge6" class="edge">
<title>dir_21e9e6473ae68b51f10683f3306be290&#45;&gt;dir_a7f5c1eab6a9db649807e802721f3c44</title>
<path fill="none" stroke="black" d="M187.16,-87.7C183.24,-79.9 179.26,-70.51 176.15,-61.83"/>
<polygon fill="black" stroke="black" points="179.4,-60.51 172.95,-52.1 172.75,-62.7 179.4,-60.51"/>
<g id="a_edge6&#45;headlabel"><a xlink:href="dir_000026_000019.html" target="_top" xlink:title="1">
<text text-anchor="middle" x="183.22" y="-60.54" font-family="Helvetica,sans-Serif" font-size="10.00">1</text>
</a>
</g>
</g>
<!-- dir_56c205456dc4fe9727e9169e57f90230 -->
<g id="node2" class="node">
<title>dir_56c205456dc4fe9727e9169e57f90230</title>
<g id="a_node2"><a xlink:href="dir_56c205456dc4fe9727e9169e57f90230.html" target="_top" xlink:title="flight_bridge">
<polygon fill="none" stroke="black" points="293.5,-268 216.5,-268 216.5,-232 293.5,-232 293.5,-268"/>
<text text-anchor="middle" x="255" y="-247.5" font-family="Helvetica,sans-Serif" font-size="10.00">flight_bridge</text>
</a>
</g>
</g>
<!-- dir_56c205456dc4fe9727e9169e57f90230&#45;&gt;dir_91384f3ca66e108434602bccde0dca6a -->
<g id="edge3" class="edge">
<title>dir_56c205456dc4fe9727e9169e57f90230&#45;&gt;dir_91384f3ca66e108434602bccde0dca6a</title>
<path fill="none" stroke="black" d="M264.54,-231.93C269.64,-221.82 275.39,-208.57 278,-196 287.6,-149.75 282.36,-94.44 277.68,-62.17"/>
<polygon fill="black" stroke="black" points="281.12,-61.5 276.13,-52.15 274.2,-62.56 281.12,-61.5"/>
<g id="a_edge3&#45;headlabel"><a xlink:href="dir_000017_000033.html" target="_top" xlink:title="1">
<text text-anchor="middle" x="284.47" y="-62.12" font-family="Helvetica,sans-Serif" font-size="10.00">1</text>
</a>
</g>
</g>
<!-- dir_56c205456dc4fe9727e9169e57f90230&#45;&gt;dir_a7f5c1eab6a9db649807e802721f3c44 -->
<g id="edge4" class="edge">
<title>dir_56c205456dc4fe9727e9169e57f90230&#45;&gt;dir_a7f5c1eab6a9db649807e802721f3c44</title>
<path fill="none" stroke="black" d="M256.96,-231.78C259.64,-200.91 261.56,-134.97 236,-88 229.69,-76.4 219.71,-66.32 209.49,-58.16"/>
<polygon fill="black" stroke="black" points="211.41,-55.22 201.31,-52.03 207.21,-60.82 211.41,-55.22"/>
<g id="a_edge4&#45;headlabel"><a xlink:href="dir_000017_000019.html" target="_top" xlink:title="1">
<text text-anchor="middle" x="215.99" y="-52.61" font-family="Helvetica,sans-Serif" font-size="10.00">1</text>
</a>
</g>
</g>
<!-- dir_16b06bd99d94bcbd51e36f39541e14af -->
<g id="node6" class="node">
<title>dir_16b06bd99d94bcbd51e36f39541e14af</title>
<text text-anchor="middle" x="151" y="-319.5" font-family="Helvetica,sans-Serif" font-size="10.00">control</text>
</g>
<!-- dir_56c205456dc4fe9727e9169e57f90230&#45;&gt;dir_16b06bd99d94bcbd51e36f39541e14af -->
<g id="edge2" class="edge">
<title>dir_56c205456dc4fe9727e9169e57f90230&#45;&gt;dir_16b06bd99d94bcbd51e36f39541e14af</title>
<path fill="none" stroke="black" d="M235.35,-268.2C221.64,-278.12 203.13,-290.64 186.89,-300.99"/>
<polygon fill="black" stroke="black" points="184.74,-298.21 178.14,-306.5 188.47,-304.13 184.74,-298.21"/>
<g id="a_edge2&#45;headlabel"><a xlink:href="dir_000017_000005.html" target="_top" xlink:title="2">
<text text-anchor="middle" x="186.27" y="-291.39" font-family="Helvetica,sans-Serif" font-size="10.00">2</text>
</a>
</g>
</g>
<!-- dir_a7f5c1eab6a9db649807e802721f3c44&#45;&gt;dir_21e9e6473ae68b51f10683f3306be290 -->
<g id="edge1" class="edge">
<title>dir_a7f5c1eab6a9db649807e802721f3c44&#45;&gt;dir_21e9e6473ae68b51f10683f3306be290</title>
<path fill="none" stroke="black" d="M184.74,-52.1C188.66,-59.88 192.64,-69.26 195.77,-77.95"/>
<polygon fill="black" stroke="black" points="192.53,-79.3 198.99,-87.7 199.18,-77.1 192.53,-79.3"/>
<g id="a_edge1&#45;headlabel"><a xlink:href="dir_000019_000026.html" target="_top" xlink:title="2">
<text text-anchor="middle" x="188.71" y="-74.28" font-family="Helvetica,sans-Serif" font-size="10.00">2</text>
</a>
</g>
</g>
<!-- dir_653c48f60ee8ceb0961c6a3849e63394 -->
<g id="node5" class="node">
<title>dir_653c48f60ee8ceb0961c6a3849e63394</title>
<g id="a_node5"><a xlink:href="dir_653c48f60ee8ceb0961c6a3849e63394.html" target="_top" xlink:title="piecewise_polynomial_trajectory">
<polygon fill="none" stroke="black" points="214,-196 36,-196 36,-160 214,-160 214,-196"/>
<text text-anchor="middle" x="125" y="-175.5" font-family="Helvetica,sans-Serif" font-size="10.00">piecewise_polynomial_trajectory</text>
</a>
</g>
</g>
<!-- dir_653c48f60ee8ceb0961c6a3849e63394&#45;&gt;dir_21e9e6473ae68b51f10683f3306be290 -->
<g id="edge14" class="edge">
<title>dir_653c48f60ee8ceb0961c6a3849e63394&#45;&gt;dir_21e9e6473ae68b51f10683f3306be290</title>
<path fill="none" stroke="black" d="M143.54,-159.7C152.8,-151.05 164.16,-140.45 174.26,-131.03"/>
<polygon fill="black" stroke="black" points="176.75,-133.49 181.67,-124.1 171.98,-128.37 176.75,-133.49"/>
<g id="a_edge14&#45;headlabel"><a xlink:href="dir_000024_000026.html" target="_top" xlink:title="2">
<text text-anchor="middle" x="176.06" y="-135.51" font-family="Helvetica,sans-Serif" font-size="10.00">2</text>
</a>
</g>
</g>
<!-- dir_653c48f60ee8ceb0961c6a3849e63394&#45;&gt;dir_a7f5c1eab6a9db649807e802721f3c44 -->
<g id="edge15" class="edge">
<title>dir_653c48f60ee8ceb0961c6a3849e63394&#45;&gt;dir_a7f5c1eab6a9db649807e802721f3c44</title>
<path fill="none" stroke="black" d="M130.67,-159.87C138.71,-135.56 153.52,-90.82 163.06,-62.01"/>
<polygon fill="black" stroke="black" points="166.49,-62.78 166.31,-52.19 159.85,-60.58 166.49,-62.78"/>
<g id="a_edge15&#45;headlabel"><a xlink:href="dir_000024_000019.html" target="_top" xlink:title="1">
<text text-anchor="middle" x="168.06" y="-64.59" font-family="Helvetica,sans-Serif" font-size="10.00">1</text>
</a>
</g>
</g>
<!-- dir_16b06bd99d94bcbd51e36f39541e14af&#45;&gt;dir_21e9e6473ae68b51f10683f3306be290 -->
<g id="edge7" class="edge">
<title>dir_16b06bd99d94bcbd51e36f39541e14af&#45;&gt;dir_21e9e6473ae68b51f10683f3306be290</title>
<path fill="none" stroke="black" d="M163.69,-303.76C170.91,-293.6 179.91,-280.35 187,-268 197.79,-249.21 196.57,-242.41 208,-224 216.35,-210.55 224.83,-210.96 230,-196 235.23,-180.88 234.08,-175.47 230,-160 227.51,-150.54 222.9,-140.99 218.03,-132.66"/>
<polygon fill="black" stroke="black" points="220.99,-130.79 212.73,-124.15 215.05,-134.49 220.99,-130.79"/>
<g id="a_edge7&#45;headlabel"><a xlink:href="dir_000005_000026.html" target="_top" xlink:title="18">
<text text-anchor="middle" x="225.3" y="-129.84" font-family="Helvetica,sans-Serif" font-size="10.00">18</text>
</a>
</g>
</g>
<!-- dir_16b06bd99d94bcbd51e36f39541e14af&#45;&gt;dir_56c205456dc4fe9727e9169e57f90230 -->
<g id="edge8" class="edge">
<title>dir_16b06bd99d94bcbd51e36f39541e14af&#45;&gt;dir_56c205456dc4fe9727e9169e57f90230</title>
<path fill="none" stroke="black" d="M170.79,-303.7C183.33,-294.63 199.86,-283.4 214.99,-273.65"/>
<polygon fill="black" stroke="black" points="217.14,-276.43 223.69,-268.1 213.38,-270.52 217.14,-276.43"/>
<g id="a_edge8&#45;headlabel"><a xlink:href="dir_000005_000017.html" target="_top" xlink:title="1">
<text text-anchor="middle" x="215.63" y="-278.25" font-family="Helvetica,sans-Serif" font-size="10.00">1</text>
</a>
</g>
</g>
<!-- dir_16b06bd99d94bcbd51e36f39541e14af&#45;&gt;dir_91384f3ca66e108434602bccde0dca6a -->
<g id="edge9" class="edge">
<title>dir_16b06bd99d94bcbd51e36f39541e14af&#45;&gt;dir_91384f3ca66e108434602bccde0dca6a</title>
<path fill="none" stroke="black" d="M178.21,-320.44C213.7,-318.06 274.6,-307.99 303,-268 347.76,-204.98 309.81,-107.57 287.08,-61.23"/>
<polygon fill="black" stroke="black" points="290.12,-59.5 282.49,-52.15 283.87,-62.65 290.12,-59.5"/>
<g id="a_edge9&#45;headlabel"><a xlink:href="dir_000005_000033.html" target="_top" xlink:title="1">
<text text-anchor="middle" x="294.28" y="-58.93" font-family="Helvetica,sans-Serif" font-size="10.00">1</text>
</a>
</g>
</g>
<!-- dir_16b06bd99d94bcbd51e36f39541e14af&#45;&gt;dir_a7f5c1eab6a9db649807e802721f3c44 -->
<g id="edge10" class="edge">
<title>dir_16b06bd99d94bcbd51e36f39541e14af&#45;&gt;dir_a7f5c1eab6a9db649807e802721f3c44</title>
<path fill="none" stroke="black" d="M123.91,-305.93C79.62,-279.17 -0.7,-220.46 27,-160 48.03,-114.1 95.17,-78.65 130.02,-57.42"/>
<polygon fill="black" stroke="black" points="132.22,-60.18 139.04,-52.07 128.65,-54.16 132.22,-60.18"/>
<g id="a_edge10&#45;headlabel"><a xlink:href="dir_000005_000019.html" target="_top" xlink:title="1">
<text text-anchor="middle" x="130.58" y="-61.96" font-family="Helvetica,sans-Serif" font-size="10.00">1</text>
</a>
</g>
</g>
<!-- dir_b0206072910f6abc79eb007ee8e44bd4 -->
<g id="node7" class="node">
<title>dir_b0206072910f6abc79eb007ee8e44bd4</title>
<g id="a_node7"><a xlink:href="dir_b0206072910f6abc79eb007ee8e44bd4.html" target="_top" xlink:title="platforms">
<polygon fill="white" stroke="red" points="178,-268 114,-268 114,-232 178,-232 178,-268"/>
<text text-anchor="middle" x="146" y="-247.5" font-family="Helvetica,sans-Serif" font-size="10.00">platforms</text>
</a>
</g>
</g>
<!-- dir_16b06bd99d94bcbd51e36f39541e14af&#45;&gt;dir_b0206072910f6abc79eb007ee8e44bd4 -->
<g id="edge11" class="edge">
<title>dir_16b06bd99d94bcbd51e36f39541e14af&#45;&gt;dir_b0206072910f6abc79eb007ee8e44bd4</title>
<path fill="none" stroke="black" d="M149.76,-303.7C149.21,-295.98 148.55,-286.71 147.94,-278.11"/>
<polygon fill="black" stroke="black" points="151.43,-277.83 147.22,-268.1 144.44,-278.33 151.43,-277.83"/>
<g id="a_edge11&#45;headlabel"><a xlink:href="dir_000005_000006.html" target="_top" xlink:title="5">
<text text-anchor="middle" x="154.51" y="-278.71" font-family="Helvetica,sans-Serif" font-size="10.00">5</text>
</a>
</g>
</g>
<!-- dir_b0206072910f6abc79eb007ee8e44bd4&#45;&gt;dir_21e9e6473ae68b51f10683f3306be290 -->
<g id="edge12" class="edge">
<title>dir_b0206072910f6abc79eb007ee8e44bd4&#45;&gt;dir_21e9e6473ae68b51f10683f3306be290</title>
<path fill="none" stroke="black" d="M170.77,-231.76C174.53,-229.16 178.37,-226.5 182,-224 200.17,-211.48 212.7,-215.51 223,-196 233.41,-176.29 225.61,-151.6 216.38,-133.23"/>
<polygon fill="black" stroke="black" points="219.36,-131.37 211.51,-124.25 213.21,-134.71 219.36,-131.37"/>
<g id="a_edge12&#45;headlabel"><a xlink:href="dir_000006_000026.html" target="_top" xlink:title="16">
<text text-anchor="middle" x="223.57" y="-130.68" font-family="Helvetica,sans-Serif" font-size="10.00">16</text>
</a>
</g>
</g>
<!-- dir_b0206072910f6abc79eb007ee8e44bd4&#45;&gt;dir_653c48f60ee8ceb0961c6a3849e63394 -->
<g id="edge13" class="edge">
<title>dir_b0206072910f6abc79eb007ee8e44bd4&#45;&gt;dir_653c48f60ee8ceb0961c6a3849e63394</title>
<path fill="none" stroke="black" d="M140.81,-231.7C138.47,-223.9 135.65,-214.51 133.05,-205.83"/>
<polygon fill="black" stroke="black" points="136.36,-204.68 130.13,-196.1 129.65,-206.69 136.36,-204.68"/>
<g id="a_edge13&#45;headlabel"><a xlink:href="dir_000006_000024.html" target="_top" xlink:title="5">
<text text-anchor="middle" x="140.11" y="-204.8" font-family="Helvetica,sans-Serif" font-size="10.00">5</text>
</a>
</g>
</g>
</g>
</svg>
