<?xml version="1.0" encoding="UTF-8" standalone="no"?>
<!DOCTYPE svg PUBLIC "-//W3C//DTD SVG 1.1//EN"
 "http://www.w3.org/Graphics/SVG/1.1/DTD/svg11.dtd">
<!-- Generated by graphviz version 2.43.0 (0)
 -->
<!-- Title: ACSL&#45;flightstack&#45;winged/src/acsl_flight/src Pages: 1 -->
<svg width="986pt" height="175pt"
 viewBox="0.00 0.00 986.00 175.00" xmlns="http://www.w3.org/2000/svg" xmlns:xlink="http://www.w3.org/1999/xlink">
<g id="graph0" class="graph" transform="scale(1 1) rotate(0) translate(4 171)">
<title>ACSL&#45;flightstack&#45;winged/src/acsl_flight/src</title>
<polygon fill="white" stroke="transparent" points="-4,4 -4,-171 982,-171 982,4 -4,4"/>
<g id="clust1" class="cluster">
<title>clusterdir_a964ec745bb3c23b753cfa036932779d</title>
<g id="a_clust1"><a xlink:href="dir_a964ec745bb3c23b753cfa036932779d.html" target="_top" xlink:title="acsl_flight">
<polygon fill="#ddddee" stroke="black" points="8,-8 8,-159 970,-159 970,-8 8,-8"/>
<text text-anchor="middle" x="489" y="-147" font-family="Helvetica,sans-Serif" font-size="10.00">acsl_flight</text>
</a>
</g>
</g>
<g id="clust2" class="cluster">
<title>clusterdir_df441872dcf22906b3455ec7d1a1fa58</title>
<g id="a_clust2"><a xlink:href="dir_df441872dcf22906b3455ec7d1a1fa58.html" target="_top">
<polygon fill="#eeeeff" stroke="black" points="16,-80 16,-132 962,-132 962,-80 16,-80"/>
</a>
</g>
</g>
<!-- dir_b59d6e0e1db631c1aaa97e9d05ec23c1 -->
<g id="node1" class="node">
<title>dir_b59d6e0e1db631c1aaa97e9d05ec23c1</title>
<g id="a_node1"><a xlink:href="dir_b59d6e0e1db631c1aaa97e9d05ec23c1.html" target="_top" xlink:title="include">
<polygon fill="white" stroke="red" points="524,-52 470,-52 470,-16 524,-16 524,-52"/>
<text text-anchor="middle" x="497" y="-31.5" font-family="Helvetica,sans-Serif" font-size="10.00">include</text>
</a>
</g>
</g>
<!-- dir_df441872dcf22906b3455ec7d1a1fa58 -->
<g id="node2" class="node">
<title>dir_df441872dcf22906b3455ec7d1a1fa58</title>
<text text-anchor="middle" x="927" y="-103.5" font-family="Helvetica,sans-Serif" font-size="10.00">src</text>
</g>
<!-- dir_c35f0be978a7def7b6f8d2fa38bb17e0 -->
<g id="node3" class="node">
<title>dir_c35f0be978a7def7b6f8d2fa38bb17e0</title>
<g id="a_node3"><a xlink:href="dir_c35f0be978a7def7b6f8d2fa38bb17e0.html" target="_top" xlink:title="control">
<polygon fill="white" stroke="red" points="882,-124 828,-124 828,-88 882,-88 882,-124"/>
<text text-anchor="middle" x="855" y="-103.5" font-family="Helvetica,sans-Serif" font-size="10.00">control</text>
</a>
</g>
</g>
<!-- dir_c35f0be978a7def7b6f8d2fa38bb17e0&#45;&gt;dir_b59d6e0e1db631c1aaa97e9d05ec23c1 -->
<g id="edge4" class="edge">
<title>dir_c35f0be978a7def7b6f8d2fa38bb17e0&#45;&gt;dir_b59d6e0e1db631c1aaa97e9d05ec23c1</title>
<path fill="none" stroke="black" d="M833.85,-87.91C829.18,-84.85 824.1,-82 819,-80 721.36,-41.8 595.88,-35.34 534.37,-34.68"/>
<polygon fill="black" stroke="black" points="534.38,-31.18 524.36,-34.61 534.34,-38.18 534.38,-31.18"/>
<g id="a_edge4&#45;headlabel"><a xlink:href="dir_000036_000004.html" target="_top" xlink:title="11">
<text text-anchor="middle" x="537.99" y="-25.86" font-family="Helvetica,sans-Serif" font-size="10.00">11</text>
</a>
</g>
</g>
<!-- dir_ea8759e898ce27d72a676d4382b485be -->
<g id="node4" class="node">
<title>dir_ea8759e898ce27d72a676d4382b485be</title>
<g id="a_node4"><a xlink:href="dir_ea8759e898ce27d72a676d4382b485be.html" target="_top" xlink:title="flight_bridge">
<polygon fill="white" stroke="black" points="809.5,-124 732.5,-124 732.5,-88 809.5,-88 809.5,-124"/>
<text text-anchor="middle" x="771" y="-103.5" font-family="Helvetica,sans-Serif" font-size="10.00">flight_bridge</text>
</a>
</g>
</g>
<!-- dir_ea8759e898ce27d72a676d4382b485be&#45;&gt;dir_b59d6e0e1db631c1aaa97e9d05ec23c1 -->
<g id="edge1" class="edge">
<title>dir_ea8759e898ce27d72a676d4382b485be&#45;&gt;dir_b59d6e0e1db631c1aaa97e9d05ec23c1</title>
<path fill="none" stroke="black" d="M742.02,-87.9C736.19,-84.94 730.01,-82.14 724,-80 659.4,-56.98 580.02,-44.65 534.29,-38.99"/>
<polygon fill="black" stroke="black" points="534.59,-35.5 524.24,-37.79 533.76,-42.45 534.59,-35.5"/>
<g id="a_edge1&#45;headlabel"><a xlink:href="dir_000047_000004.html" target="_top" xlink:title="1">
<text text-anchor="middle" x="538.49" y="-30.61" font-family="Helvetica,sans-Serif" font-size="10.00">1</text>
</a>
</g>
</g>
<!-- dir_9387b8e0bb00cad81eea7775790314b1 -->
<g id="node5" class="node">
<title>dir_9387b8e0bb00cad81eea7775790314b1</title>
<g id="a_node5"><a xlink:href="dir_9387b8e0bb00cad81eea7775790314b1.html" target="_top" xlink:title="flight_main">
<polygon fill="white" stroke="black" points="714.5,-124 643.5,-124 643.5,-88 714.5,-88 714.5,-124"/>
<text text-anchor="middle" x="679" y="-103.5" font-family="Helvetica,sans-Serif" font-size="10.00">flight_main</text>
</a>
</g>
</g>
<!-- dir_9387b8e0bb00cad81eea7775790314b1&#45;&gt;dir_b59d6e0e1db631c1aaa97e9d05ec23c1 -->
<g id="edge6" class="edge">
<title>dir_9387b8e0bb00cad81eea7775790314b1&#45;&gt;dir_b59d6e0e1db631c1aaa97e9d05ec23c1</title>
<path fill="none" stroke="black" d="M650.55,-87.74C645.47,-84.97 640.14,-82.27 635,-80 601.74,-65.31 562.14,-52.88 533.9,-44.84"/>
<polygon fill="black" stroke="black" points="534.62,-41.4 524.05,-42.07 532.73,-48.14 534.62,-41.4"/>
<g id="a_edge6&#45;headlabel"><a xlink:href="dir_000048_000004.html" target="_top" xlink:title="2">
<text text-anchor="middle" x="538.85" y="-37.14" font-family="Helvetica,sans-Serif" font-size="10.00">2</text>
</a>
</g>
</g>
<!-- dir_c84b757bf7f246f3c21ac285b90f45ac -->
<g id="node6" class="node">
<title>dir_c84b757bf7f246f3c21ac285b90f45ac</title>
<g id="a_node6"><a xlink:href="dir_c84b757bf7f246f3c21ac285b90f45ac.html" target="_top" xlink:title="flight_params">
<polygon fill="white" stroke="black" points="625.5,-124 542.5,-124 542.5,-88 625.5,-88 625.5,-124"/>
<text text-anchor="middle" x="584" y="-103.5" font-family="Helvetica,sans-Serif" font-size="10.00">flight_params</text>
</a>
</g>
</g>
<!-- dir_c84b757bf7f246f3c21ac285b90f45ac&#45;&gt;dir_b59d6e0e1db631c1aaa97e9d05ec23c1 -->
<g id="edge7" class="edge">
<title>dir_c84b757bf7f246f3c21ac285b90f45ac&#45;&gt;dir_b59d6e0e1db631c1aaa97e9d05ec23c1</title>
<path fill="none" stroke="black" d="M562.49,-87.7C551.54,-78.88 538.05,-68.03 526.18,-58.47"/>
<polygon fill="black" stroke="black" points="528.24,-55.65 518.26,-52.1 523.86,-61.1 528.24,-55.65"/>
<g id="a_edge7&#45;headlabel"><a xlink:href="dir_000049_000004.html" target="_top" xlink:title="1">
<text text-anchor="middle" x="532.82" y="-53.19" font-family="Helvetica,sans-Serif" font-size="10.00">1</text>
</a>
</g>
</g>
<!-- dir_d8e5604113ab6a5e93375b96059e62c5 -->
<g id="node7" class="node">
<title>dir_d8e5604113ab6a5e93375b96059e62c5</title>
<g id="a_node7"><a xlink:href="dir_d8e5604113ab6a5e93375b96059e62c5.html" target="_top" xlink:title="mocap">
<polygon fill="white" stroke="red" points="524,-124 470,-124 470,-88 524,-88 524,-124"/>
<text text-anchor="middle" x="497" y="-103.5" font-family="Helvetica,sans-Serif" font-size="10.00">mocap</text>
</a>
</g>
</g>
<!-- dir_d8e5604113ab6a5e93375b96059e62c5&#45;&gt;dir_b59d6e0e1db631c1aaa97e9d05ec23c1 -->
<g id="edge3" class="edge">
<title>dir_d8e5604113ab6a5e93375b96059e62c5&#45;&gt;dir_b59d6e0e1db631c1aaa97e9d05ec23c1</title>
<path fill="none" stroke="black" d="M497,-87.7C497,-79.98 497,-70.71 497,-62.11"/>
<polygon fill="black" stroke="black" points="500.5,-62.1 497,-52.1 493.5,-62.1 500.5,-62.1"/>
<g id="a_edge3&#45;headlabel"><a xlink:href="dir_000050_000004.html" target="_top" xlink:title="4">
<text text-anchor="middle" x="503.34" y="-63.2" font-family="Helvetica,sans-Serif" font-size="10.00">4</text>
</a>
</g>
</g>
<!-- dir_60149df5a82d4873a10040276e111088 -->
<g id="node8" class="node">
<title>dir_60149df5a82d4873a10040276e111088</title>
<g id="a_node8"><a xlink:href="dir_60149df5a82d4873a10040276e111088.html" target="_top" xlink:title="piecewise_polynomial_trajectory">
<polygon fill="white" stroke="black" points="452,-124 274,-124 274,-88 452,-88 452,-124"/>
<text text-anchor="middle" x="363" y="-103.5" font-family="Helvetica,sans-Serif" font-size="10.00">piecewise_polynomial_trajectory</text>
</a>
</g>
</g>
<!-- dir_60149df5a82d4873a10040276e111088&#45;&gt;dir_b59d6e0e1db631c1aaa97e9d05ec23c1 -->
<g id="edge8" class="edge">
<title>dir_60149df5a82d4873a10040276e111088&#45;&gt;dir_b59d6e0e1db631c1aaa97e9d05ec23c1</title>
<path fill="none" stroke="black" d="M395.78,-87.88C415.53,-77.56 440.71,-64.4 461.02,-53.8"/>
<polygon fill="black" stroke="black" points="462.72,-56.86 469.96,-49.12 459.48,-50.65 462.72,-56.86"/>
<g id="a_edge8&#45;headlabel"><a xlink:href="dir_000054_000004.html" target="_top" xlink:title="1">
<text text-anchor="middle" x="460.85" y="-58.54" font-family="Helvetica,sans-Serif" font-size="10.00">1</text>
</a>
</g>
</g>
<!-- dir_7cda0d5bcbb2aa58d40441f5e165d3f8 -->
<g id="node9" class="node">
<title>dir_7cda0d5bcbb2aa58d40441f5e165d3f8</title>
<g id="a_node9"><a xlink:href="dir_7cda0d5bcbb2aa58d40441f5e165d3f8.html" target="_top" xlink:title="read_pix">
<polygon fill="white" stroke="black" points="255.5,-124 196.5,-124 196.5,-88 255.5,-88 255.5,-124"/>
<text text-anchor="middle" x="226" y="-103.5" font-family="Helvetica,sans-Serif" font-size="10.00">read_pix</text>
</a>
</g>
</g>
<!-- dir_7cda0d5bcbb2aa58d40441f5e165d3f8&#45;&gt;dir_b59d6e0e1db631c1aaa97e9d05ec23c1 -->
<g id="edge9" class="edge">
<title>dir_7cda0d5bcbb2aa58d40441f5e165d3f8&#45;&gt;dir_b59d6e0e1db631c1aaa97e9d05ec23c1</title>
<path fill="none" stroke="black" d="M249.57,-87.9C254.49,-84.91 259.77,-82.09 265,-80 330.69,-53.7 413.16,-42.41 459.99,-37.85"/>
<polygon fill="black" stroke="black" points="460.35,-41.33 469.98,-36.92 459.7,-34.36 460.35,-41.33"/>
<g id="a_edge9&#45;headlabel"><a xlink:href="dir_000055_000004.html" target="_top" xlink:title="1">
<text text-anchor="middle" x="457.03" y="-41.99" font-family="Helvetica,sans-Serif" font-size="10.00">1</text>
</a>
</g>
</g>
<!-- dir_8c3581c5d4f66c00247556d6ba8a38ac -->
<g id="node10" class="node">
<title>dir_8c3581c5d4f66c00247556d6ba8a38ac</title>
<g id="a_node10"><a xlink:href="dir_8c3581c5d4f66c00247556d6ba8a38ac.html" target="_top" xlink:title="vehicle_class">
<polygon fill="white" stroke="black" points="178,-124 96,-124 96,-88 178,-88 178,-124"/>
<text text-anchor="middle" x="137" y="-103.5" font-family="Helvetica,sans-Serif" font-size="10.00">vehicle_class</text>
</a>
</g>
</g>
<!-- dir_8c3581c5d4f66c00247556d6ba8a38ac&#45;&gt;dir_b59d6e0e1db631c1aaa97e9d05ec23c1 -->
<g id="edge2" class="edge">
<title>dir_8c3581c5d4f66c00247556d6ba8a38ac&#45;&gt;dir_b59d6e0e1db631c1aaa97e9d05ec23c1</title>
<path fill="none" stroke="black" d="M167.93,-87.95C174.41,-84.92 181.31,-82.07 188,-80 283.07,-50.57 400.68,-40.21 459.62,-36.7"/>
<polygon fill="black" stroke="black" points="460.14,-40.18 469.93,-36.12 459.75,-33.19 460.14,-40.18"/>
<g id="a_edge2&#45;headlabel"><a xlink:href="dir_000056_000004.html" target="_top" xlink:title="1">
<text text-anchor="middle" x="456.71" y="-40.71" font-family="Helvetica,sans-Serif" font-size="10.00">1</text>
</a>
</g>
</g>
<!-- dir_288e450780537465a894c6ed8def28b5 -->
<g id="node11" class="node">
<title>dir_288e450780537465a894c6ed8def28b5</title>
<g id="a_node11"><a xlink:href="dir_288e450780537465a894c6ed8def28b5.html" target="_top" xlink:title="vio">
<polygon fill="white" stroke="black" points="78,-124 24,-124 24,-88 78,-88 78,-124"/>
<text text-anchor="middle" x="51" y="-103.5" font-family="Helvetica,sans-Serif" font-size="10.00">vio</text>
</a>
</g>
</g>
<!-- dir_288e450780537465a894c6ed8def28b5&#45;&gt;dir_b59d6e0e1db631c1aaa97e9d05ec23c1 -->
<g id="edge5" class="edge">
<title>dir_288e450780537465a894c6ed8def28b5&#45;&gt;dir_b59d6e0e1db631c1aaa97e9d05ec23c1</title>
<path fill="none" stroke="black" d="M72.11,-87.8C76.78,-84.74 81.87,-81.92 87,-80 154.91,-54.58 371.96,-41.22 459.68,-36.74"/>
<polygon fill="black" stroke="black" points="459.91,-40.24 469.72,-36.24 459.56,-33.25 459.91,-40.24"/>
<g id="a_edge5&#45;headlabel"><a xlink:href="dir_000057_000004.html" target="_top" xlink:title="1">
<text text-anchor="middle" x="456.46" y="-40.75" font-family="Helvetica,sans-Serif" font-size="10.00">1</text>
</a>
</g>
</g>
</g>
</svg>
