<?xml version="1.0" encoding="UTF-8" standalone="no"?>
<!DOCTYPE svg PUBLIC "-//W3C//DTD SVG 1.1//EN"
 "http://www.w3.org/Graphics/SVG/1.1/DTD/svg11.dtd">
<!-- Generated by graphviz version 2.43.0 (0)
 -->
<!-- Title: ACSL&#45;flightstack&#45;winged/src/acsl_flight/include/piecewise_polynomial_trajectory Pages: 1 -->
<svg width="218pt" height="239pt"
 viewBox="0.00 0.00 218.00 239.00" xmlns="http://www.w3.org/2000/svg" xmlns:xlink="http://www.w3.org/1999/xlink">
<g id="graph0" class="graph" transform="scale(1 1) rotate(0) translate(4 235)">
<title>ACSL&#45;flightstack&#45;winged/src/acsl_flight/include/piecewise_polynomial_trajectory</title>
<polygon fill="white" stroke="transparent" points="-4,4 -4,-235 214,-235 214,4 -4,4"/>
<g id="clust1" class="cluster">
<title>clusterdir_b59d6e0e1db631c1aaa97e9d05ec23c1</title>
<g id="a_clust1"><a xlink:href="dir_b59d6e0e1db631c1aaa97e9d05ec23c1.html" target="_top" xlink:title="include">
<polygon fill="#ddddee" stroke="black" points="8,-8 8,-223 202,-223 202,-8 8,-8"/>
<text text-anchor="middle" x="105" y="-211" font-family="Helvetica,sans-Serif" font-size="10.00">include</text>
</a>
</g>
</g>
<!-- dir_21e9e6473ae68b51f10683f3306be290 -->
<g id="node1" class="node">
<title>dir_21e9e6473ae68b51f10683f3306be290</title>
<g id="a_node1"><a xlink:href="dir_21e9e6473ae68b51f10683f3306be290.html" target="_top" xlink:title="utils">
<polygon fill="white" stroke="red" points="109,-124 55,-124 55,-88 109,-88 109,-124"/>
<text text-anchor="middle" x="82" y="-103.5" font-family="Helvetica,sans-Serif" font-size="10.00">utils</text>
</a>
</g>
</g>
<!-- dir_a7f5c1eab6a9db649807e802721f3c44 -->
<g id="node2" class="node">
<title>dir_a7f5c1eab6a9db649807e802721f3c44</title>
<g id="a_node2"><a xlink:href="dir_a7f5c1eab6a9db649807e802721f3c44.html" target="_top" xlink:title="flight_params">
<polygon fill="none" stroke="black" points="123.5,-52 40.5,-52 40.5,-16 123.5,-16 123.5,-52"/>
<text text-anchor="middle" x="82" y="-31.5" font-family="Helvetica,sans-Serif" font-size="10.00">flight_params</text>
</a>
</g>
</g>
<!-- dir_21e9e6473ae68b51f10683f3306be290&#45;&gt;dir_a7f5c1eab6a9db649807e802721f3c44 -->
<g id="edge2" class="edge">
<title>dir_21e9e6473ae68b51f10683f3306be290&#45;&gt;dir_a7f5c1eab6a9db649807e802721f3c44</title>
<path fill="none" stroke="black" d="M76.08,-87.7C75.29,-79.98 75.06,-70.71 75.4,-62.11"/>
<polygon fill="black" stroke="black" points="78.9,-62.32 76.1,-52.1 71.92,-61.84 78.9,-62.32"/>
<g id="a_edge2&#45;headlabel"><a xlink:href="dir_000026_000019.html" target="_top" xlink:title="1">
<text text-anchor="middle" x="81.48" y="-63.61" font-family="Helvetica,sans-Serif" font-size="10.00">1</text>
</a>
</g>
</g>
<!-- dir_a7f5c1eab6a9db649807e802721f3c44&#45;&gt;dir_21e9e6473ae68b51f10683f3306be290 -->
<g id="edge1" class="edge">
<title>dir_a7f5c1eab6a9db649807e802721f3c44&#45;&gt;dir_21e9e6473ae68b51f10683f3306be290</title>
<path fill="none" stroke="black" d="M87.9,-52.1C88.7,-59.79 88.94,-69.05 88.6,-77.67"/>
<polygon fill="black" stroke="black" points="85.11,-77.48 87.92,-87.7 92.09,-77.96 85.11,-77.48"/>
<g id="a_edge1&#45;headlabel"><a xlink:href="dir_000019_000026.html" target="_top" xlink:title="2">
<text text-anchor="middle" x="82.52" y="-71.2" font-family="Helvetica,sans-Serif" font-size="10.00">2</text>
</a>
</g>
</g>
<!-- dir_653c48f60ee8ceb0961c6a3849e63394 -->
<g id="node3" class="node">
<title>dir_653c48f60ee8ceb0961c6a3849e63394</title>
<g id="a_node3"><a xlink:href="dir_653c48f60ee8ceb0961c6a3849e63394.html" target="_top" xlink:title="piecewise_polynomial_trajectory">
<polygon fill="#eeeeff" stroke="black" points="194,-196 16,-196 16,-160 194,-160 194,-196"/>
<text text-anchor="middle" x="105" y="-175.5" font-family="Helvetica,sans-Serif" font-size="10.00">piecewise_polynomial_trajectory</text>
</a>
</g>
</g>
<!-- dir_653c48f60ee8ceb0961c6a3849e63394&#45;&gt;dir_21e9e6473ae68b51f10683f3306be290 -->
<g id="edge3" class="edge">
<title>dir_653c48f60ee8ceb0961c6a3849e63394&#45;&gt;dir_21e9e6473ae68b51f10683f3306be290</title>
<path fill="none" stroke="black" d="M99.31,-159.7C96.75,-151.9 93.67,-142.51 90.82,-133.83"/>
<polygon fill="black" stroke="black" points="94.07,-132.51 87.62,-124.1 87.42,-134.7 94.07,-132.51"/>
<g id="a_edge3&#45;headlabel"><a xlink:href="dir_000024_000026.html" target="_top" xlink:title="2">
<text text-anchor="middle" x="97.89" y="-132.54" font-family="Helvetica,sans-Serif" font-size="10.00">2</text>
</a>
</g>
</g>
<!-- dir_653c48f60ee8ceb0961c6a3849e63394&#45;&gt;dir_a7f5c1eab6a9db649807e802721f3c44 -->
<g id="edge4" class="edge">
<title>dir_653c48f60ee8ceb0961c6a3849e63394&#45;&gt;dir_a7f5c1eab6a9db649807e802721f3c44</title>
<path fill="none" stroke="black" d="M111.86,-159.93C118.17,-141.76 125.48,-112.33 118,-88 114.99,-78.22 109.49,-68.62 103.68,-60.33"/>
<polygon fill="black" stroke="black" points="106.41,-58.13 97.61,-52.23 100.81,-62.33 106.41,-58.13"/>
<g id="a_edge4&#45;headlabel"><a xlink:href="dir_000024_000019.html" target="_top" xlink:title="1">
<text text-anchor="middle" x="110.83" y="-56.8" font-family="Helvetica,sans-Serif" font-size="10.00">1</text>
</a>
</g>
</g>
</g>
</svg>
