<?xml version="1.0" encoding="UTF-8" standalone="no"?>
<!DOCTYPE svg PUBLIC "-//W3C//DTD SVG 1.1//EN"
 "http://www.w3.org/Graphics/SVG/1.1/DTD/svg11.dtd">
<!-- Generated by graphviz version 2.43.0 (0)
 -->
<!-- Title: ACSL&#45;flightstack&#45;winged/src/acsl_flight/include/control/platforms/qrbp Pages: 1 -->
<svg width="414pt" height="231pt"
 viewBox="0.00 0.00 414.00 231.00" xmlns="http://www.w3.org/2000/svg" xmlns:xlink="http://www.w3.org/1999/xlink">
<g id="graph0" class="graph" transform="scale(1 1) rotate(0) translate(4 227)">
<title>ACSL&#45;flightstack&#45;winged/src/acsl_flight/include/control/platforms/qrbp</title>
<polygon fill="white" stroke="transparent" points="-4,4 -4,-227 410,-227 410,4 -4,4"/>
<g id="clust1" class="cluster">
<title>clusterdir_b0206072910f6abc79eb007ee8e44bd4</title>
<g id="a_clust1"><a xlink:href="dir_b0206072910f6abc79eb007ee8e44bd4.html" target="_top" xlink:title="platforms">
<polygon fill="#ddddee" stroke="black" points="8,-56 8,-215 220,-215 220,-56 8,-56"/>
<text text-anchor="middle" x="114" y="-203" font-family="Helvetica,sans-Serif" font-size="10.00">platforms</text>
</a>
</g>
</g>
<g id="clust2" class="cluster">
<title>clusterdir_ae85358b1933238a0a6154cc32e219b9</title>
<g id="a_clust2"><a xlink:href="dir_ae85358b1933238a0a6154cc32e219b9.html" target="_top">
<polygon fill="#eeeeff" stroke="black" points="16,-64 16,-188 212,-188 212,-64 16,-64"/>
</a>
</g>
</g>
<!-- dir_ae85358b1933238a0a6154cc32e219b9 -->
<g id="node1" class="node">
<title>dir_ae85358b1933238a0a6154cc32e219b9</title>
<text text-anchor="middle" x="177" y="-159.5" font-family="Helvetica,sans-Serif" font-size="10.00">qrbp</text>
</g>
<!-- dir_e23ed2e74c04421aa8489eea3be87a5e -->
<g id="node2" class="node">
<title>dir_e23ed2e74c04421aa8489eea3be87a5e</title>
<g id="a_node2"><a xlink:href="dir_e23ed2e74c04421aa8489eea3be87a5e.html" target="_top" xlink:title="aerodynamics">
<polygon fill="white" stroke="black" points="121,-108 35,-108 35,-72 121,-72 121,-108"/>
<text text-anchor="middle" x="78" y="-87.5" font-family="Helvetica,sans-Serif" font-size="10.00">aerodynamics</text>
</a>
</g>
</g>
<!-- dir_82022d225b2379d26d7525e63dec03f3 -->
<g id="node3" class="node">
<title>dir_82022d225b2379d26d7525e63dec03f3</title>
<g id="a_node3"><a xlink:href="dir_82022d225b2379d26d7525e63dec03f3.html" target="_top" xlink:title="control_algorithms">
<polygon fill="white" stroke="red" points="132,-180 24,-180 24,-144 132,-144 132,-180"/>
<text text-anchor="middle" x="78" y="-159.5" font-family="Helvetica,sans-Serif" font-size="10.00">control_algorithms</text>
</a>
</g>
</g>
<!-- dir_82022d225b2379d26d7525e63dec03f3&#45;&gt;dir_e23ed2e74c04421aa8489eea3be87a5e -->
<g id="edge3" class="edge">
<title>dir_82022d225b2379d26d7525e63dec03f3&#45;&gt;dir_e23ed2e74c04421aa8489eea3be87a5e</title>
<path fill="none" stroke="black" d="M78,-143.7C78,-135.98 78,-126.71 78,-118.11"/>
<polygon fill="black" stroke="black" points="81.5,-118.1 78,-108.1 74.5,-118.1 81.5,-118.1"/>
<g id="a_edge3&#45;headlabel"><a xlink:href="dir_000009_000008.html" target="_top" xlink:title="4">
<text text-anchor="middle" x="84.34" y="-119.2" font-family="Helvetica,sans-Serif" font-size="10.00">4</text>
</a>
</g>
</g>
<!-- dir_21e9e6473ae68b51f10683f3306be290 -->
<g id="node4" class="node">
<title>dir_21e9e6473ae68b51f10683f3306be290</title>
<g id="a_node4"><a xlink:href="dir_21e9e6473ae68b51f10683f3306be290.html" target="_top" xlink:title="utils">
<polygon fill="white" stroke="red" points="272,-36 218,-36 218,0 272,0 272,-36"/>
<text text-anchor="middle" x="245" y="-15.5" font-family="Helvetica,sans-Serif" font-size="10.00">utils</text>
</a>
</g>
</g>
<!-- dir_82022d225b2379d26d7525e63dec03f3&#45;&gt;dir_21e9e6473ae68b51f10683f3306be290 -->
<g id="edge1" class="edge">
<title>dir_82022d225b2379d26d7525e63dec03f3&#45;&gt;dir_21e9e6473ae68b51f10683f3306be290</title>
<path fill="none" stroke="black" d="M98.14,-143.87C127.86,-118.6 183.55,-71.25 217.15,-42.68"/>
<polygon fill="black" stroke="black" points="219.43,-45.33 224.78,-36.19 214.9,-40 219.43,-45.33"/>
<g id="a_edge1&#45;headlabel"><a xlink:href="dir_000009_000026.html" target="_top" xlink:title="12">
<text text-anchor="middle" x="218.53" y="-47.33" font-family="Helvetica,sans-Serif" font-size="10.00">12</text>
</a>
</g>
</g>
<!-- dir_653c48f60ee8ceb0961c6a3849e63394 -->
<g id="node5" class="node">
<title>dir_653c48f60ee8ceb0961c6a3849e63394</title>
<g id="a_node5"><a xlink:href="dir_653c48f60ee8ceb0961c6a3849e63394.html" target="_top" xlink:title="piecewise_polynomial_trajectory">
<polygon fill="none" stroke="black" points="406,-108 228,-108 228,-72 406,-72 406,-108"/>
<text text-anchor="middle" x="317" y="-87.5" font-family="Helvetica,sans-Serif" font-size="10.00">piecewise_polynomial_trajectory</text>
</a>
</g>
</g>
<!-- dir_82022d225b2379d26d7525e63dec03f3&#45;&gt;dir_653c48f60ee8ceb0961c6a3849e63394 -->
<g id="edge2" class="edge">
<title>dir_82022d225b2379d26d7525e63dec03f3&#45;&gt;dir_653c48f60ee8ceb0961c6a3849e63394</title>
<path fill="none" stroke="black" d="M132.23,-145.12C166.87,-134.97 212.07,-121.73 249.09,-110.89"/>
<polygon fill="black" stroke="black" points="250.19,-114.21 258.81,-108.04 248.23,-107.5 250.19,-114.21"/>
<g id="a_edge2&#45;headlabel"><a xlink:href="dir_000009_000024.html" target="_top" xlink:title="4">
<text text-anchor="middle" x="247.54" y="-115.45" font-family="Helvetica,sans-Serif" font-size="10.00">4</text>
</a>
</g>
</g>
<!-- dir_653c48f60ee8ceb0961c6a3849e63394&#45;&gt;dir_21e9e6473ae68b51f10683f3306be290 -->
<g id="edge4" class="edge">
<title>dir_653c48f60ee8ceb0961c6a3849e63394&#45;&gt;dir_21e9e6473ae68b51f10683f3306be290</title>
<path fill="none" stroke="black" d="M299.2,-71.7C290.4,-63.14 279.62,-52.66 270,-43.3"/>
<polygon fill="black" stroke="black" points="272.2,-40.57 262.59,-36.1 267.32,-45.58 272.2,-40.57"/>
<g id="a_edge4&#45;headlabel"><a xlink:href="dir_000024_000026.html" target="_top" xlink:title="2">
<text text-anchor="middle" x="276.76" y="-38.54" font-family="Helvetica,sans-Serif" font-size="10.00">2</text>
</a>
</g>
</g>
</g>
</svg>
