<?xml version="1.0" encoding="UTF-8" standalone="no"?>
<!DOCTYPE svg PUBLIC "-//W3C//DTD SVG 1.1//EN"
 "http://www.w3.org/Graphics/SVG/1.1/DTD/svg11.dtd">
<!-- Generated by graphviz version 2.43.0 (0)
 -->
<!-- Title: ACSL&#45;flightstack&#45;winged/src/acsl_flight/include/control/platforms/rostestdrone Pages: 1 -->
<svg width="260pt" height="231pt"
 viewBox="0.00 0.00 260.00 231.00" xmlns="http://www.w3.org/2000/svg" xmlns:xlink="http://www.w3.org/1999/xlink">
<g id="graph0" class="graph" transform="scale(1 1) rotate(0) translate(4 227)">
<title>ACSL&#45;flightstack&#45;winged/src/acsl_flight/include/control/platforms/rostestdrone</title>
<polygon fill="white" stroke="transparent" points="-4,4 -4,-227 256,-227 256,4 -4,4"/>
<g id="clust1" class="cluster">
<title>clusterdir_b0206072910f6abc79eb007ee8e44bd4</title>
<g id="a_clust1"><a xlink:href="dir_b0206072910f6abc79eb007ee8e44bd4.html" target="_top" xlink:title="platforms">
<polygon fill="#ddddee" stroke="black" points="8,-128 8,-215 244,-215 244,-128 8,-128"/>
<text text-anchor="middle" x="126" y="-203" font-family="Helvetica,sans-Serif" font-size="10.00">platforms</text>
</a>
</g>
</g>
<g id="clust2" class="cluster">
<title>clusterdir_6a5e7e919b399ca3ff89df37396df085</title>
<g id="a_clust2"><a xlink:href="dir_6a5e7e919b399ca3ff89df37396df085.html" target="_top">
<polygon fill="#eeeeff" stroke="black" points="16,-136 16,-188 236,-188 236,-136 16,-136"/>
</a>
</g>
</g>
<!-- dir_6a5e7e919b399ca3ff89df37396df085 -->
<g id="node1" class="node">
<title>dir_6a5e7e919b399ca3ff89df37396df085</title>
<text text-anchor="middle" x="189" y="-159.5" font-family="Helvetica,sans-Serif" font-size="10.00">rostestdrone</text>
</g>
<!-- dir_a7a24523204c83181a5a9d1f36dd7aa0 -->
<g id="node2" class="node">
<title>dir_a7a24523204c83181a5a9d1f36dd7aa0</title>
<g id="a_node2"><a xlink:href="dir_a7a24523204c83181a5a9d1f36dd7aa0.html" target="_top" xlink:title="control_algorithms">
<polygon fill="white" stroke="red" points="132,-180 24,-180 24,-144 132,-144 132,-180"/>
<text text-anchor="middle" x="78" y="-159.5" font-family="Helvetica,sans-Serif" font-size="10.00">control_algorithms</text>
</a>
</g>
</g>
<!-- dir_21e9e6473ae68b51f10683f3306be290 -->
<g id="node3" class="node">
<title>dir_21e9e6473ae68b51f10683f3306be290</title>
<g id="a_node3"><a xlink:href="dir_21e9e6473ae68b51f10683f3306be290.html" target="_top" xlink:title="utils">
<polygon fill="white" stroke="red" points="104,-36 50,-36 50,0 104,0 104,-36"/>
<text text-anchor="middle" x="77" y="-15.5" font-family="Helvetica,sans-Serif" font-size="10.00">utils</text>
</a>
</g>
</g>
<!-- dir_a7a24523204c83181a5a9d1f36dd7aa0&#45;&gt;dir_21e9e6473ae68b51f10683f3306be290 -->
<g id="edge1" class="edge">
<title>dir_a7a24523204c83181a5a9d1f36dd7aa0&#45;&gt;dir_21e9e6473ae68b51f10683f3306be290</title>
<path fill="none" stroke="black" d="M60.27,-143.6C51.76,-134 42.47,-121.34 38,-108 32.92,-92.83 33.01,-87.2 38,-72 41.31,-61.91 47.37,-52.15 53.73,-43.82"/>
<polygon fill="black" stroke="black" points="56.5,-45.97 60.11,-36.01 51.08,-41.54 56.5,-45.97"/>
<g id="a_edge1&#45;headlabel"><a xlink:href="dir_000015_000026.html" target="_top" xlink:title="3">
<text text-anchor="middle" x="56.42" y="-48.05" font-family="Helvetica,sans-Serif" font-size="10.00">3</text>
</a>
</g>
</g>
<!-- dir_653c48f60ee8ceb0961c6a3849e63394 -->
<g id="node4" class="node">
<title>dir_653c48f60ee8ceb0961c6a3849e63394</title>
<g id="a_node4"><a xlink:href="dir_653c48f60ee8ceb0961c6a3849e63394.html" target="_top" xlink:title="piecewise_polynomial_trajectory">
<polygon fill="none" stroke="black" points="225,-108 47,-108 47,-72 225,-72 225,-108"/>
<text text-anchor="middle" x="136" y="-87.5" font-family="Helvetica,sans-Serif" font-size="10.00">piecewise_polynomial_trajectory</text>
</a>
</g>
</g>
<!-- dir_a7a24523204c83181a5a9d1f36dd7aa0&#45;&gt;dir_653c48f60ee8ceb0961c6a3849e63394 -->
<g id="edge2" class="edge">
<title>dir_a7a24523204c83181a5a9d1f36dd7aa0&#45;&gt;dir_653c48f60ee8ceb0961c6a3849e63394</title>
<path fill="none" stroke="black" d="M92.34,-143.7C99.29,-135.3 107.77,-125.07 115.4,-115.86"/>
<polygon fill="black" stroke="black" points="118.14,-118.04 121.83,-108.1 112.75,-113.57 118.14,-118.04"/>
<g id="a_edge2&#45;headlabel"><a xlink:href="dir_000015_000024.html" target="_top" xlink:title="1">
<text text-anchor="middle" x="118.04" y="-120.12" font-family="Helvetica,sans-Serif" font-size="10.00">1</text>
</a>
</g>
</g>
<!-- dir_653c48f60ee8ceb0961c6a3849e63394&#45;&gt;dir_21e9e6473ae68b51f10683f3306be290 -->
<g id="edge3" class="edge">
<title>dir_653c48f60ee8ceb0961c6a3849e63394&#45;&gt;dir_21e9e6473ae68b51f10683f3306be290</title>
<path fill="none" stroke="black" d="M121.42,-71.7C114.34,-63.3 105.72,-53.07 97.95,-43.86"/>
<polygon fill="black" stroke="black" points="100.54,-41.49 91.42,-36.1 95.19,-46.01 100.54,-41.49"/>
<g id="a_edge3&#45;headlabel"><a xlink:href="dir_000024_000026.html" target="_top" xlink:title="2">
<text text-anchor="middle" x="105.03" y="-39.91" font-family="Helvetica,sans-Serif" font-size="10.00">2</text>
</a>
</g>
</g>
</g>
</svg>
