<?xml version="1.0" encoding="UTF-8" standalone="no"?>
<!DOCTYPE svg PUBLIC "-//W3C//DTD SVG 1.1//EN"
 "http://www.w3.org/Graphics/SVG/1.1/DTD/svg11.dtd">
<!-- Generated by graphviz version 2.43.0 (0)
 -->
<!-- Title: ACSL&#45;flightstack&#45;winged/src/acsl_flight/include/utils/user_defined_trajectory_base Pages: 1 -->
<svg width="200pt" height="167pt"
 viewBox="0.00 0.00 200.00 167.00" xmlns="http://www.w3.org/2000/svg" xmlns:xlink="http://www.w3.org/1999/xlink">
<g id="graph0" class="graph" transform="scale(1 1) rotate(0) translate(4 163)">
<title>ACSL&#45;flightstack&#45;winged/src/acsl_flight/include/utils/user_defined_trajectory_base</title>
<polygon fill="white" stroke="transparent" points="-4,4 -4,-163 196,-163 196,4 -4,4"/>
<g id="clust1" class="cluster">
<title>clusterdir_21e9e6473ae68b51f10683f3306be290</title>
<g id="a_clust1"><a xlink:href="dir_21e9e6473ae68b51f10683f3306be290.html" target="_top" xlink:title="utils">
<polygon fill="#ddddee" stroke="black" points="8,-8 8,-151 184,-151 184,-8 8,-8"/>
<text text-anchor="middle" x="96" y="-139" font-family="Helvetica,sans-Serif" font-size="10.00">utils</text>
</a>
</g>
</g>
<!-- dir_07f18c2b80d85e75bcad381462cf5907 -->
<g id="node1" class="node">
<title>dir_07f18c2b80d85e75bcad381462cf5907</title>
<g id="a_node1"><a xlink:href="dir_07f18c2b80d85e75bcad381462cf5907.html" target="_top" xlink:title="flightstack_helpers">
<polygon fill="none" stroke="black" points="150.5,-52 41.5,-52 41.5,-16 150.5,-16 150.5,-52"/>
<text text-anchor="middle" x="96" y="-31.5" font-family="Helvetica,sans-Serif" font-size="10.00">flightstack_helpers</text>
</a>
</g>
</g>
<!-- dir_9cfa8c6d8be1304ef66aa96c0f1f7e61 -->
<g id="node2" class="node">
<title>dir_9cfa8c6d8be1304ef66aa96c0f1f7e61</title>
<g id="a_node2"><a xlink:href="dir_9cfa8c6d8be1304ef66aa96c0f1f7e61.html" target="_top" xlink:title="user_defined_trajectory_base">
<polygon fill="#eeeeff" stroke="black" points="176,-124 16,-124 16,-88 176,-88 176,-124"/>
<text text-anchor="middle" x="96" y="-103.5" font-family="Helvetica,sans-Serif" font-size="10.00">user_defined_trajectory_base</text>
</a>
</g>
</g>
<!-- dir_9cfa8c6d8be1304ef66aa96c0f1f7e61&#45;&gt;dir_07f18c2b80d85e75bcad381462cf5907 -->
<g id="edge1" class="edge">
<title>dir_9cfa8c6d8be1304ef66aa96c0f1f7e61&#45;&gt;dir_07f18c2b80d85e75bcad381462cf5907</title>
<path fill="none" stroke="black" d="M96,-87.7C96,-79.98 96,-70.71 96,-62.11"/>
<polygon fill="black" stroke="black" points="99.5,-62.1 96,-52.1 92.5,-62.1 99.5,-62.1"/>
<g id="a_edge1&#45;headlabel"><a xlink:href="dir_000032_000030.html" target="_top" xlink:title="1">
<text text-anchor="middle" x="102.34" y="-63.2" font-family="Helvetica,sans-Serif" font-size="10.00">1</text>
</a>
</g>
</g>
</g>
</svg>
