<?xml version="1.0" encoding="UTF-8" standalone="no"?>
<!DOCTYPE svg PUBLIC "-//W3C//DTD SVG 1.1//EN"
 "http://www.w3.org/Graphics/SVG/1.1/DTD/svg11.dtd">
<!-- Generated by graphviz version 2.43.0 (0)
 -->
<!-- Title: ACSL&#45;flightstack&#45;winged/src/acsl_flight/include/flight_main Pages: 1 -->
<svg width="219pt" height="167pt"
 viewBox="0.00 0.00 219.00 167.00" xmlns="http://www.w3.org/2000/svg" xmlns:xlink="http://www.w3.org/1999/xlink">
<g id="graph0" class="graph" transform="scale(1 1) rotate(0) translate(4 163)">
<title>ACSL&#45;flightstack&#45;winged/src/acsl_flight/include/flight_main</title>
<polygon fill="white" stroke="transparent" points="-4,4 -4,-163 215,-163 215,4 -4,4"/>
<g id="clust1" class="cluster">
<title>clusterdir_b59d6e0e1db631c1aaa97e9d05ec23c1</title>
<g id="a_clust1"><a xlink:href="dir_b59d6e0e1db631c1aaa97e9d05ec23c1.html" target="_top" xlink:title="include">
<polygon fill="#ddddee" stroke="black" points="8,-8 8,-151 203,-151 203,-8 8,-8"/>
<text text-anchor="middle" x="105.5" y="-139" font-family="Helvetica,sans-Serif" font-size="10.00">include</text>
</a>
</g>
</g>
<!-- dir_56c205456dc4fe9727e9169e57f90230 -->
<g id="node1" class="node">
<title>dir_56c205456dc4fe9727e9169e57f90230</title>
<g id="a_node1"><a xlink:href="dir_56c205456dc4fe9727e9169e57f90230.html" target="_top" xlink:title="flight_bridge">
<polygon fill="none" stroke="black" points="93.5,-52 16.5,-52 16.5,-16 93.5,-16 93.5,-52"/>
<text text-anchor="middle" x="55" y="-31.5" font-family="Helvetica,sans-Serif" font-size="10.00">flight_bridge</text>
</a>
</g>
</g>
<!-- dir_a7f5c1eab6a9db649807e802721f3c44 -->
<g id="node2" class="node">
<title>dir_a7f5c1eab6a9db649807e802721f3c44</title>
<g id="a_node2"><a xlink:href="dir_a7f5c1eab6a9db649807e802721f3c44.html" target="_top" xlink:title="flight_params">
<polygon fill="none" stroke="black" points="194.5,-52 111.5,-52 111.5,-16 194.5,-16 194.5,-52"/>
<text text-anchor="middle" x="153" y="-31.5" font-family="Helvetica,sans-Serif" font-size="10.00">flight_params</text>
</a>
</g>
</g>
<!-- dir_90644455f2d345de552edf45956f4bf6 -->
<g id="node3" class="node">
<title>dir_90644455f2d345de552edf45956f4bf6</title>
<g id="a_node3"><a xlink:href="dir_90644455f2d345de552edf45956f4bf6.html" target="_top" xlink:title="flight_main">
<polygon fill="#eeeeff" stroke="black" points="139.5,-124 68.5,-124 68.5,-88 139.5,-88 139.5,-124"/>
<text text-anchor="middle" x="104" y="-103.5" font-family="Helvetica,sans-Serif" font-size="10.00">flight_main</text>
</a>
</g>
</g>
<!-- dir_90644455f2d345de552edf45956f4bf6&#45;&gt;dir_56c205456dc4fe9727e9169e57f90230 -->
<g id="edge1" class="edge">
<title>dir_90644455f2d345de552edf45956f4bf6&#45;&gt;dir_56c205456dc4fe9727e9169e57f90230</title>
<path fill="none" stroke="black" d="M91.89,-87.7C86.13,-79.47 79.14,-69.48 72.79,-60.42"/>
<polygon fill="black" stroke="black" points="75.58,-58.29 66.97,-52.1 69.84,-62.3 75.58,-58.29"/>
<g id="a_edge1&#45;headlabel"><a xlink:href="dir_000018_000017.html" target="_top" xlink:title="1">
<text text-anchor="middle" x="79.96" y="-57.11" font-family="Helvetica,sans-Serif" font-size="10.00">1</text>
</a>
</g>
</g>
<!-- dir_90644455f2d345de552edf45956f4bf6&#45;&gt;dir_a7f5c1eab6a9db649807e802721f3c44 -->
<g id="edge2" class="edge">
<title>dir_90644455f2d345de552edf45956f4bf6&#45;&gt;dir_a7f5c1eab6a9db649807e802721f3c44</title>
<path fill="none" stroke="black" d="M116.11,-87.7C121.87,-79.47 128.86,-69.48 135.21,-60.42"/>
<polygon fill="black" stroke="black" points="138.16,-62.3 141.03,-52.1 132.42,-58.29 138.16,-62.3"/>
<g id="a_edge2&#45;headlabel"><a xlink:href="dir_000018_000019.html" target="_top" xlink:title="1">
<text text-anchor="middle" x="138.42" y="-64.38" font-family="Helvetica,sans-Serif" font-size="10.00">1</text>
</a>
</g>
</g>
</g>
</svg>
