<?xml version="1.0" encoding="UTF-8" standalone="no"?>
<!DOCTYPE svg PUBLIC "-//W3C//DTD SVG 1.1//EN"
 "http://www.w3.org/Graphics/SVG/1.1/DTD/svg11.dtd">
<!-- Generated by graphviz version 2.43.0 (0)
 -->
<!-- Title: ACSL&#45;flightstack&#45;winged/src/acsl_flight/include/control/platforms/rostestdrone/control_algorithms/PID Pages: 1 -->
<svg width="218pt" height="223pt"
 viewBox="0.00 0.00 218.00 223.00" xmlns="http://www.w3.org/2000/svg" xmlns:xlink="http://www.w3.org/1999/xlink">
<g id="graph0" class="graph" transform="scale(1 1) rotate(0) translate(4 219)">
<title>ACSL&#45;flightstack&#45;winged/src/acsl_flight/include/control/platforms/rostestdrone/control_algorithms/PID</title>
<polygon fill="white" stroke="transparent" points="-4,4 -4,-219 214,-219 214,4 -4,4"/>
<g id="clust1" class="cluster">
<title>clusterdir_a7a24523204c83181a5a9d1f36dd7aa0</title>
<g id="a_clust1"><a xlink:href="dir_a7a24523204c83181a5a9d1f36dd7aa0.html" target="_top" xlink:title="control_algorithms">
<polygon fill="#ddddee" stroke="black" points="8,-136 8,-207 116,-207 116,-136 8,-136"/>
<text text-anchor="middle" x="62" y="-195" font-family="Helvetica,sans-Serif" font-size="10.00">control_algorithms</text>
</a>
</g>
</g>
<!-- dir_78bfaabb1b1e3c13f9c7a35488f35262 -->
<g id="node1" class="node">
<title>dir_78bfaabb1b1e3c13f9c7a35488f35262</title>
<g id="a_node1"><a xlink:href="dir_78bfaabb1b1e3c13f9c7a35488f35262.html" target="_top" xlink:title="PID">
<polygon fill="#eeeeff" stroke="black" points="89,-180 35,-180 35,-144 89,-144 89,-180"/>
<text text-anchor="middle" x="62" y="-159.5" font-family="Helvetica,sans-Serif" font-size="10.00">PID</text>
</a>
</g>
</g>
<!-- dir_21e9e6473ae68b51f10683f3306be290 -->
<g id="node2" class="node">
<title>dir_21e9e6473ae68b51f10683f3306be290</title>
<g id="a_node2"><a xlink:href="dir_21e9e6473ae68b51f10683f3306be290.html" target="_top" xlink:title="utils">
<polygon fill="white" stroke="red" points="89,-36 35,-36 35,0 89,0 89,-36"/>
<text text-anchor="middle" x="62" y="-15.5" font-family="Helvetica,sans-Serif" font-size="10.00">utils</text>
</a>
</g>
</g>
<!-- dir_78bfaabb1b1e3c13f9c7a35488f35262&#45;&gt;dir_21e9e6473ae68b51f10683f3306be290 -->
<g id="edge1" class="edge">
<title>dir_78bfaabb1b1e3c13f9c7a35488f35262&#45;&gt;dir_21e9e6473ae68b51f10683f3306be290</title>
<path fill="none" stroke="black" d="M45.11,-143.99C36.71,-134.31 27.42,-121.46 23,-108 18.01,-92.8 18.01,-87.2 23,-72 26.31,-61.91 32.37,-52.15 38.73,-43.82"/>
<polygon fill="black" stroke="black" points="41.5,-45.97 45.11,-36.01 36.08,-41.54 41.5,-45.97"/>
<g id="a_edge1&#45;headlabel"><a xlink:href="dir_000016_000026.html" target="_top" xlink:title="3">
<text text-anchor="middle" x="41.42" y="-48.05" font-family="Helvetica,sans-Serif" font-size="10.00">3</text>
</a>
</g>
</g>
<!-- dir_653c48f60ee8ceb0961c6a3849e63394 -->
<g id="node3" class="node">
<title>dir_653c48f60ee8ceb0961c6a3849e63394</title>
<g id="a_node3"><a xlink:href="dir_653c48f60ee8ceb0961c6a3849e63394.html" target="_top" xlink:title="piecewise_polynomial_trajectory">
<polygon fill="none" stroke="black" points="210,-108 32,-108 32,-72 210,-72 210,-108"/>
<text text-anchor="middle" x="121" y="-87.5" font-family="Helvetica,sans-Serif" font-size="10.00">piecewise_polynomial_trajectory</text>
</a>
</g>
</g>
<!-- dir_78bfaabb1b1e3c13f9c7a35488f35262&#45;&gt;dir_653c48f60ee8ceb0961c6a3849e63394 -->
<g id="edge2" class="edge">
<title>dir_78bfaabb1b1e3c13f9c7a35488f35262&#45;&gt;dir_653c48f60ee8ceb0961c6a3849e63394</title>
<path fill="none" stroke="black" d="M76.58,-143.7C83.66,-135.3 92.28,-125.07 100.05,-115.86"/>
<polygon fill="black" stroke="black" points="102.81,-118.01 106.58,-108.1 97.46,-113.49 102.81,-118.01"/>
<g id="a_edge2&#45;headlabel"><a xlink:href="dir_000016_000024.html" target="_top" xlink:title="1">
<text text-anchor="middle" x="102.67" y="-120.08" font-family="Helvetica,sans-Serif" font-size="10.00">1</text>
</a>
</g>
</g>
<!-- dir_653c48f60ee8ceb0961c6a3849e63394&#45;&gt;dir_21e9e6473ae68b51f10683f3306be290 -->
<g id="edge3" class="edge">
<title>dir_653c48f60ee8ceb0961c6a3849e63394&#45;&gt;dir_21e9e6473ae68b51f10683f3306be290</title>
<path fill="none" stroke="black" d="M106.42,-71.7C99.34,-63.3 90.72,-53.07 82.95,-43.86"/>
<polygon fill="black" stroke="black" points="85.54,-41.49 76.42,-36.1 80.19,-46.01 85.54,-41.49"/>
<g id="a_edge3&#45;headlabel"><a xlink:href="dir_000024_000026.html" target="_top" xlink:title="2">
<text text-anchor="middle" x="90.03" y="-39.91" font-family="Helvetica,sans-Serif" font-size="10.00">2</text>
</a>
</g>
</g>
</g>
</svg>
