<?xml version="1.0" encoding="UTF-8" standalone="no"?>
<!DOCTYPE svg PUBLIC "-//W3C//DTD SVG 1.1//EN"
 "http://www.w3.org/Graphics/SVG/1.1/DTD/svg11.dtd">
<!-- Generated by graphviz version 2.43.0 (0)
 -->
<!-- Title: ACSL&#45;flightstack&#45;winged/src/acsl_flight/include/flight_main Pages: 1 -->
<svg width="138pt" height="239pt"
 viewBox="0.00 0.00 138.00 239.00" xmlns="http://www.w3.org/2000/svg" xmlns:xlink="http://www.w3.org/1999/xlink">
<g id="graph0" class="graph" transform="scale(1 1) rotate(0) translate(4 235)">
<title>ACSL&#45;flightstack&#45;winged/src/acsl_flight/include/flight_main</title>
<polygon fill="white" stroke="transparent" points="-4,4 -4,-235 134,-235 134,4 -4,4"/>
<g id="clust1" class="cluster">
<title>clusterdir_b59d6e0e1db631c1aaa97e9d05ec23c1</title>
<g id="a_clust1"><a xlink:href="dir_b59d6e0e1db631c1aaa97e9d05ec23c1.html" target="_top" xlink:title="include">
<polygon fill="#ddddee" stroke="black" points="8,-8 8,-223 122,-223 122,-8 8,-8"/>
<text text-anchor="middle" x="65" y="-211" font-family="Helvetica,sans-Serif" font-size="10.00">include</text>
</a>
</g>
</g>
<!-- dir_56c205456dc4fe9727e9169e57f90230 -->
<g id="node1" class="node">
<title>dir_56c205456dc4fe9727e9169e57f90230</title>
<g id="a_node1"><a xlink:href="dir_56c205456dc4fe9727e9169e57f90230.html" target="_top" xlink:title="flight_bridge">
<polygon fill="none" stroke="black" points="93.5,-124 16.5,-124 16.5,-88 93.5,-88 93.5,-124"/>
<text text-anchor="middle" x="55" y="-103.5" font-family="Helvetica,sans-Serif" font-size="10.00">flight_bridge</text>
</a>
</g>
</g>
<!-- dir_a7f5c1eab6a9db649807e802721f3c44 -->
<g id="node2" class="node">
<title>dir_a7f5c1eab6a9db649807e802721f3c44</title>
<g id="a_node2"><a xlink:href="dir_a7f5c1eab6a9db649807e802721f3c44.html" target="_top" xlink:title="flight_params">
<polygon fill="none" stroke="black" points="106.5,-52 23.5,-52 23.5,-16 106.5,-16 106.5,-52"/>
<text text-anchor="middle" x="65" y="-31.5" font-family="Helvetica,sans-Serif" font-size="10.00">flight_params</text>
</a>
</g>
</g>
<!-- dir_56c205456dc4fe9727e9169e57f90230&#45;&gt;dir_a7f5c1eab6a9db649807e802721f3c44 -->
<g id="edge1" class="edge">
<title>dir_56c205456dc4fe9727e9169e57f90230&#45;&gt;dir_a7f5c1eab6a9db649807e802721f3c44</title>
<path fill="none" stroke="black" d="M57.47,-87.7C58.57,-79.98 59.9,-70.71 61.13,-62.11"/>
<polygon fill="black" stroke="black" points="64.61,-62.5 62.56,-52.1 57.68,-61.51 64.61,-62.5"/>
<g id="a_edge1&#45;headlabel"><a xlink:href="dir_000017_000019.html" target="_top" xlink:title="1">
<text text-anchor="middle" x="66.91" y="-63.96" font-family="Helvetica,sans-Serif" font-size="10.00">1</text>
</a>
</g>
</g>
<!-- dir_90644455f2d345de552edf45956f4bf6 -->
<g id="node3" class="node">
<title>dir_90644455f2d345de552edf45956f4bf6</title>
<g id="a_node3"><a xlink:href="dir_90644455f2d345de552edf45956f4bf6.html" target="_top" xlink:title="flight_main">
<polygon fill="#eeeeff" stroke="black" points="101.5,-196 30.5,-196 30.5,-160 101.5,-160 101.5,-196"/>
<text text-anchor="middle" x="66" y="-175.5" font-family="Helvetica,sans-Serif" font-size="10.00">flight_main</text>
</a>
</g>
</g>
<!-- dir_90644455f2d345de552edf45956f4bf6&#45;&gt;dir_56c205456dc4fe9727e9169e57f90230 -->
<g id="edge2" class="edge">
<title>dir_90644455f2d345de552edf45956f4bf6&#45;&gt;dir_56c205456dc4fe9727e9169e57f90230</title>
<path fill="none" stroke="black" d="M63.28,-159.7C62.07,-151.98 60.61,-142.71 59.26,-134.11"/>
<polygon fill="black" stroke="black" points="62.7,-133.44 57.69,-124.1 55.78,-134.53 62.7,-133.44"/>
<g id="a_edge2&#45;headlabel"><a xlink:href="dir_000018_000017.html" target="_top" xlink:title="1">
<text text-anchor="middle" x="66.06" y="-134.05" font-family="Helvetica,sans-Serif" font-size="10.00">1</text>
</a>
</g>
</g>
<!-- dir_90644455f2d345de552edf45956f4bf6&#45;&gt;dir_a7f5c1eab6a9db649807e802721f3c44 -->
<g id="edge3" class="edge">
<title>dir_90644455f2d345de552edf45956f4bf6&#45;&gt;dir_a7f5c1eab6a9db649807e802721f3c44</title>
<path fill="none" stroke="black" d="M82.04,-159.85C90.01,-150.12 98.83,-137.27 103,-124 107.8,-108.74 107.9,-103.23 103,-88 99.81,-78.08 94,-68.44 87.87,-60.17"/>
<polygon fill="black" stroke="black" points="90.42,-57.74 81.46,-52.08 84.93,-62.09 90.42,-57.74"/>
<g id="a_edge3&#45;headlabel"><a xlink:href="dir_000018_000019.html" target="_top" xlink:title="1">
<text text-anchor="middle" x="94.88" y="-56.3" font-family="Helvetica,sans-Serif" font-size="10.00">1</text>
</a>
</g>
</g>
</g>
</svg>
