<?xml version="1.0" encoding="UTF-8" standalone="no"?>
<!DOCTYPE svg PUBLIC "-//W3C//DTD SVG 1.1//EN"
 "http://www.w3.org/Graphics/SVG/1.1/DTD/svg11.dtd">
<!-- Generated by graphviz version 2.43.0 (0)
 -->
<!-- Title: ACSL&#45;flightstack&#45;winged/src/acsl_flight/include/mocap/udp_socket Pages: 1 -->
<svg width="166pt" height="167pt"
 viewBox="0.00 0.00 166.00 167.00" xmlns="http://www.w3.org/2000/svg" xmlns:xlink="http://www.w3.org/1999/xlink">
<g id="graph0" class="graph" transform="scale(1 1) rotate(0) translate(4 163)">
<title>ACSL&#45;flightstack&#45;winged/src/acsl_flight/include/mocap/udp_socket</title>
<polygon fill="white" stroke="transparent" points="-4,4 -4,-163 162,-163 162,4 -4,4"/>
<g id="clust1" class="cluster">
<title>clusterdir_24e1b6e1c79d753179c206c8bcc4a2aa</title>
<g id="a_clust1"><a xlink:href="dir_24e1b6e1c79d753179c206c8bcc4a2aa.html" target="_top" xlink:title="mocap">
<polygon fill="#ddddee" stroke="black" points="8,-8 8,-151 96,-151 96,-8 8,-8"/>
<text text-anchor="middle" x="52" y="-139" font-family="Helvetica,sans-Serif" font-size="10.00">mocap</text>
</a>
</g>
</g>
<!-- dir_1a8c52e4adf6c8fa17280f769327fe2a -->
<g id="node1" class="node">
<title>dir_1a8c52e4adf6c8fa17280f769327fe2a</title>
<g id="a_node1"><a xlink:href="dir_1a8c52e4adf6c8fa17280f769327fe2a.html" target="_top" xlink:title="io_context">
<polygon fill="none" stroke="black" points="86,-52 18,-52 18,-16 86,-16 86,-52"/>
<text text-anchor="middle" x="52" y="-31.5" font-family="Helvetica,sans-Serif" font-size="10.00">io_context</text>
</a>
</g>
</g>
<!-- dir_5f3919c4e81f2d04e401400c52cca7c8 -->
<g id="node2" class="node">
<title>dir_5f3919c4e81f2d04e401400c52cca7c8</title>
<g id="a_node2"><a xlink:href="dir_5f3919c4e81f2d04e401400c52cca7c8.html" target="_top" xlink:title="udp_socket">
<polygon fill="#eeeeff" stroke="black" points="87.5,-124 16.5,-124 16.5,-88 87.5,-88 87.5,-124"/>
<text text-anchor="middle" x="52" y="-103.5" font-family="Helvetica,sans-Serif" font-size="10.00">udp_socket</text>
</a>
</g>
</g>
<!-- dir_5f3919c4e81f2d04e401400c52cca7c8&#45;&gt;dir_1a8c52e4adf6c8fa17280f769327fe2a -->
<g id="edge1" class="edge">
<title>dir_5f3919c4e81f2d04e401400c52cca7c8&#45;&gt;dir_1a8c52e4adf6c8fa17280f769327fe2a</title>
<path fill="none" stroke="black" d="M52,-87.7C52,-79.98 52,-70.71 52,-62.11"/>
<polygon fill="black" stroke="black" points="55.5,-62.1 52,-52.1 48.5,-62.1 55.5,-62.1"/>
<g id="a_edge1&#45;headlabel"><a xlink:href="dir_000023_000021.html" target="_top" xlink:title="1">
<text text-anchor="middle" x="58.34" y="-63.2" font-family="Helvetica,sans-Serif" font-size="10.00">1</text>
</a>
</g>
</g>
<!-- dir_21e9e6473ae68b51f10683f3306be290 -->
<g id="node3" class="node">
<title>dir_21e9e6473ae68b51f10683f3306be290</title>
<g id="a_node3"><a xlink:href="dir_21e9e6473ae68b51f10683f3306be290.html" target="_top" xlink:title="utils">
<polygon fill="white" stroke="red" points="158,-52 104,-52 104,-16 158,-16 158,-52"/>
<text text-anchor="middle" x="131" y="-31.5" font-family="Helvetica,sans-Serif" font-size="10.00">utils</text>
</a>
</g>
</g>
<!-- dir_5f3919c4e81f2d04e401400c52cca7c8&#45;&gt;dir_21e9e6473ae68b51f10683f3306be290 -->
<g id="edge2" class="edge">
<title>dir_5f3919c4e81f2d04e401400c52cca7c8&#45;&gt;dir_21e9e6473ae68b51f10683f3306be290</title>
<path fill="none" stroke="black" d="M71.53,-87.7C81.38,-78.97 93.49,-68.24 104.2,-58.75"/>
<polygon fill="black" stroke="black" points="106.53,-61.36 111.7,-52.1 101.89,-56.12 106.53,-61.36"/>
<g id="a_edge2&#45;headlabel"><a xlink:href="dir_000023_000026.html" target="_top" xlink:title="1">
<text text-anchor="middle" x="105.73" y="-63.36" font-family="Helvetica,sans-Serif" font-size="10.00">1</text>
</a>
</g>
</g>
</g>
</svg>
