<?xml version="1.0" encoding="UTF-8" standalone="no"?>
<!DOCTYPE svg PUBLIC "-//W3C//DTD SVG 1.1//EN"
 "http://www.w3.org/Graphics/SVG/1.1/DTD/svg11.dtd">
<!-- Generated by graphviz version 2.43.0 (0)
 -->
<!-- Title: ACSL&#45;flightstack&#45;winged/src/acsl_flight/include/control Pages: 1 -->
<svg width="298pt" height="391pt"
 viewBox="0.00 0.00 298.00 391.00" xmlns="http://www.w3.org/2000/svg" xmlns:xlink="http://www.w3.org/1999/xlink">
<g id="graph0" class="graph" transform="scale(1 1) rotate(0) translate(4 387)">
<title>ACSL&#45;flightstack&#45;winged/src/acsl_flight/include/control</title>
<polygon fill="white" stroke="transparent" points="-4,4 -4,-387 294,-387 294,4 -4,4"/>
<g id="clust1" class="cluster">
<title>clusterdir_b59d6e0e1db631c1aaa97e9d05ec23c1</title>
<g id="a_clust1"><a xlink:href="dir_b59d6e0e1db631c1aaa97e9d05ec23c1.html" target="_top" xlink:title="include">
<polygon fill="#ddddee" stroke="black" points="8,-8 8,-375 282,-375 282,-8 8,-8"/>
<text text-anchor="middle" x="145" y="-363" font-family="Helvetica,sans-Serif" font-size="10.00">include</text>
</a>
</g>
</g>
<g id="clust2" class="cluster">
<title>clusterdir_16b06bd99d94bcbd51e36f39541e14af</title>
<g id="a_clust2"><a xlink:href="dir_16b06bd99d94bcbd51e36f39541e14af.html" target="_top">
<polygon fill="#eeeeff" stroke="black" points="66,-224 66,-348 146,-348 146,-224 66,-224"/>
</a>
</g>
</g>
<!-- dir_21e9e6473ae68b51f10683f3306be290 -->
<g id="node1" class="node">
<title>dir_21e9e6473ae68b51f10683f3306be290</title>
<g id="a_node1"><a xlink:href="dir_21e9e6473ae68b51f10683f3306be290.html" target="_top" xlink:title="utils">
<polygon fill="white" stroke="red" points="227,-124 173,-124 173,-88 227,-88 227,-124"/>
<text text-anchor="middle" x="200" y="-103.5" font-family="Helvetica,sans-Serif" font-size="10.00">utils</text>
</a>
</g>
</g>
<!-- dir_91384f3ca66e108434602bccde0dca6a -->
<g id="node3" class="node">
<title>dir_91384f3ca66e108434602bccde0dca6a</title>
<g id="a_node3"><a xlink:href="dir_91384f3ca66e108434602bccde0dca6a.html" target="_top" xlink:title="vehicle_class">
<polygon fill="none" stroke="black" points="271,-52 189,-52 189,-16 271,-16 271,-52"/>
<text text-anchor="middle" x="230" y="-31.5" font-family="Helvetica,sans-Serif" font-size="10.00">vehicle_class</text>
</a>
</g>
</g>
<!-- dir_21e9e6473ae68b51f10683f3306be290&#45;&gt;dir_91384f3ca66e108434602bccde0dca6a -->
<g id="edge2" class="edge">
<title>dir_21e9e6473ae68b51f10683f3306be290&#45;&gt;dir_91384f3ca66e108434602bccde0dca6a</title>
<path fill="none" stroke="black" d="M207.42,-87.7C210.79,-79.81 214.87,-70.3 218.62,-61.55"/>
<polygon fill="black" stroke="black" points="221.95,-62.67 222.67,-52.1 215.51,-59.92 221.95,-62.67"/>
<g id="a_edge2&#45;headlabel"><a xlink:href="dir_000026_000033.html" target="_top" xlink:title="1">
<text text-anchor="middle" x="223.14" y="-64.6" font-family="Helvetica,sans-Serif" font-size="10.00">1</text>
</a>
</g>
</g>
<!-- dir_a7f5c1eab6a9db649807e802721f3c44 -->
<g id="node4" class="node">
<title>dir_a7f5c1eab6a9db649807e802721f3c44</title>
<g id="a_node4"><a xlink:href="dir_a7f5c1eab6a9db649807e802721f3c44.html" target="_top" xlink:title="flight_params">
<polygon fill="none" stroke="black" points="168.5,-52 85.5,-52 85.5,-16 168.5,-16 168.5,-52"/>
<text text-anchor="middle" x="127" y="-31.5" font-family="Helvetica,sans-Serif" font-size="10.00">flight_params</text>
</a>
</g>
</g>
<!-- dir_21e9e6473ae68b51f10683f3306be290&#45;&gt;dir_a7f5c1eab6a9db649807e802721f3c44 -->
<g id="edge3" class="edge">
<title>dir_21e9e6473ae68b51f10683f3306be290&#45;&gt;dir_a7f5c1eab6a9db649807e802721f3c44</title>
<path fill="none" stroke="black" d="M176.04,-87.7C166.23,-79.14 155.12,-68.66 145.88,-59.3"/>
<polygon fill="black" stroke="black" points="148.4,-56.87 138.94,-52.1 143.36,-61.73 148.4,-56.87"/>
<g id="a_edge3&#45;headlabel"><a xlink:href="dir_000026_000019.html" target="_top" xlink:title="1">
<text text-anchor="middle" x="152.94" y="-54.99" font-family="Helvetica,sans-Serif" font-size="10.00">1</text>
</a>
</g>
</g>
<!-- dir_56c205456dc4fe9727e9169e57f90230 -->
<g id="node2" class="node">
<title>dir_56c205456dc4fe9727e9169e57f90230</title>
<g id="a_node2"><a xlink:href="dir_56c205456dc4fe9727e9169e57f90230.html" target="_top" xlink:title="flight_bridge">
<polygon fill="none" stroke="black" points="233.5,-268 156.5,-268 156.5,-232 233.5,-232 233.5,-268"/>
<text text-anchor="middle" x="195" y="-247.5" font-family="Helvetica,sans-Serif" font-size="10.00">flight_bridge</text>
</a>
</g>
</g>
<!-- dir_a7f5c1eab6a9db649807e802721f3c44&#45;&gt;dir_21e9e6473ae68b51f10683f3306be290 -->
<g id="edge1" class="edge">
<title>dir_a7f5c1eab6a9db649807e802721f3c44&#45;&gt;dir_21e9e6473ae68b51f10683f3306be290</title>
<path fill="none" stroke="black" d="M150.73,-52.1C160.52,-60.64 171.64,-71.11 180.9,-80.48"/>
<polygon fill="black" stroke="black" points="178.41,-82.93 187.87,-87.7 183.44,-78.07 178.41,-82.93"/>
<g id="a_edge1&#45;headlabel"><a xlink:href="dir_000019_000026.html" target="_top" xlink:title="2">
<text text-anchor="middle" x="173.87" y="-79.82" font-family="Helvetica,sans-Serif" font-size="10.00">2</text>
</a>
</g>
</g>
<!-- dir_653c48f60ee8ceb0961c6a3849e63394 -->
<g id="node5" class="node">
<title>dir_653c48f60ee8ceb0961c6a3849e63394</title>
<g id="a_node5"><a xlink:href="dir_653c48f60ee8ceb0961c6a3849e63394.html" target="_top" xlink:title="piecewise_polynomial_trajectory">
<polygon fill="none" stroke="black" points="214,-196 36,-196 36,-160 214,-160 214,-196"/>
<text text-anchor="middle" x="125" y="-175.5" font-family="Helvetica,sans-Serif" font-size="10.00">piecewise_polynomial_trajectory</text>
</a>
</g>
</g>
<!-- dir_653c48f60ee8ceb0961c6a3849e63394&#45;&gt;dir_21e9e6473ae68b51f10683f3306be290 -->
<g id="edge11" class="edge">
<title>dir_653c48f60ee8ceb0961c6a3849e63394&#45;&gt;dir_21e9e6473ae68b51f10683f3306be290</title>
<path fill="none" stroke="black" d="M143.54,-159.7C152.8,-151.05 164.16,-140.45 174.26,-131.03"/>
<polygon fill="black" stroke="black" points="176.75,-133.49 181.67,-124.1 171.98,-128.37 176.75,-133.49"/>
<g id="a_edge11&#45;headlabel"><a xlink:href="dir_000024_000026.html" target="_top" xlink:title="2">
<text text-anchor="middle" x="176.06" y="-135.51" font-family="Helvetica,sans-Serif" font-size="10.00">2</text>
</a>
</g>
</g>
<!-- dir_653c48f60ee8ceb0961c6a3849e63394&#45;&gt;dir_a7f5c1eab6a9db649807e802721f3c44 -->
<g id="edge12" class="edge">
<title>dir_653c48f60ee8ceb0961c6a3849e63394&#45;&gt;dir_a7f5c1eab6a9db649807e802721f3c44</title>
<path fill="none" stroke="black" d="M125.24,-159.87C125.58,-135.67 126.21,-91.21 126.61,-62.39"/>
<polygon fill="black" stroke="black" points="130.12,-62.24 126.76,-52.19 123.12,-62.14 130.12,-62.24"/>
<g id="a_edge12&#45;headlabel"><a xlink:href="dir_000024_000019.html" target="_top" xlink:title="1">
<text text-anchor="middle" x="132.91" y="-63.37" font-family="Helvetica,sans-Serif" font-size="10.00">1</text>
</a>
</g>
</g>
<!-- dir_16b06bd99d94bcbd51e36f39541e14af -->
<g id="node6" class="node">
<title>dir_16b06bd99d94bcbd51e36f39541e14af</title>
<text text-anchor="middle" x="111" y="-319.5" font-family="Helvetica,sans-Serif" font-size="10.00">control</text>
</g>
<!-- dir_16b06bd99d94bcbd51e36f39541e14af&#45;&gt;dir_21e9e6473ae68b51f10683f3306be290 -->
<g id="edge4" class="edge">
<title>dir_16b06bd99d94bcbd51e36f39541e14af&#45;&gt;dir_21e9e6473ae68b51f10683f3306be290</title>
<path fill="none" stroke="black" d="M138.27,-318.78C169.59,-314.6 219.63,-302.57 243,-268 271.41,-225.98 240.73,-166 218.58,-132.37"/>
<polygon fill="black" stroke="black" points="221.42,-130.31 212.89,-124.01 215.63,-134.25 221.42,-130.31"/>
<g id="a_edge4&#45;headlabel"><a xlink:href="dir_000005_000026.html" target="_top" xlink:title="18">
<text text-anchor="middle" x="225.79" y="-129.18" font-family="Helvetica,sans-Serif" font-size="10.00">18</text>
</a>
</g>
</g>
<!-- dir_16b06bd99d94bcbd51e36f39541e14af&#45;&gt;dir_56c205456dc4fe9727e9169e57f90230 -->
<g id="edge5" class="edge">
<title>dir_16b06bd99d94bcbd51e36f39541e14af&#45;&gt;dir_56c205456dc4fe9727e9169e57f90230</title>
<path fill="none" stroke="black" d="M131.76,-303.7C142.24,-294.97 155.11,-284.24 166.5,-274.75"/>
<polygon fill="black" stroke="black" points="169.03,-277.19 174.47,-268.1 164.55,-271.82 169.03,-277.19"/>
<g id="a_edge5&#45;headlabel"><a xlink:href="dir_000005_000017.html" target="_top" xlink:title="1">
<text text-anchor="middle" x="168.09" y="-279.18" font-family="Helvetica,sans-Serif" font-size="10.00">1</text>
</a>
</g>
</g>
<!-- dir_16b06bd99d94bcbd51e36f39541e14af&#45;&gt;dir_91384f3ca66e108434602bccde0dca6a -->
<g id="edge6" class="edge">
<title>dir_16b06bd99d94bcbd51e36f39541e14af&#45;&gt;dir_91384f3ca66e108434602bccde0dca6a</title>
<path fill="none" stroke="black" d="M138.21,-319.66C171.64,-316.39 227.12,-305.29 253,-268 296.84,-204.85 263.35,-107.84 242.86,-61.47"/>
<polygon fill="black" stroke="black" points="245.93,-59.76 238.6,-52.11 239.56,-62.66 245.93,-59.76"/>
<g id="a_edge6&#45;headlabel"><a xlink:href="dir_000005_000033.html" target="_top" xlink:title="1">
<text text-anchor="middle" x="250.01" y="-59.35" font-family="Helvetica,sans-Serif" font-size="10.00">1</text>
</a>
</g>
</g>
<!-- dir_16b06bd99d94bcbd51e36f39541e14af&#45;&gt;dir_a7f5c1eab6a9db649807e802721f3c44 -->
<g id="edge7" class="edge">
<title>dir_16b06bd99d94bcbd51e36f39541e14af&#45;&gt;dir_a7f5c1eab6a9db649807e802721f3c44</title>
<path fill="none" stroke="black" d="M91.24,-303.88C60.73,-275.25 7.59,-215.33 27,-160 41.19,-119.54 74.61,-82.44 98.91,-59.35"/>
<polygon fill="black" stroke="black" points="101.5,-61.73 106.45,-52.36 96.74,-56.59 101.5,-61.73"/>
<g id="a_edge7&#45;headlabel"><a xlink:href="dir_000005_000019.html" target="_top" xlink:title="1">
<text text-anchor="middle" x="100.79" y="-63.75" font-family="Helvetica,sans-Serif" font-size="10.00">1</text>
</a>
</g>
</g>
<!-- dir_b0206072910f6abc79eb007ee8e44bd4 -->
<g id="node7" class="node">
<title>dir_b0206072910f6abc79eb007ee8e44bd4</title>
<g id="a_node7"><a xlink:href="dir_b0206072910f6abc79eb007ee8e44bd4.html" target="_top" xlink:title="platforms">
<polygon fill="white" stroke="red" points="138,-268 74,-268 74,-232 138,-232 138,-268"/>
<text text-anchor="middle" x="106" y="-247.5" font-family="Helvetica,sans-Serif" font-size="10.00">platforms</text>
</a>
</g>
</g>
<!-- dir_16b06bd99d94bcbd51e36f39541e14af&#45;&gt;dir_b0206072910f6abc79eb007ee8e44bd4 -->
<g id="edge8" class="edge">
<title>dir_16b06bd99d94bcbd51e36f39541e14af&#45;&gt;dir_b0206072910f6abc79eb007ee8e44bd4</title>
<path fill="none" stroke="black" d="M109.76,-303.7C109.21,-295.98 108.55,-286.71 107.94,-278.11"/>
<polygon fill="black" stroke="black" points="111.43,-277.83 107.22,-268.1 104.44,-278.33 111.43,-277.83"/>
<g id="a_edge8&#45;headlabel"><a xlink:href="dir_000005_000006.html" target="_top" xlink:title="5">
<text text-anchor="middle" x="114.51" y="-278.71" font-family="Helvetica,sans-Serif" font-size="10.00">5</text>
</a>
</g>
</g>
<!-- dir_b0206072910f6abc79eb007ee8e44bd4&#45;&gt;dir_21e9e6473ae68b51f10683f3306be290 -->
<g id="edge9" class="edge">
<title>dir_b0206072910f6abc79eb007ee8e44bd4&#45;&gt;dir_21e9e6473ae68b51f10683f3306be290</title>
<path fill="none" stroke="black" d="M128.66,-231.89C132.96,-229.04 137.52,-226.27 142,-224 175.96,-206.75 200.9,-227.02 223,-196 236.21,-177.46 227.55,-151.94 217.3,-132.99"/>
<polygon fill="black" stroke="black" points="220.28,-131.15 212.23,-124.27 214.23,-134.67 220.28,-131.15"/>
<g id="a_edge9&#45;headlabel"><a xlink:href="dir_000006_000026.html" target="_top" xlink:title="16">
<text text-anchor="middle" x="224.54" y="-130.33" font-family="Helvetica,sans-Serif" font-size="10.00">16</text>
</a>
</g>
</g>
<!-- dir_b0206072910f6abc79eb007ee8e44bd4&#45;&gt;dir_653c48f60ee8ceb0961c6a3849e63394 -->
<g id="edge10" class="edge">
<title>dir_b0206072910f6abc79eb007ee8e44bd4&#45;&gt;dir_653c48f60ee8ceb0961c6a3849e63394</title>
<path fill="none" stroke="black" d="M110.7,-231.7C112.81,-223.9 115.36,-214.51 117.72,-205.83"/>
<polygon fill="black" stroke="black" points="121.12,-206.67 120.36,-196.1 114.36,-204.84 121.12,-206.67"/>
<g id="a_edge10&#45;headlabel"><a xlink:href="dir_000006_000024.html" target="_top" xlink:title="5">
<text text-anchor="middle" x="122.91" y="-208.38" font-family="Helvetica,sans-Serif" font-size="10.00">5</text>
</a>
</g>
</g>
</g>
</svg>
