<?xml version="1.0" encoding="UTF-8" standalone="no"?>
<!DOCTYPE svg PUBLIC "-//W3C//DTD SVG 1.1//EN"
 "http://www.w3.org/Graphics/SVG/1.1/DTD/svg11.dtd">
<!-- Generated by graphviz version 2.43.0 (0)
 -->
<!-- Title: ACSL&#45;flightstack&#45;winged/src/acsl_flight/src/control Pages: 1 -->
<svg width="192pt" height="159pt"
 viewBox="0.00 0.00 192.00 159.00" xmlns="http://www.w3.org/2000/svg" xmlns:xlink="http://www.w3.org/1999/xlink">
<g id="graph0" class="graph" transform="scale(1 1) rotate(0) translate(4 155)">
<title>ACSL&#45;flightstack&#45;winged/src/acsl_flight/src/control</title>
<polygon fill="white" stroke="transparent" points="-4,4 -4,-155 188,-155 188,4 -4,4"/>
<g id="clust1" class="cluster">
<title>clusterdir_df441872dcf22906b3455ec7d1a1fa58</title>
<g id="a_clust1"><a xlink:href="dir_df441872dcf22906b3455ec7d1a1fa58.html" target="_top" xlink:title="src">
<polygon fill="#ddddee" stroke="black" points="8,-56 8,-143 176,-143 176,-56 8,-56"/>
<text text-anchor="middle" x="92" y="-131" font-family="Helvetica,sans-Serif" font-size="10.00">src</text>
</a>
</g>
</g>
<g id="clust2" class="cluster">
<title>clusterdir_c35f0be978a7def7b6f8d2fa38bb17e0</title>
<g id="a_clust2"><a xlink:href="dir_c35f0be978a7def7b6f8d2fa38bb17e0.html" target="_top">
<polygon fill="#eeeeff" stroke="black" points="16,-64 16,-116 168,-116 168,-64 16,-64"/>
</a>
</g>
</g>
<!-- dir_c35f0be978a7def7b6f8d2fa38bb17e0 -->
<g id="node1" class="node">
<title>dir_c35f0be978a7def7b6f8d2fa38bb17e0</title>
<text text-anchor="middle" x="133" y="-87.5" font-family="Helvetica,sans-Serif" font-size="10.00">control</text>
</g>
<!-- dir_b59d6e0e1db631c1aaa97e9d05ec23c1 -->
<g id="node3" class="node">
<title>dir_b59d6e0e1db631c1aaa97e9d05ec23c1</title>
<g id="a_node3"><a xlink:href="dir_b59d6e0e1db631c1aaa97e9d05ec23c1.html" target="_top" xlink:title="include">
<polygon fill="white" stroke="red" points="121,-36 67,-36 67,0 121,0 121,-36"/>
<text text-anchor="middle" x="94" y="-15.5" font-family="Helvetica,sans-Serif" font-size="10.00">include</text>
</a>
</g>
</g>
<!-- dir_c35f0be978a7def7b6f8d2fa38bb17e0&#45;&gt;dir_b59d6e0e1db631c1aaa97e9d05ec23c1 -->
<g id="edge2" class="edge">
<title>dir_c35f0be978a7def7b6f8d2fa38bb17e0&#45;&gt;dir_b59d6e0e1db631c1aaa97e9d05ec23c1</title>
<path fill="none" stroke="black" d="M123.36,-71.7C118.87,-63.64 113.44,-53.89 108.48,-44.98"/>
<polygon fill="black" stroke="black" points="111.45,-43.14 103.53,-36.1 105.34,-46.54 111.45,-43.14"/>
<g id="a_edge2&#45;headlabel"><a xlink:href="dir_000036_000004.html" target="_top" xlink:title="11">
<text text-anchor="middle" x="115.68" y="-42.39" font-family="Helvetica,sans-Serif" font-size="10.00">11</text>
</a>
</g>
</g>
<!-- dir_569eed2c14c2d5b6009124e6036b1a48 -->
<g id="node2" class="node">
<title>dir_569eed2c14c2d5b6009124e6036b1a48</title>
<g id="a_node2"><a xlink:href="dir_569eed2c14c2d5b6009124e6036b1a48.html" target="_top" xlink:title="platforms">
<polygon fill="white" stroke="red" points="88,-108 24,-108 24,-72 88,-72 88,-108"/>
<text text-anchor="middle" x="56" y="-87.5" font-family="Helvetica,sans-Serif" font-size="10.00">platforms</text>
</a>
</g>
</g>
<!-- dir_569eed2c14c2d5b6009124e6036b1a48&#45;&gt;dir_b59d6e0e1db631c1aaa97e9d05ec23c1 -->
<g id="edge1" class="edge">
<title>dir_569eed2c14c2d5b6009124e6036b1a48&#45;&gt;dir_b59d6e0e1db631c1aaa97e9d05ec23c1</title>
<path fill="none" stroke="black" d="M65.39,-71.7C69.76,-63.64 75.06,-53.89 79.9,-44.98"/>
<polygon fill="black" stroke="black" points="83.02,-46.56 84.71,-36.1 76.87,-43.22 83.02,-46.56"/>
<g id="a_edge1&#45;headlabel"><a xlink:href="dir_000037_000004.html" target="_top" xlink:title="10">
<text text-anchor="middle" x="83.8" y="-48.58" font-family="Helvetica,sans-Serif" font-size="10.00">10</text>
</a>
</g>
</g>
</g>
</svg>
