<?xml version="1.0" encoding="UTF-8" standalone="no"?>
<!DOCTYPE svg PUBLIC "-//W3C//DTD SVG 1.1//EN"
 "http://www.w3.org/Graphics/SVG/1.1/DTD/svg11.dtd">
<!-- Generated by graphviz version 2.43.0 (0)
 -->
<!-- Title: ACSL&#45;flightstack&#45;winged/src/acsl_flight/include/utils/flightstack_helpers Pages: 1 -->
<svg width="150pt" height="167pt"
 viewBox="0.00 0.00 150.00 167.00" xmlns="http://www.w3.org/2000/svg" xmlns:xlink="http://www.w3.org/1999/xlink">
<g id="graph0" class="graph" transform="scale(1 1) rotate(0) translate(4 163)">
<title>ACSL&#45;flightstack&#45;winged/src/acsl_flight/include/utils/flightstack_helpers</title>
<polygon fill="white" stroke="transparent" points="-4,4 -4,-163 146,-163 146,4 -4,4"/>
<g id="clust1" class="cluster">
<title>clusterdir_21e9e6473ae68b51f10683f3306be290</title>
<g id="a_clust1"><a xlink:href="dir_21e9e6473ae68b51f10683f3306be290.html" target="_top" xlink:title="utils">
<polygon fill="#ddddee" stroke="black" points="8,-8 8,-151 134,-151 134,-8 8,-8"/>
<text text-anchor="middle" x="71" y="-139" font-family="Helvetica,sans-Serif" font-size="10.00">utils</text>
</a>
</g>
</g>
<!-- dir_673955490f6f3f9e4d4cf376ad957318 -->
<g id="node1" class="node">
<title>dir_673955490f6f3f9e4d4cf376ad957318</title>
<g id="a_node1"><a xlink:href="dir_673955490f6f3f9e4d4cf376ad957318.html" target="_top" xlink:title="lyapunov_solver">
<polygon fill="none" stroke="black" points="119.5,-52 22.5,-52 22.5,-16 119.5,-16 119.5,-52"/>
<text text-anchor="middle" x="71" y="-31.5" font-family="Helvetica,sans-Serif" font-size="10.00">lyapunov_solver</text>
</a>
</g>
</g>
<!-- dir_07f18c2b80d85e75bcad381462cf5907 -->
<g id="node2" class="node">
<title>dir_07f18c2b80d85e75bcad381462cf5907</title>
<g id="a_node2"><a xlink:href="dir_07f18c2b80d85e75bcad381462cf5907.html" target="_top" xlink:title="flightstack_helpers">
<polygon fill="#eeeeff" stroke="black" points="125.5,-124 16.5,-124 16.5,-88 125.5,-88 125.5,-124"/>
<text text-anchor="middle" x="71" y="-103.5" font-family="Helvetica,sans-Serif" font-size="10.00">flightstack_helpers</text>
</a>
</g>
</g>
<!-- dir_07f18c2b80d85e75bcad381462cf5907&#45;&gt;dir_673955490f6f3f9e4d4cf376ad957318 -->
<g id="edge1" class="edge">
<title>dir_07f18c2b80d85e75bcad381462cf5907&#45;&gt;dir_673955490f6f3f9e4d4cf376ad957318</title>
<path fill="none" stroke="black" d="M71,-87.7C71,-79.98 71,-70.71 71,-62.11"/>
<polygon fill="black" stroke="black" points="74.5,-62.1 71,-52.1 67.5,-62.1 74.5,-62.1"/>
<g id="a_edge1&#45;headlabel"><a xlink:href="dir_000030_000031.html" target="_top" xlink:title="1">
<text text-anchor="middle" x="77.34" y="-63.2" font-family="Helvetica,sans-Serif" font-size="10.00">1</text>
</a>
</g>
</g>
</g>
</svg>
