<?xml version="1.0" encoding="UTF-8" standalone="no"?>
<!DOCTYPE svg PUBLIC "-//W3C//DTD SVG 1.1//EN"
 "http://www.w3.org/Graphics/SVG/1.1/DTD/svg11.dtd">
<!-- Generated by graphviz version 2.43.0 (0)
 -->
<!-- Title: ACSL&#45;flightstack&#45;winged/src/acsl_flight/include/read_pix Pages: 1 -->
<svg width="224pt" height="167pt"
 viewBox="0.00 0.00 224.00 167.00" xmlns="http://www.w3.org/2000/svg" xmlns:xlink="http://www.w3.org/1999/xlink">
<g id="graph0" class="graph" transform="scale(1 1) rotate(0) translate(4 163)">
<title>ACSL&#45;flightstack&#45;winged/src/acsl_flight/include/read_pix</title>
<polygon fill="white" stroke="transparent" points="-4,4 -4,-163 220,-163 220,4 -4,4"/>
<g id="clust1" class="cluster">
<title>clusterdir_b59d6e0e1db631c1aaa97e9d05ec23c1</title>
<g id="a_clust1"><a xlink:href="dir_b59d6e0e1db631c1aaa97e9d05ec23c1.html" target="_top" xlink:title="include">
<polygon fill="#ddddee" stroke="black" points="8,-8 8,-151 208,-151 208,-8 8,-8"/>
<text text-anchor="middle" x="108" y="-139" font-family="Helvetica,sans-Serif" font-size="10.00">include</text>
</a>
</g>
</g>
<!-- dir_91384f3ca66e108434602bccde0dca6a -->
<g id="node1" class="node">
<title>dir_91384f3ca66e108434602bccde0dca6a</title>
<g id="a_node1"><a xlink:href="dir_91384f3ca66e108434602bccde0dca6a.html" target="_top" xlink:title="vehicle_class">
<polygon fill="none" stroke="black" points="98,-52 16,-52 16,-16 98,-16 98,-52"/>
<text text-anchor="middle" x="57" y="-31.5" font-family="Helvetica,sans-Serif" font-size="10.00">vehicle_class</text>
</a>
</g>
</g>
<!-- dir_a7f5c1eab6a9db649807e802721f3c44 -->
<g id="node2" class="node">
<title>dir_a7f5c1eab6a9db649807e802721f3c44</title>
<g id="a_node2"><a xlink:href="dir_a7f5c1eab6a9db649807e802721f3c44.html" target="_top" xlink:title="flight_params">
<polygon fill="none" stroke="black" points="199.5,-52 116.5,-52 116.5,-16 199.5,-16 199.5,-52"/>
<text text-anchor="middle" x="158" y="-31.5" font-family="Helvetica,sans-Serif" font-size="10.00">flight_params</text>
</a>
</g>
</g>
<!-- dir_01cb7144c76989b29a79f3c9e4dc792f -->
<g id="node3" class="node">
<title>dir_01cb7144c76989b29a79f3c9e4dc792f</title>
<g id="a_node3"><a xlink:href="dir_01cb7144c76989b29a79f3c9e4dc792f.html" target="_top" xlink:title="read_pix">
<polygon fill="#eeeeff" stroke="black" points="136.5,-124 77.5,-124 77.5,-88 136.5,-88 136.5,-124"/>
<text text-anchor="middle" x="107" y="-103.5" font-family="Helvetica,sans-Serif" font-size="10.00">read_pix</text>
</a>
</g>
</g>
<!-- dir_01cb7144c76989b29a79f3c9e4dc792f&#45;&gt;dir_91384f3ca66e108434602bccde0dca6a -->
<g id="edge1" class="edge">
<title>dir_01cb7144c76989b29a79f3c9e4dc792f&#45;&gt;dir_91384f3ca66e108434602bccde0dca6a</title>
<path fill="none" stroke="black" d="M94.64,-87.7C88.77,-79.47 81.63,-69.48 75.16,-60.42"/>
<polygon fill="black" stroke="black" points="77.88,-58.21 69.22,-52.1 72.18,-62.28 77.88,-58.21"/>
<g id="a_edge1&#45;headlabel"><a xlink:href="dir_000025_000033.html" target="_top" xlink:title="1">
<text text-anchor="middle" x="82.28" y="-56.98" font-family="Helvetica,sans-Serif" font-size="10.00">1</text>
</a>
</g>
</g>
<!-- dir_01cb7144c76989b29a79f3c9e4dc792f&#45;&gt;dir_a7f5c1eab6a9db649807e802721f3c44 -->
<g id="edge2" class="edge">
<title>dir_01cb7144c76989b29a79f3c9e4dc792f&#45;&gt;dir_a7f5c1eab6a9db649807e802721f3c44</title>
<path fill="none" stroke="black" d="M119.61,-87.7C125.6,-79.47 132.88,-69.48 139.48,-60.42"/>
<polygon fill="black" stroke="black" points="142.48,-62.25 145.54,-52.1 136.82,-58.13 142.48,-62.25"/>
<g id="a_edge2&#45;headlabel"><a xlink:href="dir_000025_000019.html" target="_top" xlink:title="1">
<text text-anchor="middle" x="142.66" y="-64.32" font-family="Helvetica,sans-Serif" font-size="10.00">1</text>
</a>
</g>
</g>
</g>
</svg>
