<?xml version="1.0" encoding="UTF-8" standalone="no"?>
<!DOCTYPE svg PUBLIC "-//W3C//DTD SVG 1.1//EN"
 "http://www.w3.org/Graphics/SVG/1.1/DTD/svg11.dtd">
<!-- Generated by graphviz version 2.43.0 (0)
 -->
<!-- Title: ACSL&#45;flightstack&#45;winged/src/acsl_flight/include/vio Pages: 1 -->
<svg width="134pt" height="311pt"
 viewBox="0.00 0.00 134.00 311.00" xmlns="http://www.w3.org/2000/svg" xmlns:xlink="http://www.w3.org/1999/xlink">
<g id="graph0" class="graph" transform="scale(1 1) rotate(0) translate(4 307)">
<title>ACSL&#45;flightstack&#45;winged/src/acsl_flight/include/vio</title>
<polygon fill="white" stroke="transparent" points="-4,4 -4,-307 130,-307 130,4 -4,4"/>
<g id="clust1" class="cluster">
<title>clusterdir_b59d6e0e1db631c1aaa97e9d05ec23c1</title>
<g id="a_clust1"><a xlink:href="dir_b59d6e0e1db631c1aaa97e9d05ec23c1.html" target="_top" xlink:title="include">
<polygon fill="#ddddee" stroke="black" points="8,-8 8,-295 118,-295 118,-8 8,-8"/>
<text text-anchor="middle" x="63" y="-283" font-family="Helvetica,sans-Serif" font-size="10.00">include</text>
</a>
</g>
</g>
<!-- dir_16b06bd99d94bcbd51e36f39541e14af -->
<g id="node1" class="node">
<title>dir_16b06bd99d94bcbd51e36f39541e14af</title>
<g id="a_node1"><a xlink:href="dir_16b06bd99d94bcbd51e36f39541e14af.html" target="_top" xlink:title="control">
<polygon fill="white" stroke="red" points="70,-196 16,-196 16,-160 70,-160 70,-196"/>
<text text-anchor="middle" x="43" y="-175.5" font-family="Helvetica,sans-Serif" font-size="10.00">control</text>
</a>
</g>
</g>
<!-- dir_21e9e6473ae68b51f10683f3306be290 -->
<g id="node2" class="node">
<title>dir_21e9e6473ae68b51f10683f3306be290</title>
<g id="a_node2"><a xlink:href="dir_21e9e6473ae68b51f10683f3306be290.html" target="_top" xlink:title="utils">
<polygon fill="white" stroke="red" points="90,-124 36,-124 36,-88 90,-88 90,-124"/>
<text text-anchor="middle" x="63" y="-103.5" font-family="Helvetica,sans-Serif" font-size="10.00">utils</text>
</a>
</g>
</g>
<!-- dir_16b06bd99d94bcbd51e36f39541e14af&#45;&gt;dir_21e9e6473ae68b51f10683f3306be290 -->
<g id="edge5" class="edge">
<title>dir_16b06bd99d94bcbd51e36f39541e14af&#45;&gt;dir_21e9e6473ae68b51f10683f3306be290</title>
<path fill="none" stroke="black" d="M47.94,-159.7C50.17,-151.9 52.85,-142.51 55.33,-133.83"/>
<polygon fill="black" stroke="black" points="58.73,-134.68 58.11,-124.1 52,-132.76 58.73,-134.68"/>
<g id="a_edge5&#45;headlabel"><a xlink:href="dir_000005_000026.html" target="_top" xlink:title="18">
<text text-anchor="middle" x="60.47" y="-136.42" font-family="Helvetica,sans-Serif" font-size="10.00">18</text>
</a>
</g>
</g>
<!-- dir_91384f3ca66e108434602bccde0dca6a -->
<g id="node3" class="node">
<title>dir_91384f3ca66e108434602bccde0dca6a</title>
<g id="a_node3"><a xlink:href="dir_91384f3ca66e108434602bccde0dca6a.html" target="_top" xlink:title="vehicle_class">
<polygon fill="none" stroke="black" points="104,-52 22,-52 22,-16 104,-16 104,-52"/>
<text text-anchor="middle" x="63" y="-31.5" font-family="Helvetica,sans-Serif" font-size="10.00">vehicle_class</text>
</a>
</g>
</g>
<!-- dir_16b06bd99d94bcbd51e36f39541e14af&#45;&gt;dir_91384f3ca66e108434602bccde0dca6a -->
<g id="edge6" class="edge">
<title>dir_16b06bd99d94bcbd51e36f39541e14af&#45;&gt;dir_91384f3ca66e108434602bccde0dca6a</title>
<path fill="none" stroke="black" d="M35.22,-159.98C28.02,-141.85 19.48,-112.46 27,-88 30.01,-78.22 35.51,-68.62 41.32,-60.33"/>
<polygon fill="black" stroke="black" points="44.19,-62.33 47.39,-52.23 38.59,-58.13 44.19,-62.33"/>
<g id="a_edge6&#45;headlabel"><a xlink:href="dir_000005_000033.html" target="_top" xlink:title="1">
<text text-anchor="middle" x="44.31" y="-64.41" font-family="Helvetica,sans-Serif" font-size="10.00">1</text>
</a>
</g>
</g>
<!-- dir_21e9e6473ae68b51f10683f3306be290&#45;&gt;dir_91384f3ca66e108434602bccde0dca6a -->
<g id="edge4" class="edge">
<title>dir_21e9e6473ae68b51f10683f3306be290&#45;&gt;dir_91384f3ca66e108434602bccde0dca6a</title>
<path fill="none" stroke="black" d="M63,-87.7C63,-79.98 63,-70.71 63,-62.11"/>
<polygon fill="black" stroke="black" points="66.5,-62.1 63,-52.1 59.5,-62.1 66.5,-62.1"/>
<g id="a_edge4&#45;headlabel"><a xlink:href="dir_000026_000033.html" target="_top" xlink:title="1">
<text text-anchor="middle" x="69.34" y="-63.2" font-family="Helvetica,sans-Serif" font-size="10.00">1</text>
</a>
</g>
</g>
<!-- dir_19e0355432fca8646d27743e85495d16 -->
<g id="node4" class="node">
<title>dir_19e0355432fca8646d27743e85495d16</title>
<g id="a_node4"><a xlink:href="dir_19e0355432fca8646d27743e85495d16.html" target="_top" xlink:title="vio">
<polygon fill="#eeeeff" stroke="black" points="110,-268 56,-268 56,-232 110,-232 110,-268"/>
<text text-anchor="middle" x="83" y="-247.5" font-family="Helvetica,sans-Serif" font-size="10.00">vio</text>
</a>
</g>
</g>
<!-- dir_19e0355432fca8646d27743e85495d16&#45;&gt;dir_16b06bd99d94bcbd51e36f39541e14af -->
<g id="edge1" class="edge">
<title>dir_19e0355432fca8646d27743e85495d16&#45;&gt;dir_16b06bd99d94bcbd51e36f39541e14af</title>
<path fill="none" stroke="black" d="M73.11,-231.7C68.51,-223.64 62.94,-213.89 57.85,-204.98"/>
<polygon fill="black" stroke="black" points="60.77,-203.05 52.77,-196.1 54.7,-206.52 60.77,-203.05"/>
<g id="a_edge1&#45;headlabel"><a xlink:href="dir_000034_000005.html" target="_top" xlink:title="1">
<text text-anchor="middle" x="65.02" y="-202.26" font-family="Helvetica,sans-Serif" font-size="10.00">1</text>
</a>
</g>
</g>
<!-- dir_19e0355432fca8646d27743e85495d16&#45;&gt;dir_21e9e6473ae68b51f10683f3306be290 -->
<g id="edge2" class="edge">
<title>dir_19e0355432fca8646d27743e85495d16&#45;&gt;dir_21e9e6473ae68b51f10683f3306be290</title>
<path fill="none" stroke="black" d="M83.48,-231.8C83.7,-213.78 83.22,-184.7 79,-160 77.53,-151.38 75.08,-142.19 72.54,-133.93"/>
<polygon fill="black" stroke="black" points="75.86,-132.84 69.45,-124.4 69.21,-135 75.86,-132.84"/>
<g id="a_edge2&#45;headlabel"><a xlink:href="dir_000034_000026.html" target="_top" xlink:title="4">
<text text-anchor="middle" x="79.67" y="-132.88" font-family="Helvetica,sans-Serif" font-size="10.00">4</text>
</a>
</g>
</g>
<!-- dir_19e0355432fca8646d27743e85495d16&#45;&gt;dir_91384f3ca66e108434602bccde0dca6a -->
<g id="edge3" class="edge">
<title>dir_19e0355432fca8646d27743e85495d16&#45;&gt;dir_91384f3ca66e108434602bccde0dca6a</title>
<path fill="none" stroke="black" d="M89.07,-231.64C98.62,-201.64 114.52,-138.47 99,-88 95.99,-78.22 90.49,-68.62 84.68,-60.33"/>
<polygon fill="black" stroke="black" points="87.41,-58.13 78.61,-52.23 81.81,-62.33 87.41,-58.13"/>
<g id="a_edge3&#45;headlabel"><a xlink:href="dir_000034_000033.html" target="_top" xlink:title="1">
<text text-anchor="middle" x="91.83" y="-56.8" font-family="Helvetica,sans-Serif" font-size="10.00">1</text>
</a>
</g>
</g>
</g>
</svg>
