<?xml version="1.0" encoding="UTF-8" standalone="no"?>
<!DOCTYPE svg PUBLIC "-//W3C//DTD SVG 1.1//EN"
 "http://www.w3.org/Graphics/SVG/1.1/DTD/svg11.dtd">
<!-- Generated by graphviz version 2.43.0 (0)
 -->
<!-- Title: ACSL&#45;flightstack&#45;winged/src/acsl_flight/include Pages: 1 -->
<!--zoomable 399 -->
<svg id="main" version="1.1" xmlns="http://www.w3.org/2000/svg" xmlns:xlink="http://www.w3.org/1999/xlink" xml:space="preserve" onload="init(evt)">
<style type="text/css"><![CDATA[
.edge:hover path { stroke: red; }
.edge:hover polygon { stroke: red; fill: red; }
]]></style>
<script type="text/javascript"><![CDATA[
var edges = document.getElementsByTagName('g');
if (edges && edges.length) {
  for (var i=0;i<edges.length;i++) {
    if (edges[i].id.substr(0,4)=='edge') {
      edges[i].setAttribute('class','edge');
    }
  }
}
]]></script>
        <defs>
                <circle id="rim" cx="0" cy="0" r="7"/>
                <circle id="rim2" cx="0" cy="0" r="3.5"/>
                <g id="zoomPlus">
                        <use xlink:href="#rim" fill="#404040">
                                <set attributeName="fill" to="#808080" begin="zoomplus.mouseover" end="zoomplus.mouseout"/>
                        </use>
                        <path d="M-4,0h8M0,-4v8" fill="none" stroke="white" stroke-width="1.5" pointer-events="none"/>
                </g>
                <g id="zoomMin">
                        <use xlink:href="#rim" fill="#404040">
                                <set attributeName="fill" to="#808080" begin="zoomminus.mouseover" end="zoomminus.mouseout"/>
                        </use>
                        <path d="M-4,0h8" fill="none" stroke="white" stroke-width="1.5" pointer-events="none"/>
                </g>
                <g id="dirArrow">
                        <path fill="none" stroke="white" stroke-width="1.5" d="M0,-3.0v7 M-2.5,-0.5L0,-3.0L2.5,-0.5"/>
                </g>
               <g id="resetDef">
                       <use xlink:href="#rim2" fill="#404040">
                               <set attributeName="fill" to="#808080" begin="reset.mouseover" end="reset.mouseout"/>
                       </use>
               </g>
        </defs>

<script type="text/javascript">
var viewWidth = 518;
var viewHeight = 399;
var sectionId = 'dynsection-0';
</script>
<script xlink:href="svgpan.js"/>
<svg id="graph" class="graph">
<g id="viewport">
<title>ACSL&#45;flightstack&#45;winged/src/acsl_flight/include</title>
<polygon fill="white" stroke="transparent" points="-4,4 -4,-395 514,-395 514,4 -4,4"/>
<g id="clust1" class="cluster">
<title>clusterdir_a964ec745bb3c23b753cfa036932779d</title>
<g id="a_clust1"><a xlink:href="dir_a964ec745bb3c23b753cfa036932779d.html" target="_top" xlink:title="acsl_flight">
<polygon fill="#ddddee" stroke="black" points="8,-8 8,-383 502,-383 502,-8 8,-8"/>
<text text-anchor="middle" x="255" y="-371" font-family="Helvetica,sans-Serif" font-size="10.00">acsl_flight</text>
</a>
</g>
</g>
<g id="clust2" class="cluster">
<title>clusterdir_b59d6e0e1db631c1aaa97e9d05ec23c1</title>
<g id="a_clust2"><a xlink:href="dir_b59d6e0e1db631c1aaa97e9d05ec23c1.html" target="_top">
<polygon fill="#eeeeff" stroke="black" points="16,-16 16,-356 494,-356 494,-16 16,-16"/>
</a>
</g>
</g>
<!-- dir_b59d6e0e1db631c1aaa97e9d05ec23c1 -->
<g id="node1" class="node">
<title>dir_b59d6e0e1db631c1aaa97e9d05ec23c1</title>
<text text-anchor="middle" x="445" y="-327.5" font-family="Helvetica,sans-Serif" font-size="10.00">include</text>
</g>
<!-- dir_16b06bd99d94bcbd51e36f39541e14af -->
<g id="node2" class="node">
<title>dir_16b06bd99d94bcbd51e36f39541e14af</title>
<g id="a_node2"><a xlink:href="dir_16b06bd99d94bcbd51e36f39541e14af.html" target="_top" xlink:title="control">
<polygon fill="white" stroke="red" points="229,-348 175,-348 175,-312 229,-312 229,-348"/>
<text text-anchor="middle" x="202" y="-327.5" font-family="Helvetica,sans-Serif" font-size="10.00">control</text>
</a>
</g>
</g>
<!-- dir_56c205456dc4fe9727e9169e57f90230 -->
<g id="node3" class="node">
<title>dir_56c205456dc4fe9727e9169e57f90230</title>
<g id="a_node3"><a xlink:href="dir_56c205456dc4fe9727e9169e57f90230.html" target="_top" xlink:title="flight_bridge">
<polygon fill="white" stroke="black" points="285.5,-276 208.5,-276 208.5,-240 285.5,-240 285.5,-276"/>
<text text-anchor="middle" x="247" y="-255.5" font-family="Helvetica,sans-Serif" font-size="10.00">flight_bridge</text>
</a>
</g>
</g>
<!-- dir_16b06bd99d94bcbd51e36f39541e14af&#45;&gt;dir_56c205456dc4fe9727e9169e57f90230 -->
<g id="edge19" class="edge">
<title>dir_16b06bd99d94bcbd51e36f39541e14af&#45;&gt;dir_56c205456dc4fe9727e9169e57f90230</title>
<path fill="none" stroke="black" d="M207.21,-311.7C211.65,-303.47 217.87,-293.48 224.14,-284.42"/>
<polygon fill="black" stroke="black" points="227.12,-286.27 230.11,-276.1 221.43,-282.19 227.12,-286.27"/>
<g id="a_edge19&#45;headlabel"><a xlink:href="dir_000005_000017.html" target="_top" xlink:title="1">
<text text-anchor="middle" x="227.33" y="-288.34" font-family="Helvetica,sans-Serif" font-size="10.00">1</text>
</a>
</g>
</g>
<!-- dir_a7f5c1eab6a9db649807e802721f3c44 -->
<g id="node5" class="node">
<title>dir_a7f5c1eab6a9db649807e802721f3c44</title>
<g id="a_node5"><a xlink:href="dir_a7f5c1eab6a9db649807e802721f3c44.html" target="_top" xlink:title="flight_params">
<polygon fill="white" stroke="black" points="399.5,-60 316.5,-60 316.5,-24 399.5,-24 399.5,-60"/>
<text text-anchor="middle" x="358" y="-39.5" font-family="Helvetica,sans-Serif" font-size="10.00">flight_params</text>
</a>
</g>
</g>
<!-- dir_16b06bd99d94bcbd51e36f39541e14af&#45;&gt;dir_a7f5c1eab6a9db649807e802721f3c44 -->
<g id="edge21" class="edge">
<title>dir_16b06bd99d94bcbd51e36f39541e14af&#45;&gt;dir_a7f5c1eab6a9db649807e802721f3c44</title>
<path fill="none" stroke="black" d="M229.14,-324.54C281.98,-314.21 397.65,-283.2 445,-204 459.42,-179.88 431.3,-101.06 428,-96 420.38,-84.29 409.24,-74.18 398.08,-66.01"/>
<polygon fill="black" stroke="black" points="399.82,-62.96 389.61,-60.16 395.84,-68.72 399.82,-62.96"/>
<g id="a_edge21&#45;headlabel"><a xlink:href="dir_000005_000019.html" target="_top" xlink:title="1">
<text text-anchor="middle" x="404.39" y="-60.17" font-family="Helvetica,sans-Serif" font-size="10.00">1</text>
</a>
</g>
</g>
<!-- dir_653c48f60ee8ceb0961c6a3849e63394 -->
<g id="node7" class="node">
<title>dir_653c48f60ee8ceb0961c6a3849e63394</title>
<g id="a_node7"><a xlink:href="dir_653c48f60ee8ceb0961c6a3849e63394.html" target="_top" xlink:title="piecewise_polynomial_trajectory">
<polygon fill="white" stroke="black" points="426,-204 248,-204 248,-168 426,-168 426,-204"/>
<text text-anchor="middle" x="337" y="-183.5" font-family="Helvetica,sans-Serif" font-size="10.00">piecewise_polynomial_trajectory</text>
</a>
</g>
</g>
<!-- dir_16b06bd99d94bcbd51e36f39541e14af&#45;&gt;dir_653c48f60ee8ceb0961c6a3849e63394 -->
<g id="edge22" class="edge">
<title>dir_16b06bd99d94bcbd51e36f39541e14af&#45;&gt;dir_653c48f60ee8ceb0961c6a3849e63394</title>
<path fill="none" stroke="black" d="M229.39,-318.72C249.67,-309.95 276.82,-295.64 295,-276 311.43,-258.25 322.53,-232.92 329.17,-213.82"/>
<polygon fill="black" stroke="black" points="332.54,-214.79 332.33,-204.2 325.89,-212.61 332.54,-214.79"/>
<g id="a_edge22&#45;headlabel"><a xlink:href="dir_000005_000024.html" target="_top" xlink:title="5">
<text text-anchor="middle" x="334.12" y="-216.59" font-family="Helvetica,sans-Serif" font-size="10.00">5</text>
</a>
</g>
</g>
<!-- dir_21e9e6473ae68b51f10683f3306be290 -->
<g id="node9" class="node">
<title>dir_21e9e6473ae68b51f10683f3306be290</title>
<g id="a_node9"><a xlink:href="dir_21e9e6473ae68b51f10683f3306be290.html" target="_top" xlink:title="utils">
<polygon fill="white" stroke="red" points="261,-132 207,-132 207,-96 261,-96 261,-132"/>
<text text-anchor="middle" x="234" y="-111.5" font-family="Helvetica,sans-Serif" font-size="10.00">utils</text>
</a>
</g>
</g>
<!-- dir_16b06bd99d94bcbd51e36f39541e14af&#45;&gt;dir_21e9e6473ae68b51f10683f3306be290 -->
<g id="edge18" class="edge">
<title>dir_16b06bd99d94bcbd51e36f39541e14af&#45;&gt;dir_21e9e6473ae68b51f10683f3306be290</title>
<path fill="none" stroke="black" d="M201.19,-311.82C200.74,-301.45 200.23,-287.97 200,-276 199.7,-260 197.88,-255.86 200,-240 204.63,-205.32 216.19,-166.63 224.55,-141.61"/>
<polygon fill="black" stroke="black" points="227.88,-142.69 227.79,-132.09 221.25,-140.43 227.88,-142.69"/>
<g id="a_edge18&#45;headlabel"><a xlink:href="dir_000005_000026.html" target="_top" xlink:title="18">
<text text-anchor="middle" x="229.4" y="-144.51" font-family="Helvetica,sans-Serif" font-size="10.00">18</text>
</a>
</g>
</g>
<!-- dir_91384f3ca66e108434602bccde0dca6a -->
<g id="node10" class="node">
<title>dir_91384f3ca66e108434602bccde0dca6a</title>
<g id="a_node10"><a xlink:href="dir_91384f3ca66e108434602bccde0dca6a.html" target="_top" xlink:title="vehicle_class">
<polygon fill="white" stroke="black" points="219,-60 137,-60 137,-24 219,-24 219,-60"/>
<text text-anchor="middle" x="178" y="-39.5" font-family="Helvetica,sans-Serif" font-size="10.00">vehicle_class</text>
</a>
</g>
</g>
<!-- dir_16b06bd99d94bcbd51e36f39541e14af&#45;&gt;dir_91384f3ca66e108434602bccde0dca6a -->
<g id="edge20" class="edge">
<title>dir_16b06bd99d94bcbd51e36f39541e14af&#45;&gt;dir_91384f3ca66e108434602bccde0dca6a</title>
<path fill="none" stroke="black" d="M174.69,-318.62C134.72,-301.68 62.11,-263.88 35,-204 8.53,-145.53 81.88,-93.07 133.07,-64.86"/>
<polygon fill="black" stroke="black" points="134.88,-67.86 142.03,-60.04 131.56,-61.7 134.88,-67.86"/>
<g id="a_edge20&#45;headlabel"><a xlink:href="dir_000005_000033.html" target="_top" xlink:title="1">
<text text-anchor="middle" x="133.06" y="-69.56" font-family="Helvetica,sans-Serif" font-size="10.00">1</text>
</a>
</g>
</g>
<!-- dir_56c205456dc4fe9727e9169e57f90230&#45;&gt;dir_16b06bd99d94bcbd51e36f39541e14af -->
<g id="edge3" class="edge">
<title>dir_56c205456dc4fe9727e9169e57f90230&#45;&gt;dir_16b06bd99d94bcbd51e36f39541e14af</title>
<path fill="none" stroke="black" d="M241.9,-276.1C237.49,-284.3 231.28,-294.28 225.01,-303.36"/>
<polygon fill="black" stroke="black" points="222.02,-301.53 219.04,-311.7 227.71,-305.61 222.02,-301.53"/>
<g id="a_edge3&#45;headlabel"><a xlink:href="dir_000017_000005.html" target="_top" xlink:title="2">
<text text-anchor="middle" x="221.81" y="-294.45" font-family="Helvetica,sans-Serif" font-size="10.00">2</text>
</a>
</g>
</g>
<!-- dir_56c205456dc4fe9727e9169e57f90230&#45;&gt;dir_a7f5c1eab6a9db649807e802721f3c44 -->
<g id="edge7" class="edge">
<title>dir_56c205456dc4fe9727e9169e57f90230&#45;&gt;dir_a7f5c1eab6a9db649807e802721f3c44</title>
<path fill="none" stroke="black" d="M285.75,-251.61C335.35,-243.83 417.04,-227.72 435,-204 468.03,-160.36 418.82,-100.29 385.13,-67.24"/>
<polygon fill="black" stroke="black" points="387.45,-64.61 377.8,-60.23 382.61,-69.67 387.45,-64.61"/>
<g id="a_edge7&#45;headlabel"><a xlink:href="dir_000017_000019.html" target="_top" xlink:title="1">
<text text-anchor="middle" x="392.01" y="-62.54" font-family="Helvetica,sans-Serif" font-size="10.00">1</text>
</a>
</g>
</g>
<!-- dir_24e1b6e1c79d753179c206c8bcc4a2aa -->
<g id="node6" class="node">
<title>dir_24e1b6e1c79d753179c206c8bcc4a2aa</title>
<g id="a_node6"><a xlink:href="dir_24e1b6e1c79d753179c206c8bcc4a2aa.html" target="_top" xlink:title="mocap">
<polygon fill="white" stroke="red" points="170,-204 116,-204 116,-168 170,-168 170,-204"/>
<text text-anchor="middle" x="143" y="-183.5" font-family="Helvetica,sans-Serif" font-size="10.00">mocap</text>
</a>
</g>
</g>
<!-- dir_56c205456dc4fe9727e9169e57f90230&#45;&gt;dir_24e1b6e1c79d753179c206c8bcc4a2aa -->
<g id="edge5" class="edge">
<title>dir_56c205456dc4fe9727e9169e57f90230&#45;&gt;dir_24e1b6e1c79d753179c206c8bcc4a2aa</title>
<path fill="none" stroke="black" d="M221.56,-239.88C208.21,-230.89 191.68,-219.76 177.22,-210.03"/>
<polygon fill="black" stroke="black" points="178.79,-206.87 168.54,-204.19 174.88,-212.68 178.79,-206.87"/>
<g id="a_edge5&#45;headlabel"><a xlink:href="dir_000017_000020.html" target="_top" xlink:title="1">
<text text-anchor="middle" x="183.36" y="-204.02" font-family="Helvetica,sans-Serif" font-size="10.00">1</text>
</a>
</g>
</g>
<!-- dir_01cb7144c76989b29a79f3c9e4dc792f -->
<g id="node8" class="node">
<title>dir_01cb7144c76989b29a79f3c9e4dc792f</title>
<g id="a_node8"><a xlink:href="dir_01cb7144c76989b29a79f3c9e4dc792f.html" target="_top" xlink:title="read_pix">
<polygon fill="white" stroke="black" points="338.5,-132 279.5,-132 279.5,-96 338.5,-96 338.5,-132"/>
<text text-anchor="middle" x="309" y="-111.5" font-family="Helvetica,sans-Serif" font-size="10.00">read_pix</text>
</a>
</g>
</g>
<!-- dir_56c205456dc4fe9727e9169e57f90230&#45;&gt;dir_01cb7144c76989b29a79f3c9e4dc792f -->
<g id="edge2" class="edge">
<title>dir_56c205456dc4fe9727e9169e57f90230&#45;&gt;dir_01cb7144c76989b29a79f3c9e4dc792f</title>
<path fill="none" stroke="black" d="M240.37,-239.95C234.22,-221.27 227.6,-190.92 239,-168 245.89,-154.14 258.33,-142.93 270.84,-134.46"/>
<polygon fill="black" stroke="black" points="272.85,-137.33 279.43,-129.03 269.11,-131.41 272.85,-137.33"/>
<g id="a_edge2&#45;headlabel"><a xlink:href="dir_000017_000025.html" target="_top" xlink:title="1">
<text text-anchor="middle" x="271.32" y="-139.15" font-family="Helvetica,sans-Serif" font-size="10.00">1</text>
</a>
</g>
</g>
<!-- dir_56c205456dc4fe9727e9169e57f90230&#45;&gt;dir_91384f3ca66e108434602bccde0dca6a -->
<g id="edge6" class="edge">
<title>dir_56c205456dc4fe9727e9169e57f90230&#45;&gt;dir_91384f3ca66e108434602bccde0dca6a</title>
<path fill="none" stroke="black" d="M239.33,-239.91C228.88,-216.1 210.09,-171.45 198,-132 191.75,-111.59 186.53,-88 183,-70.24"/>
<polygon fill="black" stroke="black" points="186.41,-69.42 181.07,-60.26 179.53,-70.75 186.41,-69.42"/>
<g id="a_edge6&#45;headlabel"><a xlink:href="dir_000017_000033.html" target="_top" xlink:title="1">
<text text-anchor="middle" x="189.88" y="-69.91" font-family="Helvetica,sans-Serif" font-size="10.00">1</text>
</a>
</g>
</g>
<!-- dir_19e0355432fca8646d27743e85495d16 -->
<g id="node11" class="node">
<title>dir_19e0355432fca8646d27743e85495d16</title>
<g id="a_node11"><a xlink:href="dir_19e0355432fca8646d27743e85495d16.html" target="_top" xlink:title="vio">
<polygon fill="white" stroke="black" points="98,-204 44,-204 44,-168 98,-168 98,-204"/>
<text text-anchor="middle" x="71" y="-183.5" font-family="Helvetica,sans-Serif" font-size="10.00">vio</text>
</a>
</g>
</g>
<!-- dir_56c205456dc4fe9727e9169e57f90230&#45;&gt;dir_19e0355432fca8646d27743e85495d16 -->
<g id="edge4" class="edge">
<title>dir_56c205456dc4fe9727e9169e57f90230&#45;&gt;dir_19e0355432fca8646d27743e85495d16</title>
<path fill="none" stroke="black" d="M208.35,-243.3C182.15,-233.81 146.61,-220.53 107.5,-204.06"/>
<polygon fill="black" stroke="black" points="108.6,-200.73 98.02,-200.04 105.86,-207.17 108.6,-200.73"/>
<g id="a_edge4&#45;headlabel"><a xlink:href="dir_000017_000034.html" target="_top" xlink:title="1">
<text text-anchor="middle" x="113.01" y="-197.02" font-family="Helvetica,sans-Serif" font-size="10.00">1</text>
</a>
</g>
</g>
<!-- dir_90644455f2d345de552edf45956f4bf6 -->
<g id="node4" class="node">
<title>dir_90644455f2d345de552edf45956f4bf6</title>
<g id="a_node4"><a xlink:href="dir_90644455f2d345de552edf45956f4bf6.html" target="_top" xlink:title="flight_main">
<polygon fill="white" stroke="black" points="372.5,-348 301.5,-348 301.5,-312 372.5,-312 372.5,-348"/>
<text text-anchor="middle" x="337" y="-327.5" font-family="Helvetica,sans-Serif" font-size="10.00">flight_main</text>
</a>
</g>
</g>
<!-- dir_90644455f2d345de552edf45956f4bf6&#45;&gt;dir_56c205456dc4fe9727e9169e57f90230 -->
<g id="edge11" class="edge">
<title>dir_90644455f2d345de552edf45956f4bf6&#45;&gt;dir_56c205456dc4fe9727e9169e57f90230</title>
<path fill="none" stroke="black" d="M314.75,-311.7C303.42,-302.88 289.47,-292.03 277.18,-282.47"/>
<polygon fill="black" stroke="black" points="279.03,-279.48 268.99,-276.1 274.74,-285.01 279.03,-279.48"/>
<g id="a_edge11&#45;headlabel"><a xlink:href="dir_000018_000017.html" target="_top" xlink:title="1">
<text text-anchor="middle" x="283.61" y="-276.95" font-family="Helvetica,sans-Serif" font-size="10.00">1</text>
</a>
</g>
</g>
<!-- dir_90644455f2d345de552edf45956f4bf6&#45;&gt;dir_a7f5c1eab6a9db649807e802721f3c44 -->
<g id="edge12" class="edge">
<title>dir_90644455f2d345de552edf45956f4bf6&#45;&gt;dir_a7f5c1eab6a9db649807e802721f3c44</title>
<path fill="none" stroke="black" d="M372.73,-319.64C408.13,-309.57 458.67,-292.72 470,-276 514.89,-209.78 512.79,-163.59 470,-96 456.51,-74.69 431.88,-61.78 409.15,-54.05"/>
<polygon fill="black" stroke="black" points="410.15,-50.7 399.56,-51.04 408.05,-57.38 410.15,-50.7"/>
<g id="a_edge12&#45;headlabel"><a xlink:href="dir_000018_000019.html" target="_top" xlink:title="1">
<text text-anchor="middle" x="414.43" y="-46.56" font-family="Helvetica,sans-Serif" font-size="10.00">1</text>
</a>
</g>
</g>
<!-- dir_a7f5c1eab6a9db649807e802721f3c44&#45;&gt;dir_21e9e6473ae68b51f10683f3306be290 -->
<g id="edge1" class="edge">
<title>dir_a7f5c1eab6a9db649807e802721f3c44&#45;&gt;dir_21e9e6473ae68b51f10683f3306be290</title>
<path fill="none" stroke="black" d="M333.41,-60.22C315.28,-71.09 290.51,-85.07 270.17,-95.91"/>
<polygon fill="black" stroke="black" points="268.39,-92.89 261.17,-100.65 271.65,-99.08 268.39,-92.89"/>
<g id="a_edge1&#45;headlabel"><a xlink:href="dir_000019_000026.html" target="_top" xlink:title="2">
<text text-anchor="middle" x="270.25" y="-86.2" font-family="Helvetica,sans-Serif" font-size="10.00">2</text>
</a>
</g>
</g>
<!-- dir_24e1b6e1c79d753179c206c8bcc4a2aa&#45;&gt;dir_16b06bd99d94bcbd51e36f39541e14af -->
<g id="edge13" class="edge">
<title>dir_24e1b6e1c79d753179c206c8bcc4a2aa&#45;&gt;dir_16b06bd99d94bcbd51e36f39541e14af</title>
<path fill="none" stroke="black" d="M150.14,-204.19C160.3,-228.64 179.01,-273.67 190.96,-302.44"/>
<polygon fill="black" stroke="black" points="187.81,-303.98 194.88,-311.87 194.28,-301.29 187.81,-303.98"/>
<g id="a_edge13&#45;headlabel"><a xlink:href="dir_000020_000005.html" target="_top" xlink:title="1">
<text text-anchor="middle" x="183.81" y="-299.25" font-family="Helvetica,sans-Serif" font-size="10.00">1</text>
</a>
</g>
</g>
<!-- dir_24e1b6e1c79d753179c206c8bcc4a2aa&#45;&gt;dir_21e9e6473ae68b51f10683f3306be290 -->
<g id="edge14" class="edge">
<title>dir_24e1b6e1c79d753179c206c8bcc4a2aa&#45;&gt;dir_21e9e6473ae68b51f10683f3306be290</title>
<path fill="none" stroke="black" d="M165.49,-167.7C176.96,-158.88 191.06,-148.03 203.48,-138.47"/>
<polygon fill="black" stroke="black" points="205.97,-140.98 211.76,-132.1 201.7,-135.43 205.97,-140.98"/>
<g id="a_edge14&#45;headlabel"><a xlink:href="dir_000020_000026.html" target="_top" xlink:title="4">
<text text-anchor="middle" x="204.85" y="-142.92" font-family="Helvetica,sans-Serif" font-size="10.00">4</text>
</a>
</g>
</g>
<!-- dir_24e1b6e1c79d753179c206c8bcc4a2aa&#45;&gt;dir_91384f3ca66e108434602bccde0dca6a -->
<g id="edge15" class="edge">
<title>dir_24e1b6e1c79d753179c206c8bcc4a2aa&#45;&gt;dir_91384f3ca66e108434602bccde0dca6a</title>
<path fill="none" stroke="black" d="M147.22,-167.87C153.21,-143.56 164.24,-98.82 171.34,-70.01"/>
<polygon fill="black" stroke="black" points="174.77,-70.74 173.76,-60.19 167.97,-69.06 174.77,-70.74"/>
<g id="a_edge15&#45;headlabel"><a xlink:href="dir_000020_000033.html" target="_top" xlink:title="1">
<text text-anchor="middle" x="176.66" y="-72.41" font-family="Helvetica,sans-Serif" font-size="10.00">1</text>
</a>
</g>
</g>
<!-- dir_653c48f60ee8ceb0961c6a3849e63394&#45;&gt;dir_a7f5c1eab6a9db649807e802721f3c44 -->
<g id="edge24" class="edge">
<title>dir_653c48f60ee8ceb0961c6a3849e63394&#45;&gt;dir_a7f5c1eab6a9db649807e802721f3c44</title>
<path fill="none" stroke="black" d="M340.97,-167.89C343.27,-157.54 346.07,-144.06 348,-132 351.29,-111.4 353.88,-87.95 355.59,-70.29"/>
<polygon fill="black" stroke="black" points="359.1,-70.41 356.55,-60.13 352.13,-69.75 359.1,-70.41"/>
<g id="a_edge24&#45;headlabel"><a xlink:href="dir_000024_000019.html" target="_top" xlink:title="1">
<text text-anchor="middle" x="361.59" y="-71.75" font-family="Helvetica,sans-Serif" font-size="10.00">1</text>
</a>
</g>
</g>
<!-- dir_653c48f60ee8ceb0961c6a3849e63394&#45;&gt;dir_21e9e6473ae68b51f10683f3306be290 -->
<g id="edge23" class="edge">
<title>dir_653c48f60ee8ceb0961c6a3849e63394&#45;&gt;dir_21e9e6473ae68b51f10683f3306be290</title>
<path fill="none" stroke="black" d="M311.8,-167.88C298.59,-158.89 282.21,-147.76 267.89,-138.03"/>
<polygon fill="black" stroke="black" points="269.53,-134.92 259.29,-132.19 265.6,-140.71 269.53,-134.92"/>
<g id="a_edge23&#45;headlabel"><a xlink:href="dir_000024_000026.html" target="_top" xlink:title="2">
<text text-anchor="middle" x="274.1" y="-132.09" font-family="Helvetica,sans-Serif" font-size="10.00">2</text>
</a>
</g>
</g>
<!-- dir_01cb7144c76989b29a79f3c9e4dc792f&#45;&gt;dir_a7f5c1eab6a9db649807e802721f3c44 -->
<g id="edge26" class="edge">
<title>dir_01cb7144c76989b29a79f3c9e4dc792f&#45;&gt;dir_a7f5c1eab6a9db649807e802721f3c44</title>
<path fill="none" stroke="black" d="M321.11,-95.7C326.87,-87.47 333.86,-77.48 340.21,-68.42"/>
<polygon fill="black" stroke="black" points="343.16,-70.3 346.03,-60.1 337.42,-66.29 343.16,-70.3"/>
<g id="a_edge26&#45;headlabel"><a xlink:href="dir_000025_000019.html" target="_top" xlink:title="1">
<text text-anchor="middle" x="343.42" y="-72.38" font-family="Helvetica,sans-Serif" font-size="10.00">1</text>
</a>
</g>
</g>
<!-- dir_01cb7144c76989b29a79f3c9e4dc792f&#45;&gt;dir_91384f3ca66e108434602bccde0dca6a -->
<g id="edge25" class="edge">
<title>dir_01cb7144c76989b29a79f3c9e4dc792f&#45;&gt;dir_91384f3ca66e108434602bccde0dca6a</title>
<path fill="none" stroke="black" d="M279.27,-97.12C261.42,-87.57 238.45,-75.3 218.89,-64.85"/>
<polygon fill="black" stroke="black" points="220.37,-61.67 209.9,-60.04 217.07,-67.84 220.37,-61.67"/>
<g id="a_edge25&#45;headlabel"><a xlink:href="dir_000025_000033.html" target="_top" xlink:title="1">
<text text-anchor="middle" x="224.87" y="-58.36" font-family="Helvetica,sans-Serif" font-size="10.00">1</text>
</a>
</g>
</g>
<!-- dir_21e9e6473ae68b51f10683f3306be290&#45;&gt;dir_a7f5c1eab6a9db649807e802721f3c44 -->
<g id="edge17" class="edge">
<title>dir_21e9e6473ae68b51f10683f3306be290&#45;&gt;dir_a7f5c1eab6a9db649807e802721f3c44</title>
<path fill="none" stroke="black" d="M258.44,-95.88C273.97,-86.55 294.45,-74.92 312.82,-64.94"/>
<polygon fill="black" stroke="black" points="314.5,-68.01 321.65,-60.19 311.18,-61.85 314.5,-68.01"/>
<g id="a_edge17&#45;headlabel"><a xlink:href="dir_000026_000019.html" target="_top" xlink:title="1">
<text text-anchor="middle" x="312.68" y="-69.72" font-family="Helvetica,sans-Serif" font-size="10.00">1</text>
</a>
</g>
</g>
<!-- dir_21e9e6473ae68b51f10683f3306be290&#45;&gt;dir_91384f3ca66e108434602bccde0dca6a -->
<g id="edge16" class="edge">
<title>dir_21e9e6473ae68b51f10683f3306be290&#45;&gt;dir_91384f3ca66e108434602bccde0dca6a</title>
<path fill="none" stroke="black" d="M220.16,-95.7C213.51,-87.39 205.42,-77.28 198.11,-68.14"/>
<polygon fill="black" stroke="black" points="200.66,-65.73 191.68,-60.1 195.2,-70.1 200.66,-65.73"/>
<g id="a_edge16&#45;headlabel"><a xlink:href="dir_000026_000033.html" target="_top" xlink:title="1">
<text text-anchor="middle" x="205.13" y="-64.26" font-family="Helvetica,sans-Serif" font-size="10.00">1</text>
</a>
</g>
</g>
<!-- dir_19e0355432fca8646d27743e85495d16&#45;&gt;dir_16b06bd99d94bcbd51e36f39541e14af -->
<g id="edge8" class="edge">
<title>dir_19e0355432fca8646d27743e85495d16&#45;&gt;dir_16b06bd99d94bcbd51e36f39541e14af</title>
<path fill="none" stroke="black" d="M86.86,-204.19C109.9,-229.17 152.78,-275.65 179.21,-304.3"/>
<polygon fill="black" stroke="black" points="176.85,-306.89 186.2,-311.87 181.99,-302.15 176.85,-306.89"/>
<g id="a_edge8&#45;headlabel"><a xlink:href="dir_000034_000005.html" target="_top" xlink:title="1">
<text text-anchor="middle" x="172.32" y="-303.68" font-family="Helvetica,sans-Serif" font-size="10.00">1</text>
</a>
</g>
</g>
<!-- dir_19e0355432fca8646d27743e85495d16&#45;&gt;dir_21e9e6473ae68b51f10683f3306be290 -->
<g id="edge9" class="edge">
<title>dir_19e0355432fca8646d27743e85495d16&#45;&gt;dir_21e9e6473ae68b51f10683f3306be290</title>
<path fill="none" stroke="black" d="M98.07,-172.06C101.07,-170.67 104.09,-169.29 107,-168 137.2,-154.58 171.84,-140.19 197.31,-129.79"/>
<polygon fill="black" stroke="black" points="198.65,-133.02 206.59,-126.01 196.01,-126.54 198.65,-133.02"/>
<g id="a_edge9&#45;headlabel"><a xlink:href="dir_000034_000026.html" target="_top" xlink:title="4">
<text text-anchor="middle" x="196.39" y="-134.51" font-family="Helvetica,sans-Serif" font-size="10.00">4</text>
</a>
</g>
</g>
<!-- dir_19e0355432fca8646d27743e85495d16&#45;&gt;dir_91384f3ca66e108434602bccde0dca6a -->
<g id="edge10" class="edge">
<title>dir_19e0355432fca8646d27743e85495d16&#45;&gt;dir_91384f3ca66e108434602bccde0dca6a</title>
<path fill="none" stroke="black" d="M83.91,-167.87C102.54,-143.14 137.13,-97.24 158.78,-68.51"/>
<polygon fill="black" stroke="black" points="161.82,-70.28 165.05,-60.19 156.23,-66.07 161.82,-70.28"/>
<g id="a_edge10&#45;headlabel"><a xlink:href="dir_000034_000033.html" target="_top" xlink:title="1">
<text text-anchor="middle" x="161.93" y="-72.36" font-family="Helvetica,sans-Serif" font-size="10.00">1</text>
</a>
</g>
</g>
</g>
</svg>
        <g id="navigator" transform="translate(0 0)" fill="#404254">
                <rect fill="#f2f5e9" fill-opacity="0.5" stroke="#606060" stroke-width=".5" x="0" y="0" width="60" height="60"/>
                <use id="zoomplus" xlink:href="#zoomPlus" x="17" y="9" onmousedown="handleZoom(evt,'in')"/>
                <use id="zoomminus" xlink:href="#zoomMin" x="42" y="9" onmousedown="handleZoom(evt,'out')"/>
                <use id="reset" xlink:href="#resetDef" x="30" y="36" onmousedown="handleReset()"/>
                <g id="arrowUp" xlink:href="#dirArrow" transform="translate(30 24)" onmousedown="handlePan(0,-1)">
                  <use xlink:href="#rim" fill="#404040">
                        <set attributeName="fill" to="#808080" begin="arrowUp.mouseover" end="arrowUp.mouseout"/>
                  </use>
                  <path fill="none" stroke="white" stroke-width="1.5" d="M0,-3.0v7 M-2.5,-0.5L0,-3.0L2.5,-0.5"/>
                </g>
                <g id="arrowRight" xlink:href="#dirArrow" transform="rotate(90) translate(36 -43)" onmousedown="handlePan(1,0)">
                  <use xlink:href="#rim" fill="#404040">
                        <set attributeName="fill" to="#808080" begin="arrowRight.mouseover" end="arrowRight.mouseout"/>
                  </use>
                  <path fill="none" stroke="white" stroke-width="1.5" d="M0,-3.0v7 M-2.5,-0.5L0,-3.0L2.5,-0.5"/>
                </g>
                <g id="arrowDown" xlink:href="#dirArrow" transform="rotate(180) translate(-30 -48)" onmousedown="handlePan(0,1)">
                  <use xlink:href="#rim" fill="#404040">
                        <set attributeName="fill" to="#808080" begin="arrowDown.mouseover" end="arrowDown.mouseout"/>
                  </use>
                  <path fill="none" stroke="white" stroke-width="1.5" d="M0,-3.0v7 M-2.5,-0.5L0,-3.0L2.5,-0.5"/>
                </g>
                <g id="arrowLeft" xlink:href="#dirArrow" transform="rotate(270) translate(-36 17)" onmousedown="handlePan(-1,0)">
                  <use xlink:href="#rim" fill="#404040">
                        <set attributeName="fill" to="#808080" begin="arrowLeft.mouseover" end="arrowLeft.mouseout"/>
                  </use>
                  <path fill="none" stroke="white" stroke-width="1.5" d="M0,-3.0v7 M-2.5,-0.5L0,-3.0L2.5,-0.5"/>
                </g>
        </g>
        <svg viewBox="0 0 15 15" width="100%" height="30px" preserveAspectRatio="xMaxYMin meet">
         <g id="arrow_out" transform="scale(0.3 0.3)">
          <a xlink:href="dir_b59d6e0e1db631c1aaa97e9d05ec23c1_dep_org.svg" target="_base">
           <rect id="button" ry="5" rx="5" y="6" x="6" height="38" width="38"
                fill="#f2f5e9" fill-opacity="0.5" stroke="#606060" stroke-width="1.0"/>
           <path id="arrow"
             d="M 11.500037,31.436501 C 11.940474,20.09759 22.043105,11.32322 32.158766,21.979434 L 37.068811,17.246167 C 37.068811,17.246167 37.088388,32 37.088388,32 L 22.160133,31.978069 C 22.160133,31.978069 26.997745,27.140456 26.997745,27.140456 C 18.528582,18.264221 13.291696,25.230495 11.500037,31.436501 z"
             style="fill:#404040;"/>
          </a>
         </g>
        </svg>
</svg>
