<?xml version="1.0" encoding="UTF-8" standalone="no"?>
<!DOCTYPE svg PUBLIC "-//W3C//DTD SVG 1.1//EN"
 "http://www.w3.org/Graphics/SVG/1.1/DTD/svg11.dtd">
<!-- Generated by graphviz version 2.43.0 (0)
 -->
<!-- Title: ACSL&#45;flightstack&#45;winged/src/acsl_flight/include/flight_params Pages: 1 -->
<svg width="124pt" height="167pt"
 viewBox="0.00 0.00 124.00 167.00" xmlns="http://www.w3.org/2000/svg" xmlns:xlink="http://www.w3.org/1999/xlink">
<g id="graph0" class="graph" transform="scale(1 1) rotate(0) translate(4 163)">
<title>ACSL&#45;flightstack&#45;winged/src/acsl_flight/include/flight_params</title>
<polygon fill="white" stroke="transparent" points="-4,4 -4,-163 120,-163 120,4 -4,4"/>
<g id="clust1" class="cluster">
<title>clusterdir_b59d6e0e1db631c1aaa97e9d05ec23c1</title>
<g id="a_clust1"><a xlink:href="dir_b59d6e0e1db631c1aaa97e9d05ec23c1.html" target="_top" xlink:title="include">
<polygon fill="#ddddee" stroke="black" points="8,-8 8,-151 108,-151 108,-8 8,-8"/>
<text text-anchor="middle" x="58" y="-139" font-family="Helvetica,sans-Serif" font-size="10.00">include</text>
</a>
</g>
</g>
<!-- dir_21e9e6473ae68b51f10683f3306be290 -->
<g id="node1" class="node">
<title>dir_21e9e6473ae68b51f10683f3306be290</title>
<g id="a_node1"><a xlink:href="dir_21e9e6473ae68b51f10683f3306be290.html" target="_top" xlink:title="utils">
<polygon fill="white" stroke="red" points="85,-52 31,-52 31,-16 85,-16 85,-52"/>
<text text-anchor="middle" x="58" y="-31.5" font-family="Helvetica,sans-Serif" font-size="10.00">utils</text>
</a>
</g>
</g>
<!-- dir_a7f5c1eab6a9db649807e802721f3c44 -->
<g id="node2" class="node">
<title>dir_a7f5c1eab6a9db649807e802721f3c44</title>
<g id="a_node2"><a xlink:href="dir_a7f5c1eab6a9db649807e802721f3c44.html" target="_top" xlink:title="flight_params">
<polygon fill="#eeeeff" stroke="black" points="99.5,-124 16.5,-124 16.5,-88 99.5,-88 99.5,-124"/>
<text text-anchor="middle" x="58" y="-103.5" font-family="Helvetica,sans-Serif" font-size="10.00">flight_params</text>
</a>
</g>
</g>
<!-- dir_a7f5c1eab6a9db649807e802721f3c44&#45;&gt;dir_21e9e6473ae68b51f10683f3306be290 -->
<g id="edge1" class="edge">
<title>dir_a7f5c1eab6a9db649807e802721f3c44&#45;&gt;dir_21e9e6473ae68b51f10683f3306be290</title>
<path fill="none" stroke="black" d="M58,-87.7C58,-79.98 58,-70.71 58,-62.11"/>
<polygon fill="black" stroke="black" points="61.5,-62.1 58,-52.1 54.5,-62.1 61.5,-62.1"/>
<g id="a_edge1&#45;headlabel"><a xlink:href="dir_000019_000026.html" target="_top" xlink:title="2">
<text text-anchor="middle" x="64.34" y="-63.2" font-family="Helvetica,sans-Serif" font-size="10.00">2</text>
</a>
</g>
</g>
</g>
</svg>
