<?xml version="1.0" encoding="UTF-8" standalone="no"?>
<!DOCTYPE svg PUBLIC "-//W3C//DTD SVG 1.1//EN"
 "http://www.w3.org/Graphics/SVG/1.1/DTD/svg11.dtd">
<!-- Generated by graphviz version 2.43.0 (0)
 -->
<!-- Title: ACSL&#45;flightstack&#45;winged/src/acsl_flight/src/control/platforms Pages: 1 -->
<svg width="288pt" height="159pt"
 viewBox="0.00 0.00 288.00 159.00" xmlns="http://www.w3.org/2000/svg" xmlns:xlink="http://www.w3.org/1999/xlink">
<g id="graph0" class="graph" transform="scale(1 1) rotate(0) translate(4 155)">
<title>ACSL&#45;flightstack&#45;winged/src/acsl_flight/src/control/platforms</title>
<polygon fill="white" stroke="transparent" points="-4,4 -4,-155 284,-155 284,4 -4,4"/>
<g id="clust1" class="cluster">
<title>clusterdir_c35f0be978a7def7b6f8d2fa38bb17e0</title>
<g id="a_clust1"><a xlink:href="dir_c35f0be978a7def7b6f8d2fa38bb17e0.html" target="_top" xlink:title="control">
<polygon fill="#ddddee" stroke="black" points="8,-56 8,-143 272,-143 272,-56 8,-56"/>
<text text-anchor="middle" x="140" y="-131" font-family="Helvetica,sans-Serif" font-size="10.00">control</text>
</a>
</g>
</g>
<g id="clust2" class="cluster">
<title>clusterdir_569eed2c14c2d5b6009124e6036b1a48</title>
<g id="a_clust2"><a xlink:href="dir_569eed2c14c2d5b6009124e6036b1a48.html" target="_top">
<polygon fill="#eeeeff" stroke="black" points="16,-64 16,-116 264,-116 264,-64 16,-64"/>
</a>
</g>
</g>
<!-- dir_569eed2c14c2d5b6009124e6036b1a48 -->
<g id="node1" class="node">
<title>dir_569eed2c14c2d5b6009124e6036b1a48</title>
<text text-anchor="middle" x="224" y="-87.5" font-family="Helvetica,sans-Serif" font-size="10.00">platforms</text>
</g>
<!-- dir_db4fad7582c74e62bc80cb4a5a27a6aa -->
<g id="node2" class="node">
<title>dir_db4fad7582c74e62bc80cb4a5a27a6aa</title>
<g id="a_node2"><a xlink:href="dir_db4fad7582c74e62bc80cb4a5a27a6aa.html" target="_top" xlink:title="qrbp">
<polygon fill="white" stroke="red" points="174,-108 120,-108 120,-72 174,-72 174,-108"/>
<text text-anchor="middle" x="147" y="-87.5" font-family="Helvetica,sans-Serif" font-size="10.00">qrbp</text>
</a>
</g>
</g>
<!-- dir_b59d6e0e1db631c1aaa97e9d05ec23c1 -->
<g id="node4" class="node">
<title>dir_b59d6e0e1db631c1aaa97e9d05ec23c1</title>
<g id="a_node4"><a xlink:href="dir_b59d6e0e1db631c1aaa97e9d05ec23c1.html" target="_top" xlink:title="include">
<polygon fill="white" stroke="red" points="132,-36 78,-36 78,0 132,0 132,-36"/>
<text text-anchor="middle" x="105" y="-15.5" font-family="Helvetica,sans-Serif" font-size="10.00">include</text>
</a>
</g>
</g>
<!-- dir_db4fad7582c74e62bc80cb4a5a27a6aa&#45;&gt;dir_b59d6e0e1db631c1aaa97e9d05ec23c1 -->
<g id="edge2" class="edge">
<title>dir_db4fad7582c74e62bc80cb4a5a27a6aa&#45;&gt;dir_b59d6e0e1db631c1aaa97e9d05ec23c1</title>
<path fill="none" stroke="black" d="M136.62,-71.7C131.74,-63.56 125.81,-53.69 120.42,-44.7"/>
<polygon fill="black" stroke="black" points="123.41,-42.88 115.26,-36.1 117.41,-46.48 123.41,-42.88"/>
<g id="a_edge2&#45;headlabel"><a xlink:href="dir_000038_000004.html" target="_top" xlink:title="8">
<text text-anchor="middle" x="127.69" y="-42" font-family="Helvetica,sans-Serif" font-size="10.00">8</text>
</a>
</g>
</g>
<!-- dir_6aa955054e6872401e8e24a6ccc1e3ee -->
<g id="node3" class="node">
<title>dir_6aa955054e6872401e8e24a6ccc1e3ee</title>
<g id="a_node3"><a xlink:href="dir_6aa955054e6872401e8e24a6ccc1e3ee.html" target="_top" xlink:title="rostestdrone">
<polygon fill="white" stroke="red" points="102,-108 24,-108 24,-72 102,-72 102,-108"/>
<text text-anchor="middle" x="63" y="-87.5" font-family="Helvetica,sans-Serif" font-size="10.00">rostestdrone</text>
</a>
</g>
</g>
<!-- dir_6aa955054e6872401e8e24a6ccc1e3ee&#45;&gt;dir_b59d6e0e1db631c1aaa97e9d05ec23c1 -->
<g id="edge1" class="edge">
<title>dir_6aa955054e6872401e8e24a6ccc1e3ee&#45;&gt;dir_b59d6e0e1db631c1aaa97e9d05ec23c1</title>
<path fill="none" stroke="black" d="M73.38,-71.7C78.26,-63.56 84.19,-53.69 89.58,-44.7"/>
<polygon fill="black" stroke="black" points="92.59,-46.48 94.74,-36.1 86.59,-42.88 92.59,-46.48"/>
<g id="a_edge1&#45;headlabel"><a xlink:href="dir_000044_000004.html" target="_top" xlink:title="2">
<text text-anchor="middle" x="93.18" y="-48.52" font-family="Helvetica,sans-Serif" font-size="10.00">2</text>
</a>
</g>
</g>
</g>
</svg>
