<?xml version="1.0" encoding="UTF-8" standalone="no"?>
<!DOCTYPE svg PUBLIC "-//W3C//DTD SVG 1.1//EN"
 "http://www.w3.org/Graphics/SVG/1.1/DTD/svg11.dtd">
<!-- Generated by graphviz version 2.43.0 (0)
 -->
<!-- Title: ACSL&#45;flightstack&#45;winged/src/acsl_flight/include/utils/flight_log/flight_log.hpp Pages: 1 -->
<svg width="3630pt" height="128pt"
 viewBox="0.00 0.00 3630.00 128.00" xmlns="http://www.w3.org/2000/svg" xmlns:xlink="http://www.w3.org/1999/xlink">
<g id="graph0" class="graph" transform="scale(1 1) rotate(0) translate(4 124)">
<title>ACSL&#45;flightstack&#45;winged/src/acsl_flight/include/utils/flight_log/flight_log.hpp</title>
<polygon fill="white" stroke="transparent" points="-4,4 -4,-124 3626,-124 3626,4 -4,4"/>
<!-- Node1 -->
<g id="node1" class="node">
<title>Node1</title>
<g id="a_node1"><a xlink:title="Utilities for logging flight data.">
<polygon fill="#bfbfbf" stroke="black" points="1462.5,-67.5 1462.5,-119.5 1597.5,-119.5 1597.5,-67.5 1462.5,-67.5"/>
<text text-anchor="start" x="1470.5" y="-107.5" font-family="Helvetica,sans-Serif" font-size="10.00">ACSL&#45;flightstack&#45;winged</text>
<text text-anchor="start" x="1470.5" y="-96.5" font-family="Helvetica,sans-Serif" font-size="10.00">/src/acsl_flight/include</text>
<text text-anchor="start" x="1470.5" y="-85.5" font-family="Helvetica,sans-Serif" font-size="10.00">/utils/flight_log/flight</text>
<text text-anchor="middle" x="1530" y="-74.5" font-family="Helvetica,sans-Serif" font-size="10.00">_log.hpp</text>
</a>
</g>
</g>
<!-- Node2 -->
<g id="node2" class="node">
<title>Node2</title>
<g id="a_node2"><a xlink:title=" ">
<polygon fill="white" stroke="#bfbfbf" points="0,-6 0,-25 50,-25 50,-6 0,-6"/>
<text text-anchor="middle" x="25" y="-13" font-family="Helvetica,sans-Serif" font-size="10.00">atomic</text>
</a>
</g>
</g>
<!-- Node1&#45;&gt;Node2 -->
<g id="edge1" class="edge">
<title>Node1&#45;&gt;Node2</title>
<path fill="none" stroke="midnightblue" d="M1462.09,-92.89C1210.4,-93.85 331.37,-92.61 59,-31 56.48,-30.43 53.91,-29.68 51.37,-28.82"/>
<polygon fill="midnightblue" stroke="midnightblue" points="52.48,-25.5 41.89,-25.12 49.94,-32.02 52.48,-25.5"/>
</g>
<!-- Node3 -->
<g id="node3" class="node">
<title>Node3</title>
<g id="a_node3"><a xlink:title=" ">
<polygon fill="white" stroke="#bfbfbf" points="68,-6 68,-25 118,-25 118,-6 68,-6"/>
<text text-anchor="middle" x="93" y="-13" font-family="Helvetica,sans-Serif" font-size="10.00">chrono</text>
</a>
</g>
</g>
<!-- Node1&#45;&gt;Node3 -->
<g id="edge2" class="edge">
<title>Node1&#45;&gt;Node3</title>
<path fill="none" stroke="midnightblue" d="M1462.31,-92.73C1218.46,-93.07 385.7,-89.79 127,-31 124.48,-30.43 121.91,-29.68 119.38,-28.82"/>
<polygon fill="midnightblue" stroke="midnightblue" points="120.48,-25.49 109.89,-25.12 117.94,-32.01 120.48,-25.49"/>
</g>
<!-- Node4 -->
<g id="node4" class="node">
<title>Node4</title>
<g id="a_node4"><a xlink:title=" ">
<polygon fill="white" stroke="#bfbfbf" points="136,-6 136,-25 192,-25 192,-6 136,-6"/>
<text text-anchor="middle" x="164" y="-13" font-family="Helvetica,sans-Serif" font-size="10.00">iomanip</text>
</a>
</g>
</g>
<!-- Node1&#45;&gt;Node4 -->
<g id="edge3" class="edge">
<title>Node1&#45;&gt;Node4</title>
<path fill="none" stroke="midnightblue" d="M1462.31,-92.28C1226.98,-91.06 445.55,-83.09 201,-31 197.99,-30.36 194.91,-29.5 191.87,-28.52"/>
<polygon fill="midnightblue" stroke="midnightblue" points="193.05,-25.23 182.46,-25.1 190.66,-31.81 193.05,-25.23"/>
</g>
<!-- Node5 -->
<g id="node5" class="node">
<title>Node5</title>
<g id="a_node5"><a xlink:title=" ">
<polygon fill="white" stroke="#bfbfbf" points="210,-6 210,-25 266,-25 266,-6 210,-6"/>
<text text-anchor="middle" x="238" y="-13" font-family="Helvetica,sans-Serif" font-size="10.00">sstream</text>
</a>
</g>
</g>
<!-- Node1&#45;&gt;Node5 -->
<g id="edge4" class="edge">
<title>Node1&#45;&gt;Node5</title>
<path fill="none" stroke="midnightblue" d="M1462.18,-92.06C1235.34,-90.15 504.56,-80.22 275,-31 271.99,-30.36 268.91,-29.5 265.87,-28.52"/>
<polygon fill="midnightblue" stroke="midnightblue" points="267.05,-25.22 256.46,-25.09 264.66,-31.8 267.05,-25.22"/>
</g>
<!-- Node6 -->
<g id="node6" class="node">
<title>Node6</title>
<g id="a_node6"><a xlink:title=" ">
<polygon fill="white" stroke="#bfbfbf" points="284,-6 284,-25 352,-25 352,-6 284,-6"/>
<text text-anchor="middle" x="318" y="-13" font-family="Helvetica,sans-Serif" font-size="10.00">filesystem</text>
</a>
</g>
</g>
<!-- Node1&#45;&gt;Node6 -->
<g id="edge5" class="edge">
<title>Node1&#45;&gt;Node6</title>
<path fill="none" stroke="midnightblue" d="M1462.42,-91.36C1246.4,-87.34 574.34,-71.79 361,-31 357.11,-30.26 353.08,-29.24 349.13,-28.1"/>
<polygon fill="midnightblue" stroke="midnightblue" points="350.16,-24.75 339.57,-25.05 348.03,-31.42 350.16,-24.75"/>
</g>
<!-- Node7 -->
<g id="node7" class="node">
<title>Node7</title>
<g id="a_node7"><a xlink:title=" ">
<polygon fill="white" stroke="#bfbfbf" points="370.5,-6 370.5,-25 425.5,-25 425.5,-6 370.5,-6"/>
<text text-anchor="middle" x="398" y="-13" font-family="Helvetica,sans-Serif" font-size="10.00">fstream</text>
</a>
</g>
</g>
<!-- Node1&#45;&gt;Node7 -->
<g id="edge6" class="edge">
<title>Node1&#45;&gt;Node7</title>
<path fill="none" stroke="midnightblue" d="M1462.29,-91.5C1255.19,-88 632.42,-74.07 435,-31 432,-30.34 428.92,-29.48 425.88,-28.49"/>
<polygon fill="midnightblue" stroke="midnightblue" points="427.06,-25.2 416.46,-25.06 424.66,-31.77 427.06,-25.2"/>
</g>
<!-- Node8 -->
<g id="node8" class="node">
<title>Node8</title>
<g id="a_node8"><a xlink:title=" ">
<polygon fill="white" stroke="#bfbfbf" points="444,-6 444,-25 488,-25 488,-6 444,-6"/>
<text text-anchor="middle" x="466" y="-13" font-family="Helvetica,sans-Serif" font-size="10.00">ctime</text>
</a>
</g>
</g>
<!-- Node1&#45;&gt;Node8 -->
<g id="edge7" class="edge">
<title>Node1&#45;&gt;Node8</title>
<path fill="none" stroke="midnightblue" d="M1462.5,-91.79C1263.34,-89.17 680.72,-77.61 497,-31 495.01,-30.5 493,-29.86 491,-29.15"/>
<polygon fill="midnightblue" stroke="midnightblue" points="491.92,-25.74 481.34,-25.07 489.2,-32.19 491.92,-25.74"/>
</g>
<!-- Node9 -->
<g id="node9" class="node">
<title>Node9</title>
<g id="a_node9"><a xlink:title=" ">
<polygon fill="white" stroke="#bfbfbf" points="506.5,-0.5 506.5,-30.5 631.5,-30.5 631.5,-0.5 506.5,-0.5"/>
<text text-anchor="start" x="514.5" y="-18.5" font-family="Helvetica,sans-Serif" font-size="10.00">boost/date_time/posix</text>
<text text-anchor="middle" x="569" y="-7.5" font-family="Helvetica,sans-Serif" font-size="10.00">_time/posix_time.hpp</text>
</a>
</g>
</g>
<!-- Node1&#45;&gt;Node9 -->
<g id="edge8" class="edge">
<title>Node1&#45;&gt;Node9</title>
<path fill="none" stroke="midnightblue" d="M1462.42,-90.88C1314.93,-86.69 953.09,-72.83 641.77,-31.13"/>
<polygon fill="midnightblue" stroke="midnightblue" points="642.02,-27.63 631.64,-29.76 641.08,-34.57 642.02,-27.63"/>
</g>
<!-- Node10 -->
<g id="node10" class="node">
<title>Node10</title>
<g id="a_node10"><a xlink:title=" ">
<polygon fill="white" stroke="#bfbfbf" points="649.5,-0.5 649.5,-30.5 804.5,-30.5 804.5,-0.5 649.5,-0.5"/>
<text text-anchor="start" x="657.5" y="-18.5" font-family="Helvetica,sans-Serif" font-size="10.00">boost/date_time/posix</text>
<text text-anchor="middle" x="727" y="-7.5" font-family="Helvetica,sans-Serif" font-size="10.00">_time/posix_time_types.hpp</text>
</a>
</g>
</g>
<!-- Node1&#45;&gt;Node10 -->
<g id="edge9" class="edge">
<title>Node1&#45;&gt;Node10</title>
<path fill="none" stroke="midnightblue" d="M1462.09,-88.53C1336.3,-80.76 1058.39,-61.71 814.88,-31.18"/>
<polygon fill="midnightblue" stroke="midnightblue" points="815.13,-27.69 804.77,-29.9 814.26,-34.63 815.13,-27.69"/>
</g>
<!-- Node11 -->
<g id="node11" class="node">
<title>Node11</title>
<g id="a_node11"><a xlink:title=" ">
<polygon fill="white" stroke="#bfbfbf" points="822.5,-6 822.5,-25 955.5,-25 955.5,-6 822.5,-6"/>
<text text-anchor="middle" x="889" y="-13" font-family="Helvetica,sans-Serif" font-size="10.00">boost/log/attributes.hpp</text>
</a>
</g>
</g>
<!-- Node1&#45;&gt;Node11 -->
<g id="edge10" class="edge">
<title>Node1&#45;&gt;Node11</title>
<path fill="none" stroke="midnightblue" d="M1462.37,-86.9C1356.14,-77.71 1143.82,-57.75 965,-31 956.97,-29.8 948.5,-28.36 940.24,-26.86"/>
<polygon fill="midnightblue" stroke="midnightblue" points="940.79,-23.4 930.31,-25.01 939.5,-30.28 940.79,-23.4"/>
</g>
<!-- Node12 -->
<g id="node12" class="node">
<title>Node12</title>
<g id="a_node12"><a xlink:title=" ">
<polygon fill="white" stroke="#bfbfbf" points="974,-0.5 974,-30.5 1096,-30.5 1096,-0.5 974,-0.5"/>
<text text-anchor="start" x="982" y="-18.5" font-family="Helvetica,sans-Serif" font-size="10.00">boost/log/attributes</text>
<text text-anchor="middle" x="1035" y="-7.5" font-family="Helvetica,sans-Serif" font-size="10.00">/scoped_attribute.hpp</text>
</a>
</g>
</g>
<!-- Node1&#45;&gt;Node12 -->
<g id="edge11" class="edge">
<title>Node1&#45;&gt;Node12</title>
<path fill="none" stroke="midnightblue" d="M1462.45,-84.01C1380.49,-73.42 1237.92,-54.07 1105.93,-31.1"/>
<polygon fill="midnightblue" stroke="midnightblue" points="1106.5,-27.65 1096.04,-29.37 1105.29,-34.54 1106.5,-27.65"/>
</g>
<!-- Node13 -->
<g id="node13" class="node">
<title>Node13</title>
<g id="a_node13"><a xlink:title=" ">
<polygon fill="white" stroke="#bfbfbf" points="1114.5,-6 1114.5,-25 1221.5,-25 1221.5,-6 1114.5,-6"/>
<text text-anchor="middle" x="1168" y="-13" font-family="Helvetica,sans-Serif" font-size="10.00">boost/log/core.hpp</text>
</a>
</g>
</g>
<!-- Node1&#45;&gt;Node13 -->
<g id="edge12" class="edge">
<title>Node1&#45;&gt;Node13</title>
<path fill="none" stroke="midnightblue" d="M1462.22,-79.03C1401.55,-66.86 1310.23,-48.26 1231,-31 1225.59,-29.82 1219.92,-28.56 1214.29,-27.28"/>
<polygon fill="midnightblue" stroke="midnightblue" points="1214.81,-23.81 1204.28,-25 1213.25,-30.64 1214.81,-23.81"/>
</g>
<!-- Node14 -->
<g id="node14" class="node">
<title>Node14</title>
<g id="a_node14"><a xlink:title=" ">
<polygon fill="white" stroke="#bfbfbf" points="1240,-6 1240,-25 1384,-25 1384,-6 1240,-6"/>
<text text-anchor="middle" x="1312" y="-13" font-family="Helvetica,sans-Serif" font-size="10.00">boost/log/expressions.hpp</text>
</a>
</g>
</g>
<!-- Node1&#45;&gt;Node14 -->
<g id="edge13" class="edge">
<title>Node1&#45;&gt;Node14</title>
<path fill="none" stroke="midnightblue" d="M1462.22,-68.87C1423.65,-55.42 1377,-39.16 1346.02,-28.36"/>
<polygon fill="midnightblue" stroke="midnightblue" points="1347.14,-25.04 1336.55,-25.06 1344.84,-31.65 1347.14,-25.04"/>
</g>
<!-- Node15 -->
<g id="node15" class="node">
<title>Node15</title>
<g id="a_node15"><a xlink:title=" ">
<polygon fill="white" stroke="#bfbfbf" points="1402,-0.5 1402,-30.5 1518,-30.5 1518,-0.5 1402,-0.5"/>
<text text-anchor="start" x="1410" y="-18.5" font-family="Helvetica,sans-Serif" font-size="10.00">boost/log/sinks/sync</text>
<text text-anchor="middle" x="1460" y="-7.5" font-family="Helvetica,sans-Serif" font-size="10.00">_frontend.hpp</text>
</a>
</g>
</g>
<!-- Node1&#45;&gt;Node15 -->
<g id="edge14" class="edge">
<title>Node1&#45;&gt;Node15</title>
<path fill="none" stroke="midnightblue" d="M1506.69,-67.19C1498.08,-57.84 1488.4,-47.33 1480.09,-38.32"/>
<polygon fill="midnightblue" stroke="midnightblue" points="1482.56,-35.83 1473.21,-30.85 1477.41,-40.57 1482.56,-35.83"/>
</g>
<!-- Node16 -->
<g id="node16" class="node">
<title>Node16</title>
<g id="a_node16"><a xlink:title=" ">
<polygon fill="white" stroke="#bfbfbf" points="1536.5,-0.5 1536.5,-30.5 1665.5,-30.5 1665.5,-0.5 1536.5,-0.5"/>
<text text-anchor="start" x="1544.5" y="-18.5" font-family="Helvetica,sans-Serif" font-size="10.00">boost/log/sinks/text</text>
<text text-anchor="middle" x="1601" y="-7.5" font-family="Helvetica,sans-Serif" font-size="10.00">_ostream_backend.hpp</text>
</a>
</g>
</g>
<!-- Node1&#45;&gt;Node16 -->
<g id="edge15" class="edge">
<title>Node1&#45;&gt;Node16</title>
<path fill="none" stroke="midnightblue" d="M1553.64,-67.19C1562.38,-57.84 1572.2,-47.33 1580.62,-38.32"/>
<polygon fill="midnightblue" stroke="midnightblue" points="1583.33,-40.54 1587.6,-30.85 1578.21,-35.76 1583.33,-40.54"/>
</g>
<!-- Node17 -->
<g id="node17" class="node">
<title>Node17</title>
<g id="a_node17"><a xlink:title=" ">
<polygon fill="white" stroke="#bfbfbf" points="1683.5,-0.5 1683.5,-30.5 1814.5,-30.5 1814.5,-0.5 1683.5,-0.5"/>
<text text-anchor="start" x="1691.5" y="-18.5" font-family="Helvetica,sans-Serif" font-size="10.00">boost/log/sources/basic</text>
<text text-anchor="middle" x="1749" y="-7.5" font-family="Helvetica,sans-Serif" font-size="10.00">_logger.hpp</text>
</a>
</g>
</g>
<!-- Node1&#45;&gt;Node17 -->
<g id="edge16" class="edge">
<title>Node1&#45;&gt;Node17</title>
<path fill="none" stroke="midnightblue" d="M1597.79,-68.97C1630.41,-57.65 1668.83,-44.32 1698.78,-33.93"/>
<polygon fill="midnightblue" stroke="midnightblue" points="1700.3,-37.11 1708.6,-30.52 1698,-30.49 1700.3,-37.11"/>
</g>
<!-- Node18 -->
<g id="node18" class="node">
<title>Node18</title>
<g id="a_node18"><a xlink:title=" ">
<polygon fill="white" stroke="#bfbfbf" points="1833,-6 1833,-25 1989,-25 1989,-6 1833,-6"/>
<text text-anchor="middle" x="1911" y="-13" font-family="Helvetica,sans-Serif" font-size="10.00">boost/log/sources/logger.hpp</text>
</a>
</g>
</g>
<!-- Node1&#45;&gt;Node18 -->
<g id="edge17" class="edge">
<title>Node1&#45;&gt;Node18</title>
<path fill="none" stroke="midnightblue" d="M1597.68,-79C1672.12,-64.15 1790.18,-40.6 1858.13,-27.05"/>
<polygon fill="midnightblue" stroke="midnightblue" points="1859.07,-30.43 1868.19,-25.04 1857.7,-23.56 1859.07,-30.43"/>
</g>
<!-- Node19 -->
<g id="node19" class="node">
<title>Node19</title>
<g id="a_node19"><a xlink:title=" ">
<polygon fill="white" stroke="#bfbfbf" points="2007,-0.5 2007,-30.5 2143,-30.5 2143,-0.5 2007,-0.5"/>
<text text-anchor="start" x="2015" y="-18.5" font-family="Helvetica,sans-Serif" font-size="10.00">boost/log/sources/record</text>
<text text-anchor="middle" x="2075" y="-7.5" font-family="Helvetica,sans-Serif" font-size="10.00">_ostream.hpp</text>
</a>
</g>
</g>
<!-- Node1&#45;&gt;Node19 -->
<g id="edge18" class="edge">
<title>Node1&#45;&gt;Node19</title>
<path fill="none" stroke="midnightblue" d="M1597.6,-84.81C1686.69,-74.41 1848.51,-54.6 1996.43,-31.2"/>
<polygon fill="midnightblue" stroke="midnightblue" points="1997.27,-34.61 2006.6,-29.58 1996.17,-27.7 1997.27,-34.61"/>
</g>
<!-- Node20 -->
<g id="node20" class="node">
<title>Node20</title>
<g id="a_node20"><a xlink:title=" ">
<polygon fill="white" stroke="#bfbfbf" points="2161.5,-0.5 2161.5,-30.5 2306.5,-30.5 2306.5,-0.5 2161.5,-0.5"/>
<text text-anchor="start" x="2169.5" y="-18.5" font-family="Helvetica,sans-Serif" font-size="10.00">boost/log/sources/severity</text>
<text text-anchor="middle" x="2234" y="-7.5" font-family="Helvetica,sans-Serif" font-size="10.00">_channel_logger.hpp</text>
</a>
</g>
</g>
<!-- Node1&#45;&gt;Node20 -->
<g id="edge19" class="edge">
<title>Node1&#45;&gt;Node20</title>
<path fill="none" stroke="midnightblue" d="M1597.85,-87.5C1710.54,-78.82 1943.58,-59.28 2151,-31.07"/>
<polygon fill="midnightblue" stroke="midnightblue" points="2151.74,-34.5 2161.17,-29.68 2150.79,-27.57 2151.74,-34.5"/>
</g>
<!-- Node21 -->
<g id="node21" class="node">
<title>Node21</title>
<g id="a_node21"><a xlink:title=" ">
<polygon fill="white" stroke="#bfbfbf" points="2324.5,-0.5 2324.5,-30.5 2469.5,-30.5 2469.5,-0.5 2324.5,-0.5"/>
<text text-anchor="start" x="2332.5" y="-18.5" font-family="Helvetica,sans-Serif" font-size="10.00">boost/log/sources/severity</text>
<text text-anchor="middle" x="2397" y="-7.5" font-family="Helvetica,sans-Serif" font-size="10.00">_logger.hpp</text>
</a>
</g>
</g>
<!-- Node1&#45;&gt;Node21 -->
<g id="edge20" class="edge">
<title>Node1&#45;&gt;Node21</title>
<path fill="none" stroke="midnightblue" d="M1597.52,-89.47C1732.12,-82.95 2043.54,-65.4 2314.18,-31.16"/>
<polygon fill="midnightblue" stroke="midnightblue" points="2314.72,-34.62 2324.19,-29.88 2313.83,-27.68 2314.72,-34.62"/>
</g>
<!-- Node22 -->
<g id="node22" class="node">
<title>Node22</title>
<g id="a_node22"><a xlink:title=" ">
<polygon fill="white" stroke="#bfbfbf" points="2488,-0.5 2488,-30.5 2614,-30.5 2614,-0.5 2488,-0.5"/>
<text text-anchor="start" x="2496" y="-18.5" font-family="Helvetica,sans-Serif" font-size="10.00">boost/log/support/date</text>
<text text-anchor="middle" x="2551" y="-7.5" font-family="Helvetica,sans-Serif" font-size="10.00">_time.hpp</text>
</a>
</g>
</g>
<!-- Node1&#45;&gt;Node22 -->
<g id="edge21" class="edge">
<title>Node1&#45;&gt;Node22</title>
<path fill="none" stroke="midnightblue" d="M1597.62,-91.23C1752,-87.65 2142.32,-74.8 2477.47,-31.08"/>
<polygon fill="midnightblue" stroke="midnightblue" points="2478.41,-34.49 2487.86,-29.71 2477.49,-27.55 2478.41,-34.49"/>
</g>
<!-- Node23 -->
<g id="node23" class="node">
<title>Node23</title>
<g id="a_node23"><a xlink:title=" ">
<polygon fill="white" stroke="#bfbfbf" points="2632,-6 2632,-25 2746,-25 2746,-6 2632,-6"/>
<text text-anchor="middle" x="2689" y="-13" font-family="Helvetica,sans-Serif" font-size="10.00">boost/log/trivial.hpp</text>
</a>
</g>
</g>
<!-- Node1&#45;&gt;Node23 -->
<g id="edge22" class="edge">
<title>Node1&#45;&gt;Node23</title>
<path fill="none" stroke="midnightblue" d="M1597.52,-92.45C1769.46,-91.5 2237.46,-83.85 2623,-31 2630.19,-30.01 2637.76,-28.66 2645.11,-27.17"/>
<polygon fill="midnightblue" stroke="midnightblue" points="2645.88,-30.58 2654.93,-25.07 2644.42,-23.74 2645.88,-30.58"/>
</g>
<!-- Node24 -->
<g id="node24" class="node">
<title>Node24</title>
<g id="a_node24"><a xlink:title=" ">
<polygon fill="white" stroke="#bfbfbf" points="2764,-0.5 2764,-30.5 2900,-30.5 2900,-0.5 2764,-0.5"/>
<text text-anchor="start" x="2772" y="-18.5" font-family="Helvetica,sans-Serif" font-size="10.00">boost/log/utility/setup</text>
<text text-anchor="middle" x="2832" y="-7.5" font-family="Helvetica,sans-Serif" font-size="10.00">/common_attributes.hpp</text>
</a>
</g>
</g>
<!-- Node1&#45;&gt;Node24 -->
<g id="edge23" class="edge">
<title>Node1&#45;&gt;Node24</title>
<path fill="none" stroke="midnightblue" d="M1597.66,-92.32C1781.89,-91.16 2307.92,-83.23 2753.46,-31.07"/>
<polygon fill="midnightblue" stroke="midnightblue" points="2754.12,-34.52 2763.64,-29.87 2753.3,-27.57 2754.12,-34.52"/>
</g>
<!-- Node25 -->
<g id="node25" class="node">
<title>Node25</title>
<g id="a_node25"><a xlink:title=" ">
<polygon fill="white" stroke="#bfbfbf" points="2918.5,-0.5 2918.5,-30.5 3041.5,-30.5 3041.5,-0.5 2918.5,-0.5"/>
<text text-anchor="start" x="2926.5" y="-18.5" font-family="Helvetica,sans-Serif" font-size="10.00">boost/log/utility/setup</text>
<text text-anchor="middle" x="2980" y="-7.5" font-family="Helvetica,sans-Serif" font-size="10.00">/file.hpp</text>
</a>
</g>
</g>
<!-- Node1&#45;&gt;Node25 -->
<g id="edge24" class="edge">
<title>Node1&#45;&gt;Node25</title>
<path fill="none" stroke="midnightblue" d="M1597.76,-93.23C1797.34,-94.58 2400.33,-92.92 2908.04,-30.97"/>
<polygon fill="midnightblue" stroke="midnightblue" points="2908.64,-34.42 2918.14,-29.73 2907.79,-27.48 2908.64,-34.42"/>
</g>
<!-- Node26 -->
<g id="node26" class="node">
<title>Node26</title>
<g id="a_node26"><a xlink:title=" ">
<polygon fill="white" stroke="#bfbfbf" points="3059.5,-0.5 3059.5,-30.5 3182.5,-30.5 3182.5,-0.5 3059.5,-0.5"/>
<text text-anchor="start" x="3067.5" y="-18.5" font-family="Helvetica,sans-Serif" font-size="10.00">boost/log/utility/value</text>
<text text-anchor="middle" x="3121" y="-7.5" font-family="Helvetica,sans-Serif" font-size="10.00">_ref.hpp</text>
</a>
</g>
</g>
<!-- Node1&#45;&gt;Node26 -->
<g id="edge25" class="edge">
<title>Node1&#45;&gt;Node26</title>
<path fill="none" stroke="midnightblue" d="M1597.69,-91.24C1850.95,-86.29 2743.26,-66.78 3049.06,-31.08"/>
<polygon fill="midnightblue" stroke="midnightblue" points="3049.74,-34.53 3059.25,-29.86 3048.91,-27.58 3049.74,-34.53"/>
</g>
<!-- Node27 -->
<g id="node27" class="node">
<title>Node27</title>
<g id="a_node27"><a xlink:title=" ">
<polygon fill="white" stroke="#bfbfbf" points="3200.5,-6 3200.5,-25 3331.5,-25 3331.5,-6 3200.5,-6"/>
<text text-anchor="middle" x="3266" y="-13" font-family="Helvetica,sans-Serif" font-size="10.00">boost/phoenix/bind.hpp</text>
</a>
</g>
</g>
<!-- Node1&#45;&gt;Node27 -->
<g id="edge26" class="edge">
<title>Node1&#45;&gt;Node27</title>
<path fill="none" stroke="midnightblue" d="M1597.85,-91.41C1869,-86.82 2875.42,-67.65 3192,-31 3200.6,-30 3209.69,-28.56 3218.45,-26.95"/>
<polygon fill="midnightblue" stroke="midnightblue" points="3219.37,-30.34 3228.53,-25.02 3218.05,-23.47 3219.37,-30.34"/>
</g>
<!-- Node28 -->
<g id="node28" class="node">
<title>Node28</title>
<g id="a_node28"><a xlink:title=" ">
<polygon fill="white" stroke="#bfbfbf" points="3350,-0.5 3350,-30.5 3474,-30.5 3474,-0.5 3350,-0.5"/>
<text text-anchor="start" x="3358" y="-18.5" font-family="Helvetica,sans-Serif" font-size="10.00">boost/smart_ptr/make</text>
<text text-anchor="middle" x="3412" y="-7.5" font-family="Helvetica,sans-Serif" font-size="10.00">_shared_object.hpp</text>
</a>
</g>
</g>
<!-- Node1&#45;&gt;Node28 -->
<g id="edge27" class="edge">
<title>Node1&#45;&gt;Node28</title>
<path fill="none" stroke="midnightblue" d="M1597.55,-91.72C1880.6,-88.23 2973.1,-72.37 3339.65,-30.99"/>
<polygon fill="midnightblue" stroke="midnightblue" points="3340.23,-34.45 3349.76,-29.83 3339.42,-27.5 3340.23,-34.45"/>
</g>
<!-- Node29 -->
<g id="node29" class="node">
<title>Node29</title>
<g id="a_node29"><a xlink:title=" ">
<polygon fill="white" stroke="#bfbfbf" points="3492,-0.5 3492,-30.5 3622,-30.5 3622,-0.5 3492,-0.5"/>
<text text-anchor="start" x="3500" y="-18.5" font-family="Helvetica,sans-Serif" font-size="10.00">boost/smart_ptr/shared</text>
<text text-anchor="middle" x="3557" y="-7.5" font-family="Helvetica,sans-Serif" font-size="10.00">_ptr.hpp</text>
</a>
</g>
</g>
<!-- Node1&#45;&gt;Node29 -->
<g id="edge28" class="edge">
<title>Node1&#45;&gt;Node29</title>
<path fill="none" stroke="midnightblue" d="M1597.72,-91.84C1894.85,-88.72 3085.51,-73.83 3481.65,-31"/>
<polygon fill="midnightblue" stroke="midnightblue" points="3482.16,-34.47 3491.72,-29.89 3481.39,-27.51 3482.16,-34.47"/>
</g>
</g>
</svg>
