<?xml version="1.0" encoding="UTF-8" standalone="no"?>
<!DOCTYPE svg PUBLIC "-//W3C//DTD SVG 1.1//EN"
 "http://www.w3.org/Graphics/SVG/1.1/DTD/svg11.dtd">
<!-- Generated by graphviz version 2.43.0 (0)
 -->
<!-- Title: ACSL&#45;flightstack&#45;winged/src/acsl_flight/src/flight_main/flight_main.cpp Pages: 1 -->
<svg width="727pt" height="274pt"
 viewBox="0.00 0.00 726.50 274.00" xmlns="http://www.w3.org/2000/svg" xmlns:xlink="http://www.w3.org/1999/xlink">
<g id="graph0" class="graph" transform="scale(1 1) rotate(0) translate(4 270)">
<title>ACSL&#45;flightstack&#45;winged/src/acsl_flight/src/flight_main/flight_main.cpp</title>
<polygon fill="white" stroke="transparent" points="-4,4 -4,-270 722.5,-270 722.5,4 -4,4"/>
<!-- Node1 -->
<g id="node1" class="node">
<title>Node1</title>
<g id="a_node1"><a xlink:title="Main function to initiate ROS2.">
<polygon fill="#bfbfbf" stroke="black" points="217.5,-224.5 217.5,-265.5 352.5,-265.5 352.5,-224.5 217.5,-224.5"/>
<text text-anchor="start" x="225.5" y="-253.5" font-family="Helvetica,sans-Serif" font-size="10.00">ACSL&#45;flightstack&#45;winged</text>
<text text-anchor="start" x="225.5" y="-242.5" font-family="Helvetica,sans-Serif" font-size="10.00">/src/acsl_flight/src/flight</text>
<text text-anchor="middle" x="285" y="-231.5" font-family="Helvetica,sans-Serif" font-size="10.00">_main/flight_main.cpp</text>
</a>
</g>
</g>
<!-- Node2 -->
<g id="node2" class="node">
<title>Node2</title>
<g id="a_node2"><a xlink:href="flight__main_8hpp.html" target="_top" xlink:title="Header file for the main function that just sources all the other header files.">
<polygon fill="white" stroke="black" points="199,-168.5 199,-187.5 291,-187.5 291,-168.5 199,-168.5"/>
<text text-anchor="middle" x="245" y="-175.5" font-family="Helvetica,sans-Serif" font-size="10.00">flight_main.hpp</text>
</a>
</g>
</g>
<!-- Node1&#45;&gt;Node2 -->
<g id="edge1" class="edge">
<title>Node1&#45;&gt;Node2</title>
<path fill="none" stroke="midnightblue" d="M273,-224.5C267.46,-215.49 260.93,-204.89 255.58,-196.19"/>
<polygon fill="midnightblue" stroke="midnightblue" points="258.55,-194.33 250.32,-187.65 252.58,-198 258.55,-194.33"/>
</g>
<!-- Node14 -->
<g id="node14" class="node">
<title>Node14</title>
<g id="a_node14"><a xlink:href="global__helpers_8hpp.html" target="_top" xlink:title="Inline functions for all the classes of the flighstack to use.">
<polygon fill="white" stroke="black" points="534.5,-56.5 534.5,-75.5 643.5,-75.5 643.5,-56.5 534.5,-56.5"/>
<text text-anchor="middle" x="589" y="-63.5" font-family="Helvetica,sans-Serif" font-size="10.00">global_helpers.hpp</text>
</a>
</g>
</g>
<!-- Node1&#45;&gt;Node14 -->
<g id="edge19" class="edge">
<title>Node1&#45;&gt;Node14</title>
<path fill="none" stroke="midnightblue" d="M318.69,-224.38C380.82,-188.21 511.95,-111.86 565.48,-80.69"/>
<polygon fill="midnightblue" stroke="midnightblue" points="567.38,-83.64 574.26,-75.58 563.85,-77.59 567.38,-83.64"/>
</g>
<!-- Node3 -->
<g id="node3" class="node">
<title>Node3</title>
<g id="a_node3"><a xlink:title=" ">
<polygon fill="white" stroke="#bfbfbf" points="18.5,-112.5 18.5,-131.5 117.5,-131.5 117.5,-112.5 18.5,-112.5"/>
<text text-anchor="middle" x="68" y="-119.5" font-family="Helvetica,sans-Serif" font-size="10.00">rclcpp/rclcpp.hpp</text>
</a>
</g>
</g>
<!-- Node2&#45;&gt;Node3 -->
<g id="edge2" class="edge">
<title>Node2&#45;&gt;Node3</title>
<path fill="none" stroke="midnightblue" d="M216.95,-168.44C186.92,-159.28 139.09,-144.69 105.76,-134.52"/>
<polygon fill="midnightblue" stroke="midnightblue" points="106.5,-131.09 95.91,-131.52 104.46,-137.78 106.5,-131.09"/>
</g>
<!-- Node4 -->
<g id="node4" class="node">
<title>Node4</title>
<g id="a_node4"><a xlink:href="flight__bridge_8hpp.html" target="_top" xlink:title=" ">
<polygon fill="white" stroke="black" points="136,-112.5 136,-131.5 234,-131.5 234,-112.5 136,-112.5"/>
<text text-anchor="middle" x="185" y="-119.5" font-family="Helvetica,sans-Serif" font-size="10.00">flight_bridge.hpp</text>
</a>
</g>
</g>
<!-- Node2&#45;&gt;Node4 -->
<g id="edge3" class="edge">
<title>Node2&#45;&gt;Node4</title>
<path fill="none" stroke="midnightblue" d="M235.36,-168.32C226.49,-160.34 213.13,-148.31 202.39,-138.65"/>
<polygon fill="midnightblue" stroke="midnightblue" points="204.59,-135.92 194.82,-131.83 199.91,-141.13 204.59,-135.92"/>
</g>
<!-- Node5 -->
<g id="node5" class="node">
<title>Node5</title>
<g id="a_node5"><a xlink:href="flight__params_8hpp.html" target="_top" xlink:title="Header file for the main flight parameters that will be used for the entire controller.">
<polygon fill="white" stroke="black" points="252,-112.5 252,-131.5 356,-131.5 356,-112.5 252,-112.5"/>
<text text-anchor="middle" x="304" y="-119.5" font-family="Helvetica,sans-Serif" font-size="10.00">flight_params.hpp</text>
</a>
</g>
</g>
<!-- Node2&#45;&gt;Node5 -->
<g id="edge4" class="edge">
<title>Node2&#45;&gt;Node5</title>
<path fill="none" stroke="midnightblue" d="M254.48,-168.32C263.2,-160.34 276.34,-148.31 286.9,-138.65"/>
<polygon fill="midnightblue" stroke="midnightblue" points="289.33,-141.17 294.35,-131.83 284.61,-136 289.33,-141.17"/>
</g>
<!-- Node6 -->
<g id="node6" class="node">
<title>Node6</title>
<g id="a_node6"><a xlink:title=" ">
<polygon fill="white" stroke="#bfbfbf" points="366,-0.5 366,-19.5 410,-19.5 410,-0.5 366,-0.5"/>
<text text-anchor="middle" x="388" y="-7.5" font-family="Helvetica,sans-Serif" font-size="10.00">string</text>
</a>
</g>
</g>
<!-- Node5&#45;&gt;Node6 -->
<g id="edge5" class="edge">
<title>Node5&#45;&gt;Node6</title>
<path fill="none" stroke="midnightblue" d="M304.88,-112.2C306.59,-98.9 311.37,-73.39 324,-56 333.51,-42.91 348.02,-32.26 360.82,-24.62"/>
<polygon fill="midnightblue" stroke="midnightblue" points="362.75,-27.54 369.75,-19.59 359.32,-21.45 362.75,-27.54"/>
</g>
<!-- Node7 -->
<g id="node7" class="node">
<title>Node7</title>
<g id="a_node7"><a xlink:title=" ">
<polygon fill="white" stroke="#bfbfbf" points="332.5,-56.5 332.5,-75.5 387.5,-75.5 387.5,-56.5 332.5,-56.5"/>
<text text-anchor="middle" x="360" y="-63.5" font-family="Helvetica,sans-Serif" font-size="10.00">fstream</text>
</a>
</g>
</g>
<!-- Node5&#45;&gt;Node7 -->
<g id="edge6" class="edge">
<title>Node5&#45;&gt;Node7</title>
<path fill="none" stroke="midnightblue" d="M313,-112.32C321.19,-104.42 333.51,-92.55 343.47,-82.94"/>
<polygon fill="midnightblue" stroke="midnightblue" points="346.07,-85.29 350.84,-75.83 341.21,-80.26 346.07,-85.29"/>
</g>
<!-- Node8 -->
<g id="node8" class="node">
<title>Node8</title>
<g id="a_node8"><a xlink:title=" ">
<polygon fill="white" stroke="#bfbfbf" points="406,-56.5 406,-75.5 516,-75.5 516,-56.5 406,-56.5"/>
<text text-anchor="middle" x="461" y="-63.5" font-family="Helvetica,sans-Serif" font-size="10.00">nlohmann/json.hpp</text>
</a>
</g>
</g>
<!-- Node5&#45;&gt;Node8 -->
<g id="edge7" class="edge">
<title>Node5&#45;&gt;Node8</title>
<path fill="none" stroke="midnightblue" d="M328.88,-112.44C355.29,-103.36 397.22,-88.94 426.74,-78.78"/>
<polygon fill="midnightblue" stroke="midnightblue" points="427.92,-82.08 436.24,-75.52 425.64,-75.46 427.92,-82.08"/>
</g>
<!-- Node9 -->
<g id="node9" class="node">
<title>Node9</title>
<g id="a_node9"><a xlink:title=" ">
<polygon fill="white" stroke="#bfbfbf" points="262,-0.5 262,-19.5 322,-19.5 322,-0.5 262,-0.5"/>
<text text-anchor="middle" x="292" y="-7.5" font-family="Helvetica,sans-Serif" font-size="10.00">iostream</text>
</a>
</g>
</g>
<!-- Node5&#45;&gt;Node9 -->
<g id="edge8" class="edge">
<title>Node5&#45;&gt;Node9</title>
<path fill="none" stroke="midnightblue" d="M300.4,-112.22C296.94,-103.28 291.97,-88.94 290,-76 287.66,-60.63 288.42,-43 289.62,-29.97"/>
<polygon fill="midnightblue" stroke="midnightblue" points="293.11,-30.21 290.72,-19.89 286.15,-29.45 293.11,-30.21"/>
</g>
<!-- Node10 -->
<g id="node10" class="node">
<title>Node10</title>
<g id="a_node10"><a xlink:title=" ">
<polygon fill="white" stroke="#bfbfbf" points="114.5,-56.5 114.5,-75.5 163.5,-75.5 163.5,-56.5 114.5,-56.5"/>
<text text-anchor="middle" x="139" y="-63.5" font-family="Helvetica,sans-Serif" font-size="10.00">cstdlib</text>
</a>
</g>
</g>
<!-- Node5&#45;&gt;Node10 -->
<g id="edge9" class="edge">
<title>Node5&#45;&gt;Node10</title>
<path fill="none" stroke="midnightblue" d="M277.86,-112.44C249.57,-103.19 204.34,-88.39 173.24,-78.21"/>
<polygon fill="midnightblue" stroke="midnightblue" points="174.27,-74.86 163.67,-75.08 172.09,-81.51 174.27,-74.86"/>
</g>
<!-- Node11 -->
<g id="node11" class="node">
<title>Node11</title>
<g id="a_node11"><a xlink:title=" ">
<polygon fill="white" stroke="#bfbfbf" points="182,-56.5 182,-75.5 238,-75.5 238,-56.5 182,-56.5"/>
<text text-anchor="middle" x="210" y="-63.5" font-family="Helvetica,sans-Serif" font-size="10.00">unistd.h</text>
</a>
</g>
</g>
<!-- Node5&#45;&gt;Node11 -->
<g id="edge10" class="edge">
<title>Node5&#45;&gt;Node11</title>
<path fill="none" stroke="midnightblue" d="M288.9,-112.32C274.1,-103.82 251.31,-90.73 234.02,-80.8"/>
<polygon fill="midnightblue" stroke="midnightblue" points="235.48,-77.6 225.07,-75.65 231.99,-83.67 235.48,-77.6"/>
</g>
<!-- Node12 -->
<g id="node12" class="node">
<title>Node12</title>
<g id="a_node12"><a xlink:href="px4__defines_8hpp.html" target="_top" xlink:title="Contains useful constant defines for use in the flight stack in a central location.">
<polygon fill="white" stroke="black" points="0,-56.5 0,-75.5 96,-75.5 96,-56.5 0,-56.5"/>
<text text-anchor="middle" x="48" y="-63.5" font-family="Helvetica,sans-Serif" font-size="10.00">px4_defines.hpp</text>
</a>
</g>
</g>
<!-- Node5&#45;&gt;Node12 -->
<g id="edge11" class="edge">
<title>Node5&#45;&gt;Node12</title>
<path fill="none" stroke="midnightblue" d="M263.44,-112.44C218.68,-103 146.62,-87.8 98.3,-77.61"/>
<polygon fill="midnightblue" stroke="midnightblue" points="98.88,-74.16 88.37,-75.52 97.44,-81.01 98.88,-74.16"/>
</g>
<!-- Node5&#45;&gt;Node14 -->
<g id="edge13" class="edge">
<title>Node5&#45;&gt;Node14</title>
<path fill="none" stroke="midnightblue" d="M349.16,-112.44C399.29,-102.94 480.22,-87.61 534.01,-77.42"/>
<polygon fill="midnightblue" stroke="midnightblue" points="534.88,-80.82 544.05,-75.52 533.58,-73.94 534.88,-80.82"/>
</g>
<!-- Node13 -->
<g id="node13" class="node">
<title>Node13</title>
<g id="a_node13"><a xlink:title=" ">
<polygon fill="white" stroke="#bfbfbf" points="23,-0.5 23,-19.5 73,-19.5 73,-0.5 23,-0.5"/>
<text text-anchor="middle" x="48" y="-7.5" font-family="Helvetica,sans-Serif" font-size="10.00">cstdint</text>
</a>
</g>
</g>
<!-- Node12&#45;&gt;Node13 -->
<g id="edge12" class="edge">
<title>Node12&#45;&gt;Node13</title>
<path fill="none" stroke="midnightblue" d="M48,-56.08C48,-49.01 48,-38.86 48,-29.99"/>
<polygon fill="midnightblue" stroke="midnightblue" points="51.5,-29.75 48,-19.75 44.5,-29.75 51.5,-29.75"/>
</g>
<!-- Node14&#45;&gt;Node6 -->
<g id="edge15" class="edge">
<title>Node14&#45;&gt;Node6</title>
<path fill="none" stroke="midnightblue" d="M557.15,-56.44C519.61,-46.36 457.59,-29.7 419.99,-19.6"/>
<polygon fill="midnightblue" stroke="midnightblue" points="420.64,-16.15 410.08,-16.93 418.83,-22.91 420.64,-16.15"/>
</g>
<!-- Node14&#45;&gt;Node9 -->
<g id="edge14" class="edge">
<title>Node14&#45;&gt;Node9</title>
<path fill="none" stroke="midnightblue" d="M541.94,-56.44C484.01,-45.91 386.63,-28.2 332.09,-18.29"/>
<polygon fill="midnightblue" stroke="midnightblue" points="332.57,-14.82 322.1,-16.47 331.32,-21.71 332.57,-14.82"/>
</g>
<!-- Node15 -->
<g id="node15" class="node">
<title>Node15</title>
<g id="a_node15"><a xlink:title=" ">
<polygon fill="white" stroke="#bfbfbf" points="480,-0.5 480,-19.5 536,-19.5 536,-0.5 480,-0.5"/>
<text text-anchor="middle" x="508" y="-7.5" font-family="Helvetica,sans-Serif" font-size="10.00">sstream</text>
</a>
</g>
</g>
<!-- Node14&#45;&gt;Node15 -->
<g id="edge16" class="edge">
<title>Node14&#45;&gt;Node15</title>
<path fill="none" stroke="midnightblue" d="M575.99,-56.32C563.47,-47.98 544.32,-35.21 529.53,-25.35"/>
<polygon fill="midnightblue" stroke="midnightblue" points="531.24,-22.29 520.98,-19.65 527.36,-28.11 531.24,-22.29"/>
</g>
<!-- Node16 -->
<g id="node16" class="node">
<title>Node16</title>
<g id="a_node16"><a xlink:title=" ">
<polygon fill="white" stroke="#bfbfbf" points="554.5,-0.5 554.5,-19.5 623.5,-19.5 623.5,-0.5 554.5,-0.5"/>
<text text-anchor="middle" x="589" y="-7.5" font-family="Helvetica,sans-Serif" font-size="10.00">type_traits</text>
</a>
</g>
</g>
<!-- Node14&#45;&gt;Node16 -->
<g id="edge17" class="edge">
<title>Node14&#45;&gt;Node16</title>
<path fill="none" stroke="midnightblue" d="M589,-56.08C589,-49.01 589,-38.86 589,-29.99"/>
<polygon fill="midnightblue" stroke="midnightblue" points="592.5,-29.75 589,-19.75 585.5,-29.75 592.5,-29.75"/>
</g>
<!-- Node17 -->
<g id="node17" class="node">
<title>Node17</title>
<g id="a_node17"><a xlink:title=" ">
<polygon fill="white" stroke="#bfbfbf" points="641.5,-0.5 641.5,-19.5 718.5,-19.5 718.5,-0.5 641.5,-0.5"/>
<text text-anchor="middle" x="680" y="-7.5" font-family="Helvetica,sans-Serif" font-size="10.00">Eigen/Dense</text>
</a>
</g>
</g>
<!-- Node14&#45;&gt;Node17 -->
<g id="edge18" class="edge">
<title>Node14&#45;&gt;Node17</title>
<path fill="none" stroke="midnightblue" d="M603.62,-56.32C617.95,-47.82 640.01,-34.73 656.75,-24.8"/>
<polygon fill="midnightblue" stroke="midnightblue" points="658.6,-27.77 665.42,-19.65 655.03,-21.75 658.6,-27.77"/>
</g>
</g>
</svg>
