<?xml version="1.0" encoding="UTF-8" standalone="no"?>
<!DOCTYPE svg PUBLIC "-//W3C//DTD SVG 1.1//EN"
 "http://www.w3.org/Graphics/SVG/1.1/DTD/svg11.dtd">
<!-- Generated by graphviz version 2.43.0 (0)
 -->
<!-- Title: ACSL&#45;flightstack&#45;winged/src/acsl_flight/include/utils/flight_log/flight_log.hpp Pages: 1 -->
<svg width="2071pt" height="506pt"
 viewBox="0.00 0.00 2071.00 506.00" xmlns="http://www.w3.org/2000/svg" xmlns:xlink="http://www.w3.org/1999/xlink">
<g id="graph0" class="graph" transform="scale(1 1) rotate(0) translate(4 502)">
<title>ACSL&#45;flightstack&#45;winged/src/acsl_flight/include/utils/flight_log/flight_log.hpp</title>
<polygon fill="white" stroke="transparent" points="-4,4 -4,-502 2067,-502 2067,4 -4,4"/>
<!-- Node1 -->
<g id="node1" class="node">
<title>Node1</title>
<g id="a_node1"><a xlink:title="Utilities for logging flight data.">
<polygon fill="#bfbfbf" stroke="black" points="1307.5,-445.5 1307.5,-497.5 1442.5,-497.5 1442.5,-445.5 1307.5,-445.5"/>
<text text-anchor="start" x="1315.5" y="-485.5" font-family="Helvetica,sans-Serif" font-size="10.00">ACSL&#45;flightstack&#45;winged</text>
<text text-anchor="start" x="1315.5" y="-474.5" font-family="Helvetica,sans-Serif" font-size="10.00">/src/acsl_flight/include</text>
<text text-anchor="start" x="1315.5" y="-463.5" font-family="Helvetica,sans-Serif" font-size="10.00">/utils/flight_log/flight</text>
<text text-anchor="middle" x="1375" y="-452.5" font-family="Helvetica,sans-Serif" font-size="10.00">_log.hpp</text>
</a>
</g>
</g>
<!-- Node2 -->
<g id="node2" class="node">
<title>Node2</title>
<g id="a_node2"><a xlink:href="MRAC__OMEGA__logger_8hpp.html" target="_top" xlink:title="logging for the MRAc with angular velocities controller">
<polygon fill="white" stroke="black" points="204.5,-345.5 204.5,-408.5 393.5,-408.5 393.5,-345.5 204.5,-345.5"/>
<text text-anchor="start" x="212.5" y="-396.5" font-family="Helvetica,sans-Serif" font-size="10.00">ACSL&#45;flightstack&#45;winged</text>
<text text-anchor="start" x="212.5" y="-385.5" font-family="Helvetica,sans-Serif" font-size="10.00">/src/acsl_flight/include</text>
<text text-anchor="start" x="212.5" y="-374.5" font-family="Helvetica,sans-Serif" font-size="10.00">/control/platforms/qrbp</text>
<text text-anchor="start" x="212.5" y="-363.5" font-family="Helvetica,sans-Serif" font-size="10.00">/control_algorithms/MRAC</text>
<text text-anchor="middle" x="299" y="-352.5" font-family="Helvetica,sans-Serif" font-size="10.00">_OMEGA/MRAC_OMEGA_logger.hpp</text>
</a>
</g>
</g>
<!-- Node1&#45;&gt;Node2 -->
<g id="edge1" class="edge">
<title>Node1&#45;&gt;Node2</title>
<path fill="none" stroke="midnightblue" d="M1297.2,-464.97C1157.23,-454.88 853.7,-432.37 598,-409 529.53,-402.74 452.34,-394.71 393.54,-388.4"/>
<polygon fill="midnightblue" stroke="midnightblue" points="1297.17,-468.48 1307.4,-465.71 1297.67,-461.5 1297.17,-468.48"/>
</g>
<!-- Node6 -->
<g id="node6" class="node">
<title>Node6</title>
<g id="a_node6"><a xlink:href="MRAC__PID__logger_8hpp.html" target="_top" xlink:title="logging for the MRAC_PID controller.">
<polygon fill="white" stroke="black" points="607.5,-345.5 607.5,-408.5 756.5,-408.5 756.5,-345.5 607.5,-345.5"/>
<text text-anchor="start" x="615.5" y="-396.5" font-family="Helvetica,sans-Serif" font-size="10.00">ACSL&#45;flightstack&#45;winged</text>
<text text-anchor="start" x="615.5" y="-385.5" font-family="Helvetica,sans-Serif" font-size="10.00">/src/acsl_flight/include</text>
<text text-anchor="start" x="615.5" y="-374.5" font-family="Helvetica,sans-Serif" font-size="10.00">/control/platforms/qrbp</text>
<text text-anchor="start" x="615.5" y="-363.5" font-family="Helvetica,sans-Serif" font-size="10.00">/control_algorithms/MRAC</text>
<text text-anchor="middle" x="682" y="-352.5" font-family="Helvetica,sans-Serif" font-size="10.00">_PID/MRAC_PID_logger.hpp</text>
</a>
</g>
</g>
<!-- Node1&#45;&gt;Node6 -->
<g id="edge5" class="edge">
<title>Node1&#45;&gt;Node6</title>
<path fill="none" stroke="midnightblue" d="M1297.07,-460.1C1162.56,-442.14 888.59,-405.58 756.5,-387.94"/>
<polygon fill="midnightblue" stroke="midnightblue" points="1296.92,-463.61 1307.29,-461.46 1297.84,-456.67 1296.92,-463.61"/>
</g>
<!-- Node10 -->
<g id="node10" class="node">
<title>Node10</title>
<g id="a_node10"><a xlink:href="PID__logger_8hpp.html" target="_top" xlink:title="logging for the PID controller">
<polygon fill="white" stroke="black" points="1001,-345.5 1001,-408.5 1151,-408.5 1151,-345.5 1001,-345.5"/>
<text text-anchor="start" x="1009" y="-396.5" font-family="Helvetica,sans-Serif" font-size="10.00">ACSL&#45;flightstack&#45;winged</text>
<text text-anchor="start" x="1009" y="-385.5" font-family="Helvetica,sans-Serif" font-size="10.00">/src/acsl_flight/include</text>
<text text-anchor="start" x="1009" y="-374.5" font-family="Helvetica,sans-Serif" font-size="10.00">/control/platforms/qrbp</text>
<text text-anchor="start" x="1009" y="-363.5" font-family="Helvetica,sans-Serif" font-size="10.00">/control_algorithms/PID/PID</text>
<text text-anchor="middle" x="1076" y="-352.5" font-family="Helvetica,sans-Serif" font-size="10.00">_logger.hpp</text>
</a>
</g>
</g>
<!-- Node1&#45;&gt;Node10 -->
<g id="edge9" class="edge">
<title>Node1&#45;&gt;Node10</title>
<path fill="none" stroke="midnightblue" d="M1297.43,-446.5C1252.36,-432.56 1195.85,-415.08 1151.19,-401.26"/>
<polygon fill="midnightblue" stroke="midnightblue" points="1296.56,-449.9 1307.15,-449.51 1298.63,-443.21 1296.56,-449.9"/>
</g>
<!-- Node14 -->
<g id="node14" class="node">
<title>Node14</title>
<g id="a_node14"><a xlink:href="PID__OMEGA__logger_8hpp.html" target="_top" xlink:title="Logger for the PID controller.">
<polygon fill="white" stroke="black" points="1288.5,-345.5 1288.5,-408.5 1461.5,-408.5 1461.5,-345.5 1288.5,-345.5"/>
<text text-anchor="start" x="1296.5" y="-396.5" font-family="Helvetica,sans-Serif" font-size="10.00">ACSL&#45;flightstack&#45;winged</text>
<text text-anchor="start" x="1296.5" y="-385.5" font-family="Helvetica,sans-Serif" font-size="10.00">/src/acsl_flight/include</text>
<text text-anchor="start" x="1296.5" y="-374.5" font-family="Helvetica,sans-Serif" font-size="10.00">/control/platforms/qrbp</text>
<text text-anchor="start" x="1296.5" y="-363.5" font-family="Helvetica,sans-Serif" font-size="10.00">/control_algorithms/PID_OMEGA</text>
<text text-anchor="middle" x="1375" y="-352.5" font-family="Helvetica,sans-Serif" font-size="10.00">/PID_OMEGA_logger.hpp</text>
</a>
</g>
</g>
<!-- Node1&#45;&gt;Node14 -->
<g id="edge13" class="edge">
<title>Node1&#45;&gt;Node14</title>
<path fill="none" stroke="midnightblue" d="M1375,-434.94C1375,-426.23 1375,-416.97 1375,-408.51"/>
<polygon fill="midnightblue" stroke="midnightblue" points="1371.5,-435.22 1375,-445.22 1378.5,-435.22 1371.5,-435.22"/>
</g>
<!-- Node19 -->
<g id="node19" class="node">
<title>Node19</title>
<g id="a_node19"><a xlink:href="mocap_8hpp.html" target="_top" xlink:title="Class declaration for UDP socket as a lifecycle node.">
<polygon fill="white" stroke="black" points="1395.5,-78.5 1395.5,-119.5 1530.5,-119.5 1530.5,-78.5 1395.5,-78.5"/>
<text text-anchor="start" x="1403.5" y="-107.5" font-family="Helvetica,sans-Serif" font-size="10.00">ACSL&#45;flightstack&#45;winged</text>
<text text-anchor="start" x="1403.5" y="-96.5" font-family="Helvetica,sans-Serif" font-size="10.00">/src/acsl_flight/include</text>
<text text-anchor="middle" x="1463" y="-85.5" font-family="Helvetica,sans-Serif" font-size="10.00">/mocap/mocap.hpp</text>
</a>
</g>
</g>
<!-- Node1&#45;&gt;Node19 -->
<g id="edge28" class="edge">
<title>Node1&#45;&gt;Node19</title>
<path fill="none" stroke="midnightblue" d="M1441.35,-440.53C1490.96,-413.96 1554.73,-369.9 1582,-309 1609.94,-246.6 1606.02,-211.43 1566,-156 1554.5,-140.08 1537.04,-128.2 1519.74,-119.58"/>
<polygon fill="midnightblue" stroke="midnightblue" points="1439.5,-437.54 1432.27,-445.28 1442.75,-443.75 1439.5,-437.54"/>
</g>
<!-- Node21 -->
<g id="node21" class="node">
<title>Node21</title>
<g id="a_node21"><a xlink:href="vio_8hpp.html" target="_top" xlink:title="Class decleration for Intel Realsense T265 tracking camera as a lifecycle node.">
<polygon fill="white" stroke="black" points="1564.5,-78.5 1564.5,-119.5 1699.5,-119.5 1699.5,-78.5 1564.5,-78.5"/>
<text text-anchor="start" x="1572.5" y="-107.5" font-family="Helvetica,sans-Serif" font-size="10.00">ACSL&#45;flightstack&#45;winged</text>
<text text-anchor="start" x="1572.5" y="-96.5" font-family="Helvetica,sans-Serif" font-size="10.00">/src/acsl_flight/include</text>
<text text-anchor="middle" x="1632" y="-85.5" font-family="Helvetica,sans-Serif" font-size="10.00">/vio/vio.hpp</text>
</a>
</g>
</g>
<!-- Node1&#45;&gt;Node21 -->
<g id="edge29" class="edge">
<title>Node1&#45;&gt;Node21</title>
<path fill="none" stroke="midnightblue" d="M1452.35,-453.29C1482.32,-443.85 1515.48,-429.71 1541,-409 1631.97,-335.18 1634.99,-175.24 1633.09,-119.57"/>
<polygon fill="midnightblue" stroke="midnightblue" points="1451.31,-449.95 1442.75,-456.19 1453.33,-456.65 1451.31,-449.95"/>
</g>
<!-- Node25 -->
<g id="node25" class="node">
<title>Node25</title>
<g id="a_node25"><a xlink:href="PID__TD__logger_8hpp.html" target="_top" xlink:title="Logging for the PID controller.">
<polygon fill="white" stroke="black" points="1677.5,-345.5 1677.5,-408.5 1846.5,-408.5 1846.5,-345.5 1677.5,-345.5"/>
<text text-anchor="start" x="1685.5" y="-396.5" font-family="Helvetica,sans-Serif" font-size="10.00">ACSL&#45;flightstack&#45;winged</text>
<text text-anchor="start" x="1685.5" y="-385.5" font-family="Helvetica,sans-Serif" font-size="10.00">/src/acsl_flight/include</text>
<text text-anchor="start" x="1685.5" y="-374.5" font-family="Helvetica,sans-Serif" font-size="10.00">/control/platforms/rostestdrone</text>
<text text-anchor="start" x="1685.5" y="-363.5" font-family="Helvetica,sans-Serif" font-size="10.00">/control_algorithms/PID/PID_TD</text>
<text text-anchor="middle" x="1762" y="-352.5" font-family="Helvetica,sans-Serif" font-size="10.00">_logger.hpp</text>
</a>
</g>
</g>
<!-- Node1&#45;&gt;Node25 -->
<g id="edge24" class="edge">
<title>Node1&#45;&gt;Node25</title>
<path fill="none" stroke="midnightblue" d="M1452.51,-454.64C1508.44,-442.89 1585.64,-426.01 1653,-409 1660.92,-407 1669.13,-404.83 1677.34,-402.61"/>
<polygon fill="midnightblue" stroke="midnightblue" points="1451.74,-451.23 1442.67,-456.7 1453.18,-458.08 1451.74,-451.23"/>
</g>
<!-- Node3 -->
<g id="node3" class="node">
<title>Node3</title>
<g id="a_node3"><a xlink:href="MRAC__OMEGA_8hpp.html" target="_top" xlink:title="MRAC with angular velocities for the QRBP.">
<polygon fill="white" stroke="black" points="16,-245.5 16,-308.5 170,-308.5 170,-245.5 16,-245.5"/>
<text text-anchor="start" x="24" y="-296.5" font-family="Helvetica,sans-Serif" font-size="10.00">ACSL&#45;flightstack&#45;winged</text>
<text text-anchor="start" x="24" y="-285.5" font-family="Helvetica,sans-Serif" font-size="10.00">/src/acsl_flight/include</text>
<text text-anchor="start" x="24" y="-274.5" font-family="Helvetica,sans-Serif" font-size="10.00">/control/platforms/qrbp</text>
<text text-anchor="start" x="24" y="-263.5" font-family="Helvetica,sans-Serif" font-size="10.00">/control_algorithms/MRAC</text>
<text text-anchor="middle" x="93" y="-252.5" font-family="Helvetica,sans-Serif" font-size="10.00">_OMEGA/MRAC_OMEGA.hpp</text>
</a>
</g>
</g>
<!-- Node2&#45;&gt;Node3 -->
<g id="edge2" class="edge">
<title>Node2&#45;&gt;Node3</title>
<path fill="none" stroke="midnightblue" d="M225.56,-341.06C203.23,-330.44 178.87,-318.85 157.2,-308.54"/>
<polygon fill="midnightblue" stroke="midnightblue" points="224.13,-344.26 234.67,-345.4 227.14,-337.94 224.13,-344.26"/>
</g>
<!-- Node5 -->
<g id="node5" class="node">
<title>Node5</title>
<g id="a_node5"><a xlink:href="MRAC__OMEGA__logger_8cpp.html" target="_top" xlink:title="logging for the MRAC with angular velocities controller.">
<polygon fill="white" stroke="black" points="188.5,-251 188.5,-303 409.5,-303 409.5,-251 188.5,-251"/>
<text text-anchor="start" x="196.5" y="-291" font-family="Helvetica,sans-Serif" font-size="10.00">ACSL&#45;flightstack&#45;winged</text>
<text text-anchor="start" x="196.5" y="-280" font-family="Helvetica,sans-Serif" font-size="10.00">/src/acsl_flight/src/control</text>
<text text-anchor="start" x="196.5" y="-269" font-family="Helvetica,sans-Serif" font-size="10.00">/platforms/qrbp/control_algorithms</text>
<text text-anchor="middle" x="299" y="-258" font-family="Helvetica,sans-Serif" font-size="10.00">/MRAC_OMEGA/MRAC_OMEGA_logger.cpp</text>
</a>
</g>
</g>
<!-- Node2&#45;&gt;Node5 -->
<g id="edge4" class="edge">
<title>Node2&#45;&gt;Node5</title>
<path fill="none" stroke="midnightblue" d="M299,-335.08C299,-324.21 299,-312.79 299,-303.05"/>
<polygon fill="midnightblue" stroke="midnightblue" points="295.5,-335.26 299,-345.26 302.5,-335.26 295.5,-335.26"/>
</g>
<!-- Node4 -->
<g id="node4" class="node">
<title>Node4</title>
<g id="a_node4"><a xlink:href="MRAC__OMEGA_8cpp.html" target="_top" xlink:title="MRAC with angular velocities for the QRBP. Inherts the class controller_base for the basic functional...">
<polygon fill="white" stroke="black" points="0,-156.5 0,-208.5 186,-208.5 186,-156.5 0,-156.5"/>
<text text-anchor="start" x="8" y="-196.5" font-family="Helvetica,sans-Serif" font-size="10.00">ACSL&#45;flightstack&#45;winged</text>
<text text-anchor="start" x="8" y="-185.5" font-family="Helvetica,sans-Serif" font-size="10.00">/src/acsl_flight/src/control</text>
<text text-anchor="start" x="8" y="-174.5" font-family="Helvetica,sans-Serif" font-size="10.00">/platforms/qrbp/control_algorithms</text>
<text text-anchor="middle" x="93" y="-163.5" font-family="Helvetica,sans-Serif" font-size="10.00">/MRAC_OMEGA/MRAC_OMEGA.cpp</text>
</a>
</g>
</g>
<!-- Node3&#45;&gt;Node4 -->
<g id="edge3" class="edge">
<title>Node3&#45;&gt;Node4</title>
<path fill="none" stroke="midnightblue" d="M93,-235.42C93,-226.36 93,-217 93,-208.77"/>
<polygon fill="midnightblue" stroke="midnightblue" points="89.5,-235.46 93,-245.46 96.5,-235.46 89.5,-235.46"/>
</g>
<!-- Node7 -->
<g id="node7" class="node">
<title>Node7</title>
<g id="a_node7"><a xlink:href="MRAC__PID_8hpp.html" target="_top" xlink:title="MRAC_PID for the QRBP.">
<polygon fill="white" stroke="black" points="427.5,-245.5 427.5,-308.5 570.5,-308.5 570.5,-245.5 427.5,-245.5"/>
<text text-anchor="start" x="435.5" y="-296.5" font-family="Helvetica,sans-Serif" font-size="10.00">ACSL&#45;flightstack&#45;winged</text>
<text text-anchor="start" x="435.5" y="-285.5" font-family="Helvetica,sans-Serif" font-size="10.00">/src/acsl_flight/include</text>
<text text-anchor="start" x="435.5" y="-274.5" font-family="Helvetica,sans-Serif" font-size="10.00">/control/platforms/qrbp</text>
<text text-anchor="start" x="435.5" y="-263.5" font-family="Helvetica,sans-Serif" font-size="10.00">/control_algorithms/MRAC</text>
<text text-anchor="middle" x="499" y="-252.5" font-family="Helvetica,sans-Serif" font-size="10.00">_PID/MRAC_PID.hpp</text>
</a>
</g>
</g>
<!-- Node6&#45;&gt;Node7 -->
<g id="edge6" class="edge">
<title>Node6&#45;&gt;Node7</title>
<path fill="none" stroke="midnightblue" d="M615.97,-340.64C596.35,-330.13 575.03,-318.71 556.03,-308.54"/>
<polygon fill="midnightblue" stroke="midnightblue" points="614.38,-343.76 624.85,-345.4 617.69,-337.59 614.38,-343.76"/>
</g>
<!-- Node9 -->
<g id="node9" class="node">
<title>Node9</title>
<g id="a_node9"><a xlink:href="MRAC__PID__logger_8cpp.html" target="_top" xlink:title="logging for the MRAC_PID controller. Inherits the Blackbox class for logging and takes in the interna...">
<polygon fill="white" stroke="black" points="589,-251 589,-303 775,-303 775,-251 589,-251"/>
<text text-anchor="start" x="597" y="-291" font-family="Helvetica,sans-Serif" font-size="10.00">ACSL&#45;flightstack&#45;winged</text>
<text text-anchor="start" x="597" y="-280" font-family="Helvetica,sans-Serif" font-size="10.00">/src/acsl_flight/src/control</text>
<text text-anchor="start" x="597" y="-269" font-family="Helvetica,sans-Serif" font-size="10.00">/platforms/qrbp/control_algorithms</text>
<text text-anchor="middle" x="682" y="-258" font-family="Helvetica,sans-Serif" font-size="10.00">/MRAC_PID/MRAC_PID_logger.cpp</text>
</a>
</g>
</g>
<!-- Node6&#45;&gt;Node9 -->
<g id="edge8" class="edge">
<title>Node6&#45;&gt;Node9</title>
<path fill="none" stroke="midnightblue" d="M682,-335.08C682,-324.21 682,-312.79 682,-303.05"/>
<polygon fill="midnightblue" stroke="midnightblue" points="678.5,-335.26 682,-345.26 685.5,-335.26 678.5,-335.26"/>
</g>
<!-- Node8 -->
<g id="node8" class="node">
<title>Node8</title>
<g id="a_node8"><a xlink:href="MRAC__PID_8cpp.html" target="_top" xlink:title="MRAC_PID for the QRBP.">
<polygon fill="white" stroke="black" points="406,-156.5 406,-208.5 592,-208.5 592,-156.5 406,-156.5"/>
<text text-anchor="start" x="414" y="-196.5" font-family="Helvetica,sans-Serif" font-size="10.00">ACSL&#45;flightstack&#45;winged</text>
<text text-anchor="start" x="414" y="-185.5" font-family="Helvetica,sans-Serif" font-size="10.00">/src/acsl_flight/src/control</text>
<text text-anchor="start" x="414" y="-174.5" font-family="Helvetica,sans-Serif" font-size="10.00">/platforms/qrbp/control_algorithms</text>
<text text-anchor="middle" x="499" y="-163.5" font-family="Helvetica,sans-Serif" font-size="10.00">/MRAC_PID/MRAC_PID.cpp</text>
</a>
</g>
</g>
<!-- Node7&#45;&gt;Node8 -->
<g id="edge7" class="edge">
<title>Node7&#45;&gt;Node8</title>
<path fill="none" stroke="midnightblue" d="M499,-235.42C499,-226.36 499,-217 499,-208.77"/>
<polygon fill="midnightblue" stroke="midnightblue" points="495.5,-235.46 499,-245.46 502.5,-235.46 495.5,-235.46"/>
</g>
<!-- Node11 -->
<g id="node11" class="node">
<title>Node11</title>
<g id="a_node11"><a xlink:href="PID_8hpp.html" target="_top" xlink:title="PID for the QRBP.">
<polygon fill="white" stroke="black" points="793.5,-251 793.5,-303 964.5,-303 964.5,-251 793.5,-251"/>
<text text-anchor="start" x="801.5" y="-291" font-family="Helvetica,sans-Serif" font-size="10.00">ACSL&#45;flightstack&#45;winged</text>
<text text-anchor="start" x="801.5" y="-280" font-family="Helvetica,sans-Serif" font-size="10.00">/src/acsl_flight/include</text>
<text text-anchor="start" x="801.5" y="-269" font-family="Helvetica,sans-Serif" font-size="10.00">/control/platforms/qrbp</text>
<text text-anchor="middle" x="879" y="-258" font-family="Helvetica,sans-Serif" font-size="10.00">/control_algorithms/PID/PID.hpp</text>
</a>
</g>
</g>
<!-- Node10&#45;&gt;Node11 -->
<g id="edge10" class="edge">
<title>Node10&#45;&gt;Node11</title>
<path fill="none" stroke="midnightblue" d="M1005.37,-340.86C980.28,-328.38 952.56,-314.6 929.5,-303.12"/>
<polygon fill="midnightblue" stroke="midnightblue" points="1003.97,-344.07 1014.48,-345.4 1007.08,-337.81 1003.97,-344.07"/>
</g>
<!-- Node13 -->
<g id="node13" class="node">
<title>Node13</title>
<g id="a_node13"><a xlink:href="PID__logger_8cpp.html" target="_top" xlink:title="logging for the PID controller.">
<polygon fill="white" stroke="black" points="983,-251 983,-303 1169,-303 1169,-251 983,-251"/>
<text text-anchor="start" x="991" y="-291" font-family="Helvetica,sans-Serif" font-size="10.00">ACSL&#45;flightstack&#45;winged</text>
<text text-anchor="start" x="991" y="-280" font-family="Helvetica,sans-Serif" font-size="10.00">/src/acsl_flight/src/control</text>
<text text-anchor="start" x="991" y="-269" font-family="Helvetica,sans-Serif" font-size="10.00">/platforms/qrbp/control_algorithms</text>
<text text-anchor="middle" x="1076" y="-258" font-family="Helvetica,sans-Serif" font-size="10.00">/PID/PID_logger.cpp</text>
</a>
</g>
</g>
<!-- Node10&#45;&gt;Node13 -->
<g id="edge12" class="edge">
<title>Node10&#45;&gt;Node13</title>
<path fill="none" stroke="midnightblue" d="M1076,-335.08C1076,-324.21 1076,-312.79 1076,-303.05"/>
<polygon fill="midnightblue" stroke="midnightblue" points="1072.5,-335.26 1076,-345.26 1079.5,-335.26 1072.5,-335.26"/>
</g>
<!-- Node12 -->
<g id="node12" class="node">
<title>Node12</title>
<g id="a_node12"><a xlink:href="PID_8cpp.html" target="_top" xlink:title=" ">
<polygon fill="white" stroke="black" points="786,-156.5 786,-208.5 972,-208.5 972,-156.5 786,-156.5"/>
<text text-anchor="start" x="794" y="-196.5" font-family="Helvetica,sans-Serif" font-size="10.00">ACSL&#45;flightstack&#45;winged</text>
<text text-anchor="start" x="794" y="-185.5" font-family="Helvetica,sans-Serif" font-size="10.00">/src/acsl_flight/src/control</text>
<text text-anchor="start" x="794" y="-174.5" font-family="Helvetica,sans-Serif" font-size="10.00">/platforms/qrbp/control_algorithms</text>
<text text-anchor="middle" x="879" y="-163.5" font-family="Helvetica,sans-Serif" font-size="10.00">/PID/PID.cpp</text>
</a>
</g>
</g>
<!-- Node11&#45;&gt;Node12 -->
<g id="edge11" class="edge">
<title>Node11&#45;&gt;Node12</title>
<path fill="none" stroke="midnightblue" d="M879,-240.49C879,-229.91 879,-218.53 879,-208.75"/>
<polygon fill="midnightblue" stroke="midnightblue" points="875.5,-240.72 879,-250.72 882.5,-240.72 875.5,-240.72"/>
</g>
<!-- Node15 -->
<g id="node15" class="node">
<title>Node15</title>
<g id="a_node15"><a xlink:href="PID__OMEGA_8hpp.html" target="_top" xlink:title="PID with angular veocities for the QRBP.">
<polygon fill="white" stroke="black" points="1187.5,-245.5 1187.5,-308.5 1360.5,-308.5 1360.5,-245.5 1187.5,-245.5"/>
<text text-anchor="start" x="1195.5" y="-296.5" font-family="Helvetica,sans-Serif" font-size="10.00">ACSL&#45;flightstack&#45;winged</text>
<text text-anchor="start" x="1195.5" y="-285.5" font-family="Helvetica,sans-Serif" font-size="10.00">/src/acsl_flight/include</text>
<text text-anchor="start" x="1195.5" y="-274.5" font-family="Helvetica,sans-Serif" font-size="10.00">/control/platforms/qrbp</text>
<text text-anchor="start" x="1195.5" y="-263.5" font-family="Helvetica,sans-Serif" font-size="10.00">/control_algorithms/PID_OMEGA</text>
<text text-anchor="middle" x="1274" y="-252.5" font-family="Helvetica,sans-Serif" font-size="10.00">/PID_OMEGA.hpp</text>
</a>
</g>
</g>
<!-- Node14&#45;&gt;Node15 -->
<g id="edge14" class="edge">
<title>Node14&#45;&gt;Node15</title>
<path fill="none" stroke="midnightblue" d="M1336.1,-338.26C1326,-328.46 1315.24,-318.02 1305.57,-308.63"/>
<polygon fill="midnightblue" stroke="midnightblue" points="1333.71,-340.81 1343.32,-345.26 1338.58,-335.79 1333.71,-340.81"/>
</g>
<!-- Node24 -->
<g id="node24" class="node">
<title>Node24</title>
<g id="a_node24"><a xlink:href="PID__OMEGA__logger_8cpp.html" target="_top" xlink:title="logging for the PID with angular velocities controller">
<polygon fill="white" stroke="black" points="1378.5,-251 1378.5,-303 1573.5,-303 1573.5,-251 1378.5,-251"/>
<text text-anchor="start" x="1386.5" y="-291" font-family="Helvetica,sans-Serif" font-size="10.00">ACSL&#45;flightstack&#45;winged</text>
<text text-anchor="start" x="1386.5" y="-280" font-family="Helvetica,sans-Serif" font-size="10.00">/src/acsl_flight/src/control</text>
<text text-anchor="start" x="1386.5" y="-269" font-family="Helvetica,sans-Serif" font-size="10.00">/platforms/qrbp/control_algorithms</text>
<text text-anchor="middle" x="1476" y="-258" font-family="Helvetica,sans-Serif" font-size="10.00">/PID_OMEGA/PID_OMEGA_logger.cpp</text>
</a>
</g>
</g>
<!-- Node14&#45;&gt;Node24 -->
<g id="edge23" class="edge">
<title>Node14&#45;&gt;Node24</title>
<path fill="none" stroke="midnightblue" d="M1414.07,-338.09C1426.18,-326.34 1439.21,-313.7 1450.18,-303.05"/>
<polygon fill="midnightblue" stroke="midnightblue" points="1411.42,-335.79 1406.68,-345.26 1416.29,-340.81 1411.42,-335.79"/>
</g>
<!-- Node16 -->
<g id="node16" class="node">
<title>Node16</title>
<g id="a_node16"><a xlink:href="control__config_8hpp.html" target="_top" xlink:title="Just a header file for configuring which platform and controller to pick during compilation.">
<polygon fill="white" stroke="black" points="1207,-162 1207,-203 1353,-203 1353,-162 1207,-162"/>
<text text-anchor="start" x="1215" y="-191" font-family="Helvetica,sans-Serif" font-size="10.00">ACSL&#45;flightstack&#45;winged</text>
<text text-anchor="start" x="1215" y="-180" font-family="Helvetica,sans-Serif" font-size="10.00">/src/acsl_flight/include</text>
<text text-anchor="middle" x="1280" y="-169" font-family="Helvetica,sans-Serif" font-size="10.00">/control/control_config.hpp</text>
</a>
</g>
</g>
<!-- Node15&#45;&gt;Node16 -->
<g id="edge15" class="edge">
<title>Node15&#45;&gt;Node16</title>
<path fill="none" stroke="midnightblue" d="M1276.63,-235.41C1277.36,-224.25 1278.11,-212.65 1278.72,-203.25"/>
<polygon fill="midnightblue" stroke="midnightblue" points="1273.14,-235.25 1275.98,-245.46 1280.12,-235.7 1273.14,-235.25"/>
</g>
<!-- Node23 -->
<g id="node23" class="node">
<title>Node23</title>
<g id="a_node23"><a xlink:href="PID__OMEGA_8cpp.html" target="_top" xlink:title="PID with angular velocities for the QRBP.">
<polygon fill="white" stroke="black" points="1371,-156.5 1371,-208.5 1557,-208.5 1557,-156.5 1371,-156.5"/>
<text text-anchor="start" x="1379" y="-196.5" font-family="Helvetica,sans-Serif" font-size="10.00">ACSL&#45;flightstack&#45;winged</text>
<text text-anchor="start" x="1379" y="-185.5" font-family="Helvetica,sans-Serif" font-size="10.00">/src/acsl_flight/src/control</text>
<text text-anchor="start" x="1379" y="-174.5" font-family="Helvetica,sans-Serif" font-size="10.00">/platforms/qrbp/control_algorithms</text>
<text text-anchor="middle" x="1464" y="-163.5" font-family="Helvetica,sans-Serif" font-size="10.00">/PID_OMEGA/PID_OMEGA.cpp</text>
</a>
</g>
</g>
<!-- Node15&#45;&gt;Node23 -->
<g id="edge22" class="edge">
<title>Node15&#45;&gt;Node23</title>
<path fill="none" stroke="midnightblue" d="M1345.78,-241.05C1367.94,-230.26 1391.9,-218.6 1412.41,-208.62"/>
<polygon fill="midnightblue" stroke="midnightblue" points="1344.2,-237.93 1336.74,-245.46 1347.26,-244.23 1344.2,-237.93"/>
</g>
<!-- Node17 -->
<g id="node17" class="node">
<title>Node17</title>
<g id="a_node17"><a xlink:href="control_8hpp.html" target="_top" xlink:title="Class declaration for computing and publishing the control.">
<polygon fill="white" stroke="black" points="1212.5,-78.5 1212.5,-119.5 1347.5,-119.5 1347.5,-78.5 1212.5,-78.5"/>
<text text-anchor="start" x="1220.5" y="-107.5" font-family="Helvetica,sans-Serif" font-size="10.00">ACSL&#45;flightstack&#45;winged</text>
<text text-anchor="start" x="1220.5" y="-96.5" font-family="Helvetica,sans-Serif" font-size="10.00">/src/acsl_flight/include</text>
<text text-anchor="middle" x="1280" y="-85.5" font-family="Helvetica,sans-Serif" font-size="10.00">/control/control.hpp</text>
</a>
</g>
</g>
<!-- Node16&#45;&gt;Node17 -->
<g id="edge16" class="edge">
<title>Node16&#45;&gt;Node17</title>
<path fill="none" stroke="midnightblue" d="M1280,-151.56C1280,-140.88 1280,-129.13 1280,-119.55"/>
<polygon fill="midnightblue" stroke="midnightblue" points="1276.5,-151.77 1280,-161.77 1283.5,-151.77 1276.5,-151.77"/>
</g>
<!-- Node16&#45;&gt;Node19 -->
<g id="edge18" class="edge">
<title>Node16&#45;&gt;Node19</title>
<path fill="none" stroke="midnightblue" d="M1333.24,-157.79C1360.54,-145.63 1393.39,-131 1419.21,-119.5"/>
<polygon fill="midnightblue" stroke="midnightblue" points="1331.54,-154.71 1323.83,-161.98 1334.39,-161.11 1331.54,-154.71"/>
</g>
<!-- Node16&#45;&gt;Node21 -->
<g id="edge20" class="edge">
<title>Node16&#45;&gt;Node21</title>
<path fill="none" stroke="midnightblue" d="M1350.19,-159.16C1354.17,-158.05 1358.13,-156.99 1362,-156 1440.19,-135.99 1461.01,-136.57 1540,-120 1547.84,-118.36 1556.05,-116.61 1564.2,-114.86"/>
<polygon fill="midnightblue" stroke="midnightblue" points="1348.91,-155.89 1340.26,-162 1350.83,-162.62 1348.91,-155.89"/>
</g>
<!-- Node18 -->
<g id="node18" class="node">
<title>Node18</title>
<g id="a_node18"><a xlink:href="control_8cpp.html" target="_top" xlink:title="Control node definition. Runs all the control algorithms. Adds as a hub for all the control actions.">
<polygon fill="white" stroke="black" points="1210,-0.5 1210,-41.5 1350,-41.5 1350,-0.5 1210,-0.5"/>
<text text-anchor="start" x="1218" y="-29.5" font-family="Helvetica,sans-Serif" font-size="10.00">ACSL&#45;flightstack&#45;winged</text>
<text text-anchor="start" x="1218" y="-18.5" font-family="Helvetica,sans-Serif" font-size="10.00">/src/acsl_flight/src/control</text>
<text text-anchor="middle" x="1280" y="-7.5" font-family="Helvetica,sans-Serif" font-size="10.00">/control.cpp</text>
</a>
</g>
</g>
<!-- Node17&#45;&gt;Node18 -->
<g id="edge17" class="edge">
<title>Node17&#45;&gt;Node18</title>
<path fill="none" stroke="midnightblue" d="M1280,-68.3C1280,-59.3 1280,-49.65 1280,-41.51"/>
<polygon fill="midnightblue" stroke="midnightblue" points="1276.5,-68.43 1280,-78.43 1283.5,-68.43 1276.5,-68.43"/>
</g>
<!-- Node20 -->
<g id="node20" class="node">
<title>Node20</title>
<g id="a_node20"><a xlink:href="mocap_8cpp.html" target="_top" xlink:title="Node definition for UDP socket as a lifecycle node.">
<polygon fill="white" stroke="black" points="1393,-0.5 1393,-41.5 1533,-41.5 1533,-0.5 1393,-0.5"/>
<text text-anchor="start" x="1401" y="-29.5" font-family="Helvetica,sans-Serif" font-size="10.00">ACSL&#45;flightstack&#45;winged</text>
<text text-anchor="start" x="1401" y="-18.5" font-family="Helvetica,sans-Serif" font-size="10.00">/src/acsl_flight/src/mocap</text>
<text text-anchor="middle" x="1463" y="-7.5" font-family="Helvetica,sans-Serif" font-size="10.00">/mocap.cpp</text>
</a>
</g>
</g>
<!-- Node19&#45;&gt;Node20 -->
<g id="edge19" class="edge">
<title>Node19&#45;&gt;Node20</title>
<path fill="none" stroke="midnightblue" d="M1463,-68.3C1463,-59.3 1463,-49.65 1463,-41.51"/>
<polygon fill="midnightblue" stroke="midnightblue" points="1459.5,-68.43 1463,-78.43 1466.5,-68.43 1459.5,-68.43"/>
</g>
<!-- Node22 -->
<g id="node22" class="node">
<title>Node22</title>
<g id="a_node22"><a xlink:href="vio_8cpp.html" target="_top" xlink:title="Node definition for Intel Realsense T265 tracking camera as a lifecycle node.">
<polygon fill="white" stroke="black" points="1564.5,-0.5 1564.5,-41.5 1699.5,-41.5 1699.5,-0.5 1564.5,-0.5"/>
<text text-anchor="start" x="1572.5" y="-29.5" font-family="Helvetica,sans-Serif" font-size="10.00">ACSL&#45;flightstack&#45;winged</text>
<text text-anchor="start" x="1572.5" y="-18.5" font-family="Helvetica,sans-Serif" font-size="10.00">/src/acsl_flight/src/vio</text>
<text text-anchor="middle" x="1632" y="-7.5" font-family="Helvetica,sans-Serif" font-size="10.00">/vio.cpp</text>
</a>
</g>
</g>
<!-- Node21&#45;&gt;Node22 -->
<g id="edge21" class="edge">
<title>Node21&#45;&gt;Node22</title>
<path fill="none" stroke="midnightblue" d="M1632,-68.3C1632,-59.3 1632,-49.65 1632,-41.51"/>
<polygon fill="midnightblue" stroke="midnightblue" points="1628.5,-68.43 1632,-78.43 1635.5,-68.43 1628.5,-68.43"/>
</g>
<!-- Node26 -->
<g id="node26" class="node">
<title>Node26</title>
<g id="a_node26"><a xlink:href="PID__TD_8hpp.html" target="_top" xlink:title="PID for the ros test drone.">
<polygon fill="white" stroke="black" points="1667,-251 1667,-303 1857,-303 1857,-251 1667,-251"/>
<text text-anchor="start" x="1675" y="-291" font-family="Helvetica,sans-Serif" font-size="10.00">ACSL&#45;flightstack&#45;winged</text>
<text text-anchor="start" x="1675" y="-280" font-family="Helvetica,sans-Serif" font-size="10.00">/src/acsl_flight/include</text>
<text text-anchor="start" x="1675" y="-269" font-family="Helvetica,sans-Serif" font-size="10.00">/control/platforms/rostestdrone</text>
<text text-anchor="middle" x="1762" y="-258" font-family="Helvetica,sans-Serif" font-size="10.00">/control_algorithms/PID/PID_TD.hpp</text>
</a>
</g>
</g>
<!-- Node25&#45;&gt;Node26 -->
<g id="edge25" class="edge">
<title>Node25&#45;&gt;Node26</title>
<path fill="none" stroke="midnightblue" d="M1762,-335.08C1762,-324.21 1762,-312.79 1762,-303.05"/>
<polygon fill="midnightblue" stroke="midnightblue" points="1758.5,-335.26 1762,-345.26 1765.5,-335.26 1758.5,-335.26"/>
</g>
<!-- Node28 -->
<g id="node28" class="node">
<title>Node28</title>
<g id="a_node28"><a xlink:href="PID__TD__logger_8cpp.html" target="_top" xlink:title="logging for the PID controller.">
<polygon fill="white" stroke="black" points="1875,-251 1875,-303 2063,-303 2063,-251 1875,-251"/>
<text text-anchor="start" x="1883" y="-291" font-family="Helvetica,sans-Serif" font-size="10.00">ACSL&#45;flightstack&#45;winged</text>
<text text-anchor="start" x="1883" y="-280" font-family="Helvetica,sans-Serif" font-size="10.00">/src/acsl_flight/src/control</text>
<text text-anchor="start" x="1883" y="-269" font-family="Helvetica,sans-Serif" font-size="10.00">/platforms/rostestdrone/control</text>
<text text-anchor="middle" x="1969" y="-258" font-family="Helvetica,sans-Serif" font-size="10.00">_algorithms/PID/PID_TD_logger.cpp</text>
</a>
</g>
</g>
<!-- Node25&#45;&gt;Node28 -->
<g id="edge27" class="edge">
<title>Node25&#45;&gt;Node28</title>
<path fill="none" stroke="midnightblue" d="M1835.87,-341.03C1862.32,-328.5 1891.59,-314.65 1915.94,-303.12"/>
<polygon fill="midnightblue" stroke="midnightblue" points="1834.19,-337.95 1826.64,-345.4 1837.18,-344.28 1834.19,-337.95"/>
</g>
<!-- Node27 -->
<g id="node27" class="node">
<title>Node27</title>
<g id="a_node27"><a xlink:href="PID__TD_8cpp.html" target="_top" xlink:title="PID for the rostestdrone.">
<polygon fill="white" stroke="black" points="1678,-156.5 1678,-208.5 1846,-208.5 1846,-156.5 1678,-156.5"/>
<text text-anchor="start" x="1686" y="-196.5" font-family="Helvetica,sans-Serif" font-size="10.00">ACSL&#45;flightstack&#45;winged</text>
<text text-anchor="start" x="1686" y="-185.5" font-family="Helvetica,sans-Serif" font-size="10.00">/src/acsl_flight/src/control</text>
<text text-anchor="start" x="1686" y="-174.5" font-family="Helvetica,sans-Serif" font-size="10.00">/platforms/rostestdrone/control</text>
<text text-anchor="middle" x="1762" y="-163.5" font-family="Helvetica,sans-Serif" font-size="10.00">_algorithms/PID/PID_TD.cpp</text>
</a>
</g>
</g>
<!-- Node26&#45;&gt;Node27 -->
<g id="edge26" class="edge">
<title>Node26&#45;&gt;Node27</title>
<path fill="none" stroke="midnightblue" d="M1762,-240.49C1762,-229.91 1762,-218.53 1762,-208.75"/>
<polygon fill="midnightblue" stroke="midnightblue" points="1758.5,-240.72 1762,-250.72 1765.5,-240.72 1758.5,-240.72"/>
</g>
</g>
</svg>
