<?xml version="1.0" encoding="UTF-8" standalone="no"?>
<!DOCTYPE svg PUBLIC "-//W3C//DTD SVG 1.1//EN"
 "http://www.w3.org/Graphics/SVG/1.1/DTD/svg11.dtd">
<!-- Generated by graphviz version 2.43.0 (0)
 -->
<!-- Title: ACSL&#45;flightstack&#45;winged/src/acsl_flight/include/flight_bridge/flight_bridge.hpp Pages: 1 -->
<svg width="472pt" height="206pt"
 viewBox="0.00 0.00 471.50 206.00" xmlns="http://www.w3.org/2000/svg" xmlns:xlink="http://www.w3.org/1999/xlink">
<g id="graph0" class="graph" transform="scale(1 1) rotate(0) translate(4 202)">
<title>ACSL&#45;flightstack&#45;winged/src/acsl_flight/include/flight_bridge/flight_bridge.hpp</title>
<polygon fill="white" stroke="transparent" points="-4,4 -4,-202 467.5,-202 467.5,4 -4,4"/>
<!-- Node1 -->
<g id="node1" class="node">
<title>Node1</title>
<g id="a_node1"><a xlink:title=" ">
<polygon fill="#bfbfbf" stroke="black" points="149.5,-156.5 149.5,-197.5 314.5,-197.5 314.5,-156.5 149.5,-156.5"/>
<text text-anchor="start" x="157.5" y="-185.5" font-family="Helvetica,sans-Serif" font-size="10.00">ACSL&#45;flightstack&#45;winged</text>
<text text-anchor="start" x="157.5" y="-174.5" font-family="Helvetica,sans-Serif" font-size="10.00">/src/acsl_flight/include</text>
<text text-anchor="middle" x="232" y="-163.5" font-family="Helvetica,sans-Serif" font-size="10.00">/flight_bridge/flight_bridge.hpp</text>
</a>
</g>
</g>
<!-- Node2 -->
<g id="node2" class="node">
<title>Node2</title>
<g id="a_node2"><a xlink:href="control_8hpp.html" target="_top" xlink:title="Class declaration for computing and publishing the control.">
<polygon fill="white" stroke="black" points="2.5,-78.5 2.5,-119.5 137.5,-119.5 137.5,-78.5 2.5,-78.5"/>
<text text-anchor="start" x="10.5" y="-107.5" font-family="Helvetica,sans-Serif" font-size="10.00">ACSL&#45;flightstack&#45;winged</text>
<text text-anchor="start" x="10.5" y="-96.5" font-family="Helvetica,sans-Serif" font-size="10.00">/src/acsl_flight/include</text>
<text text-anchor="middle" x="70" y="-85.5" font-family="Helvetica,sans-Serif" font-size="10.00">/control/control.hpp</text>
</a>
</g>
</g>
<!-- Node1&#45;&gt;Node2 -->
<g id="edge1" class="edge">
<title>Node1&#45;&gt;Node2</title>
<path fill="none" stroke="midnightblue" d="M180.95,-152.05C158.6,-141.57 132.72,-129.42 111.58,-119.51"/>
<polygon fill="midnightblue" stroke="midnightblue" points="179.74,-155.35 190.28,-156.43 182.71,-149.01 179.74,-155.35"/>
</g>
<!-- Node4 -->
<g id="node4" class="node">
<title>Node4</title>
<g id="a_node4"><a xlink:href="flight__main_8hpp.html" target="_top" xlink:title="Header file for the main function that just sources all the other header files.">
<polygon fill="white" stroke="black" points="155.5,-78.5 155.5,-119.5 308.5,-119.5 308.5,-78.5 155.5,-78.5"/>
<text text-anchor="start" x="163.5" y="-107.5" font-family="Helvetica,sans-Serif" font-size="10.00">ACSL&#45;flightstack&#45;winged</text>
<text text-anchor="start" x="163.5" y="-96.5" font-family="Helvetica,sans-Serif" font-size="10.00">/src/acsl_flight/include</text>
<text text-anchor="middle" x="232" y="-85.5" font-family="Helvetica,sans-Serif" font-size="10.00">/flight_main/flight_main.hpp</text>
</a>
</g>
</g>
<!-- Node1&#45;&gt;Node4 -->
<g id="edge3" class="edge">
<title>Node1&#45;&gt;Node4</title>
<path fill="none" stroke="midnightblue" d="M232,-146.3C232,-137.3 232,-127.65 232,-119.51"/>
<polygon fill="midnightblue" stroke="midnightblue" points="228.5,-146.43 232,-156.43 235.5,-146.43 228.5,-146.43"/>
</g>
<!-- Node6 -->
<g id="node6" class="node">
<title>Node6</title>
<g id="a_node6"><a xlink:href="flight__bridge_8cpp.html" target="_top" xlink:title="Utlities for multithreading.">
<polygon fill="white" stroke="black" points="326.5,-78.5 326.5,-119.5 463.5,-119.5 463.5,-78.5 326.5,-78.5"/>
<text text-anchor="start" x="334.5" y="-107.5" font-family="Helvetica,sans-Serif" font-size="10.00">ACSL&#45;flightstack&#45;winged</text>
<text text-anchor="start" x="334.5" y="-96.5" font-family="Helvetica,sans-Serif" font-size="10.00">/src/acsl_flight/src/flight</text>
<text text-anchor="middle" x="395" y="-85.5" font-family="Helvetica,sans-Serif" font-size="10.00">_bridge/flight_bridge.cpp</text>
</a>
</g>
</g>
<!-- Node1&#45;&gt;Node6 -->
<g id="edge5" class="edge">
<title>Node1&#45;&gt;Node6</title>
<path fill="none" stroke="midnightblue" d="M283.07,-152.19C305.62,-141.67 331.8,-129.47 353.17,-119.51"/>
<polygon fill="midnightblue" stroke="midnightblue" points="281.56,-149.03 273.98,-156.43 284.52,-155.37 281.56,-149.03"/>
</g>
<!-- Node3 -->
<g id="node3" class="node">
<title>Node3</title>
<g id="a_node3"><a xlink:href="control_8cpp.html" target="_top" xlink:title="Control node definition. Runs all the control algorithms. Adds as a hub for all the control actions.">
<polygon fill="white" stroke="black" points="0,-0.5 0,-41.5 140,-41.5 140,-0.5 0,-0.5"/>
<text text-anchor="start" x="8" y="-29.5" font-family="Helvetica,sans-Serif" font-size="10.00">ACSL&#45;flightstack&#45;winged</text>
<text text-anchor="start" x="8" y="-18.5" font-family="Helvetica,sans-Serif" font-size="10.00">/src/acsl_flight/src/control</text>
<text text-anchor="middle" x="70" y="-7.5" font-family="Helvetica,sans-Serif" font-size="10.00">/control.cpp</text>
</a>
</g>
</g>
<!-- Node2&#45;&gt;Node3 -->
<g id="edge2" class="edge">
<title>Node2&#45;&gt;Node3</title>
<path fill="none" stroke="midnightblue" d="M70,-68.3C70,-59.3 70,-49.65 70,-41.51"/>
<polygon fill="midnightblue" stroke="midnightblue" points="66.5,-68.43 70,-78.43 73.5,-68.43 66.5,-68.43"/>
</g>
<!-- Node5 -->
<g id="node5" class="node">
<title>Node5</title>
<g id="a_node5"><a xlink:href="flight__main_8cpp.html" target="_top" xlink:title="Main function to initiate ROS2.">
<polygon fill="white" stroke="black" points="164.5,-0.5 164.5,-41.5 299.5,-41.5 299.5,-0.5 164.5,-0.5"/>
<text text-anchor="start" x="172.5" y="-29.5" font-family="Helvetica,sans-Serif" font-size="10.00">ACSL&#45;flightstack&#45;winged</text>
<text text-anchor="start" x="172.5" y="-18.5" font-family="Helvetica,sans-Serif" font-size="10.00">/src/acsl_flight/src/flight</text>
<text text-anchor="middle" x="232" y="-7.5" font-family="Helvetica,sans-Serif" font-size="10.00">_main/flight_main.cpp</text>
</a>
</g>
</g>
<!-- Node4&#45;&gt;Node5 -->
<g id="edge4" class="edge">
<title>Node4&#45;&gt;Node5</title>
<path fill="none" stroke="midnightblue" d="M232,-68.3C232,-59.3 232,-49.65 232,-41.51"/>
<polygon fill="midnightblue" stroke="midnightblue" points="228.5,-68.43 232,-78.43 235.5,-68.43 228.5,-68.43"/>
</g>
</g>
</svg>
