<?xml version="1.0" encoding="UTF-8" standalone="no"?>
<!DOCTYPE svg PUBLIC "-//W3C//DTD SVG 1.1//EN"
 "http://www.w3.org/Graphics/SVG/1.1/DTD/svg11.dtd">
<!-- Generated by graphviz version 2.43.0 (0)
 -->
<!-- Title: ACSL&#45;flightstack&#45;winged/src/acsl_flight/include/utils/flight_log/flight_log.hpp Pages: 1 -->
<svg width="2071pt" height="662pt"
 viewBox="0.00 0.00 2071.00 662.00" xmlns="http://www.w3.org/2000/svg" xmlns:xlink="http://www.w3.org/1999/xlink">
<g id="graph0" class="graph" transform="scale(1 1) rotate(0) translate(4 658)">
<title>ACSL&#45;flightstack&#45;winged/src/acsl_flight/include/utils/flight_log/flight_log.hpp</title>
<polygon fill="white" stroke="transparent" points="-4,4 -4,-658 2067,-658 2067,4 -4,4"/>
<!-- Node1 -->
<g id="node1" class="node">
<title>Node1</title>
<g id="a_node1"><a xlink:title="Utilities for logging flight data.">
<polygon fill="#bfbfbf" stroke="black" points="1307.5,-601.5 1307.5,-653.5 1442.5,-653.5 1442.5,-601.5 1307.5,-601.5"/>
<text text-anchor="start" x="1315.5" y="-641.5" font-family="Helvetica,sans-Serif" font-size="10.00">ACSL&#45;flightstack&#45;winged</text>
<text text-anchor="start" x="1315.5" y="-630.5" font-family="Helvetica,sans-Serif" font-size="10.00">/src/acsl_flight/include</text>
<text text-anchor="start" x="1315.5" y="-619.5" font-family="Helvetica,sans-Serif" font-size="10.00">/utils/flight_log/flight</text>
<text text-anchor="middle" x="1375" y="-608.5" font-family="Helvetica,sans-Serif" font-size="10.00">_log.hpp</text>
</a>
</g>
</g>
<!-- Node2 -->
<g id="node2" class="node">
<title>Node2</title>
<g id="a_node2"><a xlink:href="MRAC__OMEGA__logger_8hpp.html" target="_top" xlink:title="logging for the MRAc with angular velocities controller">
<polygon fill="white" stroke="black" points="204.5,-501.5 204.5,-564.5 393.5,-564.5 393.5,-501.5 204.5,-501.5"/>
<text text-anchor="start" x="212.5" y="-552.5" font-family="Helvetica,sans-Serif" font-size="10.00">ACSL&#45;flightstack&#45;winged</text>
<text text-anchor="start" x="212.5" y="-541.5" font-family="Helvetica,sans-Serif" font-size="10.00">/src/acsl_flight/include</text>
<text text-anchor="start" x="212.5" y="-530.5" font-family="Helvetica,sans-Serif" font-size="10.00">/control/platforms/qrbp</text>
<text text-anchor="start" x="212.5" y="-519.5" font-family="Helvetica,sans-Serif" font-size="10.00">/control_algorithms/MRAC</text>
<text text-anchor="middle" x="299" y="-508.5" font-family="Helvetica,sans-Serif" font-size="10.00">_OMEGA/MRAC_OMEGA_logger.hpp</text>
</a>
</g>
</g>
<!-- Node1&#45;&gt;Node2 -->
<g id="edge1" class="edge">
<title>Node1&#45;&gt;Node2</title>
<path fill="none" stroke="midnightblue" d="M1297.2,-620.97C1157.23,-610.88 853.7,-588.37 598,-565 529.53,-558.74 452.34,-550.71 393.54,-544.4"/>
<polygon fill="midnightblue" stroke="midnightblue" points="1297.17,-624.48 1307.4,-621.71 1297.67,-617.5 1297.17,-624.48"/>
</g>
<!-- Node6 -->
<g id="node6" class="node">
<title>Node6</title>
<g id="a_node6"><a xlink:href="MRAC__PID__logger_8hpp.html" target="_top" xlink:title="logging for the MRAC_PID controller.">
<polygon fill="white" stroke="black" points="607.5,-501.5 607.5,-564.5 756.5,-564.5 756.5,-501.5 607.5,-501.5"/>
<text text-anchor="start" x="615.5" y="-552.5" font-family="Helvetica,sans-Serif" font-size="10.00">ACSL&#45;flightstack&#45;winged</text>
<text text-anchor="start" x="615.5" y="-541.5" font-family="Helvetica,sans-Serif" font-size="10.00">/src/acsl_flight/include</text>
<text text-anchor="start" x="615.5" y="-530.5" font-family="Helvetica,sans-Serif" font-size="10.00">/control/platforms/qrbp</text>
<text text-anchor="start" x="615.5" y="-519.5" font-family="Helvetica,sans-Serif" font-size="10.00">/control_algorithms/MRAC</text>
<text text-anchor="middle" x="682" y="-508.5" font-family="Helvetica,sans-Serif" font-size="10.00">_PID/MRAC_PID_logger.hpp</text>
</a>
</g>
</g>
<!-- Node1&#45;&gt;Node6 -->
<g id="edge5" class="edge">
<title>Node1&#45;&gt;Node6</title>
<path fill="none" stroke="midnightblue" d="M1297.07,-616.1C1162.56,-598.14 888.59,-561.58 756.5,-543.94"/>
<polygon fill="midnightblue" stroke="midnightblue" points="1296.92,-619.61 1307.29,-617.46 1297.84,-612.67 1296.92,-619.61"/>
</g>
<!-- Node10 -->
<g id="node10" class="node">
<title>Node10</title>
<g id="a_node10"><a xlink:href="PID__logger_8hpp.html" target="_top" xlink:title="logging for the PID controller">
<polygon fill="white" stroke="black" points="1001,-501.5 1001,-564.5 1151,-564.5 1151,-501.5 1001,-501.5"/>
<text text-anchor="start" x="1009" y="-552.5" font-family="Helvetica,sans-Serif" font-size="10.00">ACSL&#45;flightstack&#45;winged</text>
<text text-anchor="start" x="1009" y="-541.5" font-family="Helvetica,sans-Serif" font-size="10.00">/src/acsl_flight/include</text>
<text text-anchor="start" x="1009" y="-530.5" font-family="Helvetica,sans-Serif" font-size="10.00">/control/platforms/qrbp</text>
<text text-anchor="start" x="1009" y="-519.5" font-family="Helvetica,sans-Serif" font-size="10.00">/control_algorithms/PID/PID</text>
<text text-anchor="middle" x="1076" y="-508.5" font-family="Helvetica,sans-Serif" font-size="10.00">_logger.hpp</text>
</a>
</g>
</g>
<!-- Node1&#45;&gt;Node10 -->
<g id="edge9" class="edge">
<title>Node1&#45;&gt;Node10</title>
<path fill="none" stroke="midnightblue" d="M1297.43,-602.5C1252.36,-588.56 1195.85,-571.08 1151.19,-557.26"/>
<polygon fill="midnightblue" stroke="midnightblue" points="1296.56,-605.9 1307.15,-605.51 1298.63,-599.21 1296.56,-605.9"/>
</g>
<!-- Node14 -->
<g id="node14" class="node">
<title>Node14</title>
<g id="a_node14"><a xlink:href="PID__OMEGA__logger_8hpp.html" target="_top" xlink:title="Logger for the PID controller.">
<polygon fill="white" stroke="black" points="1288.5,-501.5 1288.5,-564.5 1461.5,-564.5 1461.5,-501.5 1288.5,-501.5"/>
<text text-anchor="start" x="1296.5" y="-552.5" font-family="Helvetica,sans-Serif" font-size="10.00">ACSL&#45;flightstack&#45;winged</text>
<text text-anchor="start" x="1296.5" y="-541.5" font-family="Helvetica,sans-Serif" font-size="10.00">/src/acsl_flight/include</text>
<text text-anchor="start" x="1296.5" y="-530.5" font-family="Helvetica,sans-Serif" font-size="10.00">/control/platforms/qrbp</text>
<text text-anchor="start" x="1296.5" y="-519.5" font-family="Helvetica,sans-Serif" font-size="10.00">/control_algorithms/PID_OMEGA</text>
<text text-anchor="middle" x="1375" y="-508.5" font-family="Helvetica,sans-Serif" font-size="10.00">/PID_OMEGA_logger.hpp</text>
</a>
</g>
</g>
<!-- Node1&#45;&gt;Node14 -->
<g id="edge13" class="edge">
<title>Node1&#45;&gt;Node14</title>
<path fill="none" stroke="midnightblue" d="M1375,-590.94C1375,-582.23 1375,-572.97 1375,-564.51"/>
<polygon fill="midnightblue" stroke="midnightblue" points="1371.5,-591.22 1375,-601.22 1378.5,-591.22 1371.5,-591.22"/>
</g>
<!-- Node23 -->
<g id="node23" class="node">
<title>Node23</title>
<g id="a_node23"><a xlink:href="mocap_8hpp.html" target="_top" xlink:title="Class declaration for UDP socket as a lifecycle node.">
<polygon fill="white" stroke="black" points="1390.5,-234.5 1390.5,-275.5 1525.5,-275.5 1525.5,-234.5 1390.5,-234.5"/>
<text text-anchor="start" x="1398.5" y="-263.5" font-family="Helvetica,sans-Serif" font-size="10.00">ACSL&#45;flightstack&#45;winged</text>
<text text-anchor="start" x="1398.5" y="-252.5" font-family="Helvetica,sans-Serif" font-size="10.00">/src/acsl_flight/include</text>
<text text-anchor="middle" x="1458" y="-241.5" font-family="Helvetica,sans-Serif" font-size="10.00">/mocap/mocap.hpp</text>
</a>
</g>
</g>
<!-- Node1&#45;&gt;Node23 -->
<g id="edge36" class="edge">
<title>Node1&#45;&gt;Node23</title>
<path fill="none" stroke="midnightblue" d="M1441.35,-596.53C1490.96,-569.96 1554.73,-525.9 1582,-465 1609.96,-402.55 1605.79,-366.93 1565,-312 1553.13,-296.01 1535.33,-284.17 1517.64,-275.61"/>
<polygon fill="midnightblue" stroke="midnightblue" points="1439.5,-593.54 1432.27,-601.28 1442.75,-599.75 1439.5,-593.54"/>
</g>
<!-- Node25 -->
<g id="node25" class="node">
<title>Node25</title>
<g id="a_node25"><a xlink:href="vio_8hpp.html" target="_top" xlink:title="Class decleration for Intel Realsense T265 tracking camera as a lifecycle node.">
<polygon fill="white" stroke="black" points="1553.5,-234.5 1553.5,-275.5 1688.5,-275.5 1688.5,-234.5 1553.5,-234.5"/>
<text text-anchor="start" x="1561.5" y="-263.5" font-family="Helvetica,sans-Serif" font-size="10.00">ACSL&#45;flightstack&#45;winged</text>
<text text-anchor="start" x="1561.5" y="-252.5" font-family="Helvetica,sans-Serif" font-size="10.00">/src/acsl_flight/include</text>
<text text-anchor="middle" x="1621" y="-241.5" font-family="Helvetica,sans-Serif" font-size="10.00">/vio/vio.hpp</text>
</a>
</g>
</g>
<!-- Node1&#45;&gt;Node25 -->
<g id="edge37" class="edge">
<title>Node1&#45;&gt;Node25</title>
<path fill="none" stroke="midnightblue" d="M1452.35,-609.29C1482.32,-599.85 1515.48,-585.71 1541,-565 1631.15,-491.85 1627.33,-331.48 1622.96,-275.64"/>
<polygon fill="midnightblue" stroke="midnightblue" points="1451.31,-605.95 1442.75,-612.19 1453.33,-612.65 1451.31,-605.95"/>
</g>
<!-- Node29 -->
<g id="node29" class="node">
<title>Node29</title>
<g id="a_node29"><a xlink:href="PID__TD__logger_8hpp.html" target="_top" xlink:title="Logging for the PID controller.">
<polygon fill="white" stroke="black" points="1677.5,-501.5 1677.5,-564.5 1846.5,-564.5 1846.5,-501.5 1677.5,-501.5"/>
<text text-anchor="start" x="1685.5" y="-552.5" font-family="Helvetica,sans-Serif" font-size="10.00">ACSL&#45;flightstack&#45;winged</text>
<text text-anchor="start" x="1685.5" y="-541.5" font-family="Helvetica,sans-Serif" font-size="10.00">/src/acsl_flight/include</text>
<text text-anchor="start" x="1685.5" y="-530.5" font-family="Helvetica,sans-Serif" font-size="10.00">/control/platforms/rostestdrone</text>
<text text-anchor="start" x="1685.5" y="-519.5" font-family="Helvetica,sans-Serif" font-size="10.00">/control_algorithms/PID/PID_TD</text>
<text text-anchor="middle" x="1762" y="-508.5" font-family="Helvetica,sans-Serif" font-size="10.00">_logger.hpp</text>
</a>
</g>
</g>
<!-- Node1&#45;&gt;Node29 -->
<g id="edge32" class="edge">
<title>Node1&#45;&gt;Node29</title>
<path fill="none" stroke="midnightblue" d="M1452.51,-610.64C1508.44,-598.89 1585.64,-582.01 1653,-565 1660.92,-563 1669.13,-560.83 1677.34,-558.61"/>
<polygon fill="midnightblue" stroke="midnightblue" points="1451.74,-607.23 1442.67,-612.7 1453.18,-614.08 1451.74,-607.23"/>
</g>
<!-- Node3 -->
<g id="node3" class="node">
<title>Node3</title>
<g id="a_node3"><a xlink:href="MRAC__OMEGA_8hpp.html" target="_top" xlink:title="MRAC with angular velocities for the QRBP.">
<polygon fill="white" stroke="black" points="16,-401.5 16,-464.5 170,-464.5 170,-401.5 16,-401.5"/>
<text text-anchor="start" x="24" y="-452.5" font-family="Helvetica,sans-Serif" font-size="10.00">ACSL&#45;flightstack&#45;winged</text>
<text text-anchor="start" x="24" y="-441.5" font-family="Helvetica,sans-Serif" font-size="10.00">/src/acsl_flight/include</text>
<text text-anchor="start" x="24" y="-430.5" font-family="Helvetica,sans-Serif" font-size="10.00">/control/platforms/qrbp</text>
<text text-anchor="start" x="24" y="-419.5" font-family="Helvetica,sans-Serif" font-size="10.00">/control_algorithms/MRAC</text>
<text text-anchor="middle" x="93" y="-408.5" font-family="Helvetica,sans-Serif" font-size="10.00">_OMEGA/MRAC_OMEGA.hpp</text>
</a>
</g>
</g>
<!-- Node2&#45;&gt;Node3 -->
<g id="edge2" class="edge">
<title>Node2&#45;&gt;Node3</title>
<path fill="none" stroke="midnightblue" d="M225.56,-497.06C203.23,-486.44 178.87,-474.85 157.2,-464.54"/>
<polygon fill="midnightblue" stroke="midnightblue" points="224.13,-500.26 234.67,-501.4 227.14,-493.94 224.13,-500.26"/>
</g>
<!-- Node5 -->
<g id="node5" class="node">
<title>Node5</title>
<g id="a_node5"><a xlink:href="MRAC__OMEGA__logger_8cpp.html" target="_top" xlink:title="logging for the MRAC with angular velocities controller.">
<polygon fill="white" stroke="black" points="188.5,-407 188.5,-459 409.5,-459 409.5,-407 188.5,-407"/>
<text text-anchor="start" x="196.5" y="-447" font-family="Helvetica,sans-Serif" font-size="10.00">ACSL&#45;flightstack&#45;winged</text>
<text text-anchor="start" x="196.5" y="-436" font-family="Helvetica,sans-Serif" font-size="10.00">/src/acsl_flight/src/control</text>
<text text-anchor="start" x="196.5" y="-425" font-family="Helvetica,sans-Serif" font-size="10.00">/platforms/qrbp/control_algorithms</text>
<text text-anchor="middle" x="299" y="-414" font-family="Helvetica,sans-Serif" font-size="10.00">/MRAC_OMEGA/MRAC_OMEGA_logger.cpp</text>
</a>
</g>
</g>
<!-- Node2&#45;&gt;Node5 -->
<g id="edge4" class="edge">
<title>Node2&#45;&gt;Node5</title>
<path fill="none" stroke="midnightblue" d="M299,-491.08C299,-480.21 299,-468.79 299,-459.05"/>
<polygon fill="midnightblue" stroke="midnightblue" points="295.5,-491.26 299,-501.26 302.5,-491.26 295.5,-491.26"/>
</g>
<!-- Node4 -->
<g id="node4" class="node">
<title>Node4</title>
<g id="a_node4"><a xlink:href="MRAC__OMEGA_8cpp.html" target="_top" xlink:title="MRAC with angular velocities for the QRBP. Inherts the class controller_base for the basic functional...">
<polygon fill="white" stroke="black" points="0,-312.5 0,-364.5 186,-364.5 186,-312.5 0,-312.5"/>
<text text-anchor="start" x="8" y="-352.5" font-family="Helvetica,sans-Serif" font-size="10.00">ACSL&#45;flightstack&#45;winged</text>
<text text-anchor="start" x="8" y="-341.5" font-family="Helvetica,sans-Serif" font-size="10.00">/src/acsl_flight/src/control</text>
<text text-anchor="start" x="8" y="-330.5" font-family="Helvetica,sans-Serif" font-size="10.00">/platforms/qrbp/control_algorithms</text>
<text text-anchor="middle" x="93" y="-319.5" font-family="Helvetica,sans-Serif" font-size="10.00">/MRAC_OMEGA/MRAC_OMEGA.cpp</text>
</a>
</g>
</g>
<!-- Node3&#45;&gt;Node4 -->
<g id="edge3" class="edge">
<title>Node3&#45;&gt;Node4</title>
<path fill="none" stroke="midnightblue" d="M93,-391.42C93,-382.36 93,-373 93,-364.77"/>
<polygon fill="midnightblue" stroke="midnightblue" points="89.5,-391.46 93,-401.46 96.5,-391.46 89.5,-391.46"/>
</g>
<!-- Node7 -->
<g id="node7" class="node">
<title>Node7</title>
<g id="a_node7"><a xlink:href="MRAC__PID_8hpp.html" target="_top" xlink:title="MRAC_PID for the QRBP.">
<polygon fill="white" stroke="black" points="427.5,-401.5 427.5,-464.5 570.5,-464.5 570.5,-401.5 427.5,-401.5"/>
<text text-anchor="start" x="435.5" y="-452.5" font-family="Helvetica,sans-Serif" font-size="10.00">ACSL&#45;flightstack&#45;winged</text>
<text text-anchor="start" x="435.5" y="-441.5" font-family="Helvetica,sans-Serif" font-size="10.00">/src/acsl_flight/include</text>
<text text-anchor="start" x="435.5" y="-430.5" font-family="Helvetica,sans-Serif" font-size="10.00">/control/platforms/qrbp</text>
<text text-anchor="start" x="435.5" y="-419.5" font-family="Helvetica,sans-Serif" font-size="10.00">/control_algorithms/MRAC</text>
<text text-anchor="middle" x="499" y="-408.5" font-family="Helvetica,sans-Serif" font-size="10.00">_PID/MRAC_PID.hpp</text>
</a>
</g>
</g>
<!-- Node6&#45;&gt;Node7 -->
<g id="edge6" class="edge">
<title>Node6&#45;&gt;Node7</title>
<path fill="none" stroke="midnightblue" d="M615.97,-496.64C596.35,-486.13 575.03,-474.71 556.03,-464.54"/>
<polygon fill="midnightblue" stroke="midnightblue" points="614.38,-499.76 624.85,-501.4 617.69,-493.59 614.38,-499.76"/>
</g>
<!-- Node9 -->
<g id="node9" class="node">
<title>Node9</title>
<g id="a_node9"><a xlink:href="MRAC__PID__logger_8cpp.html" target="_top" xlink:title="logging for the MRAC_PID controller. Inherits the Blackbox class for logging and takes in the interna...">
<polygon fill="white" stroke="black" points="589,-407 589,-459 775,-459 775,-407 589,-407"/>
<text text-anchor="start" x="597" y="-447" font-family="Helvetica,sans-Serif" font-size="10.00">ACSL&#45;flightstack&#45;winged</text>
<text text-anchor="start" x="597" y="-436" font-family="Helvetica,sans-Serif" font-size="10.00">/src/acsl_flight/src/control</text>
<text text-anchor="start" x="597" y="-425" font-family="Helvetica,sans-Serif" font-size="10.00">/platforms/qrbp/control_algorithms</text>
<text text-anchor="middle" x="682" y="-414" font-family="Helvetica,sans-Serif" font-size="10.00">/MRAC_PID/MRAC_PID_logger.cpp</text>
</a>
</g>
</g>
<!-- Node6&#45;&gt;Node9 -->
<g id="edge8" class="edge">
<title>Node6&#45;&gt;Node9</title>
<path fill="none" stroke="midnightblue" d="M682,-491.08C682,-480.21 682,-468.79 682,-459.05"/>
<polygon fill="midnightblue" stroke="midnightblue" points="678.5,-491.26 682,-501.26 685.5,-491.26 678.5,-491.26"/>
</g>
<!-- Node8 -->
<g id="node8" class="node">
<title>Node8</title>
<g id="a_node8"><a xlink:href="MRAC__PID_8cpp.html" target="_top" xlink:title="MRAC_PID for the QRBP.">
<polygon fill="white" stroke="black" points="406,-312.5 406,-364.5 592,-364.5 592,-312.5 406,-312.5"/>
<text text-anchor="start" x="414" y="-352.5" font-family="Helvetica,sans-Serif" font-size="10.00">ACSL&#45;flightstack&#45;winged</text>
<text text-anchor="start" x="414" y="-341.5" font-family="Helvetica,sans-Serif" font-size="10.00">/src/acsl_flight/src/control</text>
<text text-anchor="start" x="414" y="-330.5" font-family="Helvetica,sans-Serif" font-size="10.00">/platforms/qrbp/control_algorithms</text>
<text text-anchor="middle" x="499" y="-319.5" font-family="Helvetica,sans-Serif" font-size="10.00">/MRAC_PID/MRAC_PID.cpp</text>
</a>
</g>
</g>
<!-- Node7&#45;&gt;Node8 -->
<g id="edge7" class="edge">
<title>Node7&#45;&gt;Node8</title>
<path fill="none" stroke="midnightblue" d="M499,-391.42C499,-382.36 499,-373 499,-364.77"/>
<polygon fill="midnightblue" stroke="midnightblue" points="495.5,-391.46 499,-401.46 502.5,-391.46 495.5,-391.46"/>
</g>
<!-- Node11 -->
<g id="node11" class="node">
<title>Node11</title>
<g id="a_node11"><a xlink:href="PID_8hpp.html" target="_top" xlink:title="PID for the QRBP.">
<polygon fill="white" stroke="black" points="793.5,-407 793.5,-459 964.5,-459 964.5,-407 793.5,-407"/>
<text text-anchor="start" x="801.5" y="-447" font-family="Helvetica,sans-Serif" font-size="10.00">ACSL&#45;flightstack&#45;winged</text>
<text text-anchor="start" x="801.5" y="-436" font-family="Helvetica,sans-Serif" font-size="10.00">/src/acsl_flight/include</text>
<text text-anchor="start" x="801.5" y="-425" font-family="Helvetica,sans-Serif" font-size="10.00">/control/platforms/qrbp</text>
<text text-anchor="middle" x="879" y="-414" font-family="Helvetica,sans-Serif" font-size="10.00">/control_algorithms/PID/PID.hpp</text>
</a>
</g>
</g>
<!-- Node10&#45;&gt;Node11 -->
<g id="edge10" class="edge">
<title>Node10&#45;&gt;Node11</title>
<path fill="none" stroke="midnightblue" d="M1005.37,-496.86C980.28,-484.38 952.56,-470.6 929.5,-459.12"/>
<polygon fill="midnightblue" stroke="midnightblue" points="1003.97,-500.07 1014.48,-501.4 1007.08,-493.81 1003.97,-500.07"/>
</g>
<!-- Node13 -->
<g id="node13" class="node">
<title>Node13</title>
<g id="a_node13"><a xlink:href="PID__logger_8cpp.html" target="_top" xlink:title="logging for the PID controller.">
<polygon fill="white" stroke="black" points="983,-407 983,-459 1169,-459 1169,-407 983,-407"/>
<text text-anchor="start" x="991" y="-447" font-family="Helvetica,sans-Serif" font-size="10.00">ACSL&#45;flightstack&#45;winged</text>
<text text-anchor="start" x="991" y="-436" font-family="Helvetica,sans-Serif" font-size="10.00">/src/acsl_flight/src/control</text>
<text text-anchor="start" x="991" y="-425" font-family="Helvetica,sans-Serif" font-size="10.00">/platforms/qrbp/control_algorithms</text>
<text text-anchor="middle" x="1076" y="-414" font-family="Helvetica,sans-Serif" font-size="10.00">/PID/PID_logger.cpp</text>
</a>
</g>
</g>
<!-- Node10&#45;&gt;Node13 -->
<g id="edge12" class="edge">
<title>Node10&#45;&gt;Node13</title>
<path fill="none" stroke="midnightblue" d="M1076,-491.08C1076,-480.21 1076,-468.79 1076,-459.05"/>
<polygon fill="midnightblue" stroke="midnightblue" points="1072.5,-491.26 1076,-501.26 1079.5,-491.26 1072.5,-491.26"/>
</g>
<!-- Node12 -->
<g id="node12" class="node">
<title>Node12</title>
<g id="a_node12"><a xlink:href="PID_8cpp.html" target="_top" xlink:title=" ">
<polygon fill="white" stroke="black" points="786,-312.5 786,-364.5 972,-364.5 972,-312.5 786,-312.5"/>
<text text-anchor="start" x="794" y="-352.5" font-family="Helvetica,sans-Serif" font-size="10.00">ACSL&#45;flightstack&#45;winged</text>
<text text-anchor="start" x="794" y="-341.5" font-family="Helvetica,sans-Serif" font-size="10.00">/src/acsl_flight/src/control</text>
<text text-anchor="start" x="794" y="-330.5" font-family="Helvetica,sans-Serif" font-size="10.00">/platforms/qrbp/control_algorithms</text>
<text text-anchor="middle" x="879" y="-319.5" font-family="Helvetica,sans-Serif" font-size="10.00">/PID/PID.cpp</text>
</a>
</g>
</g>
<!-- Node11&#45;&gt;Node12 -->
<g id="edge11" class="edge">
<title>Node11&#45;&gt;Node12</title>
<path fill="none" stroke="midnightblue" d="M879,-396.49C879,-385.91 879,-374.53 879,-364.75"/>
<polygon fill="midnightblue" stroke="midnightblue" points="875.5,-396.72 879,-406.72 882.5,-396.72 875.5,-396.72"/>
</g>
<!-- Node15 -->
<g id="node15" class="node">
<title>Node15</title>
<g id="a_node15"><a xlink:href="PID__OMEGA_8hpp.html" target="_top" xlink:title="PID with angular veocities for the QRBP.">
<polygon fill="white" stroke="black" points="1187.5,-401.5 1187.5,-464.5 1360.5,-464.5 1360.5,-401.5 1187.5,-401.5"/>
<text text-anchor="start" x="1195.5" y="-452.5" font-family="Helvetica,sans-Serif" font-size="10.00">ACSL&#45;flightstack&#45;winged</text>
<text text-anchor="start" x="1195.5" y="-441.5" font-family="Helvetica,sans-Serif" font-size="10.00">/src/acsl_flight/include</text>
<text text-anchor="start" x="1195.5" y="-430.5" font-family="Helvetica,sans-Serif" font-size="10.00">/control/platforms/qrbp</text>
<text text-anchor="start" x="1195.5" y="-419.5" font-family="Helvetica,sans-Serif" font-size="10.00">/control_algorithms/PID_OMEGA</text>
<text text-anchor="middle" x="1274" y="-408.5" font-family="Helvetica,sans-Serif" font-size="10.00">/PID_OMEGA.hpp</text>
</a>
</g>
</g>
<!-- Node14&#45;&gt;Node15 -->
<g id="edge14" class="edge">
<title>Node14&#45;&gt;Node15</title>
<path fill="none" stroke="midnightblue" d="M1336.1,-494.26C1326,-484.46 1315.24,-474.02 1305.57,-464.63"/>
<polygon fill="midnightblue" stroke="midnightblue" points="1333.71,-496.81 1343.32,-501.26 1338.58,-491.79 1333.71,-496.81"/>
</g>
<!-- Node28 -->
<g id="node28" class="node">
<title>Node28</title>
<g id="a_node28"><a xlink:href="PID__OMEGA__logger_8cpp.html" target="_top" xlink:title="logging for the PID with angular velocities controller">
<polygon fill="white" stroke="black" points="1378.5,-407 1378.5,-459 1573.5,-459 1573.5,-407 1378.5,-407"/>
<text text-anchor="start" x="1386.5" y="-447" font-family="Helvetica,sans-Serif" font-size="10.00">ACSL&#45;flightstack&#45;winged</text>
<text text-anchor="start" x="1386.5" y="-436" font-family="Helvetica,sans-Serif" font-size="10.00">/src/acsl_flight/src/control</text>
<text text-anchor="start" x="1386.5" y="-425" font-family="Helvetica,sans-Serif" font-size="10.00">/platforms/qrbp/control_algorithms</text>
<text text-anchor="middle" x="1476" y="-414" font-family="Helvetica,sans-Serif" font-size="10.00">/PID_OMEGA/PID_OMEGA_logger.cpp</text>
</a>
</g>
</g>
<!-- Node14&#45;&gt;Node28 -->
<g id="edge31" class="edge">
<title>Node14&#45;&gt;Node28</title>
<path fill="none" stroke="midnightblue" d="M1414.07,-494.09C1426.18,-482.34 1439.21,-469.7 1450.18,-459.05"/>
<polygon fill="midnightblue" stroke="midnightblue" points="1411.42,-491.79 1406.68,-501.26 1416.29,-496.81 1411.42,-491.79"/>
</g>
<!-- Node16 -->
<g id="node16" class="node">
<title>Node16</title>
<g id="a_node16"><a xlink:href="control__config_8hpp.html" target="_top" xlink:title="Just a header file for configuring which platform and controller to pick during compilation.">
<polygon fill="white" stroke="black" points="1206,-318 1206,-359 1352,-359 1352,-318 1206,-318"/>
<text text-anchor="start" x="1214" y="-347" font-family="Helvetica,sans-Serif" font-size="10.00">ACSL&#45;flightstack&#45;winged</text>
<text text-anchor="start" x="1214" y="-336" font-family="Helvetica,sans-Serif" font-size="10.00">/src/acsl_flight/include</text>
<text text-anchor="middle" x="1279" y="-325" font-family="Helvetica,sans-Serif" font-size="10.00">/control/control_config.hpp</text>
</a>
</g>
</g>
<!-- Node15&#45;&gt;Node16 -->
<g id="edge15" class="edge">
<title>Node15&#45;&gt;Node16</title>
<path fill="none" stroke="midnightblue" d="M1276.19,-391.41C1276.8,-380.25 1277.42,-368.65 1277.93,-359.25"/>
<polygon fill="midnightblue" stroke="midnightblue" points="1272.7,-391.28 1275.65,-401.46 1279.69,-391.66 1272.7,-391.28"/>
</g>
<!-- Node27 -->
<g id="node27" class="node">
<title>Node27</title>
<g id="a_node27"><a xlink:href="PID__OMEGA_8cpp.html" target="_top" xlink:title="PID with angular velocities for the QRBP.">
<polygon fill="white" stroke="black" points="1370,-312.5 1370,-364.5 1556,-364.5 1556,-312.5 1370,-312.5"/>
<text text-anchor="start" x="1378" y="-352.5" font-family="Helvetica,sans-Serif" font-size="10.00">ACSL&#45;flightstack&#45;winged</text>
<text text-anchor="start" x="1378" y="-341.5" font-family="Helvetica,sans-Serif" font-size="10.00">/src/acsl_flight/src/control</text>
<text text-anchor="start" x="1378" y="-330.5" font-family="Helvetica,sans-Serif" font-size="10.00">/platforms/qrbp/control_algorithms</text>
<text text-anchor="middle" x="1463" y="-319.5" font-family="Helvetica,sans-Serif" font-size="10.00">/PID_OMEGA/PID_OMEGA.cpp</text>
</a>
</g>
</g>
<!-- Node15&#45;&gt;Node27 -->
<g id="edge30" class="edge">
<title>Node15&#45;&gt;Node27</title>
<path fill="none" stroke="midnightblue" d="M1345.41,-397.05C1367.45,-386.26 1391.28,-374.6 1411.68,-364.62"/>
<polygon fill="midnightblue" stroke="midnightblue" points="1343.85,-393.92 1336.41,-401.46 1346.93,-400.2 1343.85,-393.92"/>
</g>
<!-- Node17 -->
<g id="node17" class="node">
<title>Node17</title>
<g id="a_node17"><a xlink:href="control_8hpp.html" target="_top" xlink:title="Class declaration for computing and publishing the control.">
<polygon fill="white" stroke="black" points="1180.5,-234.5 1180.5,-275.5 1315.5,-275.5 1315.5,-234.5 1180.5,-234.5"/>
<text text-anchor="start" x="1188.5" y="-263.5" font-family="Helvetica,sans-Serif" font-size="10.00">ACSL&#45;flightstack&#45;winged</text>
<text text-anchor="start" x="1188.5" y="-252.5" font-family="Helvetica,sans-Serif" font-size="10.00">/src/acsl_flight/include</text>
<text text-anchor="middle" x="1248" y="-241.5" font-family="Helvetica,sans-Serif" font-size="10.00">/control/control.hpp</text>
</a>
</g>
</g>
<!-- Node16&#45;&gt;Node17 -->
<g id="edge16" class="edge">
<title>Node16&#45;&gt;Node17</title>
<path fill="none" stroke="midnightblue" d="M1267.87,-308.23C1263.74,-297.37 1259.16,-285.33 1255.44,-275.55"/>
<polygon fill="midnightblue" stroke="midnightblue" points="1264.67,-309.67 1271.5,-317.77 1271.21,-307.18 1264.67,-309.67"/>
</g>
<!-- Node18 -->
<g id="node18" class="node">
<title>Node18</title>
<g id="a_node18"><a xlink:href="flight__bridge_8hpp.html" target="_top" xlink:title=" ">
<polygon fill="white" stroke="black" points="1245.5,-156.5 1245.5,-197.5 1410.5,-197.5 1410.5,-156.5 1245.5,-156.5"/>
<text text-anchor="start" x="1253.5" y="-185.5" font-family="Helvetica,sans-Serif" font-size="10.00">ACSL&#45;flightstack&#45;winged</text>
<text text-anchor="start" x="1253.5" y="-174.5" font-family="Helvetica,sans-Serif" font-size="10.00">/src/acsl_flight/include</text>
<text text-anchor="middle" x="1328" y="-163.5" font-family="Helvetica,sans-Serif" font-size="10.00">/flight_bridge/flight_bridge.hpp</text>
</a>
</g>
</g>
<!-- Node16&#45;&gt;Node18 -->
<g id="edge23" class="edge">
<title>Node16&#45;&gt;Node18</title>
<path fill="none" stroke="midnightblue" d="M1304.46,-310.02C1312.18,-300.04 1319.74,-288.2 1324,-276 1333.05,-250.12 1332.3,-218.03 1330.49,-197.78"/>
<polygon fill="midnightblue" stroke="midnightblue" points="1301.61,-307.97 1298,-317.93 1307.04,-312.4 1301.61,-307.97"/>
</g>
<!-- Node16&#45;&gt;Node23 -->
<g id="edge24" class="edge">
<title>Node16&#45;&gt;Node23</title>
<path fill="none" stroke="midnightblue" d="M1331.08,-313.79C1357.78,-301.63 1389.91,-287 1415.17,-275.5"/>
<polygon fill="midnightblue" stroke="midnightblue" points="1329.53,-310.65 1321.87,-317.98 1332.43,-317.02 1329.53,-310.65"/>
</g>
<!-- Node16&#45;&gt;Node25 -->
<g id="edge27" class="edge">
<title>Node16&#45;&gt;Node25</title>
<path fill="none" stroke="midnightblue" d="M1349.43,-315.11C1353.34,-314.02 1357.21,-312.98 1361,-312 1437.46,-292.25 1457.87,-292.95 1535,-276 1540.99,-274.68 1547.21,-273.29 1553.43,-271.88"/>
<polygon fill="midnightblue" stroke="midnightblue" points="1348.36,-311.78 1339.71,-317.9 1350.29,-318.51 1348.36,-311.78"/>
</g>
<!-- Node17&#45;&gt;Node18 -->
<g id="edge17" class="edge">
<title>Node17&#45;&gt;Node18</title>
<path fill="none" stroke="midnightblue" d="M1269.72,-227.2C1279.55,-217.42 1291.16,-206.54 1301.49,-197.51"/>
<polygon fill="midnightblue" stroke="midnightblue" points="1267.13,-224.85 1262.61,-234.43 1272.12,-229.76 1267.13,-224.85"/>
</g>
<!-- Node22 -->
<g id="node22" class="node">
<title>Node22</title>
<g id="a_node22"><a xlink:href="control_8cpp.html" target="_top" xlink:title="Control node definition. Runs all the control algorithms. Adds as a hub for all the control actions.">
<polygon fill="white" stroke="black" points="1087,-156.5 1087,-197.5 1227,-197.5 1227,-156.5 1087,-156.5"/>
<text text-anchor="start" x="1095" y="-185.5" font-family="Helvetica,sans-Serif" font-size="10.00">ACSL&#45;flightstack&#45;winged</text>
<text text-anchor="start" x="1095" y="-174.5" font-family="Helvetica,sans-Serif" font-size="10.00">/src/acsl_flight/src/control</text>
<text text-anchor="middle" x="1157" y="-163.5" font-family="Helvetica,sans-Serif" font-size="10.00">/control.cpp</text>
</a>
</g>
</g>
<!-- Node17&#45;&gt;Node22 -->
<g id="edge22" class="edge">
<title>Node17&#45;&gt;Node22</title>
<path fill="none" stroke="midnightblue" d="M1216.6,-227.78C1204.71,-217.84 1191.38,-206.72 1180.36,-197.51"/>
<polygon fill="midnightblue" stroke="midnightblue" points="1214.65,-230.7 1224.57,-234.43 1219.13,-225.33 1214.65,-230.7"/>
</g>
<!-- Node18&#45;&gt;Node17 -->
<g id="edge18" class="edge">
<title>Node18&#45;&gt;Node17</title>
<path fill="none" stroke="midnightblue" d="M1306.35,-204.72C1296.53,-214.51 1284.92,-225.39 1274.59,-234.43"/>
<polygon fill="midnightblue" stroke="midnightblue" points="1308.93,-207.09 1313.45,-197.51 1303.94,-202.18 1308.93,-207.09"/>
</g>
<!-- Node19 -->
<g id="node19" class="node">
<title>Node19</title>
<g id="a_node19"><a xlink:href="flight__main_8hpp.html" target="_top" xlink:title=" ">
<polygon fill="white" stroke="black" points="1169.5,-78.5 1169.5,-119.5 1322.5,-119.5 1322.5,-78.5 1169.5,-78.5"/>
<text text-anchor="start" x="1177.5" y="-107.5" font-family="Helvetica,sans-Serif" font-size="10.00">ACSL&#45;flightstack&#45;winged</text>
<text text-anchor="start" x="1177.5" y="-96.5" font-family="Helvetica,sans-Serif" font-size="10.00">/src/acsl_flight/include</text>
<text text-anchor="middle" x="1246" y="-85.5" font-family="Helvetica,sans-Serif" font-size="10.00">/flight_main/flight_main.hpp</text>
</a>
</g>
</g>
<!-- Node18&#45;&gt;Node19 -->
<g id="edge19" class="edge">
<title>Node18&#45;&gt;Node19</title>
<path fill="none" stroke="midnightblue" d="M1299.4,-149.49C1288.76,-139.63 1276.89,-128.63 1267.05,-119.51"/>
<polygon fill="midnightblue" stroke="midnightblue" points="1297.17,-152.2 1306.88,-156.43 1301.93,-147.06 1297.17,-152.2"/>
</g>
<!-- Node21 -->
<g id="node21" class="node">
<title>Node21</title>
<g id="a_node21"><a xlink:href="flight__bridge_8cpp.html" target="_top" xlink:title="Utlities for multithreading.">
<polygon fill="white" stroke="black" points="1340.5,-78.5 1340.5,-119.5 1477.5,-119.5 1477.5,-78.5 1340.5,-78.5"/>
<text text-anchor="start" x="1348.5" y="-107.5" font-family="Helvetica,sans-Serif" font-size="10.00">ACSL&#45;flightstack&#45;winged</text>
<text text-anchor="start" x="1348.5" y="-96.5" font-family="Helvetica,sans-Serif" font-size="10.00">/src/acsl_flight/src/flight</text>
<text text-anchor="middle" x="1409" y="-85.5" font-family="Helvetica,sans-Serif" font-size="10.00">_bridge/flight_bridge.cpp</text>
</a>
</g>
</g>
<!-- Node18&#45;&gt;Node21 -->
<g id="edge21" class="edge">
<title>Node18&#45;&gt;Node21</title>
<path fill="none" stroke="midnightblue" d="M1356.25,-149.49C1366.76,-139.63 1378.49,-128.63 1388.21,-119.51"/>
<polygon fill="midnightblue" stroke="midnightblue" points="1353.76,-147.03 1348.86,-156.43 1358.55,-152.14 1353.76,-147.03"/>
</g>
<!-- Node20 -->
<g id="node20" class="node">
<title>Node20</title>
<g id="a_node20"><a xlink:href="flight__main_8cpp.html" target="_top" xlink:title="Main function to initiate ROS2.">
<polygon fill="white" stroke="black" points="1178.5,-0.5 1178.5,-41.5 1313.5,-41.5 1313.5,-0.5 1178.5,-0.5"/>
<text text-anchor="start" x="1186.5" y="-29.5" font-family="Helvetica,sans-Serif" font-size="10.00">ACSL&#45;flightstack&#45;winged</text>
<text text-anchor="start" x="1186.5" y="-18.5" font-family="Helvetica,sans-Serif" font-size="10.00">/src/acsl_flight/src/flight</text>
<text text-anchor="middle" x="1246" y="-7.5" font-family="Helvetica,sans-Serif" font-size="10.00">_main/flight_main.cpp</text>
</a>
</g>
</g>
<!-- Node19&#45;&gt;Node20 -->
<g id="edge20" class="edge">
<title>Node19&#45;&gt;Node20</title>
<path fill="none" stroke="midnightblue" d="M1246,-68.3C1246,-59.3 1246,-49.65 1246,-41.51"/>
<polygon fill="midnightblue" stroke="midnightblue" points="1242.5,-68.43 1246,-78.43 1249.5,-68.43 1242.5,-68.43"/>
</g>
<!-- Node23&#45;&gt;Node18 -->
<g id="edge25" class="edge">
<title>Node23&#45;&gt;Node18</title>
<path fill="none" stroke="midnightblue" d="M1415.58,-229.2C1397.99,-218.92 1377.88,-207.16 1361.36,-197.51"/>
<polygon fill="midnightblue" stroke="midnightblue" points="1414.12,-232.4 1424.52,-234.43 1417.66,-226.36 1414.12,-232.4"/>
</g>
<!-- Node24 -->
<g id="node24" class="node">
<title>Node24</title>
<g id="a_node24"><a xlink:href="mocap_8cpp.html" target="_top" xlink:title="Node definition for UDP socket as a lifecycle node.">
<polygon fill="white" stroke="black" points="1429,-156.5 1429,-197.5 1569,-197.5 1569,-156.5 1429,-156.5"/>
<text text-anchor="start" x="1437" y="-185.5" font-family="Helvetica,sans-Serif" font-size="10.00">ACSL&#45;flightstack&#45;winged</text>
<text text-anchor="start" x="1437" y="-174.5" font-family="Helvetica,sans-Serif" font-size="10.00">/src/acsl_flight/src/mocap</text>
<text text-anchor="middle" x="1499" y="-163.5" font-family="Helvetica,sans-Serif" font-size="10.00">/mocap.cpp</text>
</a>
</g>
</g>
<!-- Node23&#45;&gt;Node24 -->
<g id="edge26" class="edge">
<title>Node23&#45;&gt;Node24</title>
<path fill="none" stroke="midnightblue" d="M1473.39,-225.47C1478.42,-216.14 1483.89,-206.01 1488.48,-197.51"/>
<polygon fill="midnightblue" stroke="midnightblue" points="1470.23,-223.97 1468.56,-234.43 1476.39,-227.29 1470.23,-223.97"/>
</g>
<!-- Node25&#45;&gt;Node18 -->
<g id="edge28" class="edge">
<title>Node25&#45;&gt;Node18</title>
<path fill="none" stroke="midnightblue" d="M1543.47,-233.89C1500.09,-222.64 1446.24,-208.67 1403.23,-197.51"/>
<polygon fill="midnightblue" stroke="midnightblue" points="1542.85,-237.35 1553.41,-236.47 1544.61,-230.57 1542.85,-237.35"/>
</g>
<!-- Node26 -->
<g id="node26" class="node">
<title>Node26</title>
<g id="a_node26"><a xlink:href="vio_8cpp.html" target="_top" xlink:title="Node definition for Intel Realsense T265 tracking camera as a lifecycle node.">
<polygon fill="white" stroke="black" points="1587.5,-156.5 1587.5,-197.5 1722.5,-197.5 1722.5,-156.5 1587.5,-156.5"/>
<text text-anchor="start" x="1595.5" y="-185.5" font-family="Helvetica,sans-Serif" font-size="10.00">ACSL&#45;flightstack&#45;winged</text>
<text text-anchor="start" x="1595.5" y="-174.5" font-family="Helvetica,sans-Serif" font-size="10.00">/src/acsl_flight/src/vio</text>
<text text-anchor="middle" x="1655" y="-163.5" font-family="Helvetica,sans-Serif" font-size="10.00">/vio.cpp</text>
</a>
</g>
</g>
<!-- Node25&#45;&gt;Node26 -->
<g id="edge29" class="edge">
<title>Node25&#45;&gt;Node26</title>
<path fill="none" stroke="midnightblue" d="M1633.9,-225.17C1638.03,-215.93 1642.51,-205.92 1646.27,-197.51"/>
<polygon fill="midnightblue" stroke="midnightblue" points="1630.64,-223.87 1629.76,-234.43 1637.03,-226.73 1630.64,-223.87"/>
</g>
<!-- Node30 -->
<g id="node30" class="node">
<title>Node30</title>
<g id="a_node30"><a xlink:href="PID__TD_8hpp.html" target="_top" xlink:title="PID for the ros test drone.">
<polygon fill="white" stroke="black" points="1667,-407 1667,-459 1857,-459 1857,-407 1667,-407"/>
<text text-anchor="start" x="1675" y="-447" font-family="Helvetica,sans-Serif" font-size="10.00">ACSL&#45;flightstack&#45;winged</text>
<text text-anchor="start" x="1675" y="-436" font-family="Helvetica,sans-Serif" font-size="10.00">/src/acsl_flight/include</text>
<text text-anchor="start" x="1675" y="-425" font-family="Helvetica,sans-Serif" font-size="10.00">/control/platforms/rostestdrone</text>
<text text-anchor="middle" x="1762" y="-414" font-family="Helvetica,sans-Serif" font-size="10.00">/control_algorithms/PID/PID_TD.hpp</text>
</a>
</g>
</g>
<!-- Node29&#45;&gt;Node30 -->
<g id="edge33" class="edge">
<title>Node29&#45;&gt;Node30</title>
<path fill="none" stroke="midnightblue" d="M1762,-491.08C1762,-480.21 1762,-468.79 1762,-459.05"/>
<polygon fill="midnightblue" stroke="midnightblue" points="1758.5,-491.26 1762,-501.26 1765.5,-491.26 1758.5,-491.26"/>
</g>
<!-- Node32 -->
<g id="node32" class="node">
<title>Node32</title>
<g id="a_node32"><a xlink:href="PID__TD__logger_8cpp.html" target="_top" xlink:title="logging for the PID controller.">
<polygon fill="white" stroke="black" points="1875,-407 1875,-459 2063,-459 2063,-407 1875,-407"/>
<text text-anchor="start" x="1883" y="-447" font-family="Helvetica,sans-Serif" font-size="10.00">ACSL&#45;flightstack&#45;winged</text>
<text text-anchor="start" x="1883" y="-436" font-family="Helvetica,sans-Serif" font-size="10.00">/src/acsl_flight/src/control</text>
<text text-anchor="start" x="1883" y="-425" font-family="Helvetica,sans-Serif" font-size="10.00">/platforms/rostestdrone/control</text>
<text text-anchor="middle" x="1969" y="-414" font-family="Helvetica,sans-Serif" font-size="10.00">_algorithms/PID/PID_TD_logger.cpp</text>
</a>
</g>
</g>
<!-- Node29&#45;&gt;Node32 -->
<g id="edge35" class="edge">
<title>Node29&#45;&gt;Node32</title>
<path fill="none" stroke="midnightblue" d="M1835.87,-497.03C1862.32,-484.5 1891.59,-470.65 1915.94,-459.12"/>
<polygon fill="midnightblue" stroke="midnightblue" points="1834.19,-493.95 1826.64,-501.4 1837.18,-500.28 1834.19,-493.95"/>
</g>
<!-- Node31 -->
<g id="node31" class="node">
<title>Node31</title>
<g id="a_node31"><a xlink:href="PID__TD_8cpp.html" target="_top" xlink:title="PID for the rostestdrone.">
<polygon fill="white" stroke="black" points="1678,-312.5 1678,-364.5 1846,-364.5 1846,-312.5 1678,-312.5"/>
<text text-anchor="start" x="1686" y="-352.5" font-family="Helvetica,sans-Serif" font-size="10.00">ACSL&#45;flightstack&#45;winged</text>
<text text-anchor="start" x="1686" y="-341.5" font-family="Helvetica,sans-Serif" font-size="10.00">/src/acsl_flight/src/control</text>
<text text-anchor="start" x="1686" y="-330.5" font-family="Helvetica,sans-Serif" font-size="10.00">/platforms/rostestdrone/control</text>
<text text-anchor="middle" x="1762" y="-319.5" font-family="Helvetica,sans-Serif" font-size="10.00">_algorithms/PID/PID_TD.cpp</text>
</a>
</g>
</g>
<!-- Node30&#45;&gt;Node31 -->
<g id="edge34" class="edge">
<title>Node30&#45;&gt;Node31</title>
<path fill="none" stroke="midnightblue" d="M1762,-396.49C1762,-385.91 1762,-374.53 1762,-364.75"/>
<polygon fill="midnightblue" stroke="midnightblue" points="1758.5,-396.72 1762,-406.72 1765.5,-396.72 1758.5,-396.72"/>
</g>
</g>
</svg>
