<?xml version="1.0" encoding="UTF-8" standalone="no"?>
<!DOCTYPE svg PUBLIC "-//W3C//DTD SVG 1.1//EN"
 "http://www.w3.org/Graphics/SVG/1.1/DTD/svg11.dtd">
<!-- Generated by graphviz version 2.43.0 (0)
 -->
<!-- Title: ACSL&#45;flightstack&#45;winged/src/acsl_flight/include/flight_params/flight_params.hpp Pages: 1 -->
<svg width="1494pt" height="484pt"
 viewBox="0.00 0.00 1494.49 484.00" xmlns="http://www.w3.org/2000/svg" xmlns:xlink="http://www.w3.org/1999/xlink">
<g id="graph0" class="graph" transform="scale(1 1) rotate(0) translate(4 480)">
<title>ACSL&#45;flightstack&#45;winged/src/acsl_flight/include/flight_params/flight_params.hpp</title>
<polygon fill="white" stroke="transparent" points="-4,4 -4,-480 1490.49,-480 1490.49,4 -4,4"/>
<!-- Node1 -->
<g id="node1" class="node">
<title>Node1</title>
<g id="a_node1"><a xlink:title="Header file for the main flight parameters that will be used for the entire controller.">
<polygon fill="#bfbfbf" stroke="black" points="735.49,-434.5 735.49,-475.5 912.49,-475.5 912.49,-434.5 735.49,-434.5"/>
<text text-anchor="start" x="743.49" y="-463.5" font-family="Helvetica,sans-Serif" font-size="10.00">ACSL&#45;flightstack&#45;winged</text>
<text text-anchor="start" x="743.49" y="-452.5" font-family="Helvetica,sans-Serif" font-size="10.00">/src/acsl_flight/include</text>
<text text-anchor="middle" x="823.99" y="-441.5" font-family="Helvetica,sans-Serif" font-size="10.00">/flight_params/flight_params.hpp</text>
</a>
</g>
</g>
<!-- Node2 -->
<g id="node2" class="node">
<title>Node2</title>
<g id="a_node2"><a xlink:href="control_8hpp.html" target="_top" xlink:title="Class declaration for computing and publishing the control.">
<polygon fill="white" stroke="black" points="304.49,-78.5 304.49,-119.5 439.49,-119.5 439.49,-78.5 304.49,-78.5"/>
<text text-anchor="start" x="312.49" y="-107.5" font-family="Helvetica,sans-Serif" font-size="10.00">ACSL&#45;flightstack&#45;winged</text>
<text text-anchor="start" x="312.49" y="-96.5" font-family="Helvetica,sans-Serif" font-size="10.00">/src/acsl_flight/include</text>
<text text-anchor="middle" x="371.99" y="-85.5" font-family="Helvetica,sans-Serif" font-size="10.00">/control/control.hpp</text>
</a>
</g>
</g>
<!-- Node1&#45;&gt;Node2 -->
<g id="edge1" class="edge">
<title>Node1&#45;&gt;Node2</title>
<path fill="none" stroke="midnightblue" d="M725.24,-446.85C543.57,-431.83 165.87,-391.39 66.99,-309 12.44,-263.55 -25.1,-210.02 20.99,-156 56.68,-114.16 212.84,-103.44 304.4,-100.78"/>
<polygon fill="midnightblue" stroke="midnightblue" points="725.08,-450.35 735.33,-447.67 725.65,-443.37 725.08,-450.35"/>
</g>
<!-- Node4 -->
<g id="node4" class="node">
<title>Node4</title>
<g id="a_node4"><a xlink:href="flight__main_8hpp.html" target="_top" xlink:title="Header file for the main function that just sources all the other header files.">
<polygon fill="white" stroke="black" points="845.49,-351 845.49,-392 998.49,-392 998.49,-351 845.49,-351"/>
<text text-anchor="start" x="853.49" y="-380" font-family="Helvetica,sans-Serif" font-size="10.00">ACSL&#45;flightstack&#45;winged</text>
<text text-anchor="start" x="853.49" y="-369" font-family="Helvetica,sans-Serif" font-size="10.00">/src/acsl_flight/include</text>
<text text-anchor="middle" x="921.99" y="-358" font-family="Helvetica,sans-Serif" font-size="10.00">/flight_main/flight_main.hpp</text>
</a>
</g>
</g>
<!-- Node1&#45;&gt;Node4 -->
<g id="edge3" class="edge">
<title>Node1&#45;&gt;Node4</title>
<path fill="none" stroke="midnightblue" d="M855.63,-427.69C869.56,-416.1 885.64,-402.73 898.48,-392.05"/>
<polygon fill="midnightblue" stroke="midnightblue" points="853.16,-425.19 847.71,-434.27 857.64,-430.57 853.16,-425.19"/>
</g>
<!-- Node6 -->
<g id="node6" class="node">
<title>Node6</title>
<g id="a_node6"><a xlink:href="piecewise__polynomial__trajectory_8hpp.html" target="_top" xlink:title="Header file for piecewise polynomial trajectory.">
<polygon fill="white" stroke="black" points="626.99,-345.5 626.99,-397.5 826.99,-397.5 826.99,-345.5 626.99,-345.5"/>
<text text-anchor="start" x="634.99" y="-385.5" font-family="Helvetica,sans-Serif" font-size="10.00">ACSL&#45;flightstack&#45;winged</text>
<text text-anchor="start" x="634.99" y="-374.5" font-family="Helvetica,sans-Serif" font-size="10.00">/src/acsl_flight/include</text>
<text text-anchor="start" x="634.99" y="-363.5" font-family="Helvetica,sans-Serif" font-size="10.00">/piecewise_polynomial_trajectory</text>
<text text-anchor="middle" x="726.99" y="-352.5" font-family="Helvetica,sans-Serif" font-size="10.00">/piecewise_polynomial_trajectory.hpp</text>
</a>
</g>
</g>
<!-- Node1&#45;&gt;Node6 -->
<g id="edge5" class="edge">
<title>Node1&#45;&gt;Node6</title>
<path fill="none" stroke="midnightblue" d="M792.81,-427.8C781.29,-418.13 768.27,-407.19 756.87,-397.61"/>
<polygon fill="midnightblue" stroke="midnightblue" points="790.6,-430.52 800.51,-434.27 795.1,-425.16 790.6,-430.52"/>
</g>
<!-- Node23 -->
<g id="node23" class="node">
<title>Node23</title>
<g id="a_node23"><a xlink:href="read__pix_8hpp.html" target="_top" xlink:title="Class decleartion for reading pixhawk data.">
<polygon fill="white" stroke="black" points="1016.49,-351 1016.49,-392 1151.49,-392 1151.49,-351 1016.49,-351"/>
<text text-anchor="start" x="1024.49" y="-380" font-family="Helvetica,sans-Serif" font-size="10.00">ACSL&#45;flightstack&#45;winged</text>
<text text-anchor="start" x="1024.49" y="-369" font-family="Helvetica,sans-Serif" font-size="10.00">/src/acsl_flight/include</text>
<text text-anchor="middle" x="1083.99" y="-358" font-family="Helvetica,sans-Serif" font-size="10.00">/read_pix/read_pix.hpp</text>
</a>
</g>
</g>
<!-- Node1&#45;&gt;Node23 -->
<g id="edge23" class="edge">
<title>Node1&#45;&gt;Node23</title>
<path fill="none" stroke="midnightblue" d="M899.38,-431.58C932.73,-421.53 972.38,-409.39 1007.99,-398 1013.95,-396.09 1020.17,-394.07 1026.37,-392.02"/>
<polygon fill="midnightblue" stroke="midnightblue" points="898.27,-428.26 889.7,-434.49 900.29,-434.96 898.27,-428.26"/>
</g>
<!-- Node25 -->
<g id="node25" class="node">
<title>Node25</title>
<g id="a_node25"><a xlink:href="control__algorithm__base_8hpp.html" target="_top" xlink:title="Utilities for Controller Base Definition.">
<polygon fill="white" stroke="black" points="424.99,-345.5 424.99,-397.5 608.99,-397.5 608.99,-345.5 424.99,-345.5"/>
<text text-anchor="start" x="432.99" y="-385.5" font-family="Helvetica,sans-Serif" font-size="10.00">ACSL&#45;flightstack&#45;winged</text>
<text text-anchor="start" x="432.99" y="-374.5" font-family="Helvetica,sans-Serif" font-size="10.00">/src/acsl_flight/include</text>
<text text-anchor="start" x="432.99" y="-363.5" font-family="Helvetica,sans-Serif" font-size="10.00">/utils/control_algorithm</text>
<text text-anchor="middle" x="516.99" y="-352.5" font-family="Helvetica,sans-Serif" font-size="10.00">_base/control_algorithm_base.hpp</text>
</a>
</g>
</g>
<!-- Node1&#45;&gt;Node25 -->
<g id="edge25" class="edge">
<title>Node1&#45;&gt;Node25</title>
<path fill="none" stroke="midnightblue" d="M740.58,-431.86C699.93,-421.07 650.93,-408.06 609.17,-396.97"/>
<polygon fill="midnightblue" stroke="midnightblue" points="739.89,-435.3 750.45,-434.48 741.69,-428.53 739.89,-435.3"/>
</g>
<!-- Node26 -->
<g id="node26" class="node">
<title>Node26</title>
<g id="a_node26"><a xlink:href="flight__params_8cpp.html" target="_top" xlink:title="Define file for the main flight parameters that will be used for the entire controller.">
<polygon fill="white" stroke="black" points="1169.49,-351 1169.49,-392 1318.49,-392 1318.49,-351 1169.49,-351"/>
<text text-anchor="start" x="1177.49" y="-380" font-family="Helvetica,sans-Serif" font-size="10.00">ACSL&#45;flightstack&#45;winged</text>
<text text-anchor="start" x="1177.49" y="-369" font-family="Helvetica,sans-Serif" font-size="10.00">/src/acsl_flight/src/flight</text>
<text text-anchor="middle" x="1243.99" y="-358" font-family="Helvetica,sans-Serif" font-size="10.00">_params/flight_params.cpp</text>
</a>
</g>
</g>
<!-- Node1&#45;&gt;Node26 -->
<g id="edge31" class="edge">
<title>Node1&#45;&gt;Node26</title>
<path fill="none" stroke="midnightblue" d="M922.82,-441.12C990.36,-431.46 1081.64,-416.69 1160.99,-398 1168.33,-396.27 1175.96,-394.25 1183.5,-392.1"/>
<polygon fill="midnightblue" stroke="midnightblue" points="922.02,-437.7 912.61,-442.57 923.01,-444.63 922.02,-437.7"/>
</g>
<!-- Node3 -->
<g id="node3" class="node">
<title>Node3</title>
<g id="a_node3"><a xlink:href="control_8cpp.html" target="_top" xlink:title="Control node definition. Runs all the control algorithms. Adds as a hub for all the control actions.">
<polygon fill="white" stroke="black" points="301.99,-0.5 301.99,-41.5 441.99,-41.5 441.99,-0.5 301.99,-0.5"/>
<text text-anchor="start" x="309.99" y="-29.5" font-family="Helvetica,sans-Serif" font-size="10.00">ACSL&#45;flightstack&#45;winged</text>
<text text-anchor="start" x="309.99" y="-18.5" font-family="Helvetica,sans-Serif" font-size="10.00">/src/acsl_flight/src/control</text>
<text text-anchor="middle" x="371.99" y="-7.5" font-family="Helvetica,sans-Serif" font-size="10.00">/control.cpp</text>
</a>
</g>
</g>
<!-- Node2&#45;&gt;Node3 -->
<g id="edge2" class="edge">
<title>Node2&#45;&gt;Node3</title>
<path fill="none" stroke="midnightblue" d="M371.99,-68.3C371.99,-59.3 371.99,-49.65 371.99,-41.51"/>
<polygon fill="midnightblue" stroke="midnightblue" points="368.49,-68.43 371.99,-78.43 375.49,-68.43 368.49,-68.43"/>
</g>
<!-- Node5 -->
<g id="node5" class="node">
<title>Node5</title>
<g id="a_node5"><a xlink:href="flight__main_8cpp.html" target="_top" xlink:title="Main function to initiate ROS2.">
<polygon fill="white" stroke="black" points="1198.49,-256.5 1198.49,-297.5 1333.49,-297.5 1333.49,-256.5 1198.49,-256.5"/>
<text text-anchor="start" x="1206.49" y="-285.5" font-family="Helvetica,sans-Serif" font-size="10.00">ACSL&#45;flightstack&#45;winged</text>
<text text-anchor="start" x="1206.49" y="-274.5" font-family="Helvetica,sans-Serif" font-size="10.00">/src/acsl_flight/src/flight</text>
<text text-anchor="middle" x="1265.99" y="-263.5" font-family="Helvetica,sans-Serif" font-size="10.00">_main/flight_main.cpp</text>
</a>
</g>
</g>
<!-- Node4&#45;&gt;Node5 -->
<g id="edge4" class="edge">
<title>Node4&#45;&gt;Node5</title>
<path fill="none" stroke="midnightblue" d="M995.52,-348.21C999.73,-347.08 1003.91,-346.01 1007.99,-345 1088.05,-325.26 1111.01,-332.68 1189.99,-309 1200.5,-305.85 1211.56,-301.79 1221.9,-297.65"/>
<polygon fill="midnightblue" stroke="midnightblue" points="994.4,-344.88 985.68,-350.9 996.25,-351.64 994.4,-344.88"/>
</g>
<!-- Node7 -->
<g id="node7" class="node">
<title>Node7</title>
<g id="a_node7"><a xlink:href="MRAC__OMEGA_8hpp.html" target="_top" xlink:title="MRAC with angular velocities for the QRBP.">
<polygon fill="white" stroke="black" points="826.99,-245.5 826.99,-308.5 980.99,-308.5 980.99,-245.5 826.99,-245.5"/>
<text text-anchor="start" x="834.99" y="-296.5" font-family="Helvetica,sans-Serif" font-size="10.00">ACSL&#45;flightstack&#45;winged</text>
<text text-anchor="start" x="834.99" y="-285.5" font-family="Helvetica,sans-Serif" font-size="10.00">/src/acsl_flight/include</text>
<text text-anchor="start" x="834.99" y="-274.5" font-family="Helvetica,sans-Serif" font-size="10.00">/control/platforms/qrbp</text>
<text text-anchor="start" x="834.99" y="-263.5" font-family="Helvetica,sans-Serif" font-size="10.00">/control_algorithms/MRAC</text>
<text text-anchor="middle" x="903.99" y="-252.5" font-family="Helvetica,sans-Serif" font-size="10.00">_OMEGA/MRAC_OMEGA.hpp</text>
</a>
</g>
</g>
<!-- Node6&#45;&gt;Node7 -->
<g id="edge6" class="edge">
<title>Node6&#45;&gt;Node7</title>
<path fill="none" stroke="midnightblue" d="M784.01,-340.7C803.61,-330.46 825.58,-318.98 845.32,-308.66"/>
<polygon fill="midnightblue" stroke="midnightblue" points="782.13,-337.73 774.89,-345.47 785.37,-343.94 782.13,-337.73"/>
</g>
<!-- Node9 -->
<g id="node9" class="node">
<title>Node9</title>
<g id="a_node9"><a xlink:href="MRAC__PID_8hpp.html" target="_top" xlink:title="MRAC_PID for the QRBP.">
<polygon fill="white" stroke="black" points="76.49,-245.5 76.49,-308.5 219.49,-308.5 219.49,-245.5 76.49,-245.5"/>
<text text-anchor="start" x="84.49" y="-296.5" font-family="Helvetica,sans-Serif" font-size="10.00">ACSL&#45;flightstack&#45;winged</text>
<text text-anchor="start" x="84.49" y="-285.5" font-family="Helvetica,sans-Serif" font-size="10.00">/src/acsl_flight/include</text>
<text text-anchor="start" x="84.49" y="-274.5" font-family="Helvetica,sans-Serif" font-size="10.00">/control/platforms/qrbp</text>
<text text-anchor="start" x="84.49" y="-263.5" font-family="Helvetica,sans-Serif" font-size="10.00">/control_algorithms/MRAC</text>
<text text-anchor="middle" x="147.99" y="-252.5" font-family="Helvetica,sans-Serif" font-size="10.00">_PID/MRAC_PID.hpp</text>
</a>
</g>
</g>
<!-- Node6&#45;&gt;Node9 -->
<g id="edge8" class="edge">
<title>Node6&#45;&gt;Node9</title>
<path fill="none" stroke="midnightblue" d="M616.8,-344.92C444.32,-318.26 394.3,-348.09 227.99,-309 225.23,-308.35 222.45,-307.63 219.65,-306.85"/>
<polygon fill="midnightblue" stroke="midnightblue" points="616.29,-348.38 626.72,-346.49 617.39,-341.47 616.29,-348.38"/>
</g>
<!-- Node11 -->
<g id="node11" class="node">
<title>Node11</title>
<g id="a_node11"><a xlink:href="PID_8hpp.html" target="_top" xlink:title="PID for the QRBP.">
<polygon fill="white" stroke="black" points="237.49,-251 237.49,-303 408.49,-303 408.49,-251 237.49,-251"/>
<text text-anchor="start" x="245.49" y="-291" font-family="Helvetica,sans-Serif" font-size="10.00">ACSL&#45;flightstack&#45;winged</text>
<text text-anchor="start" x="245.49" y="-280" font-family="Helvetica,sans-Serif" font-size="10.00">/src/acsl_flight/include</text>
<text text-anchor="start" x="245.49" y="-269" font-family="Helvetica,sans-Serif" font-size="10.00">/control/platforms/qrbp</text>
<text text-anchor="middle" x="322.99" y="-258" font-family="Helvetica,sans-Serif" font-size="10.00">/control_algorithms/PID/PID.hpp</text>
</a>
</g>
</g>
<!-- Node6&#45;&gt;Node11 -->
<g id="edge10" class="edge">
<title>Node6&#45;&gt;Node11</title>
<path fill="none" stroke="midnightblue" d="M616.94,-344.85C527.78,-326.98 502.49,-330.29 417.99,-309 410.92,-307.22 403.62,-305.19 396.34,-303.04"/>
<polygon fill="midnightblue" stroke="midnightblue" points="616.45,-348.32 626.95,-346.88 617.85,-341.46 616.45,-348.32"/>
</g>
<!-- Node13 -->
<g id="node13" class="node">
<title>Node13</title>
<g id="a_node13"><a xlink:href="PID__OMEGA_8hpp.html" target="_top" xlink:title="PID with angular veocities for the QRBP.">
<polygon fill="white" stroke="black" points="635.49,-245.5 635.49,-308.5 808.49,-308.5 808.49,-245.5 635.49,-245.5"/>
<text text-anchor="start" x="643.49" y="-296.5" font-family="Helvetica,sans-Serif" font-size="10.00">ACSL&#45;flightstack&#45;winged</text>
<text text-anchor="start" x="643.49" y="-285.5" font-family="Helvetica,sans-Serif" font-size="10.00">/src/acsl_flight/include</text>
<text text-anchor="start" x="643.49" y="-274.5" font-family="Helvetica,sans-Serif" font-size="10.00">/control/platforms/qrbp</text>
<text text-anchor="start" x="643.49" y="-263.5" font-family="Helvetica,sans-Serif" font-size="10.00">/control_algorithms/PID_OMEGA</text>
<text text-anchor="middle" x="721.99" y="-252.5" font-family="Helvetica,sans-Serif" font-size="10.00">/PID_OMEGA.hpp</text>
</a>
</g>
</g>
<!-- Node6&#45;&gt;Node13 -->
<g id="edge12" class="edge">
<title>Node6&#45;&gt;Node13</title>
<path fill="none" stroke="midnightblue" d="M725.08,-335.23C724.61,-326.43 724.1,-317.06 723.64,-308.51"/>
<polygon fill="midnightblue" stroke="midnightblue" points="721.59,-335.43 725.62,-345.22 728.58,-335.05 721.59,-335.43"/>
</g>
<!-- Node20 -->
<g id="node20" class="node">
<title>Node20</title>
<g id="a_node20"><a xlink:href="PID__TD_8hpp.html" target="_top" xlink:title="PID for the ros test drone.">
<polygon fill="white" stroke="black" points="426.99,-251 426.99,-303 616.99,-303 616.99,-251 426.99,-251"/>
<text text-anchor="start" x="434.99" y="-291" font-family="Helvetica,sans-Serif" font-size="10.00">ACSL&#45;flightstack&#45;winged</text>
<text text-anchor="start" x="434.99" y="-280" font-family="Helvetica,sans-Serif" font-size="10.00">/src/acsl_flight/include</text>
<text text-anchor="start" x="434.99" y="-269" font-family="Helvetica,sans-Serif" font-size="10.00">/control/platforms/rostestdrone</text>
<text text-anchor="middle" x="521.99" y="-258" font-family="Helvetica,sans-Serif" font-size="10.00">/control_algorithms/PID/PID_TD.hpp</text>
</a>
</g>
</g>
<!-- Node6&#45;&gt;Node20 -->
<g id="edge20" class="edge">
<title>Node6&#45;&gt;Node20</title>
<path fill="none" stroke="midnightblue" d="M662.08,-341.21C634.89,-328.94 603.61,-314.83 577.51,-303.05"/>
<polygon fill="midnightblue" stroke="midnightblue" points="660.96,-344.55 671.51,-345.47 663.84,-338.16 660.96,-344.55"/>
</g>
<!-- Node22 -->
<g id="node22" class="node">
<title>Node22</title>
<g id="a_node22"><a xlink:href="piecewise__polynomial__trajectory_8cpp.html" target="_top" xlink:title="Implementation of the piecewise polynomial trajectory.">
<polygon fill="white" stroke="black" points="999.49,-251 999.49,-303 1180.49,-303 1180.49,-251 999.49,-251"/>
<text text-anchor="start" x="1007.49" y="-291" font-family="Helvetica,sans-Serif" font-size="10.00">ACSL&#45;flightstack&#45;winged</text>
<text text-anchor="start" x="1007.49" y="-280" font-family="Helvetica,sans-Serif" font-size="10.00">/src/acsl_flight/src/piecewise</text>
<text text-anchor="start" x="1007.49" y="-269" font-family="Helvetica,sans-Serif" font-size="10.00">_polynomial_trajectory/piecewise</text>
<text text-anchor="middle" x="1089.99" y="-258" font-family="Helvetica,sans-Serif" font-size="10.00">_polynomial_trajectory.cpp</text>
</a>
</g>
</g>
<!-- Node6&#45;&gt;Node22 -->
<g id="edge22" class="edge">
<title>Node6&#45;&gt;Node22</title>
<path fill="none" stroke="midnightblue" d="M837.15,-344.74C906.13,-328.82 925.2,-326.59 989.99,-309 996.83,-307.14 1003.91,-305.13 1010.99,-303.06"/>
<polygon fill="midnightblue" stroke="midnightblue" points="836.02,-341.41 827.07,-347.09 837.61,-348.23 836.02,-341.41"/>
</g>
<!-- Node8 -->
<g id="node8" class="node">
<title>Node8</title>
<g id="a_node8"><a xlink:href="MRAC__OMEGA_8cpp.html" target="_top" xlink:title="MRAC with angular velocities for the QRBP. Inherts the class controller_base for the basic functional...">
<polygon fill="white" stroke="black" points="991.99,-156.5 991.99,-208.5 1177.99,-208.5 1177.99,-156.5 991.99,-156.5"/>
<text text-anchor="start" x="999.99" y="-196.5" font-family="Helvetica,sans-Serif" font-size="10.00">ACSL&#45;flightstack&#45;winged</text>
<text text-anchor="start" x="999.99" y="-185.5" font-family="Helvetica,sans-Serif" font-size="10.00">/src/acsl_flight/src/control</text>
<text text-anchor="start" x="999.99" y="-174.5" font-family="Helvetica,sans-Serif" font-size="10.00">/platforms/qrbp/control_algorithms</text>
<text text-anchor="middle" x="1084.99" y="-163.5" font-family="Helvetica,sans-Serif" font-size="10.00">/MRAC_OMEGA/MRAC_OMEGA.cpp</text>
</a>
</g>
</g>
<!-- Node7&#45;&gt;Node8 -->
<g id="edge7" class="edge">
<title>Node7&#45;&gt;Node8</title>
<path fill="none" stroke="midnightblue" d="M972.94,-240.77C993.89,-230.06 1016.48,-218.51 1035.84,-208.62"/>
<polygon fill="midnightblue" stroke="midnightblue" points="971.07,-237.79 963.76,-245.46 974.25,-244.02 971.07,-237.79"/>
</g>
<!-- Node10 -->
<g id="node10" class="node">
<title>Node10</title>
<g id="a_node10"><a xlink:href="MRAC__PID_8cpp.html" target="_top" xlink:title="MRAC_PID for the QRBP.">
<polygon fill="white" stroke="black" points="29.99,-156.5 29.99,-208.5 215.99,-208.5 215.99,-156.5 29.99,-156.5"/>
<text text-anchor="start" x="37.99" y="-196.5" font-family="Helvetica,sans-Serif" font-size="10.00">ACSL&#45;flightstack&#45;winged</text>
<text text-anchor="start" x="37.99" y="-185.5" font-family="Helvetica,sans-Serif" font-size="10.00">/src/acsl_flight/src/control</text>
<text text-anchor="start" x="37.99" y="-174.5" font-family="Helvetica,sans-Serif" font-size="10.00">/platforms/qrbp/control_algorithms</text>
<text text-anchor="middle" x="122.99" y="-163.5" font-family="Helvetica,sans-Serif" font-size="10.00">/MRAC_PID/MRAC_PID.cpp</text>
</a>
</g>
</g>
<!-- Node9&#45;&gt;Node10 -->
<g id="edge9" class="edge">
<title>Node9&#45;&gt;Node10</title>
<path fill="none" stroke="midnightblue" d="M137.1,-235.72C134.63,-226.56 132.07,-217.09 129.82,-208.77"/>
<polygon fill="midnightblue" stroke="midnightblue" points="133.75,-236.72 139.73,-245.46 140.5,-234.89 133.75,-236.72"/>
</g>
<!-- Node12 -->
<g id="node12" class="node">
<title>Node12</title>
<g id="a_node12"><a xlink:href="PID_8cpp.html" target="_top" xlink:title=" ">
<polygon fill="white" stroke="black" points="233.99,-156.5 233.99,-208.5 419.99,-208.5 419.99,-156.5 233.99,-156.5"/>
<text text-anchor="start" x="241.99" y="-196.5" font-family="Helvetica,sans-Serif" font-size="10.00">ACSL&#45;flightstack&#45;winged</text>
<text text-anchor="start" x="241.99" y="-185.5" font-family="Helvetica,sans-Serif" font-size="10.00">/src/acsl_flight/src/control</text>
<text text-anchor="start" x="241.99" y="-174.5" font-family="Helvetica,sans-Serif" font-size="10.00">/platforms/qrbp/control_algorithms</text>
<text text-anchor="middle" x="326.99" y="-163.5" font-family="Helvetica,sans-Serif" font-size="10.00">/PID/PID.cpp</text>
</a>
</g>
</g>
<!-- Node11&#45;&gt;Node12 -->
<g id="edge11" class="edge">
<title>Node11&#45;&gt;Node12</title>
<path fill="none" stroke="midnightblue" d="M324.52,-240.49C324.98,-229.91 325.47,-218.53 325.9,-208.75"/>
<polygon fill="midnightblue" stroke="midnightblue" points="321.02,-240.58 324.08,-250.72 328.01,-240.88 321.02,-240.58"/>
</g>
<!-- Node14 -->
<g id="node14" class="node">
<title>Node14</title>
<g id="a_node14"><a xlink:href="control__config_8hpp.html" target="_top" xlink:title="Just a header file for configuring which platform and controller to pick during compilation.">
<polygon fill="white" stroke="black" points="827.99,-162 827.99,-203 973.99,-203 973.99,-162 827.99,-162"/>
<text text-anchor="start" x="835.99" y="-191" font-family="Helvetica,sans-Serif" font-size="10.00">ACSL&#45;flightstack&#45;winged</text>
<text text-anchor="start" x="835.99" y="-180" font-family="Helvetica,sans-Serif" font-size="10.00">/src/acsl_flight/include</text>
<text text-anchor="middle" x="900.99" y="-169" font-family="Helvetica,sans-Serif" font-size="10.00">/control/control_config.hpp</text>
</a>
</g>
</g>
<!-- Node13&#45;&gt;Node14 -->
<g id="edge13" class="edge">
<title>Node13&#45;&gt;Node14</title>
<path fill="none" stroke="midnightblue" d="M790.09,-240.81C814.81,-228.03 841.85,-214.06 863.04,-203.11"/>
<polygon fill="midnightblue" stroke="midnightblue" points="788.37,-237.76 781.1,-245.46 791.59,-243.97 788.37,-237.76"/>
</g>
<!-- Node19 -->
<g id="node19" class="node">
<title>Node19</title>
<g id="a_node19"><a xlink:href="PID__OMEGA_8cpp.html" target="_top" xlink:title="PID with angular velocities for the QRBP.">
<polygon fill="white" stroke="black" points="623.99,-156.5 623.99,-208.5 809.99,-208.5 809.99,-156.5 623.99,-156.5"/>
<text text-anchor="start" x="631.99" y="-196.5" font-family="Helvetica,sans-Serif" font-size="10.00">ACSL&#45;flightstack&#45;winged</text>
<text text-anchor="start" x="631.99" y="-185.5" font-family="Helvetica,sans-Serif" font-size="10.00">/src/acsl_flight/src/control</text>
<text text-anchor="start" x="631.99" y="-174.5" font-family="Helvetica,sans-Serif" font-size="10.00">/platforms/qrbp/control_algorithms</text>
<text text-anchor="middle" x="716.99" y="-163.5" font-family="Helvetica,sans-Serif" font-size="10.00">/PID_OMEGA/PID_OMEGA.cpp</text>
</a>
</g>
</g>
<!-- Node13&#45;&gt;Node19 -->
<g id="edge19" class="edge">
<title>Node13&#45;&gt;Node19</title>
<path fill="none" stroke="midnightblue" d="M719.8,-235.42C719.31,-226.36 718.8,-217 718.35,-208.77"/>
<polygon fill="midnightblue" stroke="midnightblue" points="716.3,-235.66 720.34,-245.46 723.29,-235.28 716.3,-235.66"/>
</g>
<!-- Node14&#45;&gt;Node2 -->
<g id="edge14" class="edge">
<title>Node14&#45;&gt;Node2</title>
<path fill="none" stroke="midnightblue" d="M832.98,-159.35C828.27,-158.13 823.57,-156.99 818.99,-156 686.17,-127.27 527.73,-111.74 439.63,-104.73"/>
<polygon fill="midnightblue" stroke="midnightblue" points="832.08,-162.73 842.65,-161.98 833.92,-155.98 832.08,-162.73"/>
</g>
<!-- Node15 -->
<g id="node15" class="node">
<title>Node15</title>
<g id="a_node15"><a xlink:href="mocap_8hpp.html" target="_top" xlink:title="Class declaration for UDP socket as a lifecycle node.">
<polygon fill="white" stroke="black" points="910.49,-78.5 910.49,-119.5 1045.49,-119.5 1045.49,-78.5 910.49,-78.5"/>
<text text-anchor="start" x="918.49" y="-107.5" font-family="Helvetica,sans-Serif" font-size="10.00">ACSL&#45;flightstack&#45;winged</text>
<text text-anchor="start" x="918.49" y="-96.5" font-family="Helvetica,sans-Serif" font-size="10.00">/src/acsl_flight/include</text>
<text text-anchor="middle" x="977.99" y="-85.5" font-family="Helvetica,sans-Serif" font-size="10.00">/mocap/mocap.hpp</text>
</a>
</g>
</g>
<!-- Node14&#45;&gt;Node15 -->
<g id="edge15" class="edge">
<title>Node14&#45;&gt;Node15</title>
<path fill="none" stroke="midnightblue" d="M926.77,-154.21C937.5,-142.86 949.71,-129.93 959.52,-119.55"/>
<polygon fill="midnightblue" stroke="midnightblue" points="923.95,-152.1 919.63,-161.77 929.04,-156.91 923.95,-152.1"/>
</g>
<!-- Node17 -->
<g id="node17" class="node">
<title>Node17</title>
<g id="a_node17"><a xlink:href="vio_8hpp.html" target="_top" xlink:title="Class decleration for Intel Realsense T265 tracking camera as a lifecycle node.">
<polygon fill="white" stroke="black" points="756.49,-78.5 756.49,-119.5 891.49,-119.5 891.49,-78.5 756.49,-78.5"/>
<text text-anchor="start" x="764.49" y="-107.5" font-family="Helvetica,sans-Serif" font-size="10.00">ACSL&#45;flightstack&#45;winged</text>
<text text-anchor="start" x="764.49" y="-96.5" font-family="Helvetica,sans-Serif" font-size="10.00">/src/acsl_flight/include</text>
<text text-anchor="middle" x="823.99" y="-85.5" font-family="Helvetica,sans-Serif" font-size="10.00">/vio/vio.hpp</text>
</a>
</g>
</g>
<!-- Node14&#45;&gt;Node17 -->
<g id="edge17" class="edge">
<title>Node14&#45;&gt;Node17</title>
<path fill="none" stroke="midnightblue" d="M875.21,-154.21C864.48,-142.86 852.27,-129.93 842.46,-119.55"/>
<polygon fill="midnightblue" stroke="midnightblue" points="872.94,-156.91 882.35,-161.77 878.03,-152.1 872.94,-156.91"/>
</g>
<!-- Node16 -->
<g id="node16" class="node">
<title>Node16</title>
<g id="a_node16"><a xlink:href="mocap_8cpp.html" target="_top" xlink:title="Node definition for UDP socket as a lifecycle node.">
<polygon fill="white" stroke="black" points="908.99,-0.5 908.99,-41.5 1048.99,-41.5 1048.99,-0.5 908.99,-0.5"/>
<text text-anchor="start" x="916.99" y="-29.5" font-family="Helvetica,sans-Serif" font-size="10.00">ACSL&#45;flightstack&#45;winged</text>
<text text-anchor="start" x="916.99" y="-18.5" font-family="Helvetica,sans-Serif" font-size="10.00">/src/acsl_flight/src/mocap</text>
<text text-anchor="middle" x="978.99" y="-7.5" font-family="Helvetica,sans-Serif" font-size="10.00">/mocap.cpp</text>
</a>
</g>
</g>
<!-- Node15&#45;&gt;Node16 -->
<g id="edge16" class="edge">
<title>Node15&#45;&gt;Node16</title>
<path fill="none" stroke="midnightblue" d="M978.38,-68.3C978.5,-59.3 978.63,-49.65 978.73,-41.51"/>
<polygon fill="midnightblue" stroke="midnightblue" points="974.88,-68.38 978.25,-78.43 981.88,-68.48 974.88,-68.38"/>
</g>
<!-- Node18 -->
<g id="node18" class="node">
<title>Node18</title>
<g id="a_node18"><a xlink:href="vio_8cpp.html" target="_top" xlink:title="Node definition for Intel Realsense T265 tracking camera as a lifecycle node.">
<polygon fill="white" stroke="black" points="755.49,-0.5 755.49,-41.5 890.49,-41.5 890.49,-0.5 755.49,-0.5"/>
<text text-anchor="start" x="763.49" y="-29.5" font-family="Helvetica,sans-Serif" font-size="10.00">ACSL&#45;flightstack&#45;winged</text>
<text text-anchor="start" x="763.49" y="-18.5" font-family="Helvetica,sans-Serif" font-size="10.00">/src/acsl_flight/src/vio</text>
<text text-anchor="middle" x="822.99" y="-7.5" font-family="Helvetica,sans-Serif" font-size="10.00">/vio.cpp</text>
</a>
</g>
</g>
<!-- Node17&#45;&gt;Node18 -->
<g id="edge18" class="edge">
<title>Node17&#45;&gt;Node18</title>
<path fill="none" stroke="midnightblue" d="M823.6,-68.3C823.48,-59.3 823.35,-49.65 823.25,-41.51"/>
<polygon fill="midnightblue" stroke="midnightblue" points="820.1,-68.48 823.73,-78.43 827.1,-68.38 820.1,-68.48"/>
</g>
<!-- Node21 -->
<g id="node21" class="node">
<title>Node21</title>
<g id="a_node21"><a xlink:href="PID__TD_8cpp.html" target="_top" xlink:title="PID for the rostestdrone.">
<polygon fill="white" stroke="black" points="437.99,-156.5 437.99,-208.5 605.99,-208.5 605.99,-156.5 437.99,-156.5"/>
<text text-anchor="start" x="445.99" y="-196.5" font-family="Helvetica,sans-Serif" font-size="10.00">ACSL&#45;flightstack&#45;winged</text>
<text text-anchor="start" x="445.99" y="-185.5" font-family="Helvetica,sans-Serif" font-size="10.00">/src/acsl_flight/src/control</text>
<text text-anchor="start" x="445.99" y="-174.5" font-family="Helvetica,sans-Serif" font-size="10.00">/platforms/rostestdrone/control</text>
<text text-anchor="middle" x="521.99" y="-163.5" font-family="Helvetica,sans-Serif" font-size="10.00">_algorithms/PID/PID_TD.cpp</text>
</a>
</g>
</g>
<!-- Node20&#45;&gt;Node21 -->
<g id="edge21" class="edge">
<title>Node20&#45;&gt;Node21</title>
<path fill="none" stroke="midnightblue" d="M521.99,-240.49C521.99,-229.91 521.99,-218.53 521.99,-208.75"/>
<polygon fill="midnightblue" stroke="midnightblue" points="518.49,-240.72 521.99,-250.72 525.49,-240.72 518.49,-240.72"/>
</g>
<!-- Node24 -->
<g id="node24" class="node">
<title>Node24</title>
<g id="a_node24"><a xlink:href="read__pix_8cpp.html" target="_top" xlink:title="Class definiton for reading pixhawk data.">
<polygon fill="white" stroke="black" points="1351.49,-256.5 1351.49,-297.5 1486.49,-297.5 1486.49,-256.5 1351.49,-256.5"/>
<text text-anchor="start" x="1359.49" y="-285.5" font-family="Helvetica,sans-Serif" font-size="10.00">ACSL&#45;flightstack&#45;winged</text>
<text text-anchor="start" x="1359.49" y="-274.5" font-family="Helvetica,sans-Serif" font-size="10.00">/src/acsl_flight/src/read</text>
<text text-anchor="middle" x="1418.99" y="-263.5" font-family="Helvetica,sans-Serif" font-size="10.00">_pix/read_pix.cpp</text>
</a>
</g>
</g>
<!-- Node23&#45;&gt;Node24 -->
<g id="edge24" class="edge">
<title>Node23&#45;&gt;Node24</title>
<path fill="none" stroke="midnightblue" d="M1150.18,-348C1153.82,-346.94 1157.44,-345.93 1160.99,-345 1240.73,-324 1264.01,-332.68 1342.99,-309 1353.5,-305.85 1364.56,-301.79 1374.9,-297.65"/>
<polygon fill="midnightblue" stroke="midnightblue" points="1149.09,-344.67 1140.52,-350.89 1151.1,-351.38 1149.09,-344.67"/>
</g>
<!-- Node25&#45;&gt;Node7 -->
<g id="edge26" class="edge">
<title>Node25&#45;&gt;Node7</title>
<path fill="none" stroke="midnightblue" d="M619.06,-344.85C707.62,-326.39 733.2,-331.35 816.99,-309 820.24,-308.13 823.55,-307.2 826.87,-306.21"/>
<polygon fill="midnightblue" stroke="midnightblue" points="618.18,-341.46 609.13,-346.96 619.64,-348.3 618.18,-341.46"/>
</g>
<!-- Node25&#45;&gt;Node9 -->
<g id="edge27" class="edge">
<title>Node25&#45;&gt;Node9</title>
<path fill="none" stroke="midnightblue" d="M415.04,-352.94C359.25,-342.29 289.2,-327.25 227.99,-309 225.28,-308.19 222.53,-307.33 219.76,-306.43"/>
<polygon fill="midnightblue" stroke="midnightblue" points="414.46,-356.39 424.93,-354.8 415.76,-349.51 414.46,-356.39"/>
</g>
<!-- Node25&#45;&gt;Node11 -->
<g id="edge28" class="edge">
<title>Node25&#45;&gt;Node11</title>
<path fill="none" stroke="midnightblue" d="M455.23,-341.05C429.58,-328.82 400.12,-314.78 375.53,-303.05"/>
<polygon fill="midnightblue" stroke="midnightblue" points="453.96,-344.32 464.49,-345.47 456.97,-338 453.96,-344.32"/>
</g>
<!-- Node25&#45;&gt;Node13 -->
<g id="edge29" class="edge">
<title>Node25&#45;&gt;Node13</title>
<path fill="none" stroke="midnightblue" d="M581.79,-341.26C604.81,-330.87 630.77,-319.16 654.03,-308.66"/>
<polygon fill="midnightblue" stroke="midnightblue" points="580.14,-338.16 572.47,-345.47 583.02,-344.55 580.14,-338.16"/>
</g>
<!-- Node25&#45;&gt;Node20 -->
<g id="edge30" class="edge">
<title>Node25&#45;&gt;Node20</title>
<path fill="none" stroke="midnightblue" d="M518.91,-334.99C519.48,-324.41 520.1,-313.03 520.62,-303.25"/>
<polygon fill="midnightblue" stroke="midnightblue" points="515.4,-335.05 518.36,-345.22 522.39,-335.43 515.4,-335.05"/>
</g>
</g>
</svg>
