<?xml version="1.0" encoding="UTF-8" standalone="no"?>
<!DOCTYPE svg PUBLIC "-//W3C//DTD SVG 1.1//EN"
 "http://www.w3.org/Graphics/SVG/1.1/DTD/svg11.dtd">
<!-- Generated by graphviz version 2.43.0 (0)
 -->
<!-- Title: ACSL&#45;flightstack&#45;winged/src/acsl_flight/include/flight_params/flight_params.hpp Pages: 1 -->
<svg width="1581pt" height="640pt"
 viewBox="0.00 0.00 1580.50 640.00" xmlns="http://www.w3.org/2000/svg" xmlns:xlink="http://www.w3.org/1999/xlink">
<g id="graph0" class="graph" transform="scale(1 1) rotate(0) translate(4 636)">
<title>ACSL&#45;flightstack&#45;winged/src/acsl_flight/include/flight_params/flight_params.hpp</title>
<polygon fill="white" stroke="transparent" points="-4,4 -4,-636 1576.5,-636 1576.5,4 -4,4"/>
<!-- Node1 -->
<g id="node1" class="node">
<title>Node1</title>
<g id="a_node1"><a xlink:title=" ">
<polygon fill="#bfbfbf" stroke="black" points="697.5,-590.5 697.5,-631.5 874.5,-631.5 874.5,-590.5 697.5,-590.5"/>
<text text-anchor="start" x="705.5" y="-619.5" font-family="Helvetica,sans-Serif" font-size="10.00">ACSL&#45;flightstack&#45;winged</text>
<text text-anchor="start" x="705.5" y="-608.5" font-family="Helvetica,sans-Serif" font-size="10.00">/src/acsl_flight/include</text>
<text text-anchor="middle" x="786" y="-597.5" font-family="Helvetica,sans-Serif" font-size="10.00">/flight_params/flight_params.hpp</text>
</a>
</g>
</g>
<!-- Node2 -->
<g id="node2" class="node">
<title>Node2</title>
<g id="a_node2"><a xlink:href="control_8hpp.html" target="_top" xlink:title="Class declaration for computing and publishing the control.">
<polygon fill="white" stroke="black" points="62.5,-234.5 62.5,-275.5 197.5,-275.5 197.5,-234.5 62.5,-234.5"/>
<text text-anchor="start" x="70.5" y="-263.5" font-family="Helvetica,sans-Serif" font-size="10.00">ACSL&#45;flightstack&#45;winged</text>
<text text-anchor="start" x="70.5" y="-252.5" font-family="Helvetica,sans-Serif" font-size="10.00">/src/acsl_flight/include</text>
<text text-anchor="middle" x="130" y="-241.5" font-family="Helvetica,sans-Serif" font-size="10.00">/control/control.hpp</text>
</a>
</g>
</g>
<!-- Node1&#45;&gt;Node2 -->
<g id="edge1" class="edge">
<title>Node1&#45;&gt;Node2</title>
<path fill="none" stroke="midnightblue" d="M687.31,-600.45C519.74,-582.43 189.12,-538.47 101,-465 46.65,-419.69 25.7,-375.46 57,-312 64.49,-296.82 78.29,-284.6 91.9,-275.51"/>
<polygon fill="midnightblue" stroke="midnightblue" points="687.06,-603.95 697.38,-601.52 687.8,-596.98 687.06,-603.95"/>
</g>
<!-- Node3 -->
<g id="node3" class="node">
<title>Node3</title>
<g id="a_node3"><a xlink:href="flight__bridge_8hpp.html" target="_top" xlink:title=" ">
<polygon fill="white" stroke="black" points="362.5,-156.5 362.5,-197.5 527.5,-197.5 527.5,-156.5 362.5,-156.5"/>
<text text-anchor="start" x="370.5" y="-185.5" font-family="Helvetica,sans-Serif" font-size="10.00">ACSL&#45;flightstack&#45;winged</text>
<text text-anchor="start" x="370.5" y="-174.5" font-family="Helvetica,sans-Serif" font-size="10.00">/src/acsl_flight/include</text>
<text text-anchor="middle" x="445" y="-163.5" font-family="Helvetica,sans-Serif" font-size="10.00">/flight_bridge/flight_bridge.hpp</text>
</a>
</g>
</g>
<!-- Node1&#45;&gt;Node3 -->
<g id="edge8" class="edge">
<title>Node1&#45;&gt;Node3</title>
<path fill="none" stroke="midnightblue" d="M884.63,-592.49C1018.7,-565.82 1242,-510.01 1242,-434 1242,-434 1242,-434 1242,-337.5 1242,-192.95 731.55,-177.61 527.66,-177.25"/>
<polygon fill="midnightblue" stroke="midnightblue" points="883.87,-589.07 874.73,-594.43 885.22,-595.94 883.87,-589.07"/>
</g>
<!-- Node4 -->
<g id="node4" class="node">
<title>Node4</title>
<g id="a_node4"><a xlink:href="flight__main_8hpp.html" target="_top" xlink:title=" ">
<polygon fill="white" stroke="black" points="73.5,-78.5 73.5,-119.5 226.5,-119.5 226.5,-78.5 73.5,-78.5"/>
<text text-anchor="start" x="81.5" y="-107.5" font-family="Helvetica,sans-Serif" font-size="10.00">ACSL&#45;flightstack&#45;winged</text>
<text text-anchor="start" x="81.5" y="-96.5" font-family="Helvetica,sans-Serif" font-size="10.00">/src/acsl_flight/include</text>
<text text-anchor="middle" x="150" y="-85.5" font-family="Helvetica,sans-Serif" font-size="10.00">/flight_main/flight_main.hpp</text>
</a>
</g>
</g>
<!-- Node1&#45;&gt;Node4 -->
<g id="edge9" class="edge">
<title>Node1&#45;&gt;Node4</title>
<path fill="none" stroke="midnightblue" d="M687.28,-607.38C537.32,-602.34 259.73,-588.55 167,-554 81.35,-522.09 0,-525.4 0,-434 0,-434 0,-434 0,-254 0,-207.44 5.75,-190.51 37,-156 51.33,-140.18 71.13,-128.28 90.17,-119.62"/>
<polygon fill="midnightblue" stroke="midnightblue" points="687.31,-610.88 697.42,-607.71 687.54,-603.89 687.31,-610.88"/>
</g>
<!-- Node8 -->
<g id="node8" class="node">
<title>Node8</title>
<g id="a_node8"><a xlink:href="piecewise__polynomial__trajectory_8hpp.html" target="_top" xlink:title="Header file for piecewise polynomial trajectory.">
<polygon fill="white" stroke="black" points="686,-501.5 686,-553.5 886,-553.5 886,-501.5 686,-501.5"/>
<text text-anchor="start" x="694" y="-541.5" font-family="Helvetica,sans-Serif" font-size="10.00">ACSL&#45;flightstack&#45;winged</text>
<text text-anchor="start" x="694" y="-530.5" font-family="Helvetica,sans-Serif" font-size="10.00">/src/acsl_flight/include</text>
<text text-anchor="start" x="694" y="-519.5" font-family="Helvetica,sans-Serif" font-size="10.00">/piecewise_polynomial_trajectory</text>
<text text-anchor="middle" x="786" y="-508.5" font-family="Helvetica,sans-Serif" font-size="10.00">/piecewise_polynomial_trajectory.hpp</text>
</a>
</g>
</g>
<!-- Node1&#45;&gt;Node8 -->
<g id="edge10" class="edge">
<title>Node1&#45;&gt;Node8</title>
<path fill="none" stroke="midnightblue" d="M786,-580.12C786,-571.41 786,-561.99 786,-553.61"/>
<polygon fill="midnightblue" stroke="midnightblue" points="782.5,-580.27 786,-590.27 789.5,-580.27 782.5,-580.27"/>
</g>
<!-- Node25 -->
<g id="node25" class="node">
<title>Node25</title>
<g id="a_node25"><a xlink:href="read__pix_8hpp.html" target="_top" xlink:title="Class decleartion for reading pixhawk data.">
<polygon fill="white" stroke="black" points="1270.5,-507 1270.5,-548 1405.5,-548 1405.5,-507 1270.5,-507"/>
<text text-anchor="start" x="1278.5" y="-536" font-family="Helvetica,sans-Serif" font-size="10.00">ACSL&#45;flightstack&#45;winged</text>
<text text-anchor="start" x="1278.5" y="-525" font-family="Helvetica,sans-Serif" font-size="10.00">/src/acsl_flight/include</text>
<text text-anchor="middle" x="1338" y="-514" font-family="Helvetica,sans-Serif" font-size="10.00">/read_pix/read_pix.hpp</text>
</a>
</g>
</g>
<!-- Node1&#45;&gt;Node25 -->
<g id="edge31" class="edge">
<title>Node1&#45;&gt;Node25</title>
<path fill="none" stroke="midnightblue" d="M884.96,-603.49C980.67,-595.96 1129.41,-580.99 1256,-554 1263.73,-552.35 1271.77,-550.29 1279.67,-548.07"/>
<polygon fill="midnightblue" stroke="midnightblue" points="884.41,-600.03 874.71,-604.29 884.95,-607.01 884.41,-600.03"/>
</g>
<!-- Node27 -->
<g id="node27" class="node">
<title>Node27</title>
<g id="a_node27"><a xlink:href="control__algorithm__base_8hpp.html" target="_top" xlink:title="Utilities for Controller Base Definition.">
<polygon fill="white" stroke="black" points="484,-501.5 484,-553.5 668,-553.5 668,-501.5 484,-501.5"/>
<text text-anchor="start" x="492" y="-541.5" font-family="Helvetica,sans-Serif" font-size="10.00">ACSL&#45;flightstack&#45;winged</text>
<text text-anchor="start" x="492" y="-530.5" font-family="Helvetica,sans-Serif" font-size="10.00">/src/acsl_flight/include</text>
<text text-anchor="start" x="492" y="-519.5" font-family="Helvetica,sans-Serif" font-size="10.00">/utils/control_algorithm</text>
<text text-anchor="middle" x="576" y="-508.5" font-family="Helvetica,sans-Serif" font-size="10.00">_base/control_algorithm_base.hpp</text>
</a>
</g>
</g>
<!-- Node1&#45;&gt;Node27 -->
<g id="edge34" class="edge">
<title>Node1&#45;&gt;Node27</title>
<path fill="none" stroke="midnightblue" d="M726.09,-586.75C699.38,-576.38 667.86,-564.15 640.61,-553.58"/>
<polygon fill="midnightblue" stroke="midnightblue" points="725.11,-590.12 735.7,-590.48 727.64,-583.6 725.11,-590.12"/>
</g>
<!-- Node28 -->
<g id="node28" class="node">
<title>Node28</title>
<g id="a_node28"><a xlink:href="flight__params_8cpp.html" target="_top" xlink:title=" ">
<polygon fill="white" stroke="black" points="1423.5,-507 1423.5,-548 1572.5,-548 1572.5,-507 1423.5,-507"/>
<text text-anchor="start" x="1431.5" y="-536" font-family="Helvetica,sans-Serif" font-size="10.00">ACSL&#45;flightstack&#45;winged</text>
<text text-anchor="start" x="1431.5" y="-525" font-family="Helvetica,sans-Serif" font-size="10.00">/src/acsl_flight/src/flight</text>
<text text-anchor="middle" x="1498" y="-514" font-family="Helvetica,sans-Serif" font-size="10.00">_params/flight_params.cpp</text>
</a>
</g>
</g>
<!-- Node1&#45;&gt;Node28 -->
<g id="edge40" class="edge">
<title>Node1&#45;&gt;Node28</title>
<path fill="none" stroke="midnightblue" d="M884.87,-607.58C1009.52,-603.07 1229.91,-590.26 1415,-554 1423.14,-552.41 1431.61,-550.32 1439.89,-548.03"/>
<polygon fill="midnightblue" stroke="midnightblue" points="884.46,-604.09 874.58,-607.94 884.7,-611.09 884.46,-604.09"/>
</g>
<!-- Node2&#45;&gt;Node3 -->
<g id="edge2" class="edge">
<title>Node2&#45;&gt;Node3</title>
<path fill="none" stroke="midnightblue" d="M205.04,-232.01C259.03,-218.68 316.73,-205.21 362.31,-195.01"/>
<polygon fill="midnightblue" stroke="midnightblue" points="203.87,-228.7 195,-234.5 205.55,-235.49 203.87,-228.7"/>
</g>
<!-- Node7 -->
<g id="node7" class="node">
<title>Node7</title>
<g id="a_node7"><a xlink:href="control_8cpp.html" target="_top" xlink:title=" ">
<polygon fill="white" stroke="black" points="46,-156.5 46,-197.5 186,-197.5 186,-156.5 46,-156.5"/>
<text text-anchor="start" x="54" y="-185.5" font-family="Helvetica,sans-Serif" font-size="10.00">ACSL&#45;flightstack&#45;winged</text>
<text text-anchor="start" x="54" y="-174.5" font-family="Helvetica,sans-Serif" font-size="10.00">/src/acsl_flight/src/control</text>
<text text-anchor="middle" x="116" y="-163.5" font-family="Helvetica,sans-Serif" font-size="10.00">/control.cpp</text>
</a>
</g>
</g>
<!-- Node2&#45;&gt;Node7 -->
<g id="edge7" class="edge">
<title>Node2&#45;&gt;Node7</title>
<path fill="none" stroke="midnightblue" d="M124.58,-224.59C122.91,-215.51 121.11,-205.74 119.59,-197.51"/>
<polygon fill="midnightblue" stroke="midnightblue" points="121.14,-225.23 126.39,-234.43 128.03,-223.96 121.14,-225.23"/>
</g>
<!-- Node3&#45;&gt;Node2 -->
<g id="edge3" class="edge">
<title>Node3&#45;&gt;Node2</title>
<path fill="none" stroke="midnightblue" d="M357.3,-199.85C314.37,-209.96 262,-222.31 215,-234 209.44,-235.38 203.66,-236.85 197.84,-238.34"/>
<polygon fill="midnightblue" stroke="midnightblue" points="358.22,-203.23 367.15,-197.52 356.61,-196.41 358.22,-203.23"/>
</g>
<!-- Node3&#45;&gt;Node4 -->
<g id="edge4" class="edge">
<title>Node3&#45;&gt;Node4</title>
<path fill="none" stroke="midnightblue" d="M359.31,-153.92C317.06,-143.04 266.53,-130.02 225.71,-119.51"/>
<polygon fill="midnightblue" stroke="midnightblue" points="358.47,-157.32 369.03,-156.43 360.22,-150.54 358.47,-157.32"/>
</g>
<!-- Node6 -->
<g id="node6" class="node">
<title>Node6</title>
<g id="a_node6"><a xlink:href="flight__bridge_8cpp.html" target="_top" xlink:title=" ">
<polygon fill="white" stroke="black" points="376.5,-78.5 376.5,-119.5 513.5,-119.5 513.5,-78.5 376.5,-78.5"/>
<text text-anchor="start" x="384.5" y="-107.5" font-family="Helvetica,sans-Serif" font-size="10.00">ACSL&#45;flightstack&#45;winged</text>
<text text-anchor="start" x="384.5" y="-96.5" font-family="Helvetica,sans-Serif" font-size="10.00">/src/acsl_flight/src/flight</text>
<text text-anchor="middle" x="445" y="-85.5" font-family="Helvetica,sans-Serif" font-size="10.00">_bridge/flight_bridge.cpp</text>
</a>
</g>
</g>
<!-- Node3&#45;&gt;Node6 -->
<g id="edge6" class="edge">
<title>Node3&#45;&gt;Node6</title>
<path fill="none" stroke="midnightblue" d="M445,-146.3C445,-137.3 445,-127.65 445,-119.51"/>
<polygon fill="midnightblue" stroke="midnightblue" points="441.5,-146.43 445,-156.43 448.5,-146.43 441.5,-146.43"/>
</g>
<!-- Node5 -->
<g id="node5" class="node">
<title>Node5</title>
<g id="a_node5"><a xlink:href="flight__main_8cpp.html" target="_top" xlink:title=" ">
<polygon fill="white" stroke="black" points="82.5,-0.5 82.5,-41.5 217.5,-41.5 217.5,-0.5 82.5,-0.5"/>
<text text-anchor="start" x="90.5" y="-29.5" font-family="Helvetica,sans-Serif" font-size="10.00">ACSL&#45;flightstack&#45;winged</text>
<text text-anchor="start" x="90.5" y="-18.5" font-family="Helvetica,sans-Serif" font-size="10.00">/src/acsl_flight/src/flight</text>
<text text-anchor="middle" x="150" y="-7.5" font-family="Helvetica,sans-Serif" font-size="10.00">_main/flight_main.cpp</text>
</a>
</g>
</g>
<!-- Node4&#45;&gt;Node5 -->
<g id="edge5" class="edge">
<title>Node4&#45;&gt;Node5</title>
<path fill="none" stroke="midnightblue" d="M150,-68.3C150,-59.3 150,-49.65 150,-41.51"/>
<polygon fill="midnightblue" stroke="midnightblue" points="146.5,-68.43 150,-78.43 153.5,-68.43 146.5,-68.43"/>
</g>
<!-- Node9 -->
<g id="node9" class="node">
<title>Node9</title>
<g id="a_node9"><a xlink:href="MRAC__OMEGA_8hpp.html" target="_top" xlink:title="MRAC with angular velocities for the QRBP.">
<polygon fill="white" stroke="black" points="699,-401.5 699,-464.5 853,-464.5 853,-401.5 699,-401.5"/>
<text text-anchor="start" x="707" y="-452.5" font-family="Helvetica,sans-Serif" font-size="10.00">ACSL&#45;flightstack&#45;winged</text>
<text text-anchor="start" x="707" y="-441.5" font-family="Helvetica,sans-Serif" font-size="10.00">/src/acsl_flight/include</text>
<text text-anchor="start" x="707" y="-430.5" font-family="Helvetica,sans-Serif" font-size="10.00">/control/platforms/qrbp</text>
<text text-anchor="start" x="707" y="-419.5" font-family="Helvetica,sans-Serif" font-size="10.00">/control_algorithms/MRAC</text>
<text text-anchor="middle" x="776" y="-408.5" font-family="Helvetica,sans-Serif" font-size="10.00">_OMEGA/MRAC_OMEGA.hpp</text>
</a>
</g>
</g>
<!-- Node8&#45;&gt;Node9 -->
<g id="edge11" class="edge">
<title>Node8&#45;&gt;Node9</title>
<path fill="none" stroke="midnightblue" d="M782.19,-491.23C781.24,-482.43 780.22,-473.06 779.3,-464.51"/>
<polygon fill="midnightblue" stroke="midnightblue" points="778.71,-491.66 783.27,-501.22 785.67,-490.91 778.71,-491.66"/>
</g>
<!-- Node11 -->
<g id="node11" class="node">
<title>Node11</title>
<g id="a_node11"><a xlink:href="MRAC__PID_8hpp.html" target="_top" xlink:title="MRAC_PID for the QRBP.">
<polygon fill="white" stroke="black" points="871.5,-401.5 871.5,-464.5 1014.5,-464.5 1014.5,-401.5 871.5,-401.5"/>
<text text-anchor="start" x="879.5" y="-452.5" font-family="Helvetica,sans-Serif" font-size="10.00">ACSL&#45;flightstack&#45;winged</text>
<text text-anchor="start" x="879.5" y="-441.5" font-family="Helvetica,sans-Serif" font-size="10.00">/src/acsl_flight/include</text>
<text text-anchor="start" x="879.5" y="-430.5" font-family="Helvetica,sans-Serif" font-size="10.00">/control/platforms/qrbp</text>
<text text-anchor="start" x="879.5" y="-419.5" font-family="Helvetica,sans-Serif" font-size="10.00">/control_algorithms/MRAC</text>
<text text-anchor="middle" x="943" y="-408.5" font-family="Helvetica,sans-Serif" font-size="10.00">_PID/MRAC_PID.hpp</text>
</a>
</g>
</g>
<!-- Node8&#45;&gt;Node11 -->
<g id="edge13" class="edge">
<title>Node8&#45;&gt;Node11</title>
<path fill="none" stroke="midnightblue" d="M837.28,-496.29C854.49,-486.15 873.69,-474.84 890.96,-464.66"/>
<polygon fill="midnightblue" stroke="midnightblue" points="835.33,-493.38 828.49,-501.47 838.88,-499.41 835.33,-493.38"/>
</g>
<!-- Node13 -->
<g id="node13" class="node">
<title>Node13</title>
<g id="a_node13"><a xlink:href="PID_8hpp.html" target="_top" xlink:title="PID for the QRBP.">
<polygon fill="white" stroke="black" points="301.5,-407 301.5,-459 472.5,-459 472.5,-407 301.5,-407"/>
<text text-anchor="start" x="309.5" y="-447" font-family="Helvetica,sans-Serif" font-size="10.00">ACSL&#45;flightstack&#45;winged</text>
<text text-anchor="start" x="309.5" y="-436" font-family="Helvetica,sans-Serif" font-size="10.00">/src/acsl_flight/include</text>
<text text-anchor="start" x="309.5" y="-425" font-family="Helvetica,sans-Serif" font-size="10.00">/control/platforms/qrbp</text>
<text text-anchor="middle" x="387" y="-414" font-family="Helvetica,sans-Serif" font-size="10.00">/control_algorithms/PID/PID.hpp</text>
</a>
</g>
</g>
<!-- Node8&#45;&gt;Node13 -->
<g id="edge15" class="edge">
<title>Node8&#45;&gt;Node13</title>
<path fill="none" stroke="midnightblue" d="M675.91,-500.83C588.97,-483.2 564.33,-485.93 482,-465 474.94,-463.2 467.64,-461.16 460.36,-459.01"/>
<polygon fill="midnightblue" stroke="midnightblue" points="675.46,-504.31 685.96,-502.9 676.87,-497.45 675.46,-504.31"/>
</g>
<!-- Node15 -->
<g id="node15" class="node">
<title>Node15</title>
<g id="a_node15"><a xlink:href="PID__OMEGA_8hpp.html" target="_top" xlink:title="PID with angular veocities for the QRBP.">
<polygon fill="white" stroke="black" points="110.5,-401.5 110.5,-464.5 283.5,-464.5 283.5,-401.5 110.5,-401.5"/>
<text text-anchor="start" x="118.5" y="-452.5" font-family="Helvetica,sans-Serif" font-size="10.00">ACSL&#45;flightstack&#45;winged</text>
<text text-anchor="start" x="118.5" y="-441.5" font-family="Helvetica,sans-Serif" font-size="10.00">/src/acsl_flight/include</text>
<text text-anchor="start" x="118.5" y="-430.5" font-family="Helvetica,sans-Serif" font-size="10.00">/control/platforms/qrbp</text>
<text text-anchor="start" x="118.5" y="-419.5" font-family="Helvetica,sans-Serif" font-size="10.00">/control_algorithms/PID_OMEGA</text>
<text text-anchor="middle" x="197" y="-408.5" font-family="Helvetica,sans-Serif" font-size="10.00">/PID_OMEGA.hpp</text>
</a>
</g>
</g>
<!-- Node8&#45;&gt;Node15 -->
<g id="edge17" class="edge">
<title>Node8&#45;&gt;Node15</title>
<path fill="none" stroke="midnightblue" d="M675.68,-500.89C505.54,-474.35 457.08,-499.21 292,-465 289.2,-464.42 286.36,-463.78 283.51,-463.11"/>
<polygon fill="midnightblue" stroke="midnightblue" points="675.3,-504.38 685.73,-502.5 676.41,-497.47 675.3,-504.38"/>
</g>
<!-- Node22 -->
<g id="node22" class="node">
<title>Node22</title>
<g id="a_node22"><a xlink:href="PID__TD_8hpp.html" target="_top" xlink:title="PID for the ros test drone.">
<polygon fill="white" stroke="black" points="491,-407 491,-459 681,-459 681,-407 491,-407"/>
<text text-anchor="start" x="499" y="-447" font-family="Helvetica,sans-Serif" font-size="10.00">ACSL&#45;flightstack&#45;winged</text>
<text text-anchor="start" x="499" y="-436" font-family="Helvetica,sans-Serif" font-size="10.00">/src/acsl_flight/include</text>
<text text-anchor="start" x="499" y="-425" font-family="Helvetica,sans-Serif" font-size="10.00">/control/platforms/rostestdrone</text>
<text text-anchor="middle" x="586" y="-414" font-family="Helvetica,sans-Serif" font-size="10.00">/control_algorithms/PID/PID_TD.hpp</text>
</a>
</g>
</g>
<!-- Node8&#45;&gt;Node22 -->
<g id="edge28" class="edge">
<title>Node8&#45;&gt;Node22</title>
<path fill="none" stroke="midnightblue" d="M722.68,-497.21C696.15,-484.94 665.63,-470.83 640.17,-459.05"/>
<polygon fill="midnightblue" stroke="midnightblue" points="721.33,-500.45 731.88,-501.47 724.27,-494.09 721.33,-500.45"/>
</g>
<!-- Node24 -->
<g id="node24" class="node">
<title>Node24</title>
<g id="a_node24"><a xlink:href="piecewise__polynomial__trajectory_8cpp.html" target="_top" xlink:title=" ">
<polygon fill="white" stroke="black" points="1032.5,-407 1032.5,-459 1213.5,-459 1213.5,-407 1032.5,-407"/>
<text text-anchor="start" x="1040.5" y="-447" font-family="Helvetica,sans-Serif" font-size="10.00">ACSL&#45;flightstack&#45;winged</text>
<text text-anchor="start" x="1040.5" y="-436" font-family="Helvetica,sans-Serif" font-size="10.00">/src/acsl_flight/src/piecewise</text>
<text text-anchor="start" x="1040.5" y="-425" font-family="Helvetica,sans-Serif" font-size="10.00">_polynomial_trajectory/piecewise</text>
<text text-anchor="middle" x="1123" y="-414" font-family="Helvetica,sans-Serif" font-size="10.00">_polynomial_trajectory.cpp</text>
</a>
</g>
</g>
<!-- Node8&#45;&gt;Node24 -->
<g id="edge30" class="edge">
<title>Node8&#45;&gt;Node24</title>
<path fill="none" stroke="midnightblue" d="M895.83,-499.14C935.96,-488.84 981.64,-476.77 1023,-465 1029.64,-463.11 1036.52,-461.1 1043.41,-459.04"/>
<polygon fill="midnightblue" stroke="midnightblue" points="894.85,-495.78 886.03,-501.65 896.58,-502.56 894.85,-495.78"/>
</g>
<!-- Node10 -->
<g id="node10" class="node">
<title>Node10</title>
<g id="a_node10"><a xlink:href="MRAC__OMEGA_8cpp.html" target="_top" xlink:title=" ">
<polygon fill="white" stroke="black" points="824,-312.5 824,-364.5 1010,-364.5 1010,-312.5 824,-312.5"/>
<text text-anchor="start" x="832" y="-352.5" font-family="Helvetica,sans-Serif" font-size="10.00">ACSL&#45;flightstack&#45;winged</text>
<text text-anchor="start" x="832" y="-341.5" font-family="Helvetica,sans-Serif" font-size="10.00">/src/acsl_flight/src/control</text>
<text text-anchor="start" x="832" y="-330.5" font-family="Helvetica,sans-Serif" font-size="10.00">/platforms/qrbp/control_algorithms</text>
<text text-anchor="middle" x="917" y="-319.5" font-family="Helvetica,sans-Serif" font-size="10.00">/MRAC_OMEGA/MRAC_OMEGA.cpp</text>
</a>
</g>
</g>
<!-- Node9&#45;&gt;Node10 -->
<g id="edge12" class="edge">
<title>Node9&#45;&gt;Node10</title>
<path fill="none" stroke="midnightblue" d="M831.21,-395.78C847.02,-385.41 863.91,-374.33 878.49,-364.77"/>
<polygon fill="midnightblue" stroke="midnightblue" points="829,-393.04 822.56,-401.46 832.84,-398.9 829,-393.04"/>
</g>
<!-- Node12 -->
<g id="node12" class="node">
<title>Node12</title>
<g id="a_node12"><a xlink:href="MRAC__PID_8cpp.html" target="_top" xlink:title=" ">
<polygon fill="white" stroke="black" points="1028,-312.5 1028,-364.5 1214,-364.5 1214,-312.5 1028,-312.5"/>
<text text-anchor="start" x="1036" y="-352.5" font-family="Helvetica,sans-Serif" font-size="10.00">ACSL&#45;flightstack&#45;winged</text>
<text text-anchor="start" x="1036" y="-341.5" font-family="Helvetica,sans-Serif" font-size="10.00">/src/acsl_flight/src/control</text>
<text text-anchor="start" x="1036" y="-330.5" font-family="Helvetica,sans-Serif" font-size="10.00">/platforms/qrbp/control_algorithms</text>
<text text-anchor="middle" x="1121" y="-319.5" font-family="Helvetica,sans-Serif" font-size="10.00">/MRAC_PID/MRAC_PID.cpp</text>
</a>
</g>
</g>
<!-- Node11&#45;&gt;Node12 -->
<g id="edge14" class="edge">
<title>Node11&#45;&gt;Node12</title>
<path fill="none" stroke="midnightblue" d="M1010.8,-396.77C1031.41,-386.06 1053.62,-374.51 1072.67,-364.62"/>
<polygon fill="midnightblue" stroke="midnightblue" points="1009.04,-393.74 1001.78,-401.46 1012.26,-399.95 1009.04,-393.74"/>
</g>
<!-- Node14 -->
<g id="node14" class="node">
<title>Node14</title>
<g id="a_node14"><a xlink:href="PID_8cpp.html" target="_top" xlink:title=" ">
<polygon fill="white" stroke="black" points="434,-312.5 434,-364.5 620,-364.5 620,-312.5 434,-312.5"/>
<text text-anchor="start" x="442" y="-352.5" font-family="Helvetica,sans-Serif" font-size="10.00">ACSL&#45;flightstack&#45;winged</text>
<text text-anchor="start" x="442" y="-341.5" font-family="Helvetica,sans-Serif" font-size="10.00">/src/acsl_flight/src/control</text>
<text text-anchor="start" x="442" y="-330.5" font-family="Helvetica,sans-Serif" font-size="10.00">/platforms/qrbp/control_algorithms</text>
<text text-anchor="middle" x="527" y="-319.5" font-family="Helvetica,sans-Serif" font-size="10.00">/PID/PID.cpp</text>
</a>
</g>
</g>
<!-- Node13&#45;&gt;Node14 -->
<g id="edge16" class="edge">
<title>Node13&#45;&gt;Node14</title>
<path fill="none" stroke="midnightblue" d="M433.53,-401.26C451.57,-389.34 471.96,-375.87 489.08,-364.55"/>
<polygon fill="midnightblue" stroke="midnightblue" points="431.3,-398.54 424.89,-406.97 435.16,-404.38 431.3,-398.54"/>
</g>
<!-- Node16 -->
<g id="node16" class="node">
<title>Node16</title>
<g id="a_node16"><a xlink:href="control__config_8hpp.html" target="_top" xlink:title="Just a header file for configuring which platform and controller to pick during compilation.">
<polygon fill="white" stroke="black" points="66,-318 66,-359 212,-359 212,-318 66,-318"/>
<text text-anchor="start" x="74" y="-347" font-family="Helvetica,sans-Serif" font-size="10.00">ACSL&#45;flightstack&#45;winged</text>
<text text-anchor="start" x="74" y="-336" font-family="Helvetica,sans-Serif" font-size="10.00">/src/acsl_flight/include</text>
<text text-anchor="middle" x="139" y="-325" font-family="Helvetica,sans-Serif" font-size="10.00">/control/control_config.hpp</text>
</a>
</g>
</g>
<!-- Node15&#45;&gt;Node16 -->
<g id="edge18" class="edge">
<title>Node15&#45;&gt;Node16</title>
<path fill="none" stroke="midnightblue" d="M172.4,-392.77C165.15,-381.2 157.52,-369.03 151.38,-359.25"/>
<polygon fill="midnightblue" stroke="midnightblue" points="169.57,-394.84 177.85,-401.46 175.5,-391.12 169.57,-394.84"/>
</g>
<!-- Node21 -->
<g id="node21" class="node">
<title>Node21</title>
<g id="a_node21"><a xlink:href="PID__OMEGA_8cpp.html" target="_top" xlink:title=" ">
<polygon fill="white" stroke="black" points="230,-312.5 230,-364.5 416,-364.5 416,-312.5 230,-312.5"/>
<text text-anchor="start" x="238" y="-352.5" font-family="Helvetica,sans-Serif" font-size="10.00">ACSL&#45;flightstack&#45;winged</text>
<text text-anchor="start" x="238" y="-341.5" font-family="Helvetica,sans-Serif" font-size="10.00">/src/acsl_flight/src/control</text>
<text text-anchor="start" x="238" y="-330.5" font-family="Helvetica,sans-Serif" font-size="10.00">/platforms/qrbp/control_algorithms</text>
<text text-anchor="middle" x="323" y="-319.5" font-family="Helvetica,sans-Serif" font-size="10.00">/PID_OMEGA/PID_OMEGA.cpp</text>
</a>
</g>
</g>
<!-- Node15&#45;&gt;Node21 -->
<g id="edge27" class="edge">
<title>Node15&#45;&gt;Node21</title>
<path fill="none" stroke="midnightblue" d="M246.73,-395.49C260.75,-385.2 275.68,-374.24 288.58,-364.77"/>
<polygon fill="midnightblue" stroke="midnightblue" points="244.6,-392.72 238.61,-401.46 248.74,-398.36 244.6,-392.72"/>
</g>
<!-- Node16&#45;&gt;Node2 -->
<g id="edge19" class="edge">
<title>Node16&#45;&gt;Node2</title>
<path fill="none" stroke="midnightblue" d="M135.69,-307.56C134.51,-296.88 133.22,-285.13 132.16,-275.55"/>
<polygon fill="midnightblue" stroke="midnightblue" points="132.24,-308.22 136.82,-317.77 139.2,-307.45 132.24,-308.22"/>
</g>
<!-- Node16&#45;&gt;Node3 -->
<g id="edge20" class="edge">
<title>Node16&#45;&gt;Node3</title>
<path fill="none" stroke="midnightblue" d="M210.3,-315.11C213.92,-314.04 217.5,-313 221,-312 281.95,-294.58 305.06,-309.29 359,-276 391.36,-256.03 418.29,-220.07 432.97,-197.7"/>
<polygon fill="midnightblue" stroke="midnightblue" points="209.28,-311.76 200.7,-317.98 211.28,-318.47 209.28,-311.76"/>
</g>
<!-- Node17 -->
<g id="node17" class="node">
<title>Node17</title>
<g id="a_node17"><a xlink:href="mocap_8hpp.html" target="_top" xlink:title="Class declaration for UDP socket as a lifecycle node.">
<polygon fill="white" stroke="black" points="215.5,-234.5 215.5,-275.5 350.5,-275.5 350.5,-234.5 215.5,-234.5"/>
<text text-anchor="start" x="223.5" y="-263.5" font-family="Helvetica,sans-Serif" font-size="10.00">ACSL&#45;flightstack&#45;winged</text>
<text text-anchor="start" x="223.5" y="-252.5" font-family="Helvetica,sans-Serif" font-size="10.00">/src/acsl_flight/include</text>
<text text-anchor="middle" x="283" y="-241.5" font-family="Helvetica,sans-Serif" font-size="10.00">/mocap/mocap.hpp</text>
</a>
</g>
</g>
<!-- Node16&#45;&gt;Node17 -->
<g id="edge21" class="edge">
<title>Node16&#45;&gt;Node17</title>
<path fill="none" stroke="midnightblue" d="M182.27,-313.01C203.39,-301.06 228.45,-286.87 248.29,-275.64"/>
<polygon fill="midnightblue" stroke="midnightblue" points="180.47,-310.01 173.49,-317.98 183.92,-316.1 180.47,-310.01"/>
</g>
<!-- Node19 -->
<g id="node19" class="node">
<title>Node19</title>
<g id="a_node19"><a xlink:href="vio_8hpp.html" target="_top" xlink:title=" ">
<polygon fill="white" stroke="black" points="1270.5,-234.5 1270.5,-275.5 1405.5,-275.5 1405.5,-234.5 1270.5,-234.5"/>
<text text-anchor="start" x="1278.5" y="-263.5" font-family="Helvetica,sans-Serif" font-size="10.00">ACSL&#45;flightstack&#45;winged</text>
<text text-anchor="start" x="1278.5" y="-252.5" font-family="Helvetica,sans-Serif" font-size="10.00">/src/acsl_flight/include</text>
<text text-anchor="middle" x="1338" y="-241.5" font-family="Helvetica,sans-Serif" font-size="10.00">/vio/vio.hpp</text>
</a>
</g>
</g>
<!-- Node16&#45;&gt;Node19 -->
<g id="edge24" class="edge">
<title>Node16&#45;&gt;Node19</title>
<path fill="none" stroke="midnightblue" d="M205.45,-315.31C210.68,-314.03 215.9,-312.91 221,-312 424.24,-275.9 1060.42,-261.14 1270.17,-257.17"/>
<polygon fill="midnightblue" stroke="midnightblue" points="204.24,-312.01 195.45,-317.92 206.01,-318.78 204.24,-312.01"/>
</g>
<!-- Node17&#45;&gt;Node3 -->
<g id="edge22" class="edge">
<title>Node17&#45;&gt;Node3</title>
<path fill="none" stroke="midnightblue" d="M334.05,-230.05C356.4,-219.57 382.28,-207.42 403.42,-197.51"/>
<polygon fill="midnightblue" stroke="midnightblue" points="332.29,-227.01 324.72,-234.43 335.26,-233.35 332.29,-227.01"/>
</g>
<!-- Node18 -->
<g id="node18" class="node">
<title>Node18</title>
<g id="a_node18"><a xlink:href="mocap_8cpp.html" target="_top" xlink:title=" ">
<polygon fill="white" stroke="black" points="204,-156.5 204,-197.5 344,-197.5 344,-156.5 204,-156.5"/>
<text text-anchor="start" x="212" y="-185.5" font-family="Helvetica,sans-Serif" font-size="10.00">ACSL&#45;flightstack&#45;winged</text>
<text text-anchor="start" x="212" y="-174.5" font-family="Helvetica,sans-Serif" font-size="10.00">/src/acsl_flight/src/mocap</text>
<text text-anchor="middle" x="274" y="-163.5" font-family="Helvetica,sans-Serif" font-size="10.00">/mocap.cpp</text>
</a>
</g>
</g>
<!-- Node17&#45;&gt;Node18 -->
<g id="edge23" class="edge">
<title>Node17&#45;&gt;Node18</title>
<path fill="none" stroke="midnightblue" d="M279.48,-224.3C278.42,-215.3 277.27,-205.65 276.31,-197.51"/>
<polygon fill="midnightblue" stroke="midnightblue" points="276.03,-224.91 280.68,-234.43 282.98,-224.09 276.03,-224.91"/>
</g>
<!-- Node19&#45;&gt;Node3 -->
<g id="edge25" class="edge">
<title>Node19&#45;&gt;Node3</title>
<path fill="none" stroke="midnightblue" d="M1259.94,-234.64C1258.62,-234.42 1257.3,-234.2 1256,-234 991.89,-192.98 674.73,-182 527.54,-179.07"/>
<polygon fill="midnightblue" stroke="midnightblue" points="1259.7,-238.15 1270.17,-236.51 1260.96,-231.27 1259.7,-238.15"/>
</g>
<!-- Node20 -->
<g id="node20" class="node">
<title>Node20</title>
<g id="a_node20"><a xlink:href="vio_8cpp.html" target="_top" xlink:title=" ">
<polygon fill="white" stroke="black" points="1270.5,-156.5 1270.5,-197.5 1405.5,-197.5 1405.5,-156.5 1270.5,-156.5"/>
<text text-anchor="start" x="1278.5" y="-185.5" font-family="Helvetica,sans-Serif" font-size="10.00">ACSL&#45;flightstack&#45;winged</text>
<text text-anchor="start" x="1278.5" y="-174.5" font-family="Helvetica,sans-Serif" font-size="10.00">/src/acsl_flight/src/vio</text>
<text text-anchor="middle" x="1338" y="-163.5" font-family="Helvetica,sans-Serif" font-size="10.00">/vio.cpp</text>
</a>
</g>
</g>
<!-- Node19&#45;&gt;Node20 -->
<g id="edge26" class="edge">
<title>Node19&#45;&gt;Node20</title>
<path fill="none" stroke="midnightblue" d="M1338,-224.3C1338,-215.3 1338,-205.65 1338,-197.51"/>
<polygon fill="midnightblue" stroke="midnightblue" points="1334.5,-224.43 1338,-234.43 1341.5,-224.43 1334.5,-224.43"/>
</g>
<!-- Node23 -->
<g id="node23" class="node">
<title>Node23</title>
<g id="a_node23"><a xlink:href="PID__TD_8cpp.html" target="_top" xlink:title=" ">
<polygon fill="white" stroke="black" points="638,-312.5 638,-364.5 806,-364.5 806,-312.5 638,-312.5"/>
<text text-anchor="start" x="646" y="-352.5" font-family="Helvetica,sans-Serif" font-size="10.00">ACSL&#45;flightstack&#45;winged</text>
<text text-anchor="start" x="646" y="-341.5" font-family="Helvetica,sans-Serif" font-size="10.00">/src/acsl_flight/src/control</text>
<text text-anchor="start" x="646" y="-330.5" font-family="Helvetica,sans-Serif" font-size="10.00">/platforms/rostestdrone/control</text>
<text text-anchor="middle" x="722" y="-319.5" font-family="Helvetica,sans-Serif" font-size="10.00">_algorithms/PID/PID_TD.cpp</text>
</a>
</g>
</g>
<!-- Node22&#45;&gt;Node23 -->
<g id="edge29" class="edge">
<title>Node22&#45;&gt;Node23</title>
<path fill="none" stroke="midnightblue" d="M631.2,-401.26C648.72,-389.34 668.53,-375.87 685.17,-364.55"/>
<polygon fill="midnightblue" stroke="midnightblue" points="629.1,-398.45 622.8,-406.97 633.04,-404.24 629.1,-398.45"/>
</g>
<!-- Node25&#45;&gt;Node3 -->
<g id="edge32" class="edge">
<title>Node25&#45;&gt;Node3</title>
<path fill="none" stroke="midnightblue" d="M1383.3,-501.05C1395.92,-491.51 1408.06,-479.42 1415,-465 1459.51,-372.48 1485.47,-308.66 1415,-234 1384.73,-201.93 756.62,-184.89 527.61,-179.72"/>
<polygon fill="midnightblue" stroke="midnightblue" points="1381.12,-498.31 1374.99,-506.95 1385.17,-504.01 1381.12,-498.31"/>
</g>
<!-- Node26 -->
<g id="node26" class="node">
<title>Node26</title>
<g id="a_node26"><a xlink:href="read__pix_8cpp.html" target="_top" xlink:title=" ">
<polygon fill="white" stroke="black" points="1270.5,-412.5 1270.5,-453.5 1405.5,-453.5 1405.5,-412.5 1270.5,-412.5"/>
<text text-anchor="start" x="1278.5" y="-441.5" font-family="Helvetica,sans-Serif" font-size="10.00">ACSL&#45;flightstack&#45;winged</text>
<text text-anchor="start" x="1278.5" y="-430.5" font-family="Helvetica,sans-Serif" font-size="10.00">/src/acsl_flight/src/read</text>
<text text-anchor="middle" x="1338" y="-419.5" font-family="Helvetica,sans-Serif" font-size="10.00">_pix/read_pix.cpp</text>
</a>
</g>
</g>
<!-- Node25&#45;&gt;Node26 -->
<g id="edge33" class="edge">
<title>Node25&#45;&gt;Node26</title>
<path fill="none" stroke="midnightblue" d="M1338,-496.65C1338,-482.54 1338,-466.09 1338,-453.59"/>
<polygon fill="midnightblue" stroke="midnightblue" points="1334.5,-496.88 1338,-506.88 1341.5,-496.88 1334.5,-496.88"/>
</g>
<!-- Node27&#45;&gt;Node9 -->
<g id="edge35" class="edge">
<title>Node27&#45;&gt;Node9</title>
<path fill="none" stroke="midnightblue" d="M639.22,-497.26C661.68,-486.87 687,-475.16 709.7,-464.66"/>
<polygon fill="midnightblue" stroke="midnightblue" points="637.73,-494.09 630.12,-501.47 640.67,-500.45 637.73,-494.09"/>
</g>
<!-- Node27&#45;&gt;Node11 -->
<g id="edge36" class="edge">
<title>Node27&#45;&gt;Node11</title>
<path fill="none" stroke="midnightblue" d="M677.96,-500.86C760.52,-483.1 784.46,-487.2 862,-465 865.04,-464.13 868.13,-463.19 871.23,-462.21"/>
<polygon fill="midnightblue" stroke="midnightblue" points="677.17,-497.45 668.15,-503.01 678.67,-504.29 677.17,-497.45"/>
</g>
<!-- Node27&#45;&gt;Node13 -->
<g id="edge37" class="edge">
<title>Node27&#45;&gt;Node13</title>
<path fill="none" stroke="midnightblue" d="M515.83,-497.05C490.84,-484.82 462.14,-470.78 438.19,-459.05"/>
<polygon fill="midnightblue" stroke="midnightblue" points="514.33,-500.22 524.85,-501.47 517.41,-493.93 514.33,-500.22"/>
</g>
<!-- Node27&#45;&gt;Node15 -->
<g id="edge38" class="edge">
<title>Node27&#45;&gt;Node15</title>
<path fill="none" stroke="midnightblue" d="M473.99,-507.04C419.64,-496.01 351.82,-481.19 292,-465 289.24,-464.25 286.44,-463.47 283.61,-462.67"/>
<polygon fill="midnightblue" stroke="midnightblue" points="473.48,-510.51 483.98,-509.05 474.87,-503.64 473.48,-510.51"/>
</g>
<!-- Node27&#45;&gt;Node22 -->
<g id="edge39" class="edge">
<title>Node27&#45;&gt;Node22</title>
<path fill="none" stroke="midnightblue" d="M579.84,-490.99C580.98,-480.41 582.21,-469.03 583.27,-459.25"/>
<polygon fill="midnightblue" stroke="midnightblue" points="576.33,-490.91 578.73,-501.22 583.29,-491.66 576.33,-490.91"/>
</g>
</g>
</svg>
