<?xml version="1.0" encoding="UTF-8" standalone="no"?>
<!DOCTYPE svg PUBLIC "-//W3C//DTD SVG 1.1//EN"
 "http://www.w3.org/Graphics/SVG/1.1/DTD/svg11.dtd">
<!-- Generated by graphviz version 2.43.0 (0)
 -->
<!-- Title: ACSL&#45;flightstack&#45;winged/src/acsl_flight/include/utils/flightstack_helpers/helper_functions.hpp Pages: 1 -->
<!--zoomable 184 -->
<svg id="main" version="1.1" xmlns="http://www.w3.org/2000/svg" xmlns:xlink="http://www.w3.org/1999/xlink" xml:space="preserve" onload="init(evt)">
<style type="text/css"><![CDATA[
.edge:hover path { stroke: red; }
.edge:hover polygon { stroke: red; fill: red; }
]]></style>
<script type="text/javascript"><![CDATA[
var edges = document.getElementsByTagName('g');
if (edges && edges.length) {
  for (var i=0;i<edges.length;i++) {
    if (edges[i].id.substr(0,4)=='edge') {
      edges[i].setAttribute('class','edge');
    }
  }
}
]]></script>
        <defs>
                <circle id="rim" cx="0" cy="0" r="7"/>
                <circle id="rim2" cx="0" cy="0" r="3.5"/>
                <g id="zoomPlus">
                        <use xlink:href="#rim" fill="#404040">
                                <set attributeName="fill" to="#808080" begin="zoomplus.mouseover" end="zoomplus.mouseout"/>
                        </use>
                        <path d="M-4,0h8M0,-4v8" fill="none" stroke="white" stroke-width="1.5" pointer-events="none"/>
                </g>
                <g id="zoomMin">
                        <use xlink:href="#rim" fill="#404040">
                                <set attributeName="fill" to="#808080" begin="zoomminus.mouseover" end="zoomminus.mouseout"/>
                        </use>
                        <path d="M-4,0h8" fill="none" stroke="white" stroke-width="1.5" pointer-events="none"/>
                </g>
                <g id="dirArrow">
                        <path fill="none" stroke="white" stroke-width="1.5" d="M0,-3.0v7 M-2.5,-0.5L0,-3.0L2.5,-0.5"/>
                </g>
               <g id="resetDef">
                       <use xlink:href="#rim2" fill="#404040">
                               <set attributeName="fill" to="#808080" begin="reset.mouseover" end="reset.mouseout"/>
                       </use>
               </g>
        </defs>

<script type="text/javascript">
var viewWidth = 2601;
var viewHeight = 184;
var sectionId = 'dynsection-0';
</script>
<script xlink:href="svgpan.js"/>
<svg id="graph" class="graph">
<g id="viewport">
<title>ACSL&#45;flightstack&#45;winged/src/acsl_flight/include/utils/flightstack_helpers/helper_functions.hpp</title>
<polygon fill="white" stroke="transparent" points="-4,4 -4,-180 2596.5,-180 2596.5,4 -4,4"/>
<!-- Node1 -->
<g id="node1" class="node">
<title>Node1</title>
<g id="a_node1"><a xlink:title="Definitions of some standard templates used in all controllers.">
<polygon fill="#bfbfbf" stroke="black" points="1510,-123.5 1510,-175.5 1646,-175.5 1646,-123.5 1510,-123.5"/>
<text text-anchor="start" x="1518" y="-163.5" font-family="Helvetica,sans-Serif" font-size="10.00">ACSL&#45;flightstack&#45;winged</text>
<text text-anchor="start" x="1518" y="-152.5" font-family="Helvetica,sans-Serif" font-size="10.00">/src/acsl_flight/include</text>
<text text-anchor="start" x="1518" y="-141.5" font-family="Helvetica,sans-Serif" font-size="10.00">/utils/flightstack_helpers</text>
<text text-anchor="middle" x="1578" y="-130.5" font-family="Helvetica,sans-Serif" font-size="10.00">/helper_functions.hpp</text>
</a>
</g>
</g>
<!-- Node2 -->
<g id="node2" class="node">
<title>Node2</title>
<g id="a_node2"><a xlink:title=" ">
<polygon fill="white" stroke="#bfbfbf" points="0,-62 0,-81 42,-81 42,-62 0,-62"/>
<text text-anchor="middle" x="21" y="-69" font-family="Helvetica,sans-Serif" font-size="10.00">array</text>
</a>
</g>
</g>
<!-- Node1&#45;&gt;Node2 -->
<g id="edge1" class="edge">
<title>Node1&#45;&gt;Node2</title>
<path fill="none" stroke="midnightblue" d="M1509.97,-148.91C1252.63,-150 338.97,-149.26 56,-87 53.32,-86.41 50.59,-85.63 47.89,-84.73"/>
<polygon fill="midnightblue" stroke="midnightblue" points="49,-81.41 38.41,-81.13 46.51,-87.95 49,-81.41"/>
</g>
<!-- Node3 -->
<g id="node3" class="node">
<title>Node3</title>
<g id="a_node3"><a xlink:title=" ">
<polygon fill="white" stroke="#bfbfbf" points="1.5,-0.5 1.5,-19.5 78.5,-19.5 78.5,-0.5 1.5,-0.5"/>
<text text-anchor="middle" x="40" y="-7.5" font-family="Helvetica,sans-Serif" font-size="10.00">Eigen/Dense</text>
</a>
</g>
</g>
<!-- Node1&#45;&gt;Node3 -->
<g id="edge2" class="edge">
<title>Node1&#45;&gt;Node3</title>
<path fill="none" stroke="midnightblue" d="M1509.95,-148.66C1238.15,-148.91 238.91,-145.76 111,-87 83.89,-74.55 62.2,-46.52 50.23,-28.2"/>
<polygon fill="midnightblue" stroke="midnightblue" points="53.15,-26.26 44.88,-19.64 47.21,-29.97 53.15,-26.26"/>
</g>
<!-- Node4 -->
<g id="node4" class="node">
<title>Node4</title>
<g id="a_node4"><a xlink:title=" ">
<polygon fill="white" stroke="#bfbfbf" points="274,-62 274,-81 384,-81 384,-62 274,-62"/>
<text text-anchor="middle" x="329" y="-69" font-family="Helvetica,sans-Serif" font-size="10.00">nlohmann/json.hpp</text>
</a>
</g>
</g>
<!-- Node1&#45;&gt;Node4 -->
<g id="edge3" class="edge">
<title>Node1&#45;&gt;Node4</title>
<path fill="none" stroke="midnightblue" d="M1509.82,-149.02C1327.63,-149.54 814.65,-145.27 393,-87 386.1,-86.05 378.85,-84.72 371.8,-83.26"/>
<polygon fill="midnightblue" stroke="midnightblue" points="372.21,-79.76 361.69,-81.04 370.71,-86.6 372.21,-79.76"/>
</g>
<!-- Node5 -->
<g id="node5" class="node">
<title>Node5</title>
<g id="a_node5"><a xlink:title=" ">
<polygon fill="white" stroke="#bfbfbf" points="402,-62 402,-81 494,-81 494,-62 402,-62"/>
<text text-anchor="middle" x="448" y="-69" font-family="Helvetica,sans-Serif" font-size="10.00">boost/array.hpp</text>
</a>
</g>
</g>
<!-- Node1&#45;&gt;Node5 -->
<g id="edge4" class="edge">
<title>Node1&#45;&gt;Node5</title>
<path fill="none" stroke="midnightblue" d="M1509.97,-149.21C1339.48,-150 880.64,-145.96 504,-87 498.22,-86.09 492.16,-84.85 486.26,-83.47"/>
<polygon fill="midnightblue" stroke="midnightblue" points="487.1,-80.07 476.55,-81.04 485.41,-86.86 487.1,-80.07"/>
</g>
<!-- Node6 -->
<g id="node6" class="node">
<title>Node6</title>
<g id="a_node6"><a xlink:title=" ">
<polygon fill="white" stroke="#bfbfbf" points="512.5,-62 512.5,-81 625.5,-81 625.5,-62 512.5,-62"/>
<text text-anchor="middle" x="569" y="-69" font-family="Helvetica,sans-Serif" font-size="10.00">boost/bind/bind.hpp</text>
</a>
</g>
</g>
<!-- Node1&#45;&gt;Node6 -->
<g id="edge5" class="edge">
<title>Node1&#45;&gt;Node6</title>
<path fill="none" stroke="midnightblue" d="M1509.89,-147.58C1354.17,-144.71 960.49,-133.1 635,-87 627.81,-85.98 620.24,-84.61 612.9,-83.11"/>
<polygon fill="midnightblue" stroke="midnightblue" points="613.59,-79.68 603.08,-81.02 612.13,-86.53 613.59,-79.68"/>
</g>
<!-- Node7 -->
<g id="node7" class="node">
<title>Node7</title>
<g id="a_node7"><a xlink:title=" ">
<polygon fill="white" stroke="#bfbfbf" points="644,-62 644,-81 798,-81 798,-62 644,-62"/>
<text text-anchor="middle" x="721" y="-69" font-family="Helvetica,sans-Serif" font-size="10.00">boost/bind/placeholders.hpp</text>
</a>
</g>
</g>
<!-- Node1&#45;&gt;Node7 -->
<g id="edge6" class="edge">
<title>Node1&#45;&gt;Node7</title>
<path fill="none" stroke="midnightblue" d="M1509.82,-145.02C1375.27,-137.71 1066.22,-118.77 808,-87 798.2,-85.79 787.81,-84.28 777.76,-82.68"/>
<polygon fill="midnightblue" stroke="midnightblue" points="778.28,-79.22 767.85,-81.06 777.16,-86.13 778.28,-79.22"/>
</g>
<!-- Node8 -->
<g id="node8" class="node">
<title>Node8</title>
<g id="a_node8"><a xlink:title=" ">
<polygon fill="white" stroke="#bfbfbf" points="816.5,-62 816.5,-81 957.5,-81 957.5,-62 816.5,-62"/>
<text text-anchor="middle" x="887" y="-69" font-family="Helvetica,sans-Serif" font-size="10.00">boost/numeric/odeint.hpp</text>
</a>
</g>
</g>
<!-- Node1&#45;&gt;Node8 -->
<g id="edge7" class="edge">
<title>Node1&#45;&gt;Node8</title>
<path fill="none" stroke="midnightblue" d="M1509.98,-143.42C1396.93,-134.58 1163.36,-114.63 967,-87 958.37,-85.79 949.24,-84.31 940.37,-82.78"/>
<polygon fill="midnightblue" stroke="midnightblue" points="940.95,-79.33 930.49,-81.03 939.73,-86.22 940.95,-79.33"/>
</g>
<!-- Node9 -->
<g id="node9" class="node">
<title>Node9</title>
<g id="a_node9"><a xlink:title=" ">
<polygon fill="white" stroke="#bfbfbf" points="976,-62 976,-81 1124,-81 1124,-62 976,-62"/>
<text text-anchor="middle" x="1050" y="-69" font-family="Helvetica,sans-Serif" font-size="10.00">boost/numeric/interval.hpp</text>
</a>
</g>
</g>
<!-- Node1&#45;&gt;Node9 -->
<g id="edge8" class="edge">
<title>Node1&#45;&gt;Node9</title>
<path fill="none" stroke="midnightblue" d="M1509.66,-139.82C1422.21,-128.54 1266.11,-107.82 1133,-87 1124.69,-85.7 1115.93,-84.25 1107.33,-82.79"/>
<polygon fill="midnightblue" stroke="midnightblue" points="1107.8,-79.32 1097.36,-81.07 1106.62,-86.22 1107.8,-79.32"/>
</g>
<!-- Node10 -->
<g id="node10" class="node">
<title>Node10</title>
<g id="a_node10"><a xlink:title=" ">
<polygon fill="white" stroke="#bfbfbf" points="1142,-56.5 1142,-86.5 1286,-86.5 1286,-56.5 1142,-56.5"/>
<text text-anchor="start" x="1150" y="-74.5" font-family="Helvetica,sans-Serif" font-size="10.00">boost/numeric/odeint</text>
<text text-anchor="middle" x="1214" y="-63.5" font-family="Helvetica,sans-Serif" font-size="10.00">/stepper/runge_kutta4.hpp</text>
</a>
</g>
</g>
<!-- Node1&#45;&gt;Node10 -->
<g id="edge9" class="edge">
<title>Node1&#45;&gt;Node10</title>
<path fill="none" stroke="midnightblue" d="M1509.96,-134.29C1447.85,-121.33 1356.11,-102.17 1291.26,-88.63"/>
<polygon fill="midnightblue" stroke="midnightblue" points="1291.59,-85.13 1281.09,-86.51 1290.16,-91.98 1291.59,-85.13"/>
</g>
<!-- Node11 -->
<g id="node11" class="node">
<title>Node11</title>
<g id="a_node11"><a xlink:title=" ">
<polygon fill="white" stroke="#bfbfbf" points="1304,-56.5 1304,-86.5 1420,-86.5 1420,-56.5 1304,-56.5"/>
<text text-anchor="start" x="1312" y="-74.5" font-family="Helvetica,sans-Serif" font-size="10.00">boost/numeric/ublas</text>
<text text-anchor="middle" x="1362" y="-63.5" font-family="Helvetica,sans-Serif" font-size="10.00">/matrix.hpp</text>
</a>
</g>
</g>
<!-- Node1&#45;&gt;Node11 -->
<g id="edge10" class="edge">
<title>Node1&#45;&gt;Node11</title>
<path fill="none" stroke="midnightblue" d="M1509.95,-124.56C1478.07,-113.34 1440.77,-100.22 1411.6,-89.95"/>
<polygon fill="midnightblue" stroke="midnightblue" points="1412.64,-86.61 1402.04,-86.59 1410.31,-93.21 1412.64,-86.61"/>
</g>
<!-- Node12 -->
<g id="node12" class="node">
<title>Node12</title>
<g id="a_node12"><a xlink:title=" ">
<polygon fill="white" stroke="#bfbfbf" points="1438,-56.5 1438,-86.5 1554,-86.5 1554,-56.5 1438,-56.5"/>
<text text-anchor="start" x="1446" y="-74.5" font-family="Helvetica,sans-Serif" font-size="10.00">boost/numeric/ublas</text>
<text text-anchor="middle" x="1496" y="-63.5" font-family="Helvetica,sans-Serif" font-size="10.00">/io.hpp</text>
</a>
</g>
</g>
<!-- Node1&#45;&gt;Node12 -->
<g id="edge11" class="edge">
<title>Node1&#45;&gt;Node12</title>
<path fill="none" stroke="midnightblue" d="M1550.7,-123.19C1540.4,-113.65 1528.81,-102.91 1518.95,-93.77"/>
<polygon fill="midnightblue" stroke="midnightblue" points="1521.19,-91.08 1511.48,-86.85 1516.43,-96.21 1521.19,-91.08"/>
</g>
<!-- Node13 -->
<g id="node13" class="node">
<title>Node13</title>
<g id="a_node13"><a xlink:title=" ">
<polygon fill="white" stroke="#bfbfbf" points="1572,-62 1572,-81 1750,-81 1750,-62 1572,-62"/>
<text text-anchor="middle" x="1661" y="-69" font-family="Helvetica,sans-Serif" font-size="10.00">boost/math/tools/polynomial.hpp</text>
</a>
</g>
</g>
<!-- Node1&#45;&gt;Node13 -->
<g id="edge12" class="edge">
<title>Node1&#45;&gt;Node13</title>
<path fill="none" stroke="midnightblue" d="M1605.64,-123.19C1618.26,-111.63 1632.82,-98.3 1643.84,-88.21"/>
<polygon fill="midnightblue" stroke="midnightblue" points="1646.48,-90.54 1651.49,-81.21 1641.75,-85.38 1646.48,-90.54"/>
</g>
<!-- Node14 -->
<g id="node14" class="node">
<title>Node14</title>
<g id="a_node14"><a xlink:title=" ">
<polygon fill="white" stroke="#bfbfbf" points="1768,-62 1768,-81 1828,-81 1828,-62 1768,-62"/>
<text text-anchor="middle" x="1798" y="-69" font-family="Helvetica,sans-Serif" font-size="10.00">iostream</text>
</a>
</g>
</g>
<!-- Node1&#45;&gt;Node14 -->
<g id="edge13" class="edge">
<title>Node1&#45;&gt;Node14</title>
<path fill="none" stroke="midnightblue" d="M1646.06,-125.88C1680.06,-114.46 1721.79,-100.24 1759,-87 1761.24,-86.2 1763.55,-85.37 1765.87,-84.53"/>
<polygon fill="midnightblue" stroke="midnightblue" points="1767.18,-87.78 1775.35,-81.04 1764.76,-81.21 1767.18,-87.78"/>
</g>
<!-- Node15 -->
<g id="node15" class="node">
<title>Node15</title>
<g id="a_node15"><a xlink:title=" ">
<polygon fill="white" stroke="#bfbfbf" points="1846,-62 1846,-81 1896,-81 1896,-62 1846,-62"/>
<text text-anchor="middle" x="1871" y="-69" font-family="Helvetica,sans-Serif" font-size="10.00">stdio.h</text>
</a>
</g>
</g>
<!-- Node1&#45;&gt;Node15 -->
<g id="edge14" class="edge">
<title>Node1&#45;&gt;Node15</title>
<path fill="none" stroke="midnightblue" d="M1646.23,-135.61C1698.97,-124.85 1773.46,-107.92 1837,-87 1838.92,-86.37 1840.88,-85.67 1842.85,-84.94"/>
<polygon fill="midnightblue" stroke="midnightblue" points="1844.54,-88.03 1852.51,-81.06 1841.93,-81.53 1844.54,-88.03"/>
</g>
<!-- Node16 -->
<g id="node16" class="node">
<title>Node16</title>
<g id="a_node16"><a xlink:title=" ">
<polygon fill="white" stroke="#bfbfbf" points="1914.5,-62 1914.5,-81 1967.5,-81 1967.5,-62 1914.5,-62"/>
<text text-anchor="middle" x="1941" y="-69" font-family="Helvetica,sans-Serif" font-size="10.00">stdlib.h</text>
</a>
</g>
</g>
<!-- Node1&#45;&gt;Node16 -->
<g id="edge15" class="edge">
<title>Node1&#45;&gt;Node16</title>
<path fill="none" stroke="midnightblue" d="M1646.24,-139.67C1713.04,-130.09 1817.26,-112.65 1905,-87 1907.43,-86.29 1909.93,-85.47 1912.42,-84.6"/>
<polygon fill="midnightblue" stroke="midnightblue" points="1913.7,-87.85 1921.82,-81.04 1911.23,-81.31 1913.7,-87.85"/>
</g>
<!-- Node17 -->
<g id="node17" class="node">
<title>Node17</title>
<g id="a_node17"><a xlink:title=" ">
<polygon fill="white" stroke="#bfbfbf" points="96.5,-0.5 96.5,-19.5 143.5,-19.5 143.5,-0.5 96.5,-0.5"/>
<text text-anchor="middle" x="120" y="-7.5" font-family="Helvetica,sans-Serif" font-size="10.00">cmath</text>
</a>
</g>
</g>
<!-- Node1&#45;&gt;Node17 -->
<g id="edge16" class="edge">
<title>Node1&#45;&gt;Node17</title>
<path fill="none" stroke="midnightblue" d="M1509.75,-148.08C1229.26,-146.04 177.63,-135.18 127,-87 111.88,-72.61 112.72,-47.16 115.6,-29.71"/>
<polygon fill="midnightblue" stroke="midnightblue" points="119.09,-30.08 117.64,-19.59 112.23,-28.7 119.09,-30.08"/>
</g>
<!-- Node18 -->
<g id="node18" class="node">
<title>Node18</title>
<g id="a_node18"><a xlink:title=" ">
<polygon fill="white" stroke="#bfbfbf" points="1985.5,-62 1985.5,-81 2036.5,-81 2036.5,-62 1985.5,-62"/>
<text text-anchor="middle" x="2011" y="-69" font-family="Helvetica,sans-Serif" font-size="10.00">math.h</text>
</a>
</g>
</g>
<!-- Node1&#45;&gt;Node18 -->
<g id="edge17" class="edge">
<title>Node1&#45;&gt;Node18</title>
<path fill="none" stroke="midnightblue" d="M1646.17,-143.22C1726.51,-135.8 1863.44,-119.41 1977,-87 1979.29,-86.35 1981.63,-85.58 1983.96,-84.74"/>
<polygon fill="midnightblue" stroke="midnightblue" points="1985.3,-87.97 1993.31,-81.04 1982.72,-81.47 1985.3,-87.97"/>
</g>
<!-- Node19 -->
<g id="node19" class="node">
<title>Node19</title>
<g id="a_node19"><a xlink:title=" ">
<polygon fill="white" stroke="#bfbfbf" points="2055,-62 2055,-81 2103,-81 2103,-62 2055,-62"/>
<text text-anchor="middle" x="2079" y="-69" font-family="Helvetica,sans-Serif" font-size="10.00">time.h</text>
</a>
</g>
</g>
<!-- Node1&#45;&gt;Node19 -->
<g id="edge18" class="edge">
<title>Node1&#45;&gt;Node19</title>
<path fill="none" stroke="midnightblue" d="M1646.24,-145.58C1738.46,-140.27 1907.28,-125.74 2046,-87 2048.15,-86.4 2050.35,-85.68 2052.54,-84.89"/>
<polygon fill="midnightblue" stroke="midnightblue" points="2053.91,-88.11 2061.87,-81.12 2051.29,-81.62 2053.91,-88.11"/>
</g>
<!-- Node20 -->
<g id="node20" class="node">
<title>Node20</title>
<g id="a_node20"><a xlink:title=" ">
<polygon fill="white" stroke="#bfbfbf" points="2121,-62 2121,-81 2165,-81 2165,-62 2121,-62"/>
<text text-anchor="middle" x="2143" y="-69" font-family="Helvetica,sans-Serif" font-size="10.00">ctime</text>
</a>
</g>
</g>
<!-- Node1&#45;&gt;Node20 -->
<g id="edge19" class="edge">
<title>Node1&#45;&gt;Node20</title>
<path fill="none" stroke="midnightblue" d="M1646.37,-147.63C1749.28,-144.75 1949.26,-133.11 2112,-87 2113.93,-86.45 2115.89,-85.8 2117.84,-85.07"/>
<polygon fill="midnightblue" stroke="midnightblue" points="2119.46,-88.19 2127.29,-81.04 2116.72,-81.75 2119.46,-88.19"/>
</g>
<!-- Node21 -->
<g id="node21" class="node">
<title>Node21</title>
<g id="a_node21"><a xlink:title=" ">
<polygon fill="white" stroke="#bfbfbf" points="2183,-62 2183,-81 2239,-81 2239,-62 2183,-62"/>
<text text-anchor="middle" x="2211" y="-69" font-family="Helvetica,sans-Serif" font-size="10.00">iomanip</text>
</a>
</g>
</g>
<!-- Node1&#45;&gt;Node21 -->
<g id="edge20" class="edge">
<title>Node1&#45;&gt;Node21</title>
<path fill="none" stroke="midnightblue" d="M1646.04,-147.43C1757.79,-144.36 1986.49,-132.52 2174,-87 2176.83,-86.31 2179.73,-85.46 2182.6,-84.51"/>
<polygon fill="midnightblue" stroke="midnightblue" points="2183.92,-87.76 2192.12,-81.04 2181.52,-81.18 2183.92,-87.76"/>
</g>
<!-- Node22 -->
<g id="node22" class="node">
<title>Node22</title>
<g id="a_node22"><a xlink:title=" ">
<polygon fill="white" stroke="#bfbfbf" points="2257.5,-62 2257.5,-81 2312.5,-81 2312.5,-62 2257.5,-62"/>
<text text-anchor="middle" x="2285" y="-69" font-family="Helvetica,sans-Serif" font-size="10.00">fstream</text>
</a>
</g>
</g>
<!-- Node1&#45;&gt;Node22 -->
<g id="edge21" class="edge">
<title>Node1&#45;&gt;Node22</title>
<path fill="none" stroke="midnightblue" d="M1646.06,-148.54C1768.28,-147.22 2032.32,-138.07 2248,-87 2250.83,-86.33 2253.74,-85.49 2256.61,-84.54"/>
<polygon fill="midnightblue" stroke="midnightblue" points="2257.93,-87.79 2266.13,-81.08 2255.53,-81.21 2257.93,-87.79"/>
</g>
<!-- Node23 -->
<g id="node23" class="node">
<title>Node23</title>
<g id="a_node23"><a xlink:title=" ">
<polygon fill="white" stroke="#bfbfbf" points="2331,-62 2331,-81 2375,-81 2375,-62 2331,-62"/>
<text text-anchor="middle" x="2353" y="-69" font-family="Helvetica,sans-Serif" font-size="10.00">string</text>
</a>
</g>
</g>
<!-- Node1&#45;&gt;Node23 -->
<g id="edge22" class="edge">
<title>Node1&#45;&gt;Node23</title>
<path fill="none" stroke="midnightblue" d="M1646.17,-145.95C1804.92,-139.51 2195.42,-120.67 2322,-87 2323.94,-86.48 2325.9,-85.85 2327.86,-85.14"/>
<polygon fill="midnightblue" stroke="midnightblue" points="2329.47,-88.26 2337.32,-81.15 2326.75,-81.81 2329.47,-88.26"/>
</g>
<!-- Node24 -->
<g id="node24" class="node">
<title>Node24</title>
<g id="a_node24"><a xlink:title=" ">
<polygon fill="white" stroke="#bfbfbf" points="2393.5,-62 2393.5,-81 2440.5,-81 2440.5,-62 2393.5,-62"/>
<text text-anchor="middle" x="2417" y="-69" font-family="Helvetica,sans-Serif" font-size="10.00">vector</text>
</a>
</g>
</g>
<!-- Node1&#45;&gt;Node24 -->
<g id="edge23" class="edge">
<title>Node1&#45;&gt;Node24</title>
<path fill="none" stroke="midnightblue" d="M1646.14,-146.25C1814.19,-140.23 2244.88,-121.8 2384,-87 2386.36,-86.41 2388.76,-85.67 2391.13,-84.83"/>
<polygon fill="midnightblue" stroke="midnightblue" points="2392.64,-88 2400.6,-81.01 2390.02,-81.51 2392.64,-88"/>
</g>
<!-- Node25 -->
<g id="node25" class="node">
<title>Node25</title>
<g id="a_node25"><a xlink:title=" ">
<polygon fill="white" stroke="#bfbfbf" points="2459,-62 2459,-81 2509,-81 2509,-62 2459,-62"/>
<text text-anchor="middle" x="2484" y="-69" font-family="Helvetica,sans-Serif" font-size="10.00">chrono</text>
</a>
</g>
</g>
<!-- Node1&#45;&gt;Node25 -->
<g id="edge24" class="edge">
<title>Node1&#45;&gt;Node25</title>
<path fill="none" stroke="midnightblue" d="M1646.11,-146.61C1823.71,-141.23 2297.67,-123.75 2450,-87 2452.51,-86.39 2455.07,-85.62 2457.61,-84.75"/>
<polygon fill="midnightblue" stroke="midnightblue" points="2459.06,-87.94 2467.08,-81.02 2456.5,-81.42 2459.06,-87.94"/>
</g>
<!-- Node26 -->
<g id="node26" class="node">
<title>Node26</title>
<g id="a_node26"><a xlink:title=" ">
<polygon fill="white" stroke="#bfbfbf" points="2527.5,-62 2527.5,-81 2592.5,-81 2592.5,-62 2527.5,-62"/>
<text text-anchor="middle" x="2560" y="-69" font-family="Helvetica,sans-Serif" font-size="10.00">functional</text>
</a>
</g>
</g>
<!-- Node1&#45;&gt;Node26 -->
<g id="edge25" class="edge">
<title>Node1&#45;&gt;Node26</title>
<path fill="none" stroke="midnightblue" d="M1646.15,-146.4C1833.07,-140.27 2350.97,-120.66 2518,-87 2521.7,-86.26 2525.51,-85.27 2529.27,-84.15"/>
<polygon fill="midnightblue" stroke="midnightblue" points="2530.52,-87.43 2538.94,-81 2528.35,-80.77 2530.52,-87.43"/>
</g>
<!-- Node27 -->
<g id="node27" class="node">
<title>Node27</title>
<g id="a_node27"><a xlink:href="continuous__lyapunov__equation_8hpp.html" target="_top" xlink:title="The following code uses a different convention from MATLAB.">
<polygon fill="white" stroke="black" points="136,-56.5 136,-86.5 256,-86.5 256,-56.5 136,-56.5"/>
<text text-anchor="start" x="144" y="-74.5" font-family="Helvetica,sans-Serif" font-size="10.00">continuous_lyapunov</text>
<text text-anchor="middle" x="196" y="-63.5" font-family="Helvetica,sans-Serif" font-size="10.00">_equation.hpp</text>
</a>
</g>
</g>
<!-- Node1&#45;&gt;Node27 -->
<g id="edge26" class="edge">
<title>Node1&#45;&gt;Node27</title>
<path fill="none" stroke="midnightblue" d="M1509.67,-149.15C1315.93,-150.16 746.52,-147.47 266.37,-87.03"/>
<polygon fill="midnightblue" stroke="midnightblue" points="266.48,-83.51 256.11,-85.73 265.59,-90.46 266.48,-83.51"/>
</g>
<!-- Node27&#45;&gt;Node3 -->
<g id="edge27" class="edge">
<title>Node27&#45;&gt;Node3</title>
<path fill="none" stroke="midnightblue" d="M159.03,-56.4C132.62,-46.33 97.44,-32.91 72.19,-23.28"/>
<polygon fill="midnightblue" stroke="midnightblue" points="73.29,-19.95 62.7,-19.66 70.8,-26.49 73.29,-19.95"/>
</g>
<!-- Node27&#45;&gt;Node17 -->
<g id="edge29" class="edge">
<title>Node27&#45;&gt;Node17</title>
<path fill="none" stroke="midnightblue" d="M177.99,-56.4C166.26,-47.22 150.98,-35.26 139.06,-25.92"/>
<polygon fill="midnightblue" stroke="midnightblue" points="141.09,-23.07 131.06,-19.66 136.78,-28.58 141.09,-23.07"/>
</g>
<!-- Node28 -->
<g id="node28" class="node">
<title>Node28</title>
<g id="a_node28"><a xlink:title=" ">
<polygon fill="white" stroke="#bfbfbf" points="307.5,-0.5 307.5,-19.5 368.5,-19.5 368.5,-0.5 307.5,-0.5"/>
<text text-anchor="middle" x="338" y="-7.5" font-family="Helvetica,sans-Serif" font-size="10.00">Eigen/QR</text>
</a>
</g>
</g>
<!-- Node27&#45;&gt;Node28 -->
<g id="edge28" class="edge">
<title>Node27&#45;&gt;Node28</title>
<path fill="none" stroke="midnightblue" d="M229.65,-56.4C253.48,-46.42 285.15,-33.15 308.09,-23.53"/>
<polygon fill="midnightblue" stroke="midnightblue" points="309.47,-26.75 317.34,-19.66 306.76,-20.29 309.47,-26.75"/>
</g>
<!-- Node29 -->
<g id="node29" class="node">
<title>Node29</title>
<g id="a_node29"><a xlink:title=" ">
<polygon fill="white" stroke="#bfbfbf" points="386.5,-0.5 386.5,-19.5 445.5,-19.5 445.5,-0.5 386.5,-0.5"/>
<text text-anchor="middle" x="416" y="-7.5" font-family="Helvetica,sans-Serif" font-size="10.00">complex</text>
</a>
</g>
</g>
<!-- Node27&#45;&gt;Node29 -->
<g id="edge30" class="edge">
<title>Node27&#45;&gt;Node29</title>
<path fill="none" stroke="midnightblue" d="M247.86,-56.47C287.17,-45.84 340.38,-31.45 376.33,-21.73"/>
<polygon fill="midnightblue" stroke="midnightblue" points="377.71,-24.98 386.45,-18.99 375.88,-18.23 377.71,-24.98"/>
</g>
<!-- Node30 -->
<g id="node30" class="node">
<title>Node30</title>
<g id="a_node30"><a xlink:title=" ">
<polygon fill="white" stroke="#bfbfbf" points="162,-0.5 162,-19.5 206,-19.5 206,-0.5 162,-0.5"/>
<text text-anchor="middle" x="184" y="-7.5" font-family="Helvetica,sans-Serif" font-size="10.00">limits</text>
</a>
</g>
</g>
<!-- Node27&#45;&gt;Node30 -->
<g id="edge31" class="edge">
<title>Node27&#45;&gt;Node30</title>
<path fill="none" stroke="midnightblue" d="M193.16,-56.4C191.54,-48.38 189.49,-38.23 187.75,-29.57"/>
<polygon fill="midnightblue" stroke="midnightblue" points="191.15,-28.77 185.75,-19.66 184.29,-30.15 191.15,-28.77"/>
</g>
<!-- Node31 -->
<g id="node31" class="node">
<title>Node31</title>
<g id="a_node31"><a xlink:title=" ">
<polygon fill="white" stroke="#bfbfbf" points="224.5,-0.5 224.5,-19.5 289.5,-19.5 289.5,-0.5 224.5,-0.5"/>
<text text-anchor="middle" x="257" y="-7.5" font-family="Helvetica,sans-Serif" font-size="10.00">stdexcept</text>
</a>
</g>
</g>
<!-- Node27&#45;&gt;Node31 -->
<g id="edge32" class="edge">
<title>Node27&#45;&gt;Node31</title>
<path fill="none" stroke="midnightblue" d="M210.46,-56.4C219.59,-47.49 231.42,-35.95 240.86,-26.74"/>
<polygon fill="midnightblue" stroke="midnightblue" points="243.41,-29.15 248.12,-19.66 238.52,-24.13 243.41,-29.15"/>
</g>
</g>
</svg>
        <g id="navigator" transform="translate(0 0)" fill="#404254">
                <rect fill="#f2f5e9" fill-opacity="0.5" stroke="#606060" stroke-width=".5" x="0" y="0" width="60" height="60"/>
                <use id="zoomplus" xlink:href="#zoomPlus" x="17" y="9" onmousedown="handleZoom(evt,'in')"/>
                <use id="zoomminus" xlink:href="#zoomMin" x="42" y="9" onmousedown="handleZoom(evt,'out')"/>
                <use id="reset" xlink:href="#resetDef" x="30" y="36" onmousedown="handleReset()"/>
                <g id="arrowUp" xlink:href="#dirArrow" transform="translate(30 24)" onmousedown="handlePan(0,-1)">
                  <use xlink:href="#rim" fill="#404040">
                        <set attributeName="fill" to="#808080" begin="arrowUp.mouseover" end="arrowUp.mouseout"/>
                  </use>
                  <path fill="none" stroke="white" stroke-width="1.5" d="M0,-3.0v7 M-2.5,-0.5L0,-3.0L2.5,-0.5"/>
                </g>
                <g id="arrowRight" xlink:href="#dirArrow" transform="rotate(90) translate(36 -43)" onmousedown="handlePan(1,0)">
                  <use xlink:href="#rim" fill="#404040">
                        <set attributeName="fill" to="#808080" begin="arrowRight.mouseover" end="arrowRight.mouseout"/>
                  </use>
                  <path fill="none" stroke="white" stroke-width="1.5" d="M0,-3.0v7 M-2.5,-0.5L0,-3.0L2.5,-0.5"/>
                </g>
                <g id="arrowDown" xlink:href="#dirArrow" transform="rotate(180) translate(-30 -48)" onmousedown="handlePan(0,1)">
                  <use xlink:href="#rim" fill="#404040">
                        <set attributeName="fill" to="#808080" begin="arrowDown.mouseover" end="arrowDown.mouseout"/>
                  </use>
                  <path fill="none" stroke="white" stroke-width="1.5" d="M0,-3.0v7 M-2.5,-0.5L0,-3.0L2.5,-0.5"/>
                </g>
                <g id="arrowLeft" xlink:href="#dirArrow" transform="rotate(270) translate(-36 17)" onmousedown="handlePan(-1,0)">
                  <use xlink:href="#rim" fill="#404040">
                        <set attributeName="fill" to="#808080" begin="arrowLeft.mouseover" end="arrowLeft.mouseout"/>
                  </use>
                  <path fill="none" stroke="white" stroke-width="1.5" d="M0,-3.0v7 M-2.5,-0.5L0,-3.0L2.5,-0.5"/>
                </g>
        </g>
        <svg viewBox="0 0 15 15" width="100%" height="30px" preserveAspectRatio="xMaxYMin meet">
         <g id="arrow_out" transform="scale(0.3 0.3)">
          <a xlink:href="helper__functions_8hpp__incl_org.svg" target="_base">
           <rect id="button" ry="5" rx="5" y="6" x="6" height="38" width="38"
                fill="#f2f5e9" fill-opacity="0.5" stroke="#606060" stroke-width="1.0"/>
           <path id="arrow"
             d="M 11.500037,31.436501 C 11.940474,20.09759 22.043105,11.32322 32.158766,21.979434 L 37.068811,17.246167 C 37.068811,17.246167 37.088388,32 37.088388,32 L 22.160133,31.978069 C 22.160133,31.978069 26.997745,27.140456 26.997745,27.140456 C 18.528582,18.264221 13.291696,25.230495 11.500037,31.436501 z"
             style="fill:#404040;"/>
          </a>
         </g>
        </svg>
</svg>
