<?xml version="1.0" encoding="UTF-8" standalone="no"?>
<!DOCTYPE svg PUBLIC "-//W3C//DTD SVG 1.1//EN"
 "http://www.w3.org/Graphics/SVG/1.1/DTD/svg11.dtd">
<!-- Generated by graphviz version 2.43.0 (0)
 -->
<!-- Title: Graphical Class Hierarchy Pages: 1 -->
<svg width="299pt" height="225pt"
 viewBox="0.00 0.00 299.00 225.00" xmlns="http://www.w3.org/2000/svg" xmlns:xlink="http://www.w3.org/1999/xlink">
<g id="graph0" class="graph" transform="scale(1 1) rotate(0) translate(4 221)">
<title>Graphical Class Hierarchy</title>
<polygon fill="white" stroke="transparent" points="-4,4 -4,-221 295,-221 295,4 -4,4"/>
<!-- Node0 -->
<g id="node1" class="node">
<title>Node0</title>
<g id="a_node1"><a xlink:href="class__control__algorithm__base___1_1controller__base.html" target="_top" xlink:title="controller_base definition">
<polygon fill="white" stroke="black" points="0,-93.5 0,-123.5 131,-123.5 131,-93.5 0,-93.5"/>
<text text-anchor="start" x="8" y="-111.5" font-family="Helvetica,sans-Serif" font-size="10.00">_control_algorithm</text>
<text text-anchor="middle" x="65.5" y="-100.5" font-family="Helvetica,sans-Serif" font-size="10.00">_base_::controller_base</text>
</a>
</g>
</g>
<!-- Node1 -->
<g id="node2" class="node">
<title>Node1</title>
<g id="a_node2"><a xlink:href="class__qrbp___1_1__mrac__omega___1_1mrac__omega.html" target="_top" xlink:title=" ">
<polygon fill="white" stroke="black" points="167,-186.5 167,-216.5 291,-216.5 291,-186.5 167,-186.5"/>
<text text-anchor="start" x="175" y="-204.5" font-family="Helvetica,sans-Serif" font-size="10.00">_qrbp_::_mrac_omega</text>
<text text-anchor="middle" x="229" y="-193.5" font-family="Helvetica,sans-Serif" font-size="10.00">_::mrac_omega</text>
</a>
</g>
</g>
<!-- Node0&#45;&gt;Node1 -->
<g id="edge1" class="edge">
<title>Node0&#45;&gt;Node1</title>
<path fill="none" stroke="midnightblue" d="M93.85,-129.8C113.47,-144.44 140.95,-163.66 167,-177.5 173.03,-180.7 179.58,-183.72 186.09,-186.47"/>
<polygon fill="midnightblue" stroke="midnightblue" points="95.77,-126.86 85.68,-123.63 91.55,-132.45 95.77,-126.86"/>
</g>
<!-- Node2 -->
<g id="node3" class="node">
<title>Node2</title>
<g id="a_node3"><a xlink:href="class__qrbp___1_1__mrac__pid___1_1mrac__pid.html" target="_top" xlink:title=" ">
<polygon fill="white" stroke="black" points="174,-137.5 174,-167.5 284,-167.5 284,-137.5 174,-137.5"/>
<text text-anchor="start" x="182" y="-155.5" font-family="Helvetica,sans-Serif" font-size="10.00">_qrbp_::_mrac_pid_</text>
<text text-anchor="middle" x="229" y="-144.5" font-family="Helvetica,sans-Serif" font-size="10.00">::mrac_pid</text>
</a>
</g>
</g>
<!-- Node0&#45;&gt;Node2 -->
<g id="edge2" class="edge">
<title>Node0&#45;&gt;Node2</title>
<path fill="none" stroke="midnightblue" d="M131.29,-126.15C145.44,-130.01 160.26,-134.05 173.94,-137.77"/>
<polygon fill="midnightblue" stroke="midnightblue" points="132.2,-122.77 121.63,-123.52 130.36,-129.52 132.2,-122.77"/>
</g>
<!-- Node3 -->
<g id="node4" class="node">
<title>Node3</title>
<g id="a_node4"><a xlink:href="class__qrbp___1_1__pid___1_1pid.html" target="_top" xlink:title="PID class.">
<polygon fill="white" stroke="black" points="178.5,-99 178.5,-118 279.5,-118 279.5,-99 178.5,-99"/>
<text text-anchor="middle" x="229" y="-106" font-family="Helvetica,sans-Serif" font-size="10.00">_qrbp_::_pid_::pid</text>
</a>
</g>
</g>
<!-- Node0&#45;&gt;Node3 -->
<g id="edge3" class="edge">
<title>Node0&#45;&gt;Node3</title>
<path fill="none" stroke="midnightblue" d="M141.6,-108.5C154,-108.5 166.57,-108.5 178.15,-108.5"/>
<polygon fill="midnightblue" stroke="midnightblue" points="141.26,-105 131.26,-108.5 141.26,-112 141.26,-105"/>
</g>
<!-- Node4 -->
<g id="node5" class="node">
<title>Node4</title>
<g id="a_node5"><a xlink:href="class__qrbp___1_1__pid__omega___1_1pid__omega.html" target="_top" xlink:title="public controller_base">
<polygon fill="white" stroke="black" points="172,-49.5 172,-79.5 286,-79.5 286,-49.5 172,-49.5"/>
<text text-anchor="start" x="180" y="-67.5" font-family="Helvetica,sans-Serif" font-size="10.00">_qrbp_::_pid_omega</text>
<text text-anchor="middle" x="229" y="-56.5" font-family="Helvetica,sans-Serif" font-size="10.00">_::pid_omega</text>
</a>
</g>
</g>
<!-- Node0&#45;&gt;Node4 -->
<g id="edge4" class="edge">
<title>Node0&#45;&gt;Node4</title>
<path fill="none" stroke="midnightblue" d="M131.48,-90.8C145.19,-87.06 159.54,-83.15 172.85,-79.53"/>
<polygon fill="midnightblue" stroke="midnightblue" points="130.36,-87.48 121.63,-93.48 132.2,-94.23 130.36,-87.48"/>
</g>
<!-- Node5 -->
<g id="node6" class="node">
<title>Node5</title>
<g id="a_node6"><a xlink:href="class__rostestdrone___1_1__pid___1_1pid.html" target="_top" xlink:title="class pid : public controller_base, public blackbox">
<polygon fill="white" stroke="black" points="171.5,-0.5 171.5,-30.5 286.5,-30.5 286.5,-0.5 171.5,-0.5"/>
<text text-anchor="start" x="179.5" y="-18.5" font-family="Helvetica,sans-Serif" font-size="10.00">_rostestdrone_::_pid</text>
<text text-anchor="middle" x="229" y="-7.5" font-family="Helvetica,sans-Serif" font-size="10.00">_::pid</text>
</a>
</g>
</g>
<!-- Node0&#45;&gt;Node5 -->
<g id="edge5" class="edge">
<title>Node0&#45;&gt;Node5</title>
<path fill="none" stroke="midnightblue" d="M94.33,-87.38C113.97,-73.05 141.28,-54.28 167,-40.5 173.56,-36.99 180.72,-33.65 187.75,-30.62"/>
<polygon fill="midnightblue" stroke="midnightblue" points="92.11,-84.67 86.14,-93.42 96.26,-90.31 92.11,-84.67"/>
</g>
</g>
</svg>
