<?xml version="1.0" encoding="UTF-8" standalone="no"?>
<!DOCTYPE svg PUBLIC "-//W3C//DTD SVG 1.1//EN"
 "http://www.w3.org/Graphics/SVG/1.1/DTD/svg11.dtd">
<!-- Generated by graphviz version 2.43.0 (0)
 -->
<!-- Title: Graphical Class Hierarchy Pages: 1 -->
<svg width="363pt" height="323pt"
 viewBox="0.00 0.00 363.00 322.50" xmlns="http://www.w3.org/2000/svg" xmlns:xlink="http://www.w3.org/1999/xlink">
<g id="graph0" class="graph" transform="scale(1 1) rotate(0) translate(4 318.5)">
<title>Graphical Class Hierarchy</title>
<polygon fill="white" stroke="transparent" points="-4,4 -4,-318.5 359,-318.5 359,4 -4,4"/>
<!-- Node0 -->
<g id="node1" class="node">
<title>Node0</title>
<g id="a_node1"><a xlink:href="class__flight__log___1_1blackbox.html" target="_top" xlink:title=" ">
<polygon fill="white" stroke="black" points="22.5,-153 22.5,-172 144.5,-172 144.5,-153 22.5,-153"/>
<text text-anchor="middle" x="83.5" y="-160" font-family="Helvetica,sans-Serif" font-size="10.00">_flight_log_::blackbox</text>
</a>
</g>
</g>
<!-- Node1 -->
<g id="node2" class="node">
<title>Node1</title>
<g id="a_node2"><a xlink:href="class__drivers___1_1__udp__driver___1_1UdpReceiverNode.html" target="_top" xlink:title="UdpReceiverNode class which can receive UDP datagrams.">
<polygon fill="white" stroke="black" points="217,-245.5 217,-275.5 341,-275.5 341,-245.5 217,-245.5"/>
<text text-anchor="start" x="225" y="-263.5" font-family="Helvetica,sans-Serif" font-size="10.00">_drivers_::_udp_driver</text>
<text text-anchor="middle" x="279" y="-252.5" font-family="Helvetica,sans-Serif" font-size="10.00">_::UdpReceiverNode</text>
</a>
</g>
</g>
<!-- Node0&#45;&gt;Node1 -->
<g id="edge1" class="edge">
<title>Node0&#45;&gt;Node1</title>
<path fill="none" stroke="midnightblue" d="M106.16,-177.97C129.29,-193.97 167.44,-218.89 203,-235.5 210.71,-239.1 219.08,-242.42 227.35,-245.39"/>
<polygon fill="midnightblue" stroke="midnightblue" points="107.99,-174.97 97.79,-172.11 103.98,-180.71 107.99,-174.97"/>
</g>
<!-- Node2 -->
<g id="node3" class="node">
<title>Node2</title>
<g id="a_node3"><a xlink:href="class__qrbp___1_1__mrac__omega___1_1mrac__omega__logger.html" target="_top" xlink:title=" ">
<polygon fill="white" stroke="black" points="215,-147.5 215,-177.5 343,-177.5 343,-147.5 215,-147.5"/>
<text text-anchor="start" x="223" y="-165.5" font-family="Helvetica,sans-Serif" font-size="10.00">_qrbp_::_mrac_omega</text>
<text text-anchor="middle" x="279" y="-154.5" font-family="Helvetica,sans-Serif" font-size="10.00">_::mrac_omega_logger</text>
</a>
</g>
</g>
<!-- Node0&#45;&gt;Node2 -->
<g id="edge2" class="edge">
<title>Node0&#45;&gt;Node2</title>
<path fill="none" stroke="midnightblue" d="M154.78,-162.5C174.42,-162.5 195.65,-162.5 214.86,-162.5"/>
<polygon fill="midnightblue" stroke="midnightblue" points="154.66,-159 144.66,-162.5 154.66,-166 154.66,-159"/>
</g>
<!-- Node3 -->
<g id="node4" class="node">
<title>Node3</title>
<g id="a_node4"><a xlink:href="class__qrbp___1_1__mrac__pid___1_1mrac__pid__logger.html" target="_top" xlink:title=" ">
<polygon fill="white" stroke="black" points="224,-98.5 224,-128.5 334,-128.5 334,-98.5 224,-98.5"/>
<text text-anchor="start" x="232" y="-116.5" font-family="Helvetica,sans-Serif" font-size="10.00">_qrbp_::_mrac_pid_</text>
<text text-anchor="middle" x="279" y="-105.5" font-family="Helvetica,sans-Serif" font-size="10.00">::mrac_pid_logger</text>
</a>
</g>
</g>
<!-- Node0&#45;&gt;Node3 -->
<g id="edge3" class="edge">
<title>Node0&#45;&gt;Node3</title>
<path fill="none" stroke="midnightblue" d="M132.14,-150.44C159.91,-143.4 195.03,-134.51 223.85,-127.21"/>
<polygon fill="midnightblue" stroke="midnightblue" points="131.1,-147.09 122.27,-152.94 132.82,-153.87 131.1,-147.09"/>
</g>
<!-- Node4 -->
<g id="node5" class="node">
<title>Node4</title>
<g id="a_node5"><a xlink:href="class__qrbp___1_1__pid___1_1pid__logger.html" target="_top" xlink:title="Logger for the pid.">
<polygon fill="white" stroke="black" points="228.5,-49.5 228.5,-79.5 329.5,-79.5 329.5,-49.5 228.5,-49.5"/>
<text text-anchor="start" x="236.5" y="-67.5" font-family="Helvetica,sans-Serif" font-size="10.00">_qrbp_::_pid_::pid</text>
<text text-anchor="middle" x="279" y="-56.5" font-family="Helvetica,sans-Serif" font-size="10.00">_logger</text>
</a>
</g>
</g>
<!-- Node0&#45;&gt;Node4 -->
<g id="edge4" class="edge">
<title>Node0&#45;&gt;Node4</title>
<path fill="none" stroke="midnightblue" d="M105.72,-146.98C128.75,-130.68 167.06,-105.16 203,-88.5 210.94,-84.82 219.6,-81.48 228.12,-78.54"/>
<polygon fill="midnightblue" stroke="midnightblue" points="103.49,-144.27 97.39,-152.93 107.56,-149.96 103.49,-144.27"/>
</g>
<!-- Node5 -->
<g id="node6" class="node">
<title>Node5</title>
<g id="a_node6"><a xlink:href="class__qrbp___1_1__pid__omega___1_1pid__omega__logger.html" target="_top" xlink:title="PID_OMEGA logger class.">
<polygon fill="white" stroke="black" points="220,-0.5 220,-30.5 338,-30.5 338,-0.5 220,-0.5"/>
<text text-anchor="start" x="228" y="-18.5" font-family="Helvetica,sans-Serif" font-size="10.00">_qrbp_::_pid_omega</text>
<text text-anchor="middle" x="279" y="-7.5" font-family="Helvetica,sans-Serif" font-size="10.00">_::pid_omega_logger</text>
</a>
</g>
</g>
<!-- Node0&#45;&gt;Node5 -->
<g id="edge5" class="edge">
<title>Node0&#45;&gt;Node5</title>
<path fill="none" stroke="midnightblue" d="M97.13,-144.58C116.8,-117.93 157.29,-67.96 203,-39.5 208.45,-36.1 214.43,-33.15 220.56,-30.58"/>
<polygon fill="midnightblue" stroke="midnightblue" points="94.09,-142.81 91.06,-152.96 99.76,-146.91 94.09,-142.81"/>
</g>
<!-- Node6 -->
<g id="node7" class="node">
<title>Node6</title>
<g id="a_node7"><a xlink:href="class__rostestdrone___1_1__pid___1_1pid__logger.html" target="_top" xlink:title="Class to log PID.">
<polygon fill="white" stroke="black" points="221.5,-196.5 221.5,-226.5 336.5,-226.5 336.5,-196.5 221.5,-196.5"/>
<text text-anchor="start" x="229.5" y="-214.5" font-family="Helvetica,sans-Serif" font-size="10.00">_rostestdrone_::_pid</text>
<text text-anchor="middle" x="279" y="-203.5" font-family="Helvetica,sans-Serif" font-size="10.00">_::pid_logger</text>
</a>
</g>
</g>
<!-- Node0&#45;&gt;Node6 -->
<g id="edge6" class="edge">
<title>Node0&#45;&gt;Node6</title>
<path fill="none" stroke="midnightblue" d="M132.23,-174.59C159.15,-181.4 192.97,-189.97 221.25,-197.13"/>
<polygon fill="midnightblue" stroke="midnightblue" points="132.82,-171.13 122.27,-172.06 131.1,-177.91 132.82,-171.13"/>
</g>
<!-- Node7 -->
<g id="node8" class="node">
<title>Node7</title>
<g id="a_node8"><a xlink:href="class__t265___1_1__vio___1_1VioT265Node.html" target="_top" xlink:title="VioT265Node class which can recieve position tracking from the Realsense T265.">
<polygon fill="white" stroke="black" points="203,-295 203,-314 355,-314 355,-295 203,-295"/>
<text text-anchor="middle" x="279" y="-302" font-family="Helvetica,sans-Serif" font-size="10.00">_t265_::_vio_::VioT265Node</text>
</a>
</g>
</g>
<!-- Node0&#45;&gt;Node7 -->
<g id="edge7" class="edge">
<title>Node0&#45;&gt;Node7</title>
<path fill="none" stroke="midnightblue" d="M96.99,-180.56C116.49,-207.35 156.75,-257.38 203,-284.5 210.44,-288.86 218.85,-292.29 227.27,-294.99"/>
<polygon fill="midnightblue" stroke="midnightblue" points="99.64,-178.24 90.99,-172.12 93.94,-182.3 99.64,-178.24"/>
</g>
<!-- Node43 -->
<g id="node9" class="node">
<title>Node43</title>
<g id="a_node9"><a xlink:title=" ">
<polygon fill="white" stroke="#bfbfbf" points="0,-273 0,-292 167,-292 167,-273 0,-273"/>
<text text-anchor="middle" x="83.5" y="-280" font-family="Helvetica,sans-Serif" font-size="10.00">rclcpp_lifecycle::LifecycleNode</text>
</a>
</g>
</g>
<!-- Node43&#45;&gt;Node1 -->
<g id="edge8" class="edge">
<title>Node43&#45;&gt;Node1</title>
<path fill="none" stroke="midnightblue" d="M177.32,-271.95C190.7,-270.43 204.17,-268.89 216.73,-267.47"/>
<polygon fill="midnightblue" stroke="midnightblue" points="176.66,-268.5 167.12,-273.11 177.45,-275.45 176.66,-268.5"/>
</g>
<!-- Node43&#45;&gt;Node7 -->
<g id="edge9" class="edge">
<title>Node43&#45;&gt;Node7</title>
<path fill="none" stroke="midnightblue" d="M177.14,-293.03C185.71,-294.01 194.32,-294.99 202.7,-295.94"/>
<polygon fill="midnightblue" stroke="midnightblue" points="177.45,-289.55 167.12,-291.89 176.66,-296.5 177.45,-289.55"/>
</g>
</g>
</svg>
