<?xml version="1.0" encoding="UTF-8" standalone="no"?>
<!DOCTYPE svg PUBLIC "-//W3C//DTD SVG 1.1//EN"
 "http://www.w3.org/Graphics/SVG/1.1/DTD/svg11.dtd">
<!-- Generated by graphviz version 2.43.0 (0)
 -->
<!-- Title: Graphical Class Hierarchy Pages: 1 -->
<svg width="296pt" height="66pt"
 viewBox="0.00 0.00 296.00 66.00" xmlns="http://www.w3.org/2000/svg" xmlns:xlink="http://www.w3.org/1999/xlink">
<g id="graph0" class="graph" transform="scale(1 1) rotate(0) translate(4 62)">
<title>Graphical Class Hierarchy</title>
<polygon fill="white" stroke="transparent" points="-4,4 -4,-62 292,-62 292,4 -4,4"/>
<!-- Node45 -->
<g id="node1" class="node">
<title>Node45</title>
<g id="a_node1"><a xlink:title=" ">
<polygon fill="white" stroke="#bfbfbf" points="0,-19.5 0,-38.5 77,-38.5 77,-19.5 0,-19.5"/>
<text text-anchor="middle" x="38.5" y="-26.5" font-family="Helvetica,sans-Serif" font-size="10.00">rclcpp::Node</text>
</a>
</g>
</g>
<!-- Node0 -->
<g id="node2" class="node">
<title>Node0</title>
<g id="a_node2"><a xlink:href="class__control___1_1controlNode.html" target="_top" xlink:title="Funtion that updates the current time when called.">
<polygon fill="white" stroke="black" points="137.5,-38.5 137.5,-57.5 263.5,-57.5 263.5,-38.5 137.5,-38.5"/>
<text text-anchor="middle" x="200.5" y="-45.5" font-family="Helvetica,sans-Serif" font-size="10.00">_control_::controlNode</text>
</a>
</g>
</g>
<!-- Node45&#45;&gt;Node0 -->
<g id="edge1" class="edge">
<title>Node45&#45;&gt;Node0</title>
<path fill="none" stroke="midnightblue" d="M87.08,-34.65C102.9,-36.53 120.75,-38.65 137.49,-40.64"/>
<polygon fill="midnightblue" stroke="midnightblue" points="87.36,-31.16 77.01,-33.45 86.53,-38.11 87.36,-31.16"/>
</g>
<!-- Node47 -->
<g id="node3" class="node">
<title>Node47</title>
<g id="a_node3"><a xlink:href="class__read__pix___1_1read__odometryNode.html" target="_top" xlink:title="READ ODOMETRY CLASS.">
<polygon fill="white" stroke="black" points="113,-0.5 113,-19.5 288,-19.5 288,-0.5 113,-0.5"/>
<text text-anchor="middle" x="200.5" y="-7.5" font-family="Helvetica,sans-Serif" font-size="10.00">_read_pix_::read_odometryNode</text>
</a>
</g>
</g>
<!-- Node45&#45;&gt;Node47 -->
<g id="edge2" class="edge">
<title>Node45&#45;&gt;Node47</title>
<path fill="none" stroke="midnightblue" d="M87.24,-23.33C97.38,-22.13 108.34,-20.82 119.32,-19.52"/>
<polygon fill="midnightblue" stroke="midnightblue" points="86.53,-19.89 77.01,-24.55 87.36,-26.84 86.53,-19.89"/>
</g>
</g>
</svg>
