<?xml version="1.0" encoding="UTF-8" standalone="no"?>
<!DOCTYPE svg PUBLIC "-//W3C//DTD SVG 1.1//EN"
 "http://www.w3.org/Graphics/SVG/1.1/DTD/svg11.dtd">
<!-- Generated by graphviz version 2.43.0 (0)
 -->
<!-- Title: ACSL&#45;flightstack&#45;winged/src/acsl_flight/src/mocap/mocap.cpp Pages: 1 -->
<!--zoomable 352 -->
<svg id="main" version="1.1" xmlns="http://www.w3.org/2000/svg" xmlns:xlink="http://www.w3.org/1999/xlink" xml:space="preserve" onload="init(evt)">
<style type="text/css"><![CDATA[
.edge:hover path { stroke: red; }
.edge:hover polygon { stroke: red; fill: red; }
]]></style>
<script type="text/javascript"><![CDATA[
var edges = document.getElementsByTagName('g');
if (edges && edges.length) {
  for (var i=0;i<edges.length;i++) {
    if (edges[i].id.substr(0,4)=='edge') {
      edges[i].setAttribute('class','edge');
    }
  }
}
]]></script>
        <defs>
                <circle id="rim" cx="0" cy="0" r="7"/>
                <circle id="rim2" cx="0" cy="0" r="3.5"/>
                <g id="zoomPlus">
                        <use xlink:href="#rim" fill="#404040">
                                <set attributeName="fill" to="#808080" begin="zoomplus.mouseover" end="zoomplus.mouseout"/>
                        </use>
                        <path d="M-4,0h8M0,-4v8" fill="none" stroke="white" stroke-width="1.5" pointer-events="none"/>
                </g>
                <g id="zoomMin">
                        <use xlink:href="#rim" fill="#404040">
                                <set attributeName="fill" to="#808080" begin="zoomminus.mouseover" end="zoomminus.mouseout"/>
                        </use>
                        <path d="M-4,0h8" fill="none" stroke="white" stroke-width="1.5" pointer-events="none"/>
                </g>
                <g id="dirArrow">
                        <path fill="none" stroke="white" stroke-width="1.5" d="M0,-3.0v7 M-2.5,-0.5L0,-3.0L2.5,-0.5"/>
                </g>
               <g id="resetDef">
                       <use xlink:href="#rim2" fill="#404040">
                               <set attributeName="fill" to="#808080" begin="reset.mouseover" end="reset.mouseout"/>
                       </use>
               </g>
        </defs>

<script type="text/javascript">
var viewWidth = 4164;
var viewHeight = 352;
var sectionId = 'dynsection-0';
</script>
<script xlink:href="svgpan.js"/>
<svg id="graph" class="graph">
<g id="viewport">
<title>ACSL&#45;flightstack&#45;winged/src/acsl_flight/src/mocap/mocap.cpp</title>
<polygon fill="white" stroke="transparent" points="-4,4 -4,-348 4160,-348 4160,4 -4,4"/>
<!-- Node1 -->
<g id="node1" class="node">
<title>Node1</title>
<g id="a_node1"><a xlink:title="Node definition for UDP socket as a lifecycle node.">
<polygon fill="#bfbfbf" stroke="black" points="625,-302.5 625,-343.5 765,-343.5 765,-302.5 625,-302.5"/>
<text text-anchor="start" x="633" y="-331.5" font-family="Helvetica,sans-Serif" font-size="10.00">ACSL&#45;flightstack&#45;winged</text>
<text text-anchor="start" x="633" y="-320.5" font-family="Helvetica,sans-Serif" font-size="10.00">/src/acsl_flight/src/mocap</text>
<text text-anchor="middle" x="695" y="-309.5" font-family="Helvetica,sans-Serif" font-size="10.00">/mocap.cpp</text>
</a>
</g>
</g>
<!-- Node2 -->
<g id="node2" class="node">
<title>Node2</title>
<g id="a_node2"><a xlink:href="mocap_8hpp.html" target="_top" xlink:title="Class declaration for UDP socket as a lifecycle node.">
<polygon fill="white" stroke="black" points="659.5,-246.5 659.5,-265.5 730.5,-265.5 730.5,-246.5 659.5,-246.5"/>
<text text-anchor="middle" x="695" y="-253.5" font-family="Helvetica,sans-Serif" font-size="10.00">mocap.hpp</text>
</a>
</g>
</g>
<!-- Node1&#45;&gt;Node2 -->
<g id="edge1" class="edge">
<title>Node1&#45;&gt;Node2</title>
<path fill="none" stroke="midnightblue" d="M695,-302.5C695,-294.07 695,-284.24 695,-275.87"/>
<polygon fill="midnightblue" stroke="midnightblue" points="698.5,-275.65 695,-265.65 691.5,-275.65 698.5,-275.65"/>
</g>
<!-- Node3 -->
<g id="node3" class="node">
<title>Node3</title>
<g id="a_node3"><a xlink:href="udp__driver_8hpp.html" target="_top" xlink:title="Class decleration for UDP driver.">
<polygon fill="white" stroke="black" points="246.5,-185 246.5,-204 335.5,-204 335.5,-185 246.5,-185"/>
<text text-anchor="middle" x="291" y="-192" font-family="Helvetica,sans-Serif" font-size="10.00">udp_driver.hpp</text>
</a>
</g>
</g>
<!-- Node2&#45;&gt;Node3 -->
<g id="edge2" class="edge">
<title>Node2&#45;&gt;Node3</title>
<path fill="none" stroke="midnightblue" d="M659.26,-251.54C596.68,-245.2 463.34,-230.48 352,-210 346.17,-208.93 340.06,-207.66 334.05,-206.32"/>
<polygon fill="midnightblue" stroke="midnightblue" points="334.64,-202.86 324.11,-204.03 333.07,-209.68 334.64,-202.86"/>
</g>
<!-- Node5 -->
<g id="node5" class="node">
<title>Node5</title>
<g id="a_node5"><a xlink:title=" ">
<polygon fill="white" stroke="#bfbfbf" points="319,-118 319,-137 377,-137 377,-118 319,-118"/>
<text text-anchor="middle" x="348" y="-125" font-family="Helvetica,sans-Serif" font-size="10.00">memory</text>
</a>
</g>
</g>
<!-- Node2&#45;&gt;Node5 -->
<g id="edge22" class="edge">
<title>Node2&#45;&gt;Node5</title>
<path fill="none" stroke="midnightblue" d="M659.49,-253.71C588.8,-250.52 433.62,-240.18 391,-210 369.72,-194.93 358.1,-166.01 352.47,-146.98"/>
<polygon fill="midnightblue" stroke="midnightblue" points="355.8,-145.86 349.82,-137.11 349.04,-147.67 355.8,-145.86"/>
</g>
<!-- Node6 -->
<g id="node6" class="node">
<title>Node6</title>
<g id="a_node6"><a xlink:title=" ">
<polygon fill="white" stroke="#bfbfbf" points="0,-0.5 0,-19.5 44,-19.5 44,-0.5 0,-0.5"/>
<text text-anchor="middle" x="22" y="-7.5" font-family="Helvetica,sans-Serif" font-size="10.00">string</text>
</a>
</g>
</g>
<!-- Node2&#45;&gt;Node6 -->
<g id="edge23" class="edge">
<title>Node2&#45;&gt;Node6</title>
<path fill="none" stroke="midnightblue" d="M659.26,-254.32C558.22,-252.01 272.18,-242.69 185,-210 101.92,-178.85 76.51,-155.45 37,-76 29.75,-61.42 25.94,-43.24 23.97,-29.82"/>
<polygon fill="midnightblue" stroke="midnightblue" points="27.44,-29.34 22.73,-19.85 20.5,-30.21 27.44,-29.34"/>
</g>
<!-- Node9 -->
<g id="node8" class="node">
<title>Node9</title>
<g id="a_node8"><a xlink:title=" ">
<polygon fill="white" stroke="#bfbfbf" points="254.5,-56.5 254.5,-75.5 301.5,-75.5 301.5,-56.5 254.5,-56.5"/>
<text text-anchor="middle" x="278" y="-63.5" font-family="Helvetica,sans-Serif" font-size="10.00">vector</text>
</a>
</g>
</g>
<!-- Node2&#45;&gt;Node9 -->
<g id="edge24" class="edge">
<title>Node2&#45;&gt;Node9</title>
<path fill="none" stroke="midnightblue" d="M659.33,-253.11C595.32,-249.05 464.31,-237.55 429,-210 391.5,-180.75 419.95,-145.32 386,-112 365.67,-92.05 335.2,-80.45 311.8,-74.04"/>
<polygon fill="midnightblue" stroke="midnightblue" points="312.49,-70.61 301.94,-71.53 310.76,-77.39 312.49,-70.61"/>
</g>
<!-- Node15 -->
<g id="node9" class="node">
<title>Node15</title>
<g id="a_node9"><a xlink:href="global__helpers_8hpp.html" target="_top" xlink:title="Inline functions for all the classes of the flighstack to use.">
<polygon fill="white" stroke="black" points="88.5,-56.5 88.5,-75.5 197.5,-75.5 197.5,-56.5 88.5,-56.5"/>
<text text-anchor="middle" x="143" y="-63.5" font-family="Helvetica,sans-Serif" font-size="10.00">global_helpers.hpp</text>
</a>
</g>
</g>
<!-- Node2&#45;&gt;Node15 -->
<g id="edge20" class="edge">
<title>Node2&#45;&gt;Node15</title>
<path fill="none" stroke="midnightblue" d="M659.41,-254.34C565.44,-252.14 312.72,-243.23 237,-210 196.07,-192.04 185.11,-181.26 162,-143 151.36,-125.39 146.66,-102.05 144.6,-85.91"/>
<polygon fill="midnightblue" stroke="midnightblue" points="148.04,-85.18 143.51,-75.61 141.08,-85.92 148.04,-85.18"/>
</g>
<!-- Node16 -->
<g id="node10" class="node">
<title>Node16</title>
<g id="a_node10"><a xlink:title=" ">
<polygon fill="white" stroke="#bfbfbf" points="415,-0.5 415,-19.5 471,-19.5 471,-0.5 415,-0.5"/>
<text text-anchor="middle" x="443" y="-7.5" font-family="Helvetica,sans-Serif" font-size="10.00">sstream</text>
</a>
</g>
</g>
<!-- Node2&#45;&gt;Node16 -->
<g id="edge25" class="edge">
<title>Node2&#45;&gt;Node16</title>
<path fill="none" stroke="midnightblue" d="M659.3,-254.96C617.5,-253.19 548.01,-244.7 501,-210 443.43,-167.51 440.3,-70.97 441.77,-29.98"/>
<polygon fill="midnightblue" stroke="midnightblue" points="445.28,-29.94 442.28,-19.77 438.29,-29.59 445.28,-29.94"/>
</g>
<!-- Node19 -->
<g id="node13" class="node">
<title>Node19</title>
<g id="a_node13"><a xlink:href="control__config_8hpp.html" target="_top" xlink:title="Just a header file for configuring which platform and controller to pick during compilation.">
<polygon fill="white" stroke="black" points="1827,-185 1827,-204 1933,-204 1933,-185 1827,-185"/>
<text text-anchor="middle" x="1880" y="-192" font-family="Helvetica,sans-Serif" font-size="10.00">control_config.hpp</text>
</a>
</g>
</g>
<!-- Node2&#45;&gt;Node19 -->
<g id="edge16" class="edge">
<title>Node2&#45;&gt;Node19</title>
<path fill="none" stroke="midnightblue" d="M730.53,-254.47C896.86,-251.83 1599.5,-239.13 1817,-210 1823.88,-209.08 1831.1,-207.76 1838.11,-206.28"/>
<polygon fill="midnightblue" stroke="midnightblue" points="1839.16,-209.63 1848.16,-204.04 1837.64,-202.8 1839.16,-209.63"/>
</g>
<!-- Node30 -->
<g id="node15" class="node">
<title>Node30</title>
<g id="a_node15"><a xlink:href="px4__defines_8hpp.html" target="_top" xlink:title="Contains useful constant defines for use in the flight stack in a central location.">
<polygon fill="white" stroke="black" points="1951,-185 1951,-204 2047,-204 2047,-185 1951,-185"/>
<text text-anchor="middle" x="1999" y="-192" font-family="Helvetica,sans-Serif" font-size="10.00">px4_defines.hpp</text>
</a>
</g>
</g>
<!-- Node2&#45;&gt;Node30 -->
<g id="edge18" class="edge">
<title>Node2&#45;&gt;Node30</title>
<path fill="none" stroke="midnightblue" d="M730.6,-254.74C908.12,-253.28 1698.88,-244.9 1942,-210 1948.02,-209.14 1954.33,-207.89 1960.46,-206.48"/>
<polygon fill="midnightblue" stroke="midnightblue" points="1961.66,-209.79 1970.53,-204.01 1959.99,-202.99 1961.66,-209.79"/>
</g>
<!-- Node48 -->
<g id="node17" class="node">
<title>Node48</title>
<g id="a_node17"><a xlink:title=" ">
<polygon fill="white" stroke="#bfbfbf" points="605,-118 605,-137 655,-137 655,-118 605,-118"/>
<text text-anchor="middle" x="630" y="-125" font-family="Helvetica,sans-Serif" font-size="10.00">chrono</text>
</a>
</g>
</g>
<!-- Node2&#45;&gt;Node48 -->
<g id="edge21" class="edge">
<title>Node2&#45;&gt;Node48</title>
<path fill="none" stroke="midnightblue" d="M690.53,-246.31C679.96,-225.72 653.22,-173.69 639.08,-146.18"/>
<polygon fill="midnightblue" stroke="midnightblue" points="642.18,-144.55 634.5,-137.26 635.96,-147.75 642.18,-144.55"/>
</g>
<!-- Node84 -->
<g id="node18" class="node">
<title>Node84</title>
<g id="a_node18"><a xlink:title=" ">
<polygon fill="white" stroke="#bfbfbf" points="2065.5,-185 2065.5,-204 2094.5,-204 2094.5,-185 2065.5,-185"/>
<text text-anchor="middle" x="2080" y="-192" font-family="Helvetica,sans-Serif" font-size="10.00">bit</text>
</a>
</g>
</g>
<!-- Node2&#45;&gt;Node84 -->
<g id="edge26" class="edge">
<title>Node2&#45;&gt;Node84</title>
<path fill="none" stroke="midnightblue" d="M730.56,-254.9C932.02,-254.17 1925.74,-248.62 2056,-210 2057.07,-209.68 2058.15,-209.3 2059.21,-208.88"/>
<polygon fill="midnightblue" stroke="midnightblue" points="2061.08,-211.86 2068.36,-204.16 2057.87,-205.64 2061.08,-211.86"/>
</g>
<!-- Node46 -->
<g id="node19" class="node">
<title>Node46</title>
<g id="a_node19"><a xlink:title=" ">
<polygon fill="white" stroke="#bfbfbf" points="673,-118 673,-137 717,-137 717,-118 673,-118"/>
<text text-anchor="middle" x="695" y="-125" font-family="Helvetica,sans-Serif" font-size="10.00">ctime</text>
</a>
</g>
</g>
<!-- Node2&#45;&gt;Node46 -->
<g id="edge27" class="edge">
<title>Node2&#45;&gt;Node46</title>
<path fill="none" stroke="midnightblue" d="M695,-246.31C695,-225.99 695,-175.05 695,-147.28"/>
<polygon fill="midnightblue" stroke="midnightblue" points="698.5,-147.26 695,-137.26 691.5,-147.26 698.5,-147.26"/>
</g>
<!-- Node85 -->
<g id="node20" class="node">
<title>Node85</title>
<g id="a_node20"><a xlink:title=" ">
<polygon fill="white" stroke="#bfbfbf" points="2112.5,-185 2112.5,-204 2211.5,-204 2211.5,-185 2112.5,-185"/>
<text text-anchor="middle" x="2162" y="-192" font-family="Helvetica,sans-Serif" font-size="10.00">rclcpp/rclcpp.hpp</text>
</a>
</g>
</g>
<!-- Node2&#45;&gt;Node85 -->
<g id="edge28" class="edge">
<title>Node2&#45;&gt;Node85</title>
<path fill="none" stroke="midnightblue" d="M730.7,-254.89C921.96,-254.14 1827.06,-248.59 2104,-210 2110.27,-209.13 2116.85,-207.84 2123.24,-206.4"/>
<polygon fill="midnightblue" stroke="midnightblue" points="2124.13,-209.78 2133.03,-204.03 2122.49,-202.98 2124.13,-209.78"/>
</g>
<!-- Node86 -->
<g id="node21" class="node">
<title>Node86</title>
<g id="a_node21"><a xlink:title=" ">
<polygon fill="white" stroke="#bfbfbf" points="2229.5,-179.5 2229.5,-209.5 2366.5,-209.5 2366.5,-179.5 2229.5,-179.5"/>
<text text-anchor="start" x="2237.5" y="-197.5" font-family="Helvetica,sans-Serif" font-size="10.00">rclcpp_lifecycle/lifecycle</text>
<text text-anchor="middle" x="2298" y="-186.5" font-family="Helvetica,sans-Serif" font-size="10.00">_node.hpp</text>
</a>
</g>
</g>
<!-- Node2&#45;&gt;Node86 -->
<g id="edge29" class="edge">
<title>Node2&#45;&gt;Node86</title>
<path fill="none" stroke="midnightblue" d="M730.62,-254.71C928.75,-252.97 1897.33,-242.96 2218.98,-210.08"/>
<polygon fill="midnightblue" stroke="midnightblue" points="2219.65,-213.53 2229.23,-209 2218.92,-206.57 2219.65,-213.53"/>
</g>
<!-- Node87 -->
<g id="node22" class="node">
<title>Node87</title>
<g id="a_node22"><a xlink:title=" ">
<polygon fill="white" stroke="#bfbfbf" points="2384.5,-179.5 2384.5,-209.5 2497.5,-209.5 2497.5,-179.5 2384.5,-179.5"/>
<text text-anchor="start" x="2392.5" y="-197.5" font-family="Helvetica,sans-Serif" font-size="10.00">lifecycle_msgs/msg</text>
<text text-anchor="middle" x="2441" y="-186.5" font-family="Helvetica,sans-Serif" font-size="10.00">/state.hpp</text>
</a>
</g>
</g>
<!-- Node2&#45;&gt;Node87 -->
<g id="edge30" class="edge">
<title>Node2&#45;&gt;Node87</title>
<path fill="none" stroke="midnightblue" d="M730.73,-254.98C941.1,-254.73 2020.7,-251.45 2374.39,-210.01"/>
<polygon fill="midnightblue" stroke="midnightblue" points="2374.88,-213.47 2384.39,-208.8 2374.04,-206.52 2374.88,-213.47"/>
</g>
<!-- Node88 -->
<g id="node23" class="node">
<title>Node88</title>
<g id="a_node23"><a xlink:title=" ">
<polygon fill="white" stroke="#bfbfbf" points="2516,-179.5 2516,-209.5 2644,-209.5 2644,-179.5 2516,-179.5"/>
<text text-anchor="start" x="2524" y="-197.5" font-family="Helvetica,sans-Serif" font-size="10.00">px4_msgs/msg/vehicle</text>
<text text-anchor="middle" x="2580" y="-186.5" font-family="Helvetica,sans-Serif" font-size="10.00">_odometry.hpp</text>
</a>
</g>
</g>
<!-- Node2&#45;&gt;Node88 -->
<g id="edge31" class="edge">
<title>Node2&#45;&gt;Node88</title>
<path fill="none" stroke="midnightblue" d="M730.58,-254.95C950.14,-254.5 2123.51,-250.29 2505.63,-209.99"/>
<polygon fill="midnightblue" stroke="midnightblue" points="2506.04,-213.47 2515.61,-208.91 2505.29,-206.51 2506.04,-213.47"/>
</g>
<!-- Node22 -->
<g id="node24" class="node">
<title>Node22</title>
<g id="a_node24"><a xlink:href="vehicle__class_8hpp.html" target="_top" xlink:title="Header for the vehicle class object.">
<polygon fill="white" stroke="black" points="510.5,-185 510.5,-204 613.5,-204 613.5,-185 510.5,-185"/>
<text text-anchor="middle" x="562" y="-192" font-family="Helvetica,sans-Serif" font-size="10.00">vehicle_class.hpp</text>
</a>
</g>
</g>
<!-- Node2&#45;&gt;Node22 -->
<g id="edge32" class="edge">
<title>Node2&#45;&gt;Node22</title>
<path fill="none" stroke="midnightblue" d="M675.94,-246.48C653.53,-236.45 616.09,-219.7 590.29,-208.15"/>
<polygon fill="midnightblue" stroke="midnightblue" points="591.58,-204.9 581.02,-204.01 588.72,-211.29 591.58,-204.9"/>
</g>
<!-- Node59 -->
<g id="node27" class="node">
<title>Node59</title>
<g id="a_node27"><a xlink:href="flight__log_8hpp.html" target="_top" xlink:title="Utilities for logging flight data.">
<polygon fill="white" stroke="red" points="1725.5,-185 1725.5,-204 1808.5,-204 1808.5,-185 1725.5,-185"/>
<text text-anchor="middle" x="1767" y="-192" font-family="Helvetica,sans-Serif" font-size="10.00">flight_log.hpp</text>
</a>
</g>
</g>
<!-- Node2&#45;&gt;Node59 -->
<g id="edge35" class="edge">
<title>Node2&#45;&gt;Node59</title>
<path fill="none" stroke="midnightblue" d="M730.67,-253.02C888.89,-244.24 1527.78,-208.78 1715.12,-198.38"/>
<polygon fill="midnightblue" stroke="midnightblue" points="1715.47,-201.87 1725.26,-197.82 1715.08,-194.88 1715.47,-201.87"/>
</g>
<!-- Node4 -->
<g id="node4" class="node">
<title>Node4</title>
<g id="a_node4"><a xlink:title=" ">
<polygon fill="white" stroke="#bfbfbf" points="245,-0.5 245,-19.5 305,-19.5 305,-0.5 245,-0.5"/>
<text text-anchor="middle" x="275" y="-7.5" font-family="Helvetica,sans-Serif" font-size="10.00">iostream</text>
</a>
</g>
</g>
<!-- Node3&#45;&gt;Node4 -->
<g id="edge3" class="edge">
<title>Node3&#45;&gt;Node4</title>
<path fill="none" stroke="midnightblue" d="M293.23,-184.85C299.82,-158.6 318.29,-80.16 310,-56 306.28,-45.16 298.77,-34.92 291.65,-26.96"/>
<polygon fill="midnightblue" stroke="midnightblue" points="294,-24.35 284.56,-19.55 288.95,-29.19 294,-24.35"/>
</g>
<!-- Node3&#45;&gt;Node5 -->
<g id="edge4" class="edge">
<title>Node3&#45;&gt;Node5</title>
<path fill="none" stroke="midnightblue" d="M298.69,-184.73C307.66,-174.5 322.69,-157.36 333.8,-144.69"/>
<polygon fill="midnightblue" stroke="midnightblue" points="336.47,-146.95 340.43,-137.13 331.21,-142.34 336.47,-146.95"/>
</g>
<!-- Node3&#45;&gt;Node6 -->
<g id="edge5" class="edge">
<title>Node3&#45;&gt;Node6</title>
<path fill="none" stroke="midnightblue" d="M255.85,-184.89C204.66,-170.64 109.68,-137.41 54,-76 41.75,-62.49 33.11,-43.42 27.92,-29.43"/>
<polygon fill="midnightblue" stroke="midnightblue" points="31.2,-28.21 24.62,-19.9 24.58,-30.5 31.2,-28.21"/>
</g>
<!-- Node7 -->
<g id="node7" class="node">
<title>Node7</title>
<g id="a_node7"><a xlink:href="udp__socket_8hpp.html" target="_top" xlink:title="Class declaration for UDP socket creation using IoContext.">
<polygon fill="white" stroke="red" points="171,-118 171,-137 263,-137 263,-118 171,-118"/>
<text text-anchor="middle" x="217" y="-125" font-family="Helvetica,sans-Serif" font-size="10.00">udp_socket.hpp</text>
</a>
</g>
</g>
<!-- Node3&#45;&gt;Node7 -->
<g id="edge6" class="edge">
<title>Node3&#45;&gt;Node7</title>
<path fill="none" stroke="midnightblue" d="M281.02,-184.73C269.15,-174.31 249.11,-156.71 234.62,-143.97"/>
<polygon fill="midnightblue" stroke="midnightblue" points="236.64,-141.1 226.82,-137.13 232.03,-146.36 236.64,-141.1"/>
</g>
<!-- Node7&#45;&gt;Node4 -->
<g id="edge9" class="edge">
<title>Node7&#45;&gt;Node4</title>
<path fill="none" stroke="midnightblue" d="M219.73,-118C224.2,-104.49 233.75,-77.46 245,-56 250.07,-46.33 256.72,-36.17 262.47,-27.95"/>
<polygon fill="midnightblue" stroke="midnightblue" points="265.46,-29.79 268.45,-19.63 259.77,-25.7 265.46,-29.79"/>
</g>
<!-- Node7&#45;&gt;Node6 -->
<g id="edge7" class="edge">
<title>Node7&#45;&gt;Node6</title>
<path fill="none" stroke="midnightblue" d="M178.57,-117.97C149.46,-110.24 109.41,-96.84 79,-76 60.31,-63.19 43.85,-42.89 33.48,-28.39"/>
<polygon fill="midnightblue" stroke="midnightblue" points="36.14,-26.08 27.58,-19.83 30.37,-30.05 36.14,-26.08"/>
</g>
<!-- Node7&#45;&gt;Node9 -->
<g id="edge8" class="edge">
<title>Node7&#45;&gt;Node9</title>
<path fill="none" stroke="midnightblue" d="M225.74,-117.98C235.16,-108.78 250.36,-93.96 261.95,-82.66"/>
<polygon fill="midnightblue" stroke="midnightblue" points="264.56,-85 269.28,-75.51 259.67,-79.99 264.56,-85"/>
</g>
<!-- Node7&#45;&gt;Node15 -->
<g id="edge10" class="edge">
<title>Node7&#45;&gt;Node15</title>
<path fill="none" stroke="midnightblue" d="M206.4,-117.98C194.75,-108.61 175.81,-93.38 161.67,-82.01"/>
<polygon fill="midnightblue" stroke="midnightblue" points="163.57,-79.05 153.58,-75.51 159.18,-84.5 163.57,-79.05"/>
</g>
<!-- Node15&#45;&gt;Node4 -->
<g id="edge11" class="edge">
<title>Node15&#45;&gt;Node4</title>
<path fill="none" stroke="midnightblue" d="M163.92,-56.44C185.74,-47.52 220.15,-33.44 244.89,-23.32"/>
<polygon fill="midnightblue" stroke="midnightblue" points="246.25,-26.54 254.18,-19.52 243.6,-20.06 246.25,-26.54"/>
</g>
<!-- Node15&#45;&gt;Node6 -->
<g id="edge12" class="edge">
<title>Node15&#45;&gt;Node6</title>
<path fill="none" stroke="midnightblue" d="M123.83,-56.44C104.09,-47.64 73.11,-33.81 50.51,-23.72"/>
<polygon fill="midnightblue" stroke="midnightblue" points="51.64,-20.4 41.08,-19.52 48.79,-26.79 51.64,-20.4"/>
</g>
<!-- Node15&#45;&gt;Node16 -->
<g id="edge13" class="edge">
<title>Node15&#45;&gt;Node16</title>
<path fill="none" stroke="midnightblue" d="M190.54,-56.44C249.83,-45.77 350.03,-27.73 404.67,-17.9"/>
<polygon fill="midnightblue" stroke="midnightblue" points="405.42,-21.32 414.64,-16.1 404.18,-14.43 405.42,-21.32"/>
</g>
<!-- Node17 -->
<g id="node11" class="node">
<title>Node17</title>
<g id="a_node11"><a xlink:title=" ">
<polygon fill="white" stroke="#bfbfbf" points="157.5,-0.5 157.5,-19.5 226.5,-19.5 226.5,-0.5 157.5,-0.5"/>
<text text-anchor="middle" x="192" y="-7.5" font-family="Helvetica,sans-Serif" font-size="10.00">type_traits</text>
</a>
</g>
</g>
<!-- Node15&#45;&gt;Node17 -->
<g id="edge14" class="edge">
<title>Node15&#45;&gt;Node17</title>
<path fill="none" stroke="midnightblue" d="M151.09,-56.08C158.16,-48.3 168.59,-36.8 177.15,-27.37"/>
<polygon fill="midnightblue" stroke="midnightblue" points="179.93,-29.51 184.06,-19.75 174.75,-24.8 179.93,-29.51"/>
</g>
<!-- Node18 -->
<g id="node12" class="node">
<title>Node18</title>
<g id="a_node12"><a xlink:title=" ">
<polygon fill="white" stroke="#bfbfbf" points="62.5,-0.5 62.5,-19.5 139.5,-19.5 139.5,-0.5 62.5,-0.5"/>
<text text-anchor="middle" x="101" y="-7.5" font-family="Helvetica,sans-Serif" font-size="10.00">Eigen/Dense</text>
</a>
</g>
</g>
<!-- Node15&#45;&gt;Node18 -->
<g id="edge15" class="edge">
<title>Node15&#45;&gt;Node18</title>
<path fill="none" stroke="midnightblue" d="M136.06,-56.08C130.07,-48.38 121.25,-37.03 113.95,-27.65"/>
<polygon fill="midnightblue" stroke="midnightblue" points="116.71,-25.5 107.81,-19.75 111.18,-29.79 116.71,-25.5"/>
</g>
<!-- Node20 -->
<g id="node14" class="node">
<title>Node20</title>
<g id="a_node14"><a xlink:href="PID__OMEGA_8hpp.html" target="_top" xlink:title="PID with angular veocities for the QRBP.">
<polygon fill="white" stroke="red" points="3992,-118 3992,-137 4088,-137 4088,-118 3992,-118"/>
<text text-anchor="middle" x="4040" y="-125" font-family="Helvetica,sans-Serif" font-size="10.00">PID_OMEGA.hpp</text>
</a>
</g>
</g>
<!-- Node19&#45;&gt;Node20 -->
<g id="edge17" class="edge">
<title>Node19&#45;&gt;Node20</title>
<path fill="none" stroke="midnightblue" d="M1910.67,-184.97C1920.59,-182.58 1931.69,-180.28 1942,-179 2392.16,-123.03 3533.4,-203.32 3983,-143 3989.24,-142.16 3995.79,-140.89 4002.12,-139.43"/>
<polygon fill="midnightblue" stroke="midnightblue" points="4002.97,-142.83 4011.84,-137.04 4001.29,-136.03 4002.97,-142.83"/>
</g>
<!-- Node31 -->
<g id="node16" class="node">
<title>Node31</title>
<g id="a_node16"><a xlink:title=" ">
<polygon fill="white" stroke="#bfbfbf" points="4106,-118 4106,-137 4156,-137 4156,-118 4106,-118"/>
<text text-anchor="middle" x="4131" y="-125" font-family="Helvetica,sans-Serif" font-size="10.00">cstdint</text>
</a>
</g>
</g>
<!-- Node30&#45;&gt;Node31 -->
<g id="edge19" class="edge">
<title>Node30&#45;&gt;Node31</title>
<path fill="none" stroke="midnightblue" d="M2027.66,-184.96C2036.94,-182.57 2047.33,-180.28 2057,-179 2281.75,-149.32 3875.3,-190.34 4097,-143 4099.67,-142.43 4102.4,-141.65 4105.08,-140.74"/>
<polygon fill="midnightblue" stroke="midnightblue" points="4106.44,-143.97 4114.47,-137.06 4103.89,-137.45 4106.44,-143.97"/>
</g>
<!-- Node23 -->
<g id="node25" class="node">
<title>Node23</title>
<g id="a_node25"><a xlink:title=" ">
<polygon fill="white" stroke="#bfbfbf" points="537,-118 537,-137 587,-137 587,-118 537,-118"/>
<text text-anchor="middle" x="562" y="-125" font-family="Helvetica,sans-Serif" font-size="10.00">atomic</text>
</a>
</g>
</g>
<!-- Node22&#45;&gt;Node23 -->
<g id="edge33" class="edge">
<title>Node22&#45;&gt;Node23</title>
<path fill="none" stroke="midnightblue" d="M562,-184.73C562,-175.18 562,-159.62 562,-147.28"/>
<polygon fill="midnightblue" stroke="midnightblue" points="565.5,-147.13 562,-137.13 558.5,-147.13 565.5,-147.13"/>
</g>
<!-- Node24 -->
<g id="node26" class="node">
<title>Node24</title>
<g id="a_node26"><a xlink:title=" ">
<polygon fill="white" stroke="#bfbfbf" points="471.5,-118 471.5,-137 518.5,-137 518.5,-118 471.5,-118"/>
<text text-anchor="middle" x="495" y="-125" font-family="Helvetica,sans-Serif" font-size="10.00">cmath</text>
</a>
</g>
</g>
<!-- Node22&#45;&gt;Node24 -->
<g id="edge34" class="edge">
<title>Node22&#45;&gt;Node24</title>
<path fill="none" stroke="midnightblue" d="M552.96,-184.73C542.32,-174.4 524.42,-157.04 511.32,-144.33"/>
<polygon fill="midnightblue" stroke="midnightblue" points="513.51,-141.58 503.89,-137.13 508.63,-146.6 513.51,-141.58"/>
</g>
<!-- Node59&#45;&gt;Node16 -->
<g id="edge39" class="edge">
<title>Node59&#45;&gt;Node16</title>
<path fill="none" stroke="midnightblue" d="M1725.22,-192.93C1546.91,-190.29 854.62,-177.87 764,-143 743.66,-135.17 744.98,-122.71 726,-112 644.08,-65.8 537.2,-34.58 481.13,-20.16"/>
<polygon fill="midnightblue" stroke="midnightblue" points="481.82,-16.72 471.27,-17.66 480.11,-23.51 481.82,-16.72"/>
</g>
<!-- Node59&#45;&gt;Node48 -->
<g id="edge37" class="edge">
<title>Node59&#45;&gt;Node48</title>
<path fill="none" stroke="midnightblue" d="M1725.37,-193.57C1550.1,-193.56 871.68,-190.41 664,-143 661.48,-142.43 658.92,-141.67 656.38,-140.81"/>
<polygon fill="midnightblue" stroke="midnightblue" points="657.48,-137.49 646.9,-137.11 654.94,-144.01 657.48,-137.49"/>
</g>
<!-- Node59&#45;&gt;Node46 -->
<g id="edge42" class="edge">
<title>Node59&#45;&gt;Node46</title>
<path fill="none" stroke="midnightblue" d="M1725.39,-193.32C1556.94,-192.29 925.48,-185.63 731,-143 728.16,-142.38 725.26,-141.55 722.39,-140.61"/>
<polygon fill="midnightblue" stroke="midnightblue" points="723.53,-137.3 712.94,-137.09 721.09,-143.86 723.53,-137.3"/>
</g>
<!-- Node59&#45;&gt;Node23 -->
<g id="edge36" class="edge">
<title>Node59&#45;&gt;Node23</title>
<path fill="none" stroke="midnightblue" d="M1725.29,-193.7C1543.23,-194.26 817.51,-193.26 596,-143 593.48,-142.43 590.91,-141.68 588.38,-140.82"/>
<polygon fill="midnightblue" stroke="midnightblue" points="589.48,-137.49 578.89,-137.12 586.94,-144.02 589.48,-137.49"/>
</g>
<!-- Node47 -->
<g id="node28" class="node">
<title>Node47</title>
<g id="a_node28"><a xlink:title=" ">
<polygon fill="white" stroke="#bfbfbf" points="3025,-118 3025,-137 3081,-137 3081,-118 3025,-118"/>
<text text-anchor="middle" x="3053" y="-125" font-family="Helvetica,sans-Serif" font-size="10.00">iomanip</text>
</a>
</g>
</g>
<!-- Node59&#45;&gt;Node47 -->
<g id="edge38" class="edge">
<title>Node59&#45;&gt;Node47</title>
<path fill="none" stroke="midnightblue" d="M1792.41,-184.94C1800.5,-182.58 1809.54,-180.31 1818,-179 2081.21,-138.27 2755.06,-196.38 3016,-143 3019.08,-142.37 3022.23,-141.51 3025.34,-140.51"/>
<polygon fill="midnightblue" stroke="midnightblue" points="3026.74,-143.72 3034.94,-137.01 3024.34,-137.15 3026.74,-143.72"/>
</g>
<!-- Node60 -->
<g id="node29" class="node">
<title>Node60</title>
<g id="a_node29"><a xlink:title=" ">
<polygon fill="white" stroke="#bfbfbf" points="3099,-118 3099,-137 3167,-137 3167,-118 3099,-118"/>
<text text-anchor="middle" x="3133" y="-125" font-family="Helvetica,sans-Serif" font-size="10.00">filesystem</text>
</a>
</g>
</g>
<!-- Node59&#45;&gt;Node60 -->
<g id="edge40" class="edge">
<title>Node59&#45;&gt;Node60</title>
<path fill="none" stroke="midnightblue" d="M1792.41,-184.93C1800.49,-182.57 1809.54,-180.3 1818,-179 2376.98,-93 2533.25,-242.45 3090,-143 3093.99,-142.29 3098.11,-141.28 3102.14,-140.12"/>
<polygon fill="midnightblue" stroke="midnightblue" points="3103.43,-143.38 3111.89,-137.01 3101.3,-136.71 3103.43,-143.38"/>
</g>
<!-- Node26 -->
<g id="node30" class="node">
<title>Node26</title>
<g id="a_node30"><a xlink:title=" ">
<polygon fill="white" stroke="#bfbfbf" points="3185.5,-118 3185.5,-137 3240.5,-137 3240.5,-118 3185.5,-118"/>
<text text-anchor="middle" x="3213" y="-125" font-family="Helvetica,sans-Serif" font-size="10.00">fstream</text>
</a>
</g>
</g>
<!-- Node59&#45;&gt;Node26 -->
<g id="edge41" class="edge">
<title>Node59&#45;&gt;Node26</title>
<path fill="none" stroke="midnightblue" d="M1792.41,-184.92C1800.49,-182.56 1809.54,-180.29 1818,-179 2116.41,-133.36 2880.13,-202.98 3176,-143 3179.08,-142.38 3182.23,-141.52 3185.34,-140.52"/>
<polygon fill="midnightblue" stroke="midnightblue" points="3186.74,-143.74 3194.94,-137.02 3184.34,-137.16 3186.74,-143.74"/>
</g>
<!-- Node61 -->
<g id="node31" class="node">
<title>Node61</title>
<g id="a_node31"><a xlink:title=" ">
<polygon fill="white" stroke="#bfbfbf" points="3258.5,-112.5 3258.5,-142.5 3383.5,-142.5 3383.5,-112.5 3258.5,-112.5"/>
<text text-anchor="start" x="3266.5" y="-130.5" font-family="Helvetica,sans-Serif" font-size="10.00">boost/date_time/posix</text>
<text text-anchor="middle" x="3321" y="-119.5" font-family="Helvetica,sans-Serif" font-size="10.00">_time/posix_time.hpp</text>
</a>
</g>
</g>
<!-- Node59&#45;&gt;Node61 -->
<g id="edge43" class="edge">
<title>Node59&#45;&gt;Node61</title>
<path fill="none" stroke="midnightblue" d="M1792.14,-184.99C1800.3,-182.6 1809.45,-180.3 1818,-179 2129.47,-131.59 2917.34,-178.02 3248.24,-143.03"/>
<polygon fill="midnightblue" stroke="midnightblue" points="3248.82,-146.48 3258.38,-141.91 3248.05,-139.53 3248.82,-146.48"/>
</g>
<!-- Node62 -->
<g id="node32" class="node">
<title>Node62</title>
<g id="a_node32"><a xlink:title=" ">
<polygon fill="white" stroke="#bfbfbf" points="3401.5,-112.5 3401.5,-142.5 3556.5,-142.5 3556.5,-112.5 3401.5,-112.5"/>
<text text-anchor="start" x="3409.5" y="-130.5" font-family="Helvetica,sans-Serif" font-size="10.00">boost/date_time/posix</text>
<text text-anchor="middle" x="3479" y="-119.5" font-family="Helvetica,sans-Serif" font-size="10.00">_time/posix_time_types.hpp</text>
</a>
</g>
</g>
<!-- Node59&#45;&gt;Node62 -->
<g id="edge44" class="edge">
<title>Node59&#45;&gt;Node62</title>
<path fill="none" stroke="midnightblue" d="M1792.14,-184.98C1800.3,-182.59 1809.44,-180.29 1818,-179 2160.95,-127.19 3028.2,-175.28 3391.19,-143.05"/>
<polygon fill="midnightblue" stroke="midnightblue" points="3391.61,-146.53 3401.25,-142.13 3390.97,-139.56 3391.61,-146.53"/>
</g>
<!-- Node63 -->
<g id="node33" class="node">
<title>Node63</title>
<g id="a_node33"><a xlink:title=" ">
<polygon fill="white" stroke="#bfbfbf" points="3574.5,-118 3574.5,-137 3707.5,-137 3707.5,-118 3574.5,-118"/>
<text text-anchor="middle" x="3641" y="-125" font-family="Helvetica,sans-Serif" font-size="10.00">boost/log/attributes.hpp</text>
</a>
</g>
</g>
<!-- Node59&#45;&gt;Node63 -->
<g id="edge45" class="edge">
<title>Node59&#45;&gt;Node63</title>
<path fill="none" stroke="midnightblue" d="M1792.14,-184.97C1800.29,-182.58 1809.44,-180.28 1818,-179 2202.23,-121.4 3179.65,-184.02 3566,-143 3574.91,-142.05 3584.34,-140.6 3593.4,-138.96"/>
<polygon fill="midnightblue" stroke="midnightblue" points="3594.25,-142.37 3603.42,-137.07 3592.94,-135.49 3594.25,-142.37"/>
</g>
<!-- Node64 -->
<g id="node34" class="node">
<title>Node64</title>
<g id="a_node34"><a xlink:title=" ">
<polygon fill="white" stroke="#bfbfbf" points="3726,-112.5 3726,-142.5 3848,-142.5 3848,-112.5 3726,-112.5"/>
<text text-anchor="start" x="3734" y="-130.5" font-family="Helvetica,sans-Serif" font-size="10.00">boost/log/attributes</text>
<text text-anchor="middle" x="3787" y="-119.5" font-family="Helvetica,sans-Serif" font-size="10.00">/scoped_attribute.hpp</text>
</a>
</g>
</g>
<!-- Node59&#45;&gt;Node64 -->
<g id="edge46" class="edge">
<title>Node59&#45;&gt;Node64</title>
<path fill="none" stroke="midnightblue" d="M1792.14,-184.96C1800.29,-182.57 1809.44,-180.28 1818,-179 2232.2,-117.26 3280.99,-188.87 3715.49,-142.99"/>
<polygon fill="midnightblue" stroke="midnightblue" points="3716.08,-146.44 3725.64,-141.88 3715.32,-139.48 3716.08,-146.44"/>
</g>
<!-- Node65 -->
<g id="node35" class="node">
<title>Node65</title>
<g id="a_node35"><a xlink:title=" ">
<polygon fill="white" stroke="#bfbfbf" points="3866.5,-118 3866.5,-137 3973.5,-137 3973.5,-118 3866.5,-118"/>
<text text-anchor="middle" x="3920" y="-125" font-family="Helvetica,sans-Serif" font-size="10.00">boost/log/core.hpp</text>
</a>
</g>
</g>
<!-- Node59&#45;&gt;Node65 -->
<g id="edge47" class="edge">
<title>Node59&#45;&gt;Node65</title>
<path fill="none" stroke="midnightblue" d="M1792.14,-184.96C1800.29,-182.56 1809.44,-180.27 1818,-179 2266.27,-112.47 3407.18,-198.12 3857,-143 3864.04,-142.14 3871.43,-140.82 3878.59,-139.32"/>
<polygon fill="midnightblue" stroke="midnightblue" points="3879.83,-142.63 3888.82,-137.03 3878.3,-135.8 3879.83,-142.63"/>
</g>
<!-- Node66 -->
<g id="node36" class="node">
<title>Node66</title>
<g id="a_node36"><a xlink:title=" ">
<polygon fill="white" stroke="#bfbfbf" points="773,-118 773,-137 917,-137 917,-118 773,-118"/>
<text text-anchor="middle" x="845" y="-125" font-family="Helvetica,sans-Serif" font-size="10.00">boost/log/expressions.hpp</text>
</a>
</g>
</g>
<!-- Node59&#45;&gt;Node66 -->
<g id="edge48" class="edge">
<title>Node59&#45;&gt;Node66</title>
<path fill="none" stroke="midnightblue" d="M1725.28,-192.72C1602.42,-190.06 1231.37,-179.37 926,-143 916.73,-141.9 906.91,-140.41 897.43,-138.81"/>
<polygon fill="midnightblue" stroke="midnightblue" points="897.77,-135.32 887.32,-137.04 896.57,-142.21 897.77,-135.32"/>
</g>
<!-- Node67 -->
<g id="node37" class="node">
<title>Node67</title>
<g id="a_node37"><a xlink:title=" ">
<polygon fill="white" stroke="#bfbfbf" points="935,-112.5 935,-142.5 1051,-142.5 1051,-112.5 935,-112.5"/>
<text text-anchor="start" x="943" y="-130.5" font-family="Helvetica,sans-Serif" font-size="10.00">boost/log/sinks/sync</text>
<text text-anchor="middle" x="993" y="-119.5" font-family="Helvetica,sans-Serif" font-size="10.00">_frontend.hpp</text>
</a>
</g>
</g>
<!-- Node59&#45;&gt;Node67 -->
<g id="edge49" class="edge">
<title>Node59&#45;&gt;Node67</title>
<path fill="none" stroke="midnightblue" d="M1725.34,-192.59C1617.21,-189.77 1318.65,-179.2 1060.93,-142.99"/>
<polygon fill="midnightblue" stroke="midnightblue" points="1061.41,-139.52 1051.01,-141.58 1060.42,-146.45 1061.41,-139.52"/>
</g>
<!-- Node68 -->
<g id="node38" class="node">
<title>Node68</title>
<g id="a_node38"><a xlink:title=" ">
<polygon fill="white" stroke="#bfbfbf" points="1069.5,-112.5 1069.5,-142.5 1198.5,-142.5 1198.5,-112.5 1069.5,-112.5"/>
<text text-anchor="start" x="1077.5" y="-130.5" font-family="Helvetica,sans-Serif" font-size="10.00">boost/log/sinks/text</text>
<text text-anchor="middle" x="1134" y="-119.5" font-family="Helvetica,sans-Serif" font-size="10.00">_ostream_backend.hpp</text>
</a>
</g>
</g>
<!-- Node59&#45;&gt;Node68 -->
<g id="edge50" class="edge">
<title>Node59&#45;&gt;Node68</title>
<path fill="none" stroke="midnightblue" d="M1725.38,-191.26C1633.72,-186.01 1407.44,-171.26 1208.85,-143.18"/>
<polygon fill="midnightblue" stroke="midnightblue" points="1209.21,-139.7 1198.82,-141.75 1208.22,-146.62 1209.21,-139.7"/>
</g>
<!-- Node69 -->
<g id="node39" class="node">
<title>Node69</title>
<g id="a_node39"><a xlink:title=" ">
<polygon fill="white" stroke="#bfbfbf" points="1216.5,-112.5 1216.5,-142.5 1347.5,-142.5 1347.5,-112.5 1216.5,-112.5"/>
<text text-anchor="start" x="1224.5" y="-130.5" font-family="Helvetica,sans-Serif" font-size="10.00">boost/log/sources/basic</text>
<text text-anchor="middle" x="1282" y="-119.5" font-family="Helvetica,sans-Serif" font-size="10.00">_logger.hpp</text>
</a>
</g>
</g>
<!-- Node59&#45;&gt;Node69 -->
<g id="edge51" class="edge">
<title>Node59&#45;&gt;Node69</title>
<path fill="none" stroke="midnightblue" d="M1725.26,-189.31C1652.72,-181.83 1498.51,-165 1357.9,-143.07"/>
<polygon fill="midnightblue" stroke="midnightblue" points="1358.23,-139.58 1347.81,-141.49 1357.14,-146.5 1358.23,-139.58"/>
</g>
<!-- Node70 -->
<g id="node40" class="node">
<title>Node70</title>
<g id="a_node40"><a xlink:title=" ">
<polygon fill="white" stroke="#bfbfbf" points="1366,-118 1366,-137 1522,-137 1522,-118 1366,-118"/>
<text text-anchor="middle" x="1444" y="-125" font-family="Helvetica,sans-Serif" font-size="10.00">boost/log/sources/logger.hpp</text>
</a>
</g>
</g>
<!-- Node59&#45;&gt;Node70 -->
<g id="edge52" class="edge">
<title>Node59&#45;&gt;Node70</title>
<path fill="none" stroke="midnightblue" d="M1725.43,-185.14C1666.89,-173.35 1560.16,-151.88 1496.3,-139.02"/>
<polygon fill="midnightblue" stroke="midnightblue" points="1496.93,-135.58 1486.43,-137.04 1495.54,-142.44 1496.93,-135.58"/>
</g>
<!-- Node71 -->
<g id="node41" class="node">
<title>Node71</title>
<g id="a_node41"><a xlink:title=" ">
<polygon fill="white" stroke="#bfbfbf" points="1540,-112.5 1540,-142.5 1676,-142.5 1676,-112.5 1540,-112.5"/>
<text text-anchor="start" x="1548" y="-130.5" font-family="Helvetica,sans-Serif" font-size="10.00">boost/log/sources/record</text>
<text text-anchor="middle" x="1608" y="-119.5" font-family="Helvetica,sans-Serif" font-size="10.00">_ostream.hpp</text>
</a>
</g>
</g>
<!-- Node59&#45;&gt;Node71 -->
<g id="edge53" class="edge">
<title>Node59&#45;&gt;Node71</title>
<path fill="none" stroke="midnightblue" d="M1745.89,-184.87C1722.03,-175.12 1682.53,-158.97 1651.91,-146.45"/>
<polygon fill="midnightblue" stroke="midnightblue" points="1652.9,-143.07 1642.31,-142.53 1650.25,-149.55 1652.9,-143.07"/>
</g>
<!-- Node72 -->
<g id="node42" class="node">
<title>Node72</title>
<g id="a_node42"><a xlink:title=" ">
<polygon fill="white" stroke="#bfbfbf" points="1694.5,-112.5 1694.5,-142.5 1839.5,-142.5 1839.5,-112.5 1694.5,-112.5"/>
<text text-anchor="start" x="1702.5" y="-130.5" font-family="Helvetica,sans-Serif" font-size="10.00">boost/log/sources/severity</text>
<text text-anchor="middle" x="1767" y="-119.5" font-family="Helvetica,sans-Serif" font-size="10.00">_channel_logger.hpp</text>
</a>
</g>
</g>
<!-- Node59&#45;&gt;Node72 -->
<g id="edge54" class="edge">
<title>Node59&#45;&gt;Node72</title>
<path fill="none" stroke="midnightblue" d="M1767,-184.73C1767,-176.54 1767,-163.92 1767,-152.71"/>
<polygon fill="midnightblue" stroke="midnightblue" points="1770.5,-152.59 1767,-142.59 1763.5,-152.59 1770.5,-152.59"/>
</g>
<!-- Node73 -->
<g id="node43" class="node">
<title>Node73</title>
<g id="a_node43"><a xlink:title=" ">
<polygon fill="white" stroke="#bfbfbf" points="1857.5,-112.5 1857.5,-142.5 2002.5,-142.5 2002.5,-112.5 1857.5,-112.5"/>
<text text-anchor="start" x="1865.5" y="-130.5" font-family="Helvetica,sans-Serif" font-size="10.00">boost/log/sources/severity</text>
<text text-anchor="middle" x="1930" y="-119.5" font-family="Helvetica,sans-Serif" font-size="10.00">_logger.hpp</text>
</a>
</g>
</g>
<!-- Node59&#45;&gt;Node73 -->
<g id="edge55" class="edge">
<title>Node59&#45;&gt;Node73</title>
<path fill="none" stroke="midnightblue" d="M1788.65,-184.87C1813.21,-175.07 1853.94,-158.83 1885.39,-146.29"/>
<polygon fill="midnightblue" stroke="midnightblue" points="1886.83,-149.48 1894.82,-142.53 1884.24,-142.98 1886.83,-149.48"/>
</g>
<!-- Node74 -->
<g id="node44" class="node">
<title>Node74</title>
<g id="a_node44"><a xlink:title=" ">
<polygon fill="white" stroke="#bfbfbf" points="2021,-112.5 2021,-142.5 2147,-142.5 2147,-112.5 2021,-112.5"/>
<text text-anchor="start" x="2029" y="-130.5" font-family="Helvetica,sans-Serif" font-size="10.00">boost/log/support/date</text>
<text text-anchor="middle" x="2084" y="-119.5" font-family="Helvetica,sans-Serif" font-size="10.00">_time.hpp</text>
</a>
</g>
</g>
<!-- Node59&#45;&gt;Node74 -->
<g id="edge56" class="edge">
<title>Node59&#45;&gt;Node74</title>
<path fill="none" stroke="midnightblue" d="M1795.2,-184.97C1802.59,-182.88 1810.56,-180.74 1818,-179 1900.3,-159.71 1924.19,-159.64 2010.79,-143.2"/>
<polygon fill="midnightblue" stroke="midnightblue" points="2011.63,-146.61 2020.79,-141.29 2010.31,-139.73 2011.63,-146.61"/>
</g>
<!-- Node75 -->
<g id="node45" class="node">
<title>Node75</title>
<g id="a_node45"><a xlink:title=" ">
<polygon fill="white" stroke="#bfbfbf" points="2165,-118 2165,-137 2279,-137 2279,-118 2165,-118"/>
<text text-anchor="middle" x="2222" y="-125" font-family="Helvetica,sans-Serif" font-size="10.00">boost/log/trivial.hpp</text>
</a>
</g>
</g>
<!-- Node59&#45;&gt;Node75 -->
<g id="edge57" class="edge">
<title>Node59&#45;&gt;Node75</title>
<path fill="none" stroke="midnightblue" d="M1793.79,-184.95C1801.54,-182.74 1810.05,-180.54 1818,-179 1966.31,-150.24 2006.89,-167.25 2156,-143 2162.69,-141.91 2169.72,-140.58 2176.6,-139.16"/>
<polygon fill="midnightblue" stroke="midnightblue" points="2177.46,-142.56 2186.52,-137.05 2176.01,-135.71 2177.46,-142.56"/>
</g>
<!-- Node76 -->
<g id="node46" class="node">
<title>Node76</title>
<g id="a_node46"><a xlink:title=" ">
<polygon fill="white" stroke="#bfbfbf" points="2297,-112.5 2297,-142.5 2433,-142.5 2433,-112.5 2297,-112.5"/>
<text text-anchor="start" x="2305" y="-130.5" font-family="Helvetica,sans-Serif" font-size="10.00">boost/log/utility/setup</text>
<text text-anchor="middle" x="2365" y="-119.5" font-family="Helvetica,sans-Serif" font-size="10.00">/common_attributes.hpp</text>
</a>
</g>
</g>
<!-- Node59&#45;&gt;Node76 -->
<g id="edge58" class="edge">
<title>Node59&#45;&gt;Node76</title>
<path fill="none" stroke="midnightblue" d="M1793.23,-184.95C1801.12,-182.68 1809.84,-180.46 1818,-179 2021.02,-142.74 2078.51,-169.56 2286.6,-143.08"/>
<polygon fill="midnightblue" stroke="midnightblue" points="2287.16,-146.54 2296.63,-141.78 2286.26,-139.59 2287.16,-146.54"/>
</g>
<!-- Node77 -->
<g id="node47" class="node">
<title>Node77</title>
<g id="a_node47"><a xlink:title=" ">
<polygon fill="white" stroke="#bfbfbf" points="2451.5,-112.5 2451.5,-142.5 2574.5,-142.5 2574.5,-112.5 2451.5,-112.5"/>
<text text-anchor="start" x="2459.5" y="-130.5" font-family="Helvetica,sans-Serif" font-size="10.00">boost/log/utility/setup</text>
<text text-anchor="middle" x="2513" y="-119.5" font-family="Helvetica,sans-Serif" font-size="10.00">/file.hpp</text>
</a>
</g>
</g>
<!-- Node59&#45;&gt;Node77 -->
<g id="edge59" class="edge">
<title>Node59&#45;&gt;Node77</title>
<path fill="none" stroke="midnightblue" d="M1792.96,-184.93C1800.91,-182.63 1809.74,-180.4 1818,-179 2088.71,-133.28 2164.76,-177.82 2441.21,-142.95"/>
<polygon fill="midnightblue" stroke="midnightblue" points="2441.66,-146.43 2451.13,-141.68 2440.77,-139.48 2441.66,-146.43"/>
</g>
<!-- Node78 -->
<g id="node48" class="node">
<title>Node78</title>
<g id="a_node48"><a xlink:title=" ">
<polygon fill="white" stroke="#bfbfbf" points="2592.5,-112.5 2592.5,-142.5 2715.5,-142.5 2715.5,-112.5 2592.5,-112.5"/>
<text text-anchor="start" x="2600.5" y="-130.5" font-family="Helvetica,sans-Serif" font-size="10.00">boost/log/utility/value</text>
<text text-anchor="middle" x="2654" y="-119.5" font-family="Helvetica,sans-Serif" font-size="10.00">_ref.hpp</text>
</a>
</g>
</g>
<!-- Node59&#45;&gt;Node78 -->
<g id="edge60" class="edge">
<title>Node59&#45;&gt;Node78</title>
<path fill="none" stroke="midnightblue" d="M1792.68,-184.95C1800.7,-182.62 1809.64,-180.37 1818,-179 2151.07,-124.57 2244.05,-184.5 2582.18,-143.09"/>
<polygon fill="midnightblue" stroke="midnightblue" points="2582.76,-146.55 2592.25,-141.84 2581.9,-139.6 2582.76,-146.55"/>
</g>
<!-- Node79 -->
<g id="node49" class="node">
<title>Node79</title>
<g id="a_node49"><a xlink:title=" ">
<polygon fill="white" stroke="#bfbfbf" points="2733.5,-118 2733.5,-137 2864.5,-137 2864.5,-118 2733.5,-118"/>
<text text-anchor="middle" x="2799" y="-125" font-family="Helvetica,sans-Serif" font-size="10.00">boost/phoenix/bind.hpp</text>
</a>
</g>
</g>
<!-- Node59&#45;&gt;Node79 -->
<g id="edge61" class="edge">
<title>Node59&#45;&gt;Node79</title>
<path fill="none" stroke="midnightblue" d="M1792.42,-184.99C1800.5,-182.63 1809.55,-180.35 1818,-179 2216.38,-115.39 2324.31,-189.93 2725,-143 2733.6,-141.99 2742.69,-140.54 2751.45,-138.94"/>
<polygon fill="midnightblue" stroke="midnightblue" points="2752.37,-142.32 2761.53,-137 2751.05,-135.45 2752.37,-142.32"/>
</g>
<!-- Node80 -->
<g id="node50" class="node">
<title>Node80</title>
<g id="a_node50"><a xlink:title=" ">
<polygon fill="white" stroke="#bfbfbf" points="2883,-112.5 2883,-142.5 3007,-142.5 3007,-112.5 2883,-112.5"/>
<text text-anchor="start" x="2891" y="-130.5" font-family="Helvetica,sans-Serif" font-size="10.00">boost/smart_ptr/make</text>
<text text-anchor="middle" x="2945" y="-119.5" font-family="Helvetica,sans-Serif" font-size="10.00">_shared_object.hpp</text>
</a>
</g>
</g>
<!-- Node59&#45;&gt;Node80 -->
<g id="edge62" class="edge">
<title>Node59&#45;&gt;Node80</title>
<path fill="none" stroke="midnightblue" d="M1792.41,-184.96C1800.5,-182.6 1809.54,-180.33 1818,-179 2278.65,-106.77 2405.85,-196.88 2872.72,-143"/>
<polygon fill="midnightblue" stroke="midnightblue" points="2873.23,-146.46 2882.76,-141.83 2872.42,-139.51 2873.23,-146.46"/>
</g>
</g>
</svg>
        <g id="navigator" transform="translate(0 0)" fill="#404254">
                <rect fill="#f2f5e9" fill-opacity="0.5" stroke="#606060" stroke-width=".5" x="0" y="0" width="60" height="60"/>
                <use id="zoomplus" xlink:href="#zoomPlus" x="17" y="9" onmousedown="handleZoom(evt,'in')"/>
                <use id="zoomminus" xlink:href="#zoomMin" x="42" y="9" onmousedown="handleZoom(evt,'out')"/>
                <use id="reset" xlink:href="#resetDef" x="30" y="36" onmousedown="handleReset()"/>
                <g id="arrowUp" xlink:href="#dirArrow" transform="translate(30 24)" onmousedown="handlePan(0,-1)">
                  <use xlink:href="#rim" fill="#404040">
                        <set attributeName="fill" to="#808080" begin="arrowUp.mouseover" end="arrowUp.mouseout"/>
                  </use>
                  <path fill="none" stroke="white" stroke-width="1.5" d="M0,-3.0v7 M-2.5,-0.5L0,-3.0L2.5,-0.5"/>
                </g>
                <g id="arrowRight" xlink:href="#dirArrow" transform="rotate(90) translate(36 -43)" onmousedown="handlePan(1,0)">
                  <use xlink:href="#rim" fill="#404040">
                        <set attributeName="fill" to="#808080" begin="arrowRight.mouseover" end="arrowRight.mouseout"/>
                  </use>
                  <path fill="none" stroke="white" stroke-width="1.5" d="M0,-3.0v7 M-2.5,-0.5L0,-3.0L2.5,-0.5"/>
                </g>
                <g id="arrowDown" xlink:href="#dirArrow" transform="rotate(180) translate(-30 -48)" onmousedown="handlePan(0,1)">
                  <use xlink:href="#rim" fill="#404040">
                        <set attributeName="fill" to="#808080" begin="arrowDown.mouseover" end="arrowDown.mouseout"/>
                  </use>
                  <path fill="none" stroke="white" stroke-width="1.5" d="M0,-3.0v7 M-2.5,-0.5L0,-3.0L2.5,-0.5"/>
                </g>
                <g id="arrowLeft" xlink:href="#dirArrow" transform="rotate(270) translate(-36 17)" onmousedown="handlePan(-1,0)">
                  <use xlink:href="#rim" fill="#404040">
                        <set attributeName="fill" to="#808080" begin="arrowLeft.mouseover" end="arrowLeft.mouseout"/>
                  </use>
                  <path fill="none" stroke="white" stroke-width="1.5" d="M0,-3.0v7 M-2.5,-0.5L0,-3.0L2.5,-0.5"/>
                </g>
        </g>
        <svg viewBox="0 0 15 15" width="100%" height="30px" preserveAspectRatio="xMaxYMin meet">
         <g id="arrow_out" transform="scale(0.3 0.3)">
          <a xlink:href="mocap_8cpp__incl_org.svg" target="_base">
           <rect id="button" ry="5" rx="5" y="6" x="6" height="38" width="38"
                fill="#f2f5e9" fill-opacity="0.5" stroke="#606060" stroke-width="1.0"/>
           <path id="arrow"
             d="M 11.500037,31.436501 C 11.940474,20.09759 22.043105,11.32322 32.158766,21.979434 L 37.068811,17.246167 C 37.068811,17.246167 37.088388,32 37.088388,32 L 22.160133,31.978069 C 22.160133,31.978069 26.997745,27.140456 26.997745,27.140456 C 18.528582,18.264221 13.291696,25.230495 11.500037,31.436501 z"
             style="fill:#404040;"/>
          </a>
         </g>
        </svg>
</svg>
