<?xml version="1.0" encoding="UTF-8" standalone="no"?>
<!DOCTYPE svg PUBLIC "-//W3C//DTD SVG 1.1//EN"
 "http://www.w3.org/Graphics/SVG/1.1/DTD/svg11.dtd">
<!-- Generated by graphviz version 2.43.0 (0)
 -->
<!-- Title: ACSL&#45;flightstack&#45;winged/src/acsl_flight/include/mocap/mocap.hpp Pages: 1 -->
<svg width="4911pt" height="296pt"
 viewBox="0.00 0.00 4911.00 296.00" xmlns="http://www.w3.org/2000/svg" xmlns:xlink="http://www.w3.org/1999/xlink">
<g id="graph0" class="graph" transform="scale(1 1) rotate(0) translate(4 292)">
<title>ACSL&#45;flightstack&#45;winged/src/acsl_flight/include/mocap/mocap.hpp</title>
<polygon fill="white" stroke="transparent" points="-4,4 -4,-292 4907,-292 4907,4 -4,4"/>
<!-- Node1 -->
<g id="node1" class="node">
<title>Node1</title>
<g id="a_node1"><a xlink:title="Class declaration for UDP socket as a lifecycle node.">
<polygon fill="#bfbfbf" stroke="black" points="3952.5,-246.5 3952.5,-287.5 4087.5,-287.5 4087.5,-246.5 3952.5,-246.5"/>
<text text-anchor="start" x="3960.5" y="-275.5" font-family="Helvetica,sans-Serif" font-size="10.00">ACSL&#45;flightstack&#45;winged</text>
<text text-anchor="start" x="3960.5" y="-264.5" font-family="Helvetica,sans-Serif" font-size="10.00">/src/acsl_flight/include</text>
<text text-anchor="middle" x="4020" y="-253.5" font-family="Helvetica,sans-Serif" font-size="10.00">/mocap/mocap.hpp</text>
</a>
</g>
</g>
<!-- Node2 -->
<g id="node2" class="node">
<title>Node2</title>
<g id="a_node2"><a xlink:href="udp__driver_8hpp.html" target="_top" xlink:title="Class decleration for UDP driver.">
<polygon fill="white" stroke="black" points="230.5,-185 230.5,-204 319.5,-204 319.5,-185 230.5,-185"/>
<text text-anchor="middle" x="275" y="-192" font-family="Helvetica,sans-Serif" font-size="10.00">udp_driver.hpp</text>
</a>
</g>
</g>
<!-- Node1&#45;&gt;Node2 -->
<g id="edge1" class="edge">
<title>Node1&#45;&gt;Node2</title>
<path fill="none" stroke="midnightblue" d="M3952.41,-265.64C3483.77,-263.02 725.71,-246.18 355,-210 345.2,-209.04 334.8,-207.53 324.85,-205.84"/>
<polygon fill="midnightblue" stroke="midnightblue" points="325.16,-202.34 314.7,-204.02 323.93,-209.23 325.16,-202.34"/>
</g>
<!-- Node4 -->
<g id="node4" class="node">
<title>Node4</title>
<g id="a_node4"><a xlink:title=" ">
<polygon fill="white" stroke="#bfbfbf" points="303,-118 303,-137 361,-137 361,-118 303,-118"/>
<text text-anchor="middle" x="332" y="-125" font-family="Helvetica,sans-Serif" font-size="10.00">memory</text>
</a>
</g>
</g>
<!-- Node1&#45;&gt;Node4 -->
<g id="edge21" class="edge">
<title>Node1&#45;&gt;Node4</title>
<path fill="none" stroke="midnightblue" d="M3952.4,-265.68C3464.12,-263.27 493.26,-247.09 409,-210 378.84,-196.72 354.89,-165.36 342.14,-145.64"/>
<polygon fill="midnightblue" stroke="midnightblue" points="345.04,-143.68 336.79,-137.03 339.09,-147.37 345.04,-143.68"/>
</g>
<!-- Node5 -->
<g id="node5" class="node">
<title>Node5</title>
<g id="a_node5"><a xlink:title=" ">
<polygon fill="white" stroke="#bfbfbf" points="0,-0.5 0,-19.5 44,-19.5 44,-0.5 0,-0.5"/>
<text text-anchor="middle" x="22" y="-7.5" font-family="Helvetica,sans-Serif" font-size="10.00">string</text>
</a>
</g>
</g>
<!-- Node1&#45;&gt;Node5 -->
<g id="edge22" class="edge">
<title>Node1&#45;&gt;Node5</title>
<path fill="none" stroke="midnightblue" d="M3952.36,-265.7C3445.3,-263.39 256.21,-247.39 165,-210 90.75,-179.57 81.66,-146.86 44,-76 36.14,-61.21 30.27,-43.05 26.59,-29.69"/>
<polygon fill="midnightblue" stroke="midnightblue" points="29.91,-28.57 24,-19.78 23.14,-30.34 29.91,-28.57"/>
</g>
<!-- Node8 -->
<g id="node7" class="node">
<title>Node8</title>
<g id="a_node7"><a xlink:title=" ">
<polygon fill="white" stroke="#bfbfbf" points="2143.5,-56.5 2143.5,-75.5 2190.5,-75.5 2190.5,-56.5 2143.5,-56.5"/>
<text text-anchor="middle" x="2167" y="-63.5" font-family="Helvetica,sans-Serif" font-size="10.00">vector</text>
</a>
</g>
</g>
<!-- Node1&#45;&gt;Node8 -->
<g id="edge23" class="edge">
<title>Node1&#45;&gt;Node8</title>
<path fill="none" stroke="midnightblue" d="M4024.49,-246.35C4030.8,-213.07 4037.67,-145.92 4000,-112 3965.24,-80.7 2448.02,-68.93 2200.87,-67.22"/>
<polygon fill="midnightblue" stroke="midnightblue" points="2200.72,-63.72 2190.7,-67.15 2200.67,-70.72 2200.72,-63.72"/>
</g>
<!-- Node14 -->
<g id="node8" class="node">
<title>Node14</title>
<g id="a_node8"><a xlink:href="global__helpers_8hpp.html" target="_top" xlink:title="Inline functions for all the classes of the flighstack to use.">
<polygon fill="white" stroke="black" points="99.5,-56.5 99.5,-75.5 208.5,-75.5 208.5,-56.5 99.5,-56.5"/>
<text text-anchor="middle" x="154" y="-63.5" font-family="Helvetica,sans-Serif" font-size="10.00">global_helpers.hpp</text>
</a>
</g>
</g>
<!-- Node1&#45;&gt;Node14 -->
<g id="edge19" class="edge">
<title>Node1&#45;&gt;Node14</title>
<path fill="none" stroke="midnightblue" d="M3952.16,-265.66C3448.75,-263.03 311.43,-245.27 221,-210 179.36,-193.76 164.26,-183.8 146,-143 137.81,-124.7 142.08,-101.52 146.95,-85.6"/>
<polygon fill="midnightblue" stroke="midnightblue" points="150.35,-86.48 150.27,-75.89 143.72,-84.22 150.35,-86.48"/>
</g>
<!-- Node15 -->
<g id="node9" class="node">
<title>Node15</title>
<g id="a_node9"><a xlink:title=" ">
<polygon fill="white" stroke="#bfbfbf" points="4030,-0.5 4030,-19.5 4086,-19.5 4086,-0.5 4030,-0.5"/>
<text text-anchor="middle" x="4058" y="-7.5" font-family="Helvetica,sans-Serif" font-size="10.00">sstream</text>
</a>
</g>
</g>
<!-- Node1&#45;&gt;Node15 -->
<g id="edge24" class="edge">
<title>Node1&#45;&gt;Node15</title>
<path fill="none" stroke="midnightblue" d="M4029.98,-246.25C4034.91,-235.73 4040.52,-222.43 4044,-210 4062.59,-143.59 4066.81,-124.86 4063,-56 4062.52,-47.36 4061.53,-37.83 4060.55,-29.77"/>
<polygon fill="midnightblue" stroke="midnightblue" points="4063.99,-29.07 4059.24,-19.6 4057.05,-29.97 4063.99,-29.07"/>
</g>
<!-- Node18 -->
<g id="node12" class="node">
<title>Node18</title>
<g id="a_node12"><a xlink:href="control__config_8hpp.html" target="_top" xlink:title="Just a header file for configuring which platform and controller to pick during compilation.">
<polygon fill="white" stroke="black" points="4086,-185 4086,-204 4192,-204 4192,-185 4086,-185"/>
<text text-anchor="middle" x="4139" y="-192" font-family="Helvetica,sans-Serif" font-size="10.00">control_config.hpp</text>
</a>
</g>
</g>
<!-- Node1&#45;&gt;Node18 -->
<g id="edge15" class="edge">
<title>Node1&#45;&gt;Node18</title>
<path fill="none" stroke="midnightblue" d="M4053.15,-246.36C4073.06,-234.57 4097.91,-219.85 4115.74,-209.28"/>
<polygon fill="midnightblue" stroke="midnightblue" points="4117.54,-212.28 4124.36,-204.17 4113.97,-206.26 4117.54,-212.28"/>
</g>
<!-- Node29 -->
<g id="node14" class="node">
<title>Node29</title>
<g id="a_node14"><a xlink:href="px4__defines_8hpp.html" target="_top" xlink:title="Contains useful constant defines for use in the flight stack in a central location.">
<polygon fill="white" stroke="black" points="4210,-185 4210,-204 4306,-204 4306,-185 4210,-185"/>
<text text-anchor="middle" x="4258" y="-192" font-family="Helvetica,sans-Serif" font-size="10.00">px4_defines.hpp</text>
</a>
</g>
</g>
<!-- Node1&#45;&gt;Node29 -->
<g id="edge17" class="edge">
<title>Node1&#45;&gt;Node29</title>
<path fill="none" stroke="midnightblue" d="M4085.98,-246.46C4128.99,-233.72 4183.6,-217.54 4219.62,-206.87"/>
<polygon fill="midnightblue" stroke="midnightblue" points="4220.67,-210.21 4229.26,-204.01 4218.68,-203.5 4220.67,-210.21"/>
</g>
<!-- Node47 -->
<g id="node16" class="node">
<title>Node47</title>
<g id="a_node16"><a xlink:title=" ">
<polygon fill="white" stroke="#bfbfbf" points="513,-118 513,-137 563,-137 563,-118 513,-118"/>
<text text-anchor="middle" x="538" y="-125" font-family="Helvetica,sans-Serif" font-size="10.00">chrono</text>
</a>
</g>
</g>
<!-- Node1&#45;&gt;Node47 -->
<g id="edge20" class="edge">
<title>Node1&#45;&gt;Node47</title>
<path fill="none" stroke="midnightblue" d="M3952.43,-265.91C3517.68,-265.17 1122.36,-258.9 801,-210 696.16,-194.05 671.84,-178.75 572,-143 570.14,-142.33 568.24,-141.62 566.33,-140.88"/>
<polygon fill="midnightblue" stroke="midnightblue" points="567.48,-137.57 556.9,-137.03 564.84,-144.05 567.48,-137.57"/>
</g>
<!-- Node83 -->
<g id="node17" class="node">
<title>Node83</title>
<g id="a_node17"><a xlink:title=" ">
<polygon fill="white" stroke="#bfbfbf" points="4324.5,-185 4324.5,-204 4353.5,-204 4353.5,-185 4324.5,-185"/>
<text text-anchor="middle" x="4339" y="-192" font-family="Helvetica,sans-Serif" font-size="10.00">bit</text>
</a>
</g>
</g>
<!-- Node1&#45;&gt;Node83 -->
<g id="edge25" class="edge">
<title>Node1&#45;&gt;Node83</title>
<path fill="none" stroke="midnightblue" d="M4087.77,-260.05C4148.8,-253.09 4240.15,-238.65 4315,-210 4315.88,-209.67 4316.75,-209.3 4317.63,-208.91"/>
<polygon fill="midnightblue" stroke="midnightblue" points="4319.55,-211.85 4326.73,-204.06 4316.26,-205.67 4319.55,-211.85"/>
</g>
<!-- Node45 -->
<g id="node18" class="node">
<title>Node45</title>
<g id="a_node18"><a xlink:title=" ">
<polygon fill="white" stroke="#bfbfbf" points="581,-118 581,-137 625,-137 625,-118 581,-118"/>
<text text-anchor="middle" x="603" y="-125" font-family="Helvetica,sans-Serif" font-size="10.00">ctime</text>
</a>
</g>
</g>
<!-- Node1&#45;&gt;Node45 -->
<g id="edge26" class="edge">
<title>Node1&#45;&gt;Node45</title>
<path fill="none" stroke="midnightblue" d="M3952.46,-264.56C3700.3,-259.1 2789.99,-238.47 2040,-210 1414.85,-186.27 1241.28,-293.26 634,-143 632.01,-142.51 629.99,-141.88 627.99,-141.18"/>
<polygon fill="midnightblue" stroke="midnightblue" points="628.91,-137.76 618.33,-137.11 626.19,-144.22 628.91,-137.76"/>
</g>
<!-- Node84 -->
<g id="node19" class="node">
<title>Node84</title>
<g id="a_node19"><a xlink:title=" ">
<polygon fill="white" stroke="#bfbfbf" points="4371.5,-185 4371.5,-204 4470.5,-204 4470.5,-185 4371.5,-185"/>
<text text-anchor="middle" x="4421" y="-192" font-family="Helvetica,sans-Serif" font-size="10.00">rclcpp/rclcpp.hpp</text>
</a>
</g>
</g>
<!-- Node1&#45;&gt;Node84 -->
<g id="edge27" class="edge">
<title>Node1&#45;&gt;Node84</title>
<path fill="none" stroke="midnightblue" d="M4087.67,-256.65C4157.07,-246.66 4268.01,-229.59 4363,-210 4368.14,-208.94 4373.52,-207.73 4378.83,-206.48"/>
<polygon fill="midnightblue" stroke="midnightblue" points="4380.01,-209.79 4388.9,-204.03 4378.35,-202.99 4380.01,-209.79"/>
</g>
<!-- Node85 -->
<g id="node20" class="node">
<title>Node85</title>
<g id="a_node20"><a xlink:title=" ">
<polygon fill="white" stroke="#bfbfbf" points="4488.5,-179.5 4488.5,-209.5 4625.5,-209.5 4625.5,-179.5 4488.5,-179.5"/>
<text text-anchor="start" x="4496.5" y="-197.5" font-family="Helvetica,sans-Serif" font-size="10.00">rclcpp_lifecycle/lifecycle</text>
<text text-anchor="middle" x="4557" y="-186.5" font-family="Helvetica,sans-Serif" font-size="10.00">_node.hpp</text>
</a>
</g>
</g>
<!-- Node1&#45;&gt;Node85 -->
<g id="edge28" class="edge">
<title>Node1&#45;&gt;Node85</title>
<path fill="none" stroke="midnightblue" d="M4087.61,-259.16C4175.45,-249.96 4333.76,-232.33 4478.25,-210.22"/>
<polygon fill="midnightblue" stroke="midnightblue" points="4478.84,-213.67 4488.19,-208.69 4477.77,-206.75 4478.84,-213.67"/>
</g>
<!-- Node86 -->
<g id="node21" class="node">
<title>Node86</title>
<g id="a_node21"><a xlink:title=" ">
<polygon fill="white" stroke="#bfbfbf" points="4643.5,-179.5 4643.5,-209.5 4756.5,-209.5 4756.5,-179.5 4643.5,-179.5"/>
<text text-anchor="start" x="4651.5" y="-197.5" font-family="Helvetica,sans-Serif" font-size="10.00">lifecycle_msgs/msg</text>
<text text-anchor="middle" x="4700" y="-186.5" font-family="Helvetica,sans-Serif" font-size="10.00">/state.hpp</text>
</a>
</g>
</g>
<!-- Node1&#45;&gt;Node86 -->
<g id="edge29" class="edge">
<title>Node1&#45;&gt;Node86</title>
<path fill="none" stroke="midnightblue" d="M4087.69,-262.69C4199.5,-256.6 4429.87,-241.4 4633.39,-210.13"/>
<polygon fill="midnightblue" stroke="midnightblue" points="4634.02,-213.58 4643.36,-208.59 4632.94,-206.66 4634.02,-213.58"/>
</g>
<!-- Node87 -->
<g id="node22" class="node">
<title>Node87</title>
<g id="a_node22"><a xlink:title=" ">
<polygon fill="white" stroke="#bfbfbf" points="4775,-179.5 4775,-209.5 4903,-209.5 4903,-179.5 4775,-179.5"/>
<text text-anchor="start" x="4783" y="-197.5" font-family="Helvetica,sans-Serif" font-size="10.00">px4_msgs/msg/vehicle</text>
<text text-anchor="middle" x="4839" y="-186.5" font-family="Helvetica,sans-Serif" font-size="10.00">_odometry.hpp</text>
</a>
</g>
</g>
<!-- Node1&#45;&gt;Node87 -->
<g id="edge30" class="edge">
<title>Node1&#45;&gt;Node87</title>
<path fill="none" stroke="midnightblue" d="M4087.67,-263.67C4217.25,-258.6 4509.47,-244.29 4764.77,-210.05"/>
<polygon fill="midnightblue" stroke="midnightblue" points="4765.54,-213.48 4774.98,-208.67 4764.6,-206.55 4765.54,-213.48"/>
</g>
<!-- Node21 -->
<g id="node23" class="node">
<title>Node21</title>
<g id="a_node23"><a xlink:href="vehicle__class_8hpp.html" target="_top" xlink:title=" ">
<polygon fill="white" stroke="black" points="418.5,-185 418.5,-204 521.5,-204 521.5,-185 418.5,-185"/>
<text text-anchor="middle" x="470" y="-192" font-family="Helvetica,sans-Serif" font-size="10.00">vehicle_class.hpp</text>
</a>
</g>
</g>
<!-- Node1&#45;&gt;Node21 -->
<g id="edge31" class="edge">
<title>Node1&#45;&gt;Node21</title>
<path fill="none" stroke="midnightblue" d="M3952.27,-265.64C3497.27,-263.15 893.44,-247.32 543,-210 534.22,-209.07 524.94,-207.6 516.03,-205.95"/>
<polygon fill="midnightblue" stroke="midnightblue" points="516.68,-202.51 506.19,-204.03 515.34,-209.38 516.68,-202.51"/>
</g>
<!-- Node58 -->
<g id="node26" class="node">
<title>Node58</title>
<g id="a_node26"><a xlink:href="flight__log_8hpp.html" target="_top" xlink:title="Utilities for logging flight data.">
<polygon fill="white" stroke="black" points="2049.5,-185 2049.5,-204 2132.5,-204 2132.5,-185 2049.5,-185"/>
<text text-anchor="middle" x="2091" y="-192" font-family="Helvetica,sans-Serif" font-size="10.00">flight_log.hpp</text>
</a>
</g>
</g>
<!-- Node1&#45;&gt;Node58 -->
<g id="edge34" class="edge">
<title>Node1&#45;&gt;Node58</title>
<path fill="none" stroke="midnightblue" d="M3952.48,-263.53C3648.79,-252.43 2412.59,-207.25 2143.05,-197.4"/>
<polygon fill="midnightblue" stroke="midnightblue" points="2142.9,-193.89 2132.77,-197.03 2142.64,-200.89 2142.9,-193.89"/>
</g>
<!-- Node3 -->
<g id="node3" class="node">
<title>Node3</title>
<g id="a_node3"><a xlink:title=" ">
<polygon fill="white" stroke="#bfbfbf" points="245,-0.5 245,-19.5 305,-19.5 305,-0.5 245,-0.5"/>
<text text-anchor="middle" x="275" y="-7.5" font-family="Helvetica,sans-Serif" font-size="10.00">iostream</text>
</a>
</g>
</g>
<!-- Node2&#45;&gt;Node3 -->
<g id="edge2" class="edge">
<title>Node2&#45;&gt;Node3</title>
<path fill="none" stroke="midnightblue" d="M275,-184.7C275,-156.69 275,-69.21 275,-30.16"/>
<polygon fill="midnightblue" stroke="midnightblue" points="278.5,-29.71 275,-19.71 271.5,-29.71 278.5,-29.71"/>
</g>
<!-- Node2&#45;&gt;Node4 -->
<g id="edge3" class="edge">
<title>Node2&#45;&gt;Node4</title>
<path fill="none" stroke="midnightblue" d="M282.69,-184.73C291.66,-174.5 306.69,-157.36 317.8,-144.69"/>
<polygon fill="midnightblue" stroke="midnightblue" points="320.47,-146.95 324.43,-137.13 315.21,-142.34 320.47,-146.95"/>
</g>
<!-- Node2&#45;&gt;Node5 -->
<g id="edge4" class="edge">
<title>Node2&#45;&gt;Node5</title>
<path fill="none" stroke="midnightblue" d="M246.2,-184.98C219.29,-176.4 178.5,-161.75 146,-143 104.63,-119.14 93.65,-111.76 62,-76 49.14,-61.47 37.9,-42.29 30.64,-28.54"/>
<polygon fill="midnightblue" stroke="midnightblue" points="33.75,-26.94 26.09,-19.63 27.52,-30.12 33.75,-26.94"/>
</g>
<!-- Node6 -->
<g id="node6" class="node">
<title>Node6</title>
<g id="a_node6"><a xlink:href="udp__socket_8hpp.html" target="_top" xlink:title="Class declaration for UDP socket creation using IoContext.">
<polygon fill="white" stroke="red" points="155,-118 155,-137 247,-137 247,-118 155,-118"/>
<text text-anchor="middle" x="201" y="-125" font-family="Helvetica,sans-Serif" font-size="10.00">udp_socket.hpp</text>
</a>
</g>
</g>
<!-- Node2&#45;&gt;Node6 -->
<g id="edge5" class="edge">
<title>Node2&#45;&gt;Node6</title>
<path fill="none" stroke="midnightblue" d="M265.02,-184.73C253.15,-174.31 233.11,-156.71 218.62,-143.97"/>
<polygon fill="midnightblue" stroke="midnightblue" points="220.64,-141.1 210.82,-137.13 216.03,-146.36 220.64,-141.1"/>
</g>
<!-- Node6&#45;&gt;Node3 -->
<g id="edge8" class="edge">
<title>Node6&#45;&gt;Node3</title>
<path fill="none" stroke="midnightblue" d="M206.56,-117.82C218.72,-98.84 247.87,-53.35 263.92,-28.29"/>
<polygon fill="midnightblue" stroke="midnightblue" points="266.93,-30.09 269.37,-19.78 261.03,-26.31 266.93,-30.09"/>
</g>
<!-- Node6&#45;&gt;Node5 -->
<g id="edge6" class="edge">
<title>Node6&#45;&gt;Node5</title>
<path fill="none" stroke="midnightblue" d="M175.94,-117.88C152.59,-109.21 117.35,-94.51 90,-76 69.2,-61.92 48.84,-41.3 35.91,-27.07"/>
<polygon fill="midnightblue" stroke="midnightblue" points="38.47,-24.68 29.21,-19.54 33.24,-29.33 38.47,-24.68"/>
</g>
<!-- Node6&#45;&gt;Node8 -->
<g id="edge7" class="edge">
<title>Node6&#45;&gt;Node8</title>
<path fill="none" stroke="midnightblue" d="M247.21,-118.08C262.1,-115.69 278.7,-113.37 294,-112 671.32,-78.2 1912.69,-68.65 2133.32,-67.21"/>
<polygon fill="midnightblue" stroke="midnightblue" points="2133.35,-70.71 2143.33,-67.14 2133.3,-63.71 2133.35,-70.71"/>
</g>
<!-- Node6&#45;&gt;Node14 -->
<g id="edge9" class="edge">
<title>Node6&#45;&gt;Node14</title>
<path fill="none" stroke="midnightblue" d="M194.27,-117.98C187.22,-109.05 175.97,-94.81 167.15,-83.64"/>
<polygon fill="midnightblue" stroke="midnightblue" points="169.67,-81.19 160.72,-75.51 164.17,-85.53 169.67,-81.19"/>
</g>
<!-- Node14&#45;&gt;Node3 -->
<g id="edge10" class="edge">
<title>Node14&#45;&gt;Node3</title>
<path fill="none" stroke="midnightblue" d="M173.17,-56.44C192.91,-47.64 223.89,-33.81 246.49,-23.72"/>
<polygon fill="midnightblue" stroke="midnightblue" points="248.21,-26.79 255.92,-19.52 245.36,-20.4 248.21,-26.79"/>
</g>
<!-- Node14&#45;&gt;Node5 -->
<g id="edge11" class="edge">
<title>Node14&#45;&gt;Node5</title>
<path fill="none" stroke="midnightblue" d="M133.08,-56.44C111.26,-47.52 76.85,-33.44 52.11,-23.32"/>
<polygon fill="midnightblue" stroke="midnightblue" points="53.4,-20.06 42.82,-19.52 50.75,-26.54 53.4,-20.06"/>
</g>
<!-- Node14&#45;&gt;Node15 -->
<g id="edge12" class="edge">
<title>Node14&#45;&gt;Node15</title>
<path fill="none" stroke="midnightblue" d="M208.81,-64.24C652.25,-58.11 3645.92,-16.7 4019.71,-11.53"/>
<polygon fill="midnightblue" stroke="midnightblue" points="4019.8,-15.03 4029.75,-11.39 4019.71,-8.03 4019.8,-15.03"/>
</g>
<!-- Node16 -->
<g id="node10" class="node">
<title>Node16</title>
<g id="a_node10"><a xlink:title=" ">
<polygon fill="white" stroke="#bfbfbf" points="157.5,-0.5 157.5,-19.5 226.5,-19.5 226.5,-0.5 157.5,-0.5"/>
<text text-anchor="middle" x="192" y="-7.5" font-family="Helvetica,sans-Serif" font-size="10.00">type_traits</text>
</a>
</g>
</g>
<!-- Node14&#45;&gt;Node16 -->
<g id="edge13" class="edge">
<title>Node14&#45;&gt;Node16</title>
<path fill="none" stroke="midnightblue" d="M160.27,-56.08C165.64,-48.46 173.52,-37.26 180.08,-27.94"/>
<polygon fill="midnightblue" stroke="midnightblue" points="182.95,-29.94 185.84,-19.75 177.22,-25.91 182.95,-29.94"/>
</g>
<!-- Node17 -->
<g id="node11" class="node">
<title>Node17</title>
<g id="a_node11"><a xlink:title=" ">
<polygon fill="white" stroke="#bfbfbf" points="62.5,-0.5 62.5,-19.5 139.5,-19.5 139.5,-0.5 62.5,-0.5"/>
<text text-anchor="middle" x="101" y="-7.5" font-family="Helvetica,sans-Serif" font-size="10.00">Eigen/Dense</text>
</a>
</g>
</g>
<!-- Node14&#45;&gt;Node17 -->
<g id="edge14" class="edge">
<title>Node14&#45;&gt;Node17</title>
<path fill="none" stroke="midnightblue" d="M145.25,-56.08C137.53,-48.22 126.1,-36.57 116.78,-27.08"/>
<polygon fill="midnightblue" stroke="midnightblue" points="119.09,-24.44 109.59,-19.75 114.1,-29.34 119.09,-24.44"/>
</g>
<!-- Node19 -->
<g id="node13" class="node">
<title>Node19</title>
<g id="a_node13"><a xlink:href="PID__OMEGA_8hpp.html" target="_top" xlink:title="PID with angular veocities for the QRBP.">
<polygon fill="white" stroke="red" points="4124,-118 4124,-137 4220,-137 4220,-118 4124,-118"/>
<text text-anchor="middle" x="4172" y="-125" font-family="Helvetica,sans-Serif" font-size="10.00">PID_OMEGA.hpp</text>
</a>
</g>
</g>
<!-- Node18&#45;&gt;Node19 -->
<g id="edge16" class="edge">
<title>Node18&#45;&gt;Node19</title>
<path fill="none" stroke="midnightblue" d="M4143.45,-184.73C4148.45,-174.89 4156.69,-158.66 4163.03,-146.16"/>
<polygon fill="midnightblue" stroke="midnightblue" points="4166.21,-147.63 4167.62,-137.13 4159.97,-144.46 4166.21,-147.63"/>
</g>
<!-- Node30 -->
<g id="node15" class="node">
<title>Node30</title>
<g id="a_node15"><a xlink:title=" ">
<polygon fill="white" stroke="#bfbfbf" points="4238,-118 4238,-137 4288,-137 4288,-118 4238,-118"/>
<text text-anchor="middle" x="4263" y="-125" font-family="Helvetica,sans-Serif" font-size="10.00">cstdint</text>
</a>
</g>
</g>
<!-- Node29&#45;&gt;Node30 -->
<g id="edge18" class="edge">
<title>Node29&#45;&gt;Node30</title>
<path fill="none" stroke="midnightblue" d="M4258.67,-184.73C4259.41,-175.18 4260.61,-159.62 4261.56,-147.28"/>
<polygon fill="midnightblue" stroke="midnightblue" points="4265.06,-147.37 4262.34,-137.13 4258.08,-146.83 4265.06,-147.37"/>
</g>
<!-- Node22 -->
<g id="node24" class="node">
<title>Node22</title>
<g id="a_node24"><a xlink:title=" ">
<polygon fill="white" stroke="#bfbfbf" points="445,-118 445,-137 495,-137 495,-118 445,-118"/>
<text text-anchor="middle" x="470" y="-125" font-family="Helvetica,sans-Serif" font-size="10.00">atomic</text>
</a>
</g>
</g>
<!-- Node21&#45;&gt;Node22 -->
<g id="edge32" class="edge">
<title>Node21&#45;&gt;Node22</title>
<path fill="none" stroke="midnightblue" d="M470,-184.73C470,-175.18 470,-159.62 470,-147.28"/>
<polygon fill="midnightblue" stroke="midnightblue" points="473.5,-147.13 470,-137.13 466.5,-147.13 473.5,-147.13"/>
</g>
<!-- Node23 -->
<g id="node25" class="node">
<title>Node23</title>
<g id="a_node25"><a xlink:title=" ">
<polygon fill="white" stroke="#bfbfbf" points="379.5,-118 379.5,-137 426.5,-137 426.5,-118 379.5,-118"/>
<text text-anchor="middle" x="403" y="-125" font-family="Helvetica,sans-Serif" font-size="10.00">cmath</text>
</a>
</g>
</g>
<!-- Node21&#45;&gt;Node23 -->
<g id="edge33" class="edge">
<title>Node21&#45;&gt;Node23</title>
<path fill="none" stroke="midnightblue" d="M460.96,-184.73C450.32,-174.4 432.42,-157.04 419.32,-144.33"/>
<polygon fill="midnightblue" stroke="midnightblue" points="421.51,-141.58 411.89,-137.13 416.63,-146.6 421.51,-141.58"/>
</g>
<!-- Node58&#45;&gt;Node15 -->
<g id="edge38" class="edge">
<title>Node58&#45;&gt;Node15</title>
<path fill="none" stroke="midnightblue" d="M2132.52,-193.65C2404.21,-194.51 3919.85,-196.85 4000,-143 4038.5,-117.13 4051.66,-59.54 4055.98,-29.71"/>
<polygon fill="midnightblue" stroke="midnightblue" points="4059.46,-30.12 4057.24,-19.76 4052.51,-29.24 4059.46,-30.12"/>
</g>
<!-- Node58&#45;&gt;Node47 -->
<g id="edge36" class="edge">
<title>Node58&#45;&gt;Node47</title>
<path fill="none" stroke="midnightblue" d="M2049.17,-193.03C1819.79,-190.32 719.56,-175.71 572,-143 569.33,-142.41 566.61,-141.61 563.93,-140.7"/>
<polygon fill="midnightblue" stroke="midnightblue" points="565.13,-137.41 554.54,-137 562.56,-143.92 565.13,-137.41"/>
</g>
<!-- Node58&#45;&gt;Node45 -->
<g id="edge41" class="edge">
<title>Node58&#45;&gt;Node45</title>
<path fill="none" stroke="midnightblue" d="M2049.29,-192.53C1818.37,-187.07 704.56,-159.97 634,-143 631.79,-142.47 629.56,-141.77 627.35,-140.98"/>
<polygon fill="midnightblue" stroke="midnightblue" points="628.58,-137.7 618.01,-137 625.84,-144.14 628.58,-137.7"/>
</g>
<!-- Node58&#45;&gt;Node22 -->
<g id="edge35" class="edge">
<title>Node58&#45;&gt;Node22</title>
<path fill="none" stroke="midnightblue" d="M2049.24,-193.09C1813.93,-190.68 658.6,-177.16 504,-143 501.33,-142.41 498.61,-141.62 495.93,-140.7"/>
<polygon fill="midnightblue" stroke="midnightblue" points="497.13,-137.41 486.54,-137.01 494.56,-143.93 497.13,-137.41"/>
</g>
<!-- Node46 -->
<g id="node27" class="node">
<title>Node46</title>
<g id="a_node27"><a xlink:title=" ">
<polygon fill="white" stroke="#bfbfbf" points="1795,-118 1795,-137 1851,-137 1851,-118 1795,-118"/>
<text text-anchor="middle" x="1823" y="-125" font-family="Helvetica,sans-Serif" font-size="10.00">iomanip</text>
</a>
</g>
</g>
<!-- Node58&#45;&gt;Node46 -->
<g id="edge37" class="edge">
<title>Node58&#45;&gt;Node46</title>
<path fill="none" stroke="midnightblue" d="M2049.18,-186.42C2002.51,-178.04 1925.02,-162.71 1860,-143 1857.57,-142.26 1855.08,-141.44 1852.59,-140.57"/>
<polygon fill="midnightblue" stroke="midnightblue" points="1853.75,-137.27 1843.15,-137.06 1851.31,-143.83 1853.75,-137.27"/>
</g>
<!-- Node59 -->
<g id="node28" class="node">
<title>Node59</title>
<g id="a_node28"><a xlink:title=" ">
<polygon fill="white" stroke="#bfbfbf" points="1869,-118 1869,-137 1937,-137 1937,-118 1869,-118"/>
<text text-anchor="middle" x="1903" y="-125" font-family="Helvetica,sans-Serif" font-size="10.00">filesystem</text>
</a>
</g>
</g>
<!-- Node58&#45;&gt;Node59 -->
<g id="edge39" class="edge">
<title>Node58&#45;&gt;Node59</title>
<path fill="none" stroke="midnightblue" d="M2066.04,-184.87C2033.08,-173.47 1974.88,-153.35 1937.67,-140.49"/>
<polygon fill="midnightblue" stroke="midnightblue" points="1938.36,-137.02 1927.77,-137.06 1936.08,-143.64 1938.36,-137.02"/>
</g>
<!-- Node25 -->
<g id="node29" class="node">
<title>Node25</title>
<g id="a_node29"><a xlink:title=" ">
<polygon fill="white" stroke="#bfbfbf" points="1955.5,-118 1955.5,-137 2010.5,-137 2010.5,-118 1955.5,-118"/>
<text text-anchor="middle" x="1983" y="-125" font-family="Helvetica,sans-Serif" font-size="10.00">fstream</text>
</a>
</g>
</g>
<!-- Node58&#45;&gt;Node25 -->
<g id="edge40" class="edge">
<title>Node58&#45;&gt;Node25</title>
<path fill="none" stroke="midnightblue" d="M2076.43,-184.73C2058.38,-173.87 2027.39,-155.22 2006.08,-142.39"/>
<polygon fill="midnightblue" stroke="midnightblue" points="2007.71,-139.29 1997.33,-137.13 2004.1,-145.28 2007.71,-139.29"/>
</g>
<!-- Node60 -->
<g id="node30" class="node">
<title>Node60</title>
<g id="a_node30"><a xlink:title=" ">
<polygon fill="white" stroke="#bfbfbf" points="2028.5,-112.5 2028.5,-142.5 2153.5,-142.5 2153.5,-112.5 2028.5,-112.5"/>
<text text-anchor="start" x="2036.5" y="-130.5" font-family="Helvetica,sans-Serif" font-size="10.00">boost/date_time/posix</text>
<text text-anchor="middle" x="2091" y="-119.5" font-family="Helvetica,sans-Serif" font-size="10.00">_time/posix_time.hpp</text>
</a>
</g>
</g>
<!-- Node58&#45;&gt;Node60 -->
<g id="edge42" class="edge">
<title>Node58&#45;&gt;Node60</title>
<path fill="none" stroke="midnightblue" d="M2091,-184.73C2091,-176.54 2091,-163.92 2091,-152.71"/>
<polygon fill="midnightblue" stroke="midnightblue" points="2094.5,-152.59 2091,-142.59 2087.5,-152.59 2094.5,-152.59"/>
</g>
<!-- Node61 -->
<g id="node31" class="node">
<title>Node61</title>
<g id="a_node31"><a xlink:title=" ">
<polygon fill="white" stroke="#bfbfbf" points="2171.5,-112.5 2171.5,-142.5 2326.5,-142.5 2326.5,-112.5 2171.5,-112.5"/>
<text text-anchor="start" x="2179.5" y="-130.5" font-family="Helvetica,sans-Serif" font-size="10.00">boost/date_time/posix</text>
<text text-anchor="middle" x="2249" y="-119.5" font-family="Helvetica,sans-Serif" font-size="10.00">_time/posix_time_types.hpp</text>
</a>
</g>
</g>
<!-- Node58&#45;&gt;Node61 -->
<g id="edge43" class="edge">
<title>Node58&#45;&gt;Node61</title>
<path fill="none" stroke="midnightblue" d="M2111.98,-184.87C2135.69,-175.12 2174.94,-158.97 2205.36,-146.45"/>
<polygon fill="midnightblue" stroke="midnightblue" points="2206.98,-149.57 2214.9,-142.53 2204.32,-143.1 2206.98,-149.57"/>
</g>
<!-- Node62 -->
<g id="node32" class="node">
<title>Node62</title>
<g id="a_node32"><a xlink:title=" ">
<polygon fill="white" stroke="#bfbfbf" points="2344.5,-118 2344.5,-137 2477.5,-137 2477.5,-118 2344.5,-118"/>
<text text-anchor="middle" x="2411" y="-125" font-family="Helvetica,sans-Serif" font-size="10.00">boost/log/attributes.hpp</text>
</a>
</g>
</g>
<!-- Node58&#45;&gt;Node62 -->
<g id="edge44" class="edge">
<title>Node58&#45;&gt;Node62</title>
<path fill="none" stroke="midnightblue" d="M2132.51,-185.07C2190.5,-173.29 2295.73,-151.91 2358.91,-139.08"/>
<polygon fill="midnightblue" stroke="midnightblue" points="2359.96,-142.44 2369.06,-137.02 2358.56,-135.58 2359.96,-142.44"/>
</g>
<!-- Node63 -->
<g id="node33" class="node">
<title>Node63</title>
<g id="a_node33"><a xlink:title=" ">
<polygon fill="white" stroke="#bfbfbf" points="2496,-112.5 2496,-142.5 2618,-142.5 2618,-112.5 2496,-112.5"/>
<text text-anchor="start" x="2504" y="-130.5" font-family="Helvetica,sans-Serif" font-size="10.00">boost/log/attributes</text>
<text text-anchor="middle" x="2557" y="-119.5" font-family="Helvetica,sans-Serif" font-size="10.00">/scoped_attribute.hpp</text>
</a>
</g>
</g>
<!-- Node58&#45;&gt;Node63 -->
<g id="edge45" class="edge">
<title>Node58&#45;&gt;Node63</title>
<path fill="none" stroke="midnightblue" d="M2132.66,-189.2C2204.86,-181.53 2357.78,-164.26 2486,-143 2486.1,-142.98 2486.2,-142.97 2486.3,-142.95"/>
<polygon fill="midnightblue" stroke="midnightblue" points="2486.61,-146.45 2495.86,-141.29 2485.41,-139.55 2486.61,-146.45"/>
</g>
<!-- Node64 -->
<g id="node34" class="node">
<title>Node64</title>
<g id="a_node34"><a xlink:title=" ">
<polygon fill="white" stroke="#bfbfbf" points="2636.5,-118 2636.5,-137 2743.5,-137 2743.5,-118 2636.5,-118"/>
<text text-anchor="middle" x="2690" y="-125" font-family="Helvetica,sans-Serif" font-size="10.00">boost/log/core.hpp</text>
</a>
</g>
</g>
<!-- Node58&#45;&gt;Node64 -->
<g id="edge46" class="edge">
<title>Node58&#45;&gt;Node64</title>
<path fill="none" stroke="midnightblue" d="M2132.6,-191.46C2223.02,-186.61 2444.07,-172.54 2627,-143 2633.4,-141.97 2640.12,-140.66 2646.68,-139.26"/>
<polygon fill="midnightblue" stroke="midnightblue" points="2647.81,-142.59 2656.81,-137 2646.29,-135.76 2647.81,-142.59"/>
</g>
<!-- Node65 -->
<g id="node35" class="node">
<title>Node65</title>
<g id="a_node35"><a xlink:title=" ">
<polygon fill="white" stroke="#bfbfbf" points="2762,-118 2762,-137 2906,-137 2906,-118 2762,-118"/>
<text text-anchor="middle" x="2834" y="-125" font-family="Helvetica,sans-Serif" font-size="10.00">boost/log/expressions.hpp</text>
</a>
</g>
</g>
<!-- Node58&#45;&gt;Node65 -->
<g id="edge47" class="edge">
<title>Node58&#45;&gt;Node65</title>
<path fill="none" stroke="midnightblue" d="M2132.52,-191.75C2236.94,-187.06 2518.78,-172.46 2752,-143 2761.16,-141.84 2770.86,-140.36 2780.25,-138.79"/>
<polygon fill="midnightblue" stroke="midnightblue" points="2781.03,-142.2 2790.29,-137.05 2779.84,-135.31 2781.03,-142.2"/>
</g>
<!-- Node66 -->
<g id="node36" class="node">
<title>Node66</title>
<g id="a_node36"><a xlink:title=" ">
<polygon fill="white" stroke="#bfbfbf" points="2924,-112.5 2924,-142.5 3040,-142.5 3040,-112.5 2924,-112.5"/>
<text text-anchor="start" x="2932" y="-130.5" font-family="Helvetica,sans-Serif" font-size="10.00">boost/log/sinks/sync</text>
<text text-anchor="middle" x="2982" y="-119.5" font-family="Helvetica,sans-Serif" font-size="10.00">_frontend.hpp</text>
</a>
</g>
</g>
<!-- Node58&#45;&gt;Node66 -->
<g id="edge48" class="edge">
<title>Node58&#45;&gt;Node66</title>
<path fill="none" stroke="midnightblue" d="M2132.81,-193.18C2252.87,-191.77 2609.08,-184.28 2913.63,-143.04"/>
<polygon fill="midnightblue" stroke="midnightblue" points="2914.56,-146.44 2923.99,-141.62 2913.61,-139.51 2914.56,-146.44"/>
</g>
<!-- Node67 -->
<g id="node37" class="node">
<title>Node67</title>
<g id="a_node37"><a xlink:title=" ">
<polygon fill="white" stroke="#bfbfbf" points="3058.5,-112.5 3058.5,-142.5 3187.5,-142.5 3187.5,-112.5 3058.5,-112.5"/>
<text text-anchor="start" x="3066.5" y="-130.5" font-family="Helvetica,sans-Serif" font-size="10.00">boost/log/sinks/text</text>
<text text-anchor="middle" x="3123" y="-119.5" font-family="Helvetica,sans-Serif" font-size="10.00">_ostream_backend.hpp</text>
</a>
</g>
</g>
<!-- Node58&#45;&gt;Node67 -->
<g id="edge49" class="edge">
<title>Node58&#45;&gt;Node67</title>
<path fill="none" stroke="midnightblue" d="M2132.73,-193.39C2265.28,-192.61 2688.57,-186.71 3048.03,-142.99"/>
<polygon fill="midnightblue" stroke="midnightblue" points="3048.61,-146.44 3058.11,-141.75 3047.76,-139.5 3048.61,-146.44"/>
</g>
<!-- Node68 -->
<g id="node38" class="node">
<title>Node68</title>
<g id="a_node38"><a xlink:title=" ">
<polygon fill="white" stroke="#bfbfbf" points="3205.5,-112.5 3205.5,-142.5 3336.5,-142.5 3336.5,-112.5 3205.5,-112.5"/>
<text text-anchor="start" x="3213.5" y="-130.5" font-family="Helvetica,sans-Serif" font-size="10.00">boost/log/sources/basic</text>
<text text-anchor="middle" x="3271" y="-119.5" font-family="Helvetica,sans-Serif" font-size="10.00">_logger.hpp</text>
</a>
</g>
</g>
<!-- Node58&#45;&gt;Node68 -->
<g id="edge50" class="edge">
<title>Node58&#45;&gt;Node68</title>
<path fill="none" stroke="midnightblue" d="M2132.57,-193.77C2277.69,-194.26 2775.27,-192.09 3195.02,-142.98"/>
<polygon fill="midnightblue" stroke="midnightblue" points="3195.71,-146.42 3205.23,-141.78 3194.89,-139.47 3195.71,-146.42"/>
</g>
<!-- Node69 -->
<g id="node39" class="node">
<title>Node69</title>
<g id="a_node39"><a xlink:title=" ">
<polygon fill="white" stroke="#bfbfbf" points="3355,-118 3355,-137 3511,-137 3511,-118 3355,-118"/>
<text text-anchor="middle" x="3433" y="-125" font-family="Helvetica,sans-Serif" font-size="10.00">boost/log/sources/logger.hpp</text>
</a>
</g>
</g>
<!-- Node58&#45;&gt;Node69 -->
<g id="edge51" class="edge">
<title>Node58&#45;&gt;Node69</title>
<path fill="none" stroke="midnightblue" d="M2132.54,-193.68C2290.73,-193.97 2870.57,-191.45 3345,-143 3355.62,-141.92 3366.91,-140.36 3377.73,-138.67"/>
<polygon fill="midnightblue" stroke="midnightblue" points="3378.61,-142.08 3387.92,-137.02 3377.49,-135.17 3378.61,-142.08"/>
</g>
<!-- Node70 -->
<g id="node40" class="node">
<title>Node70</title>
<g id="a_node40"><a xlink:title=" ">
<polygon fill="white" stroke="#bfbfbf" points="3529,-112.5 3529,-142.5 3665,-142.5 3665,-112.5 3529,-112.5"/>
<text text-anchor="start" x="3537" y="-130.5" font-family="Helvetica,sans-Serif" font-size="10.00">boost/log/sources/record</text>
<text text-anchor="middle" x="3597" y="-119.5" font-family="Helvetica,sans-Serif" font-size="10.00">_ostream.hpp</text>
</a>
</g>
</g>
<!-- Node58&#45;&gt;Node70 -->
<g id="edge52" class="edge">
<title>Node58&#45;&gt;Node70</title>
<path fill="none" stroke="midnightblue" d="M2132.76,-192.88C2335.56,-189.71 3219.68,-174.41 3518.27,-143.05"/>
<polygon fill="midnightblue" stroke="midnightblue" points="3519.08,-146.48 3528.65,-141.93 3518.33,-139.52 3519.08,-146.48"/>
</g>
<!-- Node71 -->
<g id="node41" class="node">
<title>Node71</title>
<g id="a_node41"><a xlink:title=" ">
<polygon fill="white" stroke="#bfbfbf" points="3683.5,-112.5 3683.5,-142.5 3828.5,-142.5 3828.5,-112.5 3683.5,-112.5"/>
<text text-anchor="start" x="3691.5" y="-130.5" font-family="Helvetica,sans-Serif" font-size="10.00">boost/log/sources/severity</text>
<text text-anchor="middle" x="3756" y="-119.5" font-family="Helvetica,sans-Serif" font-size="10.00">_channel_logger.hpp</text>
</a>
</g>
</g>
<!-- Node58&#45;&gt;Node71 -->
<g id="edge53" class="edge">
<title>Node58&#45;&gt;Node71</title>
<path fill="none" stroke="midnightblue" d="M2132.84,-192.98C2349.01,-190.15 3341.73,-175.66 3673.11,-142.95"/>
<polygon fill="midnightblue" stroke="midnightblue" points="3673.6,-146.42 3683.2,-141.93 3672.9,-139.46 3673.6,-146.42"/>
</g>
<!-- Node72 -->
<g id="node42" class="node">
<title>Node72</title>
<g id="a_node42"><a xlink:title=" ">
<polygon fill="white" stroke="#bfbfbf" points="3846.5,-112.5 3846.5,-142.5 3991.5,-142.5 3991.5,-112.5 3846.5,-112.5"/>
<text text-anchor="start" x="3854.5" y="-130.5" font-family="Helvetica,sans-Serif" font-size="10.00">boost/log/sources/severity</text>
<text text-anchor="middle" x="3919" y="-119.5" font-family="Helvetica,sans-Serif" font-size="10.00">_logger.hpp</text>
</a>
</g>
</g>
<!-- Node58&#45;&gt;Node72 -->
<g id="edge54" class="edge">
<title>Node58&#45;&gt;Node72</title>
<path fill="none" stroke="midnightblue" d="M2132.5,-193.12C2361.19,-190.93 3470.17,-178.63 3836.12,-142.95"/>
<polygon fill="midnightblue" stroke="midnightblue" points="3836.6,-146.42 3846.2,-141.94 3835.9,-139.45 3836.6,-146.42"/>
</g>
<!-- Node73 -->
<g id="node43" class="node">
<title>Node73</title>
<g id="a_node43"><a xlink:title=" ">
<polygon fill="white" stroke="#bfbfbf" points="643,-112.5 643,-142.5 769,-142.5 769,-112.5 643,-112.5"/>
<text text-anchor="start" x="651" y="-130.5" font-family="Helvetica,sans-Serif" font-size="10.00">boost/log/support/date</text>
<text text-anchor="middle" x="706" y="-119.5" font-family="Helvetica,sans-Serif" font-size="10.00">_time.hpp</text>
</a>
</g>
</g>
<!-- Node58&#45;&gt;Node73 -->
<g id="edge55" class="edge">
<title>Node58&#45;&gt;Node73</title>
<path fill="none" stroke="midnightblue" d="M2049.44,-192.8C1857.36,-189.42 1053.74,-173.78 779.44,-143"/>
<polygon fill="midnightblue" stroke="midnightblue" points="779.46,-139.48 769.12,-141.81 778.65,-146.44 779.46,-139.48"/>
</g>
<!-- Node74 -->
<g id="node44" class="node">
<title>Node74</title>
<g id="a_node44"><a xlink:title=" ">
<polygon fill="white" stroke="#bfbfbf" points="787,-118 787,-137 901,-137 901,-118 787,-118"/>
<text text-anchor="middle" x="844" y="-125" font-family="Helvetica,sans-Serif" font-size="10.00">boost/log/trivial.hpp</text>
</a>
</g>
</g>
<!-- Node58&#45;&gt;Node74 -->
<g id="edge56" class="edge">
<title>Node58&#45;&gt;Node74</title>
<path fill="none" stroke="midnightblue" d="M2049.42,-192.69C1867.1,-188.99 1137.29,-172.6 910,-143 902.64,-142.04 894.89,-140.67 887.39,-139.15"/>
<polygon fill="midnightblue" stroke="midnightblue" points="887.89,-135.68 877.38,-137.01 886.42,-142.53 887.89,-135.68"/>
</g>
<!-- Node75 -->
<g id="node45" class="node">
<title>Node75</title>
<g id="a_node45"><a xlink:title=" ">
<polygon fill="white" stroke="#bfbfbf" points="919,-112.5 919,-142.5 1055,-142.5 1055,-112.5 919,-112.5"/>
<text text-anchor="start" x="927" y="-130.5" font-family="Helvetica,sans-Serif" font-size="10.00">boost/log/utility/setup</text>
<text text-anchor="middle" x="987" y="-119.5" font-family="Helvetica,sans-Serif" font-size="10.00">/common_attributes.hpp</text>
</a>
</g>
</g>
<!-- Node58&#45;&gt;Node75 -->
<g id="edge57" class="edge">
<title>Node58&#45;&gt;Node75</title>
<path fill="none" stroke="midnightblue" d="M2049.25,-193.49C1910.58,-193.04 1452.63,-188.08 1065.36,-143.05"/>
<polygon fill="midnightblue" stroke="midnightblue" points="1065.7,-139.57 1055.36,-141.88 1064.88,-146.52 1065.7,-139.57"/>
</g>
<!-- Node76 -->
<g id="node46" class="node">
<title>Node76</title>
<g id="a_node46"><a xlink:title=" ">
<polygon fill="white" stroke="#bfbfbf" points="1073.5,-112.5 1073.5,-142.5 1196.5,-142.5 1196.5,-112.5 1073.5,-112.5"/>
<text text-anchor="start" x="1081.5" y="-130.5" font-family="Helvetica,sans-Serif" font-size="10.00">boost/log/utility/setup</text>
<text text-anchor="middle" x="1135" y="-119.5" font-family="Helvetica,sans-Serif" font-size="10.00">/file.hpp</text>
</a>
</g>
</g>
<!-- Node58&#45;&gt;Node76 -->
<g id="edge58" class="edge">
<title>Node58&#45;&gt;Node76</title>
<path fill="none" stroke="midnightblue" d="M2049.28,-193.3C1923.37,-192.23 1536.13,-185.57 1206.96,-143.14"/>
<polygon fill="midnightblue" stroke="midnightblue" points="1207.12,-139.63 1196.75,-141.81 1206.22,-146.57 1207.12,-139.63"/>
</g>
<!-- Node77 -->
<g id="node47" class="node">
<title>Node77</title>
<g id="a_node47"><a xlink:title=" ">
<polygon fill="white" stroke="#bfbfbf" points="1214.5,-112.5 1214.5,-142.5 1337.5,-142.5 1337.5,-112.5 1214.5,-112.5"/>
<text text-anchor="start" x="1222.5" y="-130.5" font-family="Helvetica,sans-Serif" font-size="10.00">boost/log/utility/value</text>
<text text-anchor="middle" x="1276" y="-119.5" font-family="Helvetica,sans-Serif" font-size="10.00">_ref.hpp</text>
</a>
</g>
</g>
<!-- Node58&#45;&gt;Node77 -->
<g id="edge59" class="edge">
<title>Node58&#45;&gt;Node77</title>
<path fill="none" stroke="midnightblue" d="M2049.2,-192.67C1937.04,-190 1620.06,-179.67 1347.83,-143.14"/>
<polygon fill="midnightblue" stroke="midnightblue" points="1348.14,-139.65 1337.76,-141.77 1347.2,-146.58 1348.14,-139.65"/>
</g>
<!-- Node78 -->
<g id="node48" class="node">
<title>Node78</title>
<g id="a_node48"><a xlink:title=" ">
<polygon fill="white" stroke="#bfbfbf" points="1355.5,-118 1355.5,-137 1486.5,-137 1486.5,-118 1355.5,-118"/>
<text text-anchor="middle" x="1421" y="-125" font-family="Helvetica,sans-Serif" font-size="10.00">boost/phoenix/bind.hpp</text>
</a>
</g>
</g>
<!-- Node58&#45;&gt;Node78 -->
<g id="edge60" class="edge">
<title>Node58&#45;&gt;Node78</title>
<path fill="none" stroke="midnightblue" d="M2049.35,-191.49C1952.11,-186.47 1702.66,-171.66 1496,-143 1487.88,-141.87 1479.3,-140.44 1470.96,-138.93"/>
<polygon fill="midnightblue" stroke="midnightblue" points="1471.43,-135.45 1460.96,-137.04 1470.14,-142.33 1471.43,-135.45"/>
</g>
<!-- Node79 -->
<g id="node49" class="node">
<title>Node79</title>
<g id="a_node49"><a xlink:title=" ">
<polygon fill="white" stroke="#bfbfbf" points="1505,-112.5 1505,-142.5 1629,-142.5 1629,-112.5 1505,-112.5"/>
<text text-anchor="start" x="1513" y="-130.5" font-family="Helvetica,sans-Serif" font-size="10.00">boost/smart_ptr/make</text>
<text text-anchor="middle" x="1567" y="-119.5" font-family="Helvetica,sans-Serif" font-size="10.00">_shared_object.hpp</text>
</a>
</g>
</g>
<!-- Node58&#45;&gt;Node79 -->
<g id="edge61" class="edge">
<title>Node58&#45;&gt;Node79</title>
<path fill="none" stroke="midnightblue" d="M2049.3,-190.12C1970.98,-183.5 1796.38,-167.44 1639.58,-143.16"/>
<polygon fill="midnightblue" stroke="midnightblue" points="1639.7,-139.64 1629.28,-141.55 1638.62,-146.55 1639.7,-139.64"/>
</g>
<!-- Node80 -->
<g id="node50" class="node">
<title>Node80</title>
<g id="a_node50"><a xlink:title=" ">
<polygon fill="white" stroke="#bfbfbf" points="1647,-112.5 1647,-142.5 1777,-142.5 1777,-112.5 1647,-112.5"/>
<text text-anchor="start" x="1655" y="-130.5" font-family="Helvetica,sans-Serif" font-size="10.00">boost/smart_ptr/shared</text>
<text text-anchor="middle" x="1712" y="-119.5" font-family="Helvetica,sans-Serif" font-size="10.00">_ptr.hpp</text>
</a>
</g>
</g>
<!-- Node58&#45;&gt;Node80 -->
<g id="edge62" class="edge">
<title>Node58&#45;&gt;Node80</title>
<path fill="none" stroke="midnightblue" d="M2049.49,-187.02C1992.64,-178.07 1887.1,-161.13 1787.3,-143.21"/>
<polygon fill="midnightblue" stroke="midnightblue" points="1787.81,-139.74 1777.35,-141.41 1786.57,-146.63 1787.81,-139.74"/>
</g>
</g>
</svg>
