<?xml version="1.0" encoding="UTF-8" standalone="no"?>
<!DOCTYPE svg PUBLIC "-//W3C//DTD SVG 1.1//EN"
 "http://www.w3.org/Graphics/SVG/1.1/DTD/svg11.dtd">
<!-- Generated by graphviz version 2.43.0 (0)
 -->
<!-- Title: ACSL&#45;flightstack&#45;winged/src/acsl_flight/include/control/platforms/qrbp/control_algorithms/MRAC_OMEGA/MRAC_OMEGA_members.hpp Pages: 1 -->
<svg width="418pt" height="361pt"
 viewBox="0.00 0.00 417.50 361.00" xmlns="http://www.w3.org/2000/svg" xmlns:xlink="http://www.w3.org/1999/xlink">
<g id="graph0" class="graph" transform="scale(1 1) rotate(0) translate(4 357)">
<title>ACSL&#45;flightstack&#45;winged/src/acsl_flight/include/control/platforms/qrbp/control_algorithms/MRAC_OMEGA/MRAC_OMEGA_members.hpp</title>
<polygon fill="white" stroke="transparent" points="-4,4 -4,-357 413.5,-357 413.5,4 -4,4"/>
<!-- Node1 -->
<g id="node1" class="node">
<title>Node1</title>
<g id="a_node1"><a xlink:title="MRAC with angular velocities controller class members.">
<polygon fill="#bfbfbf" stroke="black" points="51,-289.5 51,-352.5 257,-352.5 257,-289.5 51,-289.5"/>
<text text-anchor="start" x="59" y="-340.5" font-family="Helvetica,sans-Serif" font-size="10.00">ACSL&#45;flightstack&#45;winged</text>
<text text-anchor="start" x="59" y="-329.5" font-family="Helvetica,sans-Serif" font-size="10.00">/src/acsl_flight/include</text>
<text text-anchor="start" x="59" y="-318.5" font-family="Helvetica,sans-Serif" font-size="10.00">/control/platforms/qrbp</text>
<text text-anchor="start" x="59" y="-307.5" font-family="Helvetica,sans-Serif" font-size="10.00">/control_algorithms/MRAC</text>
<text text-anchor="middle" x="154" y="-296.5" font-family="Helvetica,sans-Serif" font-size="10.00">_OMEGA/MRAC_OMEGA_members.hpp</text>
</a>
</g>
</g>
<!-- Node2 -->
<g id="node2" class="node">
<title>Node2</title>
<g id="a_node2"><a xlink:href="MRAC__OMEGA_8hpp.html" target="_top" xlink:title="MRAC with angular velocities for the QRBP.">
<polygon fill="white" stroke="black" points="16,-89.5 16,-152.5 170,-152.5 170,-89.5 16,-89.5"/>
<text text-anchor="start" x="24" y="-140.5" font-family="Helvetica,sans-Serif" font-size="10.00">ACSL&#45;flightstack&#45;winged</text>
<text text-anchor="start" x="24" y="-129.5" font-family="Helvetica,sans-Serif" font-size="10.00">/src/acsl_flight/include</text>
<text text-anchor="start" x="24" y="-118.5" font-family="Helvetica,sans-Serif" font-size="10.00">/control/platforms/qrbp</text>
<text text-anchor="start" x="24" y="-107.5" font-family="Helvetica,sans-Serif" font-size="10.00">/control_algorithms/MRAC</text>
<text text-anchor="middle" x="93" y="-96.5" font-family="Helvetica,sans-Serif" font-size="10.00">_OMEGA/MRAC_OMEGA.hpp</text>
</a>
</g>
</g>
<!-- Node1&#45;&gt;Node2 -->
<g id="edge1" class="edge">
<title>Node1&#45;&gt;Node2</title>
<path fill="none" stroke="midnightblue" d="M126.44,-280.75C121.28,-271.95 116.44,-262.41 113,-253 100.96,-220.05 96.17,-179.87 94.26,-152.76"/>
<polygon fill="midnightblue" stroke="midnightblue" points="123.46,-282.58 131.67,-289.28 129.43,-278.93 123.46,-282.58"/>
</g>
<!-- Node4 -->
<g id="node4" class="node">
<title>Node4</title>
<g id="a_node4"><a xlink:href="MRAC__OMEGA__logger_8hpp.html" target="_top" xlink:title="logging for the MRAc with angular velocities controller">
<polygon fill="white" stroke="black" points="121.5,-189.5 121.5,-252.5 310.5,-252.5 310.5,-189.5 121.5,-189.5"/>
<text text-anchor="start" x="129.5" y="-240.5" font-family="Helvetica,sans-Serif" font-size="10.00">ACSL&#45;flightstack&#45;winged</text>
<text text-anchor="start" x="129.5" y="-229.5" font-family="Helvetica,sans-Serif" font-size="10.00">/src/acsl_flight/include</text>
<text text-anchor="start" x="129.5" y="-218.5" font-family="Helvetica,sans-Serif" font-size="10.00">/control/platforms/qrbp</text>
<text text-anchor="start" x="129.5" y="-207.5" font-family="Helvetica,sans-Serif" font-size="10.00">/control_algorithms/MRAC</text>
<text text-anchor="middle" x="216" y="-196.5" font-family="Helvetica,sans-Serif" font-size="10.00">_OMEGA/MRAC_OMEGA_logger.hpp</text>
</a>
</g>
</g>
<!-- Node1&#45;&gt;Node4 -->
<g id="edge3" class="edge">
<title>Node1&#45;&gt;Node4</title>
<path fill="none" stroke="midnightblue" d="M178.96,-280.54C184.85,-271.24 191.03,-261.47 196.62,-252.63"/>
<polygon fill="midnightblue" stroke="midnightblue" points="175.84,-278.94 173.45,-289.26 181.75,-282.68 175.84,-278.94"/>
</g>
<!-- Node3 -->
<g id="node3" class="node">
<title>Node3</title>
<g id="a_node3"><a xlink:href="MRAC__OMEGA_8cpp.html" target="_top" xlink:title=" ">
<polygon fill="white" stroke="black" points="0,-0.5 0,-52.5 186,-52.5 186,-0.5 0,-0.5"/>
<text text-anchor="start" x="8" y="-40.5" font-family="Helvetica,sans-Serif" font-size="10.00">ACSL&#45;flightstack&#45;winged</text>
<text text-anchor="start" x="8" y="-29.5" font-family="Helvetica,sans-Serif" font-size="10.00">/src/acsl_flight/src/control</text>
<text text-anchor="start" x="8" y="-18.5" font-family="Helvetica,sans-Serif" font-size="10.00">/platforms/qrbp/control_algorithms</text>
<text text-anchor="middle" x="93" y="-7.5" font-family="Helvetica,sans-Serif" font-size="10.00">/MRAC_OMEGA/MRAC_OMEGA.cpp</text>
</a>
</g>
</g>
<!-- Node2&#45;&gt;Node3 -->
<g id="edge2" class="edge">
<title>Node2&#45;&gt;Node3</title>
<path fill="none" stroke="midnightblue" d="M93,-79.42C93,-70.36 93,-61 93,-52.77"/>
<polygon fill="midnightblue" stroke="midnightblue" points="89.5,-79.46 93,-89.46 96.5,-79.46 89.5,-79.46"/>
</g>
<!-- Node4&#45;&gt;Node2 -->
<g id="edge4" class="edge">
<title>Node4&#45;&gt;Node2</title>
<path fill="none" stroke="midnightblue" d="M169.35,-182.83C156.84,-172.86 143.45,-162.2 131.44,-152.63"/>
<polygon fill="midnightblue" stroke="midnightblue" points="167.42,-185.77 177.42,-189.26 171.78,-180.29 167.42,-185.77"/>
</g>
<!-- Node5 -->
<g id="node5" class="node">
<title>Node5</title>
<g id="a_node5"><a xlink:href="MRAC__OMEGA__logger_8cpp.html" target="_top" xlink:title=" ">
<polygon fill="white" stroke="black" points="188.5,-95 188.5,-147 409.5,-147 409.5,-95 188.5,-95"/>
<text text-anchor="start" x="196.5" y="-135" font-family="Helvetica,sans-Serif" font-size="10.00">ACSL&#45;flightstack&#45;winged</text>
<text text-anchor="start" x="196.5" y="-124" font-family="Helvetica,sans-Serif" font-size="10.00">/src/acsl_flight/src/control</text>
<text text-anchor="start" x="196.5" y="-113" font-family="Helvetica,sans-Serif" font-size="10.00">/platforms/qrbp/control_algorithms</text>
<text text-anchor="middle" x="299" y="-102" font-family="Helvetica,sans-Serif" font-size="10.00">/MRAC_OMEGA/MRAC_OMEGA_logger.cpp</text>
</a>
</g>
</g>
<!-- Node4&#45;&gt;Node5 -->
<g id="edge5" class="edge">
<title>Node4&#45;&gt;Node5</title>
<path fill="none" stroke="midnightblue" d="M248.67,-181.42C258.46,-169.87 268.94,-157.5 277.78,-147.05"/>
<polygon fill="midnightblue" stroke="midnightblue" points="245.83,-179.37 242.03,-189.26 251.17,-183.89 245.83,-179.37"/>
</g>
</g>
</svg>
