<?xml version="1.0" encoding="UTF-8" standalone="no"?>
<!DOCTYPE svg PUBLIC "-//W3C//DTD SVG 1.1//EN"
 "http://www.w3.org/Graphics/SVG/1.1/DTD/svg11.dtd">
<!-- Generated by graphviz version 2.43.0 (0)
 -->
<!-- Title: ACSL&#45;flightstack&#45;winged/src/acsl_flight/src/control/platforms/qrbp/control_algorithms/MRAC_PID/MRAC_PID_logger.cpp Pages: 1 -->
<svg width="5178pt" height="408pt"
 viewBox="0.00 0.00 5177.50 408.00" xmlns="http://www.w3.org/2000/svg" xmlns:xlink="http://www.w3.org/1999/xlink">
<g id="graph0" class="graph" transform="scale(1 1) rotate(0) translate(4 404)">
<title>ACSL&#45;flightstack&#45;winged/src/acsl_flight/src/control/platforms/qrbp/control_algorithms/MRAC_PID/MRAC_PID_logger.cpp</title>
<polygon fill="white" stroke="transparent" points="-4,4 -4,-404 5173.5,-404 5173.5,4 -4,4"/>
<!-- Node1 -->
<g id="node1" class="node">
<title>Node1</title>
<g id="a_node1"><a xlink:title=" ">
<polygon fill="#bfbfbf" stroke="black" points="1319.5,-347.5 1319.5,-399.5 1505.5,-399.5 1505.5,-347.5 1319.5,-347.5"/>
<text text-anchor="start" x="1327.5" y="-387.5" font-family="Helvetica,sans-Serif" font-size="10.00">ACSL&#45;flightstack&#45;winged</text>
<text text-anchor="start" x="1327.5" y="-376.5" font-family="Helvetica,sans-Serif" font-size="10.00">/src/acsl_flight/src/control</text>
<text text-anchor="start" x="1327.5" y="-365.5" font-family="Helvetica,sans-Serif" font-size="10.00">/platforms/qrbp/control_algorithms</text>
<text text-anchor="middle" x="1412.5" y="-354.5" font-family="Helvetica,sans-Serif" font-size="10.00">/MRAC_PID/MRAC_PID_logger.cpp</text>
</a>
</g>
</g>
<!-- Node2 -->
<g id="node2" class="node">
<title>Node2</title>
<g id="a_node2"><a xlink:href="MRAC__PID__logger_8hpp.html" target="_top" xlink:title="logging for the MRAC_PID controller.">
<polygon fill="white" stroke="black" points="1350.5,-291.5 1350.5,-310.5 1474.5,-310.5 1474.5,-291.5 1350.5,-291.5"/>
<text text-anchor="middle" x="1412.5" y="-298.5" font-family="Helvetica,sans-Serif" font-size="10.00">MRAC_PID_logger.hpp</text>
</a>
</g>
</g>
<!-- Node1&#45;&gt;Node2 -->
<g id="edge1" class="edge">
<title>Node1&#45;&gt;Node2</title>
<path fill="none" stroke="midnightblue" d="M1412.5,-347.45C1412.5,-338.73 1412.5,-329.1 1412.5,-320.96"/>
<polygon fill="midnightblue" stroke="midnightblue" points="1416,-320.7 1412.5,-310.7 1409,-320.7 1416,-320.7"/>
</g>
<!-- Node3 -->
<g id="node3" class="node">
<title>Node3</title>
<g id="a_node3"><a xlink:href="MRAC__PID__members_8hpp.html" target="_top" xlink:title="MRAC_PID controller class members.">
<polygon fill="white" stroke="black" points="1244.5,-235.5 1244.5,-254.5 1384.5,-254.5 1384.5,-235.5 1244.5,-235.5"/>
<text text-anchor="middle" x="1314.5" y="-242.5" font-family="Helvetica,sans-Serif" font-size="10.00">MRAC_PID_members.hpp</text>
</a>
</g>
</g>
<!-- Node2&#45;&gt;Node3 -->
<g id="edge2" class="edge">
<title>Node2&#45;&gt;Node3</title>
<path fill="none" stroke="midnightblue" d="M1396.75,-291.32C1381.18,-282.74 1357.12,-269.49 1339.04,-259.52"/>
<polygon fill="midnightblue" stroke="midnightblue" points="1340.65,-256.42 1330.21,-254.65 1337.28,-262.55 1340.65,-256.42"/>
</g>
<!-- Node37 -->
<g id="node24" class="node">
<title>Node37</title>
<g id="a_node24"><a xlink:href="flight__log_8hpp.html" target="_top" xlink:title="Utilities for logging flight data.">
<polygon fill="white" stroke="black" points="3109,-67.5 3109,-86.5 3192,-86.5 3192,-67.5 3109,-67.5"/>
<text text-anchor="middle" x="3150.5" y="-74.5" font-family="Helvetica,sans-Serif" font-size="10.00">flight_log.hpp</text>
</a>
</g>
</g>
<!-- Node2&#45;&gt;Node37 -->
<g id="edge29" class="edge">
<title>Node2&#45;&gt;Node37</title>
<path fill="none" stroke="midnightblue" d="M1474.61,-292.07C1748.66,-257.06 2847.21,-116.74 3098.93,-84.59"/>
<polygon fill="midnightblue" stroke="midnightblue" points="3099.43,-88.05 3108.9,-83.31 3098.54,-81.11 3099.43,-88.05"/>
</g>
<!-- Node62 -->
<g id="node49" class="node">
<title>Node62</title>
<g id="a_node49"><a xlink:href="global__helpers_8hpp.html" target="_top" xlink:title="Inline functions for all the classes of the flighstack to use.">
<polygon fill="white" stroke="black" points="1358,-67.5 1358,-86.5 1467,-86.5 1467,-67.5 1358,-67.5"/>
<text text-anchor="middle" x="1412.5" y="-74.5" font-family="Helvetica,sans-Serif" font-size="10.00">global_helpers.hpp</text>
</a>
</g>
</g>
<!-- Node2&#45;&gt;Node62 -->
<g id="edge58" class="edge">
<title>Node2&#45;&gt;Node62</title>
<path fill="none" stroke="midnightblue" d="M1412.5,-291.3C1412.5,-258.63 1412.5,-142.87 1412.5,-96.96"/>
<polygon fill="midnightblue" stroke="midnightblue" points="1416,-96.88 1412.5,-86.88 1409,-96.88 1416,-96.88"/>
</g>
<!-- Node4 -->
<g id="node4" class="node">
<title>Node4</title>
<g id="a_node4"><a xlink:title=" ">
<polygon fill="white" stroke="#bfbfbf" points="1225,-6 1225,-25 1302,-25 1302,-6 1225,-6"/>
<text text-anchor="middle" x="1263.5" y="-13" font-family="Helvetica,sans-Serif" font-size="10.00">Eigen/Dense</text>
</a>
</g>
</g>
<!-- Node3&#45;&gt;Node4 -->
<g id="edge3" class="edge">
<title>Node3&#45;&gt;Node4</title>
<path fill="none" stroke="midnightblue" d="M1312.56,-235.36C1305.1,-202.07 1278.11,-81.65 1267.66,-35.07"/>
<polygon fill="midnightblue" stroke="midnightblue" points="1271.04,-34.14 1265.44,-25.15 1264.21,-35.67 1271.04,-34.14"/>
</g>
<!-- Node5 -->
<g id="node5" class="node">
<title>Node5</title>
<g id="a_node5"><a xlink:title=" ">
<polygon fill="white" stroke="#bfbfbf" points="1757.5,-6 1757.5,-25 1807.5,-25 1807.5,-6 1757.5,-6"/>
<text text-anchor="middle" x="1782.5" y="-13" font-family="Helvetica,sans-Serif" font-size="10.00">chrono</text>
</a>
</g>
</g>
<!-- Node3&#45;&gt;Node5 -->
<g id="edge4" class="edge">
<title>Node3&#45;&gt;Node5</title>
<path fill="none" stroke="midnightblue" d="M1331.99,-235.5C1402.94,-201.01 1669.51,-71.42 1755.55,-29.6"/>
<polygon fill="midnightblue" stroke="midnightblue" points="1757.21,-32.69 1764.67,-25.17 1754.15,-26.39 1757.21,-32.69"/>
</g>
<!-- Node6 -->
<g id="node6" class="node">
<title>Node6</title>
<g id="a_node6"><a xlink:href="qrbp_8hpp.html" target="_top" xlink:title="Vehicle Information of the QRBP with the NACA 0012 wings and the Velox V2808 kv1300 motors used in al...">
<polygon fill="white" stroke="black" points="1178,-123.5 1178,-142.5 1237,-142.5 1237,-123.5 1178,-123.5"/>
<text text-anchor="middle" x="1207.5" y="-130.5" font-family="Helvetica,sans-Serif" font-size="10.00">qrbp.hpp</text>
</a>
</g>
</g>
<!-- Node3&#45;&gt;Node6 -->
<g id="edge5" class="edge">
<title>Node3&#45;&gt;Node6</title>
<path fill="none" stroke="midnightblue" d="M1307.61,-235.26C1297.38,-222.46 1277.35,-198.07 1258.5,-179 1248.12,-168.5 1235.72,-157.53 1225.75,-149.04"/>
<polygon fill="midnightblue" stroke="midnightblue" points="1227.94,-146.32 1218.03,-142.57 1223.44,-151.68 1227.94,-146.32"/>
</g>
<!-- Node36 -->
<g id="node23" class="node">
<title>Node36</title>
<g id="a_node23"><a xlink:href="aero__qrbp_8hpp.html" target="_top" xlink:title="Aerodynamics class for all algorithms to use with the grbp platform of ACSL.">
<polygon fill="white" stroke="black" points="1163.5,-179.5 1163.5,-198.5 1249.5,-198.5 1249.5,-179.5 1163.5,-179.5"/>
<text text-anchor="middle" x="1206.5" y="-186.5" font-family="Helvetica,sans-Serif" font-size="10.00">aero_qrbp.hpp</text>
</a>
</g>
</g>
<!-- Node3&#45;&gt;Node36 -->
<g id="edge27" class="edge">
<title>Node3&#45;&gt;Node36</title>
<path fill="none" stroke="midnightblue" d="M1297.15,-235.32C1279.83,-226.66 1252.98,-213.24 1233,-203.25"/>
<polygon fill="midnightblue" stroke="midnightblue" points="1234.32,-200 1223.81,-198.65 1231.19,-206.26 1234.32,-200"/>
</g>
<!-- Node6&#45;&gt;Node4 -->
<g id="edge6" class="edge">
<title>Node6&#45;&gt;Node4</title>
<path fill="none" stroke="midnightblue" d="M1211.71,-123.32C1220.83,-104.51 1242.58,-59.65 1254.79,-34.46"/>
<polygon fill="midnightblue" stroke="midnightblue" points="1258.03,-35.81 1259.24,-25.28 1251.73,-32.75 1258.03,-35.81"/>
</g>
<!-- Node7 -->
<g id="node7" class="node">
<title>Node7</title>
<g id="a_node7"><a xlink:title=" ">
<polygon fill="white" stroke="#bfbfbf" points="1160,-6 1160,-25 1207,-25 1207,-6 1160,-6"/>
<text text-anchor="middle" x="1183.5" y="-13" font-family="Helvetica,sans-Serif" font-size="10.00">cmath</text>
</a>
</g>
</g>
<!-- Node6&#45;&gt;Node7 -->
<g id="edge7" class="edge">
<title>Node6&#45;&gt;Node7</title>
<path fill="none" stroke="midnightblue" d="M1205.7,-123.32C1201.82,-104.67 1192.63,-60.44 1187.37,-35.13"/>
<polygon fill="midnightblue" stroke="midnightblue" points="1190.79,-34.36 1185.32,-25.28 1183.93,-35.78 1190.79,-34.36"/>
</g>
<!-- Node8 -->
<g id="node8" class="node">
<title>Node8</title>
<g id="a_node8"><a xlink:title=" ">
<polygon fill="white" stroke="#bfbfbf" points="0,-6 0,-25 51,-25 51,-6 0,-6"/>
<text text-anchor="middle" x="25.5" y="-13" font-family="Helvetica,sans-Serif" font-size="10.00">math.h</text>
</a>
</g>
</g>
<!-- Node6&#45;&gt;Node8 -->
<g id="edge8" class="edge">
<title>Node6&#45;&gt;Node8</title>
<path fill="none" stroke="midnightblue" d="M1177.8,-130.61C1020.35,-123.06 282.08,-85.29 60.5,-31 57.98,-30.38 55.42,-29.61 52.87,-28.75"/>
<polygon fill="midnightblue" stroke="midnightblue" points="53.9,-25.4 43.31,-25.11 51.41,-31.94 53.9,-25.4"/>
</g>
<!-- Node9 -->
<g id="node9" class="node">
<title>Node9</title>
<g id="a_node9"><a xlink:href="helper__functions_8hpp.html" target="_top" xlink:title="Definitions of some standard templates used in all controllers.">
<polygon fill="white" stroke="red" points="1061,-67.5 1061,-86.5 1180,-86.5 1180,-67.5 1061,-67.5"/>
<text text-anchor="middle" x="1120.5" y="-74.5" font-family="Helvetica,sans-Serif" font-size="10.00">helper_functions.hpp</text>
</a>
</g>
</g>
<!-- Node6&#45;&gt;Node9 -->
<g id="edge9" class="edge">
<title>Node6&#45;&gt;Node9</title>
<path fill="none" stroke="midnightblue" d="M1193.52,-123.32C1179.95,-114.9 1159.12,-101.97 1143.18,-92.07"/>
<polygon fill="midnightblue" stroke="midnightblue" points="1144.79,-88.95 1134.44,-86.65 1141.09,-94.9 1144.79,-88.95"/>
</g>
<!-- Node9&#45;&gt;Node4 -->
<g id="edge11" class="edge">
<title>Node9&#45;&gt;Node4</title>
<path fill="none" stroke="midnightblue" d="M1140.99,-67.48C1165.31,-57.36 1206.05,-40.4 1233.82,-28.85"/>
<polygon fill="midnightblue" stroke="midnightblue" points="1235.16,-32.08 1243.05,-25.01 1232.47,-25.62 1235.16,-32.08"/>
</g>
<!-- Node9&#45;&gt;Node5 -->
<g id="edge26" class="edge">
<title>Node9&#45;&gt;Node5</title>
<path fill="none" stroke="midnightblue" d="M1180.19,-72.85C1326.35,-64.98 1694.22,-44.13 1748.5,-31 1751.01,-30.39 1753.57,-29.62 1756.11,-28.74"/>
<polygon fill="midnightblue" stroke="midnightblue" points="1757.56,-31.93 1765.58,-25.02 1754.99,-25.42 1757.56,-31.93"/>
</g>
<!-- Node9&#45;&gt;Node7 -->
<g id="edge20" class="edge">
<title>Node9&#45;&gt;Node7</title>
<path fill="none" stroke="midnightblue" d="M1129.53,-67.48C1139.26,-58.28 1154.96,-43.46 1166.92,-32.16"/>
<polygon fill="midnightblue" stroke="midnightblue" points="1169.62,-34.42 1174.49,-25.01 1164.82,-29.33 1169.62,-34.42"/>
</g>
<!-- Node9&#45;&gt;Node8 -->
<g id="edge21" class="edge">
<title>Node9&#45;&gt;Node8</title>
<path fill="none" stroke="midnightblue" d="M1060.99,-74.69C851.86,-69.91 158.07,-52.57 60.5,-31 57.82,-30.41 55.09,-29.62 52.39,-28.73"/>
<polygon fill="midnightblue" stroke="midnightblue" points="53.5,-25.41 42.91,-25.12 51.01,-31.95 53.5,-25.41"/>
</g>
<!-- Node10 -->
<g id="node10" class="node">
<title>Node10</title>
<g id="a_node10"><a xlink:title=" ">
<polygon fill="white" stroke="#bfbfbf" points="1099.5,-6 1099.5,-25 1141.5,-25 1141.5,-6 1099.5,-6"/>
<text text-anchor="middle" x="1120.5" y="-13" font-family="Helvetica,sans-Serif" font-size="10.00">array</text>
</a>
</g>
</g>
<!-- Node9&#45;&gt;Node10 -->
<g id="edge10" class="edge">
<title>Node9&#45;&gt;Node10</title>
<path fill="none" stroke="midnightblue" d="M1120.5,-67.48C1120.5,-59.08 1120.5,-45.98 1120.5,-35.16"/>
<polygon fill="midnightblue" stroke="midnightblue" points="1124,-35.01 1120.5,-25.01 1117,-35.01 1124,-35.01"/>
</g>
<!-- Node11 -->
<g id="node11" class="node">
<title>Node11</title>
<g id="a_node11"><a xlink:title=" ">
<polygon fill="white" stroke="#bfbfbf" points="69.5,-6 69.5,-25 179.5,-25 179.5,-6 69.5,-6"/>
<text text-anchor="middle" x="124.5" y="-13" font-family="Helvetica,sans-Serif" font-size="10.00">nlohmann/json.hpp</text>
</a>
</g>
</g>
<!-- Node9&#45;&gt;Node11 -->
<g id="edge12" class="edge">
<title>Node9&#45;&gt;Node11</title>
<path fill="none" stroke="midnightblue" d="M1060.74,-76.71C912.38,-77.71 515.54,-75.59 188.5,-31 181.6,-30.06 174.34,-28.74 167.3,-27.28"/>
<polygon fill="midnightblue" stroke="midnightblue" points="167.7,-23.78 157.19,-25.06 166.2,-30.62 167.7,-23.78"/>
</g>
<!-- Node12 -->
<g id="node12" class="node">
<title>Node12</title>
<g id="a_node12"><a xlink:title=" ">
<polygon fill="white" stroke="#bfbfbf" points="197.5,-6 197.5,-25 289.5,-25 289.5,-6 197.5,-6"/>
<text text-anchor="middle" x="243.5" y="-13" font-family="Helvetica,sans-Serif" font-size="10.00">boost/array.hpp</text>
</a>
</g>
</g>
<!-- Node9&#45;&gt;Node12 -->
<g id="edge13" class="edge">
<title>Node9&#45;&gt;Node12</title>
<path fill="none" stroke="midnightblue" d="M1060.72,-74.3C897.29,-69.42 445.51,-54.16 298.5,-31 292.95,-30.13 287.15,-28.92 281.49,-27.58"/>
<polygon fill="midnightblue" stroke="midnightblue" points="282.08,-24.12 271.53,-25.06 280.36,-30.91 282.08,-24.12"/>
</g>
<!-- Node13 -->
<g id="node13" class="node">
<title>Node13</title>
<g id="a_node13"><a xlink:title=" ">
<polygon fill="white" stroke="#bfbfbf" points="308,-6 308,-25 421,-25 421,-6 308,-6"/>
<text text-anchor="middle" x="364.5" y="-13" font-family="Helvetica,sans-Serif" font-size="10.00">boost/bind/bind.hpp</text>
</a>
</g>
</g>
<!-- Node9&#45;&gt;Node13 -->
<g id="edge14" class="edge">
<title>Node9&#45;&gt;Node13</title>
<path fill="none" stroke="midnightblue" d="M1060.66,-75.13C940.59,-72.73 661.98,-63.78 430.5,-31 423.31,-29.98 415.74,-28.61 408.4,-27.11"/>
<polygon fill="midnightblue" stroke="midnightblue" points="409.09,-23.68 398.58,-25.02 407.63,-30.53 409.09,-23.68"/>
</g>
<!-- Node14 -->
<g id="node14" class="node">
<title>Node14</title>
<g id="a_node14"><a xlink:title=" ">
<polygon fill="white" stroke="#bfbfbf" points="439.5,-6 439.5,-25 593.5,-25 593.5,-6 439.5,-6"/>
<text text-anchor="middle" x="516.5" y="-13" font-family="Helvetica,sans-Serif" font-size="10.00">boost/bind/placeholders.hpp</text>
</a>
</g>
</g>
<!-- Node9&#45;&gt;Node14 -->
<g id="edge15" class="edge">
<title>Node9&#45;&gt;Node14</title>
<path fill="none" stroke="midnightblue" d="M1060.9,-72.39C964.37,-66.18 767.93,-52.1 602.5,-31 592.91,-29.78 582.76,-28.26 572.92,-26.68"/>
<polygon fill="midnightblue" stroke="midnightblue" points="573.25,-23.19 562.82,-25.01 572.11,-30.09 573.25,-23.19"/>
</g>
<!-- Node15 -->
<g id="node15" class="node">
<title>Node15</title>
<g id="a_node15"><a xlink:title=" ">
<polygon fill="white" stroke="#bfbfbf" points="612,-6 612,-25 753,-25 753,-6 612,-6"/>
<text text-anchor="middle" x="682.5" y="-13" font-family="Helvetica,sans-Serif" font-size="10.00">boost/numeric/odeint.hpp</text>
</a>
</g>
</g>
<!-- Node9&#45;&gt;Node15 -->
<g id="edge16" class="edge">
<title>Node9&#45;&gt;Node15</title>
<path fill="none" stroke="midnightblue" d="M1060.82,-69.5C989.64,-61.52 867.14,-47.05 762.5,-31 754.37,-29.75 745.79,-28.32 737.39,-26.85"/>
<polygon fill="midnightblue" stroke="midnightblue" points="737.74,-23.36 727.28,-25.06 736.51,-30.25 737.74,-23.36"/>
</g>
<!-- Node16 -->
<g id="node16" class="node">
<title>Node16</title>
<g id="a_node16"><a xlink:title=" ">
<polygon fill="white" stroke="#bfbfbf" points="771.5,-6 771.5,-25 919.5,-25 919.5,-6 771.5,-6"/>
<text text-anchor="middle" x="845.5" y="-13" font-family="Helvetica,sans-Serif" font-size="10.00">boost/numeric/interval.hpp</text>
</a>
</g>
</g>
<!-- Node9&#45;&gt;Node16 -->
<g id="edge17" class="edge">
<title>Node9&#45;&gt;Node16</title>
<path fill="none" stroke="midnightblue" d="M1081.1,-67.48C1031.99,-56.85 948.03,-38.68 894.73,-27.15"/>
<polygon fill="midnightblue" stroke="midnightblue" points="895.34,-23.7 884.83,-25.01 893.86,-30.54 895.34,-23.7"/>
</g>
<!-- Node17 -->
<g id="node17" class="node">
<title>Node17</title>
<g id="a_node17"><a xlink:title=" ">
<polygon fill="white" stroke="#bfbfbf" points="937.5,-0.5 937.5,-30.5 1081.5,-30.5 1081.5,-0.5 937.5,-0.5"/>
<text text-anchor="start" x="945.5" y="-18.5" font-family="Helvetica,sans-Serif" font-size="10.00">boost/numeric/odeint</text>
<text text-anchor="middle" x="1009.5" y="-7.5" font-family="Helvetica,sans-Serif" font-size="10.00">/stepper/runge_kutta4.hpp</text>
</a>
</g>
</g>
<!-- Node9&#45;&gt;Node17 -->
<g id="edge18" class="edge">
<title>Node9&#45;&gt;Node17</title>
<path fill="none" stroke="midnightblue" d="M1104.6,-67.48C1089,-59.12 1064.7,-46.09 1044.57,-35.3"/>
<polygon fill="midnightblue" stroke="midnightblue" points="1046.13,-32.16 1035.66,-30.52 1042.82,-38.33 1046.13,-32.16"/>
</g>
<!-- Node21 -->
<g id="node18" class="node">
<title>Node21</title>
<g id="a_node18"><a xlink:title=" ">
<polygon fill="white" stroke="#bfbfbf" points="1382.5,-6 1382.5,-25 1442.5,-25 1442.5,-6 1382.5,-6"/>
<text text-anchor="middle" x="1412.5" y="-13" font-family="Helvetica,sans-Serif" font-size="10.00">iostream</text>
</a>
</g>
</g>
<!-- Node9&#45;&gt;Node21 -->
<g id="edge19" class="edge">
<title>Node9&#45;&gt;Node21</title>
<path fill="none" stroke="midnightblue" d="M1180.21,-68.47C1231.91,-61.22 1308.4,-48.74 1373.5,-31 1376.31,-30.23 1379.2,-29.35 1382.08,-28.4"/>
<polygon fill="midnightblue" stroke="midnightblue" points="1383.4,-31.65 1391.68,-25.03 1381.08,-25.05 1383.4,-31.65"/>
</g>
<!-- Node25 -->
<g id="node19" class="node">
<title>Node25</title>
<g id="a_node19"><a xlink:title=" ">
<polygon fill="white" stroke="#bfbfbf" points="1460.5,-6 1460.5,-25 1504.5,-25 1504.5,-6 1460.5,-6"/>
<text text-anchor="middle" x="1482.5" y="-13" font-family="Helvetica,sans-Serif" font-size="10.00">ctime</text>
</a>
</g>
</g>
<!-- Node9&#45;&gt;Node25 -->
<g id="edge22" class="edge">
<title>Node9&#45;&gt;Node25</title>
<path fill="none" stroke="midnightblue" d="M1180.22,-73.31C1247.39,-69.04 1359.15,-58.19 1451.5,-31 1453.38,-30.45 1455.29,-29.79 1457.19,-29.08"/>
<polygon fill="midnightblue" stroke="midnightblue" points="1458.63,-32.27 1466.45,-25.13 1455.88,-25.83 1458.63,-32.27"/>
</g>
<!-- Node26 -->
<g id="node20" class="node">
<title>Node26</title>
<g id="a_node20"><a xlink:title=" ">
<polygon fill="white" stroke="#bfbfbf" points="1522.5,-6 1522.5,-25 1578.5,-25 1578.5,-6 1522.5,-6"/>
<text text-anchor="middle" x="1550.5" y="-13" font-family="Helvetica,sans-Serif" font-size="10.00">iomanip</text>
</a>
</g>
</g>
<!-- Node9&#45;&gt;Node26 -->
<g id="edge23" class="edge">
<title>Node9&#45;&gt;Node26</title>
<path fill="none" stroke="midnightblue" d="M1180.28,-73.97C1258.06,-70.23 1397.7,-59.8 1513.5,-31 1516.17,-30.34 1518.91,-29.53 1521.62,-28.63"/>
<polygon fill="midnightblue" stroke="midnightblue" points="1523.02,-31.85 1531.22,-25.14 1520.63,-25.27 1523.02,-31.85"/>
</g>
<!-- Node27 -->
<g id="node21" class="node">
<title>Node27</title>
<g id="a_node21"><a xlink:title=" ">
<polygon fill="white" stroke="#bfbfbf" points="1597,-6 1597,-25 1652,-25 1652,-6 1597,-6"/>
<text text-anchor="middle" x="1624.5" y="-13" font-family="Helvetica,sans-Serif" font-size="10.00">fstream</text>
</a>
</g>
</g>
<!-- Node9&#45;&gt;Node27 -->
<g id="edge24" class="edge">
<title>Node9&#45;&gt;Node27</title>
<path fill="none" stroke="midnightblue" d="M1180.34,-75.51C1270.04,-73.59 1444.12,-65.3 1587.5,-31 1590.33,-30.32 1593.23,-29.48 1596.11,-28.53"/>
<polygon fill="midnightblue" stroke="midnightblue" points="1597.43,-31.78 1605.62,-25.06 1595.03,-25.2 1597.43,-31.78"/>
</g>
<!-- Node28 -->
<g id="node22" class="node">
<title>Node28</title>
<g id="a_node22"><a xlink:title=" ">
<polygon fill="white" stroke="#bfbfbf" points="1320.5,-6 1320.5,-25 1364.5,-25 1364.5,-6 1320.5,-6"/>
<text text-anchor="middle" x="1342.5" y="-13" font-family="Helvetica,sans-Serif" font-size="10.00">string</text>
</a>
</g>
</g>
<!-- Node9&#45;&gt;Node28 -->
<g id="edge25" class="edge">
<title>Node9&#45;&gt;Node28</title>
<path fill="none" stroke="midnightblue" d="M1167.67,-67.46C1206.56,-59.8 1262.86,-47.26 1310.5,-31 1312.17,-30.43 1313.86,-29.81 1315.57,-29.14"/>
<polygon fill="midnightblue" stroke="midnightblue" points="1317.29,-32.21 1325.14,-25.1 1314.57,-25.77 1317.29,-32.21"/>
</g>
<!-- Node36&#45;&gt;Node6 -->
<g id="edge28" class="edge">
<title>Node36&#45;&gt;Node6</title>
<path fill="none" stroke="midnightblue" d="M1206.67,-179.08C1206.8,-172.01 1206.98,-161.86 1207.15,-152.99"/>
<polygon fill="midnightblue" stroke="midnightblue" points="1210.65,-152.81 1207.34,-142.75 1203.65,-152.68 1210.65,-152.81"/>
</g>
<!-- Node37&#45;&gt;Node5 -->
<g id="edge31" class="edge">
<title>Node37&#45;&gt;Node5</title>
<path fill="none" stroke="midnightblue" d="M3108.67,-75.5C2896.56,-72.87 1945.02,-59.53 1816.5,-31 1813.83,-30.41 1811.11,-29.61 1808.43,-28.69"/>
<polygon fill="midnightblue" stroke="midnightblue" points="1809.63,-25.41 1799.04,-25 1807.06,-31.92 1809.63,-25.41"/>
</g>
<!-- Node37&#45;&gt;Node25 -->
<g id="edge36" class="edge">
<title>Node37&#45;&gt;Node25</title>
<path fill="none" stroke="midnightblue" d="M3108.98,-75.87C2869.78,-74.99 1672.75,-68.71 1513.5,-31 1511.29,-30.48 1509.05,-29.79 1506.84,-28.99"/>
<polygon fill="midnightblue" stroke="midnightblue" points="1508.07,-25.71 1497.5,-25.02 1505.34,-32.16 1508.07,-25.71"/>
</g>
<!-- Node37&#45;&gt;Node26 -->
<g id="edge32" class="edge">
<title>Node37&#45;&gt;Node26</title>
<path fill="none" stroke="midnightblue" d="M3108.66,-75.63C2875.46,-73.46 1741.15,-61.41 1588.5,-31 1585.25,-30.35 1581.9,-29.45 1578.62,-28.42"/>
<polygon fill="midnightblue" stroke="midnightblue" points="1579.67,-25.07 1569.07,-25.01 1577.32,-31.67 1579.67,-25.07"/>
</g>
<!-- Node37&#45;&gt;Node27 -->
<g id="edge35" class="edge">
<title>Node37&#45;&gt;Node27</title>
<path fill="none" stroke="midnightblue" d="M3108.77,-75.59C2882.4,-73.26 1806.48,-60.67 1661.5,-31 1658.42,-30.37 1655.27,-29.51 1652.16,-28.51"/>
<polygon fill="midnightblue" stroke="midnightblue" points="1653.16,-25.15 1642.56,-25.01 1650.76,-31.72 1653.16,-25.15"/>
</g>
<!-- Node38 -->
<g id="node25" class="node">
<title>Node38</title>
<g id="a_node25"><a xlink:title=" ">
<polygon fill="white" stroke="#bfbfbf" points="3378.5,-6 3378.5,-25 3428.5,-25 3428.5,-6 3378.5,-6"/>
<text text-anchor="middle" x="3403.5" y="-13" font-family="Helvetica,sans-Serif" font-size="10.00">atomic</text>
</a>
</g>
</g>
<!-- Node37&#45;&gt;Node38 -->
<g id="edge30" class="edge">
<title>Node37&#45;&gt;Node38</title>
<path fill="none" stroke="midnightblue" d="M3192.3,-69.97C3236.84,-62.95 3309.11,-49.87 3369.5,-31 3371.64,-30.33 3373.83,-29.57 3376.01,-28.77"/>
<polygon fill="midnightblue" stroke="midnightblue" points="3377.42,-31.98 3385.4,-25.01 3374.82,-25.48 3377.42,-31.98"/>
</g>
<!-- Node39 -->
<g id="node26" class="node">
<title>Node39</title>
<g id="a_node26"><a xlink:title=" ">
<polygon fill="white" stroke="#bfbfbf" points="1825.5,-6 1825.5,-25 1881.5,-25 1881.5,-6 1825.5,-6"/>
<text text-anchor="middle" x="1853.5" y="-13" font-family="Helvetica,sans-Serif" font-size="10.00">sstream</text>
</a>
</g>
</g>
<!-- Node37&#45;&gt;Node39 -->
<g id="edge33" class="edge">
<title>Node37&#45;&gt;Node39</title>
<path fill="none" stroke="midnightblue" d="M3108.93,-76.34C2918.94,-77.62 2132.11,-79.81 1891.5,-31 1888.42,-30.37 1885.25,-29.53 1882.14,-28.55"/>
<polygon fill="midnightblue" stroke="midnightblue" points="1883.06,-25.17 1872.47,-25.14 1880.73,-31.77 1883.06,-25.17"/>
</g>
<!-- Node40 -->
<g id="node27" class="node">
<title>Node40</title>
<g id="a_node27"><a xlink:title=" ">
<polygon fill="white" stroke="#bfbfbf" points="3446.5,-6 3446.5,-25 3514.5,-25 3514.5,-6 3446.5,-6"/>
<text text-anchor="middle" x="3480.5" y="-13" font-family="Helvetica,sans-Serif" font-size="10.00">filesystem</text>
</a>
</g>
</g>
<!-- Node37&#45;&gt;Node40 -->
<g id="edge34" class="edge">
<title>Node37&#45;&gt;Node40</title>
<path fill="none" stroke="midnightblue" d="M3192.29,-71.7C3248.55,-65.4 3351.53,-52.07 3437.5,-31 3440.89,-30.17 3444.4,-29.19 3447.88,-28.14"/>
<polygon fill="midnightblue" stroke="midnightblue" points="3449.05,-31.44 3457.5,-25.06 3446.91,-24.78 3449.05,-31.44"/>
</g>
<!-- Node41 -->
<g id="node28" class="node">
<title>Node41</title>
<g id="a_node28"><a xlink:title=" ">
<polygon fill="white" stroke="#bfbfbf" points="3533,-0.5 3533,-30.5 3658,-30.5 3658,-0.5 3533,-0.5"/>
<text text-anchor="start" x="3541" y="-18.5" font-family="Helvetica,sans-Serif" font-size="10.00">boost/date_time/posix</text>
<text text-anchor="middle" x="3595.5" y="-7.5" font-family="Helvetica,sans-Serif" font-size="10.00">_time/posix_time.hpp</text>
</a>
</g>
</g>
<!-- Node37&#45;&gt;Node41 -->
<g id="edge37" class="edge">
<title>Node37&#45;&gt;Node41</title>
<path fill="none" stroke="midnightblue" d="M3192.05,-72.07C3259.27,-65.46 3396.25,-51.04 3522.49,-31.08"/>
<polygon fill="midnightblue" stroke="midnightblue" points="3523.4,-34.48 3532.72,-29.44 3522.3,-27.57 3523.4,-34.48"/>
</g>
<!-- Node42 -->
<g id="node29" class="node">
<title>Node42</title>
<g id="a_node29"><a xlink:title=" ">
<polygon fill="white" stroke="#bfbfbf" points="3676,-0.5 3676,-30.5 3831,-30.5 3831,-0.5 3676,-0.5"/>
<text text-anchor="start" x="3684" y="-18.5" font-family="Helvetica,sans-Serif" font-size="10.00">boost/date_time/posix</text>
<text text-anchor="middle" x="3753.5" y="-7.5" font-family="Helvetica,sans-Serif" font-size="10.00">_time/posix_time_types.hpp</text>
</a>
</g>
</g>
<!-- Node37&#45;&gt;Node42 -->
<g id="edge38" class="edge">
<title>Node37&#45;&gt;Node42</title>
<path fill="none" stroke="midnightblue" d="M3192.17,-73.51C3278.6,-68.1 3483.85,-53.99 3665.71,-31.17"/>
<polygon fill="midnightblue" stroke="midnightblue" points="3666.24,-34.63 3675.73,-29.9 3665.37,-27.68 3666.24,-34.63"/>
</g>
<!-- Node43 -->
<g id="node30" class="node">
<title>Node43</title>
<g id="a_node30"><a xlink:title=" ">
<polygon fill="white" stroke="#bfbfbf" points="3849,-6 3849,-25 3982,-25 3982,-6 3849,-6"/>
<text text-anchor="middle" x="3915.5" y="-13" font-family="Helvetica,sans-Serif" font-size="10.00">boost/log/attributes.hpp</text>
</a>
</g>
</g>
<!-- Node37&#45;&gt;Node43 -->
<g id="edge39" class="edge">
<title>Node37&#45;&gt;Node43</title>
<path fill="none" stroke="midnightblue" d="M3192.29,-75.11C3300.07,-72.4 3596.12,-62.46 3840.5,-31 3848.91,-29.92 3857.81,-28.47 3866.41,-26.91"/>
<polygon fill="midnightblue" stroke="midnightblue" points="3867.16,-30.33 3876.34,-25.04 3865.86,-23.45 3867.16,-30.33"/>
</g>
<!-- Node44 -->
<g id="node31" class="node">
<title>Node44</title>
<g id="a_node31"><a xlink:title=" ">
<polygon fill="white" stroke="#bfbfbf" points="4000.5,-0.5 4000.5,-30.5 4122.5,-30.5 4122.5,-0.5 4000.5,-0.5"/>
<text text-anchor="start" x="4008.5" y="-18.5" font-family="Helvetica,sans-Serif" font-size="10.00">boost/log/attributes</text>
<text text-anchor="middle" x="4061.5" y="-7.5" font-family="Helvetica,sans-Serif" font-size="10.00">/scoped_attribute.hpp</text>
</a>
</g>
</g>
<!-- Node37&#45;&gt;Node44 -->
<g id="edge40" class="edge">
<title>Node37&#45;&gt;Node44</title>
<path fill="none" stroke="midnightblue" d="M3192.27,-75.99C3313.94,-75.48 3678.68,-70.61 3990.01,-31.06"/>
<polygon fill="midnightblue" stroke="midnightblue" points="3990.66,-34.5 4000.13,-29.76 3989.76,-27.56 3990.66,-34.5"/>
</g>
<!-- Node45 -->
<g id="node32" class="node">
<title>Node45</title>
<g id="a_node32"><a xlink:title=" ">
<polygon fill="white" stroke="#bfbfbf" points="4141,-6 4141,-25 4248,-25 4248,-6 4141,-6"/>
<text text-anchor="middle" x="4194.5" y="-13" font-family="Helvetica,sans-Serif" font-size="10.00">boost/log/core.hpp</text>
</a>
</g>
</g>
<!-- Node37&#45;&gt;Node45 -->
<g id="edge41" class="edge">
<title>Node37&#45;&gt;Node45</title>
<path fill="none" stroke="midnightblue" d="M3192.22,-75.09C3354.75,-71.39 3945.69,-56.43 4131.5,-31 4138.37,-30.06 4145.6,-28.73 4152.61,-27.25"/>
<polygon fill="midnightblue" stroke="midnightblue" points="4153.66,-30.6 4162.66,-25 4152.13,-23.77 4153.66,-30.6"/>
</g>
<!-- Node46 -->
<g id="node33" class="node">
<title>Node46</title>
<g id="a_node33"><a xlink:title=" ">
<polygon fill="white" stroke="#bfbfbf" points="4266.5,-6 4266.5,-25 4410.5,-25 4410.5,-6 4266.5,-6"/>
<text text-anchor="middle" x="4338.5" y="-13" font-family="Helvetica,sans-Serif" font-size="10.00">boost/log/expressions.hpp</text>
</a>
</g>
</g>
<!-- Node37&#45;&gt;Node46 -->
<g id="edge42" class="edge">
<title>Node37&#45;&gt;Node46</title>
<path fill="none" stroke="midnightblue" d="M3192.12,-76.35C3338.6,-77.15 3843.78,-76.23 4257.5,-31 4267.09,-29.95 4277.26,-28.45 4287.03,-26.8"/>
<polygon fill="midnightblue" stroke="midnightblue" points="4287.79,-30.22 4297.03,-25.05 4286.58,-23.33 4287.79,-30.22"/>
</g>
<!-- Node47 -->
<g id="node34" class="node">
<title>Node47</title>
<g id="a_node34"><a xlink:title=" ">
<polygon fill="white" stroke="#bfbfbf" points="4428.5,-0.5 4428.5,-30.5 4544.5,-30.5 4544.5,-0.5 4428.5,-0.5"/>
<text text-anchor="start" x="4436.5" y="-18.5" font-family="Helvetica,sans-Serif" font-size="10.00">boost/log/sinks/sync</text>
<text text-anchor="middle" x="4486.5" y="-7.5" font-family="Helvetica,sans-Serif" font-size="10.00">_frontend.hpp</text>
</a>
</g>
</g>
<!-- Node37&#45;&gt;Node47 -->
<g id="edge43" class="edge">
<title>Node37&#45;&gt;Node47</title>
<path fill="none" stroke="midnightblue" d="M3192.26,-75.52C3380.73,-73.19 4153.97,-61.97 4418.2,-30.97"/>
<polygon fill="midnightblue" stroke="midnightblue" points="4418.63,-34.45 4428.14,-29.77 4417.79,-27.5 4418.63,-34.45"/>
</g>
<!-- Node48 -->
<g id="node35" class="node">
<title>Node48</title>
<g id="a_node35"><a xlink:title=" ">
<polygon fill="white" stroke="#bfbfbf" points="4563,-0.5 4563,-30.5 4692,-30.5 4692,-0.5 4563,-0.5"/>
<text text-anchor="start" x="4571" y="-18.5" font-family="Helvetica,sans-Serif" font-size="10.00">boost/log/sinks/text</text>
<text text-anchor="middle" x="4627.5" y="-7.5" font-family="Helvetica,sans-Serif" font-size="10.00">_ostream_backend.hpp</text>
</a>
</g>
</g>
<!-- Node37&#45;&gt;Node48 -->
<g id="edge44" class="edge">
<title>Node37&#45;&gt;Node48</title>
<path fill="none" stroke="midnightblue" d="M3192.18,-75.57C3392.57,-73.37 4259.07,-62.27 4552.43,-30.95"/>
<polygon fill="midnightblue" stroke="midnightblue" points="4553.06,-34.4 4562.62,-29.83 4552.3,-27.44 4553.06,-34.4"/>
</g>
<!-- Node49 -->
<g id="node36" class="node">
<title>Node49</title>
<g id="a_node36"><a xlink:title=" ">
<polygon fill="white" stroke="#bfbfbf" points="4710,-0.5 4710,-30.5 4841,-30.5 4841,-0.5 4710,-0.5"/>
<text text-anchor="start" x="4718" y="-18.5" font-family="Helvetica,sans-Serif" font-size="10.00">boost/log/sources/basic</text>
<text text-anchor="middle" x="4775.5" y="-7.5" font-family="Helvetica,sans-Serif" font-size="10.00">_logger.hpp</text>
</a>
</g>
</g>
<!-- Node37&#45;&gt;Node49 -->
<g id="edge45" class="edge">
<title>Node37&#45;&gt;Node49</title>
<path fill="none" stroke="midnightblue" d="M3192.21,-75.72C3405.41,-74.14 4375.64,-65.23 4699.5,-31.07"/>
<polygon fill="midnightblue" stroke="midnightblue" points="4700.26,-34.51 4709.82,-29.95 4699.5,-27.55 4700.26,-34.51"/>
</g>
<!-- Node50 -->
<g id="node37" class="node">
<title>Node50</title>
<g id="a_node37"><a xlink:title=" ">
<polygon fill="white" stroke="#bfbfbf" points="4859.5,-6 4859.5,-25 5015.5,-25 5015.5,-6 4859.5,-6"/>
<text text-anchor="middle" x="4937.5" y="-13" font-family="Helvetica,sans-Serif" font-size="10.00">boost/log/sources/logger.hpp</text>
</a>
</g>
</g>
<!-- Node37&#45;&gt;Node50 -->
<g id="edge46" class="edge">
<title>Node37&#45;&gt;Node50</title>
<path fill="none" stroke="midnightblue" d="M3192.01,-75.68C3419.2,-73.83 4514,-63.34 4850.5,-31 4861.13,-29.98 4872.42,-28.44 4883.22,-26.74"/>
<polygon fill="midnightblue" stroke="midnightblue" points="4884.1,-30.14 4893.4,-25.07 4882.96,-23.23 4884.1,-30.14"/>
</g>
<!-- Node51 -->
<g id="node38" class="node">
<title>Node51</title>
<g id="a_node38"><a xlink:title=" ">
<polygon fill="white" stroke="#bfbfbf" points="5033.5,-0.5 5033.5,-30.5 5169.5,-30.5 5169.5,-0.5 5033.5,-0.5"/>
<text text-anchor="start" x="5041.5" y="-18.5" font-family="Helvetica,sans-Serif" font-size="10.00">boost/log/sources/record</text>
<text text-anchor="middle" x="5101.5" y="-7.5" font-family="Helvetica,sans-Serif" font-size="10.00">_ostream.hpp</text>
</a>
</g>
</g>
<!-- Node37&#45;&gt;Node51 -->
<g id="edge47" class="edge">
<title>Node37&#45;&gt;Node51</title>
<path fill="none" stroke="midnightblue" d="M3192.26,-75.92C3431.52,-75.31 4631.15,-70.38 5023.2,-30.99"/>
<polygon fill="midnightblue" stroke="midnightblue" points="5023.56,-34.47 5033.15,-29.97 5022.84,-27.51 5023.56,-34.47"/>
</g>
<!-- Node52 -->
<g id="node39" class="node">
<title>Node52</title>
<g id="a_node39"><a xlink:title=" ">
<polygon fill="white" stroke="#bfbfbf" points="1900,-0.5 1900,-30.5 2045,-30.5 2045,-0.5 1900,-0.5"/>
<text text-anchor="start" x="1908" y="-18.5" font-family="Helvetica,sans-Serif" font-size="10.00">boost/log/sources/severity</text>
<text text-anchor="middle" x="1972.5" y="-7.5" font-family="Helvetica,sans-Serif" font-size="10.00">_channel_logger.hpp</text>
</a>
</g>
</g>
<!-- Node37&#45;&gt;Node52 -->
<g id="edge48" class="edge">
<title>Node37&#45;&gt;Node52</title>
<path fill="none" stroke="midnightblue" d="M3108.79,-76.29C2964.31,-76.89 2471.71,-75.4 2055.43,-30.99"/>
<polygon fill="midnightblue" stroke="midnightblue" points="2055.62,-27.49 2045.3,-29.9 2054.87,-34.45 2055.62,-27.49"/>
</g>
<!-- Node53 -->
<g id="node40" class="node">
<title>Node53</title>
<g id="a_node40"><a xlink:title=" ">
<polygon fill="white" stroke="#bfbfbf" points="2063,-0.5 2063,-30.5 2208,-30.5 2208,-0.5 2063,-0.5"/>
<text text-anchor="start" x="2071" y="-18.5" font-family="Helvetica,sans-Serif" font-size="10.00">boost/log/sources/severity</text>
<text text-anchor="middle" x="2135.5" y="-7.5" font-family="Helvetica,sans-Serif" font-size="10.00">_logger.hpp</text>
</a>
</g>
</g>
<!-- Node37&#45;&gt;Node53 -->
<g id="edge49" class="edge">
<title>Node37&#45;&gt;Node53</title>
<path fill="none" stroke="midnightblue" d="M3108.97,-75.87C2978.98,-75.07 2568.29,-69.53 2218.38,-30.99"/>
<polygon fill="midnightblue" stroke="midnightblue" points="2218.63,-27.5 2208.31,-29.87 2217.86,-34.45 2218.63,-27.5"/>
</g>
<!-- Node54 -->
<g id="node41" class="node">
<title>Node54</title>
<g id="a_node41"><a xlink:title=" ">
<polygon fill="white" stroke="#bfbfbf" points="2226.5,-0.5 2226.5,-30.5 2352.5,-30.5 2352.5,-0.5 2226.5,-0.5"/>
<text text-anchor="start" x="2234.5" y="-18.5" font-family="Helvetica,sans-Serif" font-size="10.00">boost/log/support/date</text>
<text text-anchor="middle" x="2289.5" y="-7.5" font-family="Helvetica,sans-Serif" font-size="10.00">_time.hpp</text>
</a>
</g>
</g>
<!-- Node37&#45;&gt;Node54 -->
<g id="edge50" class="edge">
<title>Node37&#45;&gt;Node54</title>
<path fill="none" stroke="midnightblue" d="M3108.82,-75.7C2992.37,-74.42 2653.64,-67.68 2362.95,-31.06"/>
<polygon fill="midnightblue" stroke="midnightblue" points="2362.99,-27.53 2352.63,-29.74 2362.11,-34.48 2362.99,-27.53"/>
</g>
<!-- Node55 -->
<g id="node42" class="node">
<title>Node55</title>
<g id="a_node42"><a xlink:title=" ">
<polygon fill="white" stroke="#bfbfbf" points="2370.5,-6 2370.5,-25 2484.5,-25 2484.5,-6 2370.5,-6"/>
<text text-anchor="middle" x="2427.5" y="-13" font-family="Helvetica,sans-Serif" font-size="10.00">boost/log/trivial.hpp</text>
</a>
</g>
</g>
<!-- Node37&#45;&gt;Node55 -->
<g id="edge51" class="edge">
<title>Node37&#45;&gt;Node55</title>
<path fill="none" stroke="midnightblue" d="M3108.77,-75.28C3004.49,-73.02 2724.37,-64.08 2493.5,-31 2486.56,-30 2479.25,-28.68 2472.14,-27.24"/>
<polygon fill="midnightblue" stroke="midnightblue" points="2472.43,-23.73 2461.92,-25.07 2470.97,-30.57 2472.43,-23.73"/>
</g>
<!-- Node56 -->
<g id="node43" class="node">
<title>Node56</title>
<g id="a_node43"><a xlink:title=" ">
<polygon fill="white" stroke="#bfbfbf" points="2502.5,-0.5 2502.5,-30.5 2638.5,-30.5 2638.5,-0.5 2502.5,-0.5"/>
<text text-anchor="start" x="2510.5" y="-18.5" font-family="Helvetica,sans-Serif" font-size="10.00">boost/log/utility/setup</text>
<text text-anchor="middle" x="2570.5" y="-7.5" font-family="Helvetica,sans-Serif" font-size="10.00">/common_attributes.hpp</text>
</a>
</g>
</g>
<!-- Node37&#45;&gt;Node56 -->
<g id="edge52" class="edge">
<title>Node37&#45;&gt;Node56</title>
<path fill="none" stroke="midnightblue" d="M3108.7,-73.59C3022.41,-68.33 2818.41,-54.35 2648.5,-31 2648.4,-30.99 2648.3,-30.97 2648.19,-30.96"/>
<polygon fill="midnightblue" stroke="midnightblue" points="2648.91,-27.52 2638.5,-29.53 2647.89,-34.45 2648.91,-27.52"/>
</g>
<!-- Node57 -->
<g id="node44" class="node">
<title>Node57</title>
<g id="a_node44"><a xlink:title=" ">
<polygon fill="white" stroke="#bfbfbf" points="2657,-0.5 2657,-30.5 2780,-30.5 2780,-0.5 2657,-0.5"/>
<text text-anchor="start" x="2665" y="-18.5" font-family="Helvetica,sans-Serif" font-size="10.00">boost/log/utility/setup</text>
<text text-anchor="middle" x="2718.5" y="-7.5" font-family="Helvetica,sans-Serif" font-size="10.00">/file.hpp</text>
</a>
</g>
</g>
<!-- Node37&#45;&gt;Node57 -->
<g id="edge53" class="edge">
<title>Node37&#45;&gt;Node57</title>
<path fill="none" stroke="midnightblue" d="M3108.93,-71.88C3043.39,-65.14 2911.82,-50.69 2789.9,-30.98"/>
<polygon fill="midnightblue" stroke="midnightblue" points="2790.45,-27.52 2780.02,-29.37 2789.33,-34.43 2790.45,-27.52"/>
</g>
<!-- Node58 -->
<g id="node45" class="node">
<title>Node58</title>
<g id="a_node45"><a xlink:title=" ">
<polygon fill="white" stroke="#bfbfbf" points="2798,-0.5 2798,-30.5 2921,-30.5 2921,-0.5 2798,-0.5"/>
<text text-anchor="start" x="2806" y="-18.5" font-family="Helvetica,sans-Serif" font-size="10.00">boost/log/utility/value</text>
<text text-anchor="middle" x="2859.5" y="-7.5" font-family="Helvetica,sans-Serif" font-size="10.00">_ref.hpp</text>
</a>
</g>
</g>
<!-- Node37&#45;&gt;Node58 -->
<g id="edge54" class="edge">
<title>Node37&#45;&gt;Node58</title>
<path fill="none" stroke="midnightblue" d="M3108.81,-67.48C3062.48,-58 2986.85,-42.54 2931.02,-31.12"/>
<polygon fill="midnightblue" stroke="midnightblue" points="2931.69,-27.69 2921.19,-29.11 2930.28,-34.55 2931.69,-27.69"/>
</g>
<!-- Node59 -->
<g id="node46" class="node">
<title>Node59</title>
<g id="a_node46"><a xlink:title=" ">
<polygon fill="white" stroke="#bfbfbf" points="2939,-6 2939,-25 3070,-25 3070,-6 2939,-6"/>
<text text-anchor="middle" x="3004.5" y="-13" font-family="Helvetica,sans-Serif" font-size="10.00">boost/phoenix/bind.hpp</text>
</a>
</g>
</g>
<!-- Node37&#45;&gt;Node59 -->
<g id="edge55" class="edge">
<title>Node37&#45;&gt;Node59</title>
<path fill="none" stroke="midnightblue" d="M3129.58,-67.48C3104.75,-57.36 3063.16,-40.4 3034.81,-28.85"/>
<polygon fill="midnightblue" stroke="midnightblue" points="3035.96,-25.54 3025.38,-25.01 3033.32,-32.02 3035.96,-25.54"/>
</g>
<!-- Node60 -->
<g id="node47" class="node">
<title>Node60</title>
<g id="a_node47"><a xlink:title=" ">
<polygon fill="white" stroke="#bfbfbf" points="3088.5,-0.5 3088.5,-30.5 3212.5,-30.5 3212.5,-0.5 3088.5,-0.5"/>
<text text-anchor="start" x="3096.5" y="-18.5" font-family="Helvetica,sans-Serif" font-size="10.00">boost/smart_ptr/make</text>
<text text-anchor="middle" x="3150.5" y="-7.5" font-family="Helvetica,sans-Serif" font-size="10.00">_shared_object.hpp</text>
</a>
</g>
</g>
<!-- Node37&#45;&gt;Node60 -->
<g id="edge56" class="edge">
<title>Node37&#45;&gt;Node60</title>
<path fill="none" stroke="midnightblue" d="M3150.5,-67.48C3150.5,-60.47 3150.5,-50.19 3150.5,-40.7"/>
<polygon fill="midnightblue" stroke="midnightblue" points="3154,-40.52 3150.5,-30.52 3147,-40.52 3154,-40.52"/>
</g>
<!-- Node61 -->
<g id="node48" class="node">
<title>Node61</title>
<g id="a_node48"><a xlink:title=" ">
<polygon fill="white" stroke="#bfbfbf" points="3230.5,-0.5 3230.5,-30.5 3360.5,-30.5 3360.5,-0.5 3230.5,-0.5"/>
<text text-anchor="start" x="3238.5" y="-18.5" font-family="Helvetica,sans-Serif" font-size="10.00">boost/smart_ptr/shared</text>
<text text-anchor="middle" x="3295.5" y="-7.5" font-family="Helvetica,sans-Serif" font-size="10.00">_ptr.hpp</text>
</a>
</g>
</g>
<!-- Node37&#45;&gt;Node61 -->
<g id="edge57" class="edge">
<title>Node37&#45;&gt;Node61</title>
<path fill="none" stroke="midnightblue" d="M3171.27,-67.48C3192.2,-58.89 3225.11,-45.38 3251.81,-34.43"/>
<polygon fill="midnightblue" stroke="midnightblue" points="3253.4,-37.56 3261.33,-30.52 3250.75,-31.08 3253.4,-37.56"/>
</g>
<!-- Node62&#45;&gt;Node4 -->
<g id="edge63" class="edge">
<title>Node62&#45;&gt;Node4</title>
<path fill="none" stroke="midnightblue" d="M1391.15,-67.48C1365.81,-57.36 1323.36,-40.4 1294.43,-28.85"/>
<polygon fill="midnightblue" stroke="midnightblue" points="1295.39,-25.47 1284.81,-25.01 1292.8,-31.97 1295.39,-25.47"/>
</g>
<!-- Node62&#45;&gt;Node21 -->
<g id="edge59" class="edge">
<title>Node62&#45;&gt;Node21</title>
<path fill="none" stroke="midnightblue" d="M1412.5,-67.48C1412.5,-59.08 1412.5,-45.98 1412.5,-35.16"/>
<polygon fill="midnightblue" stroke="midnightblue" points="1416,-35.01 1412.5,-25.01 1409,-35.01 1416,-35.01"/>
</g>
<!-- Node62&#45;&gt;Node28 -->
<g id="edge60" class="edge">
<title>Node62&#45;&gt;Node28</title>
<path fill="none" stroke="midnightblue" d="M1402.47,-67.48C1391.45,-58.11 1373.54,-42.88 1360.16,-31.51"/>
<polygon fill="midnightblue" stroke="midnightblue" points="1362.4,-28.82 1352.51,-25.01 1357.86,-34.15 1362.4,-28.82"/>
</g>
<!-- Node62&#45;&gt;Node39 -->
<g id="edge61" class="edge">
<title>Node62&#45;&gt;Node39</title>
<path fill="none" stroke="midnightblue" d="M1467.21,-74.45C1545.62,-71.2 1694.03,-61.26 1816.5,-31 1819.33,-30.3 1822.22,-29.44 1825.1,-28.49"/>
<polygon fill="midnightblue" stroke="midnightblue" points="1826.42,-31.73 1834.61,-25.01 1824.01,-25.16 1826.42,-31.73"/>
</g>
<!-- Node63 -->
<g id="node50" class="node">
<title>Node63</title>
<g id="a_node50"><a xlink:title=" ">
<polygon fill="white" stroke="#bfbfbf" points="1670,-6 1670,-25 1739,-25 1739,-6 1670,-6"/>
<text text-anchor="middle" x="1704.5" y="-13" font-family="Helvetica,sans-Serif" font-size="10.00">type_traits</text>
</a>
</g>
</g>
<!-- Node62&#45;&gt;Node63 -->
<g id="edge62" class="edge">
<title>Node62&#45;&gt;Node63</title>
<path fill="none" stroke="midnightblue" d="M1467.4,-68.44C1518.19,-60.89 1595.56,-47.98 1661.5,-31 1664.7,-30.17 1668.01,-29.23 1671.31,-28.23"/>
<polygon fill="midnightblue" stroke="midnightblue" points="1672.58,-31.5 1681.03,-25.11 1670.44,-24.83 1672.58,-31.5"/>
</g>
</g>
</svg>
