<?xml version="1.0" encoding="UTF-8" standalone="no"?>
<!DOCTYPE svg PUBLIC "-//W3C//DTD SVG 1.1//EN"
 "http://www.w3.org/Graphics/SVG/1.1/DTD/svg11.dtd">
<!-- Generated by graphviz version 2.43.0 (0)
 -->
<!-- Title: ACSL&#45;flightstack&#45;winged/src/acsl_flight/src/control/platforms/qrbp/control_algorithms/MRAC_OMEGA/MRAC_OMEGA.cpp Pages: 1 -->
<svg width="3650pt" height="542pt"
 viewBox="0.00 0.00 3649.84 542.00" xmlns="http://www.w3.org/2000/svg" xmlns:xlink="http://www.w3.org/1999/xlink">
<g id="graph0" class="graph" transform="scale(1 1) rotate(0) translate(4 538)">
<title>ACSL&#45;flightstack&#45;winged/src/acsl_flight/src/control/platforms/qrbp/control_algorithms/MRAC_OMEGA/MRAC_OMEGA.cpp</title>
<polygon fill="white" stroke="transparent" points="-4,4 -4,-538 3645.84,-538 3645.84,4 -4,4"/>
<!-- Node1 -->
<g id="node1" class="node">
<title>Node1</title>
<g id="a_node1"><a xlink:title=" ">
<polygon fill="#bfbfbf" stroke="black" points="2480.34,-481.5 2480.34,-533.5 2666.34,-533.5 2666.34,-481.5 2480.34,-481.5"/>
<text text-anchor="start" x="2488.34" y="-521.5" font-family="Helvetica,sans-Serif" font-size="10.00">ACSL&#45;flightstack&#45;winged</text>
<text text-anchor="start" x="2488.34" y="-510.5" font-family="Helvetica,sans-Serif" font-size="10.00">/src/acsl_flight/src/control</text>
<text text-anchor="start" x="2488.34" y="-499.5" font-family="Helvetica,sans-Serif" font-size="10.00">/platforms/qrbp/control_algorithms</text>
<text text-anchor="middle" x="2573.34" y="-488.5" font-family="Helvetica,sans-Serif" font-size="10.00">/MRAC_OMEGA/MRAC_OMEGA.cpp</text>
</a>
</g>
</g>
<!-- Node2 -->
<g id="node2" class="node">
<title>Node2</title>
<g id="a_node2"><a xlink:href="MRAC__OMEGA_8hpp.html" target="_top" xlink:title="MRAC with angular velocities for the QRBP.">
<polygon fill="white" stroke="black" points="2518.84,-425.5 2518.84,-444.5 2627.84,-444.5 2627.84,-425.5 2518.84,-425.5"/>
<text text-anchor="middle" x="2573.34" y="-432.5" font-family="Helvetica,sans-Serif" font-size="10.00">MRAC_OMEGA.hpp</text>
</a>
</g>
</g>
<!-- Node1&#45;&gt;Node2 -->
<g id="edge1" class="edge">
<title>Node1&#45;&gt;Node2</title>
<path fill="none" stroke="midnightblue" d="M2573.34,-481.45C2573.34,-472.73 2573.34,-463.1 2573.34,-454.96"/>
<polygon fill="midnightblue" stroke="midnightblue" points="2576.84,-454.7 2573.34,-444.7 2569.84,-454.7 2576.84,-454.7"/>
</g>
<!-- Node3 -->
<g id="node3" class="node">
<title>Node3</title>
<g id="a_node3"><a xlink:href="control__algorithm__base_8hpp.html" target="_top" xlink:title="Utilities for Controller Base Definition.">
<polygon fill="white" stroke="black" points="2299.34,-252 2299.34,-271 2451.34,-271 2451.34,-252 2299.34,-252"/>
<text text-anchor="middle" x="2375.34" y="-259" font-family="Helvetica,sans-Serif" font-size="10.00">control_algorithm_base.hpp</text>
</a>
</g>
</g>
<!-- Node2&#45;&gt;Node3 -->
<g id="edge2" class="edge">
<title>Node2&#45;&gt;Node3</title>
<path fill="none" stroke="midnightblue" d="M2563.52,-425.5C2532.05,-398.24 2433.4,-312.78 2392.93,-277.73"/>
<polygon fill="midnightblue" stroke="midnightblue" points="2395.07,-274.96 2385.22,-271.06 2390.49,-280.25 2395.07,-274.96"/>
</g>
<!-- Node45 -->
<g id="node39" class="node">
<title>Node45</title>
<g id="a_node39"><a xlink:href="MRAC__OMEGA__members_8hpp.html" target="_top" xlink:title="MRAC with angular velocities controller class members.">
<polygon fill="white" stroke="black" points="2588.84,-313.5 2588.84,-332.5 2749.84,-332.5 2749.84,-313.5 2588.84,-313.5"/>
<text text-anchor="middle" x="2669.34" y="-320.5" font-family="Helvetica,sans-Serif" font-size="10.00">MRAC_OMEGA_members.hpp</text>
</a>
</g>
</g>
<!-- Node2&#45;&gt;Node45 -->
<g id="edge48" class="edge">
<title>Node2&#45;&gt;Node45</title>
<path fill="none" stroke="midnightblue" d="M2580.88,-425.37C2596.86,-407.05 2634.39,-364.05 2655.06,-340.36"/>
<polygon fill="midnightblue" stroke="midnightblue" points="2657.91,-342.43 2661.85,-332.59 2652.63,-337.82 2657.91,-342.43"/>
</g>
<!-- Node48 -->
<g id="node42" class="node">
<title>Node48</title>
<g id="a_node42"><a xlink:href="MRAC__OMEGA__logger_8hpp.html" target="_top" xlink:title="logging for the MRAc with angular velocities controller">
<polygon fill="white" stroke="black" points="2649.34,-369.5 2649.34,-388.5 2793.34,-388.5 2793.34,-369.5 2649.34,-369.5"/>
<text text-anchor="middle" x="2721.34" y="-376.5" font-family="Helvetica,sans-Serif" font-size="10.00">MRAC_OMEGA_logger.hpp</text>
</a>
</g>
</g>
<!-- Node2&#45;&gt;Node48 -->
<g id="edge58" class="edge">
<title>Node2&#45;&gt;Node48</title>
<path fill="none" stroke="midnightblue" d="M2596.79,-425.44C2621.48,-416.44 2660.53,-402.19 2688.32,-392.05"/>
<polygon fill="midnightblue" stroke="midnightblue" points="2689.81,-395.23 2698,-388.52 2687.41,-388.66 2689.81,-395.23"/>
</g>
<!-- Node72 -->
<g id="node49" class="node">
<title>Node72</title>
<g id="a_node49"><a xlink:href="piecewise__polynomial__trajectory_8hpp.html" target="_top" xlink:title="Header file for piecewise polynomial trajectory.">
<polygon fill="white" stroke="black" points="2478.84,-246.5 2478.84,-276.5 2603.84,-276.5 2603.84,-246.5 2478.84,-246.5"/>
<text text-anchor="start" x="2486.84" y="-264.5" font-family="Helvetica,sans-Serif" font-size="10.00">piecewise_polynomial</text>
<text text-anchor="middle" x="2541.34" y="-253.5" font-family="Helvetica,sans-Serif" font-size="10.00">_trajectory.hpp</text>
</a>
</g>
</g>
<!-- Node2&#45;&gt;Node72 -->
<g id="edge73" class="edge">
<title>Node2&#45;&gt;Node72</title>
<path fill="none" stroke="midnightblue" d="M2571.71,-425.26C2566.97,-399.87 2553.09,-325.44 2545.85,-286.65"/>
<polygon fill="midnightblue" stroke="midnightblue" points="2549.27,-285.91 2544,-276.72 2542.39,-287.2 2549.27,-285.91"/>
</g>
<!-- Node4 -->
<g id="node4" class="node">
<title>Node4</title>
<g id="a_node4"><a xlink:href="vehicle__class_8hpp.html" target="_top" xlink:title=" ">
<polygon fill="white" stroke="black" points="1078.84,-123.5 1078.84,-142.5 1181.84,-142.5 1181.84,-123.5 1078.84,-123.5"/>
<text text-anchor="middle" x="1130.34" y="-130.5" font-family="Helvetica,sans-Serif" font-size="10.00">vehicle_class.hpp</text>
</a>
</g>
</g>
<!-- Node3&#45;&gt;Node4 -->
<g id="edge3" class="edge">
<title>Node3&#45;&gt;Node4</title>
<path fill="none" stroke="midnightblue" d="M2298.95,-252.83C2200.71,-242.96 2024.81,-225.27 1874.34,-210 1621.23,-184.32 1319.72,-153.42 1192.18,-140.34"/>
<polygon fill="midnightblue" stroke="midnightblue" points="1192.51,-136.86 1182.21,-139.32 1191.8,-143.82 1192.51,-136.86"/>
</g>
<!-- Node7 -->
<g id="node7" class="node">
<title>Node7</title>
<g id="a_node7"><a xlink:href="flight__params_8hpp.html" target="_top" xlink:title=" ">
<polygon fill="white" stroke="black" points="2341.34,-185 2341.34,-204 2445.34,-204 2445.34,-185 2341.34,-185"/>
<text text-anchor="middle" x="2393.34" y="-192" font-family="Helvetica,sans-Serif" font-size="10.00">flight_params.hpp</text>
</a>
</g>
</g>
<!-- Node3&#45;&gt;Node7 -->
<g id="edge6" class="edge">
<title>Node3&#45;&gt;Node7</title>
<path fill="none" stroke="midnightblue" d="M2377.77,-251.73C2380.44,-242.09 2384.81,-226.3 2388.25,-213.91"/>
<polygon fill="midnightblue" stroke="midnightblue" points="2391.66,-214.7 2390.95,-204.13 2384.91,-212.83 2391.66,-214.7"/>
</g>
<!-- Node20 -->
<g id="node18" class="node">
<title>Node20</title>
<g id="a_node18"><a xlink:href="helper__functions_8hpp.html" target="_top" xlink:title="Definitions of some standard templates used in all controllers.">
<polygon fill="white" stroke="black" points="1511.84,-123.5 1511.84,-142.5 1630.84,-142.5 1630.84,-123.5 1511.84,-123.5"/>
<text text-anchor="middle" x="1571.34" y="-130.5" font-family="Helvetica,sans-Serif" font-size="10.00">helper_functions.hpp</text>
</a>
</g>
</g>
<!-- Node3&#45;&gt;Node20 -->
<g id="edge19" class="edge">
<title>Node3&#45;&gt;Node20</title>
<path fill="none" stroke="midnightblue" d="M2321.03,-251.95C2177.75,-229.41 1790,-168.4 1635.83,-144.15"/>
<polygon fill="midnightblue" stroke="midnightblue" points="1636,-140.63 1625.58,-142.53 1634.91,-147.55 1636,-140.63"/>
</g>
<!-- Node5 -->
<g id="node5" class="node">
<title>Node5</title>
<g id="a_node5"><a xlink:title=" ">
<polygon fill="white" stroke="#bfbfbf" points="1105.34,-62 1105.34,-81 1155.34,-81 1155.34,-62 1105.34,-62"/>
<text text-anchor="middle" x="1130.34" y="-69" font-family="Helvetica,sans-Serif" font-size="10.00">atomic</text>
</a>
</g>
</g>
<!-- Node4&#45;&gt;Node5 -->
<g id="edge4" class="edge">
<title>Node4&#45;&gt;Node5</title>
<path fill="none" stroke="midnightblue" d="M1130.34,-123.48C1130.34,-115.08 1130.34,-101.98 1130.34,-91.16"/>
<polygon fill="midnightblue" stroke="midnightblue" points="1133.84,-91.01 1130.34,-81.01 1126.84,-91.01 1133.84,-91.01"/>
</g>
<!-- Node6 -->
<g id="node6" class="node">
<title>Node6</title>
<g id="a_node6"><a xlink:title=" ">
<polygon fill="white" stroke="#bfbfbf" points="100.84,-0.5 100.84,-19.5 147.84,-19.5 147.84,-0.5 100.84,-0.5"/>
<text text-anchor="middle" x="124.34" y="-7.5" font-family="Helvetica,sans-Serif" font-size="10.00">cmath</text>
</a>
</g>
</g>
<!-- Node4&#45;&gt;Node6 -->
<g id="edge5" class="edge">
<title>Node4&#45;&gt;Node6</title>
<path fill="none" stroke="midnightblue" d="M1078.53,-131.73C872.91,-130.39 123.87,-123.05 89.34,-87 72.94,-69.87 91.7,-43.67 107.44,-26.95"/>
<polygon fill="midnightblue" stroke="midnightblue" points="110.19,-29.14 114.76,-19.58 105.23,-24.21 110.19,-29.14"/>
</g>
<!-- Node8 -->
<g id="node8" class="node">
<title>Node8</title>
<g id="a_node8"><a xlink:title=" ">
<polygon fill="white" stroke="#bfbfbf" points="2359.34,-62 2359.34,-81 2403.34,-81 2403.34,-62 2359.34,-62"/>
<text text-anchor="middle" x="2381.34" y="-69" font-family="Helvetica,sans-Serif" font-size="10.00">string</text>
</a>
</g>
</g>
<!-- Node7&#45;&gt;Node8 -->
<g id="edge7" class="edge">
<title>Node7&#45;&gt;Node8</title>
<path fill="none" stroke="midnightblue" d="M2392.48,-184.8C2390.55,-165.35 2385.85,-117.99 2383.22,-91.4"/>
<polygon fill="midnightblue" stroke="midnightblue" points="2386.67,-90.73 2382.2,-81.12 2379.7,-91.42 2386.67,-90.73"/>
</g>
<!-- Node9 -->
<g id="node9" class="node">
<title>Node9</title>
<g id="a_node9"><a xlink:title=" ">
<polygon fill="white" stroke="#bfbfbf" points="2561.84,-62 2561.84,-81 2616.84,-81 2616.84,-62 2561.84,-62"/>
<text text-anchor="middle" x="2589.34" y="-69" font-family="Helvetica,sans-Serif" font-size="10.00">fstream</text>
</a>
</g>
</g>
<!-- Node7&#45;&gt;Node9 -->
<g id="edge8" class="edge">
<title>Node7&#45;&gt;Node9</title>
<path fill="none" stroke="midnightblue" d="M2405.55,-184.94C2425.07,-171.36 2464.66,-144.23 2499.34,-123 2520.95,-109.78 2546.13,-95.76 2564.36,-85.86"/>
<polygon fill="midnightblue" stroke="midnightblue" points="2566.07,-88.91 2573.2,-81.08 2562.74,-82.76 2566.07,-88.91"/>
</g>
<!-- Node10 -->
<g id="node10" class="node">
<title>Node10</title>
<g id="a_node10"><a xlink:title=" ">
<polygon fill="white" stroke="#bfbfbf" points="2231.34,-62 2231.34,-81 2341.34,-81 2341.34,-62 2231.34,-62"/>
<text text-anchor="middle" x="2286.34" y="-69" font-family="Helvetica,sans-Serif" font-size="10.00">nlohmann/json.hpp</text>
</a>
</g>
</g>
<!-- Node7&#45;&gt;Node10 -->
<g id="edge9" class="edge">
<title>Node7&#45;&gt;Node10</title>
<path fill="none" stroke="midnightblue" d="M2388.56,-184.69C2380.77,-170.77 2364.38,-143.18 2346.34,-123 2334.51,-109.77 2319.17,-96.92 2306.96,-87.49"/>
<polygon fill="midnightblue" stroke="midnightblue" points="2308.82,-84.5 2298.72,-81.28 2304.6,-90.09 2308.82,-84.5"/>
</g>
<!-- Node11 -->
<g id="node11" class="node">
<title>Node11</title>
<g id="a_node11"><a xlink:title=" ">
<polygon fill="white" stroke="#bfbfbf" points="2421.34,-62 2421.34,-81 2481.34,-81 2481.34,-62 2421.34,-62"/>
<text text-anchor="middle" x="2451.34" y="-69" font-family="Helvetica,sans-Serif" font-size="10.00">iostream</text>
</a>
</g>
</g>
<!-- Node7&#45;&gt;Node11 -->
<g id="edge10" class="edge">
<title>Node7&#45;&gt;Node11</title>
<path fill="none" stroke="midnightblue" d="M2397.51,-184.8C2406.96,-165.09 2430.15,-116.71 2442.79,-90.34"/>
<polygon fill="midnightblue" stroke="midnightblue" points="2446.04,-91.65 2447.21,-81.12 2439.73,-88.63 2446.04,-91.65"/>
</g>
<!-- Node12 -->
<g id="node12" class="node">
<title>Node12</title>
<g id="a_node12"><a xlink:title=" ">
<polygon fill="white" stroke="#bfbfbf" points="2099.84,-123.5 2099.84,-142.5 2148.84,-142.5 2148.84,-123.5 2099.84,-123.5"/>
<text text-anchor="middle" x="2124.34" y="-130.5" font-family="Helvetica,sans-Serif" font-size="10.00">cstdlib</text>
</a>
</g>
</g>
<!-- Node7&#45;&gt;Node12 -->
<g id="edge11" class="edge">
<title>Node7&#45;&gt;Node12</title>
<path fill="none" stroke="midnightblue" d="M2350.75,-184.98C2305.6,-175.8 2231.97,-160.44 2159.01,-143.07"/>
<polygon fill="midnightblue" stroke="midnightblue" points="2159.73,-139.65 2149.19,-140.72 2158.1,-146.45 2159.73,-139.65"/>
</g>
<!-- Node13 -->
<g id="node13" class="node">
<title>Node13</title>
<g id="a_node13"><a xlink:title=" ">
<polygon fill="white" stroke="#bfbfbf" points="2167.34,-123.5 2167.34,-142.5 2223.34,-142.5 2223.34,-123.5 2167.34,-123.5"/>
<text text-anchor="middle" x="2195.34" y="-130.5" font-family="Helvetica,sans-Serif" font-size="10.00">unistd.h</text>
</a>
</g>
</g>
<!-- Node7&#45;&gt;Node13 -->
<g id="edge12" class="edge">
<title>Node7&#45;&gt;Node13</title>
<path fill="none" stroke="midnightblue" d="M2364.97,-184.98C2330.42,-174.59 2271.92,-157.01 2233.46,-145.45"/>
<polygon fill="midnightblue" stroke="midnightblue" points="2234.24,-142.04 2223.66,-142.51 2232.23,-148.74 2234.24,-142.04"/>
</g>
<!-- Node14 -->
<g id="node14" class="node">
<title>Node14</title>
<g id="a_node14"><a xlink:href="px4__defines_8hpp.html" target="_top" xlink:title="Contains useful constant defines for use in the flight stack in a central location.">
<polygon fill="white" stroke="red" points="2241.34,-123.5 2241.34,-142.5 2337.34,-142.5 2337.34,-123.5 2241.34,-123.5"/>
<text text-anchor="middle" x="2289.34" y="-130.5" font-family="Helvetica,sans-Serif" font-size="10.00">px4_defines.hpp</text>
</a>
</g>
</g>
<!-- Node7&#45;&gt;Node14 -->
<g id="edge13" class="edge">
<title>Node7&#45;&gt;Node14</title>
<path fill="none" stroke="midnightblue" d="M2378.44,-184.98C2361.38,-175.21 2333.18,-159.08 2313.08,-147.58"/>
<polygon fill="midnightblue" stroke="midnightblue" points="2314.63,-144.44 2304.22,-142.51 2311.16,-150.51 2314.63,-144.44"/>
</g>
<!-- Node16 -->
<g id="node15" class="node">
<title>Node16</title>
<g id="a_node15"><a xlink:href="global__helpers_8hpp.html" target="_top" xlink:title="Inline functions for all the classes of the flighstack to use.">
<polygon fill="white" stroke="red" points="2507.84,-123.5 2507.84,-142.5 2616.84,-142.5 2616.84,-123.5 2507.84,-123.5"/>
<text text-anchor="middle" x="2562.34" y="-130.5" font-family="Helvetica,sans-Serif" font-size="10.00">global_helpers.hpp</text>
</a>
</g>
</g>
<!-- Node7&#45;&gt;Node16 -->
<g id="edge14" class="edge">
<title>Node7&#45;&gt;Node16</title>
<path fill="none" stroke="midnightblue" d="M2417.56,-184.98C2446.67,-174.72 2495.71,-157.46 2528.54,-145.9"/>
<polygon fill="midnightblue" stroke="midnightblue" points="2529.9,-149.13 2538.17,-142.51 2527.58,-142.53 2529.9,-149.13"/>
</g>
<!-- Node16&#45;&gt;Node8 -->
<g id="edge16" class="edge">
<title>Node16&#45;&gt;Node8</title>
<path fill="none" stroke="midnightblue" d="M2528.81,-123.45C2498.1,-115.26 2451.59,-101.97 2412.34,-87 2410.92,-86.46 2409.47,-85.88 2408.02,-85.27"/>
<polygon fill="midnightblue" stroke="midnightblue" points="2409.09,-81.92 2398.53,-81.08 2406.26,-88.33 2409.09,-81.92"/>
</g>
<!-- Node16&#45;&gt;Node11 -->
<g id="edge15" class="edge">
<title>Node16&#45;&gt;Node11</title>
<path fill="none" stroke="midnightblue" d="M2546.44,-123.48C2528.06,-113.62 2497.59,-97.29 2476.1,-85.77"/>
<polygon fill="midnightblue" stroke="midnightblue" points="2477.68,-82.65 2467.22,-81.01 2474.38,-88.82 2477.68,-82.65"/>
</g>
<!-- Node17 -->
<g id="node16" class="node">
<title>Node17</title>
<g id="a_node16"><a xlink:title=" ">
<polygon fill="white" stroke="#bfbfbf" points="2891.34,-62 2891.34,-81 2947.34,-81 2947.34,-62 2891.34,-62"/>
<text text-anchor="middle" x="2919.34" y="-69" font-family="Helvetica,sans-Serif" font-size="10.00">sstream</text>
</a>
</g>
</g>
<!-- Node16&#45;&gt;Node17 -->
<g id="edge17" class="edge">
<title>Node16&#45;&gt;Node17</title>
<path fill="none" stroke="midnightblue" d="M2616.89,-128.23C2681.2,-122.9 2790.91,-110.99 2882.34,-87 2885,-86.3 2887.73,-85.47 2890.45,-84.56"/>
<polygon fill="midnightblue" stroke="midnightblue" points="2891.85,-87.77 2900.04,-81.05 2889.45,-81.2 2891.85,-87.77"/>
</g>
<!-- Node19 -->
<g id="node17" class="node">
<title>Node19</title>
<g id="a_node17"><a xlink:title=" ">
<polygon fill="white" stroke="#bfbfbf" points="2385.84,-0.5 2385.84,-19.5 2462.84,-19.5 2462.84,-0.5 2385.84,-0.5"/>
<text text-anchor="middle" x="2424.34" y="-7.5" font-family="Helvetica,sans-Serif" font-size="10.00">Eigen/Dense</text>
</a>
</g>
</g>
<!-- Node16&#45;&gt;Node19 -->
<g id="edge18" class="edge">
<title>Node16&#45;&gt;Node19</title>
<path fill="none" stroke="midnightblue" d="M2583.83,-123.36C2598.73,-116.09 2617.45,-104.12 2626.34,-87 2632.69,-74.77 2634.96,-66.75 2626.34,-56 2607.5,-32.5 2526.67,-20.48 2473.14,-14.98"/>
<polygon fill="midnightblue" stroke="midnightblue" points="2473.45,-11.49 2463.16,-14 2472.77,-18.46 2473.45,-11.49"/>
</g>
<!-- Node20&#45;&gt;Node6 -->
<g id="edge35" class="edge">
<title>Node20&#45;&gt;Node6</title>
<path fill="none" stroke="midnightblue" d="M1511.57,-130.65C1251.21,-124.72 227.78,-100.56 197.34,-87 182.79,-80.52 154.26,-47.69 137.5,-27.36"/>
<polygon fill="midnightblue" stroke="midnightblue" points="140.15,-25.06 131.12,-19.52 134.72,-29.49 140.15,-25.06"/>
</g>
<!-- Node20&#45;&gt;Node8 -->
<g id="edge41" class="edge">
<title>Node20&#45;&gt;Node8</title>
<path fill="none" stroke="midnightblue" d="M1631.1,-131.46C1788.98,-129.58 2214.41,-121.36 2350.34,-87 2352.33,-86.5 2354.35,-85.87 2356.34,-85.15"/>
<polygon fill="midnightblue" stroke="midnightblue" points="2358.15,-88.19 2366,-81.08 2355.43,-81.74 2358.15,-88.19"/>
</g>
<!-- Node20&#45;&gt;Node9 -->
<g id="edge40" class="edge">
<title>Node20&#45;&gt;Node9</title>
<path fill="none" stroke="midnightblue" d="M1631.18,-130.39C1830.23,-124.89 2462.61,-106.1 2552.34,-87 2555.35,-86.36 2558.43,-85.5 2561.47,-84.53"/>
<polygon fill="midnightblue" stroke="midnightblue" points="2562.69,-87.81 2570.89,-81.1 2560.29,-81.23 2562.69,-87.81"/>
</g>
<!-- Node20&#45;&gt;Node10 -->
<g id="edge22" class="edge">
<title>Node20&#45;&gt;Node10</title>
<path fill="none" stroke="midnightblue" d="M1630.85,-130.59C1745.07,-127.28 2002.72,-116.88 2217.34,-87 2224.85,-85.96 2232.75,-84.57 2240.43,-83.07"/>
<polygon fill="midnightblue" stroke="midnightblue" points="2241.24,-86.47 2250.34,-81.04 2239.84,-79.61 2241.24,-86.47"/>
</g>
<!-- Node20&#45;&gt;Node11 -->
<g id="edge32" class="edge">
<title>Node20&#45;&gt;Node11</title>
<path fill="none" stroke="midnightblue" d="M1630.85,-131.15C1796.87,-128.4 2262.74,-118.06 2412.34,-87 2415.6,-86.32 2418.94,-85.42 2422.24,-84.4"/>
<polygon fill="midnightblue" stroke="midnightblue" points="2423.55,-87.65 2431.84,-81.06 2421.25,-81.04 2423.55,-87.65"/>
</g>
<!-- Node20&#45;&gt;Node19 -->
<g id="edge21" class="edge">
<title>Node20&#45;&gt;Node19</title>
<path fill="none" stroke="midnightblue" d="M1631.02,-132.15C1764.83,-131.76 2084.89,-126.58 2184.34,-87 2204.59,-78.94 2202.73,-65.51 2222.34,-56 2271.47,-32.16 2333.45,-20.77 2375.72,-15.45"/>
<polygon fill="midnightblue" stroke="midnightblue" points="2376.24,-18.91 2385.75,-14.25 2375.41,-11.96 2376.24,-18.91"/>
</g>
<!-- Node21 -->
<g id="node19" class="node">
<title>Node21</title>
<g id="a_node19"><a xlink:title=" ">
<polygon fill="white" stroke="#bfbfbf" points="631.34,-62 631.34,-81 673.34,-81 673.34,-62 631.34,-62"/>
<text text-anchor="middle" x="652.34" y="-69" font-family="Helvetica,sans-Serif" font-size="10.00">array</text>
</a>
</g>
</g>
<!-- Node20&#45;&gt;Node21 -->
<g id="edge20" class="edge">
<title>Node20&#45;&gt;Node21</title>
<path fill="none" stroke="midnightblue" d="M1511.6,-130.35C1325.22,-125.02 762.11,-107.4 682.34,-87 680.41,-86.51 678.45,-85.88 676.51,-85.17"/>
<polygon fill="midnightblue" stroke="midnightblue" points="677.72,-81.88 667.16,-81.1 674.93,-88.3 677.72,-81.88"/>
</g>
<!-- Node22 -->
<g id="node20" class="node">
<title>Node22</title>
<g id="a_node20"><a xlink:title=" ">
<polygon fill="white" stroke="#bfbfbf" points="691.34,-62 691.34,-81 783.34,-81 783.34,-62 691.34,-62"/>
<text text-anchor="middle" x="737.34" y="-69" font-family="Helvetica,sans-Serif" font-size="10.00">boost/array.hpp</text>
</a>
</g>
</g>
<!-- Node20&#45;&gt;Node22 -->
<g id="edge23" class="edge">
<title>Node20&#45;&gt;Node22</title>
<path fill="none" stroke="midnightblue" d="M1511.58,-130.1C1354.17,-124.83 930.73,-109.01 792.34,-87 786.8,-86.12 781,-84.91 775.34,-83.57"/>
<polygon fill="midnightblue" stroke="midnightblue" points="775.93,-80.11 765.37,-81.05 774.21,-86.89 775.93,-80.11"/>
</g>
<!-- Node23 -->
<g id="node21" class="node">
<title>Node23</title>
<g id="a_node21"><a xlink:title=" ">
<polygon fill="white" stroke="#bfbfbf" points="801.84,-62 801.84,-81 914.84,-81 914.84,-62 801.84,-62"/>
<text text-anchor="middle" x="858.34" y="-69" font-family="Helvetica,sans-Serif" font-size="10.00">boost/bind/bind.hpp</text>
</a>
</g>
</g>
<!-- Node20&#45;&gt;Node23 -->
<g id="edge24" class="edge">
<title>Node20&#45;&gt;Node23</title>
<path fill="none" stroke="midnightblue" d="M1511.71,-130.77C1397.28,-127.78 1139.16,-117.9 924.34,-87 917.4,-86 910.1,-84.68 902.99,-83.24"/>
<polygon fill="midnightblue" stroke="midnightblue" points="903.27,-79.72 892.76,-81.06 901.82,-86.57 903.27,-79.72"/>
</g>
<!-- Node24 -->
<g id="node22" class="node">
<title>Node24</title>
<g id="a_node22"><a xlink:title=" ">
<polygon fill="white" stroke="#bfbfbf" points="933.34,-62 933.34,-81 1087.34,-81 1087.34,-62 933.34,-62"/>
<text text-anchor="middle" x="1010.34" y="-69" font-family="Helvetica,sans-Serif" font-size="10.00">boost/bind/placeholders.hpp</text>
</a>
</g>
</g>
<!-- Node20&#45;&gt;Node24 -->
<g id="edge25" class="edge">
<title>Node20&#45;&gt;Node24</title>
<path fill="none" stroke="midnightblue" d="M1511.57,-127.74C1421.38,-120.99 1245.2,-106.57 1096.34,-87 1086.87,-85.75 1076.85,-84.24 1067.12,-82.67"/>
<polygon fill="midnightblue" stroke="midnightblue" points="1067.55,-79.2 1057.12,-81.02 1066.41,-86.1 1067.55,-79.2"/>
</g>
<!-- Node25 -->
<g id="node23" class="node">
<title>Node25</title>
<g id="a_node23"><a xlink:title=" ">
<polygon fill="white" stroke="#bfbfbf" points="1173.84,-62 1173.84,-81 1314.84,-81 1314.84,-62 1173.84,-62"/>
<text text-anchor="middle" x="1244.34" y="-69" font-family="Helvetica,sans-Serif" font-size="10.00">boost/numeric/odeint.hpp</text>
</a>
</g>
</g>
<!-- Node20&#45;&gt;Node25 -->
<g id="edge26" class="edge">
<title>Node20&#45;&gt;Node25</title>
<path fill="none" stroke="midnightblue" d="M1524.49,-123.48C1465.61,-112.76 1364.6,-94.38 1301.31,-82.87"/>
<polygon fill="midnightblue" stroke="midnightblue" points="1301.57,-79.36 1291.11,-81.01 1300.32,-86.24 1301.57,-79.36"/>
</g>
<!-- Node26 -->
<g id="node24" class="node">
<title>Node26</title>
<g id="a_node24"><a xlink:title=" ">
<polygon fill="white" stroke="#bfbfbf" points="1333.34,-62 1333.34,-81 1481.34,-81 1481.34,-62 1333.34,-62"/>
<text text-anchor="middle" x="1407.34" y="-69" font-family="Helvetica,sans-Serif" font-size="10.00">boost/numeric/interval.hpp</text>
</a>
</g>
</g>
<!-- Node20&#45;&gt;Node26 -->
<g id="edge27" class="edge">
<title>Node20&#45;&gt;Node26</title>
<path fill="none" stroke="midnightblue" d="M1547.85,-123.48C1519.71,-113.27 1472.41,-96.11 1440.55,-84.55"/>
<polygon fill="midnightblue" stroke="midnightblue" points="1441.39,-81.13 1430.8,-81.01 1439,-87.71 1441.39,-81.13"/>
</g>
<!-- Node27 -->
<g id="node25" class="node">
<title>Node27</title>
<g id="a_node25"><a xlink:title=" ">
<polygon fill="white" stroke="#bfbfbf" points="1499.34,-56.5 1499.34,-86.5 1643.34,-86.5 1643.34,-56.5 1499.34,-56.5"/>
<text text-anchor="start" x="1507.34" y="-74.5" font-family="Helvetica,sans-Serif" font-size="10.00">boost/numeric/odeint</text>
<text text-anchor="middle" x="1571.34" y="-63.5" font-family="Helvetica,sans-Serif" font-size="10.00">/stepper/runge_kutta4.hpp</text>
</a>
</g>
</g>
<!-- Node20&#45;&gt;Node27 -->
<g id="edge28" class="edge">
<title>Node20&#45;&gt;Node27</title>
<path fill="none" stroke="midnightblue" d="M1571.34,-123.48C1571.34,-116.47 1571.34,-106.19 1571.34,-96.7"/>
<polygon fill="midnightblue" stroke="midnightblue" points="1574.84,-96.52 1571.34,-86.52 1567.84,-96.52 1574.84,-96.52"/>
</g>
<!-- Node28 -->
<g id="node26" class="node">
<title>Node28</title>
<g id="a_node26"><a xlink:title=" ">
<polygon fill="white" stroke="#bfbfbf" points="1661.34,-56.5 1661.34,-86.5 1777.34,-86.5 1777.34,-56.5 1661.34,-56.5"/>
<text text-anchor="start" x="1669.34" y="-74.5" font-family="Helvetica,sans-Serif" font-size="10.00">boost/numeric/ublas</text>
<text text-anchor="middle" x="1719.34" y="-63.5" font-family="Helvetica,sans-Serif" font-size="10.00">/matrix.hpp</text>
</a>
</g>
</g>
<!-- Node20&#45;&gt;Node28 -->
<g id="edge29" class="edge">
<title>Node20&#45;&gt;Node28</title>
<path fill="none" stroke="midnightblue" d="M1592.55,-123.48C1614,-114.85 1647.8,-101.26 1675.1,-90.29"/>
<polygon fill="midnightblue" stroke="midnightblue" points="1676.49,-93.5 1684.46,-86.52 1673.88,-87.01 1676.49,-93.5"/>
</g>
<!-- Node29 -->
<g id="node27" class="node">
<title>Node29</title>
<g id="a_node27"><a xlink:title=" ">
<polygon fill="white" stroke="#bfbfbf" points="1795.34,-56.5 1795.34,-86.5 1911.34,-86.5 1911.34,-56.5 1795.34,-56.5"/>
<text text-anchor="start" x="1803.34" y="-74.5" font-family="Helvetica,sans-Serif" font-size="10.00">boost/numeric/ublas</text>
<text text-anchor="middle" x="1853.34" y="-63.5" font-family="Helvetica,sans-Serif" font-size="10.00">/io.hpp</text>
</a>
</g>
</g>
<!-- Node20&#45;&gt;Node29 -->
<g id="edge30" class="edge">
<title>Node20&#45;&gt;Node29</title>
<path fill="none" stroke="midnightblue" d="M1612.58,-123.46C1653.76,-114.9 1719.14,-101.27 1785.09,-87.26"/>
<polygon fill="midnightblue" stroke="midnightblue" points="1786.19,-90.6 1795.24,-85.1 1784.73,-83.76 1786.19,-90.6"/>
</g>
<!-- Node30 -->
<g id="node28" class="node">
<title>Node30</title>
<g id="a_node28"><a xlink:title=" ">
<polygon fill="white" stroke="#bfbfbf" points="1929.34,-62 1929.34,-81 2107.34,-81 2107.34,-62 1929.34,-62"/>
<text text-anchor="middle" x="2018.34" y="-69" font-family="Helvetica,sans-Serif" font-size="10.00">boost/math/tools/polynomial.hpp</text>
</a>
</g>
</g>
<!-- Node20&#45;&gt;Node30 -->
<g id="edge31" class="edge">
<title>Node20&#45;&gt;Node30</title>
<path fill="none" stroke="midnightblue" d="M1630.98,-124.65C1700.5,-116.01 1818.83,-101.05 1920.34,-87 1930.54,-85.59 1941.33,-84.04 1951.88,-82.51"/>
<polygon fill="midnightblue" stroke="midnightblue" points="1952.5,-85.95 1961.88,-81.04 1951.48,-79.03 1952.5,-85.95"/>
</g>
<!-- Node31 -->
<g id="node29" class="node">
<title>Node31</title>
<g id="a_node29"><a xlink:title=" ">
<polygon fill="white" stroke="#bfbfbf" points="2125.34,-62 2125.34,-81 2175.34,-81 2175.34,-62 2125.34,-62"/>
<text text-anchor="middle" x="2150.34" y="-69" font-family="Helvetica,sans-Serif" font-size="10.00">stdio.h</text>
</a>
</g>
</g>
<!-- Node20&#45;&gt;Node31 -->
<g id="edge33" class="edge">
<title>Node20&#45;&gt;Node31</title>
<path fill="none" stroke="midnightblue" d="M1631.31,-129.47C1753.15,-123.94 2025.8,-109.42 2116.34,-87 2118.71,-86.41 2121.12,-85.68 2123.51,-84.86"/>
<polygon fill="midnightblue" stroke="midnightblue" points="2125.02,-88.03 2133.07,-81.13 2122.48,-81.51 2125.02,-88.03"/>
</g>
<!-- Node32 -->
<g id="node30" class="node">
<title>Node32</title>
<g id="a_node30"><a xlink:title=" ">
<polygon fill="white" stroke="#bfbfbf" points="344.84,-62 344.84,-81 397.84,-81 397.84,-62 344.84,-62"/>
<text text-anchor="middle" x="371.34" y="-69" font-family="Helvetica,sans-Serif" font-size="10.00">stdlib.h</text>
</a>
</g>
</g>
<!-- Node20&#45;&gt;Node32 -->
<g id="edge34" class="edge">
<title>Node20&#45;&gt;Node32</title>
<path fill="none" stroke="midnightblue" d="M1511.6,-130.26C1281.35,-123.48 461.7,-98.63 407.34,-87 404.5,-86.39 401.6,-85.58 398.73,-84.64"/>
<polygon fill="midnightblue" stroke="midnightblue" points="399.87,-81.33 389.27,-81.13 397.43,-87.89 399.87,-81.33"/>
</g>
<!-- Node33 -->
<g id="node31" class="node">
<title>Node33</title>
<g id="a_node31"><a xlink:title=" ">
<polygon fill="white" stroke="#bfbfbf" points="98.84,-62 98.84,-81 149.84,-81 149.84,-62 98.84,-62"/>
<text text-anchor="middle" x="124.34" y="-69" font-family="Helvetica,sans-Serif" font-size="10.00">math.h</text>
</a>
</g>
</g>
<!-- Node20&#45;&gt;Node33 -->
<g id="edge36" class="edge">
<title>Node20&#45;&gt;Node33</title>
<path fill="none" stroke="midnightblue" d="M1511.44,-130.61C1251.51,-124.52 231.32,-99.87 164.34,-87 160.9,-86.34 157.36,-85.42 153.88,-84.37"/>
<polygon fill="midnightblue" stroke="midnightblue" points="154.94,-81.04 144.34,-81.15 152.69,-87.67 154.94,-81.04"/>
</g>
<!-- Node34 -->
<g id="node32" class="node">
<title>Node34</title>
<g id="a_node32"><a xlink:title=" ">
<polygon fill="white" stroke="#bfbfbf" points="416.34,-62 416.34,-81 464.34,-81 464.34,-62 416.34,-62"/>
<text text-anchor="middle" x="440.34" y="-69" font-family="Helvetica,sans-Serif" font-size="10.00">time.h</text>
</a>
</g>
</g>
<!-- Node20&#45;&gt;Node34 -->
<g id="edge37" class="edge">
<title>Node20&#45;&gt;Node34</title>
<path fill="none" stroke="midnightblue" d="M1511.59,-130.17C1289.85,-123.28 524.17,-98.77 473.34,-87 470.98,-86.45 468.57,-85.74 466.19,-84.92"/>
<polygon fill="midnightblue" stroke="midnightblue" points="467.3,-81.59 456.71,-81.13 464.7,-88.09 467.3,-81.59"/>
</g>
<!-- Node35 -->
<g id="node33" class="node">
<title>Node35</title>
<g id="a_node33"><a xlink:title=" ">
<polygon fill="white" stroke="#bfbfbf" points="2499.34,-62 2499.34,-81 2543.34,-81 2543.34,-62 2499.34,-62"/>
<text text-anchor="middle" x="2521.34" y="-69" font-family="Helvetica,sans-Serif" font-size="10.00">ctime</text>
</a>
</g>
</g>
<!-- Node20&#45;&gt;Node35 -->
<g id="edge38" class="edge">
<title>Node20&#45;&gt;Node35</title>
<path fill="none" stroke="midnightblue" d="M1631.07,-130.42C1821.62,-125.18 2407.45,-107.57 2490.34,-87 2492.33,-86.51 2494.35,-85.88 2496.35,-85.17"/>
<polygon fill="midnightblue" stroke="midnightblue" points="2498.15,-88.21 2506.01,-81.11 2495.43,-81.76 2498.15,-88.21"/>
</g>
<!-- Node36 -->
<g id="node34" class="node">
<title>Node36</title>
<g id="a_node34"><a xlink:title=" ">
<polygon fill="white" stroke="#bfbfbf" points="2817.34,-62 2817.34,-81 2873.34,-81 2873.34,-62 2817.34,-62"/>
<text text-anchor="middle" x="2845.34" y="-69" font-family="Helvetica,sans-Serif" font-size="10.00">iomanip</text>
</a>
</g>
</g>
<!-- Node20&#45;&gt;Node36 -->
<g id="edge39" class="edge">
<title>Node20&#45;&gt;Node36</title>
<path fill="none" stroke="midnightblue" d="M1630.98,-131.01C1862.24,-127 2692.62,-111.05 2808.34,-87 2811.35,-86.37 2814.44,-85.53 2817.48,-84.55"/>
<polygon fill="midnightblue" stroke="midnightblue" points="2818.69,-87.84 2826.9,-81.14 2816.3,-81.26 2818.69,-87.84"/>
</g>
<!-- Node37 -->
<g id="node35" class="node">
<title>Node37</title>
<g id="a_node35"><a xlink:title=" ">
<polygon fill="white" stroke="#bfbfbf" points="482.84,-62 482.84,-81 529.84,-81 529.84,-62 482.84,-62"/>
<text text-anchor="middle" x="506.34" y="-69" font-family="Helvetica,sans-Serif" font-size="10.00">vector</text>
</a>
</g>
</g>
<!-- Node20&#45;&gt;Node37 -->
<g id="edge42" class="edge">
<title>Node20&#45;&gt;Node37</title>
<path fill="none" stroke="midnightblue" d="M1511.55,-130.72C1305.54,-126.13 632.79,-109.56 538.34,-87 536.13,-86.47 533.87,-85.79 531.64,-85"/>
<polygon fill="midnightblue" stroke="midnightblue" points="532.78,-81.68 522.2,-81.12 530.12,-88.16 532.78,-81.68"/>
</g>
<!-- Node38 -->
<g id="node36" class="node">
<title>Node38</title>
<g id="a_node36"><a xlink:title=" ">
<polygon fill="white" stroke="#bfbfbf" points="2749.34,-62 2749.34,-81 2799.34,-81 2799.34,-62 2749.34,-62"/>
<text text-anchor="middle" x="2774.34" y="-69" font-family="Helvetica,sans-Serif" font-size="10.00">chrono</text>
</a>
</g>
</g>
<!-- Node20&#45;&gt;Node38 -->
<g id="edge43" class="edge">
<title>Node20&#45;&gt;Node38</title>
<path fill="none" stroke="midnightblue" d="M1630.89,-130.61C1791.64,-126.6 2247.79,-113.6 2626.34,-87 2665.05,-84.28 2709.31,-79.76 2739.27,-76.48"/>
<polygon fill="midnightblue" stroke="midnightblue" points="2739.68,-79.96 2749.24,-75.38 2738.92,-73 2739.68,-79.96"/>
</g>
<!-- Node39 -->
<g id="node37" class="node">
<title>Node39</title>
<g id="a_node37"><a xlink:title=" ">
<polygon fill="white" stroke="#bfbfbf" points="547.84,-62 547.84,-81 612.84,-81 612.84,-62 547.84,-62"/>
<text text-anchor="middle" x="580.34" y="-69" font-family="Helvetica,sans-Serif" font-size="10.00">functional</text>
</a>
</g>
</g>
<!-- Node20&#45;&gt;Node39 -->
<g id="edge44" class="edge">
<title>Node20&#45;&gt;Node39</title>
<path fill="none" stroke="midnightblue" d="M1511.8,-130.16C1317.47,-124.03 709.25,-103.71 622.34,-87 618.64,-86.29 614.82,-85.32 611.06,-84.22"/>
<polygon fill="midnightblue" stroke="midnightblue" points="611.98,-80.84 601.39,-81.08 609.82,-87.49 611.98,-80.84"/>
</g>
<!-- Node40 -->
<g id="node38" class="node">
<title>Node40</title>
<g id="a_node38"><a xlink:href="continuous__lyapunov__equation_8hpp.html" target="_top" xlink:title="The following code uses a different convention from MATLAB.">
<polygon fill="white" stroke="red" points="206.34,-56.5 206.34,-86.5 326.34,-86.5 326.34,-56.5 206.34,-56.5"/>
<text text-anchor="start" x="214.34" y="-74.5" font-family="Helvetica,sans-Serif" font-size="10.00">continuous_lyapunov</text>
<text text-anchor="middle" x="266.34" y="-63.5" font-family="Helvetica,sans-Serif" font-size="10.00">_equation.hpp</text>
</a>
</g>
</g>
<!-- Node20&#45;&gt;Node40 -->
<g id="edge45" class="edge">
<title>Node20&#45;&gt;Node40</title>
<path fill="none" stroke="midnightblue" d="M1511.45,-130.42C1285.61,-124.39 490.97,-102.4 336.46,-86.87"/>
<polygon fill="midnightblue" stroke="midnightblue" points="336.78,-83.38 326.45,-85.76 336.01,-90.34 336.78,-83.38"/>
</g>
<!-- Node40&#45;&gt;Node6 -->
<g id="edge47" class="edge">
<title>Node40&#45;&gt;Node6</title>
<path fill="none" stroke="midnightblue" d="M232.69,-56.4C208.87,-46.42 177.2,-33.15 154.26,-23.53"/>
<polygon fill="midnightblue" stroke="midnightblue" points="155.58,-20.29 145.01,-19.66 152.88,-26.75 155.58,-20.29"/>
</g>
<!-- Node40&#45;&gt;Node19 -->
<g id="edge46" class="edge">
<title>Node40&#45;&gt;Node19</title>
<path fill="none" stroke="midnightblue" d="M326.45,-57.18C329.45,-56.73 332.42,-56.34 335.34,-56 749.2,-8.47 2101.88,-10 2375.73,-10.82"/>
<polygon fill="midnightblue" stroke="midnightblue" points="2375.75,-14.32 2385.76,-10.85 2375.77,-7.32 2375.75,-14.32"/>
</g>
<!-- Node45&#45;&gt;Node19 -->
<g id="edge49" class="edge">
<title>Node45&#45;&gt;Node19</title>
<path fill="none" stroke="midnightblue" d="M2675.72,-313.31C2689.6,-293.49 2721.34,-242.99 2721.34,-195.5 2721.34,-195.5 2721.34,-195.5 2721.34,-132 2721.34,-89.24 2698.83,-78.31 2662.34,-56 2604.11,-20.39 2524.04,-11.85 2473.24,-10.36"/>
<polygon fill="midnightblue" stroke="midnightblue" points="2473.24,-6.86 2463.17,-10.15 2473.09,-13.86 2473.24,-6.86"/>
</g>
<!-- Node45&#45;&gt;Node38 -->
<g id="edge50" class="edge">
<title>Node45&#45;&gt;Node38</title>
<path fill="none" stroke="midnightblue" d="M2689.59,-313.44C2704.61,-306.02 2724.32,-293.82 2735.34,-277 2774.14,-217.84 2776.41,-129.58 2775.33,-91.32"/>
<polygon fill="midnightblue" stroke="midnightblue" points="2778.82,-90.99 2774.92,-81.14 2771.82,-91.27 2778.82,-90.99"/>
</g>
<!-- Node46 -->
<g id="node40" class="node">
<title>Node46</title>
<g id="a_node40"><a xlink:href="qrbp_8hpp.html" target="_top" xlink:title="Vehicle Information of the QRBP with the NACA 0012 wings and the Velox V2808 kv1300 motors used in al...">
<polygon fill="white" stroke="black" points="1049.84,-185 1049.84,-204 1108.84,-204 1108.84,-185 1049.84,-185"/>
<text text-anchor="middle" x="1079.34" y="-192" font-family="Helvetica,sans-Serif" font-size="10.00">qrbp.hpp</text>
</a>
</g>
</g>
<!-- Node45&#45;&gt;Node46 -->
<g id="edge51" class="edge">
<title>Node45&#45;&gt;Node46</title>
<path fill="none" stroke="midnightblue" d="M2588.78,-314.75C2432.78,-300.79 2078.58,-269.49 1780.34,-246 1528.72,-226.18 1226.03,-205.42 1119.1,-198.18"/>
<polygon fill="midnightblue" stroke="midnightblue" points="1119.29,-194.68 1109.08,-197.5 1118.82,-201.67 1119.29,-194.68"/>
</g>
<!-- Node47 -->
<g id="node41" class="node">
<title>Node47</title>
<g id="a_node41"><a xlink:href="aero__qrbp_8hpp.html" target="_top" xlink:title="Aerodynamics class for all algorithms to use with the grbp platform of ACSL.">
<polygon fill="white" stroke="black" points="1685.34,-252 1685.34,-271 1771.34,-271 1771.34,-252 1685.34,-252"/>
<text text-anchor="middle" x="1728.34" y="-259" font-family="Helvetica,sans-Serif" font-size="10.00">aero_qrbp.hpp</text>
</a>
</g>
</g>
<!-- Node45&#45;&gt;Node47 -->
<g id="edge56" class="edge">
<title>Node45&#45;&gt;Node47</title>
<path fill="none" stroke="midnightblue" d="M2588.71,-316.9C2401.06,-305.04 1939.15,-275.83 1781.83,-265.88"/>
<polygon fill="midnightblue" stroke="midnightblue" points="1781.67,-262.37 1771.47,-265.23 1781.23,-269.35 1781.67,-262.37"/>
</g>
<!-- Node46&#45;&gt;Node6 -->
<g id="edge53" class="edge">
<title>Node46&#45;&gt;Node6</title>
<path fill="none" stroke="midnightblue" d="M1049.59,-193.23C881.3,-191.55 54.91,-181.35 18.34,-143 -8.34,-115.02 -3,-88.24 18.34,-56 34.27,-31.93 65.95,-20.7 90.54,-15.48"/>
<polygon fill="midnightblue" stroke="midnightblue" points="91.4,-18.88 100.59,-13.59 90.11,-12 91.4,-18.88"/>
</g>
<!-- Node46&#45;&gt;Node19 -->
<g id="edge52" class="edge">
<title>Node46&#45;&gt;Node19</title>
<path fill="none" stroke="midnightblue" d="M1049.72,-193.91C871,-195.89 -51.23,-199.31 89.34,-56 130.82,-13.72 2042.68,-11.13 2375.27,-11"/>
<polygon fill="midnightblue" stroke="midnightblue" points="2375.54,-14.5 2385.54,-11 2375.54,-7.5 2375.54,-14.5"/>
</g>
<!-- Node46&#45;&gt;Node20 -->
<g id="edge55" class="edge">
<title>Node46&#45;&gt;Node20</title>
<path fill="none" stroke="midnightblue" d="M1109.01,-189.91C1185.77,-180.63 1392.5,-155.63 1501.65,-142.43"/>
<polygon fill="midnightblue" stroke="midnightblue" points="1502.07,-145.9 1511.58,-141.23 1501.23,-138.95 1502.07,-145.9"/>
</g>
<!-- Node46&#45;&gt;Node33 -->
<g id="edge54" class="edge">
<title>Node46&#45;&gt;Node33</title>
<path fill="none" stroke="midnightblue" d="M1049.68,-192.54C934.45,-188.29 505.99,-167.65 164.34,-87 161.28,-86.28 158.13,-85.39 155,-84.42"/>
<polygon fill="midnightblue" stroke="midnightblue" points="155.83,-81.01 145.24,-81.11 153.58,-87.64 155.83,-81.01"/>
</g>
<!-- Node47&#45;&gt;Node46 -->
<g id="edge57" class="edge">
<title>Node47&#45;&gt;Node46</title>
<path fill="none" stroke="midnightblue" d="M1685.26,-256.18C1566.25,-244.27 1234.2,-211.01 1119.18,-199.49"/>
<polygon fill="midnightblue" stroke="midnightblue" points="1119.35,-195.99 1109.05,-198.48 1118.65,-202.95 1119.35,-195.99"/>
</g>
<!-- Node48&#45;&gt;Node16 -->
<g id="edge72" class="edge">
<title>Node48&#45;&gt;Node16</title>
<path fill="none" stroke="midnightblue" d="M2732.06,-369.3C2741.28,-361.07 2753.93,-347.79 2759.34,-333 2762.4,-324.65 2761.12,-321.71 2759.34,-313 2746.42,-249.58 2750.15,-222.63 2702.34,-179 2681.61,-160.08 2652.86,-149.11 2626.8,-142.75"/>
<polygon fill="midnightblue" stroke="midnightblue" points="2627.5,-139.32 2616.97,-140.53 2625.96,-146.15 2627.5,-139.32"/>
</g>
<!-- Node48&#45;&gt;Node45 -->
<g id="edge59" class="edge">
<title>Node48&#45;&gt;Node45</title>
<path fill="none" stroke="midnightblue" d="M2712.76,-369.08C2705.18,-361.22 2693.96,-349.57 2684.83,-340.08"/>
<polygon fill="midnightblue" stroke="midnightblue" points="2687.23,-337.53 2677.77,-332.75 2682.19,-342.38 2687.23,-337.53"/>
</g>
<!-- Node49 -->
<g id="node43" class="node">
<title>Node49</title>
<g id="a_node43"><a xlink:href="flight__log_8hpp.html" target="_top" xlink:title="Utilities for logging flight data.">
<polygon fill="white" stroke="red" points="2840.84,-123.5 2840.84,-142.5 2923.84,-142.5 2923.84,-123.5 2840.84,-123.5"/>
<text text-anchor="middle" x="2882.34" y="-130.5" font-family="Helvetica,sans-Serif" font-size="10.00">flight_log.hpp</text>
</a>
</g>
</g>
<!-- Node48&#45;&gt;Node49 -->
<g id="edge60" class="edge">
<title>Node48&#45;&gt;Node49</title>
<path fill="none" stroke="midnightblue" d="M2733.59,-369.4C2744.89,-361.03 2761.64,-347.49 2773.34,-333 2821.77,-273.03 2859.85,-188.47 2875.11,-151.95"/>
<polygon fill="midnightblue" stroke="midnightblue" points="2878.38,-153.19 2878.95,-142.61 2871.91,-150.53 2878.38,-153.19"/>
</g>
<!-- Node49&#45;&gt;Node5 -->
<g id="edge61" class="edge">
<title>Node49&#45;&gt;Node5</title>
<path fill="none" stroke="midnightblue" d="M2840.67,-130.4C2790.01,-128.49 2701.91,-125.26 2626.34,-123 2463.92,-118.15 1323.13,-121.49 1164.34,-87 1161.67,-86.42 1158.95,-85.63 1156.26,-84.72"/>
<polygon fill="midnightblue" stroke="midnightblue" points="1157.46,-81.43 1146.88,-81.03 1154.9,-87.95 1157.46,-81.43"/>
</g>
<!-- Node49&#45;&gt;Node9 -->
<g id="edge66" class="edge">
<title>Node49&#45;&gt;Node9</title>
<path fill="none" stroke="midnightblue" d="M2840.67,-123.54C2783.68,-111.96 2682.23,-91.36 2627.26,-80.2"/>
<polygon fill="midnightblue" stroke="midnightblue" points="2627.73,-76.72 2617.24,-78.16 2626.34,-83.58 2627.73,-76.72"/>
</g>
<!-- Node49&#45;&gt;Node17 -->
<g id="edge64" class="edge">
<title>Node49&#45;&gt;Node17</title>
<path fill="none" stroke="midnightblue" d="M2887.64,-123.48C2893.08,-114.73 2901.7,-100.87 2908.58,-89.81"/>
<polygon fill="midnightblue" stroke="midnightblue" points="2911.74,-91.35 2914.05,-81.01 2905.8,-87.65 2911.74,-91.35"/>
</g>
<!-- Node49&#45;&gt;Node35 -->
<g id="edge67" class="edge">
<title>Node49&#45;&gt;Node35</title>
<path fill="none" stroke="midnightblue" d="M2840.78,-130.16C2777.57,-126.52 2654.02,-116.03 2553.34,-87 2551.41,-86.44 2549.44,-85.79 2547.48,-85.07"/>
<polygon fill="midnightblue" stroke="midnightblue" points="2548.51,-81.71 2537.94,-81.12 2545.84,-88.18 2548.51,-81.71"/>
</g>
<!-- Node49&#45;&gt;Node36 -->
<g id="edge63" class="edge">
<title>Node49&#45;&gt;Node36</title>
<path fill="none" stroke="midnightblue" d="M2877.04,-123.48C2871.6,-114.73 2862.98,-100.87 2856.11,-89.81"/>
<polygon fill="midnightblue" stroke="midnightblue" points="2858.89,-87.65 2850.63,-81.01 2852.94,-91.35 2858.89,-87.65"/>
</g>
<!-- Node49&#45;&gt;Node38 -->
<g id="edge62" class="edge">
<title>Node49&#45;&gt;Node38</title>
<path fill="none" stroke="midnightblue" d="M2866.87,-123.48C2849.07,-113.67 2819.6,-97.43 2798.71,-85.92"/>
<polygon fill="midnightblue" stroke="midnightblue" points="2800.24,-82.77 2789.79,-81.01 2796.86,-88.9 2800.24,-82.77"/>
</g>
<!-- Node50 -->
<g id="node44" class="node">
<title>Node50</title>
<g id="a_node44"><a xlink:title=" ">
<polygon fill="white" stroke="#bfbfbf" points="3430.34,-62 3430.34,-81 3498.34,-81 3498.34,-62 3430.34,-62"/>
<text text-anchor="middle" x="3464.34" y="-69" font-family="Helvetica,sans-Serif" font-size="10.00">filesystem</text>
</a>
</g>
</g>
<!-- Node49&#45;&gt;Node50 -->
<g id="edge65" class="edge">
<title>Node49&#45;&gt;Node50</title>
<path fill="none" stroke="midnightblue" d="M2924.08,-131.93C3015.29,-131.04 3238.82,-124.81 3421.34,-87 3425.03,-86.24 3428.84,-85.25 3432.6,-84.16"/>
<polygon fill="midnightblue" stroke="midnightblue" points="3433.84,-87.43 3442.31,-81.07 3431.72,-80.76 3433.84,-87.43"/>
</g>
<!-- Node51 -->
<g id="node45" class="node">
<title>Node51</title>
<g id="a_node45"><a xlink:title=" ">
<polygon fill="white" stroke="#bfbfbf" points="3516.84,-56.5 3516.84,-86.5 3641.84,-86.5 3641.84,-56.5 3516.84,-56.5"/>
<text text-anchor="start" x="3524.84" y="-74.5" font-family="Helvetica,sans-Serif" font-size="10.00">boost/date_time/posix</text>
<text text-anchor="middle" x="3579.34" y="-63.5" font-family="Helvetica,sans-Serif" font-size="10.00">_time/posix_time.hpp</text>
</a>
</g>
</g>
<!-- Node49&#45;&gt;Node51 -->
<g id="edge68" class="edge">
<title>Node49&#45;&gt;Node51</title>
<path fill="none" stroke="midnightblue" d="M2923.85,-130.83C3022.92,-127.65 3281.08,-117.07 3506.56,-86.98"/>
<polygon fill="midnightblue" stroke="midnightblue" points="3507.15,-90.43 3516.59,-85.62 3506.22,-83.49 3507.15,-90.43"/>
</g>
<!-- Node52 -->
<g id="node46" class="node">
<title>Node52</title>
<g id="a_node46"><a xlink:title=" ">
<polygon fill="white" stroke="#bfbfbf" points="2965.84,-56.5 2965.84,-86.5 3120.84,-86.5 3120.84,-56.5 2965.84,-56.5"/>
<text text-anchor="start" x="2973.84" y="-74.5" font-family="Helvetica,sans-Serif" font-size="10.00">boost/date_time/posix</text>
<text text-anchor="middle" x="3043.34" y="-63.5" font-family="Helvetica,sans-Serif" font-size="10.00">_time/posix_time_types.hpp</text>
</a>
</g>
</g>
<!-- Node49&#45;&gt;Node52 -->
<g id="edge69" class="edge">
<title>Node49&#45;&gt;Node52</title>
<path fill="none" stroke="midnightblue" d="M2905.41,-123.48C2928.95,-114.78 2966.15,-101.03 2996,-90"/>
<polygon fill="midnightblue" stroke="midnightblue" points="2997.23,-93.27 3005.4,-86.52 2994.81,-86.71 2997.23,-93.27"/>
</g>
<!-- Node53 -->
<g id="node47" class="node">
<title>Node53</title>
<g id="a_node47"><a xlink:title=" ">
<polygon fill="white" stroke="#bfbfbf" points="3138.84,-62 3138.84,-81 3271.84,-81 3271.84,-62 3138.84,-62"/>
<text text-anchor="middle" x="3205.34" y="-69" font-family="Helvetica,sans-Serif" font-size="10.00">boost/log/attributes.hpp</text>
</a>
</g>
</g>
<!-- Node49&#45;&gt;Node53 -->
<g id="edge70" class="edge">
<title>Node49&#45;&gt;Node53</title>
<path fill="none" stroke="midnightblue" d="M2924.06,-124.58C2973.36,-115.78 3057.87,-100.58 3130.34,-87 3137.17,-85.72 3144.35,-84.36 3151.45,-83"/>
<polygon fill="midnightblue" stroke="midnightblue" points="3152.58,-86.34 3161.73,-81.02 3151.25,-79.47 3152.58,-86.34"/>
</g>
<!-- Node54 -->
<g id="node48" class="node">
<title>Node54</title>
<g id="a_node48"><a xlink:title=" ">
<polygon fill="white" stroke="#bfbfbf" points="3290.34,-56.5 3290.34,-86.5 3412.34,-86.5 3412.34,-56.5 3290.34,-56.5"/>
<text text-anchor="start" x="3298.34" y="-74.5" font-family="Helvetica,sans-Serif" font-size="10.00">boost/log/attributes</text>
<text text-anchor="middle" x="3351.34" y="-63.5" font-family="Helvetica,sans-Serif" font-size="10.00">/scoped_attribute.hpp</text>
</a>
</g>
</g>
<!-- Node49&#45;&gt;Node54 -->
<g id="edge71" class="edge">
<title>Node49&#45;&gt;Node54</title>
<path fill="none" stroke="midnightblue" d="M2923.87,-128.58C2994.81,-122.47 3144.06,-108.42 3280.13,-87.1"/>
<polygon fill="midnightblue" stroke="midnightblue" points="3280.99,-90.51 3290.32,-85.48 3279.9,-83.59 3280.99,-90.51"/>
</g>
<!-- Node72&#45;&gt;Node7 -->
<g id="edge77" class="edge">
<title>Node72&#45;&gt;Node7</title>
<path fill="none" stroke="midnightblue" d="M2509.23,-246.4C2483.26,-234.99 2447.03,-219.08 2422.03,-208.1"/>
<polygon fill="midnightblue" stroke="midnightblue" points="2423.28,-204.82 2412.71,-204.01 2420.46,-211.23 2423.28,-204.82"/>
</g>
<!-- Node72&#45;&gt;Node16 -->
<g id="edge78" class="edge">
<title>Node72&#45;&gt;Node16</title>
<path fill="none" stroke="midnightblue" d="M2543.21,-246.33C2545.4,-230.04 2549.26,-202.53 2553.34,-179 2554.86,-170.26 2556.76,-160.6 2558.42,-152.49"/>
<polygon fill="midnightblue" stroke="midnightblue" points="2561.87,-153.11 2560.49,-142.6 2555.02,-151.68 2561.87,-153.11"/>
</g>
<!-- Node73 -->
<g id="node50" class="node">
<title>Node73</title>
<g id="a_node50"><a xlink:href="user__defined__trajectory__base_8hpp.html" target="_top" xlink:title="User Defined Trajectory Base Definition.">
<polygon fill="white" stroke="black" points="2561.84,-179.5 2561.84,-209.5 2692.84,-209.5 2692.84,-179.5 2561.84,-179.5"/>
<text text-anchor="start" x="2569.84" y="-197.5" font-family="Helvetica,sans-Serif" font-size="10.00">user_defined_trajectory</text>
<text text-anchor="middle" x="2627.34" y="-186.5" font-family="Helvetica,sans-Serif" font-size="10.00">_base.hpp</text>
</a>
</g>
</g>
<!-- Node72&#45;&gt;Node73 -->
<g id="edge74" class="edge">
<title>Node72&#45;&gt;Node73</title>
<path fill="none" stroke="midnightblue" d="M2560,-246.4C2571.84,-237.45 2587.34,-225.74 2600.48,-215.8"/>
<polygon fill="midnightblue" stroke="midnightblue" points="2602.85,-218.4 2608.72,-209.58 2598.63,-212.81 2602.85,-218.4"/>
</g>
<!-- Node73&#45;&gt;Node19 -->
<g id="edge75" class="edge">
<title>Node73&#45;&gt;Node19</title>
<path fill="none" stroke="midnightblue" d="M2634.94,-179.14C2648.22,-151.84 2671.61,-91.93 2642.34,-56 2621.39,-30.28 2530.49,-18.82 2472.88,-14.06"/>
<polygon fill="midnightblue" stroke="midnightblue" points="2473.13,-10.57 2462.89,-13.27 2472.59,-17.55 2473.13,-10.57"/>
</g>
<!-- Node73&#45;&gt;Node20 -->
<g id="edge76" class="edge">
<title>Node73&#45;&gt;Node20</title>
<path fill="none" stroke="midnightblue" d="M2561.66,-187.49C2529.36,-184.66 2489.83,-181.39 2454.34,-179 2152.04,-158.63 1790.96,-142.92 1641.47,-136.79"/>
<polygon fill="midnightblue" stroke="midnightblue" points="1641.21,-133.28 1631.07,-136.37 1640.92,-140.27 1641.21,-133.28"/>
</g>
</g>
</svg>
