<?xml version="1.0" encoding="UTF-8" standalone="no"?>
<!DOCTYPE svg PUBLIC "-//W3C//DTD SVG 1.1//EN"
 "http://www.w3.org/Graphics/SVG/1.1/DTD/svg11.dtd">
<!-- Generated by graphviz version 2.43.0 (0)
 -->
<!-- Title: ACSL&#45;flightstack&#45;winged/src/acsl_flight/include/control/platforms/rostestdrone/control_algorithms/PID/PID_TD_members.hpp Pages: 1 -->
<svg width="404pt" height="350pt"
 viewBox="0.00 0.00 404.00 350.00" xmlns="http://www.w3.org/2000/svg" xmlns:xlink="http://www.w3.org/1999/xlink">
<g id="graph0" class="graph" transform="scale(1 1) rotate(0) translate(4 346)">
<title>ACSL&#45;flightstack&#45;winged/src/acsl_flight/include/control/platforms/rostestdrone/control_algorithms/PID/PID_TD_members.hpp</title>
<polygon fill="white" stroke="transparent" points="-4,4 -4,-346 400,-346 400,4 -4,4"/>
<!-- Node1 -->
<g id="node1" class="node">
<title>Node1</title>
<g id="a_node1"><a xlink:title="PID controller class members.">
<polygon fill="#bfbfbf" stroke="black" points="66.5,-278.5 66.5,-341.5 235.5,-341.5 235.5,-278.5 66.5,-278.5"/>
<text text-anchor="start" x="74.5" y="-329.5" font-family="Helvetica,sans-Serif" font-size="10.00">ACSL&#45;flightstack&#45;winged</text>
<text text-anchor="start" x="74.5" y="-318.5" font-family="Helvetica,sans-Serif" font-size="10.00">/src/acsl_flight/include</text>
<text text-anchor="start" x="74.5" y="-307.5" font-family="Helvetica,sans-Serif" font-size="10.00">/control/platforms/rostestdrone</text>
<text text-anchor="start" x="74.5" y="-296.5" font-family="Helvetica,sans-Serif" font-size="10.00">/control_algorithms/PID/PID_TD</text>
<text text-anchor="middle" x="151" y="-285.5" font-family="Helvetica,sans-Serif" font-size="10.00">_members.hpp</text>
</a>
</g>
</g>
<!-- Node2 -->
<g id="node2" class="node">
<title>Node2</title>
<g id="a_node2"><a xlink:href="PID__TD_8hpp.html" target="_top" xlink:title="PID for the ros test drone.">
<polygon fill="white" stroke="black" points="0,-89.5 0,-141.5 190,-141.5 190,-89.5 0,-89.5"/>
<text text-anchor="start" x="8" y="-129.5" font-family="Helvetica,sans-Serif" font-size="10.00">ACSL&#45;flightstack&#45;winged</text>
<text text-anchor="start" x="8" y="-118.5" font-family="Helvetica,sans-Serif" font-size="10.00">/src/acsl_flight/include</text>
<text text-anchor="start" x="8" y="-107.5" font-family="Helvetica,sans-Serif" font-size="10.00">/control/platforms/rostestdrone</text>
<text text-anchor="middle" x="95" y="-96.5" font-family="Helvetica,sans-Serif" font-size="10.00">/control_algorithms/PID/PID_TD.hpp</text>
</a>
</g>
</g>
<!-- Node1&#45;&gt;Node2 -->
<g id="edge1" class="edge">
<title>Node1&#45;&gt;Node2</title>
<path fill="none" stroke="midnightblue" d="M126.18,-269.49C121.53,-260.7 117.14,-251.24 114,-242 102.59,-208.41 98.02,-167.43 96.19,-141.64"/>
<polygon fill="midnightblue" stroke="midnightblue" points="123.19,-271.31 131.09,-278.36 129.32,-267.92 123.19,-271.31"/>
</g>
<!-- Node4 -->
<g id="node4" class="node">
<title>Node4</title>
<g id="a_node4"><a xlink:href="PID__TD__logger_8hpp.html" target="_top" xlink:title="Logging for the PID controller.">
<polygon fill="white" stroke="black" points="122.5,-178.5 122.5,-241.5 291.5,-241.5 291.5,-178.5 122.5,-178.5"/>
<text text-anchor="start" x="130.5" y="-229.5" font-family="Helvetica,sans-Serif" font-size="10.00">ACSL&#45;flightstack&#45;winged</text>
<text text-anchor="start" x="130.5" y="-218.5" font-family="Helvetica,sans-Serif" font-size="10.00">/src/acsl_flight/include</text>
<text text-anchor="start" x="130.5" y="-207.5" font-family="Helvetica,sans-Serif" font-size="10.00">/control/platforms/rostestdrone</text>
<text text-anchor="start" x="130.5" y="-196.5" font-family="Helvetica,sans-Serif" font-size="10.00">/control_algorithms/PID/PID_TD</text>
<text text-anchor="middle" x="207" y="-185.5" font-family="Helvetica,sans-Serif" font-size="10.00">_logger.hpp</text>
</a>
</g>
</g>
<!-- Node1&#45;&gt;Node4 -->
<g id="edge3" class="edge">
<title>Node1&#45;&gt;Node4</title>
<path fill="none" stroke="midnightblue" d="M173.55,-269.54C178.86,-260.24 184.45,-250.47 189.5,-241.63"/>
<polygon fill="midnightblue" stroke="midnightblue" points="170.49,-267.84 168.57,-278.26 176.57,-271.32 170.49,-267.84"/>
</g>
<!-- Node3 -->
<g id="node3" class="node">
<title>Node3</title>
<g id="a_node3"><a xlink:href="PID__TD_8cpp.html" target="_top" xlink:title="PID for the rostestdrone.">
<polygon fill="white" stroke="black" points="11,-0.5 11,-52.5 179,-52.5 179,-0.5 11,-0.5"/>
<text text-anchor="start" x="19" y="-40.5" font-family="Helvetica,sans-Serif" font-size="10.00">ACSL&#45;flightstack&#45;winged</text>
<text text-anchor="start" x="19" y="-29.5" font-family="Helvetica,sans-Serif" font-size="10.00">/src/acsl_flight/src/control</text>
<text text-anchor="start" x="19" y="-18.5" font-family="Helvetica,sans-Serif" font-size="10.00">/platforms/rostestdrone/control</text>
<text text-anchor="middle" x="95" y="-7.5" font-family="Helvetica,sans-Serif" font-size="10.00">_algorithms/PID/PID_TD.cpp</text>
</a>
</g>
</g>
<!-- Node2&#45;&gt;Node3 -->
<g id="edge2" class="edge">
<title>Node2&#45;&gt;Node3</title>
<path fill="none" stroke="midnightblue" d="M95,-79.19C95,-70.28 95,-60.9 95,-52.61"/>
<polygon fill="midnightblue" stroke="midnightblue" points="91.5,-79.34 95,-89.34 98.5,-79.34 91.5,-79.34"/>
</g>
<!-- Node4&#45;&gt;Node2 -->
<g id="edge4" class="edge">
<title>Node4&#45;&gt;Node2</title>
<path fill="none" stroke="midnightblue" d="M162.1,-171.91C149.84,-161.79 136.85,-151.06 125.59,-141.77"/>
<polygon fill="midnightblue" stroke="midnightblue" points="160.08,-174.79 170.02,-178.46 164.54,-169.39 160.08,-174.79"/>
</g>
<!-- Node5 -->
<g id="node5" class="node">
<title>Node5</title>
<g id="a_node5"><a xlink:href="PID__TD__logger_8cpp.html" target="_top" xlink:title="logging for the PID controller.">
<polygon fill="white" stroke="black" points="208,-89.5 208,-141.5 396,-141.5 396,-89.5 208,-89.5"/>
<text text-anchor="start" x="216" y="-129.5" font-family="Helvetica,sans-Serif" font-size="10.00">ACSL&#45;flightstack&#45;winged</text>
<text text-anchor="start" x="216" y="-118.5" font-family="Helvetica,sans-Serif" font-size="10.00">/src/acsl_flight/src/control</text>
<text text-anchor="start" x="216" y="-107.5" font-family="Helvetica,sans-Serif" font-size="10.00">/platforms/rostestdrone/control</text>
<text text-anchor="middle" x="302" y="-96.5" font-family="Helvetica,sans-Serif" font-size="10.00">_algorithms/PID/PID_TD_logger.cpp</text>
</a>
</g>
</g>
<!-- Node4&#45;&gt;Node5 -->
<g id="edge5" class="edge">
<title>Node4&#45;&gt;Node5</title>
<path fill="none" stroke="midnightblue" d="M245.68,-171.33C255.9,-161.38 266.69,-150.88 276.05,-141.77"/>
<polygon fill="midnightblue" stroke="midnightblue" points="243.09,-168.97 238.37,-178.46 247.98,-173.99 243.09,-168.97"/>
</g>
</g>
</svg>
