<?xml version="1.0" encoding="UTF-8" standalone="no"?>
<!DOCTYPE svg PUBLIC "-//W3C//DTD SVG 1.1//EN"
 "http://www.w3.org/Graphics/SVG/1.1/DTD/svg11.dtd">
<!-- Generated by graphviz version 2.43.0 (0)
 -->
<!-- Title: ACSL&#45;flightstack&#45;winged/src/acsl_flight/include/control/platforms/rostestdrone/control_algorithms/PID/PID_TD_members.hpp Pages: 1 -->
<svg width="261pt" height="184pt"
 viewBox="0.00 0.00 261.00 184.00" xmlns="http://www.w3.org/2000/svg" xmlns:xlink="http://www.w3.org/1999/xlink">
<g id="graph0" class="graph" transform="scale(1 1) rotate(0) translate(4 180)">
<title>ACSL&#45;flightstack&#45;winged/src/acsl_flight/include/control/platforms/rostestdrone/control_algorithms/PID/PID_TD_members.hpp</title>
<polygon fill="white" stroke="transparent" points="-4,4 -4,-180 257,-180 257,4 -4,4"/>
<!-- Node1 -->
<g id="node1" class="node">
<title>Node1</title>
<g id="a_node1"><a xlink:title="PID controller class members.">
<polygon fill="#bfbfbf" stroke="black" points="0,-112.5 0,-175.5 169,-175.5 169,-112.5 0,-112.5"/>
<text text-anchor="start" x="8" y="-163.5" font-family="Helvetica,sans-Serif" font-size="10.00">ACSL&#45;flightstack&#45;winged</text>
<text text-anchor="start" x="8" y="-152.5" font-family="Helvetica,sans-Serif" font-size="10.00">/src/acsl_flight/include</text>
<text text-anchor="start" x="8" y="-141.5" font-family="Helvetica,sans-Serif" font-size="10.00">/control/platforms/rostestdrone</text>
<text text-anchor="start" x="8" y="-130.5" font-family="Helvetica,sans-Serif" font-size="10.00">/control_algorithms/PID/PID_TD</text>
<text text-anchor="middle" x="84.5" y="-119.5" font-family="Helvetica,sans-Serif" font-size="10.00">_members.hpp</text>
</a>
</g>
</g>
<!-- Node2 -->
<g id="node2" class="node">
<title>Node2</title>
<g id="a_node2"><a xlink:title=" ">
<polygon fill="white" stroke="#bfbfbf" points="26,-0.5 26,-19.5 103,-19.5 103,-0.5 26,-0.5"/>
<text text-anchor="middle" x="64.5" y="-7.5" font-family="Helvetica,sans-Serif" font-size="10.00">Eigen/Dense</text>
</a>
</g>
</g>
<!-- Node1&#45;&gt;Node2 -->
<g id="edge1" class="edge">
<title>Node1&#45;&gt;Node2</title>
<path fill="none" stroke="midnightblue" d="M65.21,-112.48C59.27,-101.42 53.5,-88.56 50.5,-76 46.73,-60.23 51.31,-42.2 56.21,-29.14"/>
<polygon fill="midnightblue" stroke="midnightblue" points="59.46,-30.44 60.06,-19.86 53,-27.76 59.46,-30.44"/>
</g>
<!-- Node3 -->
<g id="node3" class="node">
<title>Node3</title>
<g id="a_node3"><a xlink:title=" ">
<polygon fill="white" stroke="#bfbfbf" points="59.5,-56.5 59.5,-75.5 109.5,-75.5 109.5,-56.5 59.5,-56.5"/>
<text text-anchor="middle" x="84.5" y="-63.5" font-family="Helvetica,sans-Serif" font-size="10.00">chrono</text>
</a>
</g>
</g>
<!-- Node1&#45;&gt;Node3 -->
<g id="edge2" class="edge">
<title>Node1&#45;&gt;Node3</title>
<path fill="none" stroke="midnightblue" d="M84.5,-112.09C84.5,-103.15 84.5,-93.67 84.5,-85.72"/>
<polygon fill="midnightblue" stroke="midnightblue" points="88,-85.72 84.5,-75.72 81,-85.72 88,-85.72"/>
</g>
<!-- Node4 -->
<g id="node4" class="node">
<title>Node4</title>
<g id="a_node4"><a xlink:href="rostestdrone_8hpp.html" target="_top" xlink:title="Vehicle Information of the rostestdrone with the T&#45;Motor.">
<polygon fill="white" stroke="black" points="128,-56.5 128,-75.5 227,-75.5 227,-56.5 128,-56.5"/>
<text text-anchor="middle" x="177.5" y="-63.5" font-family="Helvetica,sans-Serif" font-size="10.00">rostestdrone.hpp</text>
</a>
</g>
</g>
<!-- Node1&#45;&gt;Node4 -->
<g id="edge3" class="edge">
<title>Node1&#45;&gt;Node4</title>
<path fill="none" stroke="midnightblue" d="M122.06,-112.31C134.66,-102.01 148.18,-90.96 158.71,-82.36"/>
<polygon fill="midnightblue" stroke="midnightblue" points="161.24,-84.81 166.76,-75.77 156.81,-79.39 161.24,-84.81"/>
</g>
<!-- Node4&#45;&gt;Node2 -->
<g id="edge4" class="edge">
<title>Node4&#45;&gt;Node2</title>
<path fill="none" stroke="midnightblue" d="M159.59,-56.44C141.25,-47.68 112.49,-33.94 91.41,-23.86"/>
<polygon fill="midnightblue" stroke="midnightblue" points="92.85,-20.67 82.32,-19.52 89.83,-26.99 92.85,-20.67"/>
</g>
<!-- Node5 -->
<g id="node5" class="node">
<title>Node5</title>
<g id="a_node5"><a xlink:title=" ">
<polygon fill="white" stroke="#bfbfbf" points="137,-0.5 137,-19.5 184,-19.5 184,-0.5 137,-0.5"/>
<text text-anchor="middle" x="160.5" y="-7.5" font-family="Helvetica,sans-Serif" font-size="10.00">cmath</text>
</a>
</g>
</g>
<!-- Node4&#45;&gt;Node5 -->
<g id="edge5" class="edge">
<title>Node4&#45;&gt;Node5</title>
<path fill="none" stroke="midnightblue" d="M174.69,-56.08C172.42,-48.85 169.13,-38.41 166.29,-29.4"/>
<polygon fill="midnightblue" stroke="midnightblue" points="169.6,-28.24 163.25,-19.75 162.92,-30.34 169.6,-28.24"/>
</g>
<!-- Node6 -->
<g id="node6" class="node">
<title>Node6</title>
<g id="a_node6"><a xlink:title=" ">
<polygon fill="white" stroke="#bfbfbf" points="202,-0.5 202,-19.5 253,-19.5 253,-0.5 202,-0.5"/>
<text text-anchor="middle" x="227.5" y="-7.5" font-family="Helvetica,sans-Serif" font-size="10.00">math.h</text>
</a>
</g>
</g>
<!-- Node4&#45;&gt;Node6 -->
<g id="edge6" class="edge">
<title>Node4&#45;&gt;Node6</title>
<path fill="none" stroke="midnightblue" d="M185.76,-56.08C192.96,-48.3 203.61,-36.8 212.35,-27.37"/>
<polygon fill="midnightblue" stroke="midnightblue" points="215.17,-29.47 219.4,-19.75 210.03,-24.71 215.17,-29.47"/>
</g>
</g>
</svg>
