<?xml version="1.0" encoding="UTF-8" standalone="no"?>
<!DOCTYPE svg PUBLIC "-//W3C//DTD SVG 1.1//EN"
 "http://www.w3.org/Graphics/SVG/1.1/DTD/svg11.dtd">
<!-- Generated by graphviz version 2.43.0 (0)
 -->
<!-- Title: ACSL&#45;flightstack&#45;winged/src/acsl_flight/include/control/platforms/rostestdrone/control_algorithms/PID/PID_TD_logger.hpp Pages: 1 -->
<svg width="404pt" height="250pt"
 viewBox="0.00 0.00 404.00 250.00" xmlns="http://www.w3.org/2000/svg" xmlns:xlink="http://www.w3.org/1999/xlink">
<g id="graph0" class="graph" transform="scale(1 1) rotate(0) translate(4 246)">
<title>ACSL&#45;flightstack&#45;winged/src/acsl_flight/include/control/platforms/rostestdrone/control_algorithms/PID/PID_TD_logger.hpp</title>
<polygon fill="white" stroke="transparent" points="-4,4 -4,-246 400,-246 400,4 -4,4"/>
<!-- Node1 -->
<g id="node1" class="node">
<title>Node1</title>
<g id="a_node1"><a xlink:title="Logging for the PID controller.">
<polygon fill="#bfbfbf" stroke="black" points="113.5,-178.5 113.5,-241.5 282.5,-241.5 282.5,-178.5 113.5,-178.5"/>
<text text-anchor="start" x="121.5" y="-229.5" font-family="Helvetica,sans-Serif" font-size="10.00">ACSL&#45;flightstack&#45;winged</text>
<text text-anchor="start" x="121.5" y="-218.5" font-family="Helvetica,sans-Serif" font-size="10.00">/src/acsl_flight/include</text>
<text text-anchor="start" x="121.5" y="-207.5" font-family="Helvetica,sans-Serif" font-size="10.00">/control/platforms/rostestdrone</text>
<text text-anchor="start" x="121.5" y="-196.5" font-family="Helvetica,sans-Serif" font-size="10.00">/control_algorithms/PID/PID_TD</text>
<text text-anchor="middle" x="198" y="-185.5" font-family="Helvetica,sans-Serif" font-size="10.00">_logger.hpp</text>
</a>
</g>
</g>
<!-- Node2 -->
<g id="node2" class="node">
<title>Node2</title>
<g id="a_node2"><a xlink:href="PID__TD_8hpp.html" target="_top" xlink:title="PID for the ros test drone.">
<polygon fill="white" stroke="black" points="0,-89.5 0,-141.5 190,-141.5 190,-89.5 0,-89.5"/>
<text text-anchor="start" x="8" y="-129.5" font-family="Helvetica,sans-Serif" font-size="10.00">ACSL&#45;flightstack&#45;winged</text>
<text text-anchor="start" x="8" y="-118.5" font-family="Helvetica,sans-Serif" font-size="10.00">/src/acsl_flight/include</text>
<text text-anchor="start" x="8" y="-107.5" font-family="Helvetica,sans-Serif" font-size="10.00">/control/platforms/rostestdrone</text>
<text text-anchor="middle" x="95" y="-96.5" font-family="Helvetica,sans-Serif" font-size="10.00">/control_algorithms/PID/PID_TD.hpp</text>
</a>
</g>
</g>
<!-- Node1&#45;&gt;Node2 -->
<g id="edge1" class="edge">
<title>Node1&#45;&gt;Node2</title>
<path fill="none" stroke="midnightblue" d="M156.38,-171.62C145.21,-161.59 133.39,-150.97 123.13,-141.77"/>
<polygon fill="midnightblue" stroke="midnightblue" points="154.21,-174.38 163.99,-178.46 158.89,-169.17 154.21,-174.38"/>
</g>
<!-- Node4 -->
<g id="node4" class="node">
<title>Node4</title>
<g id="a_node4"><a xlink:href="PID__TD__logger_8cpp.html" target="_top" xlink:title=" ">
<polygon fill="white" stroke="black" points="208,-89.5 208,-141.5 396,-141.5 396,-89.5 208,-89.5"/>
<text text-anchor="start" x="216" y="-129.5" font-family="Helvetica,sans-Serif" font-size="10.00">ACSL&#45;flightstack&#45;winged</text>
<text text-anchor="start" x="216" y="-118.5" font-family="Helvetica,sans-Serif" font-size="10.00">/src/acsl_flight/src/control</text>
<text text-anchor="start" x="216" y="-107.5" font-family="Helvetica,sans-Serif" font-size="10.00">/platforms/rostestdrone/control</text>
<text text-anchor="middle" x="302" y="-96.5" font-family="Helvetica,sans-Serif" font-size="10.00">_algorithms/PID/PID_TD_logger.cpp</text>
</a>
</g>
</g>
<!-- Node1&#45;&gt;Node4 -->
<g id="edge3" class="edge">
<title>Node1&#45;&gt;Node4</title>
<path fill="none" stroke="midnightblue" d="M240.02,-171.62C251.31,-161.59 263.24,-150.97 273.59,-141.77"/>
<polygon fill="midnightblue" stroke="midnightblue" points="237.49,-169.19 232.34,-178.46 242.14,-174.43 237.49,-169.19"/>
</g>
<!-- Node3 -->
<g id="node3" class="node">
<title>Node3</title>
<g id="a_node3"><a xlink:href="PID__TD_8cpp.html" target="_top" xlink:title=" ">
<polygon fill="white" stroke="black" points="11,-0.5 11,-52.5 179,-52.5 179,-0.5 11,-0.5"/>
<text text-anchor="start" x="19" y="-40.5" font-family="Helvetica,sans-Serif" font-size="10.00">ACSL&#45;flightstack&#45;winged</text>
<text text-anchor="start" x="19" y="-29.5" font-family="Helvetica,sans-Serif" font-size="10.00">/src/acsl_flight/src/control</text>
<text text-anchor="start" x="19" y="-18.5" font-family="Helvetica,sans-Serif" font-size="10.00">/platforms/rostestdrone/control</text>
<text text-anchor="middle" x="95" y="-7.5" font-family="Helvetica,sans-Serif" font-size="10.00">_algorithms/PID/PID_TD.cpp</text>
</a>
</g>
</g>
<!-- Node2&#45;&gt;Node3 -->
<g id="edge2" class="edge">
<title>Node2&#45;&gt;Node3</title>
<path fill="none" stroke="midnightblue" d="M95,-79.19C95,-70.28 95,-60.9 95,-52.61"/>
<polygon fill="midnightblue" stroke="midnightblue" points="91.5,-79.34 95,-89.34 98.5,-79.34 91.5,-79.34"/>
</g>
</g>
</svg>
