<?xml version="1.0" encoding="UTF-8" standalone="no"?>
<!DOCTYPE svg PUBLIC "-//W3C//DTD SVG 1.1//EN"
 "http://www.w3.org/Graphics/SVG/1.1/DTD/svg11.dtd">
<!-- Generated by graphviz version 2.43.0 (0)
 -->
<!-- Title: ACSL&#45;flightstack&#45;winged/src/acsl_flight/include/control/platforms/qrbp/control_algorithms/PID_OMEGA/PID_OMEGA_members.hpp Pages: 1 -->
<!--zoomable 517 -->
<svg id="main" version="1.1" xmlns="http://www.w3.org/2000/svg" xmlns:xlink="http://www.w3.org/1999/xlink" xml:space="preserve" onload="init(evt)">
<style type="text/css"><![CDATA[
.edge:hover path { stroke: red; }
.edge:hover polygon { stroke: red; fill: red; }
]]></style>
<script type="text/javascript"><![CDATA[
var edges = document.getElementsByTagName('g');
if (edges && edges.length) {
  for (var i=0;i<edges.length;i++) {
    if (edges[i].id.substr(0,4)=='edge') {
      edges[i].setAttribute('class','edge');
    }
  }
}
]]></script>
        <defs>
                <circle id="rim" cx="0" cy="0" r="7"/>
                <circle id="rim2" cx="0" cy="0" r="3.5"/>
                <g id="zoomPlus">
                        <use xlink:href="#rim" fill="#404040">
                                <set attributeName="fill" to="#808080" begin="zoomplus.mouseover" end="zoomplus.mouseout"/>
                        </use>
                        <path d="M-4,0h8M0,-4v8" fill="none" stroke="white" stroke-width="1.5" pointer-events="none"/>
                </g>
                <g id="zoomMin">
                        <use xlink:href="#rim" fill="#404040">
                                <set attributeName="fill" to="#808080" begin="zoomminus.mouseover" end="zoomminus.mouseout"/>
                        </use>
                        <path d="M-4,0h8" fill="none" stroke="white" stroke-width="1.5" pointer-events="none"/>
                </g>
                <g id="dirArrow">
                        <path fill="none" stroke="white" stroke-width="1.5" d="M0,-3.0v7 M-2.5,-0.5L0,-3.0L2.5,-0.5"/>
                </g>
               <g id="resetDef">
                       <use xlink:href="#rim2" fill="#404040">
                               <set attributeName="fill" to="#808080" begin="reset.mouseover" end="reset.mouseout"/>
                       </use>
               </g>
        </defs>

<script type="text/javascript">
var viewWidth = 628;
var viewHeight = 517;
var sectionId = 'dynsection-1';
</script>
<script xlink:href="svgpan.js"/>
<svg id="graph" class="graph">
<g id="viewport">
<title>ACSL&#45;flightstack&#45;winged/src/acsl_flight/include/control/platforms/qrbp/control_algorithms/PID_OMEGA/PID_OMEGA_members.hpp</title>
<polygon fill="white" stroke="transparent" points="-4,4 -4,-513 623.5,-513 623.5,4 -4,4"/>
<!-- Node1 -->
<g id="node1" class="node">
<title>Node1</title>
<g id="a_node1"><a xlink:title="PID with angular velocities controller class members.">
<polygon fill="#bfbfbf" stroke="black" points="290.5,-445.5 290.5,-508.5 463.5,-508.5 463.5,-445.5 290.5,-445.5"/>
<text text-anchor="start" x="298.5" y="-496.5" font-family="Helvetica,sans-Serif" font-size="10.00">ACSL&#45;flightstack&#45;winged</text>
<text text-anchor="start" x="298.5" y="-485.5" font-family="Helvetica,sans-Serif" font-size="10.00">/src/acsl_flight/include</text>
<text text-anchor="start" x="298.5" y="-474.5" font-family="Helvetica,sans-Serif" font-size="10.00">/control/platforms/qrbp</text>
<text text-anchor="start" x="298.5" y="-463.5" font-family="Helvetica,sans-Serif" font-size="10.00">/control_algorithms/PID_OMEGA</text>
<text text-anchor="middle" x="377" y="-452.5" font-family="Helvetica,sans-Serif" font-size="10.00">/PID_OMEGA_members.hpp</text>
</a>
</g>
</g>
<!-- Node2 -->
<g id="node2" class="node">
<title>Node2</title>
<g id="a_node2"><a xlink:href="PID__OMEGA_8hpp.html" target="_top" xlink:title="PID with angular veocities for the QRBP.">
<polygon fill="white" stroke="black" points="233.5,-245.5 233.5,-308.5 406.5,-308.5 406.5,-245.5 233.5,-245.5"/>
<text text-anchor="start" x="241.5" y="-296.5" font-family="Helvetica,sans-Serif" font-size="10.00">ACSL&#45;flightstack&#45;winged</text>
<text text-anchor="start" x="241.5" y="-285.5" font-family="Helvetica,sans-Serif" font-size="10.00">/src/acsl_flight/include</text>
<text text-anchor="start" x="241.5" y="-274.5" font-family="Helvetica,sans-Serif" font-size="10.00">/control/platforms/qrbp</text>
<text text-anchor="start" x="241.5" y="-263.5" font-family="Helvetica,sans-Serif" font-size="10.00">/control_algorithms/PID_OMEGA</text>
<text text-anchor="middle" x="320" y="-252.5" font-family="Helvetica,sans-Serif" font-size="10.00">/PID_OMEGA.hpp</text>
</a>
</g>
</g>
<!-- Node1&#45;&gt;Node2 -->
<g id="edge1" class="edge">
<title>Node1&#45;&gt;Node2</title>
<path fill="none" stroke="midnightblue" d="M352.19,-436.49C347.53,-427.7 343.15,-418.24 340,-409 328.7,-375.79 323.76,-335.66 321.62,-308.64"/>
<polygon fill="midnightblue" stroke="midnightblue" points="349.2,-438.31 357.1,-445.36 355.32,-434.92 349.2,-438.31"/>
</g>
<!-- Node11 -->
<g id="node11" class="node">
<title>Node11</title>
<g id="a_node11"><a xlink:href="PID__OMEGA__logger_8hpp.html" target="_top" xlink:title="Logger for the PID controller.">
<polygon fill="white" stroke="black" points="348.5,-345.5 348.5,-408.5 521.5,-408.5 521.5,-345.5 348.5,-345.5"/>
<text text-anchor="start" x="356.5" y="-396.5" font-family="Helvetica,sans-Serif" font-size="10.00">ACSL&#45;flightstack&#45;winged</text>
<text text-anchor="start" x="356.5" y="-385.5" font-family="Helvetica,sans-Serif" font-size="10.00">/src/acsl_flight/include</text>
<text text-anchor="start" x="356.5" y="-374.5" font-family="Helvetica,sans-Serif" font-size="10.00">/control/platforms/qrbp</text>
<text text-anchor="start" x="356.5" y="-363.5" font-family="Helvetica,sans-Serif" font-size="10.00">/control_algorithms/PID_OMEGA</text>
<text text-anchor="middle" x="435" y="-352.5" font-family="Helvetica,sans-Serif" font-size="10.00">/PID_OMEGA_logger.hpp</text>
</a>
</g>
</g>
<!-- Node1&#45;&gt;Node11 -->
<g id="edge10" class="edge">
<title>Node1&#45;&gt;Node11</title>
<path fill="none" stroke="midnightblue" d="M400.35,-436.54C405.86,-427.24 411.64,-417.47 416.87,-408.63"/>
<polygon fill="midnightblue" stroke="midnightblue" points="397.27,-434.87 395.19,-445.26 403.3,-438.44 397.27,-434.87"/>
</g>
<!-- Node3 -->
<g id="node3" class="node">
<title>Node3</title>
<g id="a_node3"><a xlink:href="control__config_8hpp.html" target="_top" xlink:title="Just a header file for configuring which platform and controller to pick during compilation.">
<polygon fill="white" stroke="black" points="155,-162 155,-203 301,-203 301,-162 155,-162"/>
<text text-anchor="start" x="163" y="-191" font-family="Helvetica,sans-Serif" font-size="10.00">ACSL&#45;flightstack&#45;winged</text>
<text text-anchor="start" x="163" y="-180" font-family="Helvetica,sans-Serif" font-size="10.00">/src/acsl_flight/include</text>
<text text-anchor="middle" x="228" y="-169" font-family="Helvetica,sans-Serif" font-size="10.00">/control/control_config.hpp</text>
</a>
</g>
</g>
<!-- Node2&#45;&gt;Node3 -->
<g id="edge2" class="edge">
<title>Node2&#45;&gt;Node3</title>
<path fill="none" stroke="midnightblue" d="M282.34,-238.13C270.43,-226.16 257.75,-213.41 247.64,-203.25"/>
<polygon fill="midnightblue" stroke="midnightblue" points="280.09,-240.83 289.62,-245.46 285.05,-235.9 280.09,-240.83"/>
</g>
<!-- Node10 -->
<g id="node10" class="node">
<title>Node10</title>
<g id="a_node10"><a xlink:href="PID__OMEGA_8cpp.html" target="_top" xlink:title="PID with angular velocities for the QRBP.">
<polygon fill="white" stroke="black" points="319,-156.5 319,-208.5 505,-208.5 505,-156.5 319,-156.5"/>
<text text-anchor="start" x="327" y="-196.5" font-family="Helvetica,sans-Serif" font-size="10.00">ACSL&#45;flightstack&#45;winged</text>
<text text-anchor="start" x="327" y="-185.5" font-family="Helvetica,sans-Serif" font-size="10.00">/src/acsl_flight/src/control</text>
<text text-anchor="start" x="327" y="-174.5" font-family="Helvetica,sans-Serif" font-size="10.00">/platforms/qrbp/control_algorithms</text>
<text text-anchor="middle" x="412" y="-163.5" font-family="Helvetica,sans-Serif" font-size="10.00">/PID_OMEGA/PID_OMEGA.cpp</text>
</a>
</g>
</g>
<!-- Node2&#45;&gt;Node10 -->
<g id="edge9" class="edge">
<title>Node2&#45;&gt;Node10</title>
<path fill="none" stroke="midnightblue" d="M357.46,-238.33C367.36,-228.38 377.8,-217.88 386.87,-208.77"/>
<polygon fill="midnightblue" stroke="midnightblue" points="354.95,-235.9 350.38,-245.46 359.91,-240.83 354.95,-235.9"/>
</g>
<!-- Node4 -->
<g id="node4" class="node">
<title>Node4</title>
<g id="a_node4"><a xlink:href="control_8hpp.html" target="_top" xlink:title="Class declaration for computing and publishing the control.">
<polygon fill="white" stroke="black" points="5.5,-78.5 5.5,-119.5 140.5,-119.5 140.5,-78.5 5.5,-78.5"/>
<text text-anchor="start" x="13.5" y="-107.5" font-family="Helvetica,sans-Serif" font-size="10.00">ACSL&#45;flightstack&#45;winged</text>
<text text-anchor="start" x="13.5" y="-96.5" font-family="Helvetica,sans-Serif" font-size="10.00">/src/acsl_flight/include</text>
<text text-anchor="middle" x="73" y="-85.5" font-family="Helvetica,sans-Serif" font-size="10.00">/control/control.hpp</text>
</a>
</g>
</g>
<!-- Node3&#45;&gt;Node4 -->
<g id="edge3" class="edge">
<title>Node3&#45;&gt;Node4</title>
<path fill="none" stroke="midnightblue" d="M182,-157.31C159.05,-145.25 131.67,-130.85 110.09,-119.5"/>
<polygon fill="midnightblue" stroke="midnightblue" points="180.39,-160.42 190.87,-161.98 183.65,-154.23 180.39,-160.42"/>
</g>
<!-- Node6 -->
<g id="node6" class="node">
<title>Node6</title>
<g id="a_node6"><a xlink:href="mocap_8hpp.html" target="_top" xlink:title="Class declaration for UDP socket as a lifecycle node.">
<polygon fill="white" stroke="black" points="160.5,-78.5 160.5,-119.5 295.5,-119.5 295.5,-78.5 160.5,-78.5"/>
<text text-anchor="start" x="168.5" y="-107.5" font-family="Helvetica,sans-Serif" font-size="10.00">ACSL&#45;flightstack&#45;winged</text>
<text text-anchor="start" x="168.5" y="-96.5" font-family="Helvetica,sans-Serif" font-size="10.00">/src/acsl_flight/include</text>
<text text-anchor="middle" x="228" y="-85.5" font-family="Helvetica,sans-Serif" font-size="10.00">/mocap/mocap.hpp</text>
</a>
</g>
</g>
<!-- Node3&#45;&gt;Node6 -->
<g id="edge5" class="edge">
<title>Node3&#45;&gt;Node6</title>
<path fill="none" stroke="midnightblue" d="M228,-151.56C228,-140.88 228,-129.13 228,-119.55"/>
<polygon fill="midnightblue" stroke="midnightblue" points="224.5,-151.77 228,-161.77 231.5,-151.77 224.5,-151.77"/>
</g>
<!-- Node8 -->
<g id="node8" class="node">
<title>Node8</title>
<g id="a_node8"><a xlink:href="vio_8hpp.html" target="_top" xlink:title="Class decleration for Intel Realsense T265 tracking camera as a lifecycle node.">
<polygon fill="white" stroke="black" points="314.5,-78.5 314.5,-119.5 449.5,-119.5 449.5,-78.5 314.5,-78.5"/>
<text text-anchor="start" x="322.5" y="-107.5" font-family="Helvetica,sans-Serif" font-size="10.00">ACSL&#45;flightstack&#45;winged</text>
<text text-anchor="start" x="322.5" y="-96.5" font-family="Helvetica,sans-Serif" font-size="10.00">/src/acsl_flight/include</text>
<text text-anchor="middle" x="382" y="-85.5" font-family="Helvetica,sans-Serif" font-size="10.00">/vio/vio.hpp</text>
</a>
</g>
</g>
<!-- Node3&#45;&gt;Node8 -->
<g id="edge7" class="edge">
<title>Node3&#45;&gt;Node8</title>
<path fill="none" stroke="midnightblue" d="M274.01,-157.15C296.74,-145.12 323.8,-130.8 345.15,-119.5"/>
<polygon fill="midnightblue" stroke="midnightblue" points="272.09,-154.21 264.89,-161.98 275.36,-160.39 272.09,-154.21"/>
</g>
<!-- Node5 -->
<g id="node5" class="node">
<title>Node5</title>
<g id="a_node5"><a xlink:href="control_8cpp.html" target="_top" xlink:title="Control node definition. Runs all the control algorithms. Adds as a hub for all the control actions.">
<polygon fill="white" stroke="black" points="0,-0.5 0,-41.5 140,-41.5 140,-0.5 0,-0.5"/>
<text text-anchor="start" x="8" y="-29.5" font-family="Helvetica,sans-Serif" font-size="10.00">ACSL&#45;flightstack&#45;winged</text>
<text text-anchor="start" x="8" y="-18.5" font-family="Helvetica,sans-Serif" font-size="10.00">/src/acsl_flight/src/control</text>
<text text-anchor="middle" x="70" y="-7.5" font-family="Helvetica,sans-Serif" font-size="10.00">/control.cpp</text>
</a>
</g>
</g>
<!-- Node4&#45;&gt;Node5 -->
<g id="edge4" class="edge">
<title>Node4&#45;&gt;Node5</title>
<path fill="none" stroke="midnightblue" d="M71.83,-68.3C71.47,-59.3 71.09,-49.65 70.77,-41.51"/>
<polygon fill="midnightblue" stroke="midnightblue" points="68.34,-68.57 72.23,-78.43 75.33,-68.3 68.34,-68.57"/>
</g>
<!-- Node7 -->
<g id="node7" class="node">
<title>Node7</title>
<g id="a_node7"><a xlink:href="mocap_8cpp.html" target="_top" xlink:title="Node definition for UDP socket as a lifecycle node.">
<polygon fill="white" stroke="black" points="158,-0.5 158,-41.5 298,-41.5 298,-0.5 158,-0.5"/>
<text text-anchor="start" x="166" y="-29.5" font-family="Helvetica,sans-Serif" font-size="10.00">ACSL&#45;flightstack&#45;winged</text>
<text text-anchor="start" x="166" y="-18.5" font-family="Helvetica,sans-Serif" font-size="10.00">/src/acsl_flight/src/mocap</text>
<text text-anchor="middle" x="228" y="-7.5" font-family="Helvetica,sans-Serif" font-size="10.00">/mocap.cpp</text>
</a>
</g>
</g>
<!-- Node6&#45;&gt;Node7 -->
<g id="edge6" class="edge">
<title>Node6&#45;&gt;Node7</title>
<path fill="none" stroke="midnightblue" d="M228,-68.3C228,-59.3 228,-49.65 228,-41.51"/>
<polygon fill="midnightblue" stroke="midnightblue" points="224.5,-68.43 228,-78.43 231.5,-68.43 224.5,-68.43"/>
</g>
<!-- Node9 -->
<g id="node9" class="node">
<title>Node9</title>
<g id="a_node9"><a xlink:href="vio_8cpp.html" target="_top" xlink:title="Node definition for Intel Realsense T265 tracking camera as a lifecycle node.">
<polygon fill="white" stroke="black" points="316.5,-0.5 316.5,-41.5 451.5,-41.5 451.5,-0.5 316.5,-0.5"/>
<text text-anchor="start" x="324.5" y="-29.5" font-family="Helvetica,sans-Serif" font-size="10.00">ACSL&#45;flightstack&#45;winged</text>
<text text-anchor="start" x="324.5" y="-18.5" font-family="Helvetica,sans-Serif" font-size="10.00">/src/acsl_flight/src/vio</text>
<text text-anchor="middle" x="384" y="-7.5" font-family="Helvetica,sans-Serif" font-size="10.00">/vio.cpp</text>
</a>
</g>
</g>
<!-- Node8&#45;&gt;Node9 -->
<g id="edge8" class="edge">
<title>Node8&#45;&gt;Node9</title>
<path fill="none" stroke="midnightblue" d="M382.78,-68.3C383.02,-59.3 383.27,-49.65 383.49,-41.51"/>
<polygon fill="midnightblue" stroke="midnightblue" points="379.28,-68.34 382.52,-78.43 386.28,-68.52 379.28,-68.34"/>
</g>
<!-- Node11&#45;&gt;Node2 -->
<g id="edge11" class="edge">
<title>Node11&#45;&gt;Node2</title>
<path fill="none" stroke="midnightblue" d="M391.05,-338.54C379.45,-328.66 367.07,-318.11 355.94,-308.63"/>
<polygon fill="midnightblue" stroke="midnightblue" points="389.05,-341.44 398.93,-345.26 393.59,-336.11 389.05,-341.44"/>
</g>
<!-- Node12 -->
<g id="node12" class="node">
<title>Node12</title>
<g id="a_node12"><a xlink:href="PID__OMEGA__logger_8cpp.html" target="_top" xlink:title="logging for the PID with angular velocities controller">
<polygon fill="white" stroke="black" points="424.5,-251 424.5,-303 619.5,-303 619.5,-251 424.5,-251"/>
<text text-anchor="start" x="432.5" y="-291" font-family="Helvetica,sans-Serif" font-size="10.00">ACSL&#45;flightstack&#45;winged</text>
<text text-anchor="start" x="432.5" y="-280" font-family="Helvetica,sans-Serif" font-size="10.00">/src/acsl_flight/src/control</text>
<text text-anchor="start" x="432.5" y="-269" font-family="Helvetica,sans-Serif" font-size="10.00">/platforms/qrbp/control_algorithms</text>
<text text-anchor="middle" x="522" y="-258" font-family="Helvetica,sans-Serif" font-size="10.00">/PID_OMEGA/PID_OMEGA_logger.cpp</text>
</a>
</g>
</g>
<!-- Node11&#45;&gt;Node12 -->
<g id="edge12" class="edge">
<title>Node11&#45;&gt;Node12</title>
<path fill="none" stroke="midnightblue" d="M468.95,-337.76C479.3,-326.1 490.4,-313.6 499.76,-303.05"/>
<polygon fill="midnightblue" stroke="midnightblue" points="466.31,-335.46 462.29,-345.26 471.54,-340.11 466.31,-335.46"/>
</g>
</g>
</svg>
        <g id="navigator" transform="translate(0 0)" fill="#404254">
                <rect fill="#f2f5e9" fill-opacity="0.5" stroke="#606060" stroke-width=".5" x="0" y="0" width="60" height="60"/>
                <use id="zoomplus" xlink:href="#zoomPlus" x="17" y="9" onmousedown="handleZoom(evt,'in')"/>
                <use id="zoomminus" xlink:href="#zoomMin" x="42" y="9" onmousedown="handleZoom(evt,'out')"/>
                <use id="reset" xlink:href="#resetDef" x="30" y="36" onmousedown="handleReset()"/>
                <g id="arrowUp" xlink:href="#dirArrow" transform="translate(30 24)" onmousedown="handlePan(0,-1)">
                  <use xlink:href="#rim" fill="#404040">
                        <set attributeName="fill" to="#808080" begin="arrowUp.mouseover" end="arrowUp.mouseout"/>
                  </use>
                  <path fill="none" stroke="white" stroke-width="1.5" d="M0,-3.0v7 M-2.5,-0.5L0,-3.0L2.5,-0.5"/>
                </g>
                <g id="arrowRight" xlink:href="#dirArrow" transform="rotate(90) translate(36 -43)" onmousedown="handlePan(1,0)">
                  <use xlink:href="#rim" fill="#404040">
                        <set attributeName="fill" to="#808080" begin="arrowRight.mouseover" end="arrowRight.mouseout"/>
                  </use>
                  <path fill="none" stroke="white" stroke-width="1.5" d="M0,-3.0v7 M-2.5,-0.5L0,-3.0L2.5,-0.5"/>
                </g>
                <g id="arrowDown" xlink:href="#dirArrow" transform="rotate(180) translate(-30 -48)" onmousedown="handlePan(0,1)">
                  <use xlink:href="#rim" fill="#404040">
                        <set attributeName="fill" to="#808080" begin="arrowDown.mouseover" end="arrowDown.mouseout"/>
                  </use>
                  <path fill="none" stroke="white" stroke-width="1.5" d="M0,-3.0v7 M-2.5,-0.5L0,-3.0L2.5,-0.5"/>
                </g>
                <g id="arrowLeft" xlink:href="#dirArrow" transform="rotate(270) translate(-36 17)" onmousedown="handlePan(-1,0)">
                  <use xlink:href="#rim" fill="#404040">
                        <set attributeName="fill" to="#808080" begin="arrowLeft.mouseover" end="arrowLeft.mouseout"/>
                  </use>
                  <path fill="none" stroke="white" stroke-width="1.5" d="M0,-3.0v7 M-2.5,-0.5L0,-3.0L2.5,-0.5"/>
                </g>
        </g>
        <svg viewBox="0 0 15 15" width="100%" height="30px" preserveAspectRatio="xMaxYMin meet">
         <g id="arrow_out" transform="scale(0.3 0.3)">
          <a xlink:href="PID__OMEGA__members_8hpp__dep__incl_org.svg" target="_base">
           <rect id="button" ry="5" rx="5" y="6" x="6" height="38" width="38"
                fill="#f2f5e9" fill-opacity="0.5" stroke="#606060" stroke-width="1.0"/>
           <path id="arrow"
             d="M 11.500037,31.436501 C 11.940474,20.09759 22.043105,11.32322 32.158766,21.979434 L 37.068811,17.246167 C 37.068811,17.246167 37.088388,32 37.088388,32 L 22.160133,31.978069 C 22.160133,31.978069 26.997745,27.140456 26.997745,27.140456 C 18.528582,18.264221 13.291696,25.230495 11.500037,31.436501 z"
             style="fill:#404040;"/>
          </a>
         </g>
        </svg>
</svg>
