<?xml version="1.0" encoding="UTF-8" standalone="no"?>
<!DOCTYPE svg PUBLIC "-//W3C//DTD SVG 1.1//EN"
 "http://www.w3.org/Graphics/SVG/1.1/DTD/svg11.dtd">
<!-- Generated by graphviz version 2.43.0 (0)
 -->
<!-- Title: ACSL&#45;flightstack&#45;winged/src/acsl_flight/include/control/platforms/qrbp/control_algorithms/PID_OMEGA/PID_OMEGA_members.hpp Pages: 1 -->
<svg width="2705pt" height="363pt"
 viewBox="0.00 0.00 2705.00 363.00" xmlns="http://www.w3.org/2000/svg" xmlns:xlink="http://www.w3.org/1999/xlink">
<g id="graph0" class="graph" transform="scale(1 1) rotate(0) translate(4 359)">
<title>ACSL&#45;flightstack&#45;winged/src/acsl_flight/include/control/platforms/qrbp/control_algorithms/PID_OMEGA/PID_OMEGA_members.hpp</title>
<polygon fill="white" stroke="transparent" points="-4,4 -4,-359 2701,-359 2701,4 -4,4"/>
<!-- Node1 -->
<g id="node1" class="node">
<title>Node1</title>
<g id="a_node1"><a xlink:title="PID with angular velocities controller class members.">
<polygon fill="#bfbfbf" stroke="black" points="29.5,-291.5 29.5,-354.5 202.5,-354.5 202.5,-291.5 29.5,-291.5"/>
<text text-anchor="start" x="37.5" y="-342.5" font-family="Helvetica,sans-Serif" font-size="10.00">ACSL&#45;flightstack&#45;winged</text>
<text text-anchor="start" x="37.5" y="-331.5" font-family="Helvetica,sans-Serif" font-size="10.00">/src/acsl_flight/include</text>
<text text-anchor="start" x="37.5" y="-320.5" font-family="Helvetica,sans-Serif" font-size="10.00">/control/platforms/qrbp</text>
<text text-anchor="start" x="37.5" y="-309.5" font-family="Helvetica,sans-Serif" font-size="10.00">/control_algorithms/PID_OMEGA</text>
<text text-anchor="middle" x="116" y="-298.5" font-family="Helvetica,sans-Serif" font-size="10.00">/PID_OMEGA_members.hpp</text>
</a>
</g>
</g>
<!-- Node2 -->
<g id="node2" class="node">
<title>Node2</title>
<g id="a_node2"><a xlink:title=" ">
<polygon fill="white" stroke="#bfbfbf" points="638.5,-0.5 638.5,-19.5 715.5,-19.5 715.5,-0.5 638.5,-0.5"/>
<text text-anchor="middle" x="677" y="-7.5" font-family="Helvetica,sans-Serif" font-size="10.00">Eigen/Dense</text>
</a>
</g>
</g>
<!-- Node1&#45;&gt;Node2 -->
<g id="edge1" class="edge">
<title>Node1&#45;&gt;Node2</title>
<path fill="none" stroke="midnightblue" d="M65.8,-291.31C34.45,-267.93 0,-232.56 0,-190 0,-190 0,-190 0,-132 0,-92.97 10.9,-76.68 44,-56 93.11,-25.32 488.48,-14.68 628.26,-11.86"/>
<polygon fill="midnightblue" stroke="midnightblue" points="628.33,-15.36 638.26,-11.66 628.2,-8.36 628.33,-15.36"/>
</g>
<!-- Node3 -->
<g id="node3" class="node">
<title>Node3</title>
<g id="a_node3"><a xlink:title=" ">
<polygon fill="white" stroke="#bfbfbf" points="2647,-62 2647,-81 2697,-81 2697,-62 2647,-62"/>
<text text-anchor="middle" x="2672" y="-69" font-family="Helvetica,sans-Serif" font-size="10.00">chrono</text>
</a>
</g>
</g>
<!-- Node1&#45;&gt;Node3 -->
<g id="edge2" class="edge">
<title>Node1&#45;&gt;Node3</title>
<path fill="none" stroke="midnightblue" d="M202.57,-318.93C501.44,-307.52 1517.13,-261.88 2347,-143 2468.32,-125.62 2497.71,-115.08 2617,-87 2623.43,-85.49 2630.26,-83.77 2636.84,-82.07"/>
<polygon fill="midnightblue" stroke="midnightblue" points="2638.1,-85.35 2646.88,-79.42 2636.32,-78.59 2638.1,-85.35"/>
</g>
<!-- Node4 -->
<g id="node4" class="node">
<title>Node4</title>
<g id="a_node4"><a xlink:href="qrbp_8hpp.html" target="_top" xlink:title="Vehicle Information of the QRBP with the NACA 0012 wings and the Velox V2808 kv1300 motors used in al...">
<polygon fill="white" stroke="black" points="107.5,-179.5 107.5,-198.5 166.5,-198.5 166.5,-179.5 107.5,-179.5"/>
<text text-anchor="middle" x="137" y="-186.5" font-family="Helvetica,sans-Serif" font-size="10.00">qrbp.hpp</text>
</a>
</g>
</g>
<!-- Node1&#45;&gt;Node4 -->
<g id="edge3" class="edge">
<title>Node1&#45;&gt;Node4</title>
<path fill="none" stroke="midnightblue" d="M125.09,-291.23C128.09,-279.93 131.13,-266.98 133,-255 135.4,-239.62 136.38,-221.98 136.77,-208.97"/>
<polygon fill="midnightblue" stroke="midnightblue" points="140.27,-208.96 136.98,-198.89 133.27,-208.81 140.27,-208.96"/>
</g>
<!-- Node34 -->
<g id="node34" class="node">
<title>Node34</title>
<g id="a_node34"><a xlink:href="aero__qrbp_8hpp.html" target="_top" xlink:title="Aerodynamics class for all algorithms to use with the grbp platform of ACSL.">
<polygon fill="white" stroke="black" points="38,-235.5 38,-254.5 124,-254.5 124,-235.5 38,-235.5"/>
<text text-anchor="middle" x="81" y="-242.5" font-family="Helvetica,sans-Serif" font-size="10.00">aero_qrbp.hpp</text>
</a>
</g>
</g>
<!-- Node1&#45;&gt;Node34 -->
<g id="edge40" class="edge">
<title>Node1&#45;&gt;Node34</title>
<path fill="none" stroke="midnightblue" d="M101.76,-291.09C97.51,-281.84 92.98,-272.01 89.24,-263.9"/>
<polygon fill="midnightblue" stroke="midnightblue" points="92.38,-262.34 85.01,-254.72 86.02,-265.27 92.38,-262.34"/>
</g>
<!-- Node4&#45;&gt;Node2 -->
<g id="edge4" class="edge">
<title>Node4&#45;&gt;Node2</title>
<path fill="none" stroke="midnightblue" d="M124.85,-179.47C94.52,-157.21 20.53,-96.29 58,-56 96.53,-14.57 488.48,-10.83 628.01,-10.82"/>
<polygon fill="midnightblue" stroke="midnightblue" points="628.39,-14.32 638.39,-10.83 628.39,-7.32 628.39,-14.32"/>
</g>
<!-- Node5 -->
<g id="node5" class="node">
<title>Node5</title>
<g id="a_node5"><a xlink:title=" ">
<polygon fill="white" stroke="#bfbfbf" points="1943.5,-0.5 1943.5,-19.5 1990.5,-19.5 1990.5,-0.5 1943.5,-0.5"/>
<text text-anchor="middle" x="1967" y="-7.5" font-family="Helvetica,sans-Serif" font-size="10.00">cmath</text>
</a>
</g>
</g>
<!-- Node4&#45;&gt;Node5 -->
<g id="edge5" class="edge">
<title>Node4&#45;&gt;Node5</title>
<path fill="none" stroke="midnightblue" d="M166.54,-187.94C439.33,-187.29 2511.44,-179.31 2600,-87 2609.54,-77.06 2609.39,-66.08 2600,-56 2558.96,-11.94 2126.34,-10.31 2000.91,-10.78"/>
<polygon fill="midnightblue" stroke="midnightblue" points="2000.72,-7.28 1990.74,-10.82 2000.76,-14.28 2000.72,-7.28"/>
</g>
<!-- Node6 -->
<g id="node6" class="node">
<title>Node6</title>
<g id="a_node6"><a xlink:title=" ">
<polygon fill="white" stroke="#bfbfbf" points="66.5,-62 66.5,-81 117.5,-81 117.5,-62 66.5,-62"/>
<text text-anchor="middle" x="92" y="-69" font-family="Helvetica,sans-Serif" font-size="10.00">math.h</text>
</a>
</g>
</g>
<!-- Node4&#45;&gt;Node6 -->
<g id="edge6" class="edge">
<title>Node4&#45;&gt;Node6</title>
<path fill="none" stroke="midnightblue" d="M133.62,-179.32C126.32,-160.59 108.97,-116.05 99.13,-90.79"/>
<polygon fill="midnightblue" stroke="midnightblue" points="102.31,-89.33 95.42,-81.28 95.79,-91.87 102.31,-89.33"/>
</g>
<!-- Node7 -->
<g id="node7" class="node">
<title>Node7</title>
<g id="a_node7"><a xlink:href="helper__functions_8hpp.html" target="_top" xlink:title="Definitions of some standard templates used in all controllers.">
<polygon fill="white" stroke="black" points="1120.5,-123.5 1120.5,-142.5 1239.5,-142.5 1239.5,-123.5 1120.5,-123.5"/>
<text text-anchor="middle" x="1180" y="-130.5" font-family="Helvetica,sans-Serif" font-size="10.00">helper_functions.hpp</text>
</a>
</g>
</g>
<!-- Node4&#45;&gt;Node7 -->
<g id="edge7" class="edge">
<title>Node4&#45;&gt;Node7</title>
<path fill="none" stroke="midnightblue" d="M166.53,-186.47C306.47,-179.23 904.55,-148.26 1110.21,-137.61"/>
<polygon fill="midnightblue" stroke="midnightblue" points="1110.48,-141.1 1120.29,-137.09 1110.12,-134.11 1110.48,-141.1"/>
</g>
<!-- Node7&#45;&gt;Node2 -->
<g id="edge9" class="edge">
<title>Node7&#45;&gt;Node2</title>
<path fill="none" stroke="midnightblue" d="M1238.57,-123.48C1260.33,-117.16 1282.88,-106.16 1296,-87 1303.78,-75.63 1305.38,-66.09 1296,-56 1257.47,-14.57 865.52,-10.83 725.99,-10.82"/>
<polygon fill="midnightblue" stroke="midnightblue" points="725.61,-7.32 715.61,-10.83 725.61,-14.32 725.61,-7.32"/>
</g>
<!-- Node7&#45;&gt;Node3 -->
<g id="edge31" class="edge">
<title>Node7&#45;&gt;Node3</title>
<path fill="none" stroke="midnightblue" d="M1239.56,-131.44C1473.55,-129.03 2330.18,-118.22 2600,-87 2612.15,-85.59 2625.3,-83.21 2637,-80.77"/>
<polygon fill="midnightblue" stroke="midnightblue" points="2637.81,-84.18 2646.84,-78.64 2636.33,-77.33 2637.81,-84.18"/>
</g>
<!-- Node7&#45;&gt;Node5 -->
<g id="edge23" class="edge">
<title>Node7&#45;&gt;Node5</title>
<path fill="none" stroke="midnightblue" d="M1239.59,-130.94C1401.86,-127.68 1843.46,-116.21 1902,-87 1927.43,-74.31 1946.91,-46.78 1957.66,-28.57"/>
<polygon fill="midnightblue" stroke="midnightblue" points="1960.87,-30 1962.71,-19.57 1954.77,-26.58 1960.87,-30"/>
</g>
<!-- Node7&#45;&gt;Node6 -->
<g id="edge24" class="edge">
<title>Node7&#45;&gt;Node6</title>
<path fill="none" stroke="midnightblue" d="M1120.39,-132.18C926.97,-132.33 318.39,-129.34 127,-87 124.32,-86.41 121.59,-85.62 118.89,-84.73"/>
<polygon fill="midnightblue" stroke="midnightblue" points="120,-81.41 109.41,-81.12 117.51,-87.95 120,-81.41"/>
</g>
<!-- Node8 -->
<g id="node8" class="node">
<title>Node8</title>
<g id="a_node8"><a xlink:title=" ">
<polygon fill="white" stroke="#bfbfbf" points="1343,-62 1343,-81 1385,-81 1385,-62 1343,-62"/>
<text text-anchor="middle" x="1364" y="-69" font-family="Helvetica,sans-Serif" font-size="10.00">array</text>
</a>
</g>
</g>
<!-- Node7&#45;&gt;Node8 -->
<g id="edge8" class="edge">
<title>Node7&#45;&gt;Node8</title>
<path fill="none" stroke="midnightblue" d="M1211.4,-123.5C1241.76,-115.05 1288.92,-101.31 1329,-87 1330.86,-86.34 1332.76,-85.63 1334.67,-84.9"/>
<polygon fill="midnightblue" stroke="midnightblue" points="1336.15,-88.08 1344.14,-81.13 1333.56,-81.57 1336.15,-88.08"/>
</g>
<!-- Node9 -->
<g id="node9" class="node">
<title>Node9</title>
<g id="a_node9"><a xlink:title=" ">
<polygon fill="white" stroke="#bfbfbf" points="1403,-62 1403,-81 1513,-81 1513,-62 1403,-62"/>
<text text-anchor="middle" x="1458" y="-69" font-family="Helvetica,sans-Serif" font-size="10.00">nlohmann/json.hpp</text>
</a>
</g>
</g>
<!-- Node7&#45;&gt;Node9 -->
<g id="edge10" class="edge">
<title>Node7&#45;&gt;Node9</title>
<path fill="none" stroke="midnightblue" d="M1221.47,-123.48C1264.61,-114.57 1334.1,-100.08 1394,-87 1399.43,-85.81 1405.11,-84.56 1410.75,-83.29"/>
<polygon fill="midnightblue" stroke="midnightblue" points="1411.81,-86.64 1420.8,-81.03 1410.27,-79.81 1411.81,-86.64"/>
</g>
<!-- Node10 -->
<g id="node10" class="node">
<title>Node10</title>
<g id="a_node10"><a xlink:title=" ">
<polygon fill="white" stroke="#bfbfbf" points="1531,-62 1531,-81 1623,-81 1623,-62 1531,-62"/>
<text text-anchor="middle" x="1577" y="-69" font-family="Helvetica,sans-Serif" font-size="10.00">boost/array.hpp</text>
</a>
</g>
</g>
<!-- Node7&#45;&gt;Node10 -->
<g id="edge11" class="edge">
<title>Node7&#45;&gt;Node10</title>
<path fill="none" stroke="midnightblue" d="M1239.69,-126.47C1308.23,-119.58 1423.87,-106.31 1522,-87 1527.08,-86 1532.38,-84.8 1537.61,-83.53"/>
<polygon fill="midnightblue" stroke="midnightblue" points="1538.64,-86.88 1547.47,-81.02 1536.92,-80.09 1538.64,-86.88"/>
</g>
<!-- Node11 -->
<g id="node11" class="node">
<title>Node11</title>
<g id="a_node11"><a xlink:title=" ">
<polygon fill="white" stroke="#bfbfbf" points="1641.5,-62 1641.5,-81 1754.5,-81 1754.5,-62 1641.5,-62"/>
<text text-anchor="middle" x="1698" y="-69" font-family="Helvetica,sans-Serif" font-size="10.00">boost/bind/bind.hpp</text>
</a>
</g>
</g>
<!-- Node7&#45;&gt;Node11 -->
<g id="edge12" class="edge">
<title>Node7&#45;&gt;Node11</title>
<path fill="none" stroke="midnightblue" d="M1239.51,-128.3C1326.23,-122.41 1492.2,-109.24 1632,-87 1638.77,-85.92 1645.89,-84.58 1652.85,-83.15"/>
<polygon fill="midnightblue" stroke="midnightblue" points="1653.81,-86.53 1662.87,-81.02 1652.36,-79.68 1653.81,-86.53"/>
</g>
<!-- Node12 -->
<g id="node12" class="node">
<title>Node12</title>
<g id="a_node12"><a xlink:title=" ">
<polygon fill="white" stroke="#bfbfbf" points="1949,-62 1949,-81 2103,-81 2103,-62 1949,-62"/>
<text text-anchor="middle" x="2026" y="-69" font-family="Helvetica,sans-Serif" font-size="10.00">boost/bind/placeholders.hpp</text>
</a>
</g>
</g>
<!-- Node7&#45;&gt;Node12 -->
<g id="edge13" class="edge">
<title>Node7&#45;&gt;Node12</title>
<path fill="none" stroke="midnightblue" d="M1239.87,-130.43C1367.81,-126.65 1677.2,-115.15 1935,-87 1945.71,-85.83 1957.09,-84.27 1968.04,-82.61"/>
<polygon fill="midnightblue" stroke="midnightblue" points="1968.61,-86.06 1977.95,-81.06 1967.53,-79.15 1968.61,-86.06"/>
</g>
<!-- Node13 -->
<g id="node13" class="node">
<title>Node13</title>
<g id="a_node13"><a xlink:title=" ">
<polygon fill="white" stroke="#bfbfbf" points="2121.5,-62 2121.5,-81 2262.5,-81 2262.5,-62 2121.5,-62"/>
<text text-anchor="middle" x="2192" y="-69" font-family="Helvetica,sans-Serif" font-size="10.00">boost/numeric/odeint.hpp</text>
</a>
</g>
</g>
<!-- Node7&#45;&gt;Node13 -->
<g id="edge14" class="edge">
<title>Node7&#45;&gt;Node13</title>
<path fill="none" stroke="midnightblue" d="M1239.64,-131.82C1387.76,-130.8 1784.07,-124.47 2112,-87 2121.27,-85.94 2131.08,-84.46 2140.55,-82.85"/>
<polygon fill="midnightblue" stroke="midnightblue" points="2141.4,-86.26 2150.63,-81.06 2140.17,-79.36 2141.4,-86.26"/>
</g>
<!-- Node14 -->
<g id="node14" class="node">
<title>Node14</title>
<g id="a_node14"><a xlink:title=" ">
<polygon fill="white" stroke="#bfbfbf" points="2281,-62 2281,-81 2429,-81 2429,-62 2281,-62"/>
<text text-anchor="middle" x="2355" y="-69" font-family="Helvetica,sans-Serif" font-size="10.00">boost/numeric/interval.hpp</text>
</a>
</g>
</g>
<!-- Node7&#45;&gt;Node14 -->
<g id="edge15" class="edge">
<title>Node7&#45;&gt;Node14</title>
<path fill="none" stroke="midnightblue" d="M1239.69,-132.3C1404.53,-132.52 1879.83,-129.15 2272,-87 2281.93,-85.93 2292.46,-84.4 2302.57,-82.74"/>
<polygon fill="midnightblue" stroke="midnightblue" points="2303.24,-86.17 2312.5,-81.03 2302.05,-79.27 2303.24,-86.17"/>
</g>
<!-- Node15 -->
<g id="node15" class="node">
<title>Node15</title>
<g id="a_node15"><a xlink:title=" ">
<polygon fill="white" stroke="#bfbfbf" points="2447,-56.5 2447,-86.5 2591,-86.5 2591,-56.5 2447,-56.5"/>
<text text-anchor="start" x="2455" y="-74.5" font-family="Helvetica,sans-Serif" font-size="10.00">boost/numeric/odeint</text>
<text text-anchor="middle" x="2519" y="-63.5" font-family="Helvetica,sans-Serif" font-size="10.00">/stepper/runge_kutta4.hpp</text>
</a>
</g>
</g>
<!-- Node7&#45;&gt;Node15 -->
<g id="edge16" class="edge">
<title>Node7&#45;&gt;Node15</title>
<path fill="none" stroke="midnightblue" d="M1239.64,-130.99C1453.43,-127.18 2181.72,-112.68 2436.69,-87.01"/>
<polygon fill="midnightblue" stroke="midnightblue" points="2437.06,-90.49 2446.65,-85.97 2436.34,-83.53 2437.06,-90.49"/>
</g>
<!-- Node16 -->
<g id="node16" class="node">
<title>Node16</title>
<g id="a_node16"><a xlink:title=" ">
<polygon fill="white" stroke="#bfbfbf" points="136,-56.5 136,-86.5 252,-86.5 252,-56.5 136,-56.5"/>
<text text-anchor="start" x="144" y="-74.5" font-family="Helvetica,sans-Serif" font-size="10.00">boost/numeric/ublas</text>
<text text-anchor="middle" x="194" y="-63.5" font-family="Helvetica,sans-Serif" font-size="10.00">/matrix.hpp</text>
</a>
</g>
</g>
<!-- Node7&#45;&gt;Node16 -->
<g id="edge17" class="edge">
<title>Node7&#45;&gt;Node16</title>
<path fill="none" stroke="midnightblue" d="M1120.29,-132.46C974.93,-132.85 591.07,-129.52 262.21,-87"/>
<polygon fill="midnightblue" stroke="midnightblue" points="262.37,-83.49 252,-85.66 261.46,-90.43 262.37,-83.49"/>
</g>
<!-- Node17 -->
<g id="node17" class="node">
<title>Node17</title>
<g id="a_node17"><a xlink:title=" ">
<polygon fill="white" stroke="#bfbfbf" points="270,-56.5 270,-86.5 386,-86.5 386,-56.5 270,-56.5"/>
<text text-anchor="start" x="278" y="-74.5" font-family="Helvetica,sans-Serif" font-size="10.00">boost/numeric/ublas</text>
<text text-anchor="middle" x="328" y="-63.5" font-family="Helvetica,sans-Serif" font-size="10.00">/io.hpp</text>
</a>
</g>
</g>
<!-- Node7&#45;&gt;Node17 -->
<g id="edge18" class="edge">
<title>Node7&#45;&gt;Node17</title>
<path fill="none" stroke="midnightblue" d="M1120.12,-131.74C990,-130.49 671.73,-123.74 396.2,-87.01"/>
<polygon fill="midnightblue" stroke="midnightblue" points="396.38,-83.5 386.01,-85.63 395.45,-90.44 396.38,-83.5"/>
</g>
<!-- Node18 -->
<g id="node18" class="node">
<title>Node18</title>
<g id="a_node18"><a xlink:title=" ">
<polygon fill="white" stroke="#bfbfbf" points="404,-62 404,-81 582,-81 582,-62 404,-62"/>
<text text-anchor="middle" x="493" y="-69" font-family="Helvetica,sans-Serif" font-size="10.00">boost/math/tools/polynomial.hpp</text>
</a>
</g>
</g>
<!-- Node7&#45;&gt;Node18 -->
<g id="edge19" class="edge">
<title>Node7&#45;&gt;Node18</title>
<path fill="none" stroke="midnightblue" d="M1120.09,-128.82C1013.47,-122.86 783.88,-108.61 591,-87 579.63,-85.73 567.55,-84.14 555.9,-82.48"/>
<polygon fill="midnightblue" stroke="midnightblue" points="556.2,-78.99 545.81,-81.01 555.2,-85.91 556.2,-78.99"/>
</g>
<!-- Node19 -->
<g id="node19" class="node">
<title>Node19</title>
<g id="a_node19"><a xlink:title=" ">
<polygon fill="white" stroke="#bfbfbf" points="600,-62 600,-81 660,-81 660,-62 600,-62"/>
<text text-anchor="middle" x="630" y="-69" font-family="Helvetica,sans-Serif" font-size="10.00">iostream</text>
</a>
</g>
</g>
<!-- Node7&#45;&gt;Node19 -->
<g id="edge20" class="edge">
<title>Node7&#45;&gt;Node19</title>
<path fill="none" stroke="midnightblue" d="M1120.19,-131.89C1023.95,-130.57 829.28,-123.16 669,-87 665.93,-86.31 662.77,-85.43 659.65,-84.45"/>
<polygon fill="midnightblue" stroke="midnightblue" points="660.52,-81.05 649.93,-81.08 658.23,-87.66 660.52,-81.05"/>
</g>
<!-- Node20 -->
<g id="node20" class="node">
<title>Node20</title>
<g id="a_node20"><a xlink:title=" ">
<polygon fill="white" stroke="#bfbfbf" points="678,-62 678,-81 728,-81 728,-62 678,-62"/>
<text text-anchor="middle" x="703" y="-69" font-family="Helvetica,sans-Serif" font-size="10.00">stdio.h</text>
</a>
</g>
</g>
<!-- Node7&#45;&gt;Node20 -->
<g id="edge21" class="edge">
<title>Node7&#45;&gt;Node20</title>
<path fill="none" stroke="midnightblue" d="M1120.43,-131.4C1034.63,-129.32 871.87,-120.77 738,-87 735.49,-86.37 732.92,-85.58 730.38,-84.72"/>
<polygon fill="midnightblue" stroke="midnightblue" points="731.41,-81.37 720.82,-81.06 728.91,-87.9 731.41,-81.37"/>
</g>
<!-- Node21 -->
<g id="node21" class="node">
<title>Node21</title>
<g id="a_node21"><a xlink:title=" ">
<polygon fill="white" stroke="#bfbfbf" points="746.5,-62 746.5,-81 799.5,-81 799.5,-62 746.5,-62"/>
<text text-anchor="middle" x="773" y="-69" font-family="Helvetica,sans-Serif" font-size="10.00">stdlib.h</text>
</a>
</g>
</g>
<!-- Node7&#45;&gt;Node21 -->
<g id="edge22" class="edge">
<title>Node7&#45;&gt;Node21</title>
<path fill="none" stroke="midnightblue" d="M1120.32,-129.57C1046.27,-125.47 916.61,-114.68 809,-87 806.49,-86.35 803.92,-85.57 801.36,-84.72"/>
<polygon fill="midnightblue" stroke="midnightblue" points="802.34,-81.34 791.74,-81.13 799.89,-87.9 802.34,-81.34"/>
</g>
<!-- Node22 -->
<g id="node22" class="node">
<title>Node22</title>
<g id="a_node22"><a xlink:title=" ">
<polygon fill="white" stroke="#bfbfbf" points="818,-62 818,-81 866,-81 866,-62 818,-62"/>
<text text-anchor="middle" x="842" y="-69" font-family="Helvetica,sans-Serif" font-size="10.00">time.h</text>
</a>
</g>
</g>
<!-- Node7&#45;&gt;Node22 -->
<g id="edge25" class="edge">
<title>Node7&#45;&gt;Node22</title>
<path fill="none" stroke="midnightblue" d="M1120.25,-127.93C1058.02,-122.6 958.2,-110.95 875,-87 872.85,-86.38 870.66,-85.65 868.47,-84.86"/>
<polygon fill="midnightblue" stroke="midnightblue" points="869.73,-81.59 859.15,-81.07 867.09,-88.07 869.73,-81.59"/>
</g>
<!-- Node23 -->
<g id="node23" class="node">
<title>Node23</title>
<g id="a_node23"><a xlink:title=" ">
<polygon fill="white" stroke="#bfbfbf" points="884,-62 884,-81 928,-81 928,-62 884,-62"/>
<text text-anchor="middle" x="906" y="-69" font-family="Helvetica,sans-Serif" font-size="10.00">ctime</text>
</a>
</g>
</g>
<!-- Node7&#45;&gt;Node23 -->
<g id="edge26" class="edge">
<title>Node7&#45;&gt;Node23</title>
<path fill="none" stroke="midnightblue" d="M1120.29,-125.25C1070.45,-118.6 997.98,-106.55 937,-87 935.33,-86.46 933.63,-85.86 931.93,-85.21"/>
<polygon fill="midnightblue" stroke="midnightblue" points="932.99,-81.85 922.42,-81.13 930.23,-88.28 932.99,-81.85"/>
</g>
<!-- Node24 -->
<g id="node24" class="node">
<title>Node24</title>
<g id="a_node24"><a xlink:title=" ">
<polygon fill="white" stroke="#bfbfbf" points="946,-62 946,-81 1002,-81 1002,-62 946,-62"/>
<text text-anchor="middle" x="974" y="-69" font-family="Helvetica,sans-Serif" font-size="10.00">iomanip</text>
</a>
</g>
</g>
<!-- Node7&#45;&gt;Node24 -->
<g id="edge27" class="edge">
<title>Node7&#45;&gt;Node24</title>
<path fill="none" stroke="midnightblue" d="M1143.97,-123.49C1109.73,-115.13 1056.96,-101.56 1012,-87 1009.59,-86.22 1007.11,-85.37 1004.62,-84.49"/>
<polygon fill="midnightblue" stroke="midnightblue" points="1005.76,-81.18 995.17,-81.02 1003.35,-87.75 1005.76,-81.18"/>
</g>
<!-- Node25 -->
<g id="node25" class="node">
<title>Node25</title>
<g id="a_node25"><a xlink:title=" ">
<polygon fill="white" stroke="#bfbfbf" points="1020.5,-62 1020.5,-81 1075.5,-81 1075.5,-62 1020.5,-62"/>
<text text-anchor="middle" x="1048" y="-69" font-family="Helvetica,sans-Serif" font-size="10.00">fstream</text>
</a>
</g>
</g>
<!-- Node7&#45;&gt;Node25 -->
<g id="edge28" class="edge">
<title>Node7&#45;&gt;Node25</title>
<path fill="none" stroke="midnightblue" d="M1161.09,-123.48C1138.84,-113.45 1101.69,-96.7 1076.07,-85.15"/>
<polygon fill="midnightblue" stroke="midnightblue" points="1077.43,-81.93 1066.88,-81.01 1074.56,-88.31 1077.43,-81.93"/>
</g>
<!-- Node26 -->
<g id="node26" class="node">
<title>Node26</title>
<g id="a_node26"><a xlink:title=" ">
<polygon fill="white" stroke="#bfbfbf" points="1094,-62 1094,-81 1138,-81 1138,-62 1094,-62"/>
<text text-anchor="middle" x="1116" y="-69" font-family="Helvetica,sans-Serif" font-size="10.00">string</text>
</a>
</g>
</g>
<!-- Node7&#45;&gt;Node26 -->
<g id="edge29" class="edge">
<title>Node7&#45;&gt;Node26</title>
<path fill="none" stroke="midnightblue" d="M1170.83,-123.48C1160.85,-114.2 1144.69,-99.17 1132.49,-87.83"/>
<polygon fill="midnightblue" stroke="midnightblue" points="1134.86,-85.25 1125.15,-81.01 1130.09,-90.38 1134.86,-85.25"/>
</g>
<!-- Node27 -->
<g id="node27" class="node">
<title>Node27</title>
<g id="a_node27"><a xlink:title=" ">
<polygon fill="white" stroke="#bfbfbf" points="1156.5,-62 1156.5,-81 1203.5,-81 1203.5,-62 1156.5,-62"/>
<text text-anchor="middle" x="1180" y="-69" font-family="Helvetica,sans-Serif" font-size="10.00">vector</text>
</a>
</g>
</g>
<!-- Node7&#45;&gt;Node27 -->
<g id="edge30" class="edge">
<title>Node7&#45;&gt;Node27</title>
<path fill="none" stroke="midnightblue" d="M1180,-123.48C1180,-115.08 1180,-101.98 1180,-91.16"/>
<polygon fill="midnightblue" stroke="midnightblue" points="1183.5,-91.01 1180,-81.01 1176.5,-91.01 1183.5,-91.01"/>
</g>
<!-- Node28 -->
<g id="node28" class="node">
<title>Node28</title>
<g id="a_node28"><a xlink:title=" ">
<polygon fill="white" stroke="#bfbfbf" points="1221.5,-62 1221.5,-81 1286.5,-81 1286.5,-62 1221.5,-62"/>
<text text-anchor="middle" x="1254" y="-69" font-family="Helvetica,sans-Serif" font-size="10.00">functional</text>
</a>
</g>
</g>
<!-- Node7&#45;&gt;Node28 -->
<g id="edge32" class="edge">
<title>Node7&#45;&gt;Node28</title>
<path fill="none" stroke="midnightblue" d="M1190.6,-123.48C1202.25,-114.11 1221.19,-98.88 1235.33,-87.51"/>
<polygon fill="midnightblue" stroke="midnightblue" points="1237.82,-90 1243.42,-81.01 1233.43,-84.55 1237.82,-90"/>
</g>
<!-- Node29 -->
<g id="node29" class="node">
<title>Node29</title>
<g id="a_node29"><a xlink:href="continuous__lyapunov__equation_8hpp.html" target="_top" xlink:title="The following code uses a different convention from MATLAB.">
<polygon fill="white" stroke="black" points="1773,-56.5 1773,-86.5 1893,-86.5 1893,-56.5 1773,-56.5"/>
<text text-anchor="start" x="1781" y="-74.5" font-family="Helvetica,sans-Serif" font-size="10.00">continuous_lyapunov</text>
<text text-anchor="middle" x="1833" y="-63.5" font-family="Helvetica,sans-Serif" font-size="10.00">_equation.hpp</text>
</a>
</g>
</g>
<!-- Node7&#45;&gt;Node29 -->
<g id="edge33" class="edge">
<title>Node7&#45;&gt;Node29</title>
<path fill="none" stroke="midnightblue" d="M1239.55,-129.97C1343.74,-125.87 1565.95,-114.62 1762.92,-87.03"/>
<polygon fill="midnightblue" stroke="midnightblue" points="1763.46,-90.49 1772.87,-85.62 1762.48,-83.56 1763.46,-90.49"/>
</g>
<!-- Node29&#45;&gt;Node2 -->
<g id="edge34" class="edge">
<title>Node29&#45;&gt;Node2</title>
<path fill="none" stroke="midnightblue" d="M1772.89,-57.26C1769.89,-56.79 1766.92,-56.36 1764,-56 1558.78,-30.37 909.19,-15.66 725.7,-11.94"/>
<polygon fill="midnightblue" stroke="midnightblue" points="725.61,-8.44 715.55,-11.74 725.47,-15.44 725.61,-8.44"/>
</g>
<!-- Node29&#45;&gt;Node5 -->
<g id="edge36" class="edge">
<title>Node29&#45;&gt;Node5</title>
<path fill="none" stroke="midnightblue" d="M1864.76,-56.4C1887.04,-46.51 1916.59,-33.38 1938.19,-23.79"/>
<polygon fill="midnightblue" stroke="midnightblue" points="1939.78,-26.91 1947.5,-19.66 1936.94,-20.52 1939.78,-26.91"/>
</g>
<!-- Node30 -->
<g id="node30" class="node">
<title>Node30</title>
<g id="a_node30"><a xlink:title=" ">
<polygon fill="white" stroke="#bfbfbf" points="1724.5,-0.5 1724.5,-19.5 1785.5,-19.5 1785.5,-0.5 1724.5,-0.5"/>
<text text-anchor="middle" x="1755" y="-7.5" font-family="Helvetica,sans-Serif" font-size="10.00">Eigen/QR</text>
</a>
</g>
</g>
<!-- Node29&#45;&gt;Node30 -->
<g id="edge35" class="edge">
<title>Node29&#45;&gt;Node30</title>
<path fill="none" stroke="midnightblue" d="M1814.52,-56.4C1802.48,-47.22 1786.8,-35.26 1774.56,-25.92"/>
<polygon fill="midnightblue" stroke="midnightblue" points="1776.42,-22.94 1766.35,-19.66 1772.18,-28.51 1776.42,-22.94"/>
</g>
<!-- Node31 -->
<g id="node31" class="node">
<title>Node31</title>
<g id="a_node31"><a xlink:title=" ">
<polygon fill="white" stroke="#bfbfbf" points="1803.5,-0.5 1803.5,-19.5 1862.5,-19.5 1862.5,-0.5 1803.5,-0.5"/>
<text text-anchor="middle" x="1833" y="-7.5" font-family="Helvetica,sans-Serif" font-size="10.00">complex</text>
</a>
</g>
</g>
<!-- Node29&#45;&gt;Node31 -->
<g id="edge37" class="edge">
<title>Node29&#45;&gt;Node31</title>
<path fill="none" stroke="midnightblue" d="M1833,-56.4C1833,-48.47 1833,-38.46 1833,-29.86"/>
<polygon fill="midnightblue" stroke="midnightblue" points="1836.5,-29.66 1833,-19.66 1829.5,-29.66 1836.5,-29.66"/>
</g>
<!-- Node32 -->
<g id="node32" class="node">
<title>Node32</title>
<g id="a_node32"><a xlink:title=" ">
<polygon fill="white" stroke="#bfbfbf" points="1881,-0.5 1881,-19.5 1925,-19.5 1925,-0.5 1881,-0.5"/>
<text text-anchor="middle" x="1903" y="-7.5" font-family="Helvetica,sans-Serif" font-size="10.00">limits</text>
</a>
</g>
</g>
<!-- Node29&#45;&gt;Node32 -->
<g id="edge38" class="edge">
<title>Node29&#45;&gt;Node32</title>
<path fill="none" stroke="midnightblue" d="M1849.59,-56.4C1860.29,-47.31 1874.19,-35.49 1885.13,-26.19"/>
<polygon fill="midnightblue" stroke="midnightblue" points="1887.46,-28.8 1892.81,-19.66 1882.93,-23.47 1887.46,-28.8"/>
</g>
<!-- Node33 -->
<g id="node33" class="node">
<title>Node33</title>
<g id="a_node33"><a xlink:title=" ">
<polygon fill="white" stroke="#bfbfbf" points="1641.5,-0.5 1641.5,-19.5 1706.5,-19.5 1706.5,-0.5 1641.5,-0.5"/>
<text text-anchor="middle" x="1674" y="-7.5" font-family="Helvetica,sans-Serif" font-size="10.00">stdexcept</text>
</a>
</g>
</g>
<!-- Node29&#45;&gt;Node33 -->
<g id="edge39" class="edge">
<title>Node29&#45;&gt;Node33</title>
<path fill="none" stroke="midnightblue" d="M1795.32,-56.4C1768.4,-46.33 1732.55,-32.91 1706.81,-23.28"/>
<polygon fill="midnightblue" stroke="midnightblue" points="1707.73,-19.88 1697.14,-19.66 1705.27,-26.44 1707.73,-19.88"/>
</g>
<!-- Node34&#45;&gt;Node4 -->
<g id="edge41" class="edge">
<title>Node34&#45;&gt;Node4</title>
<path fill="none" stroke="midnightblue" d="M90,-235.32C98.19,-227.42 110.51,-215.55 120.47,-205.94"/>
<polygon fill="midnightblue" stroke="midnightblue" points="123.07,-208.29 127.84,-198.83 118.21,-203.26 123.07,-208.29"/>
</g>
</g>
</svg>
