<?xml version="1.0" encoding="UTF-8" standalone="no"?>
<!DOCTYPE svg PUBLIC "-//W3C//DTD SVG 1.1//EN"
 "http://www.w3.org/Graphics/SVG/1.1/DTD/svg11.dtd">
<!-- Generated by graphviz version 2.43.0 (0)
 -->
<!-- Title: ACSL&#45;flightstack&#45;winged/src/acsl_flight/include/control/platforms/qrbp/control_algorithms/PID/PID_logger.hpp Pages: 1 -->
<svg width="391pt" height="250pt"
 viewBox="0.00 0.00 391.00 250.00" xmlns="http://www.w3.org/2000/svg" xmlns:xlink="http://www.w3.org/1999/xlink">
<g id="graph0" class="graph" transform="scale(1 1) rotate(0) translate(4 246)">
<title>ACSL&#45;flightstack&#45;winged/src/acsl_flight/include/control/platforms/qrbp/control_algorithms/PID/PID_logger.hpp</title>
<polygon fill="white" stroke="transparent" points="-4,4 -4,-246 387,-246 387,4 -4,4"/>
<!-- Node1 -->
<g id="node1" class="node">
<title>Node1</title>
<g id="a_node1"><a xlink:title="logging for the PID controller">
<polygon fill="#bfbfbf" stroke="black" points="116,-178.5 116,-241.5 266,-241.5 266,-178.5 116,-178.5"/>
<text text-anchor="start" x="124" y="-229.5" font-family="Helvetica,sans-Serif" font-size="10.00">ACSL&#45;flightstack&#45;winged</text>
<text text-anchor="start" x="124" y="-218.5" font-family="Helvetica,sans-Serif" font-size="10.00">/src/acsl_flight/include</text>
<text text-anchor="start" x="124" y="-207.5" font-family="Helvetica,sans-Serif" font-size="10.00">/control/platforms/qrbp</text>
<text text-anchor="start" x="124" y="-196.5" font-family="Helvetica,sans-Serif" font-size="10.00">/control_algorithms/PID/PID</text>
<text text-anchor="middle" x="191" y="-185.5" font-family="Helvetica,sans-Serif" font-size="10.00">_logger.hpp</text>
</a>
</g>
</g>
<!-- Node2 -->
<g id="node2" class="node">
<title>Node2</title>
<g id="a_node2"><a xlink:href="PID_8hpp.html" target="_top" xlink:title="PID for the QRBP.">
<polygon fill="white" stroke="black" points="7.5,-89.5 7.5,-141.5 178.5,-141.5 178.5,-89.5 7.5,-89.5"/>
<text text-anchor="start" x="15.5" y="-129.5" font-family="Helvetica,sans-Serif" font-size="10.00">ACSL&#45;flightstack&#45;winged</text>
<text text-anchor="start" x="15.5" y="-118.5" font-family="Helvetica,sans-Serif" font-size="10.00">/src/acsl_flight/include</text>
<text text-anchor="start" x="15.5" y="-107.5" font-family="Helvetica,sans-Serif" font-size="10.00">/control/platforms/qrbp</text>
<text text-anchor="middle" x="93" y="-96.5" font-family="Helvetica,sans-Serif" font-size="10.00">/control_algorithms/PID/PID.hpp</text>
</a>
</g>
</g>
<!-- Node1&#45;&gt;Node2 -->
<g id="edge1" class="edge">
<title>Node1&#45;&gt;Node2</title>
<path fill="none" stroke="midnightblue" d="M151.1,-171.33C140.55,-161.38 129.43,-150.88 119.77,-141.77"/>
<polygon fill="midnightblue" stroke="midnightblue" points="148.96,-174.14 158.64,-178.46 153.77,-169.05 148.96,-174.14"/>
</g>
<!-- Node4 -->
<g id="node4" class="node">
<title>Node4</title>
<g id="a_node4"><a xlink:href="PID__logger_8cpp.html" target="_top" xlink:title="logging for the PID controller.">
<polygon fill="white" stroke="black" points="197,-89.5 197,-141.5 383,-141.5 383,-89.5 197,-89.5"/>
<text text-anchor="start" x="205" y="-129.5" font-family="Helvetica,sans-Serif" font-size="10.00">ACSL&#45;flightstack&#45;winged</text>
<text text-anchor="start" x="205" y="-118.5" font-family="Helvetica,sans-Serif" font-size="10.00">/src/acsl_flight/src/control</text>
<text text-anchor="start" x="205" y="-107.5" font-family="Helvetica,sans-Serif" font-size="10.00">/platforms/qrbp/control_algorithms</text>
<text text-anchor="middle" x="290" y="-96.5" font-family="Helvetica,sans-Serif" font-size="10.00">/PID/PID_logger.cpp</text>
</a>
</g>
</g>
<!-- Node1&#45;&gt;Node4 -->
<g id="edge3" class="edge">
<title>Node1&#45;&gt;Node4</title>
<path fill="none" stroke="midnightblue" d="M231,-171.62C241.74,-161.59 253.1,-150.97 262.96,-141.77"/>
<polygon fill="midnightblue" stroke="midnightblue" points="228.61,-169.07 223.69,-178.46 233.39,-174.19 228.61,-169.07"/>
</g>
<!-- Node3 -->
<g id="node3" class="node">
<title>Node3</title>
<g id="a_node3"><a xlink:href="PID_8cpp.html" target="_top" xlink:title="PID for the QRBP Inherts the class controller_base for the basic functionality that is to be used for...">
<polygon fill="white" stroke="black" points="0,-0.5 0,-52.5 186,-52.5 186,-0.5 0,-0.5"/>
<text text-anchor="start" x="8" y="-40.5" font-family="Helvetica,sans-Serif" font-size="10.00">ACSL&#45;flightstack&#45;winged</text>
<text text-anchor="start" x="8" y="-29.5" font-family="Helvetica,sans-Serif" font-size="10.00">/src/acsl_flight/src/control</text>
<text text-anchor="start" x="8" y="-18.5" font-family="Helvetica,sans-Serif" font-size="10.00">/platforms/qrbp/control_algorithms</text>
<text text-anchor="middle" x="93" y="-7.5" font-family="Helvetica,sans-Serif" font-size="10.00">/PID/PID.cpp</text>
</a>
</g>
</g>
<!-- Node2&#45;&gt;Node3 -->
<g id="edge2" class="edge">
<title>Node2&#45;&gt;Node3</title>
<path fill="none" stroke="midnightblue" d="M93,-79.19C93,-70.28 93,-60.9 93,-52.61"/>
<polygon fill="midnightblue" stroke="midnightblue" points="89.5,-79.34 93,-89.34 96.5,-79.34 89.5,-79.34"/>
</g>
</g>
</svg>
