<?xml version="1.0" encoding="UTF-8" standalone="no"?>
<!DOCTYPE svg PUBLIC "-//W3C//DTD SVG 1.1//EN"
 "http://www.w3.org/Graphics/SVG/1.1/DTD/svg11.dtd">
<!-- Generated by graphviz version 2.43.0 (0)
 -->
<!-- Title: ACSL&#45;flightstack&#45;winged/src/acsl_flight/include/control/platforms/qrbp/control_algorithms/PID/PID.hpp Pages: 1 -->
<svg width="194pt" height="150pt"
 viewBox="0.00 0.00 194.00 150.00" xmlns="http://www.w3.org/2000/svg" xmlns:xlink="http://www.w3.org/1999/xlink">
<g id="graph0" class="graph" transform="scale(1 1) rotate(0) translate(4 146)">
<title>ACSL&#45;flightstack&#45;winged/src/acsl_flight/include/control/platforms/qrbp/control_algorithms/PID/PID.hpp</title>
<polygon fill="white" stroke="transparent" points="-4,4 -4,-146 190,-146 190,4 -4,4"/>
<!-- Node1 -->
<g id="node1" class="node">
<title>Node1</title>
<g id="a_node1"><a xlink:title="PID for the QRBP.">
<polygon fill="#bfbfbf" stroke="black" points="7.5,-89.5 7.5,-141.5 178.5,-141.5 178.5,-89.5 7.5,-89.5"/>
<text text-anchor="start" x="15.5" y="-129.5" font-family="Helvetica,sans-Serif" font-size="10.00">ACSL&#45;flightstack&#45;winged</text>
<text text-anchor="start" x="15.5" y="-118.5" font-family="Helvetica,sans-Serif" font-size="10.00">/src/acsl_flight/include</text>
<text text-anchor="start" x="15.5" y="-107.5" font-family="Helvetica,sans-Serif" font-size="10.00">/control/platforms/qrbp</text>
<text text-anchor="middle" x="93" y="-96.5" font-family="Helvetica,sans-Serif" font-size="10.00">/control_algorithms/PID/PID.hpp</text>
</a>
</g>
</g>
<!-- Node2 -->
<g id="node2" class="node">
<title>Node2</title>
<g id="a_node2"><a xlink:href="PID_8cpp.html" target="_top" xlink:title="PID for the QRBP Inherts the class controller_base for the basic functionality that is to be used for...">
<polygon fill="white" stroke="black" points="0,-0.5 0,-52.5 186,-52.5 186,-0.5 0,-0.5"/>
<text text-anchor="start" x="8" y="-40.5" font-family="Helvetica,sans-Serif" font-size="10.00">ACSL&#45;flightstack&#45;winged</text>
<text text-anchor="start" x="8" y="-29.5" font-family="Helvetica,sans-Serif" font-size="10.00">/src/acsl_flight/src/control</text>
<text text-anchor="start" x="8" y="-18.5" font-family="Helvetica,sans-Serif" font-size="10.00">/platforms/qrbp/control_algorithms</text>
<text text-anchor="middle" x="93" y="-7.5" font-family="Helvetica,sans-Serif" font-size="10.00">/PID/PID.cpp</text>
</a>
</g>
</g>
<!-- Node1&#45;&gt;Node2 -->
<g id="edge1" class="edge">
<title>Node1&#45;&gt;Node2</title>
<path fill="none" stroke="midnightblue" d="M93,-79.19C93,-70.28 93,-60.9 93,-52.61"/>
<polygon fill="midnightblue" stroke="midnightblue" points="89.5,-79.34 93,-89.34 96.5,-79.34 89.5,-79.34"/>
</g>
</g>
</svg>
