<?xml version="1.0" encoding="UTF-8" standalone="no"?>
<!DOCTYPE svg PUBLIC "-//W3C//DTD SVG 1.1//EN"
 "http://www.w3.org/Graphics/SVG/1.1/DTD/svg11.dtd">
<!-- Generated by graphviz version 2.43.0 (0)
 -->
<!-- Title: ACSL&#45;flightstack&#45;winged/src/acsl_flight/include/control/platforms/qrbp/control_algorithms/PID_OMEGA/PID_OMEGA.hpp Pages: 1 -->
<svg width="3710pt" height="497pt"
 viewBox="0.00 0.00 3709.72 497.00" xmlns="http://www.w3.org/2000/svg" xmlns:xlink="http://www.w3.org/1999/xlink">
<g id="graph0" class="graph" transform="scale(1 1) rotate(0) translate(4 493)">
<title>ACSL&#45;flightstack&#45;winged/src/acsl_flight/include/control/platforms/qrbp/control_algorithms/PID_OMEGA/PID_OMEGA.hpp</title>
<polygon fill="white" stroke="transparent" points="-4,4 -4,-493 3705.72,-493 3705.72,4 -4,4"/>
<!-- Node1 -->
<g id="node1" class="node">
<title>Node1</title>
<g id="a_node1"><a xlink:title="PID with angular veocities for the QRBP.">
<polygon fill="#bfbfbf" stroke="black" points="2426.72,-425.5 2426.72,-488.5 2599.72,-488.5 2599.72,-425.5 2426.72,-425.5"/>
<text text-anchor="start" x="2434.72" y="-476.5" font-family="Helvetica,sans-Serif" font-size="10.00">ACSL&#45;flightstack&#45;winged</text>
<text text-anchor="start" x="2434.72" y="-465.5" font-family="Helvetica,sans-Serif" font-size="10.00">/src/acsl_flight/include</text>
<text text-anchor="start" x="2434.72" y="-454.5" font-family="Helvetica,sans-Serif" font-size="10.00">/control/platforms/qrbp</text>
<text text-anchor="start" x="2434.72" y="-443.5" font-family="Helvetica,sans-Serif" font-size="10.00">/control_algorithms/PID_OMEGA</text>
<text text-anchor="middle" x="2513.22" y="-432.5" font-family="Helvetica,sans-Serif" font-size="10.00">/PID_OMEGA.hpp</text>
</a>
</g>
</g>
<!-- Node2 -->
<g id="node2" class="node">
<title>Node2</title>
<g id="a_node2"><a xlink:href="control__algorithm__base_8hpp.html" target="_top" xlink:title="Utilities for Controller Base Definition.">
<polygon fill="white" stroke="black" points="2216.22,-252 2216.22,-271 2368.22,-271 2368.22,-252 2216.22,-252"/>
<text text-anchor="middle" x="2292.22" y="-259" font-family="Helvetica,sans-Serif" font-size="10.00">control_algorithm_base.hpp</text>
</a>
</g>
</g>
<!-- Node1&#45;&gt;Node2 -->
<g id="edge1" class="edge">
<title>Node1&#45;&gt;Node2</title>
<path fill="none" stroke="midnightblue" d="M2478.2,-425.34C2430.43,-383.51 2346.59,-310.11 2310.07,-278.13"/>
<polygon fill="midnightblue" stroke="midnightblue" points="2312.07,-275.23 2302.24,-271.27 2307.46,-280.49 2312.07,-275.23"/>
</g>
<!-- Node44 -->
<g id="node38" class="node">
<title>Node44</title>
<g id="a_node38"><a xlink:href="PID__OMEGA__members_8hpp.html" target="_top" xlink:title="PID with angular velocities controller class members.">
<polygon fill="white" stroke="black" points="2552.22,-313.5 2552.22,-332.5 2700.22,-332.5 2700.22,-313.5 2552.22,-313.5"/>
<text text-anchor="middle" x="2626.22" y="-320.5" font-family="Helvetica,sans-Serif" font-size="10.00">PID_OMEGA_members.hpp</text>
</a>
</g>
</g>
<!-- Node1&#45;&gt;Node44 -->
<g id="edge47" class="edge">
<title>Node1&#45;&gt;Node44</title>
<path fill="none" stroke="midnightblue" d="M2539.43,-425.38C2562.12,-398.88 2594.07,-361.56 2612.2,-340.38"/>
<polygon fill="midnightblue" stroke="midnightblue" points="2615.01,-342.48 2618.85,-332.61 2609.69,-337.93 2615.01,-342.48"/>
</g>
<!-- Node47 -->
<g id="node41" class="node">
<title>Node47</title>
<g id="a_node41"><a xlink:href="PID__OMEGA__logger_8hpp.html" target="_top" xlink:title="Logger for the PID controller.">
<polygon fill="white" stroke="black" points="2636.72,-369.5 2636.72,-388.5 2767.72,-388.5 2767.72,-369.5 2636.72,-369.5"/>
<text text-anchor="middle" x="2702.22" y="-376.5" font-family="Helvetica,sans-Serif" font-size="10.00">PID_OMEGA_logger.hpp</text>
</a>
</g>
</g>
<!-- Node1&#45;&gt;Node47 -->
<g id="edge57" class="edge">
<title>Node1&#45;&gt;Node47</title>
<path fill="none" stroke="midnightblue" d="M2589.28,-425.42C2617.92,-413.9 2648.92,-401.44 2671.18,-392.48"/>
<polygon fill="midnightblue" stroke="midnightblue" points="2672.78,-395.61 2680.75,-388.63 2670.17,-389.12 2672.78,-395.61"/>
</g>
<!-- Node71 -->
<g id="node49" class="node">
<title>Node71</title>
<g id="a_node49"><a xlink:href="piecewise__polynomial__trajectory_8hpp.html" target="_top" xlink:title="Header file for piecewise polynomial trajectory.">
<polygon fill="white" stroke="black" points="2424.72,-246.5 2424.72,-276.5 2549.72,-276.5 2549.72,-246.5 2424.72,-246.5"/>
<text text-anchor="start" x="2432.72" y="-264.5" font-family="Helvetica,sans-Serif" font-size="10.00">piecewise_polynomial</text>
<text text-anchor="middle" x="2487.22" y="-253.5" font-family="Helvetica,sans-Serif" font-size="10.00">_trajectory.hpp</text>
</a>
</g>
</g>
<!-- Node1&#45;&gt;Node71 -->
<g id="edge73" class="edge">
<title>Node1&#45;&gt;Node71</title>
<path fill="none" stroke="midnightblue" d="M2509.1,-425.34C2503.96,-387.07 2495.27,-322.37 2490.53,-287.15"/>
<polygon fill="midnightblue" stroke="midnightblue" points="2493.95,-286.26 2489.15,-276.82 2487.01,-287.19 2493.95,-286.26"/>
</g>
<!-- Node3 -->
<g id="node3" class="node">
<title>Node3</title>
<g id="a_node3"><a xlink:href="vehicle__class_8hpp.html" target="_top" xlink:title=" ">
<polygon fill="white" stroke="black" points="978.72,-123.5 978.72,-142.5 1081.72,-142.5 1081.72,-123.5 978.72,-123.5"/>
<text text-anchor="middle" x="1030.22" y="-130.5" font-family="Helvetica,sans-Serif" font-size="10.00">vehicle_class.hpp</text>
</a>
</g>
</g>
<!-- Node2&#45;&gt;Node3 -->
<g id="edge2" class="edge">
<title>Node2&#45;&gt;Node3</title>
<path fill="none" stroke="midnightblue" d="M2216.16,-253.08C2116,-243.3 1934.39,-225.51 1779.22,-210 1524.07,-184.5 1220.11,-153.45 1091.99,-140.33"/>
<polygon fill="midnightblue" stroke="midnightblue" points="1092.28,-136.84 1081.98,-139.31 1091.57,-143.81 1092.28,-136.84"/>
</g>
<!-- Node6 -->
<g id="node6" class="node">
<title>Node6</title>
<g id="a_node6"><a xlink:href="flight__params_8hpp.html" target="_top" xlink:title=" ">
<polygon fill="white" stroke="black" points="2313.22,-185 2313.22,-204 2417.22,-204 2417.22,-185 2313.22,-185"/>
<text text-anchor="middle" x="2365.22" y="-192" font-family="Helvetica,sans-Serif" font-size="10.00">flight_params.hpp</text>
</a>
</g>
</g>
<!-- Node2&#45;&gt;Node6 -->
<g id="edge5" class="edge">
<title>Node2&#45;&gt;Node6</title>
<path fill="none" stroke="midnightblue" d="M2302.07,-251.73C2313.78,-241.31 2333.54,-223.71 2347.85,-210.97"/>
<polygon fill="midnightblue" stroke="midnightblue" points="2350.39,-213.39 2355.53,-204.13 2345.74,-208.16 2350.39,-213.39"/>
</g>
<!-- Node19 -->
<g id="node17" class="node">
<title>Node19</title>
<g id="a_node17"><a xlink:href="helper__functions_8hpp.html" target="_top" xlink:title="Definitions of some standard templates used in all controllers.">
<polygon fill="white" stroke="black" points="1411.72,-123.5 1411.72,-142.5 1530.72,-142.5 1530.72,-123.5 1411.72,-123.5"/>
<text text-anchor="middle" x="1471.22" y="-130.5" font-family="Helvetica,sans-Serif" font-size="10.00">helper_functions.hpp</text>
</a>
</g>
</g>
<!-- Node2&#45;&gt;Node19 -->
<g id="edge18" class="edge">
<title>Node2&#45;&gt;Node19</title>
<path fill="none" stroke="midnightblue" d="M2236.76,-251.95C2090.3,-229.39 1693.72,-168.28 1536.6,-144.07"/>
<polygon fill="midnightblue" stroke="midnightblue" points="1537.02,-140.6 1526.6,-142.53 1535.95,-147.52 1537.02,-140.6"/>
</g>
<!-- Node4 -->
<g id="node4" class="node">
<title>Node4</title>
<g id="a_node4"><a xlink:title=" ">
<polygon fill="white" stroke="#bfbfbf" points="1005.22,-62 1005.22,-81 1055.22,-81 1055.22,-62 1005.22,-62"/>
<text text-anchor="middle" x="1030.22" y="-69" font-family="Helvetica,sans-Serif" font-size="10.00">atomic</text>
</a>
</g>
</g>
<!-- Node3&#45;&gt;Node4 -->
<g id="edge3" class="edge">
<title>Node3&#45;&gt;Node4</title>
<path fill="none" stroke="midnightblue" d="M1030.22,-123.48C1030.22,-115.08 1030.22,-101.98 1030.22,-91.16"/>
<polygon fill="midnightblue" stroke="midnightblue" points="1033.72,-91.01 1030.22,-81.01 1026.72,-91.01 1033.72,-91.01"/>
</g>
<!-- Node5 -->
<g id="node5" class="node">
<title>Node5</title>
<g id="a_node5"><a xlink:title=" ">
<polygon fill="white" stroke="#bfbfbf" points="34.72,-0.5 34.72,-19.5 81.72,-19.5 81.72,-0.5 34.72,-0.5"/>
<text text-anchor="middle" x="58.22" y="-7.5" font-family="Helvetica,sans-Serif" font-size="10.00">cmath</text>
</a>
</g>
</g>
<!-- Node3&#45;&gt;Node5 -->
<g id="edge4" class="edge">
<title>Node3&#45;&gt;Node5</title>
<path fill="none" stroke="midnightblue" d="M978.4,-131.65C777.09,-130.03 56.5,-121.8 23.22,-87 6.83,-69.86 25.59,-43.67 41.32,-26.94"/>
<polygon fill="midnightblue" stroke="midnightblue" points="44.08,-29.13 48.64,-19.57 39.11,-24.2 44.08,-29.13"/>
</g>
<!-- Node7 -->
<g id="node7" class="node">
<title>Node7</title>
<g id="a_node7"><a xlink:title=" ">
<polygon fill="white" stroke="#bfbfbf" points="2293.22,-62 2293.22,-81 2337.22,-81 2337.22,-62 2293.22,-62"/>
<text text-anchor="middle" x="2315.22" y="-69" font-family="Helvetica,sans-Serif" font-size="10.00">string</text>
</a>
</g>
</g>
<!-- Node6&#45;&gt;Node7 -->
<g id="edge6" class="edge">
<title>Node6&#45;&gt;Node7</title>
<path fill="none" stroke="midnightblue" d="M2364.12,-184.95C2362.17,-171.38 2357.41,-144.27 2348.22,-123 2343.06,-111.05 2335.13,-98.8 2328.34,-89.36"/>
<polygon fill="midnightblue" stroke="midnightblue" points="2331.09,-87.19 2322.31,-81.27 2325.48,-91.38 2331.09,-87.19"/>
</g>
<!-- Node8 -->
<g id="node8" class="node">
<title>Node8</title>
<g id="a_node8"><a xlink:title=" ">
<polygon fill="white" stroke="#bfbfbf" points="2507.72,-62 2507.72,-81 2562.72,-81 2562.72,-62 2507.72,-62"/>
<text text-anchor="middle" x="2535.22" y="-69" font-family="Helvetica,sans-Serif" font-size="10.00">fstream</text>
</a>
</g>
</g>
<!-- Node6&#45;&gt;Node8 -->
<g id="edge7" class="edge">
<title>Node6&#45;&gt;Node8</title>
<path fill="none" stroke="midnightblue" d="M2376.96,-184.99C2395.31,-171.69 2431.95,-145.21 2463.22,-123 2480.54,-110.7 2500.3,-96.85 2514.73,-86.77"/>
<polygon fill="midnightblue" stroke="midnightblue" points="2516.76,-89.63 2522.96,-81.03 2512.76,-83.88 2516.76,-89.63"/>
</g>
<!-- Node9 -->
<g id="node9" class="node">
<title>Node9</title>
<g id="a_node9"><a xlink:title=" ">
<polygon fill="white" stroke="#bfbfbf" points="2165.22,-62 2165.22,-81 2275.22,-81 2275.22,-62 2165.22,-62"/>
<text text-anchor="middle" x="2220.22" y="-69" font-family="Helvetica,sans-Serif" font-size="10.00">nlohmann/json.hpp</text>
</a>
</g>
</g>
<!-- Node6&#45;&gt;Node9 -->
<g id="edge8" class="edge">
<title>Node6&#45;&gt;Node9</title>
<path fill="none" stroke="midnightblue" d="M2313.07,-191.48C2242.06,-187.51 2120.63,-175.96 2093.22,-143 2087.54,-136.16 2088.23,-130.36 2093.22,-123 2103.15,-108.36 2144.59,-93.65 2177.46,-83.91"/>
<polygon fill="midnightblue" stroke="midnightblue" points="2178.71,-87.19 2187.35,-81.05 2176.77,-80.47 2178.71,-87.19"/>
</g>
<!-- Node10 -->
<g id="node10" class="node">
<title>Node10</title>
<g id="a_node10"><a xlink:title=" ">
<polygon fill="white" stroke="#bfbfbf" points="2355.22,-62 2355.22,-81 2415.22,-81 2415.22,-62 2355.22,-62"/>
<text text-anchor="middle" x="2385.22" y="-69" font-family="Helvetica,sans-Serif" font-size="10.00">iostream</text>
</a>
</g>
</g>
<!-- Node6&#45;&gt;Node10 -->
<g id="edge9" class="edge">
<title>Node6&#45;&gt;Node10</title>
<path fill="none" stroke="midnightblue" d="M2368.74,-184.73C2372.55,-174.79 2378.46,-158.02 2381.22,-143 2384.4,-125.68 2385.28,-105.61 2385.43,-91.32"/>
<polygon fill="midnightblue" stroke="midnightblue" points="2388.93,-91.26 2385.42,-81.27 2381.93,-91.27 2388.93,-91.26"/>
</g>
<!-- Node11 -->
<g id="node11" class="node">
<title>Node11</title>
<g id="a_node11"><a xlink:title=" ">
<polygon fill="white" stroke="#bfbfbf" points="2101.72,-123.5 2101.72,-142.5 2150.72,-142.5 2150.72,-123.5 2101.72,-123.5"/>
<text text-anchor="middle" x="2126.22" y="-130.5" font-family="Helvetica,sans-Serif" font-size="10.00">cstdlib</text>
</a>
</g>
</g>
<!-- Node6&#45;&gt;Node11 -->
<g id="edge10" class="edge">
<title>Node6&#45;&gt;Node11</title>
<path fill="none" stroke="midnightblue" d="M2329.62,-184.93C2290.7,-175.51 2226.22,-159.78 2160.8,-143.11"/>
<polygon fill="midnightblue" stroke="midnightblue" points="2161.28,-139.62 2150.72,-140.54 2159.55,-146.41 2161.28,-139.62"/>
</g>
<!-- Node12 -->
<g id="node12" class="node">
<title>Node12</title>
<g id="a_node12"><a xlink:title=" ">
<polygon fill="white" stroke="#bfbfbf" points="2169.22,-123.5 2169.22,-142.5 2225.22,-142.5 2225.22,-123.5 2169.22,-123.5"/>
<text text-anchor="middle" x="2197.22" y="-130.5" font-family="Helvetica,sans-Serif" font-size="10.00">unistd.h</text>
</a>
</g>
</g>
<!-- Node6&#45;&gt;Node12 -->
<g id="edge11" class="edge">
<title>Node6&#45;&gt;Node12</title>
<path fill="none" stroke="midnightblue" d="M2341.15,-184.98C2312.21,-174.72 2263.46,-157.46 2230.82,-145.9"/>
<polygon fill="midnightblue" stroke="midnightblue" points="2231.84,-142.55 2221.25,-142.51 2229.51,-149.15 2231.84,-142.55"/>
</g>
<!-- Node13 -->
<g id="node13" class="node">
<title>Node13</title>
<g id="a_node13"><a xlink:href="px4__defines_8hpp.html" target="_top" xlink:title="Contains useful constant defines for use in the flight stack in a central location.">
<polygon fill="white" stroke="red" points="2243.22,-123.5 2243.22,-142.5 2339.22,-142.5 2339.22,-123.5 2243.22,-123.5"/>
<text text-anchor="middle" x="2291.22" y="-130.5" font-family="Helvetica,sans-Serif" font-size="10.00">px4_defines.hpp</text>
</a>
</g>
</g>
<!-- Node6&#45;&gt;Node13 -->
<g id="edge12" class="edge">
<title>Node6&#45;&gt;Node13</title>
<path fill="none" stroke="midnightblue" d="M2354.62,-184.98C2342.97,-175.61 2324.04,-160.38 2309.89,-149.01"/>
<polygon fill="midnightblue" stroke="midnightblue" points="2311.79,-146.05 2301.81,-142.51 2307.41,-151.5 2311.79,-146.05"/>
</g>
<!-- Node15 -->
<g id="node14" class="node">
<title>Node15</title>
<g id="a_node14"><a xlink:href="global__helpers_8hpp.html" target="_top" xlink:title="Inline functions for all the classes of the flighstack to use.">
<polygon fill="white" stroke="red" points="2471.72,-123.5 2471.72,-142.5 2580.72,-142.5 2580.72,-123.5 2471.72,-123.5"/>
<text text-anchor="middle" x="2526.22" y="-130.5" font-family="Helvetica,sans-Serif" font-size="10.00">global_helpers.hpp</text>
</a>
</g>
</g>
<!-- Node6&#45;&gt;Node15 -->
<g id="edge13" class="edge">
<title>Node6&#45;&gt;Node15</title>
<path fill="none" stroke="midnightblue" d="M2388.29,-184.98C2415.91,-174.77 2462.34,-157.61 2493.62,-146.05"/>
<polygon fill="midnightblue" stroke="midnightblue" points="2495.03,-149.26 2503.2,-142.51 2492.6,-142.69 2495.03,-149.26"/>
</g>
<!-- Node15&#45;&gt;Node7 -->
<g id="edge15" class="edge">
<title>Node15&#45;&gt;Node7</title>
<path fill="none" stroke="midnightblue" d="M2482.25,-123.48C2445.37,-115.76 2391.6,-103.12 2346.22,-87 2344.61,-86.43 2342.96,-85.8 2341.31,-85.13"/>
<polygon fill="midnightblue" stroke="midnightblue" points="2342.6,-81.87 2332.03,-81.08 2339.79,-88.29 2342.6,-81.87"/>
</g>
<!-- Node15&#45;&gt;Node10 -->
<g id="edge14" class="edge">
<title>Node15&#45;&gt;Node10</title>
<path fill="none" stroke="midnightblue" d="M2506.02,-123.48C2482.15,-113.4 2442.22,-96.55 2414.85,-85"/>
<polygon fill="midnightblue" stroke="midnightblue" points="2415.96,-81.67 2405.39,-81.01 2413.24,-88.12 2415.96,-81.67"/>
</g>
<!-- Node16 -->
<g id="node15" class="node">
<title>Node16</title>
<g id="a_node15"><a xlink:title=" ">
<polygon fill="white" stroke="#bfbfbf" points="2825.22,-62 2825.22,-81 2881.22,-81 2881.22,-62 2825.22,-62"/>
<text text-anchor="middle" x="2853.22" y="-69" font-family="Helvetica,sans-Serif" font-size="10.00">sstream</text>
</a>
</g>
</g>
<!-- Node15&#45;&gt;Node16 -->
<g id="edge16" class="edge">
<title>Node15&#45;&gt;Node16</title>
<path fill="none" stroke="midnightblue" d="M2580.95,-127.13C2639.81,-121.05 2735.8,-108.71 2816.22,-87 2818.82,-86.3 2821.48,-85.48 2824.13,-84.58"/>
<polygon fill="midnightblue" stroke="midnightblue" points="2825.34,-87.87 2833.52,-81.14 2822.93,-81.3 2825.34,-87.87"/>
</g>
<!-- Node18 -->
<g id="node16" class="node">
<title>Node18</title>
<g id="a_node16"><a xlink:title=" ">
<polygon fill="white" stroke="#bfbfbf" points="1508.72,-0.5 1508.72,-19.5 1585.72,-19.5 1585.72,-0.5 1508.72,-0.5"/>
<text text-anchor="middle" x="1547.22" y="-7.5" font-family="Helvetica,sans-Serif" font-size="10.00">Eigen/Dense</text>
</a>
</g>
</g>
<!-- Node15&#45;&gt;Node18 -->
<g id="edge17" class="edge">
<title>Node15&#45;&gt;Node18</title>
<path fill="none" stroke="midnightblue" d="M2538.17,-123.44C2557.7,-108.45 2592.38,-77.06 2572.22,-56 2538.12,-20.36 1795.44,-12.71 1596.1,-11.29"/>
<polygon fill="midnightblue" stroke="midnightblue" points="1595.95,-7.79 1585.93,-11.22 1595.9,-14.79 1595.95,-7.79"/>
</g>
<!-- Node19&#45;&gt;Node5 -->
<g id="edge34" class="edge">
<title>Node19&#45;&gt;Node5</title>
<path fill="none" stroke="midnightblue" d="M1411.64,-130.61C1155.66,-124.55 160.85,-100.22 131.22,-87 116.68,-80.51 88.15,-47.69 71.38,-27.36"/>
<polygon fill="midnightblue" stroke="midnightblue" points="74.03,-25.06 65,-19.52 68.6,-29.48 74.03,-25.06"/>
</g>
<!-- Node19&#45;&gt;Node7 -->
<g id="edge40" class="edge">
<title>Node19&#45;&gt;Node7</title>
<path fill="none" stroke="midnightblue" d="M1530.92,-131.63C1693.51,-130.16 2141.56,-122.88 2284.22,-87 2286.21,-86.5 2288.23,-85.87 2290.22,-85.16"/>
<polygon fill="midnightblue" stroke="midnightblue" points="2292.03,-88.2 2299.88,-81.09 2289.31,-81.75 2292.03,-88.2"/>
</g>
<!-- Node19&#45;&gt;Node8 -->
<g id="edge39" class="edge">
<title>Node19&#45;&gt;Node8</title>
<path fill="none" stroke="midnightblue" d="M1531,-131.95C1721.34,-131.41 2311.73,-126.49 2498.22,-87 2501.23,-86.36 2504.31,-85.51 2507.35,-84.53"/>
<polygon fill="midnightblue" stroke="midnightblue" points="2508.57,-87.81 2516.77,-81.11 2506.18,-81.24 2508.57,-87.81"/>
</g>
<!-- Node19&#45;&gt;Node9 -->
<g id="edge21" class="edge">
<title>Node19&#45;&gt;Node9</title>
<path fill="none" stroke="midnightblue" d="M1531.11,-131.22C1650.59,-128.98 1926.82,-120.31 2156.22,-87 2163.04,-86.01 2170.21,-84.68 2177.18,-83.22"/>
<polygon fill="midnightblue" stroke="midnightblue" points="2178.17,-86.59 2187.19,-81.03 2176.67,-79.75 2178.17,-86.59"/>
</g>
<!-- Node19&#45;&gt;Node10 -->
<g id="edge31" class="edge">
<title>Node19&#45;&gt;Node10</title>
<path fill="none" stroke="midnightblue" d="M1530.98,-131.29C1701.79,-128.88 2189.9,-119.29 2346.22,-87 2349.48,-86.33 2352.82,-85.43 2356.12,-84.41"/>
<polygon fill="midnightblue" stroke="midnightblue" points="2357.43,-87.66 2365.73,-81.07 2355.13,-81.04 2357.43,-87.66"/>
</g>
<!-- Node19&#45;&gt;Node18 -->
<g id="edge20" class="edge">
<title>Node19&#45;&gt;Node18</title>
<path fill="none" stroke="midnightblue" d="M1411.52,-130.27C1205.71,-124.17 537.63,-103.15 522.22,-87 512.71,-77.03 512.7,-65.95 522.22,-56 556.33,-20.36 1299,-12.71 1498.35,-11.29"/>
<polygon fill="midnightblue" stroke="midnightblue" points="1498.54,-14.79 1508.52,-11.22 1498.5,-7.79 1498.54,-14.79"/>
</g>
<!-- Node20 -->
<g id="node18" class="node">
<title>Node20</title>
<g id="a_node18"><a xlink:title=" ">
<polygon fill="white" stroke="#bfbfbf" points="531.22,-62 531.22,-81 573.22,-81 573.22,-62 531.22,-62"/>
<text text-anchor="middle" x="552.22" y="-69" font-family="Helvetica,sans-Serif" font-size="10.00">array</text>
</a>
</g>
</g>
<!-- Node19&#45;&gt;Node20 -->
<g id="edge19" class="edge">
<title>Node19&#45;&gt;Node20</title>
<path fill="none" stroke="midnightblue" d="M1411.48,-130.35C1225.1,-125.02 661.99,-107.4 582.22,-87 580.29,-86.51 578.33,-85.88 576.39,-85.17"/>
<polygon fill="midnightblue" stroke="midnightblue" points="577.6,-81.88 567.04,-81.1 574.81,-88.3 577.6,-81.88"/>
</g>
<!-- Node21 -->
<g id="node19" class="node">
<title>Node21</title>
<g id="a_node19"><a xlink:title=" ">
<polygon fill="white" stroke="#bfbfbf" points="591.22,-62 591.22,-81 683.22,-81 683.22,-62 591.22,-62"/>
<text text-anchor="middle" x="637.22" y="-69" font-family="Helvetica,sans-Serif" font-size="10.00">boost/array.hpp</text>
</a>
</g>
</g>
<!-- Node19&#45;&gt;Node21 -->
<g id="edge22" class="edge">
<title>Node19&#45;&gt;Node21</title>
<path fill="none" stroke="midnightblue" d="M1411.46,-130.1C1254.05,-124.83 830.61,-109.01 692.22,-87 686.68,-86.12 680.88,-84.91 675.22,-83.57"/>
<polygon fill="midnightblue" stroke="midnightblue" points="675.81,-80.11 665.25,-81.05 674.09,-86.89 675.81,-80.11"/>
</g>
<!-- Node22 -->
<g id="node20" class="node">
<title>Node22</title>
<g id="a_node20"><a xlink:title=" ">
<polygon fill="white" stroke="#bfbfbf" points="701.72,-62 701.72,-81 814.72,-81 814.72,-62 701.72,-62"/>
<text text-anchor="middle" x="758.22" y="-69" font-family="Helvetica,sans-Serif" font-size="10.00">boost/bind/bind.hpp</text>
</a>
</g>
</g>
<!-- Node19&#45;&gt;Node22 -->
<g id="edge23" class="edge">
<title>Node19&#45;&gt;Node22</title>
<path fill="none" stroke="midnightblue" d="M1411.59,-130.77C1297.16,-127.78 1039.04,-117.9 824.22,-87 817.28,-86 809.98,-84.68 802.87,-83.24"/>
<polygon fill="midnightblue" stroke="midnightblue" points="803.15,-79.72 792.64,-81.06 801.7,-86.57 803.15,-79.72"/>
</g>
<!-- Node23 -->
<g id="node21" class="node">
<title>Node23</title>
<g id="a_node21"><a xlink:title=" ">
<polygon fill="white" stroke="#bfbfbf" points="833.22,-62 833.22,-81 987.22,-81 987.22,-62 833.22,-62"/>
<text text-anchor="middle" x="910.22" y="-69" font-family="Helvetica,sans-Serif" font-size="10.00">boost/bind/placeholders.hpp</text>
</a>
</g>
</g>
<!-- Node19&#45;&gt;Node23 -->
<g id="edge24" class="edge">
<title>Node19&#45;&gt;Node23</title>
<path fill="none" stroke="midnightblue" d="M1411.45,-127.74C1321.26,-120.99 1145.08,-106.57 996.22,-87 986.75,-85.75 976.73,-84.24 967,-82.67"/>
<polygon fill="midnightblue" stroke="midnightblue" points="967.43,-79.2 957,-81.02 966.29,-86.1 967.43,-79.2"/>
</g>
<!-- Node24 -->
<g id="node22" class="node">
<title>Node24</title>
<g id="a_node22"><a xlink:title=" ">
<polygon fill="white" stroke="#bfbfbf" points="1073.72,-62 1073.72,-81 1214.72,-81 1214.72,-62 1073.72,-62"/>
<text text-anchor="middle" x="1144.22" y="-69" font-family="Helvetica,sans-Serif" font-size="10.00">boost/numeric/odeint.hpp</text>
</a>
</g>
</g>
<!-- Node19&#45;&gt;Node24 -->
<g id="edge25" class="edge">
<title>Node19&#45;&gt;Node24</title>
<path fill="none" stroke="midnightblue" d="M1424.37,-123.48C1365.49,-112.76 1264.48,-94.38 1201.19,-82.87"/>
<polygon fill="midnightblue" stroke="midnightblue" points="1201.45,-79.36 1190.99,-81.01 1200.2,-86.24 1201.45,-79.36"/>
</g>
<!-- Node25 -->
<g id="node23" class="node">
<title>Node25</title>
<g id="a_node23"><a xlink:title=" ">
<polygon fill="white" stroke="#bfbfbf" points="1233.22,-62 1233.22,-81 1381.22,-81 1381.22,-62 1233.22,-62"/>
<text text-anchor="middle" x="1307.22" y="-69" font-family="Helvetica,sans-Serif" font-size="10.00">boost/numeric/interval.hpp</text>
</a>
</g>
</g>
<!-- Node19&#45;&gt;Node25 -->
<g id="edge26" class="edge">
<title>Node19&#45;&gt;Node25</title>
<path fill="none" stroke="midnightblue" d="M1447.73,-123.48C1419.59,-113.27 1372.29,-96.11 1340.43,-84.55"/>
<polygon fill="midnightblue" stroke="midnightblue" points="1341.27,-81.13 1330.68,-81.01 1338.88,-87.71 1341.27,-81.13"/>
</g>
<!-- Node26 -->
<g id="node24" class="node">
<title>Node26</title>
<g id="a_node24"><a xlink:title=" ">
<polygon fill="white" stroke="#bfbfbf" points="1399.22,-56.5 1399.22,-86.5 1543.22,-86.5 1543.22,-56.5 1399.22,-56.5"/>
<text text-anchor="start" x="1407.22" y="-74.5" font-family="Helvetica,sans-Serif" font-size="10.00">boost/numeric/odeint</text>
<text text-anchor="middle" x="1471.22" y="-63.5" font-family="Helvetica,sans-Serif" font-size="10.00">/stepper/runge_kutta4.hpp</text>
</a>
</g>
</g>
<!-- Node19&#45;&gt;Node26 -->
<g id="edge27" class="edge">
<title>Node19&#45;&gt;Node26</title>
<path fill="none" stroke="midnightblue" d="M1471.22,-123.48C1471.22,-116.47 1471.22,-106.19 1471.22,-96.7"/>
<polygon fill="midnightblue" stroke="midnightblue" points="1474.72,-96.52 1471.22,-86.52 1467.72,-96.52 1474.72,-96.52"/>
</g>
<!-- Node27 -->
<g id="node25" class="node">
<title>Node27</title>
<g id="a_node25"><a xlink:title=" ">
<polygon fill="white" stroke="#bfbfbf" points="1561.22,-56.5 1561.22,-86.5 1677.22,-86.5 1677.22,-56.5 1561.22,-56.5"/>
<text text-anchor="start" x="1569.22" y="-74.5" font-family="Helvetica,sans-Serif" font-size="10.00">boost/numeric/ublas</text>
<text text-anchor="middle" x="1619.22" y="-63.5" font-family="Helvetica,sans-Serif" font-size="10.00">/matrix.hpp</text>
</a>
</g>
</g>
<!-- Node19&#45;&gt;Node27 -->
<g id="edge28" class="edge">
<title>Node19&#45;&gt;Node27</title>
<path fill="none" stroke="midnightblue" d="M1492.43,-123.48C1513.88,-114.85 1547.67,-101.26 1574.98,-90.29"/>
<polygon fill="midnightblue" stroke="midnightblue" points="1576.37,-93.5 1584.34,-86.52 1573.76,-87.01 1576.37,-93.5"/>
</g>
<!-- Node28 -->
<g id="node26" class="node">
<title>Node28</title>
<g id="a_node26"><a xlink:title=" ">
<polygon fill="white" stroke="#bfbfbf" points="1695.22,-56.5 1695.22,-86.5 1811.22,-86.5 1811.22,-56.5 1695.22,-56.5"/>
<text text-anchor="start" x="1703.22" y="-74.5" font-family="Helvetica,sans-Serif" font-size="10.00">boost/numeric/ublas</text>
<text text-anchor="middle" x="1753.22" y="-63.5" font-family="Helvetica,sans-Serif" font-size="10.00">/io.hpp</text>
</a>
</g>
</g>
<!-- Node19&#45;&gt;Node28 -->
<g id="edge29" class="edge">
<title>Node19&#45;&gt;Node28</title>
<path fill="none" stroke="midnightblue" d="M1512.46,-123.46C1553.64,-114.9 1619.02,-101.27 1684.97,-87.26"/>
<polygon fill="midnightblue" stroke="midnightblue" points="1686.07,-90.6 1695.12,-85.1 1684.61,-83.76 1686.07,-90.6"/>
</g>
<!-- Node29 -->
<g id="node27" class="node">
<title>Node29</title>
<g id="a_node27"><a xlink:title=" ">
<polygon fill="white" stroke="#bfbfbf" points="1829.22,-62 1829.22,-81 2007.22,-81 2007.22,-62 1829.22,-62"/>
<text text-anchor="middle" x="1918.22" y="-69" font-family="Helvetica,sans-Serif" font-size="10.00">boost/math/tools/polynomial.hpp</text>
</a>
</g>
</g>
<!-- Node19&#45;&gt;Node29 -->
<g id="edge30" class="edge">
<title>Node19&#45;&gt;Node29</title>
<path fill="none" stroke="midnightblue" d="M1530.86,-124.65C1600.38,-116.01 1718.71,-101.05 1820.22,-87 1830.42,-85.59 1841.21,-84.04 1851.75,-82.51"/>
<polygon fill="midnightblue" stroke="midnightblue" points="1852.38,-85.95 1861.76,-81.04 1851.36,-79.03 1852.38,-85.95"/>
</g>
<!-- Node30 -->
<g id="node28" class="node">
<title>Node30</title>
<g id="a_node28"><a xlink:title=" ">
<polygon fill="white" stroke="#bfbfbf" points="2025.22,-62 2025.22,-81 2075.22,-81 2075.22,-62 2025.22,-62"/>
<text text-anchor="middle" x="2050.22" y="-69" font-family="Helvetica,sans-Serif" font-size="10.00">stdio.h</text>
</a>
</g>
</g>
<!-- Node19&#45;&gt;Node30 -->
<g id="edge32" class="edge">
<title>Node19&#45;&gt;Node30</title>
<path fill="none" stroke="midnightblue" d="M1531.19,-129.47C1653.03,-123.94 1925.68,-109.42 2016.22,-87 2018.59,-86.41 2021,-85.68 2023.39,-84.86"/>
<polygon fill="midnightblue" stroke="midnightblue" points="2024.9,-88.03 2032.95,-81.13 2022.36,-81.51 2024.9,-88.03"/>
</g>
<!-- Node31 -->
<g id="node29" class="node">
<title>Node31</title>
<g id="a_node29"><a xlink:title=" ">
<polygon fill="white" stroke="#bfbfbf" points="2093.72,-62 2093.72,-81 2146.72,-81 2146.72,-62 2093.72,-62"/>
<text text-anchor="middle" x="2120.22" y="-69" font-family="Helvetica,sans-Serif" font-size="10.00">stdlib.h</text>
</a>
</g>
</g>
<!-- Node19&#45;&gt;Node31 -->
<g id="edge33" class="edge">
<title>Node19&#45;&gt;Node31</title>
<path fill="none" stroke="midnightblue" d="M1530.97,-129.96C1663.81,-125.06 1980.15,-111.16 2084.22,-87 2087.05,-86.34 2089.95,-85.5 2092.81,-84.54"/>
<polygon fill="midnightblue" stroke="midnightblue" points="2094.13,-87.79 2102.26,-81 2091.67,-81.23 2094.13,-87.79"/>
</g>
<!-- Node32 -->
<g id="node30" class="node">
<title>Node32</title>
<g id="a_node30"><a xlink:title=" ">
<polygon fill="white" stroke="#bfbfbf" points="32.72,-62 32.72,-81 83.72,-81 83.72,-62 32.72,-62"/>
<text text-anchor="middle" x="58.22" y="-69" font-family="Helvetica,sans-Serif" font-size="10.00">math.h</text>
</a>
</g>
</g>
<!-- Node19&#45;&gt;Node32 -->
<g id="edge35" class="edge">
<title>Node19&#45;&gt;Node32</title>
<path fill="none" stroke="midnightblue" d="M1411.48,-130.57C1155.78,-124.36 163.47,-99.57 98.22,-87 94.78,-86.34 91.24,-85.42 87.76,-84.37"/>
<polygon fill="midnightblue" stroke="midnightblue" points="88.82,-81.03 78.22,-81.15 86.57,-87.66 88.82,-81.03"/>
</g>
<!-- Node33 -->
<g id="node31" class="node">
<title>Node33</title>
<g id="a_node31"><a xlink:title=" ">
<polygon fill="white" stroke="#bfbfbf" points="278.22,-62 278.22,-81 326.22,-81 326.22,-62 278.22,-62"/>
<text text-anchor="middle" x="302.22" y="-69" font-family="Helvetica,sans-Serif" font-size="10.00">time.h</text>
</a>
</g>
</g>
<!-- Node19&#45;&gt;Node33 -->
<g id="edge36" class="edge">
<title>Node19&#45;&gt;Node33</title>
<path fill="none" stroke="midnightblue" d="M1411.36,-130.25C1184.52,-123.53 387.96,-99.17 335.22,-87 332.86,-86.45 330.45,-85.74 328.07,-84.92"/>
<polygon fill="midnightblue" stroke="midnightblue" points="329.18,-81.6 318.59,-81.13 326.58,-88.1 329.18,-81.6"/>
</g>
<!-- Node34 -->
<g id="node32" class="node">
<title>Node34</title>
<g id="a_node32"><a xlink:title=" ">
<polygon fill="white" stroke="#bfbfbf" points="2763.22,-62 2763.22,-81 2807.22,-81 2807.22,-62 2763.22,-62"/>
<text text-anchor="middle" x="2785.22" y="-69" font-family="Helvetica,sans-Serif" font-size="10.00">ctime</text>
</a>
</g>
</g>
<!-- Node19&#45;&gt;Node34 -->
<g id="edge37" class="edge">
<title>Node19&#45;&gt;Node34</title>
<path fill="none" stroke="midnightblue" d="M1531.1,-131.31C1768.27,-128.38 2634.71,-115.78 2754.22,-87 2756.43,-86.47 2758.67,-85.77 2760.88,-84.97"/>
<polygon fill="midnightblue" stroke="midnightblue" points="2762.38,-88.14 2770.22,-81 2759.64,-81.7 2762.38,-88.14"/>
</g>
<!-- Node35 -->
<g id="node33" class="node">
<title>Node35</title>
<g id="a_node33"><a xlink:title=" ">
<polygon fill="white" stroke="#bfbfbf" points="2433.22,-62 2433.22,-81 2489.22,-81 2489.22,-62 2433.22,-62"/>
<text text-anchor="middle" x="2461.22" y="-69" font-family="Helvetica,sans-Serif" font-size="10.00">iomanip</text>
</a>
</g>
</g>
<!-- Node19&#45;&gt;Node35 -->
<g id="edge38" class="edge">
<title>Node19&#45;&gt;Node35</title>
<path fill="none" stroke="midnightblue" d="M1530.79,-131.72C1711.64,-130.46 2252.52,-123.66 2424.22,-87 2427.23,-86.36 2430.31,-85.5 2433.35,-84.52"/>
<polygon fill="midnightblue" stroke="midnightblue" points="2434.56,-87.8 2442.77,-81.1 2432.17,-81.22 2434.56,-87.8"/>
</g>
<!-- Node36 -->
<g id="node34" class="node">
<title>Node36</title>
<g id="a_node34"><a xlink:title=" ">
<polygon fill="white" stroke="#bfbfbf" points="344.72,-62 344.72,-81 391.72,-81 391.72,-62 344.72,-62"/>
<text text-anchor="middle" x="368.22" y="-69" font-family="Helvetica,sans-Serif" font-size="10.00">vector</text>
</a>
</g>
</g>
<!-- Node19&#45;&gt;Node36 -->
<g id="edge41" class="edge">
<title>Node19&#45;&gt;Node36</title>
<path fill="none" stroke="midnightblue" d="M1411.45,-130.12C1193.22,-123.17 449.61,-98.76 400.22,-87 398.01,-86.47 395.75,-85.79 393.52,-85.01"/>
<polygon fill="midnightblue" stroke="midnightblue" points="394.65,-81.69 384.07,-81.13 392,-88.16 394.65,-81.69"/>
</g>
<!-- Node37 -->
<g id="node35" class="node">
<title>Node37</title>
<g id="a_node35"><a xlink:title=" ">
<polygon fill="white" stroke="#bfbfbf" points="2695.22,-62 2695.22,-81 2745.22,-81 2745.22,-62 2695.22,-62"/>
<text text-anchor="middle" x="2720.22" y="-69" font-family="Helvetica,sans-Serif" font-size="10.00">chrono</text>
</a>
</g>
</g>
<!-- Node19&#45;&gt;Node37 -->
<g id="edge42" class="edge">
<title>Node19&#45;&gt;Node37</title>
<path fill="none" stroke="midnightblue" d="M1530.96,-130.75C1696.53,-127.03 2175.26,-114.54 2572.22,-87 2610.93,-84.32 2655.19,-79.79 2685.15,-76.5"/>
<polygon fill="midnightblue" stroke="midnightblue" points="2685.57,-79.98 2695.12,-75.4 2684.8,-73.02 2685.57,-79.98"/>
</g>
<!-- Node38 -->
<g id="node36" class="node">
<title>Node38</title>
<g id="a_node36"><a xlink:title=" ">
<polygon fill="white" stroke="#bfbfbf" points="409.72,-62 409.72,-81 474.72,-81 474.72,-62 409.72,-62"/>
<text text-anchor="middle" x="442.22" y="-69" font-family="Helvetica,sans-Serif" font-size="10.00">functional</text>
</a>
</g>
</g>
<!-- Node19&#45;&gt;Node38 -->
<g id="edge43" class="edge">
<title>Node19&#45;&gt;Node38</title>
<path fill="none" stroke="midnightblue" d="M1411.72,-130.15C1213.01,-123.86 579.75,-102.77 489.22,-87 484.75,-86.22 480.1,-85.14 475.55,-83.91"/>
<polygon fill="midnightblue" stroke="midnightblue" points="476.43,-80.52 465.85,-81.07 474.46,-87.24 476.43,-80.52"/>
</g>
<!-- Node39 -->
<g id="node37" class="node">
<title>Node39</title>
<g id="a_node37"><a xlink:href="continuous__lyapunov__equation_8hpp.html" target="_top" xlink:title="The following code uses a different convention from MATLAB.">
<polygon fill="white" stroke="red" points="140.22,-56.5 140.22,-86.5 260.22,-86.5 260.22,-56.5 140.22,-56.5"/>
<text text-anchor="start" x="148.22" y="-74.5" font-family="Helvetica,sans-Serif" font-size="10.00">continuous_lyapunov</text>
<text text-anchor="middle" x="200.22" y="-63.5" font-family="Helvetica,sans-Serif" font-size="10.00">_equation.hpp</text>
</a>
</g>
</g>
<!-- Node19&#45;&gt;Node39 -->
<g id="edge44" class="edge">
<title>Node19&#45;&gt;Node39</title>
<path fill="none" stroke="midnightblue" d="M1411.43,-130.36C1189.96,-124.2 421.69,-102.09 270.51,-86.89"/>
<polygon fill="midnightblue" stroke="midnightblue" points="270.66,-83.38 260.33,-85.76 269.89,-90.34 270.66,-83.38"/>
</g>
<!-- Node39&#45;&gt;Node5 -->
<g id="edge46" class="edge">
<title>Node39&#45;&gt;Node5</title>
<path fill="none" stroke="midnightblue" d="M166.57,-56.4C142.75,-46.42 111.08,-33.15 88.13,-23.53"/>
<polygon fill="midnightblue" stroke="midnightblue" points="89.46,-20.29 78.88,-19.66 86.76,-26.75 89.46,-20.29"/>
</g>
<!-- Node39&#45;&gt;Node18 -->
<g id="edge45" class="edge">
<title>Node39&#45;&gt;Node18</title>
<path fill="none" stroke="midnightblue" d="M260.33,-57.23C263.33,-56.77 266.31,-56.36 269.22,-56 513.87,-26.21 1295.38,-14.25 1498.57,-11.59"/>
<polygon fill="midnightblue" stroke="midnightblue" points="1498.68,-15.09 1508.64,-11.46 1498.59,-8.09 1498.68,-15.09"/>
</g>
<!-- Node44&#45;&gt;Node18 -->
<g id="edge48" class="edge">
<title>Node44&#45;&gt;Node18</title>
<path fill="none" stroke="midnightblue" d="M2631.09,-313.42C2641.95,-293.42 2667.22,-241.9 2667.22,-195.5 2667.22,-195.5 2667.22,-195.5 2667.22,-132 2667.22,-89.78 2647.58,-75.68 2610.22,-56 2519.86,-8.4 1792.22,-9.46 1595.89,-10.63"/>
<polygon fill="midnightblue" stroke="midnightblue" points="1595.84,-7.13 1585.87,-10.69 1595.89,-14.13 1595.84,-7.13"/>
</g>
<!-- Node44&#45;&gt;Node37 -->
<g id="edge49" class="edge">
<title>Node44&#45;&gt;Node37</title>
<path fill="none" stroke="midnightblue" d="M2641.84,-313.42C2654.5,-305.62 2671.76,-292.9 2681.22,-277 2717.4,-216.2 2721.05,-128.81 2720.77,-91.05"/>
<polygon fill="midnightblue" stroke="midnightblue" points="2724.27,-90.94 2720.59,-81 2717.27,-91.07 2724.27,-90.94"/>
</g>
<!-- Node45 -->
<g id="node39" class="node">
<title>Node45</title>
<g id="a_node39"><a xlink:href="qrbp_8hpp.html" target="_top" xlink:title="Vehicle Information of the QRBP with the NACA 0012 wings and the Velox V2808 kv1300 motors used in al...">
<polygon fill="white" stroke="black" points="958.72,-185 958.72,-204 1017.72,-204 1017.72,-185 958.72,-185"/>
<text text-anchor="middle" x="988.22" y="-192" font-family="Helvetica,sans-Serif" font-size="10.00">qrbp.hpp</text>
</a>
</g>
</g>
<!-- Node44&#45;&gt;Node45 -->
<g id="edge50" class="edge">
<title>Node44&#45;&gt;Node45</title>
<path fill="none" stroke="midnightblue" d="M2552.12,-316.28C2266.69,-294.23 1243.63,-215.22 1028.21,-198.59"/>
<polygon fill="midnightblue" stroke="midnightblue" points="1028.24,-195.08 1018,-197.8 1027.7,-202.06 1028.24,-195.08"/>
</g>
<!-- Node46 -->
<g id="node40" class="node">
<title>Node46</title>
<g id="a_node40"><a xlink:href="aero__qrbp_8hpp.html" target="_top" xlink:title="Aerodynamics class for all algorithms to use with the grbp platform of ACSL.">
<polygon fill="white" stroke="black" points="1522.22,-252 1522.22,-271 1608.22,-271 1608.22,-252 1522.22,-252"/>
<text text-anchor="middle" x="1565.22" y="-259" font-family="Helvetica,sans-Serif" font-size="10.00">aero_qrbp.hpp</text>
</a>
</g>
</g>
<!-- Node44&#45;&gt;Node46 -->
<g id="edge55" class="edge">
<title>Node44&#45;&gt;Node46</title>
<path fill="none" stroke="midnightblue" d="M2552.04,-317.84C2349.96,-306.51 1793.23,-275.29 1618.44,-265.48"/>
<polygon fill="midnightblue" stroke="midnightblue" points="1618.64,-261.99 1608.46,-264.92 1618.25,-268.98 1618.64,-261.99"/>
</g>
<!-- Node45&#45;&gt;Node5 -->
<g id="edge52" class="edge">
<title>Node45&#45;&gt;Node5</title>
<path fill="none" stroke="midnightblue" d="M958.54,-193.33C808.08,-192.28 133.58,-185.23 51.22,-143 12.49,-123.13 -11.87,-95.59 6.22,-56 12,-43.36 23.27,-32.91 33.85,-25.27"/>
<polygon fill="midnightblue" stroke="midnightblue" points="36.07,-28 42.44,-19.53 32.18,-22.18 36.07,-28"/>
</g>
<!-- Node45&#45;&gt;Node18 -->
<g id="edge51" class="edge">
<title>Node45&#45;&gt;Node18</title>
<path fill="none" stroke="midnightblue" d="M958.52,-193.83C782.36,-195.35 -112.93,-196.23 23.22,-56 49.52,-28.91 1240.03,-14.36 1498.18,-11.52"/>
<polygon fill="midnightblue" stroke="midnightblue" points="1498.41,-15.02 1508.37,-11.41 1498.33,-8.02 1498.41,-15.02"/>
</g>
<!-- Node45&#45;&gt;Node19 -->
<g id="edge54" class="edge">
<title>Node45&#45;&gt;Node19</title>
<path fill="none" stroke="midnightblue" d="M1018.07,-189.82C1093.69,-180.51 1294.35,-155.79 1401.5,-142.59"/>
<polygon fill="midnightblue" stroke="midnightblue" points="1402.07,-146.05 1411.57,-141.35 1401.21,-139.1 1402.07,-146.05"/>
</g>
<!-- Node45&#45;&gt;Node32 -->
<g id="edge53" class="edge">
<title>Node45&#45;&gt;Node32</title>
<path fill="none" stroke="midnightblue" d="M958.6,-192.41C845.39,-187.73 429.78,-165.83 98.22,-87 95.16,-86.27 92.01,-85.38 88.88,-84.41"/>
<polygon fill="midnightblue" stroke="midnightblue" points="89.72,-81 79.12,-81.1 87.47,-87.63 89.72,-81"/>
</g>
<!-- Node46&#45;&gt;Node45 -->
<g id="edge56" class="edge">
<title>Node46&#45;&gt;Node45</title>
<path fill="none" stroke="midnightblue" d="M1521.85,-255.61C1413.53,-243.41 1132.36,-211.74 1027.99,-199.98"/>
<polygon fill="midnightblue" stroke="midnightblue" points="1028.2,-196.48 1017.87,-198.84 1027.42,-203.44 1028.2,-196.48"/>
</g>
<!-- Node47&#45;&gt;Node15 -->
<g id="edge72" class="edge">
<title>Node47&#45;&gt;Node15</title>
<path fill="none" stroke="midnightblue" d="M2704.85,-369.49C2708.33,-356.99 2713.55,-332.97 2709.22,-313 2695.35,-249.05 2696.17,-223.53 2648.22,-179 2630.5,-162.54 2606.24,-151.97 2584.02,-145.25"/>
<polygon fill="midnightblue" stroke="midnightblue" points="2584.89,-141.86 2574.32,-142.52 2582.99,-148.6 2584.89,-141.86"/>
</g>
<!-- Node47&#45;&gt;Node44 -->
<g id="edge58" class="edge">
<title>Node47&#45;&gt;Node44</title>
<path fill="none" stroke="midnightblue" d="M2690.01,-369.32C2678.45,-361.11 2660.85,-348.6 2647.06,-338.81"/>
<polygon fill="midnightblue" stroke="midnightblue" points="2648.83,-335.77 2638.66,-332.83 2644.78,-341.48 2648.83,-335.77"/>
</g>
<!-- Node48 -->
<g id="node42" class="node">
<title>Node48</title>
<g id="a_node42"><a xlink:href="flight__log_8hpp.html" target="_top" xlink:title="Utilities for logging flight data.">
<polygon fill="white" stroke="red" points="2811.72,-123.5 2811.72,-142.5 2894.72,-142.5 2894.72,-123.5 2811.72,-123.5"/>
<text text-anchor="middle" x="2853.22" y="-130.5" font-family="Helvetica,sans-Serif" font-size="10.00">flight_log.hpp</text>
</a>
</g>
</g>
<!-- Node47&#45;&gt;Node48 -->
<g id="edge59" class="edge">
<title>Node47&#45;&gt;Node48</title>
<path fill="none" stroke="midnightblue" d="M2715.86,-369.37C2727.95,-361.18 2745.46,-347.92 2757.22,-333 2803.47,-274.29 2834.93,-189.67 2847.32,-152.59"/>
<polygon fill="midnightblue" stroke="midnightblue" points="2850.78,-153.29 2850.55,-142.69 2844.12,-151.12 2850.78,-153.29"/>
</g>
<!-- Node48&#45;&gt;Node4 -->
<g id="edge60" class="edge">
<title>Node48&#45;&gt;Node4</title>
<path fill="none" stroke="midnightblue" d="M2811.32,-130.43C2759.43,-128.51 2668.31,-125.26 2590.22,-123 2420.69,-118.1 1229.98,-122.91 1064.22,-87 1061.55,-86.42 1058.83,-85.63 1056.14,-84.72"/>
<polygon fill="midnightblue" stroke="midnightblue" points="1057.34,-81.43 1046.75,-81.04 1054.78,-87.95 1057.34,-81.43"/>
</g>
<!-- Node48&#45;&gt;Node8 -->
<g id="edge65" class="edge">
<title>Node48&#45;&gt;Node8</title>
<path fill="none" stroke="midnightblue" d="M2811.65,-124.22C2749.39,-112.57 2632.87,-90.77 2572.94,-79.56"/>
<polygon fill="midnightblue" stroke="midnightblue" points="2573.26,-76.06 2562.78,-77.66 2571.97,-82.94 2573.26,-76.06"/>
</g>
<!-- Node48&#45;&gt;Node16 -->
<g id="edge63" class="edge">
<title>Node48&#45;&gt;Node16</title>
<path fill="none" stroke="midnightblue" d="M2853.22,-123.48C2853.22,-115.08 2853.22,-101.98 2853.22,-91.16"/>
<polygon fill="midnightblue" stroke="midnightblue" points="2856.72,-91.01 2853.22,-81.01 2849.72,-91.01 2856.72,-91.01"/>
</g>
<!-- Node48&#45;&gt;Node34 -->
<g id="edge66" class="edge">
<title>Node48&#45;&gt;Node34</title>
<path fill="none" stroke="midnightblue" d="M2843.48,-123.48C2832.88,-114.2 2815.7,-99.17 2802.74,-87.83"/>
<polygon fill="midnightblue" stroke="midnightblue" points="2804.78,-84.96 2794.95,-81.01 2800.17,-90.23 2804.78,-84.96"/>
</g>
<!-- Node48&#45;&gt;Node35 -->
<g id="edge62" class="edge">
<title>Node48&#45;&gt;Node35</title>
<path fill="none" stroke="midnightblue" d="M2811.48,-129.91C2744.66,-125.86 2609.95,-114.74 2499.22,-87 2496.4,-86.29 2493.5,-85.44 2490.62,-84.5"/>
<polygon fill="midnightblue" stroke="midnightblue" points="2491.65,-81.15 2481.05,-81.09 2489.29,-87.74 2491.65,-81.15"/>
</g>
<!-- Node48&#45;&gt;Node37 -->
<g id="edge61" class="edge">
<title>Node48&#45;&gt;Node37</title>
<path fill="none" stroke="midnightblue" d="M2834.17,-123.48C2811.75,-113.45 2774.32,-96.7 2748.51,-85.15"/>
<polygon fill="midnightblue" stroke="midnightblue" points="2749.8,-81.9 2739.24,-81.01 2746.94,-88.29 2749.8,-81.9"/>
</g>
<!-- Node49 -->
<g id="node43" class="node">
<title>Node49</title>
<g id="a_node43"><a xlink:title=" ">
<polygon fill="white" stroke="#bfbfbf" points="3490.22,-62 3490.22,-81 3558.22,-81 3558.22,-62 3490.22,-62"/>
<text text-anchor="middle" x="3524.22" y="-69" font-family="Helvetica,sans-Serif" font-size="10.00">filesystem</text>
</a>
</g>
</g>
<!-- Node48&#45;&gt;Node49 -->
<g id="edge64" class="edge">
<title>Node48&#45;&gt;Node49</title>
<path fill="none" stroke="midnightblue" d="M2894.86,-132.64C2996.26,-133.4 3263.68,-130.73 3481.22,-87 3484.92,-86.26 3488.73,-85.29 3492.49,-84.2"/>
<polygon fill="midnightblue" stroke="midnightblue" points="3493.72,-87.48 3502.2,-81.12 3491.61,-80.81 3493.72,-87.48"/>
</g>
<!-- Node50 -->
<g id="node44" class="node">
<title>Node50</title>
<g id="a_node44"><a xlink:title=" ">
<polygon fill="white" stroke="#bfbfbf" points="3576.72,-56.5 3576.72,-86.5 3701.72,-86.5 3701.72,-56.5 3576.72,-56.5"/>
<text text-anchor="start" x="3584.72" y="-74.5" font-family="Helvetica,sans-Serif" font-size="10.00">boost/date_time/posix</text>
<text text-anchor="middle" x="3639.22" y="-63.5" font-family="Helvetica,sans-Serif" font-size="10.00">_time/posix_time.hpp</text>
</a>
</g>
</g>
<!-- Node48&#45;&gt;Node50 -->
<g id="edge67" class="edge">
<title>Node48&#45;&gt;Node50</title>
<path fill="none" stroke="midnightblue" d="M2894.86,-131.35C3003.65,-129.23 3305.45,-120.64 3566.43,-86.97"/>
<polygon fill="midnightblue" stroke="midnightblue" points="3567.02,-90.42 3576.48,-85.66 3566.11,-83.48 3567.02,-90.42"/>
</g>
<!-- Node51 -->
<g id="node45" class="node">
<title>Node51</title>
<g id="a_node45"><a xlink:title=" ">
<polygon fill="white" stroke="#bfbfbf" points="2899.72,-56.5 2899.72,-86.5 3054.72,-86.5 3054.72,-56.5 2899.72,-56.5"/>
<text text-anchor="start" x="2907.72" y="-74.5" font-family="Helvetica,sans-Serif" font-size="10.00">boost/date_time/posix</text>
<text text-anchor="middle" x="2977.22" y="-63.5" font-family="Helvetica,sans-Serif" font-size="10.00">_time/posix_time_types.hpp</text>
</a>
</g>
</g>
<!-- Node48&#45;&gt;Node51 -->
<g id="edge68" class="edge">
<title>Node48&#45;&gt;Node51</title>
<path fill="none" stroke="midnightblue" d="M2870.99,-123.48C2888.65,-115 2916.29,-101.74 2938.95,-90.86"/>
<polygon fill="midnightblue" stroke="midnightblue" points="2940.5,-94 2948,-86.52 2937.47,-87.69 2940.5,-94"/>
</g>
<!-- Node52 -->
<g id="node46" class="node">
<title>Node52</title>
<g id="a_node46"><a xlink:title=" ">
<polygon fill="white" stroke="#bfbfbf" points="3072.72,-62 3072.72,-81 3205.72,-81 3205.72,-62 3072.72,-62"/>
<text text-anchor="middle" x="3139.22" y="-69" font-family="Helvetica,sans-Serif" font-size="10.00">boost/log/attributes.hpp</text>
</a>
</g>
</g>
<!-- Node48&#45;&gt;Node52 -->
<g id="edge69" class="edge">
<title>Node48&#45;&gt;Node52</title>
<path fill="none" stroke="midnightblue" d="M2894.2,-123.48C2945.38,-112.83 3032.95,-94.61 3088.36,-83.08"/>
<polygon fill="midnightblue" stroke="midnightblue" points="3089.24,-86.47 3098.32,-81.01 3087.82,-79.62 3089.24,-86.47"/>
</g>
<!-- Node53 -->
<g id="node47" class="node">
<title>Node53</title>
<g id="a_node47"><a xlink:title=" ">
<polygon fill="white" stroke="#bfbfbf" points="3224.22,-56.5 3224.22,-86.5 3346.22,-86.5 3346.22,-56.5 3224.22,-56.5"/>
<text text-anchor="start" x="3232.22" y="-74.5" font-family="Helvetica,sans-Serif" font-size="10.00">boost/log/attributes</text>
<text text-anchor="middle" x="3285.22" y="-63.5" font-family="Helvetica,sans-Serif" font-size="10.00">/scoped_attribute.hpp</text>
</a>
</g>
</g>
<!-- Node48&#45;&gt;Node53 -->
<g id="edge70" class="edge">
<title>Node48&#45;&gt;Node53</title>
<path fill="none" stroke="midnightblue" d="M2894.91,-127.92C2960.58,-121.26 3092.33,-106.91 3213.96,-87.13"/>
<polygon fill="midnightblue" stroke="midnightblue" points="3214.89,-90.52 3224.19,-85.44 3213.76,-83.61 3214.89,-90.52"/>
</g>
<!-- Node54 -->
<g id="node48" class="node">
<title>Node54</title>
<g id="a_node48"><a xlink:title=" ">
<polygon fill="white" stroke="#bfbfbf" points="3364.72,-62 3364.72,-81 3471.72,-81 3471.72,-62 3364.72,-62"/>
<text text-anchor="middle" x="3418.22" y="-69" font-family="Helvetica,sans-Serif" font-size="10.00">boost/log/core.hpp</text>
</a>
</g>
</g>
<!-- Node48&#45;&gt;Node54 -->
<g id="edge71" class="edge">
<title>Node48&#45;&gt;Node54</title>
<path fill="none" stroke="midnightblue" d="M2894.78,-130.2C2981.04,-126.04 3185.63,-113.99 3355.22,-87 3361.62,-85.98 3368.34,-84.68 3374.91,-83.29"/>
<polygon fill="midnightblue" stroke="midnightblue" points="3376.04,-86.62 3385.04,-81.03 3374.52,-79.79 3376.04,-86.62"/>
</g>
<!-- Node71&#45;&gt;Node6 -->
<g id="edge77" class="edge">
<title>Node71&#45;&gt;Node6</title>
<path fill="none" stroke="midnightblue" d="M2460.75,-246.4C2439.82,-235.24 2410.8,-219.78 2390.25,-208.83"/>
<polygon fill="midnightblue" stroke="midnightblue" points="2391.66,-205.62 2381.19,-204.01 2388.37,-211.8 2391.66,-205.62"/>
</g>
<!-- Node71&#45;&gt;Node15 -->
<g id="edge78" class="edge">
<title>Node71&#45;&gt;Node15</title>
<path fill="none" stroke="midnightblue" d="M2487.63,-246.25C2488.49,-229.65 2491.14,-201.63 2499.22,-179 2502.71,-169.26 2508.41,-159.3 2513.68,-151.24"/>
<polygon fill="midnightblue" stroke="midnightblue" points="2516.72,-153 2519.51,-142.78 2510.96,-149.03 2516.72,-153"/>
</g>
<!-- Node72 -->
<g id="node50" class="node">
<title>Node72</title>
<g id="a_node50"><a xlink:href="user__defined__trajectory__base_8hpp.html" target="_top" xlink:title="User Defined Trajectory Base Definition.">
<polygon fill="white" stroke="black" points="2507.72,-179.5 2507.72,-209.5 2638.72,-209.5 2638.72,-179.5 2507.72,-179.5"/>
<text text-anchor="start" x="2515.72" y="-197.5" font-family="Helvetica,sans-Serif" font-size="10.00">user_defined_trajectory</text>
<text text-anchor="middle" x="2573.22" y="-186.5" font-family="Helvetica,sans-Serif" font-size="10.00">_base.hpp</text>
</a>
</g>
</g>
<!-- Node71&#45;&gt;Node72 -->
<g id="edge74" class="edge">
<title>Node71&#45;&gt;Node72</title>
<path fill="none" stroke="midnightblue" d="M2505.88,-246.4C2517.72,-237.45 2533.22,-225.74 2546.36,-215.8"/>
<polygon fill="midnightblue" stroke="midnightblue" points="2548.73,-218.4 2554.6,-209.58 2544.51,-212.81 2548.73,-218.4"/>
</g>
<!-- Node72&#45;&gt;Node18 -->
<g id="edge75" class="edge">
<title>Node72&#45;&gt;Node18</title>
<path fill="none" stroke="midnightblue" d="M2581.3,-179.09C2595.78,-151.16 2621.72,-89.43 2589.22,-56 2554.23,-20.01 1797.81,-12.6 1596.22,-11.27"/>
<polygon fill="midnightblue" stroke="midnightblue" points="1595.96,-7.77 1585.94,-11.2 1595.92,-14.77 1595.96,-7.77"/>
</g>
<!-- Node72&#45;&gt;Node19 -->
<g id="edge76" class="edge">
<title>Node72&#45;&gt;Node19</title>
<path fill="none" stroke="midnightblue" d="M2507.43,-186.28C2482.07,-183.69 2452.82,-180.94 2426.22,-179 2095.16,-154.89 1698.55,-140.99 1540.83,-136.06"/>
<polygon fill="midnightblue" stroke="midnightblue" points="1540.9,-132.56 1530.79,-135.75 1540.68,-139.55 1540.9,-132.56"/>
</g>
</g>
</svg>
