<?xml version="1.0" encoding="UTF-8" standalone="no"?>
<!DOCTYPE svg PUBLIC "-//W3C//DTD SVG 1.1//EN"
 "http://www.w3.org/Graphics/SVG/1.1/DTD/svg11.dtd">
<!-- Generated by graphviz version 2.43.0 (0)
 -->
<!-- Title: ACSL&#45;flightstack&#45;winged/src/acsl_flight/include/control/platforms/qrbp/control_algorithms/PID_OMEGA/PID_OMEGA.hpp Pages: 1 -->
<svg width="644pt" height="473pt"
 viewBox="0.00 0.00 643.50 473.00" xmlns="http://www.w3.org/2000/svg" xmlns:xlink="http://www.w3.org/1999/xlink">
<g id="graph0" class="graph" transform="scale(1 1) rotate(0) translate(4 469)">
<title>ACSL&#45;flightstack&#45;winged/src/acsl_flight/include/control/platforms/qrbp/control_algorithms/PID_OMEGA/PID_OMEGA.hpp</title>
<polygon fill="white" stroke="transparent" points="-4,4 -4,-469 639.5,-469 639.5,4 -4,4"/>
<!-- Node1 -->
<g id="node1" class="node">
<title>Node1</title>
<g id="a_node1"><a xlink:title="PID with angular veocities for the QRBP.">
<polygon fill="#bfbfbf" stroke="black" points="331.5,-401.5 331.5,-464.5 504.5,-464.5 504.5,-401.5 331.5,-401.5"/>
<text text-anchor="start" x="339.5" y="-452.5" font-family="Helvetica,sans-Serif" font-size="10.00">ACSL&#45;flightstack&#45;winged</text>
<text text-anchor="start" x="339.5" y="-441.5" font-family="Helvetica,sans-Serif" font-size="10.00">/src/acsl_flight/include</text>
<text text-anchor="start" x="339.5" y="-430.5" font-family="Helvetica,sans-Serif" font-size="10.00">/control/platforms/qrbp</text>
<text text-anchor="start" x="339.5" y="-419.5" font-family="Helvetica,sans-Serif" font-size="10.00">/control_algorithms/PID_OMEGA</text>
<text text-anchor="middle" x="418" y="-408.5" font-family="Helvetica,sans-Serif" font-size="10.00">/PID_OMEGA.hpp</text>
</a>
</g>
</g>
<!-- Node2 -->
<g id="node2" class="node">
<title>Node2</title>
<g id="a_node2"><a xlink:href="control__config_8hpp.html" target="_top" xlink:title="Just a header file for configuring which platform and controller to pick during compilation.">
<polygon fill="white" stroke="black" points="253,-318 253,-359 399,-359 399,-318 253,-318"/>
<text text-anchor="start" x="261" y="-347" font-family="Helvetica,sans-Serif" font-size="10.00">ACSL&#45;flightstack&#45;winged</text>
<text text-anchor="start" x="261" y="-336" font-family="Helvetica,sans-Serif" font-size="10.00">/src/acsl_flight/include</text>
<text text-anchor="middle" x="326" y="-325" font-family="Helvetica,sans-Serif" font-size="10.00">/control/control_config.hpp</text>
</a>
</g>
</g>
<!-- Node1&#45;&gt;Node2 -->
<g id="edge1" class="edge">
<title>Node1&#45;&gt;Node2</title>
<path fill="none" stroke="midnightblue" d="M380.34,-394.13C368.43,-382.16 355.75,-369.41 345.64,-359.25"/>
<polygon fill="midnightblue" stroke="midnightblue" points="378.09,-396.83 387.62,-401.46 383.05,-391.9 378.09,-396.83"/>
</g>
<!-- Node13 -->
<g id="node13" class="node">
<title>Node13</title>
<g id="a_node13"><a xlink:href="PID__OMEGA_8cpp.html" target="_top" xlink:title=" ">
<polygon fill="white" stroke="black" points="417,-312.5 417,-364.5 603,-364.5 603,-312.5 417,-312.5"/>
<text text-anchor="start" x="425" y="-352.5" font-family="Helvetica,sans-Serif" font-size="10.00">ACSL&#45;flightstack&#45;winged</text>
<text text-anchor="start" x="425" y="-341.5" font-family="Helvetica,sans-Serif" font-size="10.00">/src/acsl_flight/src/control</text>
<text text-anchor="start" x="425" y="-330.5" font-family="Helvetica,sans-Serif" font-size="10.00">/platforms/qrbp/control_algorithms</text>
<text text-anchor="middle" x="510" y="-319.5" font-family="Helvetica,sans-Serif" font-size="10.00">/PID_OMEGA/PID_OMEGA.cpp</text>
</a>
</g>
</g>
<!-- Node1&#45;&gt;Node13 -->
<g id="edge16" class="edge">
<title>Node1&#45;&gt;Node13</title>
<path fill="none" stroke="midnightblue" d="M455.46,-394.33C465.36,-384.38 475.8,-373.88 484.87,-364.77"/>
<polygon fill="midnightblue" stroke="midnightblue" points="452.95,-391.9 448.38,-401.46 457.91,-396.83 452.95,-391.9"/>
</g>
<!-- Node3 -->
<g id="node3" class="node">
<title>Node3</title>
<g id="a_node3"><a xlink:href="control_8hpp.html" target="_top" xlink:title="Class declaration for computing and publishing the control.">
<polygon fill="white" stroke="black" points="114.5,-234.5 114.5,-275.5 249.5,-275.5 249.5,-234.5 114.5,-234.5"/>
<text text-anchor="start" x="122.5" y="-263.5" font-family="Helvetica,sans-Serif" font-size="10.00">ACSL&#45;flightstack&#45;winged</text>
<text text-anchor="start" x="122.5" y="-252.5" font-family="Helvetica,sans-Serif" font-size="10.00">/src/acsl_flight/include</text>
<text text-anchor="middle" x="182" y="-241.5" font-family="Helvetica,sans-Serif" font-size="10.00">/control/control.hpp</text>
</a>
</g>
</g>
<!-- Node2&#45;&gt;Node3 -->
<g id="edge2" class="edge">
<title>Node2&#45;&gt;Node3</title>
<path fill="none" stroke="midnightblue" d="M282.73,-313.01C261.61,-301.06 236.55,-286.87 216.71,-275.64"/>
<polygon fill="midnightblue" stroke="midnightblue" points="281.08,-316.1 291.51,-317.98 284.53,-310.01 281.08,-316.1"/>
</g>
<!-- Node4 -->
<g id="node4" class="node">
<title>Node4</title>
<g id="a_node4"><a xlink:href="flight__bridge_8hpp.html" target="_top" xlink:title=" ">
<polygon fill="white" stroke="black" points="158.5,-156.5 158.5,-197.5 323.5,-197.5 323.5,-156.5 158.5,-156.5"/>
<text text-anchor="start" x="166.5" y="-185.5" font-family="Helvetica,sans-Serif" font-size="10.00">ACSL&#45;flightstack&#45;winged</text>
<text text-anchor="start" x="166.5" y="-174.5" font-family="Helvetica,sans-Serif" font-size="10.00">/src/acsl_flight/include</text>
<text text-anchor="middle" x="241" y="-163.5" font-family="Helvetica,sans-Serif" font-size="10.00">/flight_bridge/flight_bridge.hpp</text>
</a>
</g>
</g>
<!-- Node2&#45;&gt;Node4 -->
<g id="edge9" class="edge">
<title>Node2&#45;&gt;Node4</title>
<path fill="none" stroke="midnightblue" d="M310.84,-309.05C293.74,-276.97 266.4,-225.67 251.51,-197.72"/>
<polygon fill="midnightblue" stroke="midnightblue" points="307.79,-310.76 315.58,-317.94 313.96,-307.47 307.79,-310.76"/>
</g>
<!-- Node9 -->
<g id="node9" class="node">
<title>Node9</title>
<g id="a_node9"><a xlink:href="mocap_8hpp.html" target="_top" xlink:title="Class declaration for UDP socket as a lifecycle node.">
<polygon fill="white" stroke="black" points="306.5,-234.5 306.5,-275.5 441.5,-275.5 441.5,-234.5 306.5,-234.5"/>
<text text-anchor="start" x="314.5" y="-263.5" font-family="Helvetica,sans-Serif" font-size="10.00">ACSL&#45;flightstack&#45;winged</text>
<text text-anchor="start" x="314.5" y="-252.5" font-family="Helvetica,sans-Serif" font-size="10.00">/src/acsl_flight/include</text>
<text text-anchor="middle" x="374" y="-241.5" font-family="Helvetica,sans-Serif" font-size="10.00">/mocap/mocap.hpp</text>
</a>
</g>
</g>
<!-- Node2&#45;&gt;Node9 -->
<g id="edge10" class="edge">
<title>Node2&#45;&gt;Node9</title>
<path fill="none" stroke="midnightblue" d="M342.85,-308.89C349.34,-297.87 356.61,-285.53 362.49,-275.55"/>
<polygon fill="midnightblue" stroke="midnightblue" points="339.68,-307.38 337.62,-317.77 345.71,-310.93 339.68,-307.38"/>
</g>
<!-- Node11 -->
<g id="node11" class="node">
<title>Node11</title>
<g id="a_node11"><a xlink:href="vio_8hpp.html" target="_top" xlink:title=" ">
<polygon fill="white" stroke="black" points="459.5,-234.5 459.5,-275.5 594.5,-275.5 594.5,-234.5 459.5,-234.5"/>
<text text-anchor="start" x="467.5" y="-263.5" font-family="Helvetica,sans-Serif" font-size="10.00">ACSL&#45;flightstack&#45;winged</text>
<text text-anchor="start" x="467.5" y="-252.5" font-family="Helvetica,sans-Serif" font-size="10.00">/src/acsl_flight/include</text>
<text text-anchor="middle" x="527" y="-241.5" font-family="Helvetica,sans-Serif" font-size="10.00">/vio/vio.hpp</text>
</a>
</g>
</g>
<!-- Node2&#45;&gt;Node11 -->
<g id="edge13" class="edge">
<title>Node2&#45;&gt;Node11</title>
<path fill="none" stroke="midnightblue" d="M383.69,-314.11C413.84,-301.89 450.3,-287.1 478.9,-275.5"/>
<polygon fill="midnightblue" stroke="midnightblue" points="382.1,-310.98 374.14,-317.98 384.73,-317.46 382.1,-310.98"/>
</g>
<!-- Node3&#45;&gt;Node4 -->
<g id="edge3" class="edge">
<title>Node3&#45;&gt;Node4</title>
<path fill="none" stroke="midnightblue" d="M197.16,-226.05C204.11,-216.57 212.36,-206.18 219.88,-197.51"/>
<polygon fill="midnightblue" stroke="midnightblue" points="194.15,-224.25 191.21,-234.43 199.85,-228.31 194.15,-224.25"/>
</g>
<!-- Node8 -->
<g id="node8" class="node">
<title>Node8</title>
<g id="a_node8"><a xlink:href="control_8cpp.html" target="_top" xlink:title=" ">
<polygon fill="white" stroke="black" points="0,-156.5 0,-197.5 140,-197.5 140,-156.5 0,-156.5"/>
<text text-anchor="start" x="8" y="-185.5" font-family="Helvetica,sans-Serif" font-size="10.00">ACSL&#45;flightstack&#45;winged</text>
<text text-anchor="start" x="8" y="-174.5" font-family="Helvetica,sans-Serif" font-size="10.00">/src/acsl_flight/src/control</text>
<text text-anchor="middle" x="70" y="-163.5" font-family="Helvetica,sans-Serif" font-size="10.00">/control.cpp</text>
</a>
</g>
</g>
<!-- Node3&#45;&gt;Node8 -->
<g id="edge8" class="edge">
<title>Node3&#45;&gt;Node8</title>
<path fill="none" stroke="midnightblue" d="M144.62,-228.64C129.66,-218.49 112.71,-206.98 98.75,-197.51"/>
<polygon fill="midnightblue" stroke="midnightblue" points="142.92,-231.71 153.16,-234.43 146.85,-225.92 142.92,-231.71"/>
</g>
<!-- Node4&#45;&gt;Node3 -->
<g id="edge4" class="edge">
<title>Node4&#45;&gt;Node3</title>
<path fill="none" stroke="midnightblue" d="M225.89,-205.88C218.95,-215.36 210.71,-225.74 203.18,-234.43"/>
<polygon fill="midnightblue" stroke="midnightblue" points="228.9,-207.68 231.84,-197.51 223.19,-203.63 228.9,-207.68"/>
</g>
<!-- Node5 -->
<g id="node5" class="node">
<title>Node5</title>
<g id="a_node5"><a xlink:href="flight__main_8hpp.html" target="_top" xlink:title=" ">
<polygon fill="white" stroke="black" points="83.5,-78.5 83.5,-119.5 236.5,-119.5 236.5,-78.5 83.5,-78.5"/>
<text text-anchor="start" x="91.5" y="-107.5" font-family="Helvetica,sans-Serif" font-size="10.00">ACSL&#45;flightstack&#45;winged</text>
<text text-anchor="start" x="91.5" y="-96.5" font-family="Helvetica,sans-Serif" font-size="10.00">/src/acsl_flight/include</text>
<text text-anchor="middle" x="160" y="-85.5" font-family="Helvetica,sans-Serif" font-size="10.00">/flight_main/flight_main.hpp</text>
</a>
</g>
</g>
<!-- Node4&#45;&gt;Node5 -->
<g id="edge5" class="edge">
<title>Node4&#45;&gt;Node5</title>
<path fill="none" stroke="midnightblue" d="M212.75,-149.49C202.24,-139.63 190.51,-128.63 180.79,-119.51"/>
<polygon fill="midnightblue" stroke="midnightblue" points="210.45,-152.14 220.14,-156.43 215.24,-147.03 210.45,-152.14"/>
</g>
<!-- Node7 -->
<g id="node7" class="node">
<title>Node7</title>
<g id="a_node7"><a xlink:href="flight__bridge_8cpp.html" target="_top" xlink:title=" ">
<polygon fill="white" stroke="black" points="254.5,-78.5 254.5,-119.5 391.5,-119.5 391.5,-78.5 254.5,-78.5"/>
<text text-anchor="start" x="262.5" y="-107.5" font-family="Helvetica,sans-Serif" font-size="10.00">ACSL&#45;flightstack&#45;winged</text>
<text text-anchor="start" x="262.5" y="-96.5" font-family="Helvetica,sans-Serif" font-size="10.00">/src/acsl_flight/src/flight</text>
<text text-anchor="middle" x="323" y="-85.5" font-family="Helvetica,sans-Serif" font-size="10.00">_bridge/flight_bridge.cpp</text>
</a>
</g>
</g>
<!-- Node4&#45;&gt;Node7 -->
<g id="edge7" class="edge">
<title>Node4&#45;&gt;Node7</title>
<path fill="none" stroke="midnightblue" d="M269.6,-149.49C280.24,-139.63 292.11,-128.63 301.95,-119.51"/>
<polygon fill="midnightblue" stroke="midnightblue" points="267.07,-147.06 262.12,-156.43 271.83,-152.2 267.07,-147.06"/>
</g>
<!-- Node6 -->
<g id="node6" class="node">
<title>Node6</title>
<g id="a_node6"><a xlink:href="flight__main_8cpp.html" target="_top" xlink:title=" ">
<polygon fill="white" stroke="black" points="92.5,-0.5 92.5,-41.5 227.5,-41.5 227.5,-0.5 92.5,-0.5"/>
<text text-anchor="start" x="100.5" y="-29.5" font-family="Helvetica,sans-Serif" font-size="10.00">ACSL&#45;flightstack&#45;winged</text>
<text text-anchor="start" x="100.5" y="-18.5" font-family="Helvetica,sans-Serif" font-size="10.00">/src/acsl_flight/src/flight</text>
<text text-anchor="middle" x="160" y="-7.5" font-family="Helvetica,sans-Serif" font-size="10.00">_main/flight_main.cpp</text>
</a>
</g>
</g>
<!-- Node5&#45;&gt;Node6 -->
<g id="edge6" class="edge">
<title>Node5&#45;&gt;Node6</title>
<path fill="none" stroke="midnightblue" d="M160,-68.3C160,-59.3 160,-49.65 160,-41.51"/>
<polygon fill="midnightblue" stroke="midnightblue" points="156.5,-68.43 160,-78.43 163.5,-68.43 156.5,-68.43"/>
</g>
<!-- Node9&#45;&gt;Node4 -->
<g id="edge11" class="edge">
<title>Node9&#45;&gt;Node4</title>
<path fill="none" stroke="midnightblue" d="M330.61,-229.2C312.61,-218.92 292.03,-207.16 275.13,-197.51"/>
<polygon fill="midnightblue" stroke="midnightblue" points="329.33,-232.51 339.75,-234.43 332.8,-226.43 329.33,-232.51"/>
</g>
<!-- Node10 -->
<g id="node10" class="node">
<title>Node10</title>
<g id="a_node10"><a xlink:href="mocap_8cpp.html" target="_top" xlink:title=" ">
<polygon fill="white" stroke="black" points="342,-156.5 342,-197.5 482,-197.5 482,-156.5 342,-156.5"/>
<text text-anchor="start" x="350" y="-185.5" font-family="Helvetica,sans-Serif" font-size="10.00">ACSL&#45;flightstack&#45;winged</text>
<text text-anchor="start" x="350" y="-174.5" font-family="Helvetica,sans-Serif" font-size="10.00">/src/acsl_flight/src/mocap</text>
<text text-anchor="middle" x="412" y="-163.5" font-family="Helvetica,sans-Serif" font-size="10.00">/mocap.cpp</text>
</a>
</g>
</g>
<!-- Node9&#45;&gt;Node10 -->
<g id="edge12" class="edge">
<title>Node9&#45;&gt;Node10</title>
<path fill="none" stroke="midnightblue" d="M388.27,-225.47C392.93,-216.14 398,-206.01 402.25,-197.51"/>
<polygon fill="midnightblue" stroke="midnightblue" points="385.13,-223.92 383.79,-234.43 391.39,-227.05 385.13,-223.92"/>
</g>
<!-- Node11&#45;&gt;Node4 -->
<g id="edge14" class="edge">
<title>Node11&#45;&gt;Node4</title>
<path fill="none" stroke="midnightblue" d="M449.33,-233.36C407.37,-222.21 355.86,-208.52 314.56,-197.55"/>
<polygon fill="midnightblue" stroke="midnightblue" points="448.66,-236.8 459.22,-235.99 450.46,-230.04 448.66,-236.8"/>
</g>
<!-- Node12 -->
<g id="node12" class="node">
<title>Node12</title>
<g id="a_node12"><a xlink:href="vio_8cpp.html" target="_top" xlink:title=" ">
<polygon fill="white" stroke="black" points="500.5,-156.5 500.5,-197.5 635.5,-197.5 635.5,-156.5 500.5,-156.5"/>
<text text-anchor="start" x="508.5" y="-185.5" font-family="Helvetica,sans-Serif" font-size="10.00">ACSL&#45;flightstack&#45;winged</text>
<text text-anchor="start" x="508.5" y="-174.5" font-family="Helvetica,sans-Serif" font-size="10.00">/src/acsl_flight/src/vio</text>
<text text-anchor="middle" x="568" y="-163.5" font-family="Helvetica,sans-Serif" font-size="10.00">/vio.cpp</text>
</a>
</g>
</g>
<!-- Node11&#45;&gt;Node12 -->
<g id="edge15" class="edge">
<title>Node11&#45;&gt;Node12</title>
<path fill="none" stroke="midnightblue" d="M542.39,-225.47C547.42,-216.14 552.89,-206.01 557.48,-197.51"/>
<polygon fill="midnightblue" stroke="midnightblue" points="539.23,-223.97 537.56,-234.43 545.39,-227.29 539.23,-223.97"/>
</g>
</g>
</svg>
