<?xml version="1.0" encoding="UTF-8" standalone="no"?>
<!DOCTYPE svg PUBLIC "-//W3C//DTD SVG 1.1//EN"
 "http://www.w3.org/Graphics/SVG/1.1/DTD/svg11.dtd">
<!-- Generated by graphviz version 2.43.0 (0)
 -->
<!-- Title: ACSL&#45;flightstack&#45;winged/src/acsl_flight/include/control/platforms/qrbp/control_algorithms/PID_OMEGA/PID_OMEGA_logger.hpp Pages: 1 -->
<!--zoomable 363 -->
<svg id="main" version="1.1" xmlns="http://www.w3.org/2000/svg" xmlns:xlink="http://www.w3.org/1999/xlink" xml:space="preserve" onload="init(evt)">
<style type="text/css"><![CDATA[
.edge:hover path { stroke: red; }
.edge:hover polygon { stroke: red; fill: red; }
]]></style>
<script type="text/javascript"><![CDATA[
var edges = document.getElementsByTagName('g');
if (edges && edges.length) {
  for (var i=0;i<edges.length;i++) {
    if (edges[i].id.substr(0,4)=='edge') {
      edges[i].setAttribute('class','edge');
    }
  }
}
]]></script>
        <defs>
                <circle id="rim" cx="0" cy="0" r="7"/>
                <circle id="rim2" cx="0" cy="0" r="3.5"/>
                <g id="zoomPlus">
                        <use xlink:href="#rim" fill="#404040">
                                <set attributeName="fill" to="#808080" begin="zoomplus.mouseover" end="zoomplus.mouseout"/>
                        </use>
                        <path d="M-4,0h8M0,-4v8" fill="none" stroke="white" stroke-width="1.5" pointer-events="none"/>
                </g>
                <g id="zoomMin">
                        <use xlink:href="#rim" fill="#404040">
                                <set attributeName="fill" to="#808080" begin="zoomminus.mouseover" end="zoomminus.mouseout"/>
                        </use>
                        <path d="M-4,0h8" fill="none" stroke="white" stroke-width="1.5" pointer-events="none"/>
                </g>
                <g id="dirArrow">
                        <path fill="none" stroke="white" stroke-width="1.5" d="M0,-3.0v7 M-2.5,-0.5L0,-3.0L2.5,-0.5"/>
                </g>
               <g id="resetDef">
                       <use xlink:href="#rim2" fill="#404040">
                               <set attributeName="fill" to="#808080" begin="reset.mouseover" end="reset.mouseout"/>
                       </use>
               </g>
        </defs>

<script type="text/javascript">
var viewWidth = 5312;
var viewHeight = 363;
var sectionId = 'dynsection-0';
</script>
<script xlink:href="svgpan.js"/>
<svg id="graph" class="graph">
<g id="viewport">
<title>ACSL&#45;flightstack&#45;winged/src/acsl_flight/include/control/platforms/qrbp/control_algorithms/PID_OMEGA/PID_OMEGA_logger.hpp</title>
<polygon fill="white" stroke="transparent" points="-4,4 -4,-359 5308,-359 5308,4 -4,4"/>
<!-- Node1 -->
<g id="node1" class="node">
<title>Node1</title>
<g id="a_node1"><a xlink:title="Logger for the PID controller.">
<polygon fill="#bfbfbf" stroke="black" points="1460,-291.5 1460,-354.5 1633,-354.5 1633,-291.5 1460,-291.5"/>
<text text-anchor="start" x="1468" y="-342.5" font-family="Helvetica,sans-Serif" font-size="10.00">ACSL&#45;flightstack&#45;winged</text>
<text text-anchor="start" x="1468" y="-331.5" font-family="Helvetica,sans-Serif" font-size="10.00">/src/acsl_flight/include</text>
<text text-anchor="start" x="1468" y="-320.5" font-family="Helvetica,sans-Serif" font-size="10.00">/control/platforms/qrbp</text>
<text text-anchor="start" x="1468" y="-309.5" font-family="Helvetica,sans-Serif" font-size="10.00">/control_algorithms/PID_OMEGA</text>
<text text-anchor="middle" x="1546.5" y="-298.5" font-family="Helvetica,sans-Serif" font-size="10.00">/PID_OMEGA_logger.hpp</text>
</a>
</g>
</g>
<!-- Node2 -->
<g id="node2" class="node">
<title>Node2</title>
<g id="a_node2"><a xlink:href="PID__OMEGA__members_8hpp.html" target="_top" xlink:title="PID with angular velocities controller class members.">
<polygon fill="white" stroke="black" points="1352.5,-235.5 1352.5,-254.5 1500.5,-254.5 1500.5,-235.5 1352.5,-235.5"/>
<text text-anchor="middle" x="1426.5" y="-242.5" font-family="Helvetica,sans-Serif" font-size="10.00">PID_OMEGA_members.hpp</text>
</a>
</g>
</g>
<!-- Node1&#45;&gt;Node2 -->
<g id="edge1" class="edge">
<title>Node1&#45;&gt;Node2</title>
<path fill="none" stroke="midnightblue" d="M1498.04,-291.31C1481.02,-280.53 1462.71,-268.94 1448.88,-260.17"/>
<polygon fill="midnightblue" stroke="midnightblue" points="1450.41,-257 1440.09,-254.61 1446.67,-262.91 1450.41,-257"/>
</g>
<!-- Node36 -->
<g id="node24" class="node">
<title>Node36</title>
<g id="a_node24"><a xlink:href="flight__log_8hpp.html" target="_top" xlink:title="Utilities for logging flight data.">
<polygon fill="white" stroke="black" points="3170,-67.5 3170,-86.5 3253,-86.5 3253,-67.5 3170,-67.5"/>
<text text-anchor="middle" x="3211.5" y="-74.5" font-family="Helvetica,sans-Serif" font-size="10.00">flight_log.hpp</text>
</a>
</g>
</g>
<!-- Node1&#45;&gt;Node36 -->
<g id="edge29" class="edge">
<title>Node1&#45;&gt;Node36</title>
<path fill="none" stroke="midnightblue" d="M1633.09,-309.31C1933.02,-265.36 2922.13,-120.41 3159.81,-85.57"/>
<polygon fill="midnightblue" stroke="midnightblue" points="3160.52,-89.01 3169.91,-84.1 3159.51,-82.08 3160.52,-89.01"/>
</g>
<!-- Node61 -->
<g id="node49" class="node">
<title>Node61</title>
<g id="a_node49"><a xlink:href="global__helpers_8hpp.html" target="_top" xlink:title="Inline functions for all the classes of the flighstack to use.">
<polygon fill="white" stroke="black" points="1492,-67.5 1492,-86.5 1601,-86.5 1601,-67.5 1492,-67.5"/>
<text text-anchor="middle" x="1546.5" y="-74.5" font-family="Helvetica,sans-Serif" font-size="10.00">global_helpers.hpp</text>
</a>
</g>
</g>
<!-- Node1&#45;&gt;Node61 -->
<g id="edge58" class="edge">
<title>Node1&#45;&gt;Node61</title>
<path fill="none" stroke="midnightblue" d="M1546.5,-291.1C1546.5,-239.76 1546.5,-138.41 1546.5,-96.65"/>
<polygon fill="midnightblue" stroke="midnightblue" points="1550,-96.55 1546.5,-86.55 1543,-96.55 1550,-96.55"/>
</g>
<!-- Node3 -->
<g id="node3" class="node">
<title>Node3</title>
<g id="a_node3"><a xlink:title=" ">
<polygon fill="white" stroke="#bfbfbf" points="1359,-6 1359,-25 1436,-25 1436,-6 1359,-6"/>
<text text-anchor="middle" x="1397.5" y="-13" font-family="Helvetica,sans-Serif" font-size="10.00">Eigen/Dense</text>
</a>
</g>
</g>
<!-- Node2&#45;&gt;Node3 -->
<g id="edge2" class="edge">
<title>Node2&#45;&gt;Node3</title>
<path fill="none" stroke="midnightblue" d="M1425.4,-235.36C1421.15,-202.07 1405.81,-81.65 1399.87,-35.07"/>
<polygon fill="midnightblue" stroke="midnightblue" points="1403.34,-34.63 1398.6,-25.15 1396.4,-35.51 1403.34,-34.63"/>
</g>
<!-- Node4 -->
<g id="node4" class="node">
<title>Node4</title>
<g id="a_node4"><a xlink:title=" ">
<polygon fill="white" stroke="#bfbfbf" points="1892.5,-6 1892.5,-25 1942.5,-25 1942.5,-6 1892.5,-6"/>
<text text-anchor="middle" x="1917.5" y="-13" font-family="Helvetica,sans-Serif" font-size="10.00">chrono</text>
</a>
</g>
</g>
<!-- Node2&#45;&gt;Node4 -->
<g id="edge3" class="edge">
<title>Node2&#45;&gt;Node4</title>
<path fill="none" stroke="midnightblue" d="M1444.85,-235.5C1519.44,-200.94 1800.16,-70.87 1889.8,-29.33"/>
<polygon fill="midnightblue" stroke="midnightblue" points="1891.45,-32.43 1899.06,-25.05 1888.51,-26.07 1891.45,-32.43"/>
</g>
<!-- Node5 -->
<g id="node5" class="node">
<title>Node5</title>
<g id="a_node5"><a xlink:href="qrbp_8hpp.html" target="_top" xlink:title="Vehicle Information of the QRBP with the NACA 0012 wings and the Velox V2808 kv1300 motors used in al...">
<polygon fill="white" stroke="black" points="1288,-123.5 1288,-142.5 1347,-142.5 1347,-123.5 1288,-123.5"/>
<text text-anchor="middle" x="1317.5" y="-130.5" font-family="Helvetica,sans-Serif" font-size="10.00">qrbp.hpp</text>
</a>
</g>
</g>
<!-- Node2&#45;&gt;Node5 -->
<g id="edge4" class="edge">
<title>Node2&#45;&gt;Node5</title>
<path fill="none" stroke="midnightblue" d="M1419.48,-235.25C1409.06,-222.44 1388.67,-198.04 1369.5,-179 1358.91,-168.48 1346.27,-157.51 1336.1,-149.03"/>
<polygon fill="midnightblue" stroke="midnightblue" points="1338.18,-146.21 1328.24,-142.56 1333.73,-151.62 1338.18,-146.21"/>
</g>
<!-- Node35 -->
<g id="node23" class="node">
<title>Node35</title>
<g id="a_node23"><a xlink:href="aero__qrbp_8hpp.html" target="_top" xlink:title="Aerodynamics class for all algorithms to use with the grbp platform of ACSL.">
<polygon fill="white" stroke="black" points="1274.5,-179.5 1274.5,-198.5 1360.5,-198.5 1360.5,-179.5 1274.5,-179.5"/>
<text text-anchor="middle" x="1317.5" y="-186.5" font-family="Helvetica,sans-Serif" font-size="10.00">aero_qrbp.hpp</text>
</a>
</g>
</g>
<!-- Node2&#45;&gt;Node35 -->
<g id="edge27" class="edge">
<title>Node2&#45;&gt;Node35</title>
<path fill="none" stroke="midnightblue" d="M1408.99,-235.32C1391.43,-226.62 1364.17,-213.12 1343.97,-203.11"/>
<polygon fill="midnightblue" stroke="midnightblue" points="1345.48,-199.96 1334.97,-198.65 1342.38,-206.23 1345.48,-199.96"/>
</g>
<!-- Node5&#45;&gt;Node3 -->
<g id="edge5" class="edge">
<title>Node5&#45;&gt;Node3</title>
<path fill="none" stroke="midnightblue" d="M1323.51,-123.32C1336.66,-104.34 1368.17,-58.85 1385.53,-33.79"/>
<polygon fill="midnightblue" stroke="midnightblue" points="1388.6,-35.5 1391.42,-25.28 1382.85,-31.51 1388.6,-35.5"/>
</g>
<!-- Node6 -->
<g id="node6" class="node">
<title>Node6</title>
<g id="a_node6"><a xlink:title=" ">
<polygon fill="white" stroke="#bfbfbf" points="1294,-6 1294,-25 1341,-25 1341,-6 1294,-6"/>
<text text-anchor="middle" x="1317.5" y="-13" font-family="Helvetica,sans-Serif" font-size="10.00">cmath</text>
</a>
</g>
</g>
<!-- Node5&#45;&gt;Node6 -->
<g id="edge6" class="edge">
<title>Node5&#45;&gt;Node6</title>
<path fill="none" stroke="midnightblue" d="M1317.5,-123.32C1317.5,-104.76 1317.5,-60.84 1317.5,-35.47"/>
<polygon fill="midnightblue" stroke="midnightblue" points="1321,-35.28 1317.5,-25.28 1314,-35.28 1321,-35.28"/>
</g>
<!-- Node7 -->
<g id="node7" class="node">
<title>Node7</title>
<g id="a_node7"><a xlink:title=" ">
<polygon fill="white" stroke="#bfbfbf" points="0,-6 0,-25 51,-25 51,-6 0,-6"/>
<text text-anchor="middle" x="25.5" y="-13" font-family="Helvetica,sans-Serif" font-size="10.00">math.h</text>
</a>
</g>
</g>
<!-- Node5&#45;&gt;Node7 -->
<g id="edge7" class="edge">
<title>Node5&#45;&gt;Node7</title>
<path fill="none" stroke="midnightblue" d="M1287.73,-130.87C1121.3,-124.36 304.73,-89.85 60.5,-31 57.98,-30.39 55.41,-29.63 52.86,-28.77"/>
<polygon fill="midnightblue" stroke="midnightblue" points="53.9,-25.42 43.3,-25.13 51.41,-31.96 53.9,-25.42"/>
</g>
<!-- Node8 -->
<g id="node8" class="node">
<title>Node8</title>
<g id="a_node8"><a xlink:href="helper__functions_8hpp.html" target="_top" xlink:title="Definitions of some standard templates used in all controllers.">
<polygon fill="white" stroke="red" points="1161,-67.5 1161,-86.5 1280,-86.5 1280,-67.5 1161,-67.5"/>
<text text-anchor="middle" x="1220.5" y="-74.5" font-family="Helvetica,sans-Serif" font-size="10.00">helper_functions.hpp</text>
</a>
</g>
</g>
<!-- Node5&#45;&gt;Node8 -->
<g id="edge8" class="edge">
<title>Node5&#45;&gt;Node8</title>
<path fill="none" stroke="midnightblue" d="M1301.92,-123.32C1286.5,-114.74 1262.69,-101.49 1244.79,-91.52"/>
<polygon fill="midnightblue" stroke="midnightblue" points="1246.49,-88.46 1236.05,-86.65 1243.08,-94.58 1246.49,-88.46"/>
</g>
<!-- Node8&#45;&gt;Node3 -->
<g id="edge10" class="edge">
<title>Node8&#45;&gt;Node3</title>
<path fill="none" stroke="midnightblue" d="M1245.86,-67.48C1276.48,-57.18 1328.16,-39.81 1362.55,-28.25"/>
<polygon fill="midnightblue" stroke="midnightblue" points="1363.82,-31.51 1372.19,-25.01 1361.59,-24.88 1363.82,-31.51"/>
</g>
<!-- Node8&#45;&gt;Node4 -->
<g id="edge26" class="edge">
<title>Node8&#45;&gt;Node4</title>
<path fill="none" stroke="midnightblue" d="M1280.16,-73.09C1432.1,-65.53 1825.76,-44.85 1883.5,-31 1886.01,-30.4 1888.57,-29.63 1891.11,-28.75"/>
<polygon fill="midnightblue" stroke="midnightblue" points="1892.56,-31.95 1900.59,-25.03 1890,-25.43 1892.56,-31.95"/>
</g>
<!-- Node8&#45;&gt;Node6 -->
<g id="edge20" class="edge">
<title>Node8&#45;&gt;Node6</title>
<path fill="none" stroke="midnightblue" d="M1234.4,-67.48C1250.17,-57.8 1276.14,-41.87 1294.85,-30.39"/>
<polygon fill="midnightblue" stroke="midnightblue" points="1296.93,-33.22 1303.63,-25.01 1293.27,-27.25 1296.93,-33.22"/>
</g>
<!-- Node8&#45;&gt;Node7 -->
<g id="edge21" class="edge">
<title>Node8&#45;&gt;Node7</title>
<path fill="none" stroke="midnightblue" d="M1160.81,-74.92C938.81,-70.72 168.16,-54.6 60.5,-31 57.82,-30.41 55.09,-29.63 52.39,-28.74"/>
<polygon fill="midnightblue" stroke="midnightblue" points="53.5,-25.42 42.91,-25.13 51.01,-31.96 53.5,-25.42"/>
</g>
<!-- Node9 -->
<g id="node9" class="node">
<title>Node9</title>
<g id="a_node9"><a xlink:title=" ">
<polygon fill="white" stroke="#bfbfbf" points="1105.5,-6 1105.5,-25 1147.5,-25 1147.5,-6 1105.5,-6"/>
<text text-anchor="middle" x="1126.5" y="-13" font-family="Helvetica,sans-Serif" font-size="10.00">array</text>
</a>
</g>
</g>
<!-- Node8&#45;&gt;Node9 -->
<g id="edge9" class="edge">
<title>Node8&#45;&gt;Node9</title>
<path fill="none" stroke="midnightblue" d="M1207.03,-67.48C1191.82,-57.84 1166.81,-42.02 1148.7,-30.55"/>
<polygon fill="midnightblue" stroke="midnightblue" points="1150.26,-27.4 1139.94,-25.01 1146.52,-33.31 1150.26,-27.4"/>
</g>
<!-- Node10 -->
<g id="node10" class="node">
<title>Node10</title>
<g id="a_node10"><a xlink:title=" ">
<polygon fill="white" stroke="#bfbfbf" points="1165.5,-6 1165.5,-25 1275.5,-25 1275.5,-6 1165.5,-6"/>
<text text-anchor="middle" x="1220.5" y="-13" font-family="Helvetica,sans-Serif" font-size="10.00">nlohmann/json.hpp</text>
</a>
</g>
</g>
<!-- Node8&#45;&gt;Node10 -->
<g id="edge11" class="edge">
<title>Node8&#45;&gt;Node10</title>
<path fill="none" stroke="midnightblue" d="M1220.5,-67.48C1220.5,-59.08 1220.5,-45.98 1220.5,-35.16"/>
<polygon fill="midnightblue" stroke="midnightblue" points="1224,-35.01 1220.5,-25.01 1217,-35.01 1224,-35.01"/>
</g>
<!-- Node11 -->
<g id="node11" class="node">
<title>Node11</title>
<g id="a_node11"><a xlink:title=" ">
<polygon fill="white" stroke="#bfbfbf" points="69.5,-6 69.5,-25 161.5,-25 161.5,-6 69.5,-6"/>
<text text-anchor="middle" x="115.5" y="-13" font-family="Helvetica,sans-Serif" font-size="10.00">boost/array.hpp</text>
</a>
</g>
</g>
<!-- Node8&#45;&gt;Node11 -->
<g id="edge12" class="edge">
<title>Node8&#45;&gt;Node11</title>
<path fill="none" stroke="midnightblue" d="M1160.91,-75.13C968.27,-72.05 363.64,-60.25 170.5,-31 164.89,-30.15 159.02,-28.95 153.3,-27.6"/>
<polygon fill="midnightblue" stroke="midnightblue" points="153.79,-24.12 143.24,-25.05 152.07,-30.9 153.79,-24.12"/>
</g>
<!-- Node12 -->
<g id="node12" class="node">
<title>Node12</title>
<g id="a_node12"><a xlink:title=" ">
<polygon fill="white" stroke="#bfbfbf" points="180,-6 180,-25 293,-25 293,-6 180,-6"/>
<text text-anchor="middle" x="236.5" y="-13" font-family="Helvetica,sans-Serif" font-size="10.00">boost/bind/bind.hpp</text>
</a>
</g>
</g>
<!-- Node8&#45;&gt;Node12 -->
<g id="edge13" class="edge">
<title>Node8&#45;&gt;Node12</title>
<path fill="none" stroke="midnightblue" d="M1160.85,-76.52C1014.12,-77.04 624.17,-73.91 302.5,-31 295.22,-30.03 287.56,-28.67 280.14,-27.16"/>
<polygon fill="midnightblue" stroke="midnightblue" points="280.73,-23.71 270.22,-25.05 279.27,-30.56 280.73,-23.71"/>
</g>
<!-- Node13 -->
<g id="node13" class="node">
<title>Node13</title>
<g id="a_node13"><a xlink:title=" ">
<polygon fill="white" stroke="#bfbfbf" points="311.5,-6 311.5,-25 465.5,-25 465.5,-6 311.5,-6"/>
<text text-anchor="middle" x="388.5" y="-13" font-family="Helvetica,sans-Serif" font-size="10.00">boost/bind/placeholders.hpp</text>
</a>
</g>
</g>
<!-- Node8&#45;&gt;Node13 -->
<g id="edge14" class="edge">
<title>Node8&#45;&gt;Node13</title>
<path fill="none" stroke="midnightblue" d="M1160.84,-74.56C1034.1,-71.04 728.78,-60.02 474.5,-31 464.46,-29.85 453.81,-28.32 443.55,-26.68"/>
<polygon fill="midnightblue" stroke="midnightblue" points="443.89,-23.19 433.45,-25.01 442.75,-30.09 443.89,-23.19"/>
</g>
<!-- Node14 -->
<g id="node14" class="node">
<title>Node14</title>
<g id="a_node14"><a xlink:title=" ">
<polygon fill="white" stroke="#bfbfbf" points="484,-6 484,-25 625,-25 625,-6 484,-6"/>
<text text-anchor="middle" x="554.5" y="-13" font-family="Helvetica,sans-Serif" font-size="10.00">boost/numeric/odeint.hpp</text>
</a>
</g>
</g>
<!-- Node8&#45;&gt;Node14 -->
<g id="edge15" class="edge">
<title>Node8&#45;&gt;Node14</title>
<path fill="none" stroke="midnightblue" d="M1160.82,-73.44C1054.63,-68.44 826.02,-55.64 634.5,-31 625.65,-29.86 616.29,-28.4 607.22,-26.85"/>
<polygon fill="midnightblue" stroke="midnightblue" points="607.59,-23.36 597.14,-25.07 606.38,-30.25 607.59,-23.36"/>
</g>
<!-- Node15 -->
<g id="node15" class="node">
<title>Node15</title>
<g id="a_node15"><a xlink:title=" ">
<polygon fill="white" stroke="#bfbfbf" points="643.5,-6 643.5,-25 791.5,-25 791.5,-6 643.5,-6"/>
<text text-anchor="middle" x="717.5" y="-13" font-family="Helvetica,sans-Serif" font-size="10.00">boost/numeric/interval.hpp</text>
</a>
</g>
</g>
<!-- Node8&#45;&gt;Node15 -->
<g id="edge16" class="edge">
<title>Node8&#45;&gt;Node15</title>
<path fill="none" stroke="midnightblue" d="M1160.88,-70.86C1079.32,-63.55 928.49,-49.02 800.5,-31 791.66,-29.76 782.32,-28.28 773.21,-26.76"/>
<polygon fill="midnightblue" stroke="midnightblue" points="773.52,-23.26 763.08,-25.02 772.34,-30.16 773.52,-23.26"/>
</g>
<!-- Node16 -->
<g id="node16" class="node">
<title>Node16</title>
<g id="a_node16"><a xlink:title=" ">
<polygon fill="white" stroke="#bfbfbf" points="809.5,-0.5 809.5,-30.5 953.5,-30.5 953.5,-0.5 809.5,-0.5"/>
<text text-anchor="start" x="817.5" y="-18.5" font-family="Helvetica,sans-Serif" font-size="10.00">boost/numeric/odeint</text>
<text text-anchor="middle" x="881.5" y="-7.5" font-family="Helvetica,sans-Serif" font-size="10.00">/stepper/runge_kutta4.hpp</text>
</a>
</g>
</g>
<!-- Node8&#45;&gt;Node16 -->
<g id="edge17" class="edge">
<title>Node8&#45;&gt;Node16</title>
<path fill="none" stroke="midnightblue" d="M1171.03,-67.44C1121.21,-58.8 1041.87,-45.01 963.91,-31.25"/>
<polygon fill="midnightblue" stroke="midnightblue" points="964.38,-27.77 953.92,-29.48 963.16,-34.67 964.38,-27.77"/>
</g>
<!-- Node17 -->
<g id="node17" class="node">
<title>Node17</title>
<g id="a_node17"><a xlink:title=" ">
<polygon fill="white" stroke="#bfbfbf" points="971.5,-0.5 971.5,-30.5 1087.5,-30.5 1087.5,-0.5 971.5,-0.5"/>
<text text-anchor="start" x="979.5" y="-18.5" font-family="Helvetica,sans-Serif" font-size="10.00">boost/numeric/ublas</text>
<text text-anchor="middle" x="1029.5" y="-7.5" font-family="Helvetica,sans-Serif" font-size="10.00">/matrix.hpp</text>
</a>
</g>
</g>
<!-- Node8&#45;&gt;Node17 -->
<g id="edge18" class="edge">
<title>Node8&#45;&gt;Node17</title>
<path fill="none" stroke="midnightblue" d="M1193.13,-67.48C1164.85,-58.66 1119.92,-44.67 1084.3,-33.57"/>
<polygon fill="midnightblue" stroke="midnightblue" points="1085.1,-30.16 1074.51,-30.52 1083.02,-36.84 1085.1,-30.16"/>
</g>
<!-- Node20 -->
<g id="node18" class="node">
<title>Node20</title>
<g id="a_node18"><a xlink:title=" ">
<polygon fill="white" stroke="#bfbfbf" points="1516.5,-6 1516.5,-25 1576.5,-25 1576.5,-6 1516.5,-6"/>
<text text-anchor="middle" x="1546.5" y="-13" font-family="Helvetica,sans-Serif" font-size="10.00">iostream</text>
</a>
</g>
</g>
<!-- Node8&#45;&gt;Node20 -->
<g id="edge19" class="edge">
<title>Node8&#45;&gt;Node20</title>
<path fill="none" stroke="midnightblue" d="M1280.03,-70.19C1338.57,-63.65 1430.16,-51.22 1507.5,-31 1510.32,-30.26 1513.21,-29.4 1516.1,-28.47"/>
<polygon fill="midnightblue" stroke="midnightblue" points="1517.41,-31.71 1525.7,-25.11 1515.1,-25.11 1517.41,-31.71"/>
</g>
<!-- Node24 -->
<g id="node19" class="node">
<title>Node24</title>
<g id="a_node19"><a xlink:title=" ">
<polygon fill="white" stroke="#bfbfbf" points="1668.5,-6 1668.5,-25 1712.5,-25 1712.5,-6 1668.5,-6"/>
<text text-anchor="middle" x="1690.5" y="-13" font-family="Helvetica,sans-Serif" font-size="10.00">ctime</text>
</a>
</g>
</g>
<!-- Node8&#45;&gt;Node24 -->
<g id="edge22" class="edge">
<title>Node8&#45;&gt;Node24</title>
<path fill="none" stroke="midnightblue" d="M1280.24,-76.15C1365.81,-74.97 1527.51,-67.51 1659.5,-31 1661.43,-30.47 1663.39,-29.82 1665.34,-29.1"/>
<polygon fill="midnightblue" stroke="midnightblue" points="1666.97,-32.22 1674.8,-25.09 1664.23,-25.77 1666.97,-32.22"/>
</g>
<!-- Node25 -->
<g id="node20" class="node">
<title>Node25</title>
<g id="a_node20"><a xlink:title=" ">
<polygon fill="white" stroke="#bfbfbf" points="1730.5,-6 1730.5,-25 1786.5,-25 1786.5,-6 1730.5,-6"/>
<text text-anchor="middle" x="1758.5" y="-13" font-family="Helvetica,sans-Serif" font-size="10.00">iomanip</text>
</a>
</g>
</g>
<!-- Node8&#45;&gt;Node25 -->
<g id="edge23" class="edge">
<title>Node8&#45;&gt;Node25</title>
<path fill="none" stroke="midnightblue" d="M1280.37,-76.07C1375.23,-74.97 1565.31,-67.82 1721.5,-31 1724.33,-30.33 1727.24,-29.49 1730.11,-28.55"/>
<polygon fill="midnightblue" stroke="midnightblue" points="1731.43,-31.8 1739.63,-25.09 1729.03,-25.22 1731.43,-31.8"/>
</g>
<!-- Node26 -->
<g id="node21" class="node">
<title>Node26</title>
<g id="a_node21"><a xlink:title=" ">
<polygon fill="white" stroke="#bfbfbf" points="1595,-6 1595,-25 1650,-25 1650,-6 1595,-6"/>
<text text-anchor="middle" x="1622.5" y="-13" font-family="Helvetica,sans-Serif" font-size="10.00">fstream</text>
</a>
</g>
</g>
<!-- Node8&#45;&gt;Node26 -->
<g id="edge24" class="edge">
<title>Node8&#45;&gt;Node26</title>
<path fill="none" stroke="midnightblue" d="M1280.13,-73.24C1353.11,-68.82 1479.97,-57.73 1585.5,-31 1588.17,-30.32 1590.9,-29.51 1593.62,-28.61"/>
<polygon fill="midnightblue" stroke="midnightblue" points="1595.02,-31.82 1603.21,-25.11 1592.62,-25.25 1595.02,-31.82"/>
</g>
<!-- Node27 -->
<g id="node22" class="node">
<title>Node27</title>
<g id="a_node22"><a xlink:title=" ">
<polygon fill="white" stroke="#bfbfbf" points="1454.5,-6 1454.5,-25 1498.5,-25 1498.5,-6 1454.5,-6"/>
<text text-anchor="middle" x="1476.5" y="-13" font-family="Helvetica,sans-Serif" font-size="10.00">string</text>
</a>
</g>
</g>
<!-- Node8&#45;&gt;Node27 -->
<g id="edge25" class="edge">
<title>Node8&#45;&gt;Node27</title>
<path fill="none" stroke="midnightblue" d="M1280.39,-67.76C1326.06,-60.57 1390.14,-48.53 1444.5,-31 1446.37,-30.4 1448.28,-29.71 1450.19,-28.98"/>
<polygon fill="midnightblue" stroke="midnightblue" points="1451.65,-32.17 1459.51,-25.06 1448.94,-25.71 1451.65,-32.17"/>
</g>
<!-- Node35&#45;&gt;Node5 -->
<g id="edge28" class="edge">
<title>Node35&#45;&gt;Node5</title>
<path fill="none" stroke="midnightblue" d="M1317.5,-179.08C1317.5,-172.01 1317.5,-161.86 1317.5,-152.99"/>
<polygon fill="midnightblue" stroke="midnightblue" points="1321,-152.75 1317.5,-142.75 1314,-152.75 1321,-152.75"/>
</g>
<!-- Node36&#45;&gt;Node4 -->
<g id="edge31" class="edge">
<title>Node36&#45;&gt;Node4</title>
<path fill="none" stroke="midnightblue" d="M3169.98,-75.42C2965.72,-72.44 2072.47,-57.98 1951.5,-31 1948.98,-30.44 1946.41,-29.69 1943.87,-28.84"/>
<polygon fill="midnightblue" stroke="midnightblue" points="1944.98,-25.51 1934.39,-25.15 1942.44,-32.04 1944.98,-25.51"/>
</g>
<!-- Node36&#45;&gt;Node24 -->
<g id="edge36" class="edge">
<title>Node36&#45;&gt;Node24</title>
<path fill="none" stroke="midnightblue" d="M3169.71,-75.75C2943,-74.24 1865.55,-65.31 1721.5,-31 1719.29,-30.47 1717.05,-29.78 1714.84,-28.99"/>
<polygon fill="midnightblue" stroke="midnightblue" points="1716.08,-25.71 1705.5,-25.02 1713.34,-32.15 1716.08,-25.71"/>
</g>
<!-- Node36&#45;&gt;Node25 -->
<g id="edge32" class="edge">
<title>Node36&#45;&gt;Node25</title>
<path fill="none" stroke="midnightblue" d="M3169.71,-75.5C2950.06,-72.74 1933.93,-58.6 1796.5,-31 1793.25,-30.35 1789.91,-29.44 1786.62,-28.41"/>
<polygon fill="midnightblue" stroke="midnightblue" points="1787.67,-25.06 1777.07,-25 1785.32,-31.66 1787.67,-25.06"/>
</g>
<!-- Node36&#45;&gt;Node26 -->
<g id="edge35" class="edge">
<title>Node36&#45;&gt;Node26</title>
<path fill="none" stroke="midnightblue" d="M3169.92,-75.65C2938.19,-73.57 1811.04,-61.91 1659.5,-31 1656.42,-30.37 1653.27,-29.51 1650.16,-28.51"/>
<polygon fill="midnightblue" stroke="midnightblue" points="1651.16,-25.15 1640.56,-25.01 1648.76,-31.73 1651.16,-25.15"/>
</g>
<!-- Node37 -->
<g id="node25" class="node">
<title>Node37</title>
<g id="a_node25"><a xlink:title=" ">
<polygon fill="white" stroke="#bfbfbf" points="3186.5,-6 3186.5,-25 3236.5,-25 3236.5,-6 3186.5,-6"/>
<text text-anchor="middle" x="3211.5" y="-13" font-family="Helvetica,sans-Serif" font-size="10.00">atomic</text>
</a>
</g>
</g>
<!-- Node36&#45;&gt;Node37 -->
<g id="edge30" class="edge">
<title>Node36&#45;&gt;Node37</title>
<path fill="none" stroke="midnightblue" d="M3211.5,-67.48C3211.5,-59.08 3211.5,-45.98 3211.5,-35.16"/>
<polygon fill="midnightblue" stroke="midnightblue" points="3215,-35.01 3211.5,-25.01 3208,-35.01 3215,-35.01"/>
</g>
<!-- Node38 -->
<g id="node26" class="node">
<title>Node38</title>
<g id="a_node26"><a xlink:title=" ">
<polygon fill="white" stroke="#bfbfbf" points="1960.5,-6 1960.5,-25 2016.5,-25 2016.5,-6 1960.5,-6"/>
<text text-anchor="middle" x="1988.5" y="-13" font-family="Helvetica,sans-Serif" font-size="10.00">sstream</text>
</a>
</g>
</g>
<!-- Node36&#45;&gt;Node38 -->
<g id="edge33" class="edge">
<title>Node36&#45;&gt;Node38</title>
<path fill="none" stroke="midnightblue" d="M3169.91,-76.28C2986.71,-77.24 2250.91,-78.03 2025.5,-31 2022.49,-30.37 2019.41,-29.52 2016.37,-28.55"/>
<polygon fill="midnightblue" stroke="midnightblue" points="2017.54,-25.25 2006.95,-25.13 2015.16,-31.83 2017.54,-25.25"/>
</g>
<!-- Node39 -->
<g id="node27" class="node">
<title>Node39</title>
<g id="a_node27"><a xlink:title=" ">
<polygon fill="white" stroke="#bfbfbf" points="3254.5,-6 3254.5,-25 3322.5,-25 3322.5,-6 3254.5,-6"/>
<text text-anchor="middle" x="3288.5" y="-13" font-family="Helvetica,sans-Serif" font-size="10.00">filesystem</text>
</a>
</g>
</g>
<!-- Node36&#45;&gt;Node39 -->
<g id="edge34" class="edge">
<title>Node36&#45;&gt;Node39</title>
<path fill="none" stroke="midnightblue" d="M3222.53,-67.48C3234.77,-58.02 3254.73,-42.6 3269.49,-31.19"/>
<polygon fill="midnightblue" stroke="midnightblue" points="3271.72,-33.89 3277.49,-25.01 3267.44,-28.35 3271.72,-33.89"/>
</g>
<!-- Node40 -->
<g id="node28" class="node">
<title>Node40</title>
<g id="a_node28"><a xlink:title=" ">
<polygon fill="white" stroke="#bfbfbf" points="3341,-0.5 3341,-30.5 3466,-30.5 3466,-0.5 3341,-0.5"/>
<text text-anchor="start" x="3349" y="-18.5" font-family="Helvetica,sans-Serif" font-size="10.00">boost/date_time/posix</text>
<text text-anchor="middle" x="3403.5" y="-7.5" font-family="Helvetica,sans-Serif" font-size="10.00">_time/posix_time.hpp</text>
</a>
</g>
</g>
<!-- Node36&#45;&gt;Node40 -->
<g id="edge37" class="edge">
<title>Node36&#45;&gt;Node40</title>
<path fill="none" stroke="midnightblue" d="M3239.01,-67.48C3267.44,-58.66 3312.6,-44.67 3348.42,-33.57"/>
<polygon fill="midnightblue" stroke="midnightblue" points="3349.73,-36.83 3358.25,-30.52 3347.66,-30.14 3349.73,-36.83"/>
</g>
<!-- Node41 -->
<g id="node29" class="node">
<title>Node41</title>
<g id="a_node29"><a xlink:title=" ">
<polygon fill="white" stroke="#bfbfbf" points="3484,-0.5 3484,-30.5 3639,-30.5 3639,-0.5 3484,-0.5"/>
<text text-anchor="start" x="3492" y="-18.5" font-family="Helvetica,sans-Serif" font-size="10.00">boost/date_time/posix</text>
<text text-anchor="middle" x="3561.5" y="-7.5" font-family="Helvetica,sans-Serif" font-size="10.00">_time/posix_time_types.hpp</text>
</a>
</g>
</g>
<!-- Node36&#45;&gt;Node41 -->
<g id="edge38" class="edge">
<title>Node36&#45;&gt;Node41</title>
<path fill="none" stroke="midnightblue" d="M3253.02,-68.94C3307.13,-59.74 3403.15,-43.42 3473.73,-31.42"/>
<polygon fill="midnightblue" stroke="midnightblue" points="3474.68,-34.81 3483.95,-29.68 3473.51,-27.91 3474.68,-34.81"/>
</g>
<!-- Node42 -->
<g id="node30" class="node">
<title>Node42</title>
<g id="a_node30"><a xlink:title=" ">
<polygon fill="white" stroke="#bfbfbf" points="3657,-6 3657,-25 3790,-25 3790,-6 3657,-6"/>
<text text-anchor="middle" x="3723.5" y="-13" font-family="Helvetica,sans-Serif" font-size="10.00">boost/log/attributes.hpp</text>
</a>
</g>
</g>
<!-- Node36&#45;&gt;Node42 -->
<g id="edge39" class="edge">
<title>Node36&#45;&gt;Node42</title>
<path fill="none" stroke="midnightblue" d="M3253.23,-72.94C3331.16,-66.95 3504.02,-52.36 3648.5,-31 3656.34,-29.84 3664.61,-28.43 3672.68,-26.95"/>
<polygon fill="midnightblue" stroke="midnightblue" points="3673.56,-30.35 3682.74,-25.06 3672.27,-23.47 3673.56,-30.35"/>
</g>
<!-- Node43 -->
<g id="node31" class="node">
<title>Node43</title>
<g id="a_node31"><a xlink:title=" ">
<polygon fill="white" stroke="#bfbfbf" points="3808.5,-0.5 3808.5,-30.5 3930.5,-30.5 3930.5,-0.5 3808.5,-0.5"/>
<text text-anchor="start" x="3816.5" y="-18.5" font-family="Helvetica,sans-Serif" font-size="10.00">boost/log/attributes</text>
<text text-anchor="middle" x="3869.5" y="-7.5" font-family="Helvetica,sans-Serif" font-size="10.00">/scoped_attribute.hpp</text>
</a>
</g>
</g>
<!-- Node36&#45;&gt;Node43 -->
<g id="edge40" class="edge">
<title>Node36&#45;&gt;Node43</title>
<path fill="none" stroke="midnightblue" d="M3253.04,-74.65C3347.95,-71.16 3588.08,-60.13 3798.5,-31.02"/>
<polygon fill="midnightblue" stroke="midnightblue" points="3799.08,-34.47 3808.5,-29.62 3798.11,-27.54 3799.08,-34.47"/>
</g>
<!-- Node44 -->
<g id="node32" class="node">
<title>Node44</title>
<g id="a_node32"><a xlink:title=" ">
<polygon fill="white" stroke="#bfbfbf" points="3949,-6 3949,-25 4056,-25 4056,-6 3949,-6"/>
<text text-anchor="middle" x="4002.5" y="-13" font-family="Helvetica,sans-Serif" font-size="10.00">boost/log/core.hpp</text>
</a>
</g>
</g>
<!-- Node36&#45;&gt;Node44 -->
<g id="edge41" class="edge">
<title>Node36&#45;&gt;Node44</title>
<path fill="none" stroke="midnightblue" d="M3253.2,-75.82C3364.97,-74.8 3680.4,-68.56 3939.5,-31 3946.22,-30.03 3953.27,-28.7 3960.14,-27.25"/>
<polygon fill="midnightblue" stroke="midnightblue" points="3960.99,-30.65 3969.99,-25.06 3959.47,-23.81 3960.99,-30.65"/>
</g>
<!-- Node45 -->
<g id="node33" class="node">
<title>Node45</title>
<g id="a_node33"><a xlink:title=" ">
<polygon fill="white" stroke="#bfbfbf" points="4074.5,-6 4074.5,-25 4218.5,-25 4218.5,-6 4074.5,-6"/>
<text text-anchor="middle" x="4146.5" y="-13" font-family="Helvetica,sans-Serif" font-size="10.00">boost/log/expressions.hpp</text>
</a>
</g>
</g>
<!-- Node36&#45;&gt;Node45 -->
<g id="edge42" class="edge">
<title>Node36&#45;&gt;Node45</title>
<path fill="none" stroke="midnightblue" d="M3253.42,-75.64C3377.73,-74.16 3755.03,-66.83 4065.5,-31 4074.98,-29.91 4085.03,-28.4 4094.7,-26.76"/>
<polygon fill="midnightblue" stroke="midnightblue" points="4095.36,-30.2 4104.61,-25.02 4094.15,-23.3 4095.36,-30.2"/>
</g>
<!-- Node46 -->
<g id="node34" class="node">
<title>Node46</title>
<g id="a_node34"><a xlink:title=" ">
<polygon fill="white" stroke="#bfbfbf" points="4236.5,-0.5 4236.5,-30.5 4352.5,-30.5 4352.5,-0.5 4236.5,-0.5"/>
<text text-anchor="start" x="4244.5" y="-18.5" font-family="Helvetica,sans-Serif" font-size="10.00">boost/log/sinks/sync</text>
<text text-anchor="middle" x="4294.5" y="-7.5" font-family="Helvetica,sans-Serif" font-size="10.00">_frontend.hpp</text>
</a>
</g>
</g>
<!-- Node36&#45;&gt;Node46 -->
<g id="edge43" class="edge">
<title>Node36&#45;&gt;Node46</title>
<path fill="none" stroke="midnightblue" d="M3253.27,-75.09C3416.83,-71.39 4014.64,-56.49 4226.41,-30.94"/>
<polygon fill="midnightblue" stroke="midnightblue" points="4227.01,-34.4 4236.5,-29.68 4226.14,-27.45 4227.01,-34.4"/>
</g>
<!-- Node47 -->
<g id="node35" class="node">
<title>Node47</title>
<g id="a_node35"><a xlink:title=" ">
<polygon fill="white" stroke="#bfbfbf" points="4371,-0.5 4371,-30.5 4500,-30.5 4500,-0.5 4371,-0.5"/>
<text text-anchor="start" x="4379" y="-18.5" font-family="Helvetica,sans-Serif" font-size="10.00">boost/log/sinks/text</text>
<text text-anchor="middle" x="4435.5" y="-7.5" font-family="Helvetica,sans-Serif" font-size="10.00">_ostream_backend.hpp</text>
</a>
</g>
</g>
<!-- Node36&#45;&gt;Node47 -->
<g id="edge44" class="edge">
<title>Node36&#45;&gt;Node47</title>
<path fill="none" stroke="midnightblue" d="M3253.17,-75.23C3430.08,-71.84 4120.41,-57.26 4360.55,-30.94"/>
<polygon fill="midnightblue" stroke="midnightblue" points="4361.07,-34.41 4370.62,-29.8 4360.29,-27.45 4361.07,-34.41"/>
</g>
<!-- Node48 -->
<g id="node36" class="node">
<title>Node48</title>
<g id="a_node36"><a xlink:title=" ">
<polygon fill="white" stroke="#bfbfbf" points="4518,-0.5 4518,-30.5 4649,-30.5 4649,-0.5 4518,-0.5"/>
<text text-anchor="start" x="4526" y="-18.5" font-family="Helvetica,sans-Serif" font-size="10.00">boost/log/sources/basic</text>
<text text-anchor="middle" x="4583.5" y="-7.5" font-family="Helvetica,sans-Serif" font-size="10.00">_logger.hpp</text>
</a>
</g>
</g>
<!-- Node36&#45;&gt;Node48 -->
<g id="edge45" class="edge">
<title>Node36&#45;&gt;Node48</title>
<path fill="none" stroke="midnightblue" d="M3253.23,-75.45C3444.24,-72.77 4237.13,-60.18 4507.64,-31.06"/>
<polygon fill="midnightblue" stroke="midnightblue" points="4508.27,-34.52 4517.82,-29.93 4507.49,-27.56 4508.27,-34.52"/>
</g>
<!-- Node49 -->
<g id="node37" class="node">
<title>Node49</title>
<g id="a_node37"><a xlink:title=" ">
<polygon fill="white" stroke="#bfbfbf" points="4667.5,-6 4667.5,-25 4823.5,-25 4823.5,-6 4667.5,-6"/>
<text text-anchor="middle" x="4745.5" y="-13" font-family="Helvetica,sans-Serif" font-size="10.00">boost/log/sources/logger.hpp</text>
</a>
</g>
</g>
<!-- Node36&#45;&gt;Node49 -->
<g id="edge46" class="edge">
<title>Node36&#45;&gt;Node49</title>
<path fill="none" stroke="midnightblue" d="M3253.09,-75.46C3459.48,-72.67 4375.07,-58.9 4658.5,-31 4669.12,-29.95 4680.41,-28.4 4691.22,-26.7"/>
<polygon fill="midnightblue" stroke="midnightblue" points="4692.09,-30.1 4701.39,-25.03 4690.96,-23.19 4692.09,-30.1"/>
</g>
<!-- Node50 -->
<g id="node38" class="node">
<title>Node50</title>
<g id="a_node38"><a xlink:title=" ">
<polygon fill="white" stroke="#bfbfbf" points="4841.5,-0.5 4841.5,-30.5 4977.5,-30.5 4977.5,-0.5 4841.5,-0.5"/>
<text text-anchor="start" x="4849.5" y="-18.5" font-family="Helvetica,sans-Serif" font-size="10.00">boost/log/sources/record</text>
<text text-anchor="middle" x="4909.5" y="-7.5" font-family="Helvetica,sans-Serif" font-size="10.00">_ostream.hpp</text>
</a>
</g>
</g>
<!-- Node36&#45;&gt;Node50 -->
<g id="edge47" class="edge">
<title>Node36&#45;&gt;Node50</title>
<path fill="none" stroke="midnightblue" d="M3253.25,-75.74C3472.41,-74.22 4492.33,-65.47 4831.08,-31.01"/>
<polygon fill="midnightblue" stroke="midnightblue" points="4831.57,-34.47 4841.15,-29.95 4830.84,-27.51 4831.57,-34.47"/>
</g>
<!-- Node51 -->
<g id="node39" class="node">
<title>Node51</title>
<g id="a_node39"><a xlink:title=" ">
<polygon fill="white" stroke="#bfbfbf" points="4996,-0.5 4996,-30.5 5141,-30.5 5141,-0.5 4996,-0.5"/>
<text text-anchor="start" x="5004" y="-18.5" font-family="Helvetica,sans-Serif" font-size="10.00">boost/log/sources/severity</text>
<text text-anchor="middle" x="5068.5" y="-7.5" font-family="Helvetica,sans-Serif" font-size="10.00">_channel_logger.hpp</text>
</a>
</g>
</g>
<!-- Node36&#45;&gt;Node51 -->
<g id="edge48" class="edge">
<title>Node36&#45;&gt;Node51</title>
<path fill="none" stroke="midnightblue" d="M3253.31,-75.79C3484.98,-74.5 4613.89,-66.52 4985.72,-30.94"/>
<polygon fill="midnightblue" stroke="midnightblue" points="4986.09,-34.42 4995.7,-29.96 4985.41,-27.45 4986.09,-34.42"/>
</g>
<!-- Node52 -->
<g id="node40" class="node">
<title>Node52</title>
<g id="a_node40"><a xlink:title=" ">
<polygon fill="white" stroke="#bfbfbf" points="5159,-0.5 5159,-30.5 5304,-30.5 5304,-0.5 5159,-0.5"/>
<text text-anchor="start" x="5167" y="-18.5" font-family="Helvetica,sans-Serif" font-size="10.00">boost/log/sources/severity</text>
<text text-anchor="middle" x="5231.5" y="-7.5" font-family="Helvetica,sans-Serif" font-size="10.00">_logger.hpp</text>
</a>
</g>
</g>
<!-- Node36&#45;&gt;Node52 -->
<g id="edge49" class="edge">
<title>Node36&#45;&gt;Node52</title>
<path fill="none" stroke="midnightblue" d="M3253.09,-75.91C3496.84,-75.23 4743.02,-69.94 5148.71,-31.06"/>
<polygon fill="midnightblue" stroke="midnightblue" points="5149.11,-34.54 5158.72,-30.07 5148.42,-27.57 5149.11,-34.54"/>
</g>
<!-- Node53 -->
<g id="node41" class="node">
<title>Node53</title>
<g id="a_node41"><a xlink:title=" ">
<polygon fill="white" stroke="#bfbfbf" points="2034.5,-0.5 2034.5,-30.5 2160.5,-30.5 2160.5,-0.5 2034.5,-0.5"/>
<text text-anchor="start" x="2042.5" y="-18.5" font-family="Helvetica,sans-Serif" font-size="10.00">boost/log/support/date</text>
<text text-anchor="middle" x="2097.5" y="-7.5" font-family="Helvetica,sans-Serif" font-size="10.00">_time.hpp</text>
</a>
</g>
</g>
<!-- Node36&#45;&gt;Node53 -->
<g id="edge50" class="edge">
<title>Node36&#45;&gt;Node53</title>
<path fill="none" stroke="midnightblue" d="M3169.62,-76.52C3029.46,-77.77 2564.01,-77.97 2170.78,-31.02"/>
<polygon fill="midnightblue" stroke="midnightblue" points="2170.97,-27.51 2160.63,-29.79 2170.13,-34.46 2170.97,-27.51"/>
</g>
<!-- Node54 -->
<g id="node42" class="node">
<title>Node54</title>
<g id="a_node42"><a xlink:title=" ">
<polygon fill="white" stroke="#bfbfbf" points="2178.5,-6 2178.5,-25 2292.5,-25 2292.5,-6 2178.5,-6"/>
<text text-anchor="middle" x="2235.5" y="-13" font-family="Helvetica,sans-Serif" font-size="10.00">boost/log/trivial.hpp</text>
</a>
</g>
</g>
<!-- Node36&#45;&gt;Node54 -->
<g id="edge51" class="edge">
<title>Node36&#45;&gt;Node54</title>
<path fill="none" stroke="midnightblue" d="M3169.55,-76.41C3039.83,-77.13 2633.89,-75.41 2301.5,-31 2294.23,-30.03 2286.56,-28.66 2279.14,-27.16"/>
<polygon fill="midnightblue" stroke="midnightblue" points="2279.73,-23.71 2269.22,-25.04 2278.27,-30.55 2279.73,-23.71"/>
</g>
<!-- Node55 -->
<g id="node43" class="node">
<title>Node55</title>
<g id="a_node43"><a xlink:title=" ">
<polygon fill="white" stroke="#bfbfbf" points="2310.5,-0.5 2310.5,-30.5 2446.5,-30.5 2446.5,-0.5 2310.5,-0.5"/>
<text text-anchor="start" x="2318.5" y="-18.5" font-family="Helvetica,sans-Serif" font-size="10.00">boost/log/utility/setup</text>
<text text-anchor="middle" x="2378.5" y="-7.5" font-family="Helvetica,sans-Serif" font-size="10.00">/common_attributes.hpp</text>
</a>
</g>
</g>
<!-- Node36&#45;&gt;Node55 -->
<g id="edge52" class="edge">
<title>Node36&#45;&gt;Node55</title>
<path fill="none" stroke="midnightblue" d="M3169.59,-75.33C3056.4,-73.12 2734.93,-64.29 2457.19,-30.96"/>
<polygon fill="midnightblue" stroke="midnightblue" points="2457.26,-27.44 2446.91,-29.71 2456.42,-34.39 2457.26,-27.44"/>
</g>
<!-- Node56 -->
<g id="node44" class="node">
<title>Node56</title>
<g id="a_node44"><a xlink:title=" ">
<polygon fill="white" stroke="#bfbfbf" points="2465,-0.5 2465,-30.5 2588,-30.5 2588,-0.5 2465,-0.5"/>
<text text-anchor="start" x="2473" y="-18.5" font-family="Helvetica,sans-Serif" font-size="10.00">boost/log/utility/setup</text>
<text text-anchor="middle" x="2526.5" y="-7.5" font-family="Helvetica,sans-Serif" font-size="10.00">/file.hpp</text>
</a>
</g>
</g>
<!-- Node36&#45;&gt;Node56 -->
<g id="edge53" class="edge">
<title>Node36&#45;&gt;Node56</title>
<path fill="none" stroke="midnightblue" d="M3169.98,-74.79C3072.16,-71.56 2819.44,-60.92 2598.54,-31.02"/>
<polygon fill="midnightblue" stroke="midnightblue" points="2598.76,-27.51 2588.38,-29.62 2597.81,-34.45 2598.76,-27.51"/>
</g>
<!-- Node57 -->
<g id="node45" class="node">
<title>Node57</title>
<g id="a_node45"><a xlink:title=" ">
<polygon fill="white" stroke="#bfbfbf" points="2606,-0.5 2606,-30.5 2729,-30.5 2729,-0.5 2606,-0.5"/>
<text text-anchor="start" x="2614" y="-18.5" font-family="Helvetica,sans-Serif" font-size="10.00">boost/log/utility/value</text>
<text text-anchor="middle" x="2667.5" y="-7.5" font-family="Helvetica,sans-Serif" font-size="10.00">_ref.hpp</text>
</a>
</g>
</g>
<!-- Node36&#45;&gt;Node57 -->
<g id="edge54" class="edge">
<title>Node36&#45;&gt;Node57</title>
<path fill="none" stroke="midnightblue" d="M3169.88,-73.54C3088.98,-68.43 2904.74,-55.21 2739.36,-31.01"/>
<polygon fill="midnightblue" stroke="midnightblue" points="2739.41,-27.48 2729,-29.48 2738.38,-34.41 2739.41,-27.48"/>
</g>
<!-- Node58 -->
<g id="node46" class="node">
<title>Node58</title>
<g id="a_node46"><a xlink:title=" ">
<polygon fill="white" stroke="#bfbfbf" points="2747,-6 2747,-25 2878,-25 2878,-6 2747,-6"/>
<text text-anchor="middle" x="2812.5" y="-13" font-family="Helvetica,sans-Serif" font-size="10.00">boost/phoenix/bind.hpp</text>
</a>
</g>
</g>
<!-- Node36&#45;&gt;Node58 -->
<g id="edge55" class="edge">
<title>Node36&#45;&gt;Node58</title>
<path fill="none" stroke="midnightblue" d="M3169.97,-70.95C3108.22,-63.27 2988.62,-47.79 2887.5,-31 2880.04,-29.76 2872.18,-28.36 2864.48,-26.92"/>
<polygon fill="midnightblue" stroke="midnightblue" points="2864.95,-23.45 2854.48,-25.02 2863.65,-30.32 2864.95,-23.45"/>
</g>
<!-- Node59 -->
<g id="node47" class="node">
<title>Node59</title>
<g id="a_node47"><a xlink:title=" ">
<polygon fill="white" stroke="#bfbfbf" points="2896.5,-0.5 2896.5,-30.5 3020.5,-30.5 3020.5,-0.5 2896.5,-0.5"/>
<text text-anchor="start" x="2904.5" y="-18.5" font-family="Helvetica,sans-Serif" font-size="10.00">boost/smart_ptr/make</text>
<text text-anchor="middle" x="2958.5" y="-7.5" font-family="Helvetica,sans-Serif" font-size="10.00">_shared_object.hpp</text>
</a>
</g>
</g>
<!-- Node36&#45;&gt;Node59 -->
<g id="edge56" class="edge">
<title>Node36&#45;&gt;Node59</title>
<path fill="none" stroke="midnightblue" d="M3175.25,-67.48C3136.98,-58.48 3075.72,-44.07 3028.07,-32.86"/>
<polygon fill="midnightblue" stroke="midnightblue" points="3028.66,-29.41 3018.13,-30.52 3027.06,-36.22 3028.66,-29.41"/>
</g>
<!-- Node60 -->
<g id="node48" class="node">
<title>Node60</title>
<g id="a_node48"><a xlink:title=" ">
<polygon fill="white" stroke="#bfbfbf" points="3038.5,-0.5 3038.5,-30.5 3168.5,-30.5 3168.5,-0.5 3038.5,-0.5"/>
<text text-anchor="start" x="3046.5" y="-18.5" font-family="Helvetica,sans-Serif" font-size="10.00">boost/smart_ptr/shared</text>
<text text-anchor="middle" x="3103.5" y="-7.5" font-family="Helvetica,sans-Serif" font-size="10.00">_ptr.hpp</text>
</a>
</g>
</g>
<!-- Node36&#45;&gt;Node60 -->
<g id="edge57" class="edge">
<title>Node36&#45;&gt;Node60</title>
<path fill="none" stroke="midnightblue" d="M3196.03,-67.48C3180.92,-59.15 3157.42,-46.21 3137.89,-35.45"/>
<polygon fill="midnightblue" stroke="midnightblue" points="3139.4,-32.28 3128.95,-30.52 3136.02,-38.41 3139.4,-32.28"/>
</g>
<!-- Node61&#45;&gt;Node3 -->
<g id="edge63" class="edge">
<title>Node61&#45;&gt;Node3</title>
<path fill="none" stroke="midnightblue" d="M1525.15,-67.48C1499.81,-57.36 1457.36,-40.4 1428.43,-28.85"/>
<polygon fill="midnightblue" stroke="midnightblue" points="1429.39,-25.47 1418.81,-25.01 1426.8,-31.97 1429.39,-25.47"/>
</g>
<!-- Node61&#45;&gt;Node20 -->
<g id="edge59" class="edge">
<title>Node61&#45;&gt;Node20</title>
<path fill="none" stroke="midnightblue" d="M1546.5,-67.48C1546.5,-59.08 1546.5,-45.98 1546.5,-35.16"/>
<polygon fill="midnightblue" stroke="midnightblue" points="1550,-35.01 1546.5,-25.01 1543,-35.01 1550,-35.01"/>
</g>
<!-- Node61&#45;&gt;Node27 -->
<g id="edge60" class="edge">
<title>Node61&#45;&gt;Node27</title>
<path fill="none" stroke="midnightblue" d="M1536.47,-67.48C1525.45,-58.11 1507.54,-42.88 1494.16,-31.51"/>
<polygon fill="midnightblue" stroke="midnightblue" points="1496.4,-28.82 1486.51,-25.01 1491.86,-34.15 1496.4,-28.82"/>
</g>
<!-- Node61&#45;&gt;Node38 -->
<g id="edge61" class="edge">
<title>Node61&#45;&gt;Node38</title>
<path fill="none" stroke="midnightblue" d="M1601.01,-74.47C1679.54,-71.26 1828.56,-61.36 1951.5,-31 1954.33,-30.3 1957.23,-29.44 1960.1,-28.49"/>
<polygon fill="midnightblue" stroke="midnightblue" points="1961.42,-31.73 1969.61,-25.01 1959.01,-25.16 1961.42,-31.73"/>
</g>
<!-- Node62 -->
<g id="node50" class="node">
<title>Node62</title>
<g id="a_node50"><a xlink:title=" ">
<polygon fill="white" stroke="#bfbfbf" points="1805,-6 1805,-25 1874,-25 1874,-6 1805,-6"/>
<text text-anchor="middle" x="1839.5" y="-13" font-family="Helvetica,sans-Serif" font-size="10.00">type_traits</text>
</a>
</g>
</g>
<!-- Node61&#45;&gt;Node62 -->
<g id="edge62" class="edge">
<title>Node61&#45;&gt;Node62</title>
<path fill="none" stroke="midnightblue" d="M1601.37,-68.34C1652.14,-60.71 1729.5,-47.75 1795.5,-31 1798.88,-30.14 1802.37,-29.16 1805.84,-28.12"/>
<polygon fill="midnightblue" stroke="midnightblue" points="1806.98,-31.43 1815.47,-25.09 1804.88,-24.75 1806.98,-31.43"/>
</g>
</g>
</svg>
        <g id="navigator" transform="translate(0 0)" fill="#404254">
                <rect fill="#f2f5e9" fill-opacity="0.5" stroke="#606060" stroke-width=".5" x="0" y="0" width="60" height="60"/>
                <use id="zoomplus" xlink:href="#zoomPlus" x="17" y="9" onmousedown="handleZoom(evt,'in')"/>
                <use id="zoomminus" xlink:href="#zoomMin" x="42" y="9" onmousedown="handleZoom(evt,'out')"/>
                <use id="reset" xlink:href="#resetDef" x="30" y="36" onmousedown="handleReset()"/>
                <g id="arrowUp" xlink:href="#dirArrow" transform="translate(30 24)" onmousedown="handlePan(0,-1)">
                  <use xlink:href="#rim" fill="#404040">
                        <set attributeName="fill" to="#808080" begin="arrowUp.mouseover" end="arrowUp.mouseout"/>
                  </use>
                  <path fill="none" stroke="white" stroke-width="1.5" d="M0,-3.0v7 M-2.5,-0.5L0,-3.0L2.5,-0.5"/>
                </g>
                <g id="arrowRight" xlink:href="#dirArrow" transform="rotate(90) translate(36 -43)" onmousedown="handlePan(1,0)">
                  <use xlink:href="#rim" fill="#404040">
                        <set attributeName="fill" to="#808080" begin="arrowRight.mouseover" end="arrowRight.mouseout"/>
                  </use>
                  <path fill="none" stroke="white" stroke-width="1.5" d="M0,-3.0v7 M-2.5,-0.5L0,-3.0L2.5,-0.5"/>
                </g>
                <g id="arrowDown" xlink:href="#dirArrow" transform="rotate(180) translate(-30 -48)" onmousedown="handlePan(0,1)">
                  <use xlink:href="#rim" fill="#404040">
                        <set attributeName="fill" to="#808080" begin="arrowDown.mouseover" end="arrowDown.mouseout"/>
                  </use>
                  <path fill="none" stroke="white" stroke-width="1.5" d="M0,-3.0v7 M-2.5,-0.5L0,-3.0L2.5,-0.5"/>
                </g>
                <g id="arrowLeft" xlink:href="#dirArrow" transform="rotate(270) translate(-36 17)" onmousedown="handlePan(-1,0)">
                  <use xlink:href="#rim" fill="#404040">
                        <set attributeName="fill" to="#808080" begin="arrowLeft.mouseover" end="arrowLeft.mouseout"/>
                  </use>
                  <path fill="none" stroke="white" stroke-width="1.5" d="M0,-3.0v7 M-2.5,-0.5L0,-3.0L2.5,-0.5"/>
                </g>
        </g>
        <svg viewBox="0 0 15 15" width="100%" height="30px" preserveAspectRatio="xMaxYMin meet">
         <g id="arrow_out" transform="scale(0.3 0.3)">
          <a xlink:href="PID__OMEGA__logger_8hpp__incl_org.svg" target="_base">
           <rect id="button" ry="5" rx="5" y="6" x="6" height="38" width="38"
                fill="#f2f5e9" fill-opacity="0.5" stroke="#606060" stroke-width="1.0"/>
           <path id="arrow"
             d="M 11.500037,31.436501 C 11.940474,20.09759 22.043105,11.32322 32.158766,21.979434 L 37.068811,17.246167 C 37.068811,17.246167 37.088388,32 37.088388,32 L 22.160133,31.978069 C 22.160133,31.978069 26.997745,27.140456 26.997745,27.140456 C 18.528582,18.264221 13.291696,25.230495 11.500037,31.436501 z"
             style="fill:#404040;"/>
          </a>
         </g>
        </svg>
</svg>
