<?xml version="1.0" encoding="UTF-8" standalone="no"?>
<!DOCTYPE svg PUBLIC "-//W3C//DTD SVG 1.1//EN"
 "http://www.w3.org/Graphics/SVG/1.1/DTD/svg11.dtd">
<!-- Generated by graphviz version 2.43.0 (0)
 -->
<!-- Title: ACSL&#45;flightstack&#45;winged/src/acsl_flight/src/control/platforms/rostestdrone/control_algorithms/PID/PID_TD_logger.cpp Pages: 1 -->
<svg width="4093pt" height="296pt"
 viewBox="0.00 0.00 4092.50 296.00" xmlns="http://www.w3.org/2000/svg" xmlns:xlink="http://www.w3.org/1999/xlink">
<g id="graph0" class="graph" transform="scale(1 1) rotate(0) translate(4 292)">
<title>ACSL&#45;flightstack&#45;winged/src/acsl_flight/src/control/platforms/rostestdrone/control_algorithms/PID/PID_TD_logger.cpp</title>
<polygon fill="white" stroke="transparent" points="-4,4 -4,-292 4088.5,-292 4088.5,4 -4,4"/>
<!-- Node1 -->
<g id="node1" class="node">
<title>Node1</title>
<g id="a_node1"><a xlink:title=" ">
<polygon fill="#bfbfbf" stroke="black" points="2102.5,-235.5 2102.5,-287.5 2290.5,-287.5 2290.5,-235.5 2102.5,-235.5"/>
<text text-anchor="start" x="2110.5" y="-275.5" font-family="Helvetica,sans-Serif" font-size="10.00">ACSL&#45;flightstack&#45;winged</text>
<text text-anchor="start" x="2110.5" y="-264.5" font-family="Helvetica,sans-Serif" font-size="10.00">/src/acsl_flight/src/control</text>
<text text-anchor="start" x="2110.5" y="-253.5" font-family="Helvetica,sans-Serif" font-size="10.00">/platforms/rostestdrone/control</text>
<text text-anchor="middle" x="2196.5" y="-242.5" font-family="Helvetica,sans-Serif" font-size="10.00">_algorithms/PID/PID_TD_logger.cpp</text>
</a>
</g>
</g>
<!-- Node2 -->
<g id="node2" class="node">
<title>Node2</title>
<g id="a_node2"><a xlink:href="PID__TD__logger_8hpp.html" target="_top" xlink:title="Logging for the PID controller.">
<polygon fill="white" stroke="black" points="2142.5,-179.5 2142.5,-198.5 2250.5,-198.5 2250.5,-179.5 2142.5,-179.5"/>
<text text-anchor="middle" x="2196.5" y="-186.5" font-family="Helvetica,sans-Serif" font-size="10.00">PID_TD_logger.hpp</text>
</a>
</g>
</g>
<!-- Node1&#45;&gt;Node2 -->
<g id="edge1" class="edge">
<title>Node1&#45;&gt;Node2</title>
<path fill="none" stroke="midnightblue" d="M2196.5,-235.45C2196.5,-226.73 2196.5,-217.1 2196.5,-208.96"/>
<polygon fill="midnightblue" stroke="midnightblue" points="2200,-208.7 2196.5,-198.7 2193,-208.7 2200,-208.7"/>
</g>
<!-- Node3 -->
<g id="node3" class="node">
<title>Node3</title>
<g id="a_node3"><a xlink:href="PID__TD__members_8hpp.html" target="_top" xlink:title="PID controller class members.">
<polygon fill="white" stroke="black" points="133,-123.5 133,-142.5 258,-142.5 258,-123.5 133,-123.5"/>
<text text-anchor="middle" x="195.5" y="-130.5" font-family="Helvetica,sans-Serif" font-size="10.00">PID_TD_members.hpp</text>
</a>
</g>
</g>
<!-- Node2&#45;&gt;Node3 -->
<g id="edge2" class="edge">
<title>Node2&#45;&gt;Node3</title>
<path fill="none" stroke="midnightblue" d="M2142.46,-186.54C1863.54,-179.01 587.53,-144.58 268.14,-135.96"/>
<polygon fill="midnightblue" stroke="midnightblue" points="268.17,-132.46 258.08,-135.69 267.98,-139.46 268.17,-132.46"/>
</g>
<!-- Node9 -->
<g id="node9" class="node">
<title>Node9</title>
<g id="a_node9"><a xlink:href="flight__log_8hpp.html" target="_top" xlink:title="Utilities for logging flight data.">
<polygon fill="white" stroke="black" points="2155,-123.5 2155,-142.5 2238,-142.5 2238,-123.5 2155,-123.5"/>
<text text-anchor="middle" x="2196.5" y="-130.5" font-family="Helvetica,sans-Serif" font-size="10.00">flight_log.hpp</text>
</a>
</g>
</g>
<!-- Node2&#45;&gt;Node9 -->
<g id="edge9" class="edge">
<title>Node2&#45;&gt;Node9</title>
<path fill="none" stroke="midnightblue" d="M2196.5,-179.08C2196.5,-172.01 2196.5,-161.86 2196.5,-152.99"/>
<polygon fill="midnightblue" stroke="midnightblue" points="2200,-152.75 2196.5,-142.75 2193,-152.75 2200,-152.75"/>
</g>
<!-- Node37 -->
<g id="node37" class="node">
<title>Node37</title>
<g id="a_node37"><a xlink:href="global__helpers_8hpp.html" target="_top" xlink:title="Inline functions for all the classes of the flighstack to use.">
<polygon fill="white" stroke="black" points="3817,-123.5 3817,-142.5 3926,-142.5 3926,-123.5 3817,-123.5"/>
<text text-anchor="middle" x="3871.5" y="-130.5" font-family="Helvetica,sans-Serif" font-size="10.00">global_helpers.hpp</text>
</a>
</g>
</g>
<!-- Node2&#45;&gt;Node37 -->
<g id="edge38" class="edge">
<title>Node2&#45;&gt;Node37</title>
<path fill="none" stroke="midnightblue" d="M2250.8,-186.25C2500.31,-178.21 3536.05,-144.81 3806.61,-136.09"/>
<polygon fill="midnightblue" stroke="midnightblue" points="3806.78,-139.59 3816.66,-135.77 3806.55,-132.59 3806.78,-139.59"/>
</g>
<!-- Node4 -->
<g id="node4" class="node">
<title>Node4</title>
<g id="a_node4"><a xlink:title=" ">
<polygon fill="white" stroke="#bfbfbf" points="134,-0.5 134,-19.5 211,-19.5 211,-0.5 134,-0.5"/>
<text text-anchor="middle" x="172.5" y="-7.5" font-family="Helvetica,sans-Serif" font-size="10.00">Eigen/Dense</text>
</a>
</g>
</g>
<!-- Node3&#45;&gt;Node4 -->
<g id="edge3" class="edge">
<title>Node3&#45;&gt;Node4</title>
<path fill="none" stroke="midnightblue" d="M193.85,-123.3C190.13,-103.76 181.07,-56.06 176.03,-29.55"/>
<polygon fill="midnightblue" stroke="midnightblue" points="179.45,-28.79 174.14,-19.62 172.57,-30.1 179.45,-28.79"/>
</g>
<!-- Node5 -->
<g id="node5" class="node">
<title>Node5</title>
<g id="a_node5"><a xlink:title=" ">
<polygon fill="white" stroke="#bfbfbf" points="196.5,-62 196.5,-81 246.5,-81 246.5,-62 196.5,-62"/>
<text text-anchor="middle" x="221.5" y="-69" font-family="Helvetica,sans-Serif" font-size="10.00">chrono</text>
</a>
</g>
</g>
<!-- Node3&#45;&gt;Node5 -->
<g id="edge4" class="edge">
<title>Node3&#45;&gt;Node5</title>
<path fill="none" stroke="midnightblue" d="M199.23,-123.48C202.97,-114.9 208.86,-101.43 213.64,-90.48"/>
<polygon fill="midnightblue" stroke="midnightblue" points="216.98,-91.57 217.78,-81.01 210.57,-88.77 216.98,-91.57"/>
</g>
<!-- Node6 -->
<g id="node6" class="node">
<title>Node6</title>
<g id="a_node6"><a xlink:href="rostestdrone_8hpp.html" target="_top" xlink:title="Vehicle Information of the rostestdrone with the T&#45;Motor.">
<polygon fill="white" stroke="black" points="41,-62 41,-81 140,-81 140,-62 41,-62"/>
<text text-anchor="middle" x="90.5" y="-69" font-family="Helvetica,sans-Serif" font-size="10.00">rostestdrone.hpp</text>
</a>
</g>
</g>
<!-- Node3&#45;&gt;Node6 -->
<g id="edge5" class="edge">
<title>Node3&#45;&gt;Node6</title>
<path fill="none" stroke="midnightblue" d="M180.46,-123.48C163.22,-113.71 134.76,-97.58 114.47,-86.08"/>
<polygon fill="midnightblue" stroke="midnightblue" points="115.94,-82.89 105.52,-81.01 112.49,-88.98 115.94,-82.89"/>
</g>
<!-- Node6&#45;&gt;Node4 -->
<g id="edge6" class="edge">
<title>Node6&#45;&gt;Node4</title>
<path fill="none" stroke="midnightblue" d="M102.25,-61.98C115.28,-52.52 136.54,-37.1 152.26,-25.69"/>
<polygon fill="midnightblue" stroke="midnightblue" points="154.73,-28.21 160.77,-19.51 150.62,-22.55 154.73,-28.21"/>
</g>
<!-- Node7 -->
<g id="node7" class="node">
<title>Node7</title>
<g id="a_node7"><a xlink:title=" ">
<polygon fill="white" stroke="#bfbfbf" points="0,-0.5 0,-19.5 47,-19.5 47,-0.5 0,-0.5"/>
<text text-anchor="middle" x="23.5" y="-7.5" font-family="Helvetica,sans-Serif" font-size="10.00">cmath</text>
</a>
</g>
</g>
<!-- Node6&#45;&gt;Node7 -->
<g id="edge7" class="edge">
<title>Node6&#45;&gt;Node7</title>
<path fill="none" stroke="midnightblue" d="M80.9,-61.98C70.45,-52.7 53.53,-37.67 40.76,-26.33"/>
<polygon fill="midnightblue" stroke="midnightblue" points="42.88,-23.53 33.08,-19.51 38.23,-28.77 42.88,-23.53"/>
</g>
<!-- Node8 -->
<g id="node8" class="node">
<title>Node8</title>
<g id="a_node8"><a xlink:title=" ">
<polygon fill="white" stroke="#bfbfbf" points="65,-0.5 65,-19.5 116,-19.5 116,-0.5 65,-0.5"/>
<text text-anchor="middle" x="90.5" y="-7.5" font-family="Helvetica,sans-Serif" font-size="10.00">math.h</text>
</a>
</g>
</g>
<!-- Node6&#45;&gt;Node8 -->
<g id="edge8" class="edge">
<title>Node6&#45;&gt;Node8</title>
<path fill="none" stroke="midnightblue" d="M90.5,-61.98C90.5,-53.58 90.5,-40.48 90.5,-29.66"/>
<polygon fill="midnightblue" stroke="midnightblue" points="94,-29.51 90.5,-19.51 87,-29.51 94,-29.51"/>
</g>
<!-- Node9&#45;&gt;Node5 -->
<g id="edge11" class="edge">
<title>Node9&#45;&gt;Node5</title>
<path fill="none" stroke="midnightblue" d="M2154.85,-131.98C1890.1,-131.72 446.89,-128.42 255.5,-87 252.83,-86.42 250.1,-85.63 247.42,-84.72"/>
<polygon fill="midnightblue" stroke="midnightblue" points="248.62,-81.43 238.03,-81.04 246.06,-87.95 248.62,-81.43"/>
</g>
<!-- Node10 -->
<g id="node10" class="node">
<title>Node10</title>
<g id="a_node10"><a xlink:title=" ">
<polygon fill="white" stroke="#bfbfbf" points="2930.5,-62 2930.5,-81 2980.5,-81 2980.5,-62 2930.5,-62"/>
<text text-anchor="middle" x="2955.5" y="-69" font-family="Helvetica,sans-Serif" font-size="10.00">atomic</text>
</a>
</g>
</g>
<!-- Node9&#45;&gt;Node10 -->
<g id="edge10" class="edge">
<title>Node9&#45;&gt;Node10</title>
<path fill="none" stroke="midnightblue" d="M2238.04,-131.27C2371.79,-128.65 2790.19,-118.1 2921.5,-87 2924.01,-86.4 2926.58,-85.64 2929.11,-84.77"/>
<polygon fill="midnightblue" stroke="midnightblue" points="2930.56,-87.96 2938.59,-81.05 2928,-81.44 2930.56,-87.96"/>
</g>
<!-- Node11 -->
<g id="node11" class="node">
<title>Node11</title>
<g id="a_node11"><a xlink:title=" ">
<polygon fill="white" stroke="#bfbfbf" points="2998.5,-62 2998.5,-81 3054.5,-81 3054.5,-62 2998.5,-62"/>
<text text-anchor="middle" x="3026.5" y="-69" font-family="Helvetica,sans-Serif" font-size="10.00">iomanip</text>
</a>
</g>
</g>
<!-- Node9&#45;&gt;Node11 -->
<g id="edge12" class="edge">
<title>Node9&#45;&gt;Node11</title>
<path fill="none" stroke="midnightblue" d="M2238.37,-131.37C2380.56,-128.95 2844.17,-118.75 2989.5,-87 2992.5,-86.34 2995.58,-85.48 2998.62,-84.49"/>
<polygon fill="midnightblue" stroke="midnightblue" points="2999.84,-87.77 3008.04,-81.06 2997.44,-81.2 2999.84,-87.77"/>
</g>
<!-- Node12 -->
<g id="node12" class="node">
<title>Node12</title>
<g id="a_node12"><a xlink:title=" ">
<polygon fill="white" stroke="#bfbfbf" points="3762.5,-62 3762.5,-81 3818.5,-81 3818.5,-62 3762.5,-62"/>
<text text-anchor="middle" x="3790.5" y="-69" font-family="Helvetica,sans-Serif" font-size="10.00">sstream</text>
</a>
</g>
</g>
<!-- Node9&#45;&gt;Node12 -->
<g id="edge13" class="edge">
<title>Node9&#45;&gt;Node12</title>
<path fill="none" stroke="midnightblue" d="M2238.21,-131.65C2470.69,-129.59 3601.47,-118.01 3753.5,-87 3756.58,-86.37 3759.73,-85.51 3762.84,-84.51"/>
<polygon fill="midnightblue" stroke="midnightblue" points="3764.24,-87.73 3772.44,-81.01 3761.84,-81.15 3764.24,-87.73"/>
</g>
<!-- Node13 -->
<g id="node13" class="node">
<title>Node13</title>
<g id="a_node13"><a xlink:title=" ">
<polygon fill="white" stroke="#bfbfbf" points="3072.5,-62 3072.5,-81 3140.5,-81 3140.5,-62 3072.5,-62"/>
<text text-anchor="middle" x="3106.5" y="-69" font-family="Helvetica,sans-Serif" font-size="10.00">filesystem</text>
</a>
</g>
</g>
<!-- Node9&#45;&gt;Node13 -->
<g id="edge14" class="edge">
<title>Node9&#45;&gt;Node13</title>
<path fill="none" stroke="midnightblue" d="M2238.25,-131.34C2388.65,-128.74 2902.4,-117.74 3063.5,-87 3067.39,-86.26 3071.42,-85.25 3075.37,-84.1"/>
<polygon fill="midnightblue" stroke="midnightblue" points="3076.47,-87.42 3084.93,-81.06 3074.34,-80.75 3076.47,-87.42"/>
</g>
<!-- Node14 -->
<g id="node14" class="node">
<title>Node14</title>
<g id="a_node14"><a xlink:title=" ">
<polygon fill="white" stroke="#bfbfbf" points="3159,-62 3159,-81 3214,-81 3214,-62 3159,-62"/>
<text text-anchor="middle" x="3186.5" y="-69" font-family="Helvetica,sans-Serif" font-size="10.00">fstream</text>
</a>
</g>
</g>
<!-- Node9&#45;&gt;Node14 -->
<g id="edge15" class="edge">
<title>Node9&#45;&gt;Node14</title>
<path fill="none" stroke="midnightblue" d="M2238.25,-131.83C2398.19,-130.91 2971.72,-124.96 3149.5,-87 3152.51,-86.36 3155.59,-85.5 3158.63,-84.52"/>
<polygon fill="midnightblue" stroke="midnightblue" points="3159.84,-87.8 3168.04,-81.1 3157.45,-81.22 3159.84,-87.8"/>
</g>
<!-- Node15 -->
<g id="node15" class="node">
<title>Node15</title>
<g id="a_node15"><a xlink:title=" ">
<polygon fill="white" stroke="#bfbfbf" points="3232.5,-62 3232.5,-81 3276.5,-81 3276.5,-62 3232.5,-62"/>
<text text-anchor="middle" x="3254.5" y="-69" font-family="Helvetica,sans-Serif" font-size="10.00">ctime</text>
</a>
</g>
</g>
<!-- Node9&#45;&gt;Node15 -->
<g id="edge16" class="edge">
<title>Node9&#45;&gt;Node15</title>
<path fill="none" stroke="midnightblue" d="M2238.1,-132.34C2405.75,-133.39 3031.97,-134 3223.5,-87 3225.49,-86.51 3227.51,-85.89 3229.51,-85.18"/>
<polygon fill="midnightblue" stroke="midnightblue" points="3231.31,-88.22 3239.17,-81.12 3228.59,-81.77 3231.31,-88.22"/>
</g>
<!-- Node16 -->
<g id="node16" class="node">
<title>Node16</title>
<g id="a_node16"><a xlink:title=" ">
<polygon fill="white" stroke="#bfbfbf" points="3295,-56.5 3295,-86.5 3420,-86.5 3420,-56.5 3295,-56.5"/>
<text text-anchor="start" x="3303" y="-74.5" font-family="Helvetica,sans-Serif" font-size="10.00">boost/date_time/posix</text>
<text text-anchor="middle" x="3357.5" y="-63.5" font-family="Helvetica,sans-Serif" font-size="10.00">_time/posix_time.hpp</text>
</a>
</g>
</g>
<!-- Node9&#45;&gt;Node16 -->
<g id="edge17" class="edge">
<title>Node9&#45;&gt;Node16</title>
<path fill="none" stroke="midnightblue" d="M2238.28,-131.15C2409.29,-127.56 3057.07,-112.6 3284.58,-86.93"/>
<polygon fill="midnightblue" stroke="midnightblue" points="3285.24,-90.38 3294.77,-85.74 3284.43,-83.42 3285.24,-90.38"/>
</g>
<!-- Node17 -->
<g id="node17" class="node">
<title>Node17</title>
<g id="a_node17"><a xlink:title=" ">
<polygon fill="white" stroke="#bfbfbf" points="3438,-56.5 3438,-86.5 3593,-86.5 3593,-56.5 3438,-56.5"/>
<text text-anchor="start" x="3446" y="-74.5" font-family="Helvetica,sans-Serif" font-size="10.00">boost/date_time/posix</text>
<text text-anchor="middle" x="3515.5" y="-63.5" font-family="Helvetica,sans-Serif" font-size="10.00">_time/posix_time_types.hpp</text>
</a>
</g>
</g>
<!-- Node9&#45;&gt;Node17 -->
<g id="edge18" class="edge">
<title>Node9&#45;&gt;Node17</title>
<path fill="none" stroke="midnightblue" d="M2238.15,-132.45C2393.75,-133.7 2955.85,-134.53 3427.67,-87.1"/>
<polygon fill="midnightblue" stroke="midnightblue" points="3428.15,-90.57 3437.75,-86.08 3427.44,-83.6 3428.15,-90.57"/>
</g>
<!-- Node18 -->
<g id="node18" class="node">
<title>Node18</title>
<g id="a_node18"><a xlink:title=" ">
<polygon fill="white" stroke="#bfbfbf" points="3611,-62 3611,-81 3744,-81 3744,-62 3611,-62"/>
<text text-anchor="middle" x="3677.5" y="-69" font-family="Helvetica,sans-Serif" font-size="10.00">boost/log/attributes.hpp</text>
</a>
</g>
</g>
<!-- Node9&#45;&gt;Node18 -->
<g id="edge19" class="edge">
<title>Node9&#45;&gt;Node18</title>
<path fill="none" stroke="midnightblue" d="M2238.26,-131.56C2441.46,-129.28 3328.09,-117.72 3602.5,-87 3611.31,-86.01 3620.63,-84.55 3629.6,-82.94"/>
<polygon fill="midnightblue" stroke="midnightblue" points="3630.35,-86.36 3639.53,-81.06 3629.05,-79.48 3630.35,-86.36"/>
</g>
<!-- Node19 -->
<g id="node19" class="node">
<title>Node19</title>
<g id="a_node19"><a xlink:title=" ">
<polygon fill="white" stroke="#bfbfbf" points="264.5,-56.5 264.5,-86.5 386.5,-86.5 386.5,-56.5 264.5,-56.5"/>
<text text-anchor="start" x="272.5" y="-74.5" font-family="Helvetica,sans-Serif" font-size="10.00">boost/log/attributes</text>
<text text-anchor="middle" x="325.5" y="-63.5" font-family="Helvetica,sans-Serif" font-size="10.00">/scoped_attribute.hpp</text>
</a>
</g>
</g>
<!-- Node9&#45;&gt;Node19 -->
<g id="edge20" class="edge">
<title>Node9&#45;&gt;Node19</title>
<path fill="none" stroke="midnightblue" d="M2154.83,-131.97C1921.42,-131.67 773.44,-128.16 396.96,-86.99"/>
<polygon fill="midnightblue" stroke="midnightblue" points="397.19,-83.5 386.86,-85.86 396.41,-90.45 397.19,-83.5"/>
</g>
<!-- Node20 -->
<g id="node20" class="node">
<title>Node20</title>
<g id="a_node20"><a xlink:title=" ">
<polygon fill="white" stroke="#bfbfbf" points="405,-62 405,-81 512,-81 512,-62 405,-62"/>
<text text-anchor="middle" x="458.5" y="-69" font-family="Helvetica,sans-Serif" font-size="10.00">boost/log/core.hpp</text>
</a>
</g>
</g>
<!-- Node9&#45;&gt;Node20 -->
<g id="edge21" class="edge">
<title>Node9&#45;&gt;Node20</title>
<path fill="none" stroke="midnightblue" d="M2154.82,-132.01C1929.15,-131.87 851.56,-128.99 521.5,-87 514.54,-86.11 507.23,-84.8 500.15,-83.31"/>
<polygon fill="midnightblue" stroke="midnightblue" points="500.53,-79.81 490,-81.05 499,-86.64 500.53,-79.81"/>
</g>
<!-- Node21 -->
<g id="node21" class="node">
<title>Node21</title>
<g id="a_node21"><a xlink:title=" ">
<polygon fill="white" stroke="#bfbfbf" points="530.5,-62 530.5,-81 674.5,-81 674.5,-62 530.5,-62"/>
<text text-anchor="middle" x="602.5" y="-69" font-family="Helvetica,sans-Serif" font-size="10.00">boost/log/expressions.hpp</text>
</a>
</g>
</g>
<!-- Node9&#45;&gt;Node21 -->
<g id="edge22" class="edge">
<title>Node9&#45;&gt;Node21</title>
<path fill="none" stroke="midnightblue" d="M2154.78,-131.59C1942.46,-129.38 980.5,-117.83 683.5,-87 673.8,-85.99 663.51,-84.49 653.64,-82.83"/>
<polygon fill="midnightblue" stroke="midnightblue" points="653.99,-79.34 643.54,-81.06 652.78,-86.23 653.99,-79.34"/>
</g>
<!-- Node22 -->
<g id="node22" class="node">
<title>Node22</title>
<g id="a_node22"><a xlink:title=" ">
<polygon fill="white" stroke="#bfbfbf" points="692.5,-56.5 692.5,-86.5 808.5,-86.5 808.5,-56.5 692.5,-56.5"/>
<text text-anchor="start" x="700.5" y="-74.5" font-family="Helvetica,sans-Serif" font-size="10.00">boost/log/sinks/sync</text>
<text text-anchor="middle" x="750.5" y="-63.5" font-family="Helvetica,sans-Serif" font-size="10.00">_frontend.hpp</text>
</a>
</g>
</g>
<!-- Node9&#45;&gt;Node22 -->
<g id="edge23" class="edge">
<title>Node9&#45;&gt;Node22</title>
<path fill="none" stroke="midnightblue" d="M2154.86,-131.65C1956.59,-129.86 1106.25,-120.38 818.84,-86.98"/>
<polygon fill="midnightblue" stroke="midnightblue" points="819.21,-83.5 808.86,-85.78 818.37,-90.45 819.21,-83.5"/>
</g>
<!-- Node23 -->
<g id="node23" class="node">
<title>Node23</title>
<g id="a_node23"><a xlink:title=" ">
<polygon fill="white" stroke="#bfbfbf" points="827,-56.5 827,-86.5 956,-86.5 956,-56.5 827,-56.5"/>
<text text-anchor="start" x="835" y="-74.5" font-family="Helvetica,sans-Serif" font-size="10.00">boost/log/sinks/text</text>
<text text-anchor="middle" x="891.5" y="-63.5" font-family="Helvetica,sans-Serif" font-size="10.00">_ostream_backend.hpp</text>
</a>
</g>
</g>
<!-- Node9&#45;&gt;Node23 -->
<g id="edge24" class="edge">
<title>Node9&#45;&gt;Node23</title>
<path fill="none" stroke="midnightblue" d="M2154.72,-131.37C1969.75,-128.45 1222.66,-115.17 966.3,-87.06"/>
<polygon fill="midnightblue" stroke="midnightblue" points="966.62,-83.58 956.29,-85.93 965.84,-90.53 966.62,-83.58"/>
</g>
<!-- Node24 -->
<g id="node24" class="node">
<title>Node24</title>
<g id="a_node24"><a xlink:title=" ">
<polygon fill="white" stroke="#bfbfbf" points="974,-56.5 974,-86.5 1105,-86.5 1105,-56.5 974,-56.5"/>
<text text-anchor="start" x="982" y="-74.5" font-family="Helvetica,sans-Serif" font-size="10.00">boost/log/sources/basic</text>
<text text-anchor="middle" x="1039.5" y="-63.5" font-family="Helvetica,sans-Serif" font-size="10.00">_logger.hpp</text>
</a>
</g>
</g>
<!-- Node9&#45;&gt;Node24 -->
<g id="edge25" class="edge">
<title>Node9&#45;&gt;Node24</title>
<path fill="none" stroke="midnightblue" d="M2154.8,-132.5C2011.43,-133.75 1525.54,-134.08 1115.25,-86.95"/>
<polygon fill="midnightblue" stroke="midnightblue" points="1115.6,-83.47 1105.26,-85.79 1114.79,-90.42 1115.6,-83.47"/>
</g>
<!-- Node25 -->
<g id="node25" class="node">
<title>Node25</title>
<g id="a_node25"><a xlink:title=" ">
<polygon fill="white" stroke="#bfbfbf" points="1123.5,-62 1123.5,-81 1279.5,-81 1279.5,-62 1123.5,-62"/>
<text text-anchor="middle" x="1201.5" y="-69" font-family="Helvetica,sans-Serif" font-size="10.00">boost/log/sources/logger.hpp</text>
</a>
</g>
</g>
<!-- Node9&#45;&gt;Node25 -->
<g id="edge26" class="edge">
<title>Node9&#45;&gt;Node25</title>
<path fill="none" stroke="midnightblue" d="M2154.73,-131.65C2025.56,-130.18 1621.18,-122.85 1288.5,-87 1278.12,-85.88 1267.09,-84.33 1256.5,-82.65"/>
<polygon fill="midnightblue" stroke="midnightblue" points="1256.95,-79.18 1246.52,-81.02 1255.82,-86.09 1256.95,-79.18"/>
</g>
<!-- Node26 -->
<g id="node26" class="node">
<title>Node26</title>
<g id="a_node26"><a xlink:title=" ">
<polygon fill="white" stroke="#bfbfbf" points="1297.5,-56.5 1297.5,-86.5 1433.5,-86.5 1433.5,-56.5 1297.5,-56.5"/>
<text text-anchor="start" x="1305.5" y="-74.5" font-family="Helvetica,sans-Serif" font-size="10.00">boost/log/sources/record</text>
<text text-anchor="middle" x="1365.5" y="-63.5" font-family="Helvetica,sans-Serif" font-size="10.00">_ostream.hpp</text>
</a>
</g>
</g>
<!-- Node9&#45;&gt;Node26 -->
<g id="edge27" class="edge">
<title>Node9&#45;&gt;Node26</title>
<path fill="none" stroke="midnightblue" d="M2154.64,-131.36C2041.59,-129.23 1720.52,-120.57 1444.09,-87.09"/>
<polygon fill="midnightblue" stroke="midnightblue" points="1444.21,-83.58 1433.86,-85.84 1443.36,-90.53 1444.21,-83.58"/>
</g>
<!-- Node27 -->
<g id="node27" class="node">
<title>Node27</title>
<g id="a_node27"><a xlink:title=" ">
<polygon fill="white" stroke="#bfbfbf" points="1452,-56.5 1452,-86.5 1597,-86.5 1597,-56.5 1452,-56.5"/>
<text text-anchor="start" x="1460" y="-74.5" font-family="Helvetica,sans-Serif" font-size="10.00">boost/log/sources/severity</text>
<text text-anchor="middle" x="1524.5" y="-63.5" font-family="Helvetica,sans-Serif" font-size="10.00">_channel_logger.hpp</text>
</a>
</g>
</g>
<!-- Node9&#45;&gt;Node27 -->
<g id="edge28" class="edge">
<title>Node9&#45;&gt;Node27</title>
<path fill="none" stroke="midnightblue" d="M2154.8,-130.28C2059.51,-126.03 1818.37,-113.51 1607.33,-87.16"/>
<polygon fill="midnightblue" stroke="midnightblue" points="1607.66,-83.67 1597.3,-85.89 1606.79,-90.62 1607.66,-83.67"/>
</g>
<!-- Node28 -->
<g id="node28" class="node">
<title>Node28</title>
<g id="a_node28"><a xlink:title=" ">
<polygon fill="white" stroke="#bfbfbf" points="1615,-56.5 1615,-86.5 1760,-86.5 1760,-56.5 1615,-56.5"/>
<text text-anchor="start" x="1623" y="-74.5" font-family="Helvetica,sans-Serif" font-size="10.00">boost/log/sources/severity</text>
<text text-anchor="middle" x="1687.5" y="-63.5" font-family="Helvetica,sans-Serif" font-size="10.00">_logger.hpp</text>
</a>
</g>
</g>
<!-- Node9&#45;&gt;Node28 -->
<g id="edge29" class="edge">
<title>Node9&#45;&gt;Node28</title>
<path fill="none" stroke="midnightblue" d="M2154.86,-128.59C2080.06,-122.24 1917.8,-107.52 1770.47,-87.07"/>
<polygon fill="midnightblue" stroke="midnightblue" points="1770.72,-83.57 1760.34,-85.65 1769.75,-90.51 1770.72,-83.57"/>
</g>
<!-- Node29 -->
<g id="node29" class="node">
<title>Node29</title>
<g id="a_node29"><a xlink:title=" ">
<polygon fill="white" stroke="#bfbfbf" points="1778.5,-56.5 1778.5,-86.5 1904.5,-86.5 1904.5,-56.5 1778.5,-56.5"/>
<text text-anchor="start" x="1786.5" y="-74.5" font-family="Helvetica,sans-Serif" font-size="10.00">boost/log/support/date</text>
<text text-anchor="middle" x="1841.5" y="-63.5" font-family="Helvetica,sans-Serif" font-size="10.00">_time.hpp</text>
</a>
</g>
</g>
<!-- Node9&#45;&gt;Node29 -->
<g id="edge30" class="edge">
<title>Node9&#45;&gt;Node29</title>
<path fill="none" stroke="midnightblue" d="M2154.69,-125.9C2101.34,-118 2005.94,-103.46 1914.65,-87.17"/>
<polygon fill="midnightblue" stroke="midnightblue" points="1915.15,-83.7 1904.69,-85.38 1913.91,-90.59 1915.15,-83.7"/>
</g>
<!-- Node30 -->
<g id="node30" class="node">
<title>Node30</title>
<g id="a_node30"><a xlink:title=" ">
<polygon fill="white" stroke="#bfbfbf" points="1922.5,-62 1922.5,-81 2036.5,-81 2036.5,-62 1922.5,-62"/>
<text text-anchor="middle" x="1979.5" y="-69" font-family="Helvetica,sans-Serif" font-size="10.00">boost/log/trivial.hpp</text>
</a>
</g>
</g>
<!-- Node9&#45;&gt;Node30 -->
<g id="edge31" class="edge">
<title>Node9&#45;&gt;Node30</title>
<path fill="none" stroke="midnightblue" d="M2165.41,-123.48C2127.22,-113 2062.33,-95.21 2020.2,-83.66"/>
<polygon fill="midnightblue" stroke="midnightblue" points="2021.1,-80.28 2010.53,-81.01 2019.25,-87.03 2021.1,-80.28"/>
</g>
<!-- Node31 -->
<g id="node31" class="node">
<title>Node31</title>
<g id="a_node31"><a xlink:title=" ">
<polygon fill="white" stroke="#bfbfbf" points="2054.5,-56.5 2054.5,-86.5 2190.5,-86.5 2190.5,-56.5 2054.5,-56.5"/>
<text text-anchor="start" x="2062.5" y="-74.5" font-family="Helvetica,sans-Serif" font-size="10.00">boost/log/utility/setup</text>
<text text-anchor="middle" x="2122.5" y="-63.5" font-family="Helvetica,sans-Serif" font-size="10.00">/common_attributes.hpp</text>
</a>
</g>
</g>
<!-- Node9&#45;&gt;Node31 -->
<g id="edge32" class="edge">
<title>Node9&#45;&gt;Node31</title>
<path fill="none" stroke="midnightblue" d="M2185.9,-123.48C2176.06,-115.57 2161.04,-103.48 2148.08,-93.07"/>
<polygon fill="midnightblue" stroke="midnightblue" points="2149.93,-90.06 2139.94,-86.52 2145.54,-95.52 2149.93,-90.06"/>
</g>
<!-- Node32 -->
<g id="node32" class="node">
<title>Node32</title>
<g id="a_node32"><a xlink:title=" ">
<polygon fill="white" stroke="#bfbfbf" points="2209,-56.5 2209,-86.5 2332,-86.5 2332,-56.5 2209,-56.5"/>
<text text-anchor="start" x="2217" y="-74.5" font-family="Helvetica,sans-Serif" font-size="10.00">boost/log/utility/setup</text>
<text text-anchor="middle" x="2270.5" y="-63.5" font-family="Helvetica,sans-Serif" font-size="10.00">/file.hpp</text>
</a>
</g>
</g>
<!-- Node9&#45;&gt;Node32 -->
<g id="edge33" class="edge">
<title>Node9&#45;&gt;Node32</title>
<path fill="none" stroke="midnightblue" d="M2207.1,-123.48C2216.94,-115.57 2231.96,-103.48 2244.92,-93.07"/>
<polygon fill="midnightblue" stroke="midnightblue" points="2247.46,-95.52 2253.06,-86.52 2243.07,-90.06 2247.46,-95.52"/>
</g>
<!-- Node33 -->
<g id="node33" class="node">
<title>Node33</title>
<g id="a_node33"><a xlink:title=" ">
<polygon fill="white" stroke="#bfbfbf" points="2350,-56.5 2350,-86.5 2473,-86.5 2473,-56.5 2350,-56.5"/>
<text text-anchor="start" x="2358" y="-74.5" font-family="Helvetica,sans-Serif" font-size="10.00">boost/log/utility/value</text>
<text text-anchor="middle" x="2411.5" y="-63.5" font-family="Helvetica,sans-Serif" font-size="10.00">_ref.hpp</text>
</a>
</g>
</g>
<!-- Node9&#45;&gt;Node33 -->
<g id="edge34" class="edge">
<title>Node9&#45;&gt;Node33</title>
<path fill="none" stroke="midnightblue" d="M2227.3,-123.48C2259.48,-114.57 2310.8,-100.37 2351.1,-89.22"/>
<polygon fill="midnightblue" stroke="midnightblue" points="2352.12,-92.56 2360.83,-86.52 2350.26,-85.82 2352.12,-92.56"/>
</g>
<!-- Node34 -->
<g id="node34" class="node">
<title>Node34</title>
<g id="a_node34"><a xlink:title=" ">
<polygon fill="white" stroke="#bfbfbf" points="2491,-62 2491,-81 2622,-81 2622,-62 2491,-62"/>
<text text-anchor="middle" x="2556.5" y="-69" font-family="Helvetica,sans-Serif" font-size="10.00">boost/phoenix/bind.hpp</text>
</a>
</g>
</g>
<!-- Node9&#45;&gt;Node34 -->
<g id="edge35" class="edge">
<title>Node9&#45;&gt;Node34</title>
<path fill="none" stroke="midnightblue" d="M2238.26,-125.93C2294.04,-117.71 2395.88,-102.3 2482.5,-87 2489.59,-85.75 2497.05,-84.36 2504.39,-82.96"/>
<polygon fill="midnightblue" stroke="midnightblue" points="2505.13,-86.39 2514.29,-81.05 2503.81,-79.51 2505.13,-86.39"/>
</g>
<!-- Node35 -->
<g id="node35" class="node">
<title>Node35</title>
<g id="a_node35"><a xlink:title=" ">
<polygon fill="white" stroke="#bfbfbf" points="2640.5,-56.5 2640.5,-86.5 2764.5,-86.5 2764.5,-56.5 2640.5,-56.5"/>
<text text-anchor="start" x="2648.5" y="-74.5" font-family="Helvetica,sans-Serif" font-size="10.00">boost/smart_ptr/make</text>
<text text-anchor="middle" x="2702.5" y="-63.5" font-family="Helvetica,sans-Serif" font-size="10.00">_shared_object.hpp</text>
</a>
</g>
</g>
<!-- Node9&#45;&gt;Node35 -->
<g id="edge36" class="edge">
<title>Node9&#45;&gt;Node35</title>
<path fill="none" stroke="midnightblue" d="M2238.06,-129.07C2313.92,-123.42 2480.1,-109.69 2629.92,-87.15"/>
<polygon fill="midnightblue" stroke="midnightblue" points="2630.86,-90.54 2640.22,-85.58 2629.81,-83.62 2630.86,-90.54"/>
</g>
<!-- Node36 -->
<g id="node36" class="node">
<title>Node36</title>
<g id="a_node36"><a xlink:title=" ">
<polygon fill="white" stroke="#bfbfbf" points="2782.5,-56.5 2782.5,-86.5 2912.5,-86.5 2912.5,-56.5 2782.5,-56.5"/>
<text text-anchor="start" x="2790.5" y="-74.5" font-family="Helvetica,sans-Serif" font-size="10.00">boost/smart_ptr/shared</text>
<text text-anchor="middle" x="2847.5" y="-63.5" font-family="Helvetica,sans-Serif" font-size="10.00">_ptr.hpp</text>
</a>
</g>
</g>
<!-- Node9&#45;&gt;Node36 -->
<g id="edge37" class="edge">
<title>Node9&#45;&gt;Node36</title>
<path fill="none" stroke="midnightblue" d="M2238.31,-130.4C2332.08,-126.45 2566.43,-114.6 2772.12,-87.09"/>
<polygon fill="midnightblue" stroke="midnightblue" points="2772.76,-90.53 2782.2,-85.72 2771.82,-83.59 2772.76,-90.53"/>
</g>
<!-- Node37&#45;&gt;Node4 -->
<g id="edge43" class="edge">
<title>Node37&#45;&gt;Node4</title>
<path fill="none" stroke="midnightblue" d="M3869.5,-123.41C3865.14,-106.88 3853.03,-70.93 3827.5,-56 3745.91,-8.28 648.7,-10.41 221.24,-10.93"/>
<polygon fill="midnightblue" stroke="midnightblue" points="221.06,-7.43 211.07,-10.94 221.07,-14.43 221.06,-7.43"/>
</g>
<!-- Node37&#45;&gt;Node12 -->
<g id="edge41" class="edge">
<title>Node37&#45;&gt;Node12</title>
<path fill="none" stroke="midnightblue" d="M3859.89,-123.48C3847.02,-114.02 3826.03,-98.6 3810.49,-87.19"/>
<polygon fill="midnightblue" stroke="midnightblue" points="3812.22,-84.11 3802.08,-81.01 3808.07,-89.75 3812.22,-84.11"/>
</g>
<!-- Node38 -->
<g id="node38" class="node">
<title>Node38</title>
<g id="a_node38"><a xlink:title=" ">
<polygon fill="white" stroke="#bfbfbf" points="4024.5,-62 4024.5,-81 4084.5,-81 4084.5,-62 4024.5,-62"/>
<text text-anchor="middle" x="4054.5" y="-69" font-family="Helvetica,sans-Serif" font-size="10.00">iostream</text>
</a>
</g>
</g>
<!-- Node37&#45;&gt;Node38 -->
<g id="edge39" class="edge">
<title>Node37&#45;&gt;Node38</title>
<path fill="none" stroke="midnightblue" d="M3900.33,-123.48C3929.51,-114.75 3975.85,-100.56 4015.5,-87 4017.75,-86.23 4020.06,-85.42 4022.39,-84.59"/>
<polygon fill="midnightblue" stroke="midnightblue" points="4023.69,-87.84 4031.89,-81.14 4021.29,-81.27 4023.69,-87.84"/>
</g>
<!-- Node39 -->
<g id="node39" class="node">
<title>Node39</title>
<g id="a_node39"><a xlink:title=" ">
<polygon fill="white" stroke="#bfbfbf" points="3874.5,-62 3874.5,-81 3918.5,-81 3918.5,-62 3874.5,-62"/>
<text text-anchor="middle" x="3896.5" y="-69" font-family="Helvetica,sans-Serif" font-size="10.00">string</text>
</a>
</g>
</g>
<!-- Node37&#45;&gt;Node39 -->
<g id="edge40" class="edge">
<title>Node37&#45;&gt;Node39</title>
<path fill="none" stroke="midnightblue" d="M3875.08,-123.48C3878.68,-114.9 3884.35,-101.43 3888.94,-90.48"/>
<polygon fill="midnightblue" stroke="midnightblue" points="3892.28,-91.58 3892.92,-81.01 3885.82,-88.87 3892.28,-91.58"/>
</g>
<!-- Node40 -->
<g id="node40" class="node">
<title>Node40</title>
<g id="a_node40"><a xlink:title=" ">
<polygon fill="white" stroke="#bfbfbf" points="3937,-62 3937,-81 4006,-81 4006,-62 3937,-62"/>
<text text-anchor="middle" x="3971.5" y="-69" font-family="Helvetica,sans-Serif" font-size="10.00">type_traits</text>
</a>
</g>
</g>
<!-- Node37&#45;&gt;Node40 -->
<g id="edge42" class="edge">
<title>Node37&#45;&gt;Node40</title>
<path fill="none" stroke="midnightblue" d="M3885.83,-123.48C3902.16,-113.75 3929.1,-97.73 3948.41,-86.24"/>
<polygon fill="midnightblue" stroke="midnightblue" points="3950.39,-89.13 3957.2,-81.01 3946.82,-83.11 3950.39,-89.13"/>
</g>
</g>
</svg>
