<?xml version="1.0" encoding="UTF-8" standalone="no"?>
<!DOCTYPE svg PUBLIC "-//W3C//DTD SVG 1.1//EN"
 "http://www.w3.org/Graphics/SVG/1.1/DTD/svg11.dtd">
<!-- Generated by graphviz version 2.43.0 (0)
 -->
<!-- Title: ACSL&#45;flightstack&#45;winged/src/acsl_flight/include/utils/flightstack_helpers/px4_defines.hpp Pages: 1 -->
<svg width="1692pt" height="729pt"
 viewBox="0.00 0.00 1692.25 729.00" xmlns="http://www.w3.org/2000/svg" xmlns:xlink="http://www.w3.org/1999/xlink">
<g id="graph0" class="graph" transform="scale(1 1) rotate(0) translate(4 725)">
<title>ACSL&#45;flightstack&#45;winged/src/acsl_flight/include/utils/flightstack_helpers/px4_defines.hpp</title>
<polygon fill="white" stroke="transparent" points="-4,4 -4,-725 1688.25,-725 1688.25,4 -4,4"/>
<!-- Node1 -->
<g id="node1" class="node">
<title>Node1</title>
<g id="a_node1"><a xlink:title="Contains useful constant defines for use in the flight stack in a central location.">
<polygon fill="#bfbfbf" stroke="black" points="576.25,-668.5 576.25,-720.5 712.25,-720.5 712.25,-668.5 576.25,-668.5"/>
<text text-anchor="start" x="584.25" y="-708.5" font-family="Helvetica,sans-Serif" font-size="10.00">ACSL&#45;flightstack&#45;winged</text>
<text text-anchor="start" x="584.25" y="-697.5" font-family="Helvetica,sans-Serif" font-size="10.00">/src/acsl_flight/include</text>
<text text-anchor="start" x="584.25" y="-686.5" font-family="Helvetica,sans-Serif" font-size="10.00">/utils/flightstack_helpers</text>
<text text-anchor="middle" x="644.25" y="-675.5" font-family="Helvetica,sans-Serif" font-size="10.00">/px4_defines.hpp</text>
</a>
</g>
</g>
<!-- Node2 -->
<g id="node2" class="node">
<title>Node2</title>
<g id="a_node2"><a xlink:href="control_8hpp.html" target="_top" xlink:title="Class declaration for computing and publishing the control.">
<polygon fill="white" stroke="black" points="1352.75,-234.5 1352.75,-275.5 1487.75,-275.5 1487.75,-234.5 1352.75,-234.5"/>
<text text-anchor="start" x="1360.75" y="-263.5" font-family="Helvetica,sans-Serif" font-size="10.00">ACSL&#45;flightstack&#45;winged</text>
<text text-anchor="start" x="1360.75" y="-252.5" font-family="Helvetica,sans-Serif" font-size="10.00">/src/acsl_flight/include</text>
<text text-anchor="middle" x="1420.25" y="-241.5" font-family="Helvetica,sans-Serif" font-size="10.00">/control/control.hpp</text>
</a>
</g>
</g>
<!-- Node1&#45;&gt;Node2 -->
<g id="edge1" class="edge">
<title>Node1&#45;&gt;Node2</title>
<path fill="none" stroke="midnightblue" d="M722.45,-692.34C859.75,-689.15 1152.62,-677.15 1395.25,-632 1529.38,-607.04 1684.25,-664.93 1684.25,-528.5 1684.25,-528.5 1684.25,-528.5 1684.25,-432 1684.25,-337.67 1566.12,-290.78 1487.9,-270.08"/>
<polygon fill="midnightblue" stroke="midnightblue" points="722.36,-688.85 712.44,-692.57 722.52,-695.84 722.36,-688.85"/>
</g>
<!-- Node8 -->
<g id="node8" class="node">
<title>Node8</title>
<g id="a_node8"><a xlink:href="flight__params_8hpp.html" target="_top" xlink:title="Header file for the main flight parameters that will be used for the entire controller.">
<polygon fill="white" stroke="black" points="1209.75,-590.5 1209.75,-631.5 1386.75,-631.5 1386.75,-590.5 1209.75,-590.5"/>
<text text-anchor="start" x="1217.75" y="-619.5" font-family="Helvetica,sans-Serif" font-size="10.00">ACSL&#45;flightstack&#45;winged</text>
<text text-anchor="start" x="1217.75" y="-608.5" font-family="Helvetica,sans-Serif" font-size="10.00">/src/acsl_flight/include</text>
<text text-anchor="middle" x="1298.25" y="-597.5" font-family="Helvetica,sans-Serif" font-size="10.00">/flight_params/flight_params.hpp</text>
</a>
</g>
</g>
<!-- Node1&#45;&gt;Node8 -->
<g id="edge8" class="edge">
<title>Node1&#45;&gt;Node8</title>
<path fill="none" stroke="midnightblue" d="M722.44,-683.76C844.84,-668.5 1080.97,-639.08 1209.55,-623.05"/>
<polygon fill="midnightblue" stroke="midnightblue" points="721.88,-680.3 712.39,-685.01 722.75,-687.25 721.88,-680.3"/>
</g>
<!-- Node18 -->
<g id="node18" class="node">
<title>Node18</title>
<g id="a_node18"><a xlink:href="mocap_8hpp.html" target="_top" xlink:title="Class declaration for UDP socket as a lifecycle node.">
<polygon fill="white" stroke="black" points="893.75,-234.5 893.75,-275.5 1028.75,-275.5 1028.75,-234.5 893.75,-234.5"/>
<text text-anchor="start" x="901.75" y="-263.5" font-family="Helvetica,sans-Serif" font-size="10.00">ACSL&#45;flightstack&#45;winged</text>
<text text-anchor="start" x="901.75" y="-252.5" font-family="Helvetica,sans-Serif" font-size="10.00">/src/acsl_flight/include</text>
<text text-anchor="middle" x="961.25" y="-241.5" font-family="Helvetica,sans-Serif" font-size="10.00">/mocap/mocap.hpp</text>
</a>
</g>
</g>
<!-- Node1&#45;&gt;Node18 -->
<g id="edge43" class="edge">
<title>Node1&#45;&gt;Node18</title>
<path fill="none" stroke="midnightblue" d="M566.17,-690.72C409.4,-684.43 67.89,-666.85 28.25,-632 -7.21,-600.82 4.25,-575.72 4.25,-528.5 4.25,-528.5 4.25,-528.5 4.25,-432 4.25,-377.61 -12.76,-347.73 28.25,-312 93.06,-255.54 689.68,-254.18 893.43,-255.39"/>
<polygon fill="midnightblue" stroke="midnightblue" points="566.09,-694.22 576.22,-691.12 566.37,-687.23 566.09,-694.22"/>
</g>
<!-- Node20 -->
<g id="node20" class="node">
<title>Node20</title>
<g id="a_node20"><a xlink:href="vio_8hpp.html" target="_top" xlink:title="Class decleration for Intel Realsense T265 tracking camera as a lifecycle node.">
<polygon fill="white" stroke="black" points="1048.75,-234.5 1048.75,-275.5 1183.75,-275.5 1183.75,-234.5 1048.75,-234.5"/>
<text text-anchor="start" x="1056.75" y="-263.5" font-family="Helvetica,sans-Serif" font-size="10.00">ACSL&#45;flightstack&#45;winged</text>
<text text-anchor="start" x="1056.75" y="-252.5" font-family="Helvetica,sans-Serif" font-size="10.00">/src/acsl_flight/include</text>
<text text-anchor="middle" x="1116.25" y="-241.5" font-family="Helvetica,sans-Serif" font-size="10.00">/vio/vio.hpp</text>
</a>
</g>
</g>
<!-- Node1&#45;&gt;Node20 -->
<g id="edge44" class="edge">
<title>Node1&#45;&gt;Node20</title>
<path fill="none" stroke="midnightblue" d="M565.62,-688.46C402.47,-675.83 42.25,-635.8 42.25,-528.5 42.25,-528.5 42.25,-528.5 42.25,-432 42.25,-378 20.85,-347.82 61.25,-312 101.85,-276.01 983.54,-283.7 1037.25,-276 1040.89,-275.48 1044.61,-274.86 1048.35,-274.16"/>
<polygon fill="midnightblue" stroke="midnightblue" points="565.84,-691.98 576.07,-689.25 566.37,-685 565.84,-691.98"/>
</g>
<!-- Node3 -->
<g id="node3" class="node">
<title>Node3</title>
<g id="a_node3"><a xlink:href="flight__bridge_8hpp.html" target="_top" xlink:title="Utilities for multithreading.">
<polygon fill="white" stroke="black" points="1201.75,-156.5 1201.75,-197.5 1366.75,-197.5 1366.75,-156.5 1201.75,-156.5"/>
<text text-anchor="start" x="1209.75" y="-185.5" font-family="Helvetica,sans-Serif" font-size="10.00">ACSL&#45;flightstack&#45;winged</text>
<text text-anchor="start" x="1209.75" y="-174.5" font-family="Helvetica,sans-Serif" font-size="10.00">/src/acsl_flight/include</text>
<text text-anchor="middle" x="1284.25" y="-163.5" font-family="Helvetica,sans-Serif" font-size="10.00">/flight_bridge/flight_bridge.hpp</text>
</a>
</g>
</g>
<!-- Node2&#45;&gt;Node3 -->
<g id="edge2" class="edge">
<title>Node2&#45;&gt;Node3</title>
<path fill="none" stroke="midnightblue" d="M1370.29,-229.63C1351.07,-219.24 1329.8,-207.29 1313.17,-197.51"/>
<polygon fill="midnightblue" stroke="midnightblue" points="1368.77,-232.79 1379.24,-234.43 1372.08,-226.62 1368.77,-232.79"/>
</g>
<!-- Node7 -->
<g id="node7" class="node">
<title>Node7</title>
<g id="a_node7"><a xlink:href="control_8cpp.html" target="_top" xlink:title="Control node definition. Runs all the control algorithms. Adds as a hub for all the control actions.">
<polygon fill="white" stroke="black" points="1385.25,-156.5 1385.25,-197.5 1525.25,-197.5 1525.25,-156.5 1385.25,-156.5"/>
<text text-anchor="start" x="1393.25" y="-185.5" font-family="Helvetica,sans-Serif" font-size="10.00">ACSL&#45;flightstack&#45;winged</text>
<text text-anchor="start" x="1393.25" y="-174.5" font-family="Helvetica,sans-Serif" font-size="10.00">/src/acsl_flight/src/control</text>
<text text-anchor="middle" x="1455.25" y="-163.5" font-family="Helvetica,sans-Serif" font-size="10.00">/control.cpp</text>
</a>
</g>
</g>
<!-- Node2&#45;&gt;Node7 -->
<g id="edge7" class="edge">
<title>Node2&#45;&gt;Node7</title>
<path fill="none" stroke="midnightblue" d="M1433.53,-225.17C1437.78,-215.93 1442.39,-205.92 1446.27,-197.51"/>
<polygon fill="midnightblue" stroke="midnightblue" points="1430.27,-223.88 1429.27,-234.43 1436.63,-226.81 1430.27,-223.88"/>
</g>
<!-- Node3&#45;&gt;Node2 -->
<g id="edge3" class="edge">
<title>Node3&#45;&gt;Node2</title>
<path fill="none" stroke="midnightblue" d="M1334.09,-202.3C1353.3,-212.68 1374.57,-224.63 1391.22,-234.43"/>
<polygon fill="midnightblue" stroke="midnightblue" points="1335.61,-199.15 1325.14,-197.51 1332.3,-205.32 1335.61,-199.15"/>
</g>
<!-- Node4 -->
<g id="node4" class="node">
<title>Node4</title>
<g id="a_node4"><a xlink:href="flight__main_8hpp.html" target="_top" xlink:title="Header file for the main function that just sources all the other header files.">
<polygon fill="white" stroke="black" points="1469.75,-78.5 1469.75,-119.5 1622.75,-119.5 1622.75,-78.5 1469.75,-78.5"/>
<text text-anchor="start" x="1477.75" y="-107.5" font-family="Helvetica,sans-Serif" font-size="10.00">ACSL&#45;flightstack&#45;winged</text>
<text text-anchor="start" x="1477.75" y="-96.5" font-family="Helvetica,sans-Serif" font-size="10.00">/src/acsl_flight/include</text>
<text text-anchor="middle" x="1546.25" y="-85.5" font-family="Helvetica,sans-Serif" font-size="10.00">/flight_main/flight_main.hpp</text>
</a>
</g>
</g>
<!-- Node3&#45;&gt;Node4 -->
<g id="edge4" class="edge">
<title>Node3&#45;&gt;Node4</title>
<path fill="none" stroke="midnightblue" d="M1361.54,-153.58C1398.83,-142.76 1443.14,-129.91 1479.01,-119.51"/>
<polygon fill="midnightblue" stroke="midnightblue" points="1360.35,-150.28 1351.72,-156.43 1362.3,-157 1360.35,-150.28"/>
</g>
<!-- Node6 -->
<g id="node6" class="node">
<title>Node6</title>
<g id="a_node6"><a xlink:href="flight__bridge_8cpp.html" target="_top" xlink:title="Utlities for multithreading.">
<polygon fill="white" stroke="black" points="1215.75,-78.5 1215.75,-119.5 1352.75,-119.5 1352.75,-78.5 1215.75,-78.5"/>
<text text-anchor="start" x="1223.75" y="-107.5" font-family="Helvetica,sans-Serif" font-size="10.00">ACSL&#45;flightstack&#45;winged</text>
<text text-anchor="start" x="1223.75" y="-96.5" font-family="Helvetica,sans-Serif" font-size="10.00">/src/acsl_flight/src/flight</text>
<text text-anchor="middle" x="1284.25" y="-85.5" font-family="Helvetica,sans-Serif" font-size="10.00">_bridge/flight_bridge.cpp</text>
</a>
</g>
</g>
<!-- Node3&#45;&gt;Node6 -->
<g id="edge6" class="edge">
<title>Node3&#45;&gt;Node6</title>
<path fill="none" stroke="midnightblue" d="M1284.25,-146.3C1284.25,-137.3 1284.25,-127.65 1284.25,-119.51"/>
<polygon fill="midnightblue" stroke="midnightblue" points="1280.75,-146.43 1284.25,-156.43 1287.75,-146.43 1280.75,-146.43"/>
</g>
<!-- Node5 -->
<g id="node5" class="node">
<title>Node5</title>
<g id="a_node5"><a xlink:href="flight__main_8cpp.html" target="_top" xlink:title="Main function to initiate ROS2.">
<polygon fill="white" stroke="black" points="1478.75,-0.5 1478.75,-41.5 1613.75,-41.5 1613.75,-0.5 1478.75,-0.5"/>
<text text-anchor="start" x="1486.75" y="-29.5" font-family="Helvetica,sans-Serif" font-size="10.00">ACSL&#45;flightstack&#45;winged</text>
<text text-anchor="start" x="1486.75" y="-18.5" font-family="Helvetica,sans-Serif" font-size="10.00">/src/acsl_flight/src/flight</text>
<text text-anchor="middle" x="1546.25" y="-7.5" font-family="Helvetica,sans-Serif" font-size="10.00">_main/flight_main.cpp</text>
</a>
</g>
</g>
<!-- Node4&#45;&gt;Node5 -->
<g id="edge5" class="edge">
<title>Node4&#45;&gt;Node5</title>
<path fill="none" stroke="midnightblue" d="M1546.25,-68.3C1546.25,-59.3 1546.25,-49.65 1546.25,-41.51"/>
<polygon fill="midnightblue" stroke="midnightblue" points="1542.75,-68.43 1546.25,-78.43 1549.75,-68.43 1542.75,-68.43"/>
</g>
<!-- Node8&#45;&gt;Node2 -->
<g id="edge9" class="edge">
<title>Node8&#45;&gt;Node2</title>
<path fill="none" stroke="midnightblue" d="M1375.53,-586.15C1392.83,-578.06 1409.96,-567.52 1423.25,-554 1453.4,-523.32 1452.63,-507.14 1461.25,-465 1475.48,-395.45 1445.3,-312.66 1429.33,-275.61"/>
<polygon fill="midnightblue" stroke="midnightblue" points="1373.65,-583.15 1365.92,-590.4 1376.49,-589.55 1373.65,-583.15"/>
</g>
<!-- Node8&#45;&gt;Node3 -->
<g id="edge10" class="edge">
<title>Node8&#45;&gt;Node3</title>
<path fill="none" stroke="midnightblue" d="M1281.3,-581.59C1276.78,-572.97 1272.31,-563.32 1269.25,-554 1252.4,-502.7 1250.25,-488 1250.25,-434 1250.25,-434 1250.25,-434 1250.25,-337.5 1250.25,-286.25 1267.25,-227.74 1277.21,-197.85"/>
<polygon fill="midnightblue" stroke="midnightblue" points="1278.29,-583.37 1286.16,-590.46 1284.43,-580.01 1278.29,-583.37"/>
</g>
<!-- Node8&#45;&gt;Node4 -->
<g id="edge11" class="edge">
<title>Node8&#45;&gt;Node4</title>
<path fill="none" stroke="midnightblue" d="M1396.93,-589.29C1459.4,-581.49 1592.68,-589.64 1628.25,-554 1666.35,-515.83 1646.25,-487.93 1646.25,-434 1646.25,-434 1646.25,-434 1646.25,-254 1646.25,-198.05 1599.25,-146.44 1569.7,-119.51"/>
<polygon fill="midnightblue" stroke="midnightblue" points="1396.2,-585.86 1386.83,-590.82 1397.24,-592.79 1396.2,-585.86"/>
</g>
<!-- Node9 -->
<g id="node9" class="node">
<title>Node9</title>
<g id="a_node9"><a xlink:href="piecewise__polynomial__trajectory_8hpp.html" target="_top" xlink:title="Header file for piecewise polynomial trajectory.">
<polygon fill="white" stroke="black" points="647.25,-501.5 647.25,-553.5 847.25,-553.5 847.25,-501.5 647.25,-501.5"/>
<text text-anchor="start" x="655.25" y="-541.5" font-family="Helvetica,sans-Serif" font-size="10.00">ACSL&#45;flightstack&#45;winged</text>
<text text-anchor="start" x="655.25" y="-530.5" font-family="Helvetica,sans-Serif" font-size="10.00">/src/acsl_flight/include</text>
<text text-anchor="start" x="655.25" y="-519.5" font-family="Helvetica,sans-Serif" font-size="10.00">/piecewise_polynomial_trajectory</text>
<text text-anchor="middle" x="747.25" y="-508.5" font-family="Helvetica,sans-Serif" font-size="10.00">/piecewise_polynomial_trajectory.hpp</text>
</a>
</g>
</g>
<!-- Node8&#45;&gt;Node9 -->
<g id="edge12" class="edge">
<title>Node8&#45;&gt;Node9</title>
<path fill="none" stroke="midnightblue" d="M1199.68,-595.42C1100.31,-580.72 947.73,-558.15 847.7,-543.36"/>
<polygon fill="midnightblue" stroke="midnightblue" points="1199.32,-598.9 1209.72,-596.91 1200.34,-591.98 1199.32,-598.9"/>
</g>
<!-- Node26 -->
<g id="node26" class="node">
<title>Node26</title>
<g id="a_node26"><a xlink:href="read__pix_8hpp.html" target="_top" xlink:title="Class decleartion for reading pixhawk data.">
<polygon fill="white" stroke="black" points="1278.75,-507 1278.75,-548 1413.75,-548 1413.75,-507 1278.75,-507"/>
<text text-anchor="start" x="1286.75" y="-536" font-family="Helvetica,sans-Serif" font-size="10.00">ACSL&#45;flightstack&#45;winged</text>
<text text-anchor="start" x="1286.75" y="-525" font-family="Helvetica,sans-Serif" font-size="10.00">/src/acsl_flight/include</text>
<text text-anchor="middle" x="1346.25" y="-514" font-family="Helvetica,sans-Serif" font-size="10.00">/read_pix/read_pix.hpp</text>
</a>
</g>
</g>
<!-- Node8&#45;&gt;Node26 -->
<g id="edge33" class="edge">
<title>Node8&#45;&gt;Node26</title>
<path fill="none" stroke="midnightblue" d="M1315.1,-581.39C1321.6,-570.37 1328.86,-558.03 1334.74,-548.05"/>
<polygon fill="midnightblue" stroke="midnightblue" points="1311.93,-579.88 1309.87,-590.27 1317.96,-583.43 1311.93,-579.88"/>
</g>
<!-- Node28 -->
<g id="node28" class="node">
<title>Node28</title>
<g id="a_node28"><a xlink:href="control__algorithm__base_8hpp.html" target="_top" xlink:title="Utilities for Controller Base Definition.">
<polygon fill="white" stroke="black" points="445.25,-501.5 445.25,-553.5 629.25,-553.5 629.25,-501.5 445.25,-501.5"/>
<text text-anchor="start" x="453.25" y="-541.5" font-family="Helvetica,sans-Serif" font-size="10.00">ACSL&#45;flightstack&#45;winged</text>
<text text-anchor="start" x="453.25" y="-530.5" font-family="Helvetica,sans-Serif" font-size="10.00">/src/acsl_flight/include</text>
<text text-anchor="start" x="453.25" y="-519.5" font-family="Helvetica,sans-Serif" font-size="10.00">/utils/control_algorithm</text>
<text text-anchor="middle" x="537.25" y="-508.5" font-family="Helvetica,sans-Serif" font-size="10.00">_base/control_algorithm_base.hpp</text>
</a>
</g>
</g>
<!-- Node8&#45;&gt;Node28 -->
<g id="edge36" class="edge">
<title>Node8&#45;&gt;Node28</title>
<path fill="none" stroke="midnightblue" d="M1199.31,-606.62C1069.68,-601.05 835.64,-587.07 638.25,-554 635.31,-553.51 632.33,-552.97 629.32,-552.4"/>
<polygon fill="midnightblue" stroke="midnightblue" points="1199.47,-610.13 1209.61,-607.06 1199.76,-603.14 1199.47,-610.13"/>
</g>
<!-- Node29 -->
<g id="node29" class="node">
<title>Node29</title>
<g id="a_node29"><a xlink:href="flight__params_8cpp.html" target="_top" xlink:title="Define file for the main flight parameters that will be used for the entire controller.">
<polygon fill="white" stroke="black" points="1469.75,-507 1469.75,-548 1618.75,-548 1618.75,-507 1469.75,-507"/>
<text text-anchor="start" x="1477.75" y="-536" font-family="Helvetica,sans-Serif" font-size="10.00">ACSL&#45;flightstack&#45;winged</text>
<text text-anchor="start" x="1477.75" y="-525" font-family="Helvetica,sans-Serif" font-size="10.00">/src/acsl_flight/src/flight</text>
<text text-anchor="middle" x="1544.25" y="-514" font-family="Helvetica,sans-Serif" font-size="10.00">_params/flight_params.cpp</text>
</a>
</g>
</g>
<!-- Node8&#45;&gt;Node29 -->
<g id="edge42" class="edge">
<title>Node8&#45;&gt;Node29</title>
<path fill="none" stroke="midnightblue" d="M1366.95,-587.24C1404.2,-574.9 1449.77,-559.8 1485.38,-548"/>
<polygon fill="midnightblue" stroke="midnightblue" points="1365.57,-584.01 1357.18,-590.48 1367.77,-590.66 1365.57,-584.01"/>
</g>
<!-- Node10 -->
<g id="node10" class="node">
<title>Node10</title>
<g id="a_node10"><a xlink:href="MRAC__OMEGA_8hpp.html" target="_top" xlink:title="MRAC with angular velocities for the QRBP.">
<polygon fill="white" stroke="black" points="118.25,-401.5 118.25,-464.5 272.25,-464.5 272.25,-401.5 118.25,-401.5"/>
<text text-anchor="start" x="126.25" y="-452.5" font-family="Helvetica,sans-Serif" font-size="10.00">ACSL&#45;flightstack&#45;winged</text>
<text text-anchor="start" x="126.25" y="-441.5" font-family="Helvetica,sans-Serif" font-size="10.00">/src/acsl_flight/include</text>
<text text-anchor="start" x="126.25" y="-430.5" font-family="Helvetica,sans-Serif" font-size="10.00">/control/platforms/qrbp</text>
<text text-anchor="start" x="126.25" y="-419.5" font-family="Helvetica,sans-Serif" font-size="10.00">/control_algorithms/MRAC</text>
<text text-anchor="middle" x="195.25" y="-408.5" font-family="Helvetica,sans-Serif" font-size="10.00">_OMEGA/MRAC_OMEGA.hpp</text>
</a>
</g>
</g>
<!-- Node9&#45;&gt;Node10 -->
<g id="edge13" class="edge">
<title>Node9&#45;&gt;Node10</title>
<path fill="none" stroke="midnightblue" d="M636.91,-500.89C479.09,-475.8 433.58,-499.58 281.25,-465 278.31,-464.33 275.33,-463.59 272.34,-462.8"/>
<polygon fill="midnightblue" stroke="midnightblue" points="636.54,-504.37 646.98,-502.53 637.67,-497.46 636.54,-504.37"/>
</g>
<!-- Node12 -->
<g id="node12" class="node">
<title>Node12</title>
<g id="a_node12"><a xlink:href="MRAC__PID_8hpp.html" target="_top" xlink:title="MRAC_PID for the QRBP.">
<polygon fill="white" stroke="black" points="290.75,-401.5 290.75,-464.5 433.75,-464.5 433.75,-401.5 290.75,-401.5"/>
<text text-anchor="start" x="298.75" y="-452.5" font-family="Helvetica,sans-Serif" font-size="10.00">ACSL&#45;flightstack&#45;winged</text>
<text text-anchor="start" x="298.75" y="-441.5" font-family="Helvetica,sans-Serif" font-size="10.00">/src/acsl_flight/include</text>
<text text-anchor="start" x="298.75" y="-430.5" font-family="Helvetica,sans-Serif" font-size="10.00">/control/platforms/qrbp</text>
<text text-anchor="start" x="298.75" y="-419.5" font-family="Helvetica,sans-Serif" font-size="10.00">/control_algorithms/MRAC</text>
<text text-anchor="middle" x="362.25" y="-408.5" font-family="Helvetica,sans-Serif" font-size="10.00">_PID/MRAC_PID.hpp</text>
</a>
</g>
</g>
<!-- Node9&#45;&gt;Node12 -->
<g id="edge15" class="edge">
<title>Node9&#45;&gt;Node12</title>
<path fill="none" stroke="midnightblue" d="M637.38,-500.88C549.78,-483.31 524.48,-488.26 442.25,-465 439.53,-464.23 436.77,-463.4 433.99,-462.53"/>
<polygon fill="midnightblue" stroke="midnightblue" points="636.71,-504.32 647.21,-502.9 638.12,-497.46 636.71,-504.32"/>
</g>
<!-- Node14 -->
<g id="node14" class="node">
<title>Node14</title>
<g id="a_node14"><a xlink:href="PID_8hpp.html" target="_top" xlink:title="PID for the QRBP.">
<polygon fill="white" stroke="black" points="451.75,-407 451.75,-459 622.75,-459 622.75,-407 451.75,-407"/>
<text text-anchor="start" x="459.75" y="-447" font-family="Helvetica,sans-Serif" font-size="10.00">ACSL&#45;flightstack&#45;winged</text>
<text text-anchor="start" x="459.75" y="-436" font-family="Helvetica,sans-Serif" font-size="10.00">/src/acsl_flight/include</text>
<text text-anchor="start" x="459.75" y="-425" font-family="Helvetica,sans-Serif" font-size="10.00">/control/platforms/qrbp</text>
<text text-anchor="middle" x="537.25" y="-414" font-family="Helvetica,sans-Serif" font-size="10.00">/control_algorithms/PID/PID.hpp</text>
</a>
</g>
</g>
<!-- Node9&#45;&gt;Node14 -->
<g id="edge17" class="edge">
<title>Node9&#45;&gt;Node14</title>
<path fill="none" stroke="midnightblue" d="M681.13,-497.37C653.19,-485.07 620.98,-470.88 594.13,-459.05"/>
<polygon fill="midnightblue" stroke="midnightblue" points="679.86,-500.64 690.42,-501.47 682.68,-494.23 679.86,-500.64"/>
</g>
<!-- Node16 -->
<g id="node16" class="node">
<title>Node16</title>
<g id="a_node16"><a xlink:href="PID__OMEGA_8hpp.html" target="_top" xlink:title="PID with angular veocities for the QRBP.">
<polygon fill="white" stroke="black" points="849.75,-401.5 849.75,-464.5 1022.75,-464.5 1022.75,-401.5 849.75,-401.5"/>
<text text-anchor="start" x="857.75" y="-452.5" font-family="Helvetica,sans-Serif" font-size="10.00">ACSL&#45;flightstack&#45;winged</text>
<text text-anchor="start" x="857.75" y="-441.5" font-family="Helvetica,sans-Serif" font-size="10.00">/src/acsl_flight/include</text>
<text text-anchor="start" x="857.75" y="-430.5" font-family="Helvetica,sans-Serif" font-size="10.00">/control/platforms/qrbp</text>
<text text-anchor="start" x="857.75" y="-419.5" font-family="Helvetica,sans-Serif" font-size="10.00">/control_algorithms/PID_OMEGA</text>
<text text-anchor="middle" x="936.25" y="-408.5" font-family="Helvetica,sans-Serif" font-size="10.00">/PID_OMEGA.hpp</text>
</a>
</g>
</g>
<!-- Node9&#45;&gt;Node16 -->
<g id="edge19" class="edge">
<title>Node9&#45;&gt;Node16</title>
<path fill="none" stroke="midnightblue" d="M807.57,-496.98C828.64,-486.67 852.34,-475.07 873.6,-464.66"/>
<polygon fill="midnightblue" stroke="midnightblue" points="805.84,-493.93 798.4,-501.47 808.92,-500.22 805.84,-493.93"/>
</g>
<!-- Node23 -->
<g id="node23" class="node">
<title>Node23</title>
<g id="a_node23"><a xlink:href="PID__TD_8hpp.html" target="_top" xlink:title="PID for the ros test drone.">
<polygon fill="white" stroke="black" points="641.25,-407 641.25,-459 831.25,-459 831.25,-407 641.25,-407"/>
<text text-anchor="start" x="649.25" y="-447" font-family="Helvetica,sans-Serif" font-size="10.00">ACSL&#45;flightstack&#45;winged</text>
<text text-anchor="start" x="649.25" y="-436" font-family="Helvetica,sans-Serif" font-size="10.00">/src/acsl_flight/include</text>
<text text-anchor="start" x="649.25" y="-425" font-family="Helvetica,sans-Serif" font-size="10.00">/control/platforms/rostestdrone</text>
<text text-anchor="middle" x="736.25" y="-414" font-family="Helvetica,sans-Serif" font-size="10.00">/control_algorithms/PID/PID_TD.hpp</text>
</a>
</g>
</g>
<!-- Node9&#45;&gt;Node23 -->
<g id="edge30" class="edge">
<title>Node9&#45;&gt;Node23</title>
<path fill="none" stroke="midnightblue" d="M743.03,-490.99C741.77,-480.41 740.42,-469.03 739.25,-459.25"/>
<polygon fill="midnightblue" stroke="midnightblue" points="739.59,-491.71 744.25,-501.22 746.54,-490.88 739.59,-491.71"/>
</g>
<!-- Node25 -->
<g id="node25" class="node">
<title>Node25</title>
<g id="a_node25"><a xlink:href="piecewise__polynomial__trajectory_8cpp.html" target="_top" xlink:title="Implementation of the piecewise polynomial trajectory.">
<polygon fill="white" stroke="black" points="1040.75,-407 1040.75,-459 1221.75,-459 1221.75,-407 1040.75,-407"/>
<text text-anchor="start" x="1048.75" y="-447" font-family="Helvetica,sans-Serif" font-size="10.00">ACSL&#45;flightstack&#45;winged</text>
<text text-anchor="start" x="1048.75" y="-436" font-family="Helvetica,sans-Serif" font-size="10.00">/src/acsl_flight/src/piecewise</text>
<text text-anchor="start" x="1048.75" y="-425" font-family="Helvetica,sans-Serif" font-size="10.00">_polynomial_trajectory/piecewise</text>
<text text-anchor="middle" x="1131.25" y="-414" font-family="Helvetica,sans-Serif" font-size="10.00">_polynomial_trajectory.cpp</text>
</a>
</g>
</g>
<!-- Node9&#45;&gt;Node25 -->
<g id="edge32" class="edge">
<title>Node9&#45;&gt;Node25</title>
<path fill="none" stroke="midnightblue" d="M857.39,-504.99C910.24,-494.07 974.3,-479.96 1031.25,-465 1038.28,-463.15 1045.56,-461.13 1052.83,-459.02"/>
<polygon fill="midnightblue" stroke="midnightblue" points="856.41,-501.61 847.32,-507.06 857.82,-508.47 856.41,-501.61"/>
</g>
<!-- Node11 -->
<g id="node11" class="node">
<title>Node11</title>
<g id="a_node11"><a xlink:href="MRAC__OMEGA_8cpp.html" target="_top" xlink:title="MRAC with angular velocities for the QRBP. Inherts the class controller_base for the basic functional...">
<polygon fill="white" stroke="black" points="70.25,-312.5 70.25,-364.5 256.25,-364.5 256.25,-312.5 70.25,-312.5"/>
<text text-anchor="start" x="78.25" y="-352.5" font-family="Helvetica,sans-Serif" font-size="10.00">ACSL&#45;flightstack&#45;winged</text>
<text text-anchor="start" x="78.25" y="-341.5" font-family="Helvetica,sans-Serif" font-size="10.00">/src/acsl_flight/src/control</text>
<text text-anchor="start" x="78.25" y="-330.5" font-family="Helvetica,sans-Serif" font-size="10.00">/platforms/qrbp/control_algorithms</text>
<text text-anchor="middle" x="163.25" y="-319.5" font-family="Helvetica,sans-Serif" font-size="10.00">/MRAC_OMEGA/MRAC_OMEGA.cpp</text>
</a>
</g>
</g>
<!-- Node10&#45;&gt;Node11 -->
<g id="edge14" class="edge">
<title>Node10&#45;&gt;Node11</title>
<path fill="none" stroke="midnightblue" d="M181.32,-391.72C178.15,-382.56 174.87,-373.09 171.99,-364.77"/>
<polygon fill="midnightblue" stroke="midnightblue" points="178.11,-393.15 184.69,-401.46 184.72,-390.86 178.11,-393.15"/>
</g>
<!-- Node13 -->
<g id="node13" class="node">
<title>Node13</title>
<g id="a_node13"><a xlink:href="MRAC__PID_8cpp.html" target="_top" xlink:title="MRAC_PID for the QRBP.">
<polygon fill="white" stroke="black" points="274.25,-312.5 274.25,-364.5 460.25,-364.5 460.25,-312.5 274.25,-312.5"/>
<text text-anchor="start" x="282.25" y="-352.5" font-family="Helvetica,sans-Serif" font-size="10.00">ACSL&#45;flightstack&#45;winged</text>
<text text-anchor="start" x="282.25" y="-341.5" font-family="Helvetica,sans-Serif" font-size="10.00">/src/acsl_flight/src/control</text>
<text text-anchor="start" x="282.25" y="-330.5" font-family="Helvetica,sans-Serif" font-size="10.00">/platforms/qrbp/control_algorithms</text>
<text text-anchor="middle" x="367.25" y="-319.5" font-family="Helvetica,sans-Serif" font-size="10.00">/MRAC_PID/MRAC_PID.cpp</text>
</a>
</g>
</g>
<!-- Node12&#45;&gt;Node13 -->
<g id="edge16" class="edge">
<title>Node12&#45;&gt;Node13</title>
<path fill="none" stroke="midnightblue" d="M364.45,-391.42C364.94,-382.36 365.44,-373 365.89,-364.77"/>
<polygon fill="midnightblue" stroke="midnightblue" points="360.95,-391.28 363.9,-401.46 367.94,-391.66 360.95,-391.28"/>
</g>
<!-- Node15 -->
<g id="node15" class="node">
<title>Node15</title>
<g id="a_node15"><a xlink:href="PID_8cpp.html" target="_top" xlink:title="PID for the QRBP Inherts the class controller_base for the basic functionality that is to be used for...">
<polygon fill="white" stroke="black" points="478.25,-312.5 478.25,-364.5 664.25,-364.5 664.25,-312.5 478.25,-312.5"/>
<text text-anchor="start" x="486.25" y="-352.5" font-family="Helvetica,sans-Serif" font-size="10.00">ACSL&#45;flightstack&#45;winged</text>
<text text-anchor="start" x="486.25" y="-341.5" font-family="Helvetica,sans-Serif" font-size="10.00">/src/acsl_flight/src/control</text>
<text text-anchor="start" x="486.25" y="-330.5" font-family="Helvetica,sans-Serif" font-size="10.00">/platforms/qrbp/control_algorithms</text>
<text text-anchor="middle" x="571.25" y="-319.5" font-family="Helvetica,sans-Serif" font-size="10.00">/PID/PID.cpp</text>
</a>
</g>
</g>
<!-- Node14&#45;&gt;Node15 -->
<g id="edge18" class="edge">
<title>Node14&#45;&gt;Node15</title>
<path fill="none" stroke="midnightblue" d="M550.06,-397.15C554.02,-386.38 558.3,-374.73 561.97,-364.75"/>
<polygon fill="midnightblue" stroke="midnightblue" points="546.71,-396.13 546.54,-406.72 553.28,-398.55 546.71,-396.13"/>
</g>
<!-- Node17 -->
<g id="node17" class="node">
<title>Node17</title>
<g id="a_node17"><a xlink:href="control__config_8hpp.html" target="_top" xlink:title="Just a header file for configuring which platform and controller to pick during compilation.">
<polygon fill="white" stroke="black" points="1072.25,-318 1072.25,-359 1218.25,-359 1218.25,-318 1072.25,-318"/>
<text text-anchor="start" x="1080.25" y="-347" font-family="Helvetica,sans-Serif" font-size="10.00">ACSL&#45;flightstack&#45;winged</text>
<text text-anchor="start" x="1080.25" y="-336" font-family="Helvetica,sans-Serif" font-size="10.00">/src/acsl_flight/include</text>
<text text-anchor="middle" x="1145.25" y="-325" font-family="Helvetica,sans-Serif" font-size="10.00">/control/control_config.hpp</text>
</a>
</g>
</g>
<!-- Node16&#45;&gt;Node17 -->
<g id="edge20" class="edge">
<title>Node16&#45;&gt;Node17</title>
<path fill="none" stroke="midnightblue" d="M1014.62,-397.31C1043.8,-384.4 1075.88,-370.2 1100.95,-359.11"/>
<polygon fill="midnightblue" stroke="midnightblue" points="1012.99,-394.21 1005.27,-401.46 1015.83,-400.61 1012.99,-394.21"/>
</g>
<!-- Node22 -->
<g id="node22" class="node">
<title>Node22</title>
<g id="a_node22"><a xlink:href="PID__OMEGA_8cpp.html" target="_top" xlink:title="PID with angular velocities for the QRBP.">
<polygon fill="white" stroke="black" points="868.25,-312.5 868.25,-364.5 1054.25,-364.5 1054.25,-312.5 868.25,-312.5"/>
<text text-anchor="start" x="876.25" y="-352.5" font-family="Helvetica,sans-Serif" font-size="10.00">ACSL&#45;flightstack&#45;winged</text>
<text text-anchor="start" x="876.25" y="-341.5" font-family="Helvetica,sans-Serif" font-size="10.00">/src/acsl_flight/src/control</text>
<text text-anchor="start" x="876.25" y="-330.5" font-family="Helvetica,sans-Serif" font-size="10.00">/platforms/qrbp/control_algorithms</text>
<text text-anchor="middle" x="961.25" y="-319.5" font-family="Helvetica,sans-Serif" font-size="10.00">/PID_OMEGA/PID_OMEGA.cpp</text>
</a>
</g>
</g>
<!-- Node16&#45;&gt;Node22 -->
<g id="edge29" class="edge">
<title>Node16&#45;&gt;Node22</title>
<path fill="none" stroke="midnightblue" d="M947.14,-391.72C949.61,-382.56 952.17,-373.09 954.42,-364.77"/>
<polygon fill="midnightblue" stroke="midnightblue" points="943.74,-390.89 944.51,-401.46 950.5,-392.72 943.74,-390.89"/>
</g>
<!-- Node17&#45;&gt;Node2 -->
<g id="edge21" class="edge">
<title>Node17&#45;&gt;Node2</title>
<path fill="none" stroke="midnightblue" d="M1220.72,-315.13C1262.61,-302.72 1314.21,-287.43 1354.44,-275.5"/>
<polygon fill="midnightblue" stroke="midnightblue" points="1219.71,-311.78 1211.12,-317.98 1221.7,-318.49 1219.71,-311.78"/>
</g>
<!-- Node17&#45;&gt;Node3 -->
<g id="edge22" class="edge">
<title>Node17&#45;&gt;Node3</title>
<path fill="none" stroke="midnightblue" d="M1168.98,-310.28C1196.84,-278.3 1242.4,-226.03 1267.07,-197.72"/>
<polygon fill="midnightblue" stroke="midnightblue" points="1166.23,-308.1 1162.3,-317.94 1171.51,-312.7 1166.23,-308.1"/>
</g>
<!-- Node17&#45;&gt;Node18 -->
<g id="edge23" class="edge">
<title>Node17&#45;&gt;Node18</title>
<path fill="none" stroke="midnightblue" d="M1091.72,-313.79C1064.27,-301.63 1031.24,-287 1005.28,-275.5"/>
<polygon fill="midnightblue" stroke="midnightblue" points="1090.62,-317.13 1101.18,-317.98 1093.45,-310.73 1090.62,-317.13"/>
</g>
<!-- Node17&#45;&gt;Node20 -->
<g id="edge26" class="edge">
<title>Node17&#45;&gt;Node20</title>
<path fill="none" stroke="midnightblue" d="M1134.84,-308.23C1130.97,-297.37 1126.69,-285.33 1123.21,-275.55"/>
<polygon fill="midnightblue" stroke="midnightblue" points="1131.58,-309.52 1138.23,-317.77 1138.18,-307.18 1131.58,-309.52"/>
</g>
<!-- Node18&#45;&gt;Node3 -->
<g id="edge24" class="edge">
<title>Node18&#45;&gt;Node3</title>
<path fill="none" stroke="midnightblue" d="M1038.61,-234.15C1038.83,-234.1 1039.04,-234.05 1039.25,-234 1093.21,-220.92 1154.06,-207 1201.62,-196.32"/>
<polygon fill="midnightblue" stroke="midnightblue" points="1037.75,-230.76 1028.87,-236.55 1039.42,-237.56 1037.75,-230.76"/>
</g>
<!-- Node19 -->
<g id="node19" class="node">
<title>Node19</title>
<g id="a_node19"><a xlink:href="mocap_8cpp.html" target="_top" xlink:title="Node definition for UDP socket as a lifecycle node.">
<polygon fill="white" stroke="black" points="890.25,-156.5 890.25,-197.5 1030.25,-197.5 1030.25,-156.5 890.25,-156.5"/>
<text text-anchor="start" x="898.25" y="-185.5" font-family="Helvetica,sans-Serif" font-size="10.00">ACSL&#45;flightstack&#45;winged</text>
<text text-anchor="start" x="898.25" y="-174.5" font-family="Helvetica,sans-Serif" font-size="10.00">/src/acsl_flight/src/mocap</text>
<text text-anchor="middle" x="960.25" y="-163.5" font-family="Helvetica,sans-Serif" font-size="10.00">/mocap.cpp</text>
</a>
</g>
</g>
<!-- Node18&#45;&gt;Node19 -->
<g id="edge25" class="edge">
<title>Node18&#45;&gt;Node19</title>
<path fill="none" stroke="midnightblue" d="M960.86,-224.3C960.74,-215.3 960.62,-205.65 960.51,-197.51"/>
<polygon fill="midnightblue" stroke="midnightblue" points="957.36,-224.48 960.99,-234.43 964.36,-224.38 957.36,-224.48"/>
</g>
<!-- Node20&#45;&gt;Node3 -->
<g id="edge27" class="edge">
<title>Node20&#45;&gt;Node3</title>
<path fill="none" stroke="midnightblue" d="M1168.89,-230.19C1192.13,-219.67 1219.11,-207.47 1241.13,-197.51"/>
<polygon fill="midnightblue" stroke="midnightblue" points="1167.19,-227.12 1159.52,-234.43 1170.07,-233.5 1167.19,-227.12"/>
</g>
<!-- Node21 -->
<g id="node21" class="node">
<title>Node21</title>
<g id="a_node21"><a xlink:href="vio_8cpp.html" target="_top" xlink:title="Node definition for Intel Realsense T265 tracking camera as a lifecycle node.">
<polygon fill="white" stroke="black" points="1048.75,-156.5 1048.75,-197.5 1183.75,-197.5 1183.75,-156.5 1048.75,-156.5"/>
<text text-anchor="start" x="1056.75" y="-185.5" font-family="Helvetica,sans-Serif" font-size="10.00">ACSL&#45;flightstack&#45;winged</text>
<text text-anchor="start" x="1056.75" y="-174.5" font-family="Helvetica,sans-Serif" font-size="10.00">/src/acsl_flight/src/vio</text>
<text text-anchor="middle" x="1116.25" y="-163.5" font-family="Helvetica,sans-Serif" font-size="10.00">/vio.cpp</text>
</a>
</g>
</g>
<!-- Node20&#45;&gt;Node21 -->
<g id="edge28" class="edge">
<title>Node20&#45;&gt;Node21</title>
<path fill="none" stroke="midnightblue" d="M1116.25,-224.3C1116.25,-215.3 1116.25,-205.65 1116.25,-197.51"/>
<polygon fill="midnightblue" stroke="midnightblue" points="1112.75,-224.43 1116.25,-234.43 1119.75,-224.43 1112.75,-224.43"/>
</g>
<!-- Node24 -->
<g id="node24" class="node">
<title>Node24</title>
<g id="a_node24"><a xlink:href="PID__TD_8cpp.html" target="_top" xlink:title="PID for the rostestdrone.">
<polygon fill="white" stroke="black" points="682.25,-312.5 682.25,-364.5 850.25,-364.5 850.25,-312.5 682.25,-312.5"/>
<text text-anchor="start" x="690.25" y="-352.5" font-family="Helvetica,sans-Serif" font-size="10.00">ACSL&#45;flightstack&#45;winged</text>
<text text-anchor="start" x="690.25" y="-341.5" font-family="Helvetica,sans-Serif" font-size="10.00">/src/acsl_flight/src/control</text>
<text text-anchor="start" x="690.25" y="-330.5" font-family="Helvetica,sans-Serif" font-size="10.00">/platforms/rostestdrone/control</text>
<text text-anchor="middle" x="766.25" y="-319.5" font-family="Helvetica,sans-Serif" font-size="10.00">_algorithms/PID/PID_TD.cpp</text>
</a>
</g>
</g>
<!-- Node23&#45;&gt;Node24 -->
<g id="edge31" class="edge">
<title>Node23&#45;&gt;Node24</title>
<path fill="none" stroke="midnightblue" d="M747.55,-397.15C751.05,-386.38 754.82,-374.73 758.06,-364.75"/>
<polygon fill="midnightblue" stroke="midnightblue" points="744.21,-396.13 744.45,-406.72 750.86,-398.29 744.21,-396.13"/>
</g>
<!-- Node26&#45;&gt;Node3 -->
<g id="edge34" class="edge">
<title>Node26&#45;&gt;Node3</title>
<path fill="none" stroke="midnightblue" d="M1325.14,-498.56C1318.6,-488.49 1312.11,-476.71 1308.25,-465 1276.55,-368.84 1279.99,-245.23 1282.81,-197.77"/>
<polygon fill="midnightblue" stroke="midnightblue" points="1322.31,-500.62 1330.83,-506.92 1328.1,-496.68 1322.31,-500.62"/>
</g>
<!-- Node27 -->
<g id="node27" class="node">
<title>Node27</title>
<g id="a_node27"><a xlink:href="read__pix_8cpp.html" target="_top" xlink:title="Class definiton for reading pixhawk data.">
<polygon fill="white" stroke="black" points="1316.75,-412.5 1316.75,-453.5 1451.75,-453.5 1451.75,-412.5 1316.75,-412.5"/>
<text text-anchor="start" x="1324.75" y="-441.5" font-family="Helvetica,sans-Serif" font-size="10.00">ACSL&#45;flightstack&#45;winged</text>
<text text-anchor="start" x="1324.75" y="-430.5" font-family="Helvetica,sans-Serif" font-size="10.00">/src/acsl_flight/src/read</text>
<text text-anchor="middle" x="1384.25" y="-419.5" font-family="Helvetica,sans-Serif" font-size="10.00">_pix/read_pix.cpp</text>
</a>
</g>
</g>
<!-- Node26&#45;&gt;Node27 -->
<g id="edge35" class="edge">
<title>Node26&#45;&gt;Node27</title>
<path fill="none" stroke="midnightblue" d="M1358.17,-497.48C1364.04,-483.19 1370.97,-466.34 1376.21,-453.59"/>
<polygon fill="midnightblue" stroke="midnightblue" points="1354.87,-496.3 1354.31,-506.88 1361.35,-498.96 1354.87,-496.3"/>
</g>
<!-- Node28&#45;&gt;Node10 -->
<g id="edge37" class="edge">
<title>Node28&#45;&gt;Node10</title>
<path fill="none" stroke="midnightblue" d="M435.15,-504.69C387.99,-493.92 331.43,-480.02 281.25,-465 278.36,-464.14 275.43,-463.23 272.47,-462.29"/>
<polygon fill="midnightblue" stroke="midnightblue" points="434.54,-508.14 445.07,-506.94 436.09,-501.31 434.54,-508.14"/>
</g>
<!-- Node28&#45;&gt;Node12 -->
<g id="edge38" class="edge">
<title>Node28&#45;&gt;Node12</title>
<path fill="none" stroke="midnightblue" d="M480.88,-496.7C461.5,-486.46 439.77,-474.98 420.26,-464.66"/>
<polygon fill="midnightblue" stroke="midnightblue" points="479.42,-499.89 489.89,-501.47 482.69,-493.7 479.42,-499.89"/>
</g>
<!-- Node28&#45;&gt;Node14 -->
<g id="edge39" class="edge">
<title>Node28&#45;&gt;Node14</title>
<path fill="none" stroke="midnightblue" d="M537.25,-490.99C537.25,-480.41 537.25,-469.03 537.25,-459.25"/>
<polygon fill="midnightblue" stroke="midnightblue" points="533.75,-491.22 537.25,-501.22 540.75,-491.22 533.75,-491.22"/>
</g>
<!-- Node28&#45;&gt;Node16 -->
<g id="edge40" class="edge">
<title>Node28&#45;&gt;Node16</title>
<path fill="none" stroke="midnightblue" d="M639.19,-500.88C729.15,-482.15 754.79,-486.31 840.25,-465 843.31,-464.24 846.41,-463.43 849.54,-462.58"/>
<polygon fill="midnightblue" stroke="midnightblue" points="638.44,-497.45 629.39,-502.95 639.9,-504.3 638.44,-497.45"/>
</g>
<!-- Node28&#45;&gt;Node23 -->
<g id="edge41" class="edge">
<title>Node28&#45;&gt;Node23</title>
<path fill="none" stroke="midnightblue" d="M600.26,-497.21C626.65,-484.94 657.02,-470.83 682.36,-459.05"/>
<polygon fill="midnightblue" stroke="midnightblue" points="598.7,-494.08 591.1,-501.47 601.65,-500.43 598.7,-494.08"/>
</g>
</g>
</svg>
