<?xml version="1.0" encoding="UTF-8" standalone="no"?>
<!DOCTYPE svg PUBLIC "-//W3C//DTD SVG 1.1//EN"
 "http://www.w3.org/Graphics/SVG/1.1/DTD/svg11.dtd">
<!-- Generated by graphviz version 2.43.0 (0)
 -->
<!-- Title: ACSL&#45;flightstack&#45;winged/src/acsl_flight/include/utils/flightstack_helpers/px4_defines.hpp Pages: 1 -->
<!--zoomable 573 -->
<svg id="main" version="1.1" xmlns="http://www.w3.org/2000/svg" xmlns:xlink="http://www.w3.org/1999/xlink" xml:space="preserve" onload="init(evt)">
<style type="text/css"><![CDATA[
.edge:hover path { stroke: red; }
.edge:hover polygon { stroke: red; fill: red; }
]]></style>
<script type="text/javascript"><![CDATA[
var edges = document.getElementsByTagName('g');
if (edges && edges.length) {
  for (var i=0;i<edges.length;i++) {
    if (edges[i].id.substr(0,4)=='edge') {
      edges[i].setAttribute('class','edge');
    }
  }
}
]]></script>
        <defs>
                <circle id="rim" cx="0" cy="0" r="7"/>
                <circle id="rim2" cx="0" cy="0" r="3.5"/>
                <g id="zoomPlus">
                        <use xlink:href="#rim" fill="#404040">
                                <set attributeName="fill" to="#808080" begin="zoomplus.mouseover" end="zoomplus.mouseout"/>
                        </use>
                        <path d="M-4,0h8M0,-4v8" fill="none" stroke="white" stroke-width="1.5" pointer-events="none"/>
                </g>
                <g id="zoomMin">
                        <use xlink:href="#rim" fill="#404040">
                                <set attributeName="fill" to="#808080" begin="zoomminus.mouseover" end="zoomminus.mouseout"/>
                        </use>
                        <path d="M-4,0h8" fill="none" stroke="white" stroke-width="1.5" pointer-events="none"/>
                </g>
                <g id="dirArrow">
                        <path fill="none" stroke="white" stroke-width="1.5" d="M0,-3.0v7 M-2.5,-0.5L0,-3.0L2.5,-0.5"/>
                </g>
               <g id="resetDef">
                       <use xlink:href="#rim2" fill="#404040">
                               <set attributeName="fill" to="#808080" begin="reset.mouseover" end="reset.mouseout"/>
                       </use>
               </g>
        </defs>

<script type="text/javascript">
var viewWidth = 1583;
var viewHeight = 573;
var sectionId = 'dynsection-1';
</script>
<script xlink:href="svgpan.js"/>
<svg id="graph" class="graph">
<g id="viewport">
<title>ACSL&#45;flightstack&#45;winged/src/acsl_flight/include/utils/flightstack_helpers/px4_defines.hpp</title>
<polygon fill="white" stroke="transparent" points="-4,4 -4,-569 1579,-569 1579,4 -4,4"/>
<!-- Node1 -->
<g id="node1" class="node">
<title>Node1</title>
<g id="a_node1"><a xlink:title="Contains useful constant defines for use in the flight stack in a central location.">
<polygon fill="#bfbfbf" stroke="black" points="1154,-512.5 1154,-564.5 1290,-564.5 1290,-512.5 1154,-512.5"/>
<text text-anchor="start" x="1162" y="-552.5" font-family="Helvetica,sans-Serif" font-size="10.00">ACSL&#45;flightstack&#45;winged</text>
<text text-anchor="start" x="1162" y="-541.5" font-family="Helvetica,sans-Serif" font-size="10.00">/src/acsl_flight/include</text>
<text text-anchor="start" x="1162" y="-530.5" font-family="Helvetica,sans-Serif" font-size="10.00">/utils/flightstack_helpers</text>
<text text-anchor="middle" x="1222" y="-519.5" font-family="Helvetica,sans-Serif" font-size="10.00">/px4_defines.hpp</text>
</a>
</g>
</g>
<!-- Node2 -->
<g id="node2" class="node">
<title>Node2</title>
<g id="a_node2"><a xlink:href="control_8hpp.html" target="_top" xlink:title="Class declaration for computing and publishing the control.">
<polygon fill="white" stroke="black" points="2.5,-78.5 2.5,-119.5 137.5,-119.5 137.5,-78.5 2.5,-78.5"/>
<text text-anchor="start" x="10.5" y="-107.5" font-family="Helvetica,sans-Serif" font-size="10.00">ACSL&#45;flightstack&#45;winged</text>
<text text-anchor="start" x="10.5" y="-96.5" font-family="Helvetica,sans-Serif" font-size="10.00">/src/acsl_flight/include</text>
<text text-anchor="middle" x="70" y="-85.5" font-family="Helvetica,sans-Serif" font-size="10.00">/control/control.hpp</text>
</a>
</g>
</g>
<!-- Node1&#45;&gt;Node2 -->
<g id="edge1" class="edge">
<title>Node1&#45;&gt;Node2</title>
<path fill="none" stroke="midnightblue" d="M1143.43,-534.9C878.13,-525.11 32,-485.06 32,-372.5 32,-372.5 32,-372.5 32,-276 32,-218.17 51.84,-152.01 62.85,-119.76"/>
<polygon fill="midnightblue" stroke="midnightblue" points="1143.63,-538.41 1153.75,-535.28 1143.88,-531.42 1143.63,-538.41"/>
</g>
<!-- Node4 -->
<g id="node4" class="node">
<title>Node4</title>
<g id="a_node4"><a xlink:href="flight__params_8hpp.html" target="_top" xlink:title="Header file for the main flight parameters that will be used for the entire controller.">
<polygon fill="white" stroke="black" points="818.5,-434.5 818.5,-475.5 995.5,-475.5 995.5,-434.5 818.5,-434.5"/>
<text text-anchor="start" x="826.5" y="-463.5" font-family="Helvetica,sans-Serif" font-size="10.00">ACSL&#45;flightstack&#45;winged</text>
<text text-anchor="start" x="826.5" y="-452.5" font-family="Helvetica,sans-Serif" font-size="10.00">/src/acsl_flight/include</text>
<text text-anchor="middle" x="907" y="-441.5" font-family="Helvetica,sans-Serif" font-size="10.00">/flight_params/flight_params.hpp</text>
</a>
</g>
</g>
<!-- Node1&#45;&gt;Node4 -->
<g id="edge3" class="edge">
<title>Node1&#45;&gt;Node4</title>
<path fill="none" stroke="midnightblue" d="M1143.67,-517.23C1094.38,-504.48 1031.1,-488.11 982.38,-475.5"/>
<polygon fill="midnightblue" stroke="midnightblue" points="1143.09,-520.7 1153.65,-519.82 1144.85,-513.92 1143.09,-520.7"/>
</g>
<!-- Node16 -->
<g id="node16" class="node">
<title>Node16</title>
<g id="a_node16"><a xlink:href="mocap_8hpp.html" target="_top" xlink:title="Class declaration for UDP socket as a lifecycle node.">
<polygon fill="white" stroke="black" points="1058.5,-78.5 1058.5,-119.5 1193.5,-119.5 1193.5,-78.5 1058.5,-78.5"/>
<text text-anchor="start" x="1066.5" y="-107.5" font-family="Helvetica,sans-Serif" font-size="10.00">ACSL&#45;flightstack&#45;winged</text>
<text text-anchor="start" x="1066.5" y="-96.5" font-family="Helvetica,sans-Serif" font-size="10.00">/src/acsl_flight/include</text>
<text text-anchor="middle" x="1126" y="-85.5" font-family="Helvetica,sans-Serif" font-size="10.00">/mocap/mocap.hpp</text>
</a>
</g>
</g>
<!-- Node1&#45;&gt;Node16 -->
<g id="edge34" class="edge">
<title>Node1&#45;&gt;Node16</title>
<path fill="none" stroke="midnightblue" d="M1300.34,-530.33C1393.63,-516.98 1537,-479.12 1537,-372.5 1537,-372.5 1537,-372.5 1537,-276 1537,-222 1556.47,-193.89 1518,-156 1495.29,-133.63 1299.67,-114.27 1193.65,-105.31"/>
<polygon fill="midnightblue" stroke="midnightblue" points="1299.79,-526.87 1290.35,-531.69 1300.73,-533.81 1299.79,-526.87"/>
</g>
<!-- Node18 -->
<g id="node18" class="node">
<title>Node18</title>
<g id="a_node18"><a xlink:href="vio_8hpp.html" target="_top" xlink:title="Class decleration for Intel Realsense T265 tracking camera as a lifecycle node.">
<polygon fill="white" stroke="black" points="1409.5,-78.5 1409.5,-119.5 1544.5,-119.5 1544.5,-78.5 1409.5,-78.5"/>
<text text-anchor="start" x="1417.5" y="-107.5" font-family="Helvetica,sans-Serif" font-size="10.00">ACSL&#45;flightstack&#45;winged</text>
<text text-anchor="start" x="1417.5" y="-96.5" font-family="Helvetica,sans-Serif" font-size="10.00">/src/acsl_flight/include</text>
<text text-anchor="middle" x="1477" y="-85.5" font-family="Helvetica,sans-Serif" font-size="10.00">/vio/vio.hpp</text>
</a>
</g>
</g>
<!-- Node1&#45;&gt;Node18 -->
<g id="edge35" class="edge">
<title>Node1&#45;&gt;Node18</title>
<path fill="none" stroke="midnightblue" d="M1300.22,-534.43C1404.2,-525.67 1575,-492.96 1575,-372.5 1575,-372.5 1575,-372.5 1575,-276 1575,-220.8 1572.5,-202.65 1543,-156 1534,-141.78 1520.25,-129.28 1507.62,-119.72"/>
<polygon fill="midnightblue" stroke="midnightblue" points="1299.76,-530.95 1290.06,-535.22 1300.31,-537.93 1299.76,-530.95"/>
</g>
<!-- Node3 -->
<g id="node3" class="node">
<title>Node3</title>
<g id="a_node3"><a xlink:href="control_8cpp.html" target="_top" xlink:title="Control node definition. Runs all the control algorithms. Adds as a hub for all the control actions.">
<polygon fill="white" stroke="black" points="0,-0.5 0,-41.5 140,-41.5 140,-0.5 0,-0.5"/>
<text text-anchor="start" x="8" y="-29.5" font-family="Helvetica,sans-Serif" font-size="10.00">ACSL&#45;flightstack&#45;winged</text>
<text text-anchor="start" x="8" y="-18.5" font-family="Helvetica,sans-Serif" font-size="10.00">/src/acsl_flight/src/control</text>
<text text-anchor="middle" x="70" y="-7.5" font-family="Helvetica,sans-Serif" font-size="10.00">/control.cpp</text>
</a>
</g>
</g>
<!-- Node2&#45;&gt;Node3 -->
<g id="edge2" class="edge">
<title>Node2&#45;&gt;Node3</title>
<path fill="none" stroke="midnightblue" d="M70,-68.3C70,-59.3 70,-49.65 70,-41.51"/>
<polygon fill="midnightblue" stroke="midnightblue" points="66.5,-68.43 70,-78.43 73.5,-68.43 66.5,-68.43"/>
</g>
<!-- Node4&#45;&gt;Node2 -->
<g id="edge4" class="edge">
<title>Node4&#45;&gt;Node2</title>
<path fill="none" stroke="midnightblue" d="M808.37,-450.5C651.92,-444.11 354.2,-428.35 253,-398 173.56,-374.18 134.6,-378.27 89,-309 49.84,-249.5 59.41,-158.99 66.12,-119.53"/>
<polygon fill="midnightblue" stroke="midnightblue" points="808.34,-454 818.47,-450.9 808.62,-447 808.34,-454"/>
</g>
<!-- Node5 -->
<g id="node5" class="node">
<title>Node5</title>
<g id="a_node5"><a xlink:href="flight__main_8hpp.html" target="_top" xlink:title="Header file for the main function that just sources all the other header files.">
<polygon fill="white" stroke="black" points="262.5,-351 262.5,-392 415.5,-392 415.5,-351 262.5,-351"/>
<text text-anchor="start" x="270.5" y="-380" font-family="Helvetica,sans-Serif" font-size="10.00">ACSL&#45;flightstack&#45;winged</text>
<text text-anchor="start" x="270.5" y="-369" font-family="Helvetica,sans-Serif" font-size="10.00">/src/acsl_flight/include</text>
<text text-anchor="middle" x="339" y="-358" font-family="Helvetica,sans-Serif" font-size="10.00">/flight_main/flight_main.hpp</text>
</a>
</g>
</g>
<!-- Node4&#45;&gt;Node5 -->
<g id="edge5" class="edge">
<title>Node4&#45;&gt;Node5</title>
<path fill="none" stroke="midnightblue" d="M808.34,-439.84C696.74,-423.83 517.38,-398.1 415.75,-383.51"/>
<polygon fill="midnightblue" stroke="midnightblue" points="807.85,-443.31 818.25,-441.27 808.85,-436.38 807.85,-443.31"/>
</g>
<!-- Node7 -->
<g id="node7" class="node">
<title>Node7</title>
<g id="a_node7"><a xlink:href="piecewise__polynomial__trajectory_8hpp.html" target="_top" xlink:title="Header file for piecewise polynomial trajectory.">
<polygon fill="white" stroke="black" points="597,-345.5 597,-397.5 797,-397.5 797,-345.5 597,-345.5"/>
<text text-anchor="start" x="605" y="-385.5" font-family="Helvetica,sans-Serif" font-size="10.00">ACSL&#45;flightstack&#45;winged</text>
<text text-anchor="start" x="605" y="-374.5" font-family="Helvetica,sans-Serif" font-size="10.00">/src/acsl_flight/include</text>
<text text-anchor="start" x="605" y="-363.5" font-family="Helvetica,sans-Serif" font-size="10.00">/piecewise_polynomial_trajectory</text>
<text text-anchor="middle" x="697" y="-352.5" font-family="Helvetica,sans-Serif" font-size="10.00">/piecewise_polynomial_trajectory.hpp</text>
</a>
</g>
</g>
<!-- Node4&#45;&gt;Node7 -->
<g id="edge7" class="edge">
<title>Node4&#45;&gt;Node7</title>
<path fill="none" stroke="midnightblue" d="M847.09,-430.75C820.38,-420.38 788.86,-408.15 761.61,-397.58"/>
<polygon fill="midnightblue" stroke="midnightblue" points="846.11,-434.12 856.7,-434.48 848.64,-427.6 846.11,-434.12"/>
</g>
<!-- Node24 -->
<g id="node24" class="node">
<title>Node24</title>
<g id="a_node24"><a xlink:href="read__pix_8hpp.html" target="_top" xlink:title="Class decleartion for reading pixhawk data.">
<polygon fill="white" stroke="black" points="1279.5,-351 1279.5,-392 1414.5,-392 1414.5,-351 1279.5,-351"/>
<text text-anchor="start" x="1287.5" y="-380" font-family="Helvetica,sans-Serif" font-size="10.00">ACSL&#45;flightstack&#45;winged</text>
<text text-anchor="start" x="1287.5" y="-369" font-family="Helvetica,sans-Serif" font-size="10.00">/src/acsl_flight/include</text>
<text text-anchor="middle" x="1347" y="-358" font-family="Helvetica,sans-Serif" font-size="10.00">/read_pix/read_pix.hpp</text>
</a>
</g>
</g>
<!-- Node4&#45;&gt;Node24 -->
<g id="edge25" class="edge">
<title>Node4&#45;&gt;Node24</title>
<path fill="none" stroke="midnightblue" d="M1005.51,-435.75C1088.95,-420.3 1206.34,-398.55 1279.48,-385.01"/>
<polygon fill="midnightblue" stroke="midnightblue" points="1004.71,-432.34 995.51,-437.61 1005.98,-439.23 1004.71,-432.34"/>
</g>
<!-- Node26 -->
<g id="node26" class="node">
<title>Node26</title>
<g id="a_node26"><a xlink:href="control__algorithm__base_8hpp.html" target="_top" xlink:title="Utilities for Controller Base Definition.">
<polygon fill="white" stroke="black" points="815,-345.5 815,-397.5 999,-397.5 999,-345.5 815,-345.5"/>
<text text-anchor="start" x="823" y="-385.5" font-family="Helvetica,sans-Serif" font-size="10.00">ACSL&#45;flightstack&#45;winged</text>
<text text-anchor="start" x="823" y="-374.5" font-family="Helvetica,sans-Serif" font-size="10.00">/src/acsl_flight/include</text>
<text text-anchor="start" x="823" y="-363.5" font-family="Helvetica,sans-Serif" font-size="10.00">/utils/control_algorithm</text>
<text text-anchor="middle" x="907" y="-352.5" font-family="Helvetica,sans-Serif" font-size="10.00">_base/control_algorithm_base.hpp</text>
</a>
</g>
</g>
<!-- Node4&#45;&gt;Node26 -->
<g id="edge27" class="edge">
<title>Node4&#45;&gt;Node26</title>
<path fill="none" stroke="midnightblue" d="M907,-424.12C907,-415.41 907,-405.99 907,-397.61"/>
<polygon fill="midnightblue" stroke="midnightblue" points="903.5,-424.27 907,-434.27 910.5,-424.27 903.5,-424.27"/>
</g>
<!-- Node27 -->
<g id="node27" class="node">
<title>Node27</title>
<g id="a_node27"><a xlink:href="flight__params_8cpp.html" target="_top" xlink:title="Define file for the main flight parameters that will be used for the entire controller.">
<polygon fill="white" stroke="black" points="1017.5,-351 1017.5,-392 1166.5,-392 1166.5,-351 1017.5,-351"/>
<text text-anchor="start" x="1025.5" y="-380" font-family="Helvetica,sans-Serif" font-size="10.00">ACSL&#45;flightstack&#45;winged</text>
<text text-anchor="start" x="1025.5" y="-369" font-family="Helvetica,sans-Serif" font-size="10.00">/src/acsl_flight/src/flight</text>
<text text-anchor="middle" x="1092" y="-358" font-family="Helvetica,sans-Serif" font-size="10.00">_params/flight_params.cpp</text>
</a>
</g>
</g>
<!-- Node4&#45;&gt;Node27 -->
<g id="edge33" class="edge">
<title>Node4&#45;&gt;Node27</title>
<path fill="none" stroke="midnightblue" d="M960.82,-430.29C988.42,-418.13 1021.63,-403.5 1047.73,-392"/>
<polygon fill="midnightblue" stroke="midnightblue" points="959.05,-427.24 951.31,-434.48 961.87,-433.65 959.05,-427.24"/>
</g>
<!-- Node6 -->
<g id="node6" class="node">
<title>Node6</title>
<g id="a_node6"><a xlink:href="flight__main_8cpp.html" target="_top" xlink:title="Main function to initiate ROS2.">
<polygon fill="white" stroke="black" points="98.5,-256.5 98.5,-297.5 233.5,-297.5 233.5,-256.5 98.5,-256.5"/>
<text text-anchor="start" x="106.5" y="-285.5" font-family="Helvetica,sans-Serif" font-size="10.00">ACSL&#45;flightstack&#45;winged</text>
<text text-anchor="start" x="106.5" y="-274.5" font-family="Helvetica,sans-Serif" font-size="10.00">/src/acsl_flight/src/flight</text>
<text text-anchor="middle" x="166" y="-263.5" font-family="Helvetica,sans-Serif" font-size="10.00">_main/flight_main.cpp</text>
</a>
</g>
</g>
<!-- Node5&#45;&gt;Node6 -->
<g id="edge6" class="edge">
<title>Node5&#45;&gt;Node6</title>
<path fill="none" stroke="midnightblue" d="M293.4,-346.12C265.06,-330.97 229.11,-311.75 202.64,-297.59"/>
<polygon fill="midnightblue" stroke="midnightblue" points="291.84,-349.25 302.31,-350.88 295.14,-343.08 291.84,-349.25"/>
</g>
<!-- Node8 -->
<g id="node8" class="node">
<title>Node8</title>
<g id="a_node8"><a xlink:href="MRAC__OMEGA_8hpp.html" target="_top" xlink:title="MRAC with angular velocities for the QRBP.">
<polygon fill="white" stroke="black" points="1201,-245.5 1201,-308.5 1355,-308.5 1355,-245.5 1201,-245.5"/>
<text text-anchor="start" x="1209" y="-296.5" font-family="Helvetica,sans-Serif" font-size="10.00">ACSL&#45;flightstack&#45;winged</text>
<text text-anchor="start" x="1209" y="-285.5" font-family="Helvetica,sans-Serif" font-size="10.00">/src/acsl_flight/include</text>
<text text-anchor="start" x="1209" y="-274.5" font-family="Helvetica,sans-Serif" font-size="10.00">/control/platforms/qrbp</text>
<text text-anchor="start" x="1209" y="-263.5" font-family="Helvetica,sans-Serif" font-size="10.00">/control_algorithms/MRAC</text>
<text text-anchor="middle" x="1278" y="-252.5" font-family="Helvetica,sans-Serif" font-size="10.00">_OMEGA/MRAC_OMEGA.hpp</text>
</a>
</g>
</g>
<!-- Node7&#45;&gt;Node8 -->
<g id="edge8" class="edge">
<title>Node7&#45;&gt;Node8</title>
<path fill="none" stroke="midnightblue" d="M807.34,-344.89C977.92,-318.4 1027.04,-345.8 1192,-309 1194.94,-308.34 1197.92,-307.61 1200.92,-306.82"/>
<polygon fill="midnightblue" stroke="midnightblue" points="806.6,-341.47 797.27,-346.5 807.7,-348.38 806.6,-341.47"/>
</g>
<!-- Node10 -->
<g id="node10" class="node">
<title>Node10</title>
<g id="a_node10"><a xlink:href="MRAC__PID_8hpp.html" target="_top" xlink:title="MRAC_PID for the QRBP.">
<polygon fill="white" stroke="black" points="450.5,-245.5 450.5,-308.5 593.5,-308.5 593.5,-245.5 450.5,-245.5"/>
<text text-anchor="start" x="458.5" y="-296.5" font-family="Helvetica,sans-Serif" font-size="10.00">ACSL&#45;flightstack&#45;winged</text>
<text text-anchor="start" x="458.5" y="-285.5" font-family="Helvetica,sans-Serif" font-size="10.00">/src/acsl_flight/include</text>
<text text-anchor="start" x="458.5" y="-274.5" font-family="Helvetica,sans-Serif" font-size="10.00">/control/platforms/qrbp</text>
<text text-anchor="start" x="458.5" y="-263.5" font-family="Helvetica,sans-Serif" font-size="10.00">/control_algorithms/MRAC</text>
<text text-anchor="middle" x="522" y="-252.5" font-family="Helvetica,sans-Serif" font-size="10.00">_PID/MRAC_PID.hpp</text>
</a>
</g>
</g>
<!-- Node7&#45;&gt;Node10 -->
<g id="edge10" class="edge">
<title>Node7&#45;&gt;Node10</title>
<path fill="none" stroke="midnightblue" d="M640.63,-340.7C621.25,-330.46 599.52,-318.98 580.01,-308.66"/>
<polygon fill="midnightblue" stroke="midnightblue" points="639.17,-343.89 649.64,-345.47 642.44,-337.7 639.17,-343.89"/>
</g>
<!-- Node12 -->
<g id="node12" class="node">
<title>Node12</title>
<g id="a_node12"><a xlink:href="PID_8hpp.html" target="_top" xlink:title="PID for the QRBP.">
<polygon fill="white" stroke="black" points="611.5,-251 611.5,-303 782.5,-303 782.5,-251 611.5,-251"/>
<text text-anchor="start" x="619.5" y="-291" font-family="Helvetica,sans-Serif" font-size="10.00">ACSL&#45;flightstack&#45;winged</text>
<text text-anchor="start" x="619.5" y="-280" font-family="Helvetica,sans-Serif" font-size="10.00">/src/acsl_flight/include</text>
<text text-anchor="start" x="619.5" y="-269" font-family="Helvetica,sans-Serif" font-size="10.00">/control/platforms/qrbp</text>
<text text-anchor="middle" x="697" y="-258" font-family="Helvetica,sans-Serif" font-size="10.00">/control_algorithms/PID/PID.hpp</text>
</a>
</g>
</g>
<!-- Node7&#45;&gt;Node12 -->
<g id="edge12" class="edge">
<title>Node7&#45;&gt;Node12</title>
<path fill="none" stroke="midnightblue" d="M697,-334.99C697,-324.41 697,-313.03 697,-303.25"/>
<polygon fill="midnightblue" stroke="midnightblue" points="693.5,-335.22 697,-345.22 700.5,-335.22 693.5,-335.22"/>
</g>
<!-- Node14 -->
<g id="node14" class="node">
<title>Node14</title>
<g id="a_node14"><a xlink:href="PID__OMEGA_8hpp.html" target="_top" xlink:title="PID with angular veocities for the QRBP.">
<polygon fill="white" stroke="black" points="1009.5,-245.5 1009.5,-308.5 1182.5,-308.5 1182.5,-245.5 1009.5,-245.5"/>
<text text-anchor="start" x="1017.5" y="-296.5" font-family="Helvetica,sans-Serif" font-size="10.00">ACSL&#45;flightstack&#45;winged</text>
<text text-anchor="start" x="1017.5" y="-285.5" font-family="Helvetica,sans-Serif" font-size="10.00">/src/acsl_flight/include</text>
<text text-anchor="start" x="1017.5" y="-274.5" font-family="Helvetica,sans-Serif" font-size="10.00">/control/platforms/qrbp</text>
<text text-anchor="start" x="1017.5" y="-263.5" font-family="Helvetica,sans-Serif" font-size="10.00">/control_algorithms/PID_OMEGA</text>
<text text-anchor="middle" x="1096" y="-252.5" font-family="Helvetica,sans-Serif" font-size="10.00">/PID_OMEGA.hpp</text>
</a>
</g>
</g>
<!-- Node7&#45;&gt;Node14 -->
<g id="edge14" class="edge">
<title>Node7&#45;&gt;Node14</title>
<path fill="none" stroke="midnightblue" d="M807.04,-344.84C893.58,-327.23 918.06,-329.74 1000,-309 1003.06,-308.23 1006.16,-307.41 1009.28,-306.56"/>
<polygon fill="midnightblue" stroke="midnightblue" points="806.13,-341.45 797.04,-346.91 807.55,-348.31 806.13,-341.45"/>
</g>
<!-- Node21 -->
<g id="node21" class="node">
<title>Node21</title>
<g id="a_node21"><a xlink:href="PID__TD_8hpp.html" target="_top" xlink:title="PID for the ros test drone.">
<polygon fill="white" stroke="black" points="801,-251 801,-303 991,-303 991,-251 801,-251"/>
<text text-anchor="start" x="809" y="-291" font-family="Helvetica,sans-Serif" font-size="10.00">ACSL&#45;flightstack&#45;winged</text>
<text text-anchor="start" x="809" y="-280" font-family="Helvetica,sans-Serif" font-size="10.00">/src/acsl_flight/include</text>
<text text-anchor="start" x="809" y="-269" font-family="Helvetica,sans-Serif" font-size="10.00">/control/platforms/rostestdrone</text>
<text text-anchor="middle" x="896" y="-258" font-family="Helvetica,sans-Serif" font-size="10.00">/control_algorithms/PID/PID_TD.hpp</text>
</a>
</g>
</g>
<!-- Node7&#45;&gt;Node21 -->
<g id="edge22" class="edge">
<title>Node7&#45;&gt;Node21</title>
<path fill="none" stroke="midnightblue" d="M760.01,-341.21C786.4,-328.94 816.77,-314.83 842.1,-303.05"/>
<polygon fill="midnightblue" stroke="midnightblue" points="758.45,-338.08 750.85,-345.47 761.4,-344.43 758.45,-338.08"/>
</g>
<!-- Node23 -->
<g id="node23" class="node">
<title>Node23</title>
<g id="a_node23"><a xlink:href="piecewise__polynomial__trajectory_8cpp.html" target="_top" xlink:title="Implementation of the piecewise polynomial trajectory.">
<polygon fill="white" stroke="black" points="251.5,-251 251.5,-303 432.5,-303 432.5,-251 251.5,-251"/>
<text text-anchor="start" x="259.5" y="-291" font-family="Helvetica,sans-Serif" font-size="10.00">ACSL&#45;flightstack&#45;winged</text>
<text text-anchor="start" x="259.5" y="-280" font-family="Helvetica,sans-Serif" font-size="10.00">/src/acsl_flight/src/piecewise</text>
<text text-anchor="start" x="259.5" y="-269" font-family="Helvetica,sans-Serif" font-size="10.00">_polynomial_trajectory/piecewise</text>
<text text-anchor="middle" x="342" y="-258" font-family="Helvetica,sans-Serif" font-size="10.00">_polynomial_trajectory.cpp</text>
</a>
</g>
</g>
<!-- Node7&#45;&gt;Node23 -->
<g id="edge24" class="edge">
<title>Node7&#45;&gt;Node23</title>
<path fill="none" stroke="midnightblue" d="M587.04,-345.81C541.65,-335.17 488.61,-322.16 441,-309 434.23,-307.13 427.22,-305.11 420.21,-303.03"/>
<polygon fill="midnightblue" stroke="midnightblue" points="586.37,-349.24 596.91,-348.11 587.96,-342.43 586.37,-349.24"/>
</g>
<!-- Node9 -->
<g id="node9" class="node">
<title>Node9</title>
<g id="a_node9"><a xlink:href="MRAC__OMEGA_8cpp.html" target="_top" xlink:title="MRAC with angular velocities for the QRBP. Inherts the class controller_base for the basic functional...">
<polygon fill="white" stroke="black" points="1323,-156.5 1323,-208.5 1509,-208.5 1509,-156.5 1323,-156.5"/>
<text text-anchor="start" x="1331" y="-196.5" font-family="Helvetica,sans-Serif" font-size="10.00">ACSL&#45;flightstack&#45;winged</text>
<text text-anchor="start" x="1331" y="-185.5" font-family="Helvetica,sans-Serif" font-size="10.00">/src/acsl_flight/src/control</text>
<text text-anchor="start" x="1331" y="-174.5" font-family="Helvetica,sans-Serif" font-size="10.00">/platforms/qrbp/control_algorithms</text>
<text text-anchor="middle" x="1416" y="-163.5" font-family="Helvetica,sans-Serif" font-size="10.00">/MRAC_OMEGA/MRAC_OMEGA.cpp</text>
</a>
</g>
</g>
<!-- Node8&#45;&gt;Node9 -->
<g id="edge9" class="edge">
<title>Node8&#45;&gt;Node9</title>
<path fill="none" stroke="midnightblue" d="M1332.04,-239.78C1347.51,-229.41 1364.04,-218.33 1378.31,-208.77"/>
<polygon fill="midnightblue" stroke="midnightblue" points="1329.93,-236.98 1323.57,-245.46 1333.82,-242.8 1329.93,-236.98"/>
</g>
<!-- Node11 -->
<g id="node11" class="node">
<title>Node11</title>
<g id="a_node11"><a xlink:href="MRAC__PID_8cpp.html" target="_top" xlink:title="MRAC_PID for the QRBP.">
<polygon fill="white" stroke="black" points="361,-156.5 361,-208.5 547,-208.5 547,-156.5 361,-156.5"/>
<text text-anchor="start" x="369" y="-196.5" font-family="Helvetica,sans-Serif" font-size="10.00">ACSL&#45;flightstack&#45;winged</text>
<text text-anchor="start" x="369" y="-185.5" font-family="Helvetica,sans-Serif" font-size="10.00">/src/acsl_flight/src/control</text>
<text text-anchor="start" x="369" y="-174.5" font-family="Helvetica,sans-Serif" font-size="10.00">/platforms/qrbp/control_algorithms</text>
<text text-anchor="middle" x="454" y="-163.5" font-family="Helvetica,sans-Serif" font-size="10.00">/MRAC_PID/MRAC_PID.cpp</text>
</a>
</g>
</g>
<!-- Node10&#45;&gt;Node11 -->
<g id="edge11" class="edge">
<title>Node10&#45;&gt;Node11</title>
<path fill="none" stroke="midnightblue" d="M493.46,-237.17C486.4,-227.57 479.02,-217.53 472.57,-208.77"/>
<polygon fill="midnightblue" stroke="midnightblue" points="490.8,-239.47 499.55,-245.46 496.44,-235.33 490.8,-239.47"/>
</g>
<!-- Node13 -->
<g id="node13" class="node">
<title>Node13</title>
<g id="a_node13"><a xlink:href="PID_8cpp.html" target="_top" xlink:title=" ">
<polygon fill="white" stroke="black" points="565,-156.5 565,-208.5 751,-208.5 751,-156.5 565,-156.5"/>
<text text-anchor="start" x="573" y="-196.5" font-family="Helvetica,sans-Serif" font-size="10.00">ACSL&#45;flightstack&#45;winged</text>
<text text-anchor="start" x="573" y="-185.5" font-family="Helvetica,sans-Serif" font-size="10.00">/src/acsl_flight/src/control</text>
<text text-anchor="start" x="573" y="-174.5" font-family="Helvetica,sans-Serif" font-size="10.00">/platforms/qrbp/control_algorithms</text>
<text text-anchor="middle" x="658" y="-163.5" font-family="Helvetica,sans-Serif" font-size="10.00">/PID/PID.cpp</text>
</a>
</g>
</g>
<!-- Node12&#45;&gt;Node13 -->
<g id="edge13" class="edge">
<title>Node12&#45;&gt;Node13</title>
<path fill="none" stroke="midnightblue" d="M682.45,-241.48C677.87,-230.62 672.9,-218.84 668.64,-208.75"/>
<polygon fill="midnightblue" stroke="midnightblue" points="679.23,-242.87 686.34,-250.72 685.68,-240.15 679.23,-242.87"/>
</g>
<!-- Node15 -->
<g id="node15" class="node">
<title>Node15</title>
<g id="a_node15"><a xlink:href="control__config_8hpp.html" target="_top" xlink:title="Just a header file for configuring which platform and controller to pick during compilation.">
<polygon fill="white" stroke="black" points="955,-162 955,-203 1101,-203 1101,-162 955,-162"/>
<text text-anchor="start" x="963" y="-191" font-family="Helvetica,sans-Serif" font-size="10.00">ACSL&#45;flightstack&#45;winged</text>
<text text-anchor="start" x="963" y="-180" font-family="Helvetica,sans-Serif" font-size="10.00">/src/acsl_flight/include</text>
<text text-anchor="middle" x="1028" y="-169" font-family="Helvetica,sans-Serif" font-size="10.00">/control/control_config.hpp</text>
</a>
</g>
</g>
<!-- Node14&#45;&gt;Node15 -->
<g id="edge15" class="edge">
<title>Node14&#45;&gt;Node15</title>
<path fill="none" stroke="midnightblue" d="M1067.41,-237.11C1058.83,-225.44 1049.78,-213.13 1042.52,-203.25"/>
<polygon fill="midnightblue" stroke="midnightblue" points="1064.8,-239.47 1073.55,-245.46 1070.44,-235.33 1064.8,-239.47"/>
</g>
<!-- Node20 -->
<g id="node20" class="node">
<title>Node20</title>
<g id="a_node20"><a xlink:href="PID__OMEGA_8cpp.html" target="_top" xlink:title="PID with angular velocities for the QRBP.">
<polygon fill="white" stroke="black" points="1119,-156.5 1119,-208.5 1305,-208.5 1305,-156.5 1119,-156.5"/>
<text text-anchor="start" x="1127" y="-196.5" font-family="Helvetica,sans-Serif" font-size="10.00">ACSL&#45;flightstack&#45;winged</text>
<text text-anchor="start" x="1127" y="-185.5" font-family="Helvetica,sans-Serif" font-size="10.00">/src/acsl_flight/src/control</text>
<text text-anchor="start" x="1127" y="-174.5" font-family="Helvetica,sans-Serif" font-size="10.00">/platforms/qrbp/control_algorithms</text>
<text text-anchor="middle" x="1212" y="-163.5" font-family="Helvetica,sans-Serif" font-size="10.00">/PID_OMEGA/PID_OMEGA.cpp</text>
</a>
</g>
</g>
<!-- Node14&#45;&gt;Node20 -->
<g id="edge21" class="edge">
<title>Node14&#45;&gt;Node20</title>
<path fill="none" stroke="midnightblue" d="M1142.15,-239.2C1154.94,-229 1168.55,-218.15 1180.32,-208.77"/>
<polygon fill="midnightblue" stroke="midnightblue" points="1139.94,-236.48 1134.3,-245.46 1144.3,-241.96 1139.94,-236.48"/>
</g>
<!-- Node15&#45;&gt;Node2 -->
<g id="edge16" class="edge">
<title>Node15&#45;&gt;Node2</title>
<path fill="none" stroke="midnightblue" d="M961.26,-159.32C956.13,-158.06 951,-156.92 946,-156 791.08,-127.38 315.03,-108.46 137.59,-102.24"/>
<polygon fill="midnightblue" stroke="midnightblue" points="960.53,-162.75 971.09,-161.9 962.31,-155.98 960.53,-162.75"/>
</g>
<!-- Node15&#45;&gt;Node16 -->
<g id="edge17" class="edge">
<title>Node15&#45;&gt;Node16</title>
<path fill="none" stroke="midnightblue" d="M1059.64,-155.19C1073.57,-143.6 1089.65,-130.23 1102.5,-119.55"/>
<polygon fill="midnightblue" stroke="midnightblue" points="1057.17,-152.69 1051.72,-161.77 1061.65,-158.07 1057.17,-152.69"/>
</g>
<!-- Node15&#45;&gt;Node18 -->
<g id="edge19" class="edge">
<title>Node15&#45;&gt;Node18</title>
<path fill="none" stroke="midnightblue" d="M1096.93,-159.25C1101.33,-158.08 1105.72,-156.99 1110,-156 1213.32,-132.19 1335.39,-115.86 1409.46,-107.22"/>
<polygon fill="midnightblue" stroke="midnightblue" points="1095.99,-155.88 1087.28,-161.92 1097.85,-162.63 1095.99,-155.88"/>
</g>
<!-- Node17 -->
<g id="node17" class="node">
<title>Node17</title>
<g id="a_node17"><a xlink:href="mocap_8cpp.html" target="_top" xlink:title="Node definition for UDP socket as a lifecycle node.">
<polygon fill="white" stroke="black" points="1056,-0.5 1056,-41.5 1196,-41.5 1196,-0.5 1056,-0.5"/>
<text text-anchor="start" x="1064" y="-29.5" font-family="Helvetica,sans-Serif" font-size="10.00">ACSL&#45;flightstack&#45;winged</text>
<text text-anchor="start" x="1064" y="-18.5" font-family="Helvetica,sans-Serif" font-size="10.00">/src/acsl_flight/src/mocap</text>
<text text-anchor="middle" x="1126" y="-7.5" font-family="Helvetica,sans-Serif" font-size="10.00">/mocap.cpp</text>
</a>
</g>
</g>
<!-- Node16&#45;&gt;Node17 -->
<g id="edge18" class="edge">
<title>Node16&#45;&gt;Node17</title>
<path fill="none" stroke="midnightblue" d="M1126,-68.3C1126,-59.3 1126,-49.65 1126,-41.51"/>
<polygon fill="midnightblue" stroke="midnightblue" points="1122.5,-68.43 1126,-78.43 1129.5,-68.43 1122.5,-68.43"/>
</g>
<!-- Node19 -->
<g id="node19" class="node">
<title>Node19</title>
<g id="a_node19"><a xlink:href="vio_8cpp.html" target="_top" xlink:title="Node definition for Intel Realsense T265 tracking camera as a lifecycle node.">
<polygon fill="white" stroke="black" points="1409.5,-0.5 1409.5,-41.5 1544.5,-41.5 1544.5,-0.5 1409.5,-0.5"/>
<text text-anchor="start" x="1417.5" y="-29.5" font-family="Helvetica,sans-Serif" font-size="10.00">ACSL&#45;flightstack&#45;winged</text>
<text text-anchor="start" x="1417.5" y="-18.5" font-family="Helvetica,sans-Serif" font-size="10.00">/src/acsl_flight/src/vio</text>
<text text-anchor="middle" x="1477" y="-7.5" font-family="Helvetica,sans-Serif" font-size="10.00">/vio.cpp</text>
</a>
</g>
</g>
<!-- Node18&#45;&gt;Node19 -->
<g id="edge20" class="edge">
<title>Node18&#45;&gt;Node19</title>
<path fill="none" stroke="midnightblue" d="M1477,-68.3C1477,-59.3 1477,-49.65 1477,-41.51"/>
<polygon fill="midnightblue" stroke="midnightblue" points="1473.5,-68.43 1477,-78.43 1480.5,-68.43 1473.5,-68.43"/>
</g>
<!-- Node22 -->
<g id="node22" class="node">
<title>Node22</title>
<g id="a_node22"><a xlink:href="PID__TD_8cpp.html" target="_top" xlink:title="PID for the rostestdrone.">
<polygon fill="white" stroke="black" points="769,-156.5 769,-208.5 937,-208.5 937,-156.5 769,-156.5"/>
<text text-anchor="start" x="777" y="-196.5" font-family="Helvetica,sans-Serif" font-size="10.00">ACSL&#45;flightstack&#45;winged</text>
<text text-anchor="start" x="777" y="-185.5" font-family="Helvetica,sans-Serif" font-size="10.00">/src/acsl_flight/src/control</text>
<text text-anchor="start" x="777" y="-174.5" font-family="Helvetica,sans-Serif" font-size="10.00">/platforms/rostestdrone/control</text>
<text text-anchor="middle" x="853" y="-163.5" font-family="Helvetica,sans-Serif" font-size="10.00">_algorithms/PID/PID_TD.cpp</text>
</a>
</g>
</g>
<!-- Node21&#45;&gt;Node22 -->
<g id="edge23" class="edge">
<title>Node21&#45;&gt;Node22</title>
<path fill="none" stroke="midnightblue" d="M879.95,-241.48C874.91,-230.62 869.43,-218.84 864.74,-208.75"/>
<polygon fill="midnightblue" stroke="midnightblue" points="876.86,-243.13 884.25,-250.72 883.21,-240.18 876.86,-243.13"/>
</g>
<!-- Node25 -->
<g id="node25" class="node">
<title>Node25</title>
<g id="a_node25"><a xlink:href="read__pix_8cpp.html" target="_top" xlink:title="Class definiton for reading pixhawk data.">
<polygon fill="white" stroke="black" points="1373.5,-256.5 1373.5,-297.5 1508.5,-297.5 1508.5,-256.5 1373.5,-256.5"/>
<text text-anchor="start" x="1381.5" y="-285.5" font-family="Helvetica,sans-Serif" font-size="10.00">ACSL&#45;flightstack&#45;winged</text>
<text text-anchor="start" x="1381.5" y="-274.5" font-family="Helvetica,sans-Serif" font-size="10.00">/src/acsl_flight/src/read</text>
<text text-anchor="middle" x="1441" y="-263.5" font-family="Helvetica,sans-Serif" font-size="10.00">_pix/read_pix.cpp</text>
</a>
</g>
</g>
<!-- Node24&#45;&gt;Node25 -->
<g id="edge26" class="edge">
<title>Node24&#45;&gt;Node25</title>
<path fill="none" stroke="midnightblue" d="M1374.41,-343.52C1389.36,-328.82 1407.52,-310.95 1421.09,-297.59"/>
<polygon fill="midnightblue" stroke="midnightblue" points="1371.61,-341.37 1366.93,-350.88 1376.52,-346.36 1371.61,-341.37"/>
</g>
<!-- Node26&#45;&gt;Node8 -->
<g id="edge28" class="edge">
<title>Node26&#45;&gt;Node8</title>
<path fill="none" stroke="midnightblue" d="M1008.7,-345.07C1008.8,-345.04 1008.9,-345.02 1009,-345 1089.9,-326.94 1112.11,-331.12 1192,-309 1194.91,-308.2 1197.85,-307.34 1200.82,-306.44"/>
<polygon fill="midnightblue" stroke="midnightblue" points="1008.22,-341.59 999.24,-347.22 1009.77,-348.41 1008.22,-341.59"/>
</g>
<!-- Node26&#45;&gt;Node10 -->
<g id="edge29" class="edge">
<title>Node26&#45;&gt;Node10</title>
<path fill="none" stroke="midnightblue" d="M804.98,-344.87C714.17,-326.23 687.65,-332.9 602,-309 599.27,-308.24 596.51,-307.42 593.73,-306.56"/>
<polygon fill="midnightblue" stroke="midnightblue" points="804.36,-348.32 814.87,-346.95 805.8,-341.46 804.36,-348.32"/>
</g>
<!-- Node26&#45;&gt;Node12 -->
<g id="edge30" class="edge">
<title>Node26&#45;&gt;Node12</title>
<path fill="none" stroke="midnightblue" d="M840.87,-341.37C812.94,-329.07 780.73,-314.88 753.87,-303.05"/>
<polygon fill="midnightblue" stroke="midnightblue" points="839.61,-344.64 850.17,-345.47 842.43,-338.23 839.61,-344.64"/>
</g>
<!-- Node26&#45;&gt;Node14 -->
<g id="edge31" class="edge">
<title>Node26&#45;&gt;Node14</title>
<path fill="none" stroke="midnightblue" d="M967.31,-340.98C988.39,-330.67 1012.09,-319.07 1033.35,-308.66"/>
<polygon fill="midnightblue" stroke="midnightblue" points="965.59,-337.93 958.15,-345.47 968.67,-344.22 965.59,-337.93"/>
</g>
<!-- Node26&#45;&gt;Node21 -->
<g id="edge32" class="edge">
<title>Node26&#45;&gt;Node21</title>
<path fill="none" stroke="midnightblue" d="M902.78,-334.99C901.52,-324.41 900.17,-313.03 899,-303.25"/>
<polygon fill="midnightblue" stroke="midnightblue" points="899.34,-335.71 903.99,-345.22 906.29,-334.88 899.34,-335.71"/>
</g>
</g>
</svg>
        <g id="navigator" transform="translate(0 0)" fill="#404254">
                <rect fill="#f2f5e9" fill-opacity="0.5" stroke="#606060" stroke-width=".5" x="0" y="0" width="60" height="60"/>
                <use id="zoomplus" xlink:href="#zoomPlus" x="17" y="9" onmousedown="handleZoom(evt,'in')"/>
                <use id="zoomminus" xlink:href="#zoomMin" x="42" y="9" onmousedown="handleZoom(evt,'out')"/>
                <use id="reset" xlink:href="#resetDef" x="30" y="36" onmousedown="handleReset()"/>
                <g id="arrowUp" xlink:href="#dirArrow" transform="translate(30 24)" onmousedown="handlePan(0,-1)">
                  <use xlink:href="#rim" fill="#404040">
                        <set attributeName="fill" to="#808080" begin="arrowUp.mouseover" end="arrowUp.mouseout"/>
                  </use>
                  <path fill="none" stroke="white" stroke-width="1.5" d="M0,-3.0v7 M-2.5,-0.5L0,-3.0L2.5,-0.5"/>
                </g>
                <g id="arrowRight" xlink:href="#dirArrow" transform="rotate(90) translate(36 -43)" onmousedown="handlePan(1,0)">
                  <use xlink:href="#rim" fill="#404040">
                        <set attributeName="fill" to="#808080" begin="arrowRight.mouseover" end="arrowRight.mouseout"/>
                  </use>
                  <path fill="none" stroke="white" stroke-width="1.5" d="M0,-3.0v7 M-2.5,-0.5L0,-3.0L2.5,-0.5"/>
                </g>
                <g id="arrowDown" xlink:href="#dirArrow" transform="rotate(180) translate(-30 -48)" onmousedown="handlePan(0,1)">
                  <use xlink:href="#rim" fill="#404040">
                        <set attributeName="fill" to="#808080" begin="arrowDown.mouseover" end="arrowDown.mouseout"/>
                  </use>
                  <path fill="none" stroke="white" stroke-width="1.5" d="M0,-3.0v7 M-2.5,-0.5L0,-3.0L2.5,-0.5"/>
                </g>
                <g id="arrowLeft" xlink:href="#dirArrow" transform="rotate(270) translate(-36 17)" onmousedown="handlePan(-1,0)">
                  <use xlink:href="#rim" fill="#404040">
                        <set attributeName="fill" to="#808080" begin="arrowLeft.mouseover" end="arrowLeft.mouseout"/>
                  </use>
                  <path fill="none" stroke="white" stroke-width="1.5" d="M0,-3.0v7 M-2.5,-0.5L0,-3.0L2.5,-0.5"/>
                </g>
        </g>
        <svg viewBox="0 0 15 15" width="100%" height="30px" preserveAspectRatio="xMaxYMin meet">
         <g id="arrow_out" transform="scale(0.3 0.3)">
          <a xlink:href="px4__defines_8hpp__dep__incl_org.svg" target="_base">
           <rect id="button" ry="5" rx="5" y="6" x="6" height="38" width="38"
                fill="#f2f5e9" fill-opacity="0.5" stroke="#606060" stroke-width="1.0"/>
           <path id="arrow"
             d="M 11.500037,31.436501 C 11.940474,20.09759 22.043105,11.32322 32.158766,21.979434 L 37.068811,17.246167 C 37.068811,17.246167 37.088388,32 37.088388,32 L 22.160133,31.978069 C 22.160133,31.978069 26.997745,27.140456 26.997745,27.140456 C 18.528582,18.264221 13.291696,25.230495 11.500037,31.436501 z"
             style="fill:#404040;"/>
          </a>
         </g>
        </svg>
</svg>
