<?xml version="1.0" encoding="UTF-8" standalone="no"?>
<!DOCTYPE svg PUBLIC "-//W3C//DTD SVG 1.1//EN"
 "http://www.w3.org/Graphics/SVG/1.1/DTD/svg11.dtd">
<!-- Generated by graphviz version 2.43.0 (0)
 -->
<!-- Title: ACSL&#45;flightstack&#45;winged/src/acsl_flight/include/control/platforms/qrbp/qrbp.hpp Pages: 1 -->
<!--zoomable 695 -->
<svg id="main" version="1.1" xmlns="http://www.w3.org/2000/svg" xmlns:xlink="http://www.w3.org/1999/xlink" xml:space="preserve" onload="init(evt)">
<style type="text/css"><![CDATA[
.edge:hover path { stroke: red; }
.edge:hover polygon { stroke: red; fill: red; }
]]></style>
<script type="text/javascript"><![CDATA[
var edges = document.getElementsByTagName('g');
if (edges && edges.length) {
  for (var i=0;i<edges.length;i++) {
    if (edges[i].id.substr(0,4)=='edge') {
      edges[i].setAttribute('class','edge');
    }
  }
}
]]></script>
        <defs>
                <circle id="rim" cx="0" cy="0" r="7"/>
                <circle id="rim2" cx="0" cy="0" r="3.5"/>
                <g id="zoomPlus">
                        <use xlink:href="#rim" fill="#404040">
                                <set attributeName="fill" to="#808080" begin="zoomplus.mouseover" end="zoomplus.mouseout"/>
                        </use>
                        <path d="M-4,0h8M0,-4v8" fill="none" stroke="white" stroke-width="1.5" pointer-events="none"/>
                </g>
                <g id="zoomMin">
                        <use xlink:href="#rim" fill="#404040">
                                <set attributeName="fill" to="#808080" begin="zoomminus.mouseover" end="zoomminus.mouseout"/>
                        </use>
                        <path d="M-4,0h8" fill="none" stroke="white" stroke-width="1.5" pointer-events="none"/>
                </g>
                <g id="dirArrow">
                        <path fill="none" stroke="white" stroke-width="1.5" d="M0,-3.0v7 M-2.5,-0.5L0,-3.0L2.5,-0.5"/>
                </g>
               <g id="resetDef">
                       <use xlink:href="#rim2" fill="#404040">
                               <set attributeName="fill" to="#808080" begin="reset.mouseover" end="reset.mouseout"/>
                       </use>
               </g>
        </defs>

<script type="text/javascript">
var viewWidth = 1598;
var viewHeight = 695;
var sectionId = 'dynsection-1';
</script>
<script xlink:href="svgpan.js"/>
<svg id="graph" class="graph">
<g id="viewport">
<title>ACSL&#45;flightstack&#45;winged/src/acsl_flight/include/control/platforms/qrbp/qrbp.hpp</title>
<polygon fill="white" stroke="transparent" points="-4,4 -4,-691 1593.5,-691 1593.5,4 -4,4"/>
<!-- Node1 -->
<g id="node1" class="node">
<title>Node1</title>
<g id="a_node1"><a xlink:title="Vehicle Information of the QRBP with the NACA 0012 wings and the Velox V2808 kv1300 motors used in al...">
<polygon fill="#bfbfbf" stroke="black" points="687.5,-634.5 687.5,-686.5 822.5,-686.5 822.5,-634.5 687.5,-634.5"/>
<text text-anchor="start" x="695.5" y="-674.5" font-family="Helvetica,sans-Serif" font-size="10.00">ACSL&#45;flightstack&#45;winged</text>
<text text-anchor="start" x="695.5" y="-663.5" font-family="Helvetica,sans-Serif" font-size="10.00">/src/acsl_flight/include</text>
<text text-anchor="start" x="695.5" y="-652.5" font-family="Helvetica,sans-Serif" font-size="10.00">/control/platforms/qrbp</text>
<text text-anchor="middle" x="755" y="-641.5" font-family="Helvetica,sans-Serif" font-size="10.00">/qrbp.hpp</text>
</a>
</g>
</g>
<!-- Node2 -->
<g id="node2" class="node">
<title>Node2</title>
<g id="a_node2"><a xlink:href="aero__qrbp_8hpp.html" target="_top" xlink:title="Aerodynamics class for all algorithms to use with the grbp platform of ACSL.">
<polygon fill="white" stroke="black" points="674.5,-545.5 674.5,-597.5 835.5,-597.5 835.5,-545.5 674.5,-545.5"/>
<text text-anchor="start" x="682.5" y="-585.5" font-family="Helvetica,sans-Serif" font-size="10.00">ACSL&#45;flightstack&#45;winged</text>
<text text-anchor="start" x="682.5" y="-574.5" font-family="Helvetica,sans-Serif" font-size="10.00">/src/acsl_flight/include</text>
<text text-anchor="start" x="682.5" y="-563.5" font-family="Helvetica,sans-Serif" font-size="10.00">/control/platforms/qrbp</text>
<text text-anchor="middle" x="755" y="-552.5" font-family="Helvetica,sans-Serif" font-size="10.00">/aerodynamics/aero_qrbp.hpp</text>
</a>
</g>
</g>
<!-- Node1&#45;&gt;Node2 -->
<g id="edge1" class="edge">
<title>Node1&#45;&gt;Node2</title>
<path fill="none" stroke="midnightblue" d="M755,-624.19C755,-615.28 755,-605.9 755,-597.61"/>
<polygon fill="midnightblue" stroke="midnightblue" points="751.5,-624.34 755,-634.34 758.5,-624.34 751.5,-624.34"/>
</g>
<!-- Node3 -->
<g id="node3" class="node">
<title>Node3</title>
<g id="a_node3"><a xlink:href="MRAC__OMEGA__members_8hpp.html" target="_top" xlink:title="MRAC with angular velocities controller class members.">
<polygon fill="white" stroke="black" points="275,-445.5 275,-508.5 481,-508.5 481,-445.5 275,-445.5"/>
<text text-anchor="start" x="283" y="-496.5" font-family="Helvetica,sans-Serif" font-size="10.00">ACSL&#45;flightstack&#45;winged</text>
<text text-anchor="start" x="283" y="-485.5" font-family="Helvetica,sans-Serif" font-size="10.00">/src/acsl_flight/include</text>
<text text-anchor="start" x="283" y="-474.5" font-family="Helvetica,sans-Serif" font-size="10.00">/control/platforms/qrbp</text>
<text text-anchor="start" x="283" y="-463.5" font-family="Helvetica,sans-Serif" font-size="10.00">/control_algorithms/MRAC</text>
<text text-anchor="middle" x="378" y="-452.5" font-family="Helvetica,sans-Serif" font-size="10.00">_OMEGA/MRAC_OMEGA_members.hpp</text>
</a>
</g>
</g>
<!-- Node1&#45;&gt;Node3 -->
<g id="edge33" class="edge">
<title>Node1&#45;&gt;Node3</title>
<path fill="none" stroke="midnightblue" d="M693.9,-630.08C624.5,-596.67 511.79,-542.41 441.43,-508.54"/>
<polygon fill="midnightblue" stroke="midnightblue" points="692.45,-633.27 702.98,-634.45 695.48,-626.96 692.45,-633.27"/>
</g>
<!-- Node8 -->
<g id="node8" class="node">
<title>Node8</title>
<g id="a_node8"><a xlink:href="MRAC__PID__members_8hpp.html" target="_top" xlink:title="MRAC_PID controller class members.">
<polygon fill="white" stroke="black" points="563.5,-445.5 563.5,-508.5 728.5,-508.5 728.5,-445.5 563.5,-445.5"/>
<text text-anchor="start" x="571.5" y="-496.5" font-family="Helvetica,sans-Serif" font-size="10.00">ACSL&#45;flightstack&#45;winged</text>
<text text-anchor="start" x="571.5" y="-485.5" font-family="Helvetica,sans-Serif" font-size="10.00">/src/acsl_flight/include</text>
<text text-anchor="start" x="571.5" y="-474.5" font-family="Helvetica,sans-Serif" font-size="10.00">/control/platforms/qrbp</text>
<text text-anchor="start" x="571.5" y="-463.5" font-family="Helvetica,sans-Serif" font-size="10.00">/control_algorithms/MRAC</text>
<text text-anchor="middle" x="646" y="-452.5" font-family="Helvetica,sans-Serif" font-size="10.00">_PID/MRAC_PID_members.hpp</text>
</a>
</g>
</g>
<!-- Node1&#45;&gt;Node8 -->
<g id="edge34" class="edge">
<title>Node1&#45;&gt;Node8</title>
<path fill="none" stroke="midnightblue" d="M694.58,-628.4C683.18,-619.97 672.49,-609.84 665,-598 648.03,-571.17 644.44,-534.42 644.37,-508.68"/>
<polygon fill="midnightblue" stroke="midnightblue" points="692.77,-631.4 702.98,-634.23 696.76,-625.65 692.77,-631.4"/>
</g>
<!-- Node13 -->
<g id="node13" class="node">
<title>Node13</title>
<g id="a_node13"><a xlink:href="PID__members_8hpp.html" target="_top" xlink:title="PID controller class members.">
<polygon fill="white" stroke="black" points="789,-445.5 789,-508.5 939,-508.5 939,-445.5 789,-445.5"/>
<text text-anchor="start" x="797" y="-496.5" font-family="Helvetica,sans-Serif" font-size="10.00">ACSL&#45;flightstack&#45;winged</text>
<text text-anchor="start" x="797" y="-485.5" font-family="Helvetica,sans-Serif" font-size="10.00">/src/acsl_flight/include</text>
<text text-anchor="start" x="797" y="-474.5" font-family="Helvetica,sans-Serif" font-size="10.00">/control/platforms/qrbp</text>
<text text-anchor="start" x="797" y="-463.5" font-family="Helvetica,sans-Serif" font-size="10.00">/control_algorithms/PID/PID</text>
<text text-anchor="middle" x="864" y="-452.5" font-family="Helvetica,sans-Serif" font-size="10.00">_members.hpp</text>
</a>
</g>
</g>
<!-- Node1&#45;&gt;Node13 -->
<g id="edge35" class="edge">
<title>Node1&#45;&gt;Node13</title>
<path fill="none" stroke="midnightblue" d="M814.31,-628.52C825.73,-620.05 836.47,-609.87 844,-598 861.04,-571.16 864.95,-534.41 865.29,-508.67"/>
<polygon fill="midnightblue" stroke="midnightblue" points="812.11,-625.79 805.91,-634.39 816.11,-631.53 812.11,-625.79"/>
</g>
<!-- Node18 -->
<g id="node18" class="node">
<title>Node18</title>
<g id="a_node18"><a xlink:href="PID__OMEGA__members_8hpp.html" target="_top" xlink:title="PID with angular velocities controller class members.">
<polygon fill="white" stroke="black" points="996.5,-445.5 996.5,-508.5 1169.5,-508.5 1169.5,-445.5 996.5,-445.5"/>
<text text-anchor="start" x="1004.5" y="-496.5" font-family="Helvetica,sans-Serif" font-size="10.00">ACSL&#45;flightstack&#45;winged</text>
<text text-anchor="start" x="1004.5" y="-485.5" font-family="Helvetica,sans-Serif" font-size="10.00">/src/acsl_flight/include</text>
<text text-anchor="start" x="1004.5" y="-474.5" font-family="Helvetica,sans-Serif" font-size="10.00">/control/platforms/qrbp</text>
<text text-anchor="start" x="1004.5" y="-463.5" font-family="Helvetica,sans-Serif" font-size="10.00">/control_algorithms/PID_OMEGA</text>
<text text-anchor="middle" x="1083" y="-452.5" font-family="Helvetica,sans-Serif" font-size="10.00">/PID_OMEGA_members.hpp</text>
</a>
</g>
</g>
<!-- Node1&#45;&gt;Node18 -->
<g id="edge36" class="edge">
<title>Node1&#45;&gt;Node18</title>
<path fill="none" stroke="midnightblue" d="M810.1,-629.67C828.53,-619.64 849.17,-608.38 868,-598 922.66,-567.87 984.9,-533.08 1028.3,-508.74"/>
<polygon fill="midnightblue" stroke="midnightblue" points="808.36,-626.63 801.24,-634.48 811.7,-632.78 808.36,-626.63"/>
</g>
<!-- Node2&#45;&gt;Node3 -->
<g id="edge2" class="edge">
<title>Node2&#45;&gt;Node3</title>
<path fill="none" stroke="midnightblue" d="M664.35,-548.26C609.11,-534.7 538.36,-517.35 481.01,-503.27"/>
<polygon fill="midnightblue" stroke="midnightblue" points="663.58,-551.67 674.12,-550.66 665.25,-544.87 663.58,-551.67"/>
</g>
<!-- Node2&#45;&gt;Node8 -->
<g id="edge8" class="edge">
<title>Node2&#45;&gt;Node8</title>
<path fill="none" stroke="midnightblue" d="M717.74,-538.88C706.23,-529.11 693.57,-518.37 682.13,-508.66"/>
<polygon fill="midnightblue" stroke="midnightblue" points="715.61,-541.67 725.5,-545.47 720.14,-536.33 715.61,-541.67"/>
</g>
<!-- Node2&#45;&gt;Node13 -->
<g id="edge14" class="edge">
<title>Node2&#45;&gt;Node13</title>
<path fill="none" stroke="midnightblue" d="M792.26,-538.88C803.77,-529.11 816.43,-518.37 827.87,-508.66"/>
<polygon fill="midnightblue" stroke="midnightblue" points="789.86,-536.33 784.5,-545.47 794.39,-541.67 789.86,-536.33"/>
</g>
<!-- Node2&#45;&gt;Node18 -->
<g id="edge20" class="edge">
<title>Node2&#45;&gt;Node18</title>
<path fill="none" stroke="midnightblue" d="M845.54,-544.97C892.6,-531.69 949.84,-515.55 996.33,-502.44"/>
<polygon fill="midnightblue" stroke="midnightblue" points="844.33,-541.67 835.66,-547.75 846.23,-548.41 844.33,-541.67"/>
</g>
<!-- Node4 -->
<g id="node4" class="node">
<title>Node4</title>
<g id="a_node4"><a xlink:href="MRAC__OMEGA_8hpp.html" target="_top" xlink:title="MRAC with angular velocities for the QRBP.">
<polygon fill="white" stroke="black" points="16,-245.5 16,-308.5 170,-308.5 170,-245.5 16,-245.5"/>
<text text-anchor="start" x="24" y="-296.5" font-family="Helvetica,sans-Serif" font-size="10.00">ACSL&#45;flightstack&#45;winged</text>
<text text-anchor="start" x="24" y="-285.5" font-family="Helvetica,sans-Serif" font-size="10.00">/src/acsl_flight/include</text>
<text text-anchor="start" x="24" y="-274.5" font-family="Helvetica,sans-Serif" font-size="10.00">/control/platforms/qrbp</text>
<text text-anchor="start" x="24" y="-263.5" font-family="Helvetica,sans-Serif" font-size="10.00">/control_algorithms/MRAC</text>
<text text-anchor="middle" x="93" y="-252.5" font-family="Helvetica,sans-Serif" font-size="10.00">_OMEGA/MRAC_OMEGA.hpp</text>
</a>
</g>
</g>
<!-- Node3&#45;&gt;Node4 -->
<g id="edge3" class="edge">
<title>Node3&#45;&gt;Node4</title>
<path fill="none" stroke="midnightblue" d="M265.29,-445.94C240.8,-436.43 215.97,-424.29 195,-409 157.97,-382 127.59,-338 109.89,-308.54"/>
<polygon fill="midnightblue" stroke="midnightblue" points="264.07,-449.22 274.66,-449.46 266.53,-442.67 264.07,-449.22"/>
</g>
<!-- Node6 -->
<g id="node6" class="node">
<title>Node6</title>
<g id="a_node6"><a xlink:href="MRAC__OMEGA__logger_8hpp.html" target="_top" xlink:title="logging for the MRAc with angular velocities controller">
<polygon fill="white" stroke="black" points="204.5,-345.5 204.5,-408.5 393.5,-408.5 393.5,-345.5 204.5,-345.5"/>
<text text-anchor="start" x="212.5" y="-396.5" font-family="Helvetica,sans-Serif" font-size="10.00">ACSL&#45;flightstack&#45;winged</text>
<text text-anchor="start" x="212.5" y="-385.5" font-family="Helvetica,sans-Serif" font-size="10.00">/src/acsl_flight/include</text>
<text text-anchor="start" x="212.5" y="-374.5" font-family="Helvetica,sans-Serif" font-size="10.00">/control/platforms/qrbp</text>
<text text-anchor="start" x="212.5" y="-363.5" font-family="Helvetica,sans-Serif" font-size="10.00">/control_algorithms/MRAC</text>
<text text-anchor="middle" x="299" y="-352.5" font-family="Helvetica,sans-Serif" font-size="10.00">_OMEGA/MRAC_OMEGA_logger.hpp</text>
</a>
</g>
</g>
<!-- Node3&#45;&gt;Node6 -->
<g id="edge5" class="edge">
<title>Node3&#45;&gt;Node6</title>
<path fill="none" stroke="midnightblue" d="M346.88,-437.4C339.18,-427.85 331.04,-417.74 323.69,-408.63"/>
<polygon fill="midnightblue" stroke="midnightblue" points="344.22,-439.67 353.22,-445.26 349.67,-435.28 344.22,-439.67"/>
</g>
<!-- Node5 -->
<g id="node5" class="node">
<title>Node5</title>
<g id="a_node5"><a xlink:href="MRAC__OMEGA_8cpp.html" target="_top" xlink:title="MRAC with angular velocities for the QRBP. Inherts the class controller_base for the basic functional...">
<polygon fill="white" stroke="black" points="0,-156.5 0,-208.5 186,-208.5 186,-156.5 0,-156.5"/>
<text text-anchor="start" x="8" y="-196.5" font-family="Helvetica,sans-Serif" font-size="10.00">ACSL&#45;flightstack&#45;winged</text>
<text text-anchor="start" x="8" y="-185.5" font-family="Helvetica,sans-Serif" font-size="10.00">/src/acsl_flight/src/control</text>
<text text-anchor="start" x="8" y="-174.5" font-family="Helvetica,sans-Serif" font-size="10.00">/platforms/qrbp/control_algorithms</text>
<text text-anchor="middle" x="93" y="-163.5" font-family="Helvetica,sans-Serif" font-size="10.00">/MRAC_OMEGA/MRAC_OMEGA.cpp</text>
</a>
</g>
</g>
<!-- Node4&#45;&gt;Node5 -->
<g id="edge4" class="edge">
<title>Node4&#45;&gt;Node5</title>
<path fill="none" stroke="midnightblue" d="M93,-235.42C93,-226.36 93,-217 93,-208.77"/>
<polygon fill="midnightblue" stroke="midnightblue" points="89.5,-235.46 93,-245.46 96.5,-235.46 89.5,-235.46"/>
</g>
<!-- Node6&#45;&gt;Node4 -->
<g id="edge6" class="edge">
<title>Node6&#45;&gt;Node4</title>
<path fill="none" stroke="midnightblue" d="M225.56,-341.06C203.23,-330.44 178.87,-318.85 157.2,-308.54"/>
<polygon fill="midnightblue" stroke="midnightblue" points="224.13,-344.26 234.67,-345.4 227.14,-337.94 224.13,-344.26"/>
</g>
<!-- Node7 -->
<g id="node7" class="node">
<title>Node7</title>
<g id="a_node7"><a xlink:href="MRAC__OMEGA__logger_8cpp.html" target="_top" xlink:title="logging for the MRAC with angular velocities controller.">
<polygon fill="white" stroke="black" points="188.5,-251 188.5,-303 409.5,-303 409.5,-251 188.5,-251"/>
<text text-anchor="start" x="196.5" y="-291" font-family="Helvetica,sans-Serif" font-size="10.00">ACSL&#45;flightstack&#45;winged</text>
<text text-anchor="start" x="196.5" y="-280" font-family="Helvetica,sans-Serif" font-size="10.00">/src/acsl_flight/src/control</text>
<text text-anchor="start" x="196.5" y="-269" font-family="Helvetica,sans-Serif" font-size="10.00">/platforms/qrbp/control_algorithms</text>
<text text-anchor="middle" x="299" y="-258" font-family="Helvetica,sans-Serif" font-size="10.00">/MRAC_OMEGA/MRAC_OMEGA_logger.cpp</text>
</a>
</g>
</g>
<!-- Node6&#45;&gt;Node7 -->
<g id="edge7" class="edge">
<title>Node6&#45;&gt;Node7</title>
<path fill="none" stroke="midnightblue" d="M299,-335.08C299,-324.21 299,-312.79 299,-303.05"/>
<polygon fill="midnightblue" stroke="midnightblue" points="295.5,-335.26 299,-345.26 302.5,-335.26 295.5,-335.26"/>
</g>
<!-- Node9 -->
<g id="node9" class="node">
<title>Node9</title>
<g id="a_node9"><a xlink:href="MRAC__PID_8hpp.html" target="_top" xlink:title="MRAC_PID for the QRBP.">
<polygon fill="white" stroke="black" points="427.5,-245.5 427.5,-308.5 570.5,-308.5 570.5,-245.5 427.5,-245.5"/>
<text text-anchor="start" x="435.5" y="-296.5" font-family="Helvetica,sans-Serif" font-size="10.00">ACSL&#45;flightstack&#45;winged</text>
<text text-anchor="start" x="435.5" y="-285.5" font-family="Helvetica,sans-Serif" font-size="10.00">/src/acsl_flight/include</text>
<text text-anchor="start" x="435.5" y="-274.5" font-family="Helvetica,sans-Serif" font-size="10.00">/control/platforms/qrbp</text>
<text text-anchor="start" x="435.5" y="-263.5" font-family="Helvetica,sans-Serif" font-size="10.00">/control_algorithms/MRAC</text>
<text text-anchor="middle" x="499" y="-252.5" font-family="Helvetica,sans-Serif" font-size="10.00">_PID/MRAC_PID.hpp</text>
</a>
</g>
</g>
<!-- Node8&#45;&gt;Node9 -->
<g id="edge9" class="edge">
<title>Node8&#45;&gt;Node9</title>
<path fill="none" stroke="midnightblue" d="M592.06,-438.94C581.26,-429.96 570.61,-419.8 562,-409 537.54,-378.31 519.55,-336.57 509.2,-308.53"/>
<polygon fill="midnightblue" stroke="midnightblue" points="589.93,-441.72 599.92,-445.26 594.32,-436.27 589.93,-441.72"/>
</g>
<!-- Node11 -->
<g id="node11" class="node">
<title>Node11</title>
<g id="a_node11"><a xlink:href="MRAC__PID__logger_8hpp.html" target="_top" xlink:title="logging for the MRAC_PID controller.">
<polygon fill="white" stroke="black" points="571.5,-345.5 571.5,-408.5 720.5,-408.5 720.5,-345.5 571.5,-345.5"/>
<text text-anchor="start" x="579.5" y="-396.5" font-family="Helvetica,sans-Serif" font-size="10.00">ACSL&#45;flightstack&#45;winged</text>
<text text-anchor="start" x="579.5" y="-385.5" font-family="Helvetica,sans-Serif" font-size="10.00">/src/acsl_flight/include</text>
<text text-anchor="start" x="579.5" y="-374.5" font-family="Helvetica,sans-Serif" font-size="10.00">/control/platforms/qrbp</text>
<text text-anchor="start" x="579.5" y="-363.5" font-family="Helvetica,sans-Serif" font-size="10.00">/control_algorithms/MRAC</text>
<text text-anchor="middle" x="646" y="-352.5" font-family="Helvetica,sans-Serif" font-size="10.00">_PID/MRAC_PID_logger.hpp</text>
</a>
</g>
</g>
<!-- Node8&#45;&gt;Node11 -->
<g id="edge11" class="edge">
<title>Node8&#45;&gt;Node11</title>
<path fill="none" stroke="midnightblue" d="M646,-435.1C646,-426.24 646,-417.01 646,-408.63"/>
<polygon fill="midnightblue" stroke="midnightblue" points="642.5,-435.26 646,-445.26 649.5,-435.26 642.5,-435.26"/>
</g>
<!-- Node10 -->
<g id="node10" class="node">
<title>Node10</title>
<g id="a_node10"><a xlink:href="MRAC__PID_8cpp.html" target="_top" xlink:title="MRAC_PID for the QRBP.">
<polygon fill="white" stroke="black" points="406,-156.5 406,-208.5 592,-208.5 592,-156.5 406,-156.5"/>
<text text-anchor="start" x="414" y="-196.5" font-family="Helvetica,sans-Serif" font-size="10.00">ACSL&#45;flightstack&#45;winged</text>
<text text-anchor="start" x="414" y="-185.5" font-family="Helvetica,sans-Serif" font-size="10.00">/src/acsl_flight/src/control</text>
<text text-anchor="start" x="414" y="-174.5" font-family="Helvetica,sans-Serif" font-size="10.00">/platforms/qrbp/control_algorithms</text>
<text text-anchor="middle" x="499" y="-163.5" font-family="Helvetica,sans-Serif" font-size="10.00">/MRAC_PID/MRAC_PID.cpp</text>
</a>
</g>
</g>
<!-- Node9&#45;&gt;Node10 -->
<g id="edge10" class="edge">
<title>Node9&#45;&gt;Node10</title>
<path fill="none" stroke="midnightblue" d="M499,-235.42C499,-226.36 499,-217 499,-208.77"/>
<polygon fill="midnightblue" stroke="midnightblue" points="495.5,-235.46 499,-245.46 502.5,-235.46 495.5,-235.46"/>
</g>
<!-- Node11&#45;&gt;Node9 -->
<g id="edge12" class="edge">
<title>Node11&#45;&gt;Node9</title>
<path fill="none" stroke="midnightblue" d="M591.52,-339.68C576.21,-329.47 559.71,-318.47 544.94,-308.63"/>
<polygon fill="midnightblue" stroke="midnightblue" points="589.63,-342.63 599.89,-345.26 593.51,-336.8 589.63,-342.63"/>
</g>
<!-- Node12 -->
<g id="node12" class="node">
<title>Node12</title>
<g id="a_node12"><a xlink:href="MRAC__PID__logger_8cpp.html" target="_top" xlink:title="logging for the MRAC_PID controller. Inherits the Blackbox class for logging and takes in the interna...">
<polygon fill="white" stroke="black" points="589,-251 589,-303 775,-303 775,-251 589,-251"/>
<text text-anchor="start" x="597" y="-291" font-family="Helvetica,sans-Serif" font-size="10.00">ACSL&#45;flightstack&#45;winged</text>
<text text-anchor="start" x="597" y="-280" font-family="Helvetica,sans-Serif" font-size="10.00">/src/acsl_flight/src/control</text>
<text text-anchor="start" x="597" y="-269" font-family="Helvetica,sans-Serif" font-size="10.00">/platforms/qrbp/control_algorithms</text>
<text text-anchor="middle" x="682" y="-258" font-family="Helvetica,sans-Serif" font-size="10.00">/MRAC_PID/MRAC_PID_logger.cpp</text>
</a>
</g>
</g>
<!-- Node11&#45;&gt;Node12 -->
<g id="edge13" class="edge">
<title>Node11&#45;&gt;Node12</title>
<path fill="none" stroke="midnightblue" d="M660.79,-335.75C664.85,-324.68 669.14,-313 672.8,-303.05"/>
<polygon fill="midnightblue" stroke="midnightblue" points="657.45,-334.67 657.29,-345.26 664.03,-337.08 657.45,-334.67"/>
</g>
<!-- Node14 -->
<g id="node14" class="node">
<title>Node14</title>
<g id="a_node14"><a xlink:href="PID_8hpp.html" target="_top" xlink:title="PID for the QRBP.">
<polygon fill="white" stroke="black" points="793.5,-251 793.5,-303 964.5,-303 964.5,-251 793.5,-251"/>
<text text-anchor="start" x="801.5" y="-291" font-family="Helvetica,sans-Serif" font-size="10.00">ACSL&#45;flightstack&#45;winged</text>
<text text-anchor="start" x="801.5" y="-280" font-family="Helvetica,sans-Serif" font-size="10.00">/src/acsl_flight/include</text>
<text text-anchor="start" x="801.5" y="-269" font-family="Helvetica,sans-Serif" font-size="10.00">/control/platforms/qrbp</text>
<text text-anchor="middle" x="879" y="-258" font-family="Helvetica,sans-Serif" font-size="10.00">/control_algorithms/PID/PID.hpp</text>
</a>
</g>
</g>
<!-- Node13&#45;&gt;Node14 -->
<g id="edge15" class="edge">
<title>Node13&#45;&gt;Node14</title>
<path fill="none" stroke="midnightblue" d="M867.08,-435.36C870.09,-395.67 874.57,-336.52 877.09,-303.2"/>
<polygon fill="midnightblue" stroke="midnightblue" points="863.58,-435.26 866.31,-445.5 870.56,-435.79 863.58,-435.26"/>
</g>
<!-- Node16 -->
<g id="node16" class="node">
<title>Node16</title>
<g id="a_node16"><a xlink:href="PID__logger_8hpp.html" target="_top" xlink:title="logging for the PID controller">
<polygon fill="white" stroke="black" points="892,-345.5 892,-408.5 1042,-408.5 1042,-345.5 892,-345.5"/>
<text text-anchor="start" x="900" y="-396.5" font-family="Helvetica,sans-Serif" font-size="10.00">ACSL&#45;flightstack&#45;winged</text>
<text text-anchor="start" x="900" y="-385.5" font-family="Helvetica,sans-Serif" font-size="10.00">/src/acsl_flight/include</text>
<text text-anchor="start" x="900" y="-374.5" font-family="Helvetica,sans-Serif" font-size="10.00">/control/platforms/qrbp</text>
<text text-anchor="start" x="900" y="-363.5" font-family="Helvetica,sans-Serif" font-size="10.00">/control_algorithms/PID/PID</text>
<text text-anchor="middle" x="967" y="-352.5" font-family="Helvetica,sans-Serif" font-size="10.00">_logger.hpp</text>
</a>
</g>
</g>
<!-- Node13&#45;&gt;Node16 -->
<g id="edge17" class="edge">
<title>Node13&#45;&gt;Node16</title>
<path fill="none" stroke="midnightblue" d="M903.67,-438.26C913.97,-428.46 924.94,-418.02 934.81,-408.63"/>
<polygon fill="midnightblue" stroke="midnightblue" points="901.14,-435.83 896.31,-445.26 905.96,-440.9 901.14,-435.83"/>
</g>
<!-- Node15 -->
<g id="node15" class="node">
<title>Node15</title>
<g id="a_node15"><a xlink:href="PID_8cpp.html" target="_top" xlink:title=" ">
<polygon fill="white" stroke="black" points="786,-156.5 786,-208.5 972,-208.5 972,-156.5 786,-156.5"/>
<text text-anchor="start" x="794" y="-196.5" font-family="Helvetica,sans-Serif" font-size="10.00">ACSL&#45;flightstack&#45;winged</text>
<text text-anchor="start" x="794" y="-185.5" font-family="Helvetica,sans-Serif" font-size="10.00">/src/acsl_flight/src/control</text>
<text text-anchor="start" x="794" y="-174.5" font-family="Helvetica,sans-Serif" font-size="10.00">/platforms/qrbp/control_algorithms</text>
<text text-anchor="middle" x="879" y="-163.5" font-family="Helvetica,sans-Serif" font-size="10.00">/PID/PID.cpp</text>
</a>
</g>
</g>
<!-- Node14&#45;&gt;Node15 -->
<g id="edge16" class="edge">
<title>Node14&#45;&gt;Node15</title>
<path fill="none" stroke="midnightblue" d="M879,-240.49C879,-229.91 879,-218.53 879,-208.75"/>
<polygon fill="midnightblue" stroke="midnightblue" points="875.5,-240.72 879,-250.72 882.5,-240.72 875.5,-240.72"/>
</g>
<!-- Node16&#45;&gt;Node14 -->
<g id="edge18" class="edge">
<title>Node16&#45;&gt;Node14</title>
<path fill="none" stroke="midnightblue" d="M932.66,-337.76C922.2,-326.1 910.97,-313.6 901.5,-303.05"/>
<polygon fill="midnightblue" stroke="midnightblue" points="930.11,-340.16 939.4,-345.26 935.32,-335.48 930.11,-340.16"/>
</g>
<!-- Node17 -->
<g id="node17" class="node">
<title>Node17</title>
<g id="a_node17"><a xlink:href="PID__logger_8cpp.html" target="_top" xlink:title="logging for the PID controller.">
<polygon fill="white" stroke="black" points="983,-251 983,-303 1169,-303 1169,-251 983,-251"/>
<text text-anchor="start" x="991" y="-291" font-family="Helvetica,sans-Serif" font-size="10.00">ACSL&#45;flightstack&#45;winged</text>
<text text-anchor="start" x="991" y="-280" font-family="Helvetica,sans-Serif" font-size="10.00">/src/acsl_flight/src/control</text>
<text text-anchor="start" x="991" y="-269" font-family="Helvetica,sans-Serif" font-size="10.00">/platforms/qrbp/control_algorithms</text>
<text text-anchor="middle" x="1076" y="-258" font-family="Helvetica,sans-Serif" font-size="10.00">/PID/PID_logger.cpp</text>
</a>
</g>
</g>
<!-- Node16&#45;&gt;Node17 -->
<g id="edge19" class="edge">
<title>Node16&#45;&gt;Node17</title>
<path fill="none" stroke="midnightblue" d="M1008.8,-338.42C1021.97,-326.58 1036.18,-313.8 1048.13,-303.05"/>
<polygon fill="midnightblue" stroke="midnightblue" points="1006.29,-335.97 1001.19,-345.26 1010.97,-341.18 1006.29,-335.97"/>
</g>
<!-- Node19 -->
<g id="node19" class="node">
<title>Node19</title>
<g id="a_node19"><a xlink:href="PID__OMEGA_8hpp.html" target="_top" xlink:title="PID with angular veocities for the QRBP.">
<polygon fill="white" stroke="black" points="1187.5,-245.5 1187.5,-308.5 1360.5,-308.5 1360.5,-245.5 1187.5,-245.5"/>
<text text-anchor="start" x="1195.5" y="-296.5" font-family="Helvetica,sans-Serif" font-size="10.00">ACSL&#45;flightstack&#45;winged</text>
<text text-anchor="start" x="1195.5" y="-285.5" font-family="Helvetica,sans-Serif" font-size="10.00">/src/acsl_flight/include</text>
<text text-anchor="start" x="1195.5" y="-274.5" font-family="Helvetica,sans-Serif" font-size="10.00">/control/platforms/qrbp</text>
<text text-anchor="start" x="1195.5" y="-263.5" font-family="Helvetica,sans-Serif" font-size="10.00">/control_algorithms/PID_OMEGA</text>
<text text-anchor="middle" x="1274" y="-252.5" font-family="Helvetica,sans-Serif" font-size="10.00">/PID_OMEGA.hpp</text>
</a>
</g>
</g>
<!-- Node18&#45;&gt;Node19 -->
<g id="edge21" class="edge">
<title>Node18&#45;&gt;Node19</title>
<path fill="none" stroke="midnightblue" d="M1106.44,-436.84C1124.04,-409.32 1149.87,-372.62 1178,-345 1191.49,-331.76 1207.84,-319.29 1223.21,-308.79"/>
<polygon fill="midnightblue" stroke="midnightblue" points="1103.39,-435.11 1101.02,-445.44 1109.31,-438.85 1103.39,-435.11"/>
</g>
<!-- Node28 -->
<g id="node28" class="node">
<title>Node28</title>
<g id="a_node28"><a xlink:href="PID__OMEGA__logger_8hpp.html" target="_top" xlink:title="Logger for the PID controller.">
<polygon fill="white" stroke="black" points="1187.5,-345.5 1187.5,-408.5 1360.5,-408.5 1360.5,-345.5 1187.5,-345.5"/>
<text text-anchor="start" x="1195.5" y="-396.5" font-family="Helvetica,sans-Serif" font-size="10.00">ACSL&#45;flightstack&#45;winged</text>
<text text-anchor="start" x="1195.5" y="-385.5" font-family="Helvetica,sans-Serif" font-size="10.00">/src/acsl_flight/include</text>
<text text-anchor="start" x="1195.5" y="-374.5" font-family="Helvetica,sans-Serif" font-size="10.00">/control/platforms/qrbp</text>
<text text-anchor="start" x="1195.5" y="-363.5" font-family="Helvetica,sans-Serif" font-size="10.00">/control_algorithms/PID_OMEGA</text>
<text text-anchor="middle" x="1274" y="-352.5" font-family="Helvetica,sans-Serif" font-size="10.00">/PID_OMEGA_logger.hpp</text>
</a>
</g>
</g>
<!-- Node18&#45;&gt;Node28 -->
<g id="edge30" class="edge">
<title>Node18&#45;&gt;Node28</title>
<path fill="none" stroke="midnightblue" d="M1151.64,-440.78C1172.2,-430.23 1194.56,-418.76 1214.48,-408.54"/>
<polygon fill="midnightblue" stroke="midnightblue" points="1149.95,-437.72 1142.65,-445.4 1153.14,-443.94 1149.95,-437.72"/>
</g>
<!-- Node20 -->
<g id="node20" class="node">
<title>Node20</title>
<g id="a_node20"><a xlink:href="control__config_8hpp.html" target="_top" xlink:title="Just a header file for configuring which platform and controller to pick during compilation.">
<polygon fill="white" stroke="black" points="1293,-162 1293,-203 1439,-203 1439,-162 1293,-162"/>
<text text-anchor="start" x="1301" y="-191" font-family="Helvetica,sans-Serif" font-size="10.00">ACSL&#45;flightstack&#45;winged</text>
<text text-anchor="start" x="1301" y="-180" font-family="Helvetica,sans-Serif" font-size="10.00">/src/acsl_flight/include</text>
<text text-anchor="middle" x="1366" y="-169" font-family="Helvetica,sans-Serif" font-size="10.00">/control/control_config.hpp</text>
</a>
</g>
</g>
<!-- Node19&#45;&gt;Node20 -->
<g id="edge22" class="edge">
<title>Node19&#45;&gt;Node20</title>
<path fill="none" stroke="midnightblue" d="M1311.66,-238.13C1323.57,-226.16 1336.25,-213.41 1346.36,-203.25"/>
<polygon fill="midnightblue" stroke="midnightblue" points="1308.95,-235.9 1304.38,-245.46 1313.91,-240.83 1308.95,-235.9"/>
</g>
<!-- Node27 -->
<g id="node27" class="node">
<title>Node27</title>
<g id="a_node27"><a xlink:href="PID__OMEGA_8cpp.html" target="_top" xlink:title="PID with angular velocities for the QRBP.">
<polygon fill="white" stroke="black" points="1089,-156.5 1089,-208.5 1275,-208.5 1275,-156.5 1089,-156.5"/>
<text text-anchor="start" x="1097" y="-196.5" font-family="Helvetica,sans-Serif" font-size="10.00">ACSL&#45;flightstack&#45;winged</text>
<text text-anchor="start" x="1097" y="-185.5" font-family="Helvetica,sans-Serif" font-size="10.00">/src/acsl_flight/src/control</text>
<text text-anchor="start" x="1097" y="-174.5" font-family="Helvetica,sans-Serif" font-size="10.00">/platforms/qrbp/control_algorithms</text>
<text text-anchor="middle" x="1182" y="-163.5" font-family="Helvetica,sans-Serif" font-size="10.00">/PID_OMEGA/PID_OMEGA.cpp</text>
</a>
</g>
</g>
<!-- Node19&#45;&gt;Node27 -->
<g id="edge29" class="edge">
<title>Node19&#45;&gt;Node27</title>
<path fill="none" stroke="midnightblue" d="M1236.54,-238.33C1226.64,-228.38 1216.2,-217.88 1207.13,-208.77"/>
<polygon fill="midnightblue" stroke="midnightblue" points="1234.09,-240.83 1243.62,-245.46 1239.05,-235.9 1234.09,-240.83"/>
</g>
<!-- Node21 -->
<g id="node21" class="node">
<title>Node21</title>
<g id="a_node21"><a xlink:href="control_8hpp.html" target="_top" xlink:title="Class declaration for computing and publishing the control.">
<polygon fill="white" stroke="black" points="1143.5,-78.5 1143.5,-119.5 1278.5,-119.5 1278.5,-78.5 1143.5,-78.5"/>
<text text-anchor="start" x="1151.5" y="-107.5" font-family="Helvetica,sans-Serif" font-size="10.00">ACSL&#45;flightstack&#45;winged</text>
<text text-anchor="start" x="1151.5" y="-96.5" font-family="Helvetica,sans-Serif" font-size="10.00">/src/acsl_flight/include</text>
<text text-anchor="middle" x="1211" y="-85.5" font-family="Helvetica,sans-Serif" font-size="10.00">/control/control.hpp</text>
</a>
</g>
</g>
<!-- Node20&#45;&gt;Node21 -->
<g id="edge23" class="edge">
<title>Node20&#45;&gt;Node21</title>
<path fill="none" stroke="midnightblue" d="M1320,-157.31C1297.05,-145.25 1269.67,-130.85 1248.09,-119.5"/>
<polygon fill="midnightblue" stroke="midnightblue" points="1318.39,-160.42 1328.87,-161.98 1321.65,-154.23 1318.39,-160.42"/>
</g>
<!-- Node23 -->
<g id="node23" class="node">
<title>Node23</title>
<g id="a_node23"><a xlink:href="mocap_8hpp.html" target="_top" xlink:title="Class declaration for UDP socket as a lifecycle node.">
<polygon fill="white" stroke="black" points="1298.5,-78.5 1298.5,-119.5 1433.5,-119.5 1433.5,-78.5 1298.5,-78.5"/>
<text text-anchor="start" x="1306.5" y="-107.5" font-family="Helvetica,sans-Serif" font-size="10.00">ACSL&#45;flightstack&#45;winged</text>
<text text-anchor="start" x="1306.5" y="-96.5" font-family="Helvetica,sans-Serif" font-size="10.00">/src/acsl_flight/include</text>
<text text-anchor="middle" x="1366" y="-85.5" font-family="Helvetica,sans-Serif" font-size="10.00">/mocap/mocap.hpp</text>
</a>
</g>
</g>
<!-- Node20&#45;&gt;Node23 -->
<g id="edge25" class="edge">
<title>Node20&#45;&gt;Node23</title>
<path fill="none" stroke="midnightblue" d="M1366,-151.56C1366,-140.88 1366,-129.13 1366,-119.55"/>
<polygon fill="midnightblue" stroke="midnightblue" points="1362.5,-151.77 1366,-161.77 1369.5,-151.77 1362.5,-151.77"/>
</g>
<!-- Node25 -->
<g id="node25" class="node">
<title>Node25</title>
<g id="a_node25"><a xlink:href="vio_8hpp.html" target="_top" xlink:title="Class decleration for Intel Realsense T265 tracking camera as a lifecycle node.">
<polygon fill="white" stroke="black" points="1452.5,-78.5 1452.5,-119.5 1587.5,-119.5 1587.5,-78.5 1452.5,-78.5"/>
<text text-anchor="start" x="1460.5" y="-107.5" font-family="Helvetica,sans-Serif" font-size="10.00">ACSL&#45;flightstack&#45;winged</text>
<text text-anchor="start" x="1460.5" y="-96.5" font-family="Helvetica,sans-Serif" font-size="10.00">/src/acsl_flight/include</text>
<text text-anchor="middle" x="1520" y="-85.5" font-family="Helvetica,sans-Serif" font-size="10.00">/vio/vio.hpp</text>
</a>
</g>
</g>
<!-- Node20&#45;&gt;Node25 -->
<g id="edge27" class="edge">
<title>Node20&#45;&gt;Node25</title>
<path fill="none" stroke="midnightblue" d="M1412.01,-157.15C1434.74,-145.12 1461.8,-130.8 1483.15,-119.5"/>
<polygon fill="midnightblue" stroke="midnightblue" points="1410.09,-154.21 1402.89,-161.98 1413.36,-160.39 1410.09,-154.21"/>
</g>
<!-- Node22 -->
<g id="node22" class="node">
<title>Node22</title>
<g id="a_node22"><a xlink:href="control_8cpp.html" target="_top" xlink:title="Control node definition. Runs all the control algorithms. Adds as a hub for all the control actions.">
<polygon fill="white" stroke="black" points="1138,-0.5 1138,-41.5 1278,-41.5 1278,-0.5 1138,-0.5"/>
<text text-anchor="start" x="1146" y="-29.5" font-family="Helvetica,sans-Serif" font-size="10.00">ACSL&#45;flightstack&#45;winged</text>
<text text-anchor="start" x="1146" y="-18.5" font-family="Helvetica,sans-Serif" font-size="10.00">/src/acsl_flight/src/control</text>
<text text-anchor="middle" x="1208" y="-7.5" font-family="Helvetica,sans-Serif" font-size="10.00">/control.cpp</text>
</a>
</g>
</g>
<!-- Node21&#45;&gt;Node22 -->
<g id="edge24" class="edge">
<title>Node21&#45;&gt;Node22</title>
<path fill="none" stroke="midnightblue" d="M1209.83,-68.3C1209.47,-59.3 1209.09,-49.65 1208.77,-41.51"/>
<polygon fill="midnightblue" stroke="midnightblue" points="1206.34,-68.57 1210.23,-78.43 1213.33,-68.3 1206.34,-68.57"/>
</g>
<!-- Node24 -->
<g id="node24" class="node">
<title>Node24</title>
<g id="a_node24"><a xlink:href="mocap_8cpp.html" target="_top" xlink:title="Node definition for UDP socket as a lifecycle node.">
<polygon fill="white" stroke="black" points="1296,-0.5 1296,-41.5 1436,-41.5 1436,-0.5 1296,-0.5"/>
<text text-anchor="start" x="1304" y="-29.5" font-family="Helvetica,sans-Serif" font-size="10.00">ACSL&#45;flightstack&#45;winged</text>
<text text-anchor="start" x="1304" y="-18.5" font-family="Helvetica,sans-Serif" font-size="10.00">/src/acsl_flight/src/mocap</text>
<text text-anchor="middle" x="1366" y="-7.5" font-family="Helvetica,sans-Serif" font-size="10.00">/mocap.cpp</text>
</a>
</g>
</g>
<!-- Node23&#45;&gt;Node24 -->
<g id="edge26" class="edge">
<title>Node23&#45;&gt;Node24</title>
<path fill="none" stroke="midnightblue" d="M1366,-68.3C1366,-59.3 1366,-49.65 1366,-41.51"/>
<polygon fill="midnightblue" stroke="midnightblue" points="1362.5,-68.43 1366,-78.43 1369.5,-68.43 1362.5,-68.43"/>
</g>
<!-- Node26 -->
<g id="node26" class="node">
<title>Node26</title>
<g id="a_node26"><a xlink:href="vio_8cpp.html" target="_top" xlink:title="Node definition for Intel Realsense T265 tracking camera as a lifecycle node.">
<polygon fill="white" stroke="black" points="1454.5,-0.5 1454.5,-41.5 1589.5,-41.5 1589.5,-0.5 1454.5,-0.5"/>
<text text-anchor="start" x="1462.5" y="-29.5" font-family="Helvetica,sans-Serif" font-size="10.00">ACSL&#45;flightstack&#45;winged</text>
<text text-anchor="start" x="1462.5" y="-18.5" font-family="Helvetica,sans-Serif" font-size="10.00">/src/acsl_flight/src/vio</text>
<text text-anchor="middle" x="1522" y="-7.5" font-family="Helvetica,sans-Serif" font-size="10.00">/vio.cpp</text>
</a>
</g>
</g>
<!-- Node25&#45;&gt;Node26 -->
<g id="edge28" class="edge">
<title>Node25&#45;&gt;Node26</title>
<path fill="none" stroke="midnightblue" d="M1520.78,-68.3C1521.02,-59.3 1521.27,-49.65 1521.49,-41.51"/>
<polygon fill="midnightblue" stroke="midnightblue" points="1517.28,-68.34 1520.52,-78.43 1524.28,-68.52 1517.28,-68.34"/>
</g>
<!-- Node28&#45;&gt;Node19 -->
<g id="edge31" class="edge">
<title>Node28&#45;&gt;Node19</title>
<path fill="none" stroke="midnightblue" d="M1274,-335.1C1274,-326.24 1274,-317.01 1274,-308.63"/>
<polygon fill="midnightblue" stroke="midnightblue" points="1270.5,-335.26 1274,-345.26 1277.5,-335.26 1270.5,-335.26"/>
</g>
<!-- Node29 -->
<g id="node29" class="node">
<title>Node29</title>
<g id="a_node29"><a xlink:href="PID__OMEGA__logger_8cpp.html" target="_top" xlink:title="logging for the PID with angular velocities controller">
<polygon fill="white" stroke="black" points="1378.5,-251 1378.5,-303 1573.5,-303 1573.5,-251 1378.5,-251"/>
<text text-anchor="start" x="1386.5" y="-291" font-family="Helvetica,sans-Serif" font-size="10.00">ACSL&#45;flightstack&#45;winged</text>
<text text-anchor="start" x="1386.5" y="-280" font-family="Helvetica,sans-Serif" font-size="10.00">/src/acsl_flight/src/control</text>
<text text-anchor="start" x="1386.5" y="-269" font-family="Helvetica,sans-Serif" font-size="10.00">/platforms/qrbp/control_algorithms</text>
<text text-anchor="middle" x="1476" y="-258" font-family="Helvetica,sans-Serif" font-size="10.00">/PID_OMEGA/PID_OMEGA_logger.cpp</text>
</a>
</g>
</g>
<!-- Node28&#45;&gt;Node29 -->
<g id="edge32" class="edge">
<title>Node28&#45;&gt;Node29</title>
<path fill="none" stroke="midnightblue" d="M1346.09,-341.03C1371.9,-328.5 1400.46,-314.65 1424.22,-303.12"/>
<polygon fill="midnightblue" stroke="midnightblue" points="1344.55,-337.88 1337.08,-345.4 1347.61,-344.18 1344.55,-337.88"/>
</g>
</g>
</svg>
        <g id="navigator" transform="translate(0 0)" fill="#404254">
                <rect fill="#f2f5e9" fill-opacity="0.5" stroke="#606060" stroke-width=".5" x="0" y="0" width="60" height="60"/>
                <use id="zoomplus" xlink:href="#zoomPlus" x="17" y="9" onmousedown="handleZoom(evt,'in')"/>
                <use id="zoomminus" xlink:href="#zoomMin" x="42" y="9" onmousedown="handleZoom(evt,'out')"/>
                <use id="reset" xlink:href="#resetDef" x="30" y="36" onmousedown="handleReset()"/>
                <g id="arrowUp" xlink:href="#dirArrow" transform="translate(30 24)" onmousedown="handlePan(0,-1)">
                  <use xlink:href="#rim" fill="#404040">
                        <set attributeName="fill" to="#808080" begin="arrowUp.mouseover" end="arrowUp.mouseout"/>
                  </use>
                  <path fill="none" stroke="white" stroke-width="1.5" d="M0,-3.0v7 M-2.5,-0.5L0,-3.0L2.5,-0.5"/>
                </g>
                <g id="arrowRight" xlink:href="#dirArrow" transform="rotate(90) translate(36 -43)" onmousedown="handlePan(1,0)">
                  <use xlink:href="#rim" fill="#404040">
                        <set attributeName="fill" to="#808080" begin="arrowRight.mouseover" end="arrowRight.mouseout"/>
                  </use>
                  <path fill="none" stroke="white" stroke-width="1.5" d="M0,-3.0v7 M-2.5,-0.5L0,-3.0L2.5,-0.5"/>
                </g>
                <g id="arrowDown" xlink:href="#dirArrow" transform="rotate(180) translate(-30 -48)" onmousedown="handlePan(0,1)">
                  <use xlink:href="#rim" fill="#404040">
                        <set attributeName="fill" to="#808080" begin="arrowDown.mouseover" end="arrowDown.mouseout"/>
                  </use>
                  <path fill="none" stroke="white" stroke-width="1.5" d="M0,-3.0v7 M-2.5,-0.5L0,-3.0L2.5,-0.5"/>
                </g>
                <g id="arrowLeft" xlink:href="#dirArrow" transform="rotate(270) translate(-36 17)" onmousedown="handlePan(-1,0)">
                  <use xlink:href="#rim" fill="#404040">
                        <set attributeName="fill" to="#808080" begin="arrowLeft.mouseover" end="arrowLeft.mouseout"/>
                  </use>
                  <path fill="none" stroke="white" stroke-width="1.5" d="M0,-3.0v7 M-2.5,-0.5L0,-3.0L2.5,-0.5"/>
                </g>
        </g>
        <svg viewBox="0 0 15 15" width="100%" height="30px" preserveAspectRatio="xMaxYMin meet">
         <g id="arrow_out" transform="scale(0.3 0.3)">
          <a xlink:href="qrbp_8hpp__dep__incl_org.svg" target="_base">
           <rect id="button" ry="5" rx="5" y="6" x="6" height="38" width="38"
                fill="#f2f5e9" fill-opacity="0.5" stroke="#606060" stroke-width="1.0"/>
           <path id="arrow"
             d="M 11.500037,31.436501 C 11.940474,20.09759 22.043105,11.32322 32.158766,21.979434 L 37.068811,17.246167 C 37.068811,17.246167 37.088388,32 37.088388,32 L 22.160133,31.978069 C 22.160133,31.978069 26.997745,27.140456 26.997745,27.140456 C 18.528582,18.264221 13.291696,25.230495 11.500037,31.436501 z"
             style="fill:#404040;"/>
          </a>
         </g>
        </svg>
</svg>
