<?xml version="1.0" encoding="UTF-8" standalone="no"?>
<!DOCTYPE svg PUBLIC "-//W3C//DTD SVG 1.1//EN"
 "http://www.w3.org/Graphics/SVG/1.1/DTD/svg11.dtd">
<!-- Generated by graphviz version 2.43.0 (0)
 -->
<!-- Title: ACSL&#45;flightstack&#45;winged/src/acsl_flight/include/control/platforms/qrbp/qrbp.hpp Pages: 1 -->
<!--zoomable 240 -->
<svg id="main" version="1.1" xmlns="http://www.w3.org/2000/svg" xmlns:xlink="http://www.w3.org/1999/xlink" xml:space="preserve" onload="init(evt)">
<style type="text/css"><![CDATA[
.edge:hover path { stroke: red; }
.edge:hover polygon { stroke: red; fill: red; }
]]></style>
<script type="text/javascript"><![CDATA[
var edges = document.getElementsByTagName('g');
if (edges && edges.length) {
  for (var i=0;i<edges.length;i++) {
    if (edges[i].id.substr(0,4)=='edge') {
      edges[i].setAttribute('class','edge');
    }
  }
}
]]></script>
        <defs>
                <circle id="rim" cx="0" cy="0" r="7"/>
                <circle id="rim2" cx="0" cy="0" r="3.5"/>
                <g id="zoomPlus">
                        <use xlink:href="#rim" fill="#404040">
                                <set attributeName="fill" to="#808080" begin="zoomplus.mouseover" end="zoomplus.mouseout"/>
                        </use>
                        <path d="M-4,0h8M0,-4v8" fill="none" stroke="white" stroke-width="1.5" pointer-events="none"/>
                </g>
                <g id="zoomMin">
                        <use xlink:href="#rim" fill="#404040">
                                <set attributeName="fill" to="#808080" begin="zoomminus.mouseover" end="zoomminus.mouseout"/>
                        </use>
                        <path d="M-4,0h8" fill="none" stroke="white" stroke-width="1.5" pointer-events="none"/>
                </g>
                <g id="dirArrow">
                        <path fill="none" stroke="white" stroke-width="1.5" d="M0,-3.0v7 M-2.5,-0.5L0,-3.0L2.5,-0.5"/>
                </g>
               <g id="resetDef">
                       <use xlink:href="#rim2" fill="#404040">
                               <set attributeName="fill" to="#808080" begin="reset.mouseover" end="reset.mouseout"/>
                       </use>
               </g>
        </defs>

<script type="text/javascript">
var viewWidth = 2633;
var viewHeight = 240;
var sectionId = 'dynsection-0';
</script>
<script xlink:href="svgpan.js"/>
<svg id="graph" class="graph">
<g id="viewport">
<title>ACSL&#45;flightstack&#45;winged/src/acsl_flight/include/control/platforms/qrbp/qrbp.hpp</title>
<polygon fill="white" stroke="transparent" points="-4,4 -4,-236 2629.44,-236 2629.44,4 -4,4"/>
<!-- Node1 -->
<g id="node1" class="node">
<title>Node1</title>
<g id="a_node1"><a xlink:title="Vehicle Information of the QRBP with the NACA 0012 wings and the Velox V2808 kv1300 motors used in al...">
<polygon fill="#bfbfbf" stroke="black" points="1177.54,-179.5 1177.54,-231.5 1312.54,-231.5 1312.54,-179.5 1177.54,-179.5"/>
<text text-anchor="start" x="1185.54" y="-219.5" font-family="Helvetica,sans-Serif" font-size="10.00">ACSL&#45;flightstack&#45;winged</text>
<text text-anchor="start" x="1185.54" y="-208.5" font-family="Helvetica,sans-Serif" font-size="10.00">/src/acsl_flight/include</text>
<text text-anchor="start" x="1185.54" y="-197.5" font-family="Helvetica,sans-Serif" font-size="10.00">/control/platforms/qrbp</text>
<text text-anchor="middle" x="1245.04" y="-186.5" font-family="Helvetica,sans-Serif" font-size="10.00">/qrbp.hpp</text>
</a>
</g>
</g>
<!-- Node2 -->
<g id="node2" class="node">
<title>Node2</title>
<g id="a_node2"><a xlink:title=" ">
<polygon fill="white" stroke="#bfbfbf" points="56.54,-0.5 56.54,-19.5 133.54,-19.5 133.54,-0.5 56.54,-0.5"/>
<text text-anchor="middle" x="95.04" y="-7.5" font-family="Helvetica,sans-Serif" font-size="10.00">Eigen/Dense</text>
</a>
</g>
</g>
<!-- Node1&#45;&gt;Node2 -->
<g id="edge1" class="edge">
<title>Node1&#45;&gt;Node2</title>
<path fill="none" stroke="midnightblue" d="M1177.42,-203.58C929.38,-199.48 80.11,-178.8 6.04,-87 -2.61,-76.28 -1.18,-67.74 6.04,-56 15.59,-40.47 32.35,-30.1 48.77,-23.27"/>
<polygon fill="midnightblue" stroke="midnightblue" points="50.22,-26.46 58.34,-19.65 47.75,-19.92 50.22,-26.46"/>
</g>
<!-- Node3 -->
<g id="node3" class="node">
<title>Node3</title>
<g id="a_node3"><a xlink:title=" ">
<polygon fill="white" stroke="#bfbfbf" points="2574.54,-0.5 2574.54,-19.5 2621.54,-19.5 2621.54,-0.5 2574.54,-0.5"/>
<text text-anchor="middle" x="2598.04" y="-7.5" font-family="Helvetica,sans-Serif" font-size="10.00">cmath</text>
</a>
</g>
</g>
<!-- Node1&#45;&gt;Node3 -->
<g id="edge2" class="edge">
<title>Node1&#45;&gt;Node3</title>
<path fill="none" stroke="midnightblue" d="M1312.68,-203.94C1576.86,-201.08 2528.95,-184.04 2618.04,-87 2632.83,-70.89 2621.26,-45.15 2610.53,-28.16"/>
<polygon fill="midnightblue" stroke="midnightblue" points="2613.34,-26.06 2604.84,-19.74 2607.54,-29.99 2613.34,-26.06"/>
</g>
<!-- Node4 -->
<g id="node4" class="node">
<title>Node4</title>
<g id="a_node4"><a xlink:title=" ">
<polygon fill="white" stroke="#bfbfbf" points="15.54,-62 15.54,-81 66.54,-81 66.54,-62 15.54,-62"/>
<text text-anchor="middle" x="41.04" y="-69" font-family="Helvetica,sans-Serif" font-size="10.00">math.h</text>
</a>
</g>
</g>
<!-- Node1&#45;&gt;Node4 -->
<g id="edge3" class="edge">
<title>Node1&#45;&gt;Node4</title>
<path fill="none" stroke="midnightblue" d="M1177.51,-203.49C997.17,-199.54 490.22,-180.3 81.04,-87 77.8,-86.26 74.46,-85.33 71.16,-84.31"/>
<polygon fill="midnightblue" stroke="midnightblue" points="72.1,-80.93 61.51,-81.02 69.85,-87.56 72.1,-80.93"/>
</g>
<!-- Node5 -->
<g id="node5" class="node">
<title>Node5</title>
<g id="a_node5"><a xlink:href="helper__functions_8hpp.html" target="_top" xlink:title="Definitions of some standard templates used in all controllers.">
<polygon fill="white" stroke="black" points="1587.54,-123.5 1587.54,-142.5 1706.54,-142.5 1706.54,-123.5 1587.54,-123.5"/>
<text text-anchor="middle" x="1647.04" y="-130.5" font-family="Helvetica,sans-Serif" font-size="10.00">helper_functions.hpp</text>
</a>
</g>
</g>
<!-- Node1&#45;&gt;Node5 -->
<g id="edge4" class="edge">
<title>Node1&#45;&gt;Node5</title>
<path fill="none" stroke="midnightblue" d="M1312.78,-192.62C1390.04,-179.07 1515.1,-157.14 1588.36,-144.29"/>
<polygon fill="midnightblue" stroke="midnightblue" points="1589.1,-147.72 1598.34,-142.54 1587.89,-140.82 1589.1,-147.72"/>
</g>
<!-- Node5&#45;&gt;Node2 -->
<g id="edge6" class="edge">
<title>Node5&#45;&gt;Node2</title>
<path fill="none" stroke="midnightblue" d="M1587.15,-132.25C1311.11,-133.13 172.35,-133.92 114.04,-87 97.27,-73.51 93.97,-47.65 93.9,-29.88"/>
<polygon fill="midnightblue" stroke="midnightblue" points="97.4,-29.9 94.19,-19.81 90.4,-29.7 97.4,-29.9"/>
</g>
<!-- Node5&#45;&gt;Node3 -->
<g id="edge20" class="edge">
<title>Node5&#45;&gt;Node3</title>
<path fill="none" stroke="midnightblue" d="M1706.71,-131.35C1891.46,-129.01 2446.03,-119.34 2520.04,-87 2535.19,-80.38 2566.05,-47.33 2584.08,-27.06"/>
<polygon fill="midnightblue" stroke="midnightblue" points="2586.74,-29.32 2590.73,-19.51 2581.49,-24.7 2586.74,-29.32"/>
</g>
<!-- Node5&#45;&gt;Node4 -->
<g id="edge21" class="edge">
<title>Node5&#45;&gt;Node4</title>
<path fill="none" stroke="midnightblue" d="M1587.22,-131.41C1318.63,-128.59 230.75,-115.52 81.04,-87 77.52,-86.33 73.9,-85.39 70.35,-84.32"/>
<polygon fill="midnightblue" stroke="midnightblue" points="71.22,-80.92 60.63,-81.01 68.97,-87.54 71.22,-80.92"/>
</g>
<!-- Node6 -->
<g id="node6" class="node">
<title>Node6</title>
<g id="a_node6"><a xlink:title=" ">
<polygon fill="white" stroke="#bfbfbf" points="2567.04,-62 2567.04,-81 2609.04,-81 2609.04,-62 2567.04,-62"/>
<text text-anchor="middle" x="2588.04" y="-69" font-family="Helvetica,sans-Serif" font-size="10.00">array</text>
</a>
</g>
</g>
<!-- Node5&#45;&gt;Node6 -->
<g id="edge5" class="edge">
<title>Node5&#45;&gt;Node6</title>
<path fill="none" stroke="midnightblue" d="M1706.78,-131.69C1881.78,-130.37 2391.13,-123.41 2553.04,-87 2555.72,-86.4 2558.45,-85.61 2561.15,-84.71"/>
<polygon fill="midnightblue" stroke="midnightblue" points="2562.52,-87.93 2570.62,-81.09 2560.03,-81.39 2562.52,-87.93"/>
</g>
<!-- Node7 -->
<g id="node7" class="node">
<title>Node7</title>
<g id="a_node7"><a xlink:title=" ">
<polygon fill="white" stroke="#bfbfbf" points="123.04,-62 123.04,-81 233.04,-81 233.04,-62 123.04,-62"/>
<text text-anchor="middle" x="178.04" y="-69" font-family="Helvetica,sans-Serif" font-size="10.00">nlohmann/json.hpp</text>
</a>
</g>
</g>
<!-- Node5&#45;&gt;Node7 -->
<g id="edge7" class="edge">
<title>Node5&#45;&gt;Node7</title>
<path fill="none" stroke="midnightblue" d="M1587.3,-131.6C1354.56,-129.83 508.32,-121.11 242.04,-87 234.82,-86.07 227.21,-84.71 219.86,-83.18"/>
<polygon fill="midnightblue" stroke="midnightblue" points="220.58,-79.75 210.06,-81.01 219.07,-86.59 220.58,-79.75"/>
</g>
<!-- Node8 -->
<g id="node8" class="node">
<title>Node8</title>
<g id="a_node8"><a xlink:title=" ">
<polygon fill="white" stroke="#bfbfbf" points="251.04,-62 251.04,-81 343.04,-81 343.04,-62 251.04,-62"/>
<text text-anchor="middle" x="297.04" y="-69" font-family="Helvetica,sans-Serif" font-size="10.00">boost/array.hpp</text>
</a>
</g>
</g>
<!-- Node5&#45;&gt;Node8 -->
<g id="edge8" class="edge">
<title>Node5&#45;&gt;Node8</title>
<path fill="none" stroke="midnightblue" d="M1587.52,-131.66C1366.91,-130.11 596.08,-122.26 353.04,-87 347.12,-86.14 340.92,-84.9 334.9,-83.49"/>
<polygon fill="midnightblue" stroke="midnightblue" points="335.55,-80.05 325,-81.02 333.85,-86.84 335.55,-80.05"/>
</g>
<!-- Node9 -->
<g id="node9" class="node">
<title>Node9</title>
<g id="a_node9"><a xlink:title=" ">
<polygon fill="white" stroke="#bfbfbf" points="361.54,-62 361.54,-81 474.54,-81 474.54,-62 361.54,-62"/>
<text text-anchor="middle" x="418.04" y="-69" font-family="Helvetica,sans-Serif" font-size="10.00">boost/bind/bind.hpp</text>
</a>
</g>
</g>
<!-- Node5&#45;&gt;Node9 -->
<g id="edge9" class="edge">
<title>Node5&#45;&gt;Node9</title>
<path fill="none" stroke="midnightblue" d="M1587.3,-131.09C1381.21,-127.74 700.75,-114.77 484.04,-87 476.68,-86.06 468.93,-84.69 461.43,-83.18"/>
<polygon fill="midnightblue" stroke="midnightblue" points="461.93,-79.71 451.41,-81.04 460.46,-86.55 461.93,-79.71"/>
</g>
<!-- Node10 -->
<g id="node10" class="node">
<title>Node10</title>
<g id="a_node10"><a xlink:title=" ">
<polygon fill="white" stroke="#bfbfbf" points="493.04,-62 493.04,-81 647.04,-81 647.04,-62 493.04,-62"/>
<text text-anchor="middle" x="570.04" y="-69" font-family="Helvetica,sans-Serif" font-size="10.00">boost/bind/placeholders.hpp</text>
</a>
</g>
</g>
<!-- Node5&#45;&gt;Node10 -->
<g id="edge10" class="edge">
<title>Node5&#45;&gt;Node10</title>
<path fill="none" stroke="midnightblue" d="M1587.43,-131.77C1433.18,-130.65 1008.44,-124.13 657.04,-87 646.65,-85.9 635.63,-84.36 625.04,-82.69"/>
<polygon fill="midnightblue" stroke="midnightblue" points="625.49,-79.22 615.05,-81.06 624.36,-86.12 625.49,-79.22"/>
</g>
<!-- Node11 -->
<g id="node11" class="node">
<title>Node11</title>
<g id="a_node11"><a xlink:title=" ">
<polygon fill="white" stroke="#bfbfbf" points="665.54,-62 665.54,-81 806.54,-81 806.54,-62 665.54,-62"/>
<text text-anchor="middle" x="736.04" y="-69" font-family="Helvetica,sans-Serif" font-size="10.00">boost/numeric/odeint.hpp</text>
</a>
</g>
</g>
<!-- Node5&#45;&gt;Node11 -->
<g id="edge11" class="edge">
<title>Node5&#45;&gt;Node11</title>
<path fill="none" stroke="midnightblue" d="M1587.37,-131.33C1450.53,-129.23 1103.76,-120.73 816.04,-87 806.77,-85.91 796.96,-84.42 787.5,-82.81"/>
<polygon fill="midnightblue" stroke="midnightblue" points="787.87,-79.32 777.41,-81.02 786.65,-86.21 787.87,-79.32"/>
</g>
<!-- Node12 -->
<g id="node12" class="node">
<title>Node12</title>
<g id="a_node12"><a xlink:title=" ">
<polygon fill="white" stroke="#bfbfbf" points="825.04,-62 825.04,-81 973.04,-81 973.04,-62 825.04,-62"/>
<text text-anchor="middle" x="899.04" y="-69" font-family="Helvetica,sans-Serif" font-size="10.00">boost/numeric/interval.hpp</text>
</a>
</g>
</g>
<!-- Node5&#45;&gt;Node12 -->
<g id="edge12" class="edge">
<title>Node5&#45;&gt;Node12</title>
<path fill="none" stroke="midnightblue" d="M1587.23,-130.07C1470.51,-125.83 1204.33,-113.86 982.04,-87 972.56,-85.85 962.51,-84.35 952.8,-82.74"/>
<polygon fill="midnightblue" stroke="midnightblue" points="953.3,-79.28 942.85,-81.04 952.12,-86.18 953.3,-79.28"/>
</g>
<!-- Node13 -->
<g id="node13" class="node">
<title>Node13</title>
<g id="a_node13"><a xlink:title=" ">
<polygon fill="white" stroke="#bfbfbf" points="991.04,-56.5 991.04,-86.5 1135.04,-86.5 1135.04,-56.5 991.04,-56.5"/>
<text text-anchor="start" x="999.04" y="-74.5" font-family="Helvetica,sans-Serif" font-size="10.00">boost/numeric/odeint</text>
<text text-anchor="middle" x="1063.04" y="-63.5" font-family="Helvetica,sans-Serif" font-size="10.00">/stepper/runge_kutta4.hpp</text>
</a>
</g>
</g>
<!-- Node5&#45;&gt;Node13 -->
<g id="edge13" class="edge">
<title>Node5&#45;&gt;Node13</title>
<path fill="none" stroke="midnightblue" d="M1587.23,-128.36C1494.74,-122.35 1311.22,-108.93 1145.78,-87.16"/>
<polygon fill="midnightblue" stroke="midnightblue" points="1145.79,-83.63 1135.41,-85.78 1144.87,-90.57 1145.79,-83.63"/>
</g>
<!-- Node14 -->
<g id="node14" class="node">
<title>Node14</title>
<g id="a_node14"><a xlink:title=" ">
<polygon fill="white" stroke="#bfbfbf" points="1153.04,-56.5 1153.04,-86.5 1269.04,-86.5 1269.04,-56.5 1153.04,-56.5"/>
<text text-anchor="start" x="1161.04" y="-74.5" font-family="Helvetica,sans-Serif" font-size="10.00">boost/numeric/ublas</text>
<text text-anchor="middle" x="1211.04" y="-63.5" font-family="Helvetica,sans-Serif" font-size="10.00">/matrix.hpp</text>
</a>
</g>
</g>
<!-- Node5&#45;&gt;Node14 -->
<g id="edge14" class="edge">
<title>Node5&#45;&gt;Node14</title>
<path fill="none" stroke="midnightblue" d="M1587.36,-126.42C1516.27,-119.4 1393.73,-106.1 1279.08,-87.08"/>
<polygon fill="midnightblue" stroke="midnightblue" points="1279.52,-83.6 1269.08,-85.4 1278.37,-90.51 1279.52,-83.6"/>
</g>
<!-- Node15 -->
<g id="node15" class="node">
<title>Node15</title>
<g id="a_node15"><a xlink:title=" ">
<polygon fill="white" stroke="#bfbfbf" points="1287.04,-56.5 1287.04,-86.5 1403.04,-86.5 1403.04,-56.5 1287.04,-56.5"/>
<text text-anchor="start" x="1295.04" y="-74.5" font-family="Helvetica,sans-Serif" font-size="10.00">boost/numeric/ublas</text>
<text text-anchor="middle" x="1345.04" y="-63.5" font-family="Helvetica,sans-Serif" font-size="10.00">/io.hpp</text>
</a>
</g>
</g>
<!-- Node5&#45;&gt;Node15 -->
<g id="edge15" class="edge">
<title>Node5&#45;&gt;Node15</title>
<path fill="none" stroke="midnightblue" d="M1600.6,-123.45C1555.28,-115.02 1484.12,-101.6 1413.14,-87.2"/>
<polygon fill="midnightblue" stroke="midnightblue" points="1413.62,-83.72 1403.13,-85.16 1412.23,-90.58 1413.62,-83.72"/>
</g>
<!-- Node16 -->
<g id="node16" class="node">
<title>Node16</title>
<g id="a_node16"><a xlink:title=" ">
<polygon fill="white" stroke="#bfbfbf" points="1421.04,-62 1421.04,-81 1599.04,-81 1599.04,-62 1421.04,-62"/>
<text text-anchor="middle" x="1510.04" y="-69" font-family="Helvetica,sans-Serif" font-size="10.00">boost/math/tools/polynomial.hpp</text>
</a>
</g>
</g>
<!-- Node5&#45;&gt;Node16 -->
<g id="edge16" class="edge">
<title>Node5&#45;&gt;Node16</title>
<path fill="none" stroke="midnightblue" d="M1627.41,-123.48C1604.22,-113.4 1565.42,-96.55 1538.83,-85"/>
<polygon fill="midnightblue" stroke="midnightblue" points="1540.2,-81.78 1529.63,-81.01 1537.41,-88.2 1540.2,-81.78"/>
</g>
<!-- Node17 -->
<g id="node17" class="node">
<title>Node17</title>
<g id="a_node17"><a xlink:title=" ">
<polygon fill="white" stroke="#bfbfbf" points="1617.04,-62 1617.04,-81 1677.04,-81 1677.04,-62 1617.04,-62"/>
<text text-anchor="middle" x="1647.04" y="-69" font-family="Helvetica,sans-Serif" font-size="10.00">iostream</text>
</a>
</g>
</g>
<!-- Node5&#45;&gt;Node17 -->
<g id="edge17" class="edge">
<title>Node5&#45;&gt;Node17</title>
<path fill="none" stroke="midnightblue" d="M1647.04,-123.48C1647.04,-115.08 1647.04,-101.98 1647.04,-91.16"/>
<polygon fill="midnightblue" stroke="midnightblue" points="1650.54,-91.01 1647.04,-81.01 1643.54,-91.01 1650.54,-91.01"/>
</g>
<!-- Node18 -->
<g id="node18" class="node">
<title>Node18</title>
<g id="a_node18"><a xlink:title=" ">
<polygon fill="white" stroke="#bfbfbf" points="1695.04,-62 1695.04,-81 1745.04,-81 1745.04,-62 1695.04,-62"/>
<text text-anchor="middle" x="1720.04" y="-69" font-family="Helvetica,sans-Serif" font-size="10.00">stdio.h</text>
</a>
</g>
</g>
<!-- Node5&#45;&gt;Node18 -->
<g id="edge18" class="edge">
<title>Node5&#45;&gt;Node18</title>
<path fill="none" stroke="midnightblue" d="M1657.5,-123.48C1668.99,-114.11 1687.67,-98.88 1701.63,-87.51"/>
<polygon fill="midnightblue" stroke="midnightblue" points="1704.06,-90.04 1709.6,-81.01 1699.64,-84.61 1704.06,-90.04"/>
</g>
<!-- Node19 -->
<g id="node19" class="node">
<title>Node19</title>
<g id="a_node19"><a xlink:title=" ">
<polygon fill="white" stroke="#bfbfbf" points="1763.54,-62 1763.54,-81 1816.54,-81 1816.54,-62 1763.54,-62"/>
<text text-anchor="middle" x="1790.04" y="-69" font-family="Helvetica,sans-Serif" font-size="10.00">stdlib.h</text>
</a>
</g>
</g>
<!-- Node5&#45;&gt;Node19 -->
<g id="edge19" class="edge">
<title>Node5&#45;&gt;Node19</title>
<path fill="none" stroke="midnightblue" d="M1667.53,-123.48C1691.85,-113.36 1732.59,-96.4 1760.36,-84.85"/>
<polygon fill="midnightblue" stroke="midnightblue" points="1761.7,-88.08 1769.59,-81.01 1759.01,-81.62 1761.7,-88.08"/>
</g>
<!-- Node20 -->
<g id="node20" class="node">
<title>Node20</title>
<g id="a_node20"><a xlink:title=" ">
<polygon fill="white" stroke="#bfbfbf" points="1835.04,-62 1835.04,-81 1883.04,-81 1883.04,-62 1835.04,-62"/>
<text text-anchor="middle" x="1859.04" y="-69" font-family="Helvetica,sans-Serif" font-size="10.00">time.h</text>
</a>
</g>
</g>
<!-- Node5&#45;&gt;Node20 -->
<g id="edge22" class="edge">
<title>Node5&#45;&gt;Node20</title>
<path fill="none" stroke="midnightblue" d="M1689.21,-123.49C1725.86,-115.61 1780.12,-102.74 1826.04,-87 1827.91,-86.36 1829.81,-85.66 1831.72,-84.92"/>
<polygon fill="midnightblue" stroke="midnightblue" points="1833.2,-88.09 1841.1,-81.03 1830.52,-81.63 1833.2,-88.09"/>
</g>
<!-- Node21 -->
<g id="node21" class="node">
<title>Node21</title>
<g id="a_node21"><a xlink:title=" ">
<polygon fill="white" stroke="#bfbfbf" points="1901.04,-62 1901.04,-81 1945.04,-81 1945.04,-62 1901.04,-62"/>
<text text-anchor="middle" x="1923.04" y="-69" font-family="Helvetica,sans-Serif" font-size="10.00">ctime</text>
</a>
</g>
</g>
<!-- Node5&#45;&gt;Node21 -->
<g id="edge23" class="edge">
<title>Node5&#45;&gt;Node21</title>
<path fill="none" stroke="midnightblue" d="M1706.74,-125.38C1757.01,-118.78 1830.36,-106.73 1892.04,-87 1893.71,-86.46 1895.41,-85.86 1897.11,-85.21"/>
<polygon fill="midnightblue" stroke="midnightblue" points="1898.81,-88.29 1906.62,-81.13 1896.05,-81.85 1898.81,-88.29"/>
</g>
<!-- Node22 -->
<g id="node22" class="node">
<title>Node22</title>
<g id="a_node22"><a xlink:title=" ">
<polygon fill="white" stroke="#bfbfbf" points="1963.04,-62 1963.04,-81 2019.04,-81 2019.04,-62 1963.04,-62"/>
<text text-anchor="middle" x="1991.04" y="-69" font-family="Helvetica,sans-Serif" font-size="10.00">iomanip</text>
</a>
</g>
</g>
<!-- Node5&#45;&gt;Node22 -->
<g id="edge24" class="edge">
<title>Node5&#45;&gt;Node22</title>
<path fill="none" stroke="midnightblue" d="M1706.7,-127.31C1769.16,-121.47 1869.7,-109.39 1954.04,-87 1956.7,-86.29 1959.43,-85.46 1962.14,-84.54"/>
<polygon fill="midnightblue" stroke="midnightblue" points="1963.55,-87.76 1971.73,-81.02 1961.14,-81.18 1963.55,-87.76"/>
</g>
<!-- Node23 -->
<g id="node23" class="node">
<title>Node23</title>
<g id="a_node23"><a xlink:title=" ">
<polygon fill="white" stroke="#bfbfbf" points="2037.54,-62 2037.54,-81 2092.54,-81 2092.54,-62 2037.54,-62"/>
<text text-anchor="middle" x="2065.04" y="-69" font-family="Helvetica,sans-Serif" font-size="10.00">fstream</text>
</a>
</g>
</g>
<!-- Node5&#45;&gt;Node23 -->
<g id="edge25" class="edge">
<title>Node5&#45;&gt;Node23</title>
<path fill="none" stroke="midnightblue" d="M1706.63,-129.67C1782.35,-125.65 1916.59,-114.93 2028.04,-87 2030.71,-86.33 2033.44,-85.52 2036.16,-84.62"/>
<polygon fill="midnightblue" stroke="midnightblue" points="2037.56,-87.84 2045.76,-81.13 2035.17,-81.26 2037.56,-87.84"/>
</g>
<!-- Node24 -->
<g id="node24" class="node">
<title>Node24</title>
<g id="a_node24"><a xlink:title=" ">
<polygon fill="white" stroke="#bfbfbf" points="2111.04,-62 2111.04,-81 2155.04,-81 2155.04,-62 2111.04,-62"/>
<text text-anchor="middle" x="2133.04" y="-69" font-family="Helvetica,sans-Serif" font-size="10.00">string</text>
</a>
</g>
</g>
<!-- Node5&#45;&gt;Node24 -->
<g id="edge26" class="edge">
<title>Node5&#45;&gt;Node24</title>
<path fill="none" stroke="midnightblue" d="M1706.74,-132.47C1794.82,-131.73 1964.07,-124.89 2102.04,-87 2103.97,-86.47 2105.94,-85.83 2107.89,-85.11"/>
<polygon fill="midnightblue" stroke="midnightblue" points="2109.51,-88.22 2117.35,-81.1 2106.77,-81.78 2109.51,-88.22"/>
</g>
<!-- Node25 -->
<g id="node25" class="node">
<title>Node25</title>
<g id="a_node25"><a xlink:title=" ">
<polygon fill="white" stroke="#bfbfbf" points="2173.54,-62 2173.54,-81 2220.54,-81 2220.54,-62 2173.54,-62"/>
<text text-anchor="middle" x="2197.04" y="-69" font-family="Helvetica,sans-Serif" font-size="10.00">vector</text>
</a>
</g>
</g>
<!-- Node5&#45;&gt;Node25 -->
<g id="edge27" class="edge">
<title>Node5&#45;&gt;Node25</title>
<path fill="none" stroke="midnightblue" d="M1706.62,-129.26C1823.51,-123.48 2078.94,-108.77 2164.04,-87 2166.34,-86.41 2168.69,-85.68 2171.01,-84.86"/>
<polygon fill="midnightblue" stroke="midnightblue" points="2172.32,-88.1 2180.29,-81.12 2169.71,-81.61 2172.32,-88.1"/>
</g>
<!-- Node26 -->
<g id="node26" class="node">
<title>Node26</title>
<g id="a_node26"><a xlink:title=" ">
<polygon fill="white" stroke="#bfbfbf" points="2239.04,-62 2239.04,-81 2289.04,-81 2289.04,-62 2239.04,-62"/>
<text text-anchor="middle" x="2264.04" y="-69" font-family="Helvetica,sans-Serif" font-size="10.00">chrono</text>
</a>
</g>
</g>
<!-- Node5&#45;&gt;Node26 -->
<g id="edge28" class="edge">
<title>Node5&#45;&gt;Node26</title>
<path fill="none" stroke="midnightblue" d="M1706.77,-129.85C1834.81,-124.85 2132.05,-110.99 2230.04,-87 2232.41,-86.42 2234.82,-85.69 2237.21,-84.88"/>
<polygon fill="midnightblue" stroke="midnightblue" points="2238.72,-88.04 2246.77,-81.15 2236.18,-81.52 2238.72,-88.04"/>
</g>
<!-- Node27 -->
<g id="node27" class="node">
<title>Node27</title>
<g id="a_node27"><a xlink:title=" ">
<polygon fill="white" stroke="#bfbfbf" points="2307.54,-62 2307.54,-81 2372.54,-81 2372.54,-62 2307.54,-62"/>
<text text-anchor="middle" x="2340.04" y="-69" font-family="Helvetica,sans-Serif" font-size="10.00">functional</text>
</a>
</g>
</g>
<!-- Node5&#45;&gt;Node27 -->
<g id="edge29" class="edge">
<title>Node5&#45;&gt;Node27</title>
<path fill="none" stroke="midnightblue" d="M1706.75,-129.88C1845.41,-124.64 2185.91,-109.81 2298.04,-87 2301.55,-86.29 2305.16,-85.35 2308.73,-84.31"/>
<polygon fill="midnightblue" stroke="midnightblue" points="2310.11,-87.54 2318.55,-81.14 2307.95,-80.88 2310.11,-87.54"/>
</g>
<!-- Node28 -->
<g id="node28" class="node">
<title>Node28</title>
<g id="a_node28"><a xlink:href="continuous__lyapunov__equation_8hpp.html" target="_top" xlink:title="The following code uses a different convention from MATLAB.">
<polygon fill="white" stroke="black" points="2391.04,-56.5 2391.04,-86.5 2511.04,-86.5 2511.04,-56.5 2391.04,-56.5"/>
<text text-anchor="start" x="2399.04" y="-74.5" font-family="Helvetica,sans-Serif" font-size="10.00">continuous_lyapunov</text>
<text text-anchor="middle" x="2451.04" y="-63.5" font-family="Helvetica,sans-Serif" font-size="10.00">_equation.hpp</text>
</a>
</g>
</g>
<!-- Node5&#45;&gt;Node28 -->
<g id="edge30" class="edge">
<title>Node5&#45;&gt;Node28</title>
<path fill="none" stroke="midnightblue" d="M1706.87,-131.29C1830.85,-129.18 2124.88,-120.86 2380.69,-87.04"/>
<polygon fill="midnightblue" stroke="midnightblue" points="2381.47,-90.47 2390.92,-85.67 2380.54,-83.53 2381.47,-90.47"/>
</g>
<!-- Node28&#45;&gt;Node2 -->
<g id="edge31" class="edge">
<title>Node28&#45;&gt;Node2</title>
<path fill="none" stroke="midnightblue" d="M2390.94,-57.18C2387.94,-56.73 2384.96,-56.33 2382.04,-56 2152.71,-29.88 453.77,-14.09 143.58,-11.41"/>
<polygon fill="midnightblue" stroke="midnightblue" points="143.58,-7.91 133.55,-11.32 143.52,-14.91 143.58,-7.91"/>
</g>
<!-- Node28&#45;&gt;Node3 -->
<g id="edge33" class="edge">
<title>Node28&#45;&gt;Node3</title>
<path fill="none" stroke="midnightblue" d="M2485.88,-56.4C2510.54,-46.42 2543.33,-33.15 2567.08,-23.53"/>
<polygon fill="midnightblue" stroke="midnightblue" points="2568.69,-26.65 2576.65,-19.66 2566.07,-20.17 2568.69,-26.65"/>
</g>
<!-- Node29 -->
<g id="node29" class="node">
<title>Node29</title>
<g id="a_node29"><a xlink:title=" ">
<polygon fill="white" stroke="#bfbfbf" points="2272.54,-0.5 2272.54,-19.5 2333.54,-19.5 2333.54,-0.5 2272.54,-0.5"/>
<text text-anchor="middle" x="2303.04" y="-7.5" font-family="Helvetica,sans-Serif" font-size="10.00">Eigen/QR</text>
</a>
</g>
</g>
<!-- Node28&#45;&gt;Node29 -->
<g id="edge32" class="edge">
<title>Node28&#45;&gt;Node29</title>
<path fill="none" stroke="midnightblue" d="M2415.97,-56.4C2391.02,-46.37 2357.83,-33.03 2333.9,-23.4"/>
<polygon fill="midnightblue" stroke="midnightblue" points="2335.16,-20.14 2324.58,-19.66 2332.55,-26.64 2335.16,-20.14"/>
</g>
<!-- Node30 -->
<g id="node30" class="node">
<title>Node30</title>
<g id="a_node30"><a xlink:title=" ">
<polygon fill="white" stroke="#bfbfbf" points="2351.54,-0.5 2351.54,-19.5 2410.54,-19.5 2410.54,-0.5 2351.54,-0.5"/>
<text text-anchor="middle" x="2381.04" y="-7.5" font-family="Helvetica,sans-Serif" font-size="10.00">complex</text>
</a>
</g>
</g>
<!-- Node28&#45;&gt;Node30 -->
<g id="edge34" class="edge">
<title>Node28&#45;&gt;Node30</title>
<path fill="none" stroke="midnightblue" d="M2434.45,-56.4C2423.76,-47.31 2409.85,-35.49 2398.91,-26.19"/>
<polygon fill="midnightblue" stroke="midnightblue" points="2401.11,-23.47 2391.23,-19.66 2396.58,-28.8 2401.11,-23.47"/>
</g>
<!-- Node31 -->
<g id="node31" class="node">
<title>Node31</title>
<g id="a_node31"><a xlink:title=" ">
<polygon fill="white" stroke="#bfbfbf" points="2429.04,-0.5 2429.04,-19.5 2473.04,-19.5 2473.04,-0.5 2429.04,-0.5"/>
<text text-anchor="middle" x="2451.04" y="-7.5" font-family="Helvetica,sans-Serif" font-size="10.00">limits</text>
</a>
</g>
</g>
<!-- Node28&#45;&gt;Node31 -->
<g id="edge35" class="edge">
<title>Node28&#45;&gt;Node31</title>
<path fill="none" stroke="midnightblue" d="M2451.04,-56.4C2451.04,-48.47 2451.04,-38.46 2451.04,-29.86"/>
<polygon fill="midnightblue" stroke="midnightblue" points="2454.54,-29.66 2451.04,-19.66 2447.54,-29.66 2454.54,-29.66"/>
</g>
<!-- Node32 -->
<g id="node32" class="node">
<title>Node32</title>
<g id="a_node32"><a xlink:title=" ">
<polygon fill="white" stroke="#bfbfbf" points="2491.54,-0.5 2491.54,-19.5 2556.54,-19.5 2556.54,-0.5 2491.54,-0.5"/>
<text text-anchor="middle" x="2524.04" y="-7.5" font-family="Helvetica,sans-Serif" font-size="10.00">stdexcept</text>
</a>
</g>
</g>
<!-- Node28&#45;&gt;Node32 -->
<g id="edge36" class="edge">
<title>Node28&#45;&gt;Node32</title>
<path fill="none" stroke="midnightblue" d="M2468.34,-56.4C2479.5,-47.31 2493.99,-35.49 2505.4,-26.19"/>
<polygon fill="midnightblue" stroke="midnightblue" points="2507.88,-28.69 2513.42,-19.66 2503.46,-23.26 2507.88,-28.69"/>
</g>
</g>
</svg>
        <g id="navigator" transform="translate(0 0)" fill="#404254">
                <rect fill="#f2f5e9" fill-opacity="0.5" stroke="#606060" stroke-width=".5" x="0" y="0" width="60" height="60"/>
                <use id="zoomplus" xlink:href="#zoomPlus" x="17" y="9" onmousedown="handleZoom(evt,'in')"/>
                <use id="zoomminus" xlink:href="#zoomMin" x="42" y="9" onmousedown="handleZoom(evt,'out')"/>
                <use id="reset" xlink:href="#resetDef" x="30" y="36" onmousedown="handleReset()"/>
                <g id="arrowUp" xlink:href="#dirArrow" transform="translate(30 24)" onmousedown="handlePan(0,-1)">
                  <use xlink:href="#rim" fill="#404040">
                        <set attributeName="fill" to="#808080" begin="arrowUp.mouseover" end="arrowUp.mouseout"/>
                  </use>
                  <path fill="none" stroke="white" stroke-width="1.5" d="M0,-3.0v7 M-2.5,-0.5L0,-3.0L2.5,-0.5"/>
                </g>
                <g id="arrowRight" xlink:href="#dirArrow" transform="rotate(90) translate(36 -43)" onmousedown="handlePan(1,0)">
                  <use xlink:href="#rim" fill="#404040">
                        <set attributeName="fill" to="#808080" begin="arrowRight.mouseover" end="arrowRight.mouseout"/>
                  </use>
                  <path fill="none" stroke="white" stroke-width="1.5" d="M0,-3.0v7 M-2.5,-0.5L0,-3.0L2.5,-0.5"/>
                </g>
                <g id="arrowDown" xlink:href="#dirArrow" transform="rotate(180) translate(-30 -48)" onmousedown="handlePan(0,1)">
                  <use xlink:href="#rim" fill="#404040">
                        <set attributeName="fill" to="#808080" begin="arrowDown.mouseover" end="arrowDown.mouseout"/>
                  </use>
                  <path fill="none" stroke="white" stroke-width="1.5" d="M0,-3.0v7 M-2.5,-0.5L0,-3.0L2.5,-0.5"/>
                </g>
                <g id="arrowLeft" xlink:href="#dirArrow" transform="rotate(270) translate(-36 17)" onmousedown="handlePan(-1,0)">
                  <use xlink:href="#rim" fill="#404040">
                        <set attributeName="fill" to="#808080" begin="arrowLeft.mouseover" end="arrowLeft.mouseout"/>
                  </use>
                  <path fill="none" stroke="white" stroke-width="1.5" d="M0,-3.0v7 M-2.5,-0.5L0,-3.0L2.5,-0.5"/>
                </g>
        </g>
        <svg viewBox="0 0 15 15" width="100%" height="30px" preserveAspectRatio="xMaxYMin meet">
         <g id="arrow_out" transform="scale(0.3 0.3)">
          <a xlink:href="qrbp_8hpp__incl_org.svg" target="_base">
           <rect id="button" ry="5" rx="5" y="6" x="6" height="38" width="38"
                fill="#f2f5e9" fill-opacity="0.5" stroke="#606060" stroke-width="1.0"/>
           <path id="arrow"
             d="M 11.500037,31.436501 C 11.940474,20.09759 22.043105,11.32322 32.158766,21.979434 L 37.068811,17.246167 C 37.068811,17.246167 37.088388,32 37.088388,32 L 22.160133,31.978069 C 22.160133,31.978069 26.997745,27.140456 26.997745,27.140456 C 18.528582,18.264221 13.291696,25.230495 11.500037,31.436501 z"
             style="fill:#404040;"/>
          </a>
         </g>
        </svg>
</svg>
