<?xml version="1.0" encoding="UTF-8" standalone="no"?>
<!DOCTYPE svg PUBLIC "-//W3C//DTD SVG 1.1//EN"
 "http://www.w3.org/Graphics/SVG/1.1/DTD/svg11.dtd">
<!-- Generated by graphviz version 2.43.0 (0)
 -->
<!-- Title: ACSL&#45;flightstack&#45;winged/src/acsl_flight/src/read_pix/read_pix.cpp Pages: 1 -->
<svg width="1607pt" height="285pt"
 viewBox="0.00 0.00 1607.00 285.00" xmlns="http://www.w3.org/2000/svg" xmlns:xlink="http://www.w3.org/1999/xlink">
<g id="graph0" class="graph" transform="scale(1 1) rotate(0) translate(4 281)">
<title>ACSL&#45;flightstack&#45;winged/src/acsl_flight/src/read_pix/read_pix.cpp</title>
<polygon fill="white" stroke="transparent" points="-4,4 -4,-281 1603,-281 1603,4 -4,4"/>
<!-- Node1 -->
<g id="node1" class="node">
<title>Node1</title>
<g id="a_node1"><a xlink:title="Class definiton for reading pixhawk data.">
<polygon fill="#bfbfbf" stroke="black" points="801.5,-235.5 801.5,-276.5 936.5,-276.5 936.5,-235.5 801.5,-235.5"/>
<text text-anchor="start" x="809.5" y="-264.5" font-family="Helvetica,sans-Serif" font-size="10.00">ACSL&#45;flightstack&#45;winged</text>
<text text-anchor="start" x="809.5" y="-253.5" font-family="Helvetica,sans-Serif" font-size="10.00">/src/acsl_flight/src/read</text>
<text text-anchor="middle" x="869" y="-242.5" font-family="Helvetica,sans-Serif" font-size="10.00">_pix/read_pix.cpp</text>
</a>
</g>
</g>
<!-- Node2 -->
<g id="node2" class="node">
<title>Node2</title>
<g id="a_node2"><a xlink:href="read__pix_8hpp.html" target="_top" xlink:title="Class decleartion for reading pixhawk data.">
<polygon fill="white" stroke="black" points="829,-179.5 829,-198.5 909,-198.5 909,-179.5 829,-179.5"/>
<text text-anchor="middle" x="869" y="-186.5" font-family="Helvetica,sans-Serif" font-size="10.00">read_pix.hpp</text>
</a>
</g>
</g>
<!-- Node1&#45;&gt;Node2 -->
<g id="edge1" class="edge">
<title>Node1&#45;&gt;Node2</title>
<path fill="none" stroke="midnightblue" d="M869,-235.5C869,-227.07 869,-217.24 869,-208.87"/>
<polygon fill="midnightblue" stroke="midnightblue" points="872.5,-208.65 869,-198.65 865.5,-208.65 872.5,-208.65"/>
</g>
<!-- Node3 -->
<g id="node3" class="node">
<title>Node3</title>
<g id="a_node3"><a xlink:title=" ">
<polygon fill="white" stroke="#bfbfbf" points="0,-118 0,-137 50,-137 50,-118 0,-118"/>
<text text-anchor="middle" x="25" y="-125" font-family="Helvetica,sans-Serif" font-size="10.00">chrono</text>
</a>
</g>
</g>
<!-- Node2&#45;&gt;Node3 -->
<g id="edge2" class="edge">
<title>Node2&#45;&gt;Node3</title>
<path fill="none" stroke="midnightblue" d="M828.69,-187.6C686.34,-185.92 207.81,-177.73 59,-143 56.48,-142.41 53.92,-141.65 51.38,-140.79"/>
<polygon fill="midnightblue" stroke="midnightblue" points="52.49,-137.46 41.9,-137.08 49.94,-143.98 52.49,-137.46"/>
</g>
<!-- Node4 -->
<g id="node4" class="node">
<title>Node4</title>
<g id="a_node4"><a xlink:title=" ">
<polygon fill="white" stroke="#bfbfbf" points="68,-118 68,-137 126,-137 126,-118 68,-118"/>
<text text-anchor="middle" x="97" y="-125" font-family="Helvetica,sans-Serif" font-size="10.00">memory</text>
</a>
</g>
</g>
<!-- Node2&#45;&gt;Node4 -->
<g id="edge3" class="edge">
<title>Node2&#45;&gt;Node4</title>
<path fill="none" stroke="midnightblue" d="M828.72,-186.91C696.06,-183.1 273.62,-169.17 140,-143 136.11,-142.24 132.09,-141.22 128.14,-140.06"/>
<polygon fill="midnightblue" stroke="midnightblue" points="129.16,-136.72 118.57,-137.01 127.04,-143.39 129.16,-136.72"/>
</g>
<!-- Node5 -->
<g id="node5" class="node">
<title>Node5</title>
<g id="a_node5"><a xlink:title=" ">
<polygon fill="white" stroke="#bfbfbf" points="170,-0.5 170,-19.5 214,-19.5 214,-0.5 170,-0.5"/>
<text text-anchor="middle" x="192" y="-7.5" font-family="Helvetica,sans-Serif" font-size="10.00">string</text>
</a>
</g>
</g>
<!-- Node2&#45;&gt;Node5 -->
<g id="edge4" class="edge">
<title>Node2&#45;&gt;Node5</title>
<path fill="none" stroke="midnightblue" d="M828.96,-186C752.58,-181.71 581,-169.74 439,-143 328.48,-122.19 265.23,-163.83 195,-76 184.76,-63.19 185.17,-44 187.44,-29.79"/>
<polygon fill="midnightblue" stroke="midnightblue" points="190.94,-30.18 189.5,-19.68 184.08,-28.78 190.94,-30.18"/>
</g>
<!-- Node6 -->
<g id="node6" class="node">
<title>Node6</title>
<g id="a_node6"><a xlink:title=" ">
<polygon fill="white" stroke="#bfbfbf" points="745.5,-118 745.5,-137 790.5,-137 790.5,-118 745.5,-118"/>
<text text-anchor="middle" x="768" y="-125" font-family="Helvetica,sans-Serif" font-size="10.00">utility</text>
</a>
</g>
</g>
<!-- Node2&#45;&gt;Node6 -->
<g id="edge5" class="edge">
<title>Node2&#45;&gt;Node6</title>
<path fill="none" stroke="midnightblue" d="M854.53,-179.48C838.03,-169.75 810.82,-153.73 791.32,-142.24"/>
<polygon fill="midnightblue" stroke="midnightblue" points="792.84,-139.07 782.44,-137.01 789.28,-145.1 792.84,-139.07"/>
</g>
<!-- Node7 -->
<g id="node7" class="node">
<title>Node7</title>
<g id="a_node7"><a xlink:title=" ">
<polygon fill="white" stroke="#bfbfbf" points="808.5,-118 808.5,-137 855.5,-137 855.5,-118 808.5,-118"/>
<text text-anchor="middle" x="832" y="-125" font-family="Helvetica,sans-Serif" font-size="10.00">vector</text>
</a>
</g>
</g>
<!-- Node2&#45;&gt;Node7 -->
<g id="edge6" class="edge">
<title>Node2&#45;&gt;Node7</title>
<path fill="none" stroke="midnightblue" d="M863.7,-179.48C858.26,-170.73 849.64,-156.87 842.76,-145.81"/>
<polygon fill="midnightblue" stroke="midnightblue" points="845.54,-143.65 837.29,-137.01 839.6,-147.35 845.54,-143.65"/>
</g>
<!-- Node8 -->
<g id="node8" class="node">
<title>Node8</title>
<g id="a_node8"><a xlink:title=" ">
<polygon fill="white" stroke="#bfbfbf" points="874,-118 874,-137 938,-137 938,-118 874,-118"/>
<text text-anchor="middle" x="906" y="-125" font-family="Helvetica,sans-Serif" font-size="10.00">algorithm</text>
</a>
</g>
</g>
<!-- Node2&#45;&gt;Node8 -->
<g id="edge7" class="edge">
<title>Node2&#45;&gt;Node8</title>
<path fill="none" stroke="midnightblue" d="M874.3,-179.48C879.74,-170.73 888.36,-156.87 895.24,-145.81"/>
<polygon fill="midnightblue" stroke="midnightblue" points="898.4,-147.35 900.71,-137.01 892.46,-143.65 898.4,-147.35"/>
</g>
<!-- Node9 -->
<g id="node9" class="node">
<title>Node9</title>
<g id="a_node9"><a xlink:title=" ">
<polygon fill="white" stroke="#bfbfbf" points="956.5,-118 956.5,-137 1021.5,-137 1021.5,-118 956.5,-118"/>
<text text-anchor="middle" x="989" y="-125" font-family="Helvetica,sans-Serif" font-size="10.00">functional</text>
</a>
</g>
</g>
<!-- Node2&#45;&gt;Node9 -->
<g id="edge8" class="edge">
<title>Node2&#45;&gt;Node9</title>
<path fill="none" stroke="midnightblue" d="M886.19,-179.48C906.24,-169.53 939.6,-152.99 962.86,-141.46"/>
<polygon fill="midnightblue" stroke="midnightblue" points="964.43,-144.59 971.84,-137.01 961.32,-138.32 964.43,-144.59"/>
</g>
<!-- Node10 -->
<g id="node10" class="node">
<title>Node10</title>
<g id="a_node10"><a xlink:title=" ">
<polygon fill="white" stroke="#bfbfbf" points="1032,-56.5 1032,-75.5 1082,-75.5 1082,-56.5 1032,-56.5"/>
<text text-anchor="middle" x="1057" y="-63.5" font-family="Helvetica,sans-Serif" font-size="10.00">atomic</text>
</a>
</g>
</g>
<!-- Node2&#45;&gt;Node10 -->
<g id="edge9" class="edge">
<title>Node2&#45;&gt;Node10</title>
<path fill="none" stroke="midnightblue" d="M909.05,-186.85C945.03,-183.72 997.12,-173.7 1030,-143 1046.04,-128.03 1052.56,-102.92 1055.2,-85.68"/>
<polygon fill="midnightblue" stroke="midnightblue" points="1058.69,-86.04 1056.44,-75.68 1051.74,-85.17 1058.69,-86.04"/>
</g>
<!-- Node11 -->
<g id="node11" class="node">
<title>Node11</title>
<g id="a_node11"><a xlink:title=" ">
<polygon fill="white" stroke="#bfbfbf" points="815.5,-0.5 815.5,-19.5 892.5,-19.5 892.5,-0.5 815.5,-0.5"/>
<text text-anchor="middle" x="854" y="-7.5" font-family="Helvetica,sans-Serif" font-size="10.00">Eigen/Dense</text>
</a>
</g>
</g>
<!-- Node2&#45;&gt;Node11 -->
<g id="edge10" class="edge">
<title>Node2&#45;&gt;Node11</title>
<path fill="none" stroke="midnightblue" d="M828.87,-186.35C797.92,-182.7 756.96,-172.22 736,-143 687.99,-76.07 816.8,-95.41 835,-76 846.68,-63.55 851.22,-44.31 852.96,-29.99"/>
<polygon fill="midnightblue" stroke="midnightblue" points="856.47,-30.05 853.85,-19.79 849.5,-29.45 856.47,-30.05"/>
</g>
<!-- Node12 -->
<g id="node12" class="node">
<title>Node12</title>
<g id="a_node12"><a xlink:title=" ">
<polygon fill="white" stroke="#bfbfbf" points="1199.5,-118 1199.5,-137 1298.5,-137 1298.5,-118 1199.5,-118"/>
<text text-anchor="middle" x="1249" y="-125" font-family="Helvetica,sans-Serif" font-size="10.00">rclcpp/rclcpp.hpp</text>
</a>
</g>
</g>
<!-- Node2&#45;&gt;Node12 -->
<g id="edge11" class="edge">
<title>Node2&#45;&gt;Node12</title>
<path fill="none" stroke="midnightblue" d="M909.13,-183.78C970.28,-177.03 1090.29,-162.57 1191,-143 1196.41,-141.95 1202.08,-140.71 1207.65,-139.4"/>
<polygon fill="midnightblue" stroke="midnightblue" points="1208.63,-142.77 1217.53,-137.01 1206.99,-135.97 1208.63,-142.77"/>
</g>
<!-- Node13 -->
<g id="node13" class="node">
<title>Node13</title>
<g id="a_node13"><a xlink:title=" ">
<polygon fill="white" stroke="#bfbfbf" points="1317,-118 1317,-137 1453,-137 1453,-118 1317,-118"/>
<text text-anchor="middle" x="1385" y="-125" font-family="Helvetica,sans-Serif" font-size="10.00">std_msgs/msg/int32.hpp</text>
</a>
</g>
</g>
<!-- Node2&#45;&gt;Node13 -->
<g id="edge12" class="edge">
<title>Node2&#45;&gt;Node13</title>
<path fill="none" stroke="midnightblue" d="M909.09,-185.02C986.46,-179.03 1161.67,-164.24 1308,-143 1316.14,-141.82 1324.72,-140.39 1333.09,-138.89"/>
<polygon fill="midnightblue" stroke="midnightblue" points="1333.94,-142.29 1343.15,-137.04 1332.68,-135.41 1333.94,-142.29"/>
</g>
<!-- Node14 -->
<g id="node14" class="node">
<title>Node14</title>
<g id="a_node14"><a xlink:title=" ">
<polygon fill="white" stroke="#bfbfbf" points="1471,-112.5 1471,-142.5 1599,-142.5 1599,-112.5 1471,-112.5"/>
<text text-anchor="start" x="1479" y="-130.5" font-family="Helvetica,sans-Serif" font-size="10.00">px4_msgs/msg/vehicle</text>
<text text-anchor="middle" x="1535" y="-119.5" font-family="Helvetica,sans-Serif" font-size="10.00">_odometry.hpp</text>
</a>
</g>
</g>
<!-- Node2&#45;&gt;Node14 -->
<g id="edge13" class="edge">
<title>Node2&#45;&gt;Node14</title>
<path fill="none" stroke="midnightblue" d="M909.09,-186.62C1003.49,-183.03 1247.33,-171.66 1460.84,-143.04"/>
<polygon fill="midnightblue" stroke="midnightblue" points="1461.54,-146.48 1470.98,-141.67 1460.6,-139.54 1461.54,-146.48"/>
</g>
<!-- Node15 -->
<g id="node15" class="node">
<title>Node15</title>
<g id="a_node15"><a xlink:href="vehicle__class_8hpp.html" target="_top" xlink:title="Header for the vehicle class object.">
<polygon fill="white" stroke="black" points="1078.5,-118 1078.5,-137 1181.5,-137 1181.5,-118 1078.5,-118"/>
<text text-anchor="middle" x="1130" y="-125" font-family="Helvetica,sans-Serif" font-size="10.00">vehicle_class.hpp</text>
</a>
</g>
</g>
<!-- Node2&#45;&gt;Node15 -->
<g id="edge14" class="edge">
<title>Node2&#45;&gt;Node15</title>
<path fill="none" stroke="midnightblue" d="M906.39,-179.48C952.81,-168.89 1032.02,-150.84 1082.64,-139.3"/>
<polygon fill="midnightblue" stroke="midnightblue" points="1083.7,-142.64 1092.67,-137.01 1082.15,-135.82 1083.7,-142.64"/>
</g>
<!-- Node17 -->
<g id="node17" class="node">
<title>Node17</title>
<g id="a_node17"><a xlink:href="flight__params_8hpp.html" target="_top" xlink:title=" ">
<polygon fill="white" stroke="black" points="448,-118 448,-137 552,-137 552,-118 448,-118"/>
<text text-anchor="middle" x="500" y="-125" font-family="Helvetica,sans-Serif" font-size="10.00">flight_params.hpp</text>
</a>
</g>
</g>
<!-- Node2&#45;&gt;Node17 -->
<g id="edge17" class="edge">
<title>Node2&#45;&gt;Node17</title>
<path fill="none" stroke="midnightblue" d="M828.81,-181.52C764.54,-171.16 638.17,-150.78 562.18,-138.53"/>
<polygon fill="midnightblue" stroke="midnightblue" points="562.69,-135.06 552.26,-136.93 561.58,-141.97 562.69,-135.06"/>
</g>
<!-- Node15&#45;&gt;Node10 -->
<g id="edge15" class="edge">
<title>Node15&#45;&gt;Node10</title>
<path fill="none" stroke="midnightblue" d="M1119.54,-117.98C1108.05,-108.61 1089.37,-93.38 1075.41,-82.01"/>
<polygon fill="midnightblue" stroke="midnightblue" points="1077.4,-79.11 1067.44,-75.51 1072.98,-84.54 1077.4,-79.11"/>
</g>
<!-- Node16 -->
<g id="node16" class="node">
<title>Node16</title>
<g id="a_node16"><a xlink:title=" ">
<polygon fill="white" stroke="#bfbfbf" points="1106.5,-56.5 1106.5,-75.5 1153.5,-75.5 1153.5,-56.5 1106.5,-56.5"/>
<text text-anchor="middle" x="1130" y="-63.5" font-family="Helvetica,sans-Serif" font-size="10.00">cmath</text>
</a>
</g>
</g>
<!-- Node15&#45;&gt;Node16 -->
<g id="edge16" class="edge">
<title>Node15&#45;&gt;Node16</title>
<path fill="none" stroke="midnightblue" d="M1130,-117.98C1130,-109.58 1130,-96.48 1130,-85.66"/>
<polygon fill="midnightblue" stroke="midnightblue" points="1133.5,-85.51 1130,-75.51 1126.5,-85.51 1133.5,-85.51"/>
</g>
<!-- Node17&#45;&gt;Node5 -->
<g id="edge18" class="edge">
<title>Node17&#45;&gt;Node5</title>
<path fill="none" stroke="midnightblue" d="M447.74,-123.87C374.16,-119.11 245.17,-106.56 211,-76 198.01,-64.38 193.69,-44.43 192.36,-29.69"/>
<polygon fill="midnightblue" stroke="midnightblue" points="195.85,-29.45 191.83,-19.65 188.86,-29.82 195.85,-29.45"/>
</g>
<!-- Node18 -->
<g id="node18" class="node">
<title>Node18</title>
<g id="a_node18"><a xlink:title=" ">
<polygon fill="white" stroke="#bfbfbf" points="528.5,-56.5 528.5,-75.5 583.5,-75.5 583.5,-56.5 528.5,-56.5"/>
<text text-anchor="middle" x="556" y="-63.5" font-family="Helvetica,sans-Serif" font-size="10.00">fstream</text>
</a>
</g>
</g>
<!-- Node17&#45;&gt;Node18 -->
<g id="edge19" class="edge">
<title>Node17&#45;&gt;Node18</title>
<path fill="none" stroke="midnightblue" d="M508.02,-117.98C516.59,-108.87 530.36,-94.24 540.96,-82.98"/>
<polygon fill="midnightblue" stroke="midnightblue" points="543.69,-85.19 547.99,-75.51 538.59,-80.39 543.69,-85.19"/>
</g>
<!-- Node19 -->
<g id="node19" class="node">
<title>Node19</title>
<g id="a_node19"><a xlink:title=" ">
<polygon fill="white" stroke="#bfbfbf" points="602,-56.5 602,-75.5 712,-75.5 712,-56.5 602,-56.5"/>
<text text-anchor="middle" x="657" y="-63.5" font-family="Helvetica,sans-Serif" font-size="10.00">nlohmann/json.hpp</text>
</a>
</g>
</g>
<!-- Node17&#45;&gt;Node19 -->
<g id="edge20" class="edge">
<title>Node17&#45;&gt;Node19</title>
<path fill="none" stroke="midnightblue" d="M522.49,-117.98C549.31,-107.81 594.32,-90.76 624.81,-79.2"/>
<polygon fill="midnightblue" stroke="midnightblue" points="626.44,-82.33 634.55,-75.51 623.96,-75.78 626.44,-82.33"/>
</g>
<!-- Node20 -->
<g id="node20" class="node">
<title>Node20</title>
<g id="a_node20"><a xlink:title=" ">
<polygon fill="white" stroke="#bfbfbf" points="470,-0.5 470,-19.5 530,-19.5 530,-0.5 470,-0.5"/>
<text text-anchor="middle" x="500" y="-7.5" font-family="Helvetica,sans-Serif" font-size="10.00">iostream</text>
</a>
</g>
</g>
<!-- Node17&#45;&gt;Node20 -->
<g id="edge21" class="edge">
<title>Node17&#45;&gt;Node20</title>
<path fill="none" stroke="midnightblue" d="M500,-117.82C500,-99.26 500,-55.34 500,-29.97"/>
<polygon fill="midnightblue" stroke="midnightblue" points="503.5,-29.78 500,-19.78 496.5,-29.78 503.5,-29.78"/>
</g>
<!-- Node21 -->
<g id="node21" class="node">
<title>Node21</title>
<g id="a_node21"><a xlink:title=" ">
<polygon fill="white" stroke="#bfbfbf" points="220.5,-56.5 220.5,-75.5 269.5,-75.5 269.5,-56.5 220.5,-56.5"/>
<text text-anchor="middle" x="245" y="-63.5" font-family="Helvetica,sans-Serif" font-size="10.00">cstdlib</text>
</a>
</g>
</g>
<!-- Node17&#45;&gt;Node21 -->
<g id="edge22" class="edge">
<title>Node17&#45;&gt;Node21</title>
<path fill="none" stroke="midnightblue" d="M460.78,-117.96C418.51,-108.67 349.03,-93.12 279.64,-76.1"/>
<polygon fill="midnightblue" stroke="midnightblue" points="280.4,-72.68 269.86,-73.68 278.73,-79.47 280.4,-72.68"/>
</g>
<!-- Node22 -->
<g id="node22" class="node">
<title>Node22</title>
<g id="a_node22"><a xlink:title=" ">
<polygon fill="white" stroke="#bfbfbf" points="288,-56.5 288,-75.5 344,-75.5 344,-56.5 288,-56.5"/>
<text text-anchor="middle" x="316" y="-63.5" font-family="Helvetica,sans-Serif" font-size="10.00">unistd.h</text>
</a>
</g>
</g>
<!-- Node17&#45;&gt;Node22 -->
<g id="edge23" class="edge">
<title>Node17&#45;&gt;Node22</title>
<path fill="none" stroke="midnightblue" d="M473.64,-117.98C441.66,-107.64 387.62,-90.16 351.88,-78.6"/>
<polygon fill="midnightblue" stroke="midnightblue" points="352.91,-75.26 342.31,-75.51 350.75,-81.92 352.91,-75.26"/>
</g>
<!-- Node23 -->
<g id="node23" class="node">
<title>Node23</title>
<g id="a_node23"><a xlink:href="px4__defines_8hpp.html" target="_top" xlink:title="Contains useful constant defines for use in the flight stack in a central location.">
<polygon fill="white" stroke="black" points="730,-56.5 730,-75.5 826,-75.5 826,-56.5 730,-56.5"/>
<text text-anchor="middle" x="778" y="-63.5" font-family="Helvetica,sans-Serif" font-size="10.00">px4_defines.hpp</text>
</a>
</g>
</g>
<!-- Node17&#45;&gt;Node23 -->
<g id="edge24" class="edge">
<title>Node17&#45;&gt;Node23</title>
<path fill="none" stroke="midnightblue" d="M539.83,-117.98C589.48,-107.35 674.35,-89.18 728.23,-77.65"/>
<polygon fill="midnightblue" stroke="midnightblue" points="729.2,-81.02 738.24,-75.51 727.73,-74.18 729.2,-81.02"/>
</g>
<!-- Node25 -->
<g id="node25" class="node">
<title>Node25</title>
<g id="a_node25"><a xlink:href="global__helpers_8hpp.html" target="_top" xlink:title="Inline functions for all the classes of the flighstack to use.">
<polygon fill="white" stroke="black" points="362.5,-56.5 362.5,-75.5 471.5,-75.5 471.5,-56.5 362.5,-56.5"/>
<text text-anchor="middle" x="417" y="-63.5" font-family="Helvetica,sans-Serif" font-size="10.00">global_helpers.hpp</text>
</a>
</g>
</g>
<!-- Node17&#45;&gt;Node25 -->
<g id="edge26" class="edge">
<title>Node17&#45;&gt;Node25</title>
<path fill="none" stroke="midnightblue" d="M488.11,-117.98C474.8,-108.43 453,-92.81 437.04,-81.37"/>
<polygon fill="midnightblue" stroke="midnightblue" points="439.04,-78.49 428.87,-75.51 434.96,-84.18 439.04,-78.49"/>
</g>
<!-- Node24 -->
<g id="node24" class="node">
<title>Node24</title>
<g id="a_node24"><a xlink:title=" ">
<polygon fill="white" stroke="#bfbfbf" points="747,-0.5 747,-19.5 797,-19.5 797,-0.5 747,-0.5"/>
<text text-anchor="middle" x="772" y="-7.5" font-family="Helvetica,sans-Serif" font-size="10.00">cstdint</text>
</a>
</g>
</g>
<!-- Node23&#45;&gt;Node24 -->
<g id="edge25" class="edge">
<title>Node23&#45;&gt;Node24</title>
<path fill="none" stroke="midnightblue" d="M777.01,-56.08C776.21,-48.93 775.07,-38.64 774.08,-29.69"/>
<polygon fill="midnightblue" stroke="midnightblue" points="777.56,-29.3 772.97,-19.75 770.6,-30.08 777.56,-29.3"/>
</g>
<!-- Node25&#45;&gt;Node5 -->
<g id="edge28" class="edge">
<title>Node25&#45;&gt;Node5</title>
<path fill="none" stroke="midnightblue" d="M381.35,-56.44C338.05,-46.05 265.67,-28.68 224.06,-18.7"/>
<polygon fill="midnightblue" stroke="midnightblue" points="224.73,-15.25 214.19,-16.32 223.09,-22.06 224.73,-15.25"/>
</g>
<!-- Node25&#45;&gt;Node11 -->
<g id="edge31" class="edge">
<title>Node25&#45;&gt;Node11</title>
<path fill="none" stroke="midnightblue" d="M471.6,-59.9C545.02,-52.78 679.84,-38.75 805.11,-20.03"/>
<polygon fill="midnightblue" stroke="midnightblue" points="805.9,-23.46 815.27,-18.5 804.86,-16.53 805.9,-23.46"/>
</g>
<!-- Node25&#45;&gt;Node20 -->
<g id="edge27" class="edge">
<title>Node25&#45;&gt;Node20</title>
<path fill="none" stroke="midnightblue" d="M430.34,-56.32C443.16,-47.98 462.78,-35.21 477.94,-25.35"/>
<polygon fill="midnightblue" stroke="midnightblue" points="480.22,-28.04 486.7,-19.65 476.41,-22.17 480.22,-28.04"/>
</g>
<!-- Node26 -->
<g id="node26" class="node">
<title>Node26</title>
<g id="a_node26"><a xlink:title=" ">
<polygon fill="white" stroke="#bfbfbf" points="308,-0.5 308,-19.5 364,-19.5 364,-0.5 308,-0.5"/>
<text text-anchor="middle" x="336" y="-7.5" font-family="Helvetica,sans-Serif" font-size="10.00">sstream</text>
</a>
</g>
</g>
<!-- Node25&#45;&gt;Node26 -->
<g id="edge29" class="edge">
<title>Node25&#45;&gt;Node26</title>
<path fill="none" stroke="midnightblue" d="M403.99,-56.32C391.47,-47.98 372.32,-35.21 357.53,-25.35"/>
<polygon fill="midnightblue" stroke="midnightblue" points="359.24,-22.29 348.98,-19.65 355.36,-28.11 359.24,-22.29"/>
</g>
<!-- Node27 -->
<g id="node27" class="node">
<title>Node27</title>
<g id="a_node27"><a xlink:title=" ">
<polygon fill="white" stroke="#bfbfbf" points="382.5,-0.5 382.5,-19.5 451.5,-19.5 451.5,-0.5 382.5,-0.5"/>
<text text-anchor="middle" x="417" y="-7.5" font-family="Helvetica,sans-Serif" font-size="10.00">type_traits</text>
</a>
</g>
</g>
<!-- Node25&#45;&gt;Node27 -->
<g id="edge30" class="edge">
<title>Node25&#45;&gt;Node27</title>
<path fill="none" stroke="midnightblue" d="M417,-56.08C417,-49.01 417,-38.86 417,-29.99"/>
<polygon fill="midnightblue" stroke="midnightblue" points="420.5,-29.75 417,-19.75 413.5,-29.75 420.5,-29.75"/>
</g>
</g>
</svg>
