<?xml version="1.0" encoding="UTF-8" standalone="no"?>
<!DOCTYPE svg PUBLIC "-//W3C//DTD SVG 1.1//EN"
 "http://www.w3.org/Graphics/SVG/1.1/DTD/svg11.dtd">
<!-- Generated by graphviz version 2.43.0 (0)
 -->
<!-- Title: ACSL&#45;flightstack&#45;winged/src/acsl_flight/include/control/platforms/rostestdrone/rostestdrone.hpp Pages: 1 -->
<svg width="404pt" height="439pt"
 viewBox="0.00 0.00 404.00 439.00" xmlns="http://www.w3.org/2000/svg" xmlns:xlink="http://www.w3.org/1999/xlink">
<g id="graph0" class="graph" transform="scale(1 1) rotate(0) translate(4 435)">
<title>ACSL&#45;flightstack&#45;winged/src/acsl_flight/include/control/platforms/rostestdrone/rostestdrone.hpp</title>
<polygon fill="white" stroke="transparent" points="-4,4 -4,-435 400,-435 400,4 -4,4"/>
<!-- Node1 -->
<g id="node1" class="node">
<title>Node1</title>
<g id="a_node1"><a xlink:title="Vehicle Information of the rostestdrone with the T&#45;Motor.">
<polygon fill="#bfbfbf" stroke="black" points="48,-378.5 48,-430.5 216,-430.5 216,-378.5 48,-378.5"/>
<text text-anchor="start" x="56" y="-418.5" font-family="Helvetica,sans-Serif" font-size="10.00">ACSL&#45;flightstack&#45;winged</text>
<text text-anchor="start" x="56" y="-407.5" font-family="Helvetica,sans-Serif" font-size="10.00">/src/acsl_flight/include</text>
<text text-anchor="start" x="56" y="-396.5" font-family="Helvetica,sans-Serif" font-size="10.00">/control/platforms/rostestdrone</text>
<text text-anchor="middle" x="132" y="-385.5" font-family="Helvetica,sans-Serif" font-size="10.00">/rostestdrone.hpp</text>
</a>
</g>
</g>
<!-- Node2 -->
<g id="node2" class="node">
<title>Node2</title>
<g id="a_node2"><a xlink:href="PID__TD_8hpp.html" target="_top" xlink:title="PID for the ros test drone.">
<polygon fill="white" stroke="black" points="0,-89.5 0,-141.5 190,-141.5 190,-89.5 0,-89.5"/>
<text text-anchor="start" x="8" y="-129.5" font-family="Helvetica,sans-Serif" font-size="10.00">ACSL&#45;flightstack&#45;winged</text>
<text text-anchor="start" x="8" y="-118.5" font-family="Helvetica,sans-Serif" font-size="10.00">/src/acsl_flight/include</text>
<text text-anchor="start" x="8" y="-107.5" font-family="Helvetica,sans-Serif" font-size="10.00">/control/platforms/rostestdrone</text>
<text text-anchor="middle" x="95" y="-96.5" font-family="Helvetica,sans-Serif" font-size="10.00">/control_algorithms/PID/PID_TD.hpp</text>
</a>
</g>
</g>
<!-- Node1&#45;&gt;Node2 -->
<g id="edge1" class="edge">
<title>Node1&#45;&gt;Node2</title>
<path fill="none" stroke="midnightblue" d="M107.25,-369.69C102.21,-361.07 97.65,-351.53 95,-342 75.47,-271.65 84.39,-184.12 90.68,-141.78"/>
<polygon fill="midnightblue" stroke="midnightblue" points="104.36,-371.67 112.61,-378.31 110.3,-367.97 104.36,-371.67"/>
</g>
<!-- Node4 -->
<g id="node4" class="node">
<title>Node4</title>
<g id="a_node4"><a xlink:href="PID__TD__members_8hpp.html" target="_top" xlink:title="PID controller class members.">
<polygon fill="white" stroke="black" points="103.5,-278.5 103.5,-341.5 272.5,-341.5 272.5,-278.5 103.5,-278.5"/>
<text text-anchor="start" x="111.5" y="-329.5" font-family="Helvetica,sans-Serif" font-size="10.00">ACSL&#45;flightstack&#45;winged</text>
<text text-anchor="start" x="111.5" y="-318.5" font-family="Helvetica,sans-Serif" font-size="10.00">/src/acsl_flight/include</text>
<text text-anchor="start" x="111.5" y="-307.5" font-family="Helvetica,sans-Serif" font-size="10.00">/control/platforms/rostestdrone</text>
<text text-anchor="start" x="111.5" y="-296.5" font-family="Helvetica,sans-Serif" font-size="10.00">/control_algorithms/PID/PID_TD</text>
<text text-anchor="middle" x="188" y="-285.5" font-family="Helvetica,sans-Serif" font-size="10.00">_members.hpp</text>
</a>
</g>
</g>
<!-- Node1&#45;&gt;Node4 -->
<g id="edge3" class="edge">
<title>Node1&#45;&gt;Node4</title>
<path fill="none" stroke="midnightblue" d="M152.49,-369.66C158.06,-360.45 164.07,-350.53 169.53,-341.51"/>
<polygon fill="midnightblue" stroke="midnightblue" points="149.49,-367.86 147.3,-378.22 155.48,-371.48 149.49,-367.86"/>
</g>
<!-- Node3 -->
<g id="node3" class="node">
<title>Node3</title>
<g id="a_node3"><a xlink:href="PID__TD_8cpp.html" target="_top" xlink:title=" ">
<polygon fill="white" stroke="black" points="11,-0.5 11,-52.5 179,-52.5 179,-0.5 11,-0.5"/>
<text text-anchor="start" x="19" y="-40.5" font-family="Helvetica,sans-Serif" font-size="10.00">ACSL&#45;flightstack&#45;winged</text>
<text text-anchor="start" x="19" y="-29.5" font-family="Helvetica,sans-Serif" font-size="10.00">/src/acsl_flight/src/control</text>
<text text-anchor="start" x="19" y="-18.5" font-family="Helvetica,sans-Serif" font-size="10.00">/platforms/rostestdrone/control</text>
<text text-anchor="middle" x="95" y="-7.5" font-family="Helvetica,sans-Serif" font-size="10.00">_algorithms/PID/PID_TD.cpp</text>
</a>
</g>
</g>
<!-- Node2&#45;&gt;Node3 -->
<g id="edge2" class="edge">
<title>Node2&#45;&gt;Node3</title>
<path fill="none" stroke="midnightblue" d="M95,-79.19C95,-70.28 95,-60.9 95,-52.61"/>
<polygon fill="midnightblue" stroke="midnightblue" points="91.5,-79.34 95,-89.34 98.5,-79.34 91.5,-79.34"/>
</g>
<!-- Node4&#45;&gt;Node2 -->
<g id="edge4" class="edge">
<title>Node4&#45;&gt;Node2</title>
<path fill="none" stroke="midnightblue" d="M152.16,-270.55C145.11,-261.63 138.27,-251.86 133,-242 115.62,-209.47 105.02,-167.86 99.58,-141.68"/>
<polygon fill="midnightblue" stroke="midnightblue" points="149.62,-272.96 158.67,-278.47 155.03,-268.52 149.62,-272.96"/>
</g>
<!-- Node5 -->
<g id="node5" class="node">
<title>Node5</title>
<g id="a_node5"><a xlink:href="PID__TD__logger_8hpp.html" target="_top" xlink:title="Logging for the PID controller.">
<polygon fill="white" stroke="black" points="141.5,-178.5 141.5,-241.5 310.5,-241.5 310.5,-178.5 141.5,-178.5"/>
<text text-anchor="start" x="149.5" y="-229.5" font-family="Helvetica,sans-Serif" font-size="10.00">ACSL&#45;flightstack&#45;winged</text>
<text text-anchor="start" x="149.5" y="-218.5" font-family="Helvetica,sans-Serif" font-size="10.00">/src/acsl_flight/include</text>
<text text-anchor="start" x="149.5" y="-207.5" font-family="Helvetica,sans-Serif" font-size="10.00">/control/platforms/rostestdrone</text>
<text text-anchor="start" x="149.5" y="-196.5" font-family="Helvetica,sans-Serif" font-size="10.00">/control_algorithms/PID/PID_TD</text>
<text text-anchor="middle" x="226" y="-185.5" font-family="Helvetica,sans-Serif" font-size="10.00">_logger.hpp</text>
</a>
</g>
</g>
<!-- Node4&#45;&gt;Node5 -->
<g id="edge5" class="edge">
<title>Node4&#45;&gt;Node5</title>
<path fill="none" stroke="midnightblue" d="M203.64,-268.68C207.14,-259.64 210.8,-250.2 214.12,-241.63"/>
<polygon fill="midnightblue" stroke="midnightblue" points="200.27,-267.67 199.92,-278.26 206.8,-270.2 200.27,-267.67"/>
</g>
<!-- Node5&#45;&gt;Node2 -->
<g id="edge6" class="edge">
<title>Node5&#45;&gt;Node2</title>
<path fill="none" stroke="midnightblue" d="M174.3,-172.49C159.72,-162.2 144.2,-151.24 130.78,-141.77"/>
<polygon fill="midnightblue" stroke="midnightblue" points="172.55,-175.55 182.74,-178.46 176.59,-169.83 172.55,-175.55"/>
</g>
<!-- Node6 -->
<g id="node6" class="node">
<title>Node6</title>
<g id="a_node6"><a xlink:href="PID__TD__logger_8cpp.html" target="_top" xlink:title=" ">
<polygon fill="white" stroke="black" points="208,-89.5 208,-141.5 396,-141.5 396,-89.5 208,-89.5"/>
<text text-anchor="start" x="216" y="-129.5" font-family="Helvetica,sans-Serif" font-size="10.00">ACSL&#45;flightstack&#45;winged</text>
<text text-anchor="start" x="216" y="-118.5" font-family="Helvetica,sans-Serif" font-size="10.00">/src/acsl_flight/src/control</text>
<text text-anchor="start" x="216" y="-107.5" font-family="Helvetica,sans-Serif" font-size="10.00">/platforms/rostestdrone/control</text>
<text text-anchor="middle" x="302" y="-96.5" font-family="Helvetica,sans-Serif" font-size="10.00">_algorithms/PID/PID_TD_logger.cpp</text>
</a>
</g>
</g>
<!-- Node5&#45;&gt;Node6 -->
<g id="edge7" class="edge">
<title>Node5&#45;&gt;Node6</title>
<path fill="none" stroke="midnightblue" d="M257.66,-170.46C265.62,-160.77 273.97,-150.62 281.24,-141.77"/>
<polygon fill="midnightblue" stroke="midnightblue" points="254.74,-168.51 251.1,-178.46 260.15,-172.95 254.74,-168.51"/>
</g>
</g>
</svg>
