<?xml version="1.0" encoding="UTF-8" standalone="no"?>
<!DOCTYPE svg PUBLIC "-//W3C//DTD SVG 1.1//EN"
 "http://www.w3.org/Graphics/SVG/1.1/DTD/svg11.dtd">
<!-- Generated by graphviz version 2.43.0 (0)
 -->
<!-- Title: _qrbp_::_pid_::controller_internal_members_aero Pages: 1 -->
<svg width="423pt" height="106pt"
 viewBox="0.00 0.00 422.50 106.00" xmlns="http://www.w3.org/2000/svg" xmlns:xlink="http://www.w3.org/1999/xlink">
<g id="graph0" class="graph" transform="scale(1 1) rotate(0) translate(4 102)">
<title>_qrbp_::_pid_::controller_internal_members_aero</title>
<polygon fill="white" stroke="transparent" points="-4,4 -4,-102 418.5,-102 418.5,4 -4,4"/>
<!-- Node1 -->
<g id="node1" class="node">
<title>Node1</title>
<g id="a_node1"><a xlink:title="Structure for all the aerodynamic members of the controller.">
<polygon fill="#bfbfbf" stroke="black" points="109,-0.5 109,-30.5 247,-30.5 247,-0.5 109,-0.5"/>
<text text-anchor="start" x="117" y="-18.5" font-family="Helvetica,sans-Serif" font-size="10.00">_qrbp_::_pid_::controller</text>
<text text-anchor="middle" x="178" y="-7.5" font-family="Helvetica,sans-Serif" font-size="10.00">_internal_members_aero</text>
</a>
</g>
</g>
<!-- Node2 -->
<g id="node2" class="node">
<title>Node2</title>
<g id="a_node2"><a xlink:href="struct__qrbp___1_1AeroStates.html" target="_top" xlink:title="Angles for the wings and stabilizers.">
<polygon fill="white" stroke="black" points="0,-78.5 0,-97.5 108,-97.5 108,-78.5 0,-78.5"/>
<text text-anchor="middle" x="54" y="-85.5" font-family="Helvetica,sans-Serif" font-size="10.00">_qrbp_::AeroStates</text>
</a>
</g>
</g>
<!-- Node2&#45;&gt;Node1 -->
<g id="edge1" class="edge">
<title>Node2&#45;&gt;Node1</title>
<path fill="none" stroke="#9a32cd" stroke-dasharray="5,2" d="M78.09,-73.3C99.74,-60.99 131.39,-43 153.24,-30.58"/>
<polygon fill="#9a32cd" stroke="#9a32cd" points="76.17,-70.37 69.2,-78.36 79.63,-76.46 76.17,-70.37"/>
<text text-anchor="middle" x="137" y="-52" font-family="Helvetica,sans-Serif" font-size="10.00"> states</text>
</g>
<!-- Node3 -->
<g id="node3" class="node">
<title>Node3</title>
<g id="a_node3"><a xlink:href="struct__qrbp___1_1AeroCoeff.html" target="_top" xlink:title="Aerodynamic coefficients for the QRBP.">
<polygon fill="white" stroke="black" points="126.5,-78.5 126.5,-97.5 229.5,-97.5 229.5,-78.5 126.5,-78.5"/>
<text text-anchor="middle" x="178" y="-85.5" font-family="Helvetica,sans-Serif" font-size="10.00">_qrbp_::AeroCoeff</text>
</a>
</g>
</g>
<!-- Node3&#45;&gt;Node1 -->
<g id="edge2" class="edge">
<title>Node3&#45;&gt;Node1</title>
<path fill="none" stroke="#9a32cd" stroke-dasharray="5,2" d="M178,-68.24C178,-56.41 178,-41.38 178,-30.58"/>
<polygon fill="#9a32cd" stroke="#9a32cd" points="174.5,-68.36 178,-78.36 181.5,-68.36 174.5,-68.36"/>
<text text-anchor="middle" x="192" y="-52" font-family="Helvetica,sans-Serif" font-size="10.00"> coeff</text>
</g>
<!-- Node4 -->
<g id="node4" class="node">
<title>Node4</title>
<g id="a_node4"><a xlink:href="struct__qrbp___1_1AeroDynamicMembers.html" target="_top" xlink:title="Structre for all the aerodynamic members of the controller.">
<polygon fill="white" stroke="black" points="247.5,-78.5 247.5,-97.5 414.5,-97.5 414.5,-78.5 247.5,-78.5"/>
<text text-anchor="middle" x="331" y="-85.5" font-family="Helvetica,sans-Serif" font-size="10.00">_qrbp_::AeroDynamicMembers</text>
</a>
</g>
</g>
<!-- Node4&#45;&gt;Node1 -->
<g id="edge3" class="edge">
<title>Node4&#45;&gt;Node1</title>
<path fill="none" stroke="#9a32cd" stroke-dasharray="5,2" d="M303.35,-74.26C276.57,-61.92 236.07,-43.26 208.4,-30.51"/>
<polygon fill="#9a32cd" stroke="#9a32cd" points="302,-77.49 312.54,-78.5 304.93,-71.13 302,-77.49"/>
<text text-anchor="middle" x="279" y="-52" font-family="Helvetica,sans-Serif" font-size="10.00"> dyn</text>
</g>
</g>
</svg>
