<?xml version="1.0" encoding="UTF-8" standalone="no"?>
<!DOCTYPE svg PUBLIC "-//W3C//DTD SVG 1.1//EN"
 "http://www.w3.org/Graphics/SVG/1.1/DTD/svg11.dtd">
<!-- Generated by graphviz version 2.43.0 (0)
 -->
<!-- Title: _qrbp_::_pid_omega_::controller_internal_members Pages: 1 -->
<svg width="423pt" height="206pt"
 viewBox="0.00 0.00 422.50 206.00" xmlns="http://www.w3.org/2000/svg" xmlns:xlink="http://www.w3.org/1999/xlink">
<g id="graph0" class="graph" transform="scale(1 1) rotate(0) translate(4 202)">
<title>_qrbp_::_pid_omega_::controller_internal_members</title>
<polygon fill="white" stroke="transparent" points="-4,4 -4,-202 418.5,-202 418.5,4 -4,4"/>
<!-- Node1 -->
<g id="node1" class="node">
<title>Node1</title>
<g id="a_node1"><a xlink:title="Structure for the internal members of the controller.">
<polygon fill="#bfbfbf" stroke="black" points="119.5,-0.5 119.5,-41.5 236.5,-41.5 236.5,-0.5 119.5,-0.5"/>
<text text-anchor="start" x="127.5" y="-29.5" font-family="Helvetica,sans-Serif" font-size="10.00">_qrbp_::_pid_omega</text>
<text text-anchor="start" x="127.5" y="-18.5" font-family="Helvetica,sans-Serif" font-size="10.00">_::controller_internal</text>
<text text-anchor="middle" x="178" y="-7.5" font-family="Helvetica,sans-Serif" font-size="10.00">_members</text>
</a>
</g>
</g>
<!-- Node2 -->
<g id="node2" class="node">
<title>Node2</title>
<g id="a_node2"><a xlink:href="struct__qrbp___1_1__pid__omega___1_1controller__internal__members__aero.html" target="_top" xlink:title="Structure for all the aerodynamic members of the controller.">
<polygon fill="white" stroke="black" points="119.5,-89.5 119.5,-130.5 236.5,-130.5 236.5,-89.5 119.5,-89.5"/>
<text text-anchor="start" x="127.5" y="-118.5" font-family="Helvetica,sans-Serif" font-size="10.00">_qrbp_::_pid_omega</text>
<text text-anchor="start" x="127.5" y="-107.5" font-family="Helvetica,sans-Serif" font-size="10.00">_::controller_internal</text>
<text text-anchor="middle" x="178" y="-96.5" font-family="Helvetica,sans-Serif" font-size="10.00">_members_aero</text>
</a>
</g>
</g>
<!-- Node2&#45;&gt;Node1 -->
<g id="edge1" class="edge">
<title>Node2&#45;&gt;Node1</title>
<path fill="none" stroke="#9a32cd" stroke-dasharray="5,2" d="M178,-78.94C178,-66.6 178,-52.66 178,-41.66"/>
<polygon fill="#9a32cd" stroke="#9a32cd" points="174.5,-79.26 178,-89.26 181.5,-79.26 174.5,-79.26"/>
<text text-anchor="middle" x="190.5" y="-63" font-family="Helvetica,sans-Serif" font-size="10.00"> aero</text>
</g>
<!-- Node3 -->
<g id="node3" class="node">
<title>Node3</title>
<g id="a_node3"><a xlink:href="struct__qrbp___1_1AeroStates.html" target="_top" xlink:title="Angles for the wings and stabilizers.">
<polygon fill="white" stroke="black" points="0,-178.5 0,-197.5 108,-197.5 108,-178.5 0,-178.5"/>
<text text-anchor="middle" x="54" y="-185.5" font-family="Helvetica,sans-Serif" font-size="10.00">_qrbp_::AeroStates</text>
</a>
</g>
</g>
<!-- Node3&#45;&gt;Node2 -->
<g id="edge2" class="edge">
<title>Node3&#45;&gt;Node2</title>
<path fill="none" stroke="#9a32cd" stroke-dasharray="5,2" d="M76.76,-173.05C96.23,-161.12 124.47,-143.81 146.18,-130.5"/>
<polygon fill="#9a32cd" stroke="#9a32cd" points="74.92,-170.07 68.22,-178.28 78.58,-176.04 74.92,-170.07"/>
<text text-anchor="middle" x="133" y="-152" font-family="Helvetica,sans-Serif" font-size="10.00"> states</text>
</g>
<!-- Node4 -->
<g id="node4" class="node">
<title>Node4</title>
<g id="a_node4"><a xlink:href="struct__qrbp___1_1AeroCoeff.html" target="_top" xlink:title="Aerodynamic coefficients for the QRBP.">
<polygon fill="white" stroke="black" points="126.5,-178.5 126.5,-197.5 229.5,-197.5 229.5,-178.5 126.5,-178.5"/>
<text text-anchor="middle" x="178" y="-185.5" font-family="Helvetica,sans-Serif" font-size="10.00">_qrbp_::AeroCoeff</text>
</a>
</g>
</g>
<!-- Node4&#45;&gt;Node2 -->
<g id="edge3" class="edge">
<title>Node4&#45;&gt;Node2</title>
<path fill="none" stroke="#9a32cd" stroke-dasharray="5,2" d="M178,-168.14C178,-156.73 178,-142.21 178,-130.66"/>
<polygon fill="#9a32cd" stroke="#9a32cd" points="174.5,-168.28 178,-178.28 181.5,-168.28 174.5,-168.28"/>
<text text-anchor="middle" x="192" y="-152" font-family="Helvetica,sans-Serif" font-size="10.00"> coeff</text>
</g>
<!-- Node5 -->
<g id="node5" class="node">
<title>Node5</title>
<g id="a_node5"><a xlink:href="struct__qrbp___1_1AeroDynamicMembers.html" target="_top" xlink:title="Structre for all the aerodynamic members of the controller.">
<polygon fill="white" stroke="black" points="247.5,-178.5 247.5,-197.5 414.5,-197.5 414.5,-178.5 247.5,-178.5"/>
<text text-anchor="middle" x="331" y="-185.5" font-family="Helvetica,sans-Serif" font-size="10.00">_qrbp_::AeroDynamicMembers</text>
</a>
</g>
</g>
<!-- Node5&#45;&gt;Node2 -->
<g id="edge4" class="edge">
<title>Node5&#45;&gt;Node2</title>
<path fill="none" stroke="#9a32cd" stroke-dasharray="5,2" d="M304.54,-173.86C280.53,-161.93 244.8,-144.18 217.43,-130.59"/>
<polygon fill="#9a32cd" stroke="#9a32cd" points="303.23,-177.12 313.75,-178.43 306.35,-170.85 303.23,-177.12"/>
<text text-anchor="middle" x="283" y="-152" font-family="Helvetica,sans-Serif" font-size="10.00"> dyn</text>
</g>
</g>
</svg>
