<?xml version="1.0" encoding="UTF-8" standalone="no"?>
<!DOCTYPE svg PUBLIC "-//W3C//DTD SVG 1.1//EN"
 "http://www.w3.org/Graphics/SVG/1.1/DTD/svg11.dtd">
<!-- Generated by graphviz version 2.43.0 (0)
 -->
<!-- Title: _qrbp_::_mrac_pid_::controller_internal_members_aero Pages: 1 -->
<svg width="423pt" height="117pt"
 viewBox="0.00 0.00 422.50 117.00" xmlns="http://www.w3.org/2000/svg" xmlns:xlink="http://www.w3.org/1999/xlink">
<g id="graph0" class="graph" transform="scale(1 1) rotate(0) translate(4 113)">
<title>_qrbp_::_mrac_pid_::controller_internal_members_aero</title>
<polygon fill="white" stroke="transparent" points="-4,4 -4,-113 418.5,-113 418.5,4 -4,4"/>
<!-- Node1 -->
<g id="node1" class="node">
<title>Node1</title>
<g id="a_node1"><a xlink:title="Structure for all the aerodynamic members of the controller.">
<polygon fill="#bfbfbf" stroke="black" points="122,-0.5 122,-41.5 234,-41.5 234,-0.5 122,-0.5"/>
<text text-anchor="start" x="130" y="-29.5" font-family="Helvetica,sans-Serif" font-size="10.00">_qrbp_::_mrac_pid_</text>
<text text-anchor="start" x="130" y="-18.5" font-family="Helvetica,sans-Serif" font-size="10.00">::controller_internal</text>
<text text-anchor="middle" x="178" y="-7.5" font-family="Helvetica,sans-Serif" font-size="10.00">_members_aero</text>
</a>
</g>
</g>
<!-- Node2 -->
<g id="node2" class="node">
<title>Node2</title>
<g id="a_node2"><a xlink:href="struct__qrbp___1_1AeroStates.html" target="_top" xlink:title="Angles for the wings and stabilizers.">
<polygon fill="white" stroke="black" points="0,-89.5 0,-108.5 108,-108.5 108,-89.5 0,-89.5"/>
<text text-anchor="middle" x="54" y="-96.5" font-family="Helvetica,sans-Serif" font-size="10.00">_qrbp_::AeroStates</text>
</a>
</g>
</g>
<!-- Node2&#45;&gt;Node1 -->
<g id="edge1" class="edge">
<title>Node2&#45;&gt;Node1</title>
<path fill="none" stroke="#9a32cd" stroke-dasharray="5,2" d="M76.76,-84.05C96.23,-72.12 124.47,-54.81 146.18,-41.5"/>
<polygon fill="#9a32cd" stroke="#9a32cd" points="74.92,-81.07 68.22,-89.28 78.58,-87.04 74.92,-81.07"/>
<text text-anchor="middle" x="133" y="-63" font-family="Helvetica,sans-Serif" font-size="10.00"> states</text>
</g>
<!-- Node3 -->
<g id="node3" class="node">
<title>Node3</title>
<g id="a_node3"><a xlink:href="struct__qrbp___1_1AeroCoeff.html" target="_top" xlink:title="Aerodynamic coefficients for the QRBP.">
<polygon fill="white" stroke="black" points="126.5,-89.5 126.5,-108.5 229.5,-108.5 229.5,-89.5 126.5,-89.5"/>
<text text-anchor="middle" x="178" y="-96.5" font-family="Helvetica,sans-Serif" font-size="10.00">_qrbp_::AeroCoeff</text>
</a>
</g>
</g>
<!-- Node3&#45;&gt;Node1 -->
<g id="edge2" class="edge">
<title>Node3&#45;&gt;Node1</title>
<path fill="none" stroke="#9a32cd" stroke-dasharray="5,2" d="M178,-79.14C178,-67.73 178,-53.21 178,-41.66"/>
<polygon fill="#9a32cd" stroke="#9a32cd" points="174.5,-79.28 178,-89.28 181.5,-79.28 174.5,-79.28"/>
<text text-anchor="middle" x="192" y="-63" font-family="Helvetica,sans-Serif" font-size="10.00"> coeff</text>
</g>
<!-- Node4 -->
<g id="node4" class="node">
<title>Node4</title>
<g id="a_node4"><a xlink:href="struct__qrbp___1_1AeroDynamicMembers.html" target="_top" xlink:title="Structre for all the aerodynamic members of the controller.">
<polygon fill="white" stroke="black" points="247.5,-89.5 247.5,-108.5 414.5,-108.5 414.5,-89.5 247.5,-89.5"/>
<text text-anchor="middle" x="331" y="-96.5" font-family="Helvetica,sans-Serif" font-size="10.00">_qrbp_::AeroDynamicMembers</text>
</a>
</g>
</g>
<!-- Node4&#45;&gt;Node1 -->
<g id="edge3" class="edge">
<title>Node4&#45;&gt;Node1</title>
<path fill="none" stroke="#9a32cd" stroke-dasharray="5,2" d="M304.54,-84.86C280.53,-72.93 244.8,-55.18 217.43,-41.59"/>
<polygon fill="#9a32cd" stroke="#9a32cd" points="303.23,-88.12 313.75,-89.43 306.35,-81.85 303.23,-88.12"/>
<text text-anchor="middle" x="283" y="-63" font-family="Helvetica,sans-Serif" font-size="10.00"> dyn</text>
</g>
</g>
</svg>
