<?xml version="1.0" encoding="UTF-8" standalone="no"?>
<!DOCTYPE svg PUBLIC "-//W3C//DTD SVG 1.1//EN"
 "http://www.w3.org/Graphics/SVG/1.1/DTD/svg11.dtd">
<!-- Generated by graphviz version 2.43.0 (0)
 -->
<!-- Title: ACSL&#45;flightstack&#45;winged/src/acsl_flight/src/mocap/udp_driver/udp_driver.cpp Pages: 1 -->
<svg width="794pt" height="274pt"
 viewBox="0.00 0.00 793.50 274.00" xmlns="http://www.w3.org/2000/svg" xmlns:xlink="http://www.w3.org/1999/xlink">
<g id="graph0" class="graph" transform="scale(1 1) rotate(0) translate(4 270)">
<title>ACSL&#45;flightstack&#45;winged/src/acsl_flight/src/mocap/udp_driver/udp_driver.cpp</title>
<polygon fill="white" stroke="transparent" points="-4,4 -4,-270 789.5,-270 789.5,4 -4,4"/>
<!-- Node1 -->
<g id="node1" class="node">
<title>Node1</title>
<g id="a_node1"><a xlink:title=" ">
<polygon fill="#bfbfbf" stroke="black" points="381.5,-224.5 381.5,-265.5 527.5,-265.5 527.5,-224.5 381.5,-224.5"/>
<text text-anchor="start" x="389.5" y="-253.5" font-family="Helvetica,sans-Serif" font-size="10.00">ACSL&#45;flightstack&#45;winged</text>
<text text-anchor="start" x="389.5" y="-242.5" font-family="Helvetica,sans-Serif" font-size="10.00">/src/acsl_flight/src/mocap</text>
<text text-anchor="middle" x="454.5" y="-231.5" font-family="Helvetica,sans-Serif" font-size="10.00">/udp_driver/udp_driver.cpp</text>
</a>
</g>
</g>
<!-- Node2 -->
<g id="node2" class="node">
<title>Node2</title>
<g id="a_node2"><a xlink:href="udp__driver_8hpp.html" target="_top" xlink:title="Class decleration for UDP driver.">
<polygon fill="white" stroke="black" points="410,-168.5 410,-187.5 499,-187.5 499,-168.5 410,-168.5"/>
<text text-anchor="middle" x="454.5" y="-175.5" font-family="Helvetica,sans-Serif" font-size="10.00">udp_driver.hpp</text>
</a>
</g>
</g>
<!-- Node1&#45;&gt;Node2 -->
<g id="edge1" class="edge">
<title>Node1&#45;&gt;Node2</title>
<path fill="none" stroke="midnightblue" d="M454.5,-224.5C454.5,-216.07 454.5,-206.24 454.5,-197.87"/>
<polygon fill="midnightblue" stroke="midnightblue" points="458,-197.65 454.5,-187.65 451,-197.65 458,-197.65"/>
</g>
<!-- Node3 -->
<g id="node3" class="node">
<title>Node3</title>
<g id="a_node3"><a xlink:title=" ">
<polygon fill="white" stroke="#bfbfbf" points="405.5,-0.5 405.5,-19.5 465.5,-19.5 465.5,-0.5 405.5,-0.5"/>
<text text-anchor="middle" x="435.5" y="-7.5" font-family="Helvetica,sans-Serif" font-size="10.00">iostream</text>
</a>
</g>
</g>
<!-- Node2&#45;&gt;Node3 -->
<g id="edge2" class="edge">
<title>Node2&#45;&gt;Node3</title>
<path fill="none" stroke="midnightblue" d="M457.67,-168.25C464.52,-148 479.1,-96.52 466.5,-56 463.27,-45.62 456.72,-35.52 450.48,-27.53"/>
<polygon fill="midnightblue" stroke="midnightblue" points="453.08,-25.19 443.98,-19.77 447.71,-29.68 453.08,-25.19"/>
</g>
<!-- Node4 -->
<g id="node4" class="node">
<title>Node4</title>
<g id="a_node4"><a xlink:title=" ">
<polygon fill="white" stroke="#bfbfbf" points="65.5,-0.5 65.5,-19.5 123.5,-19.5 123.5,-0.5 65.5,-0.5"/>
<text text-anchor="middle" x="94.5" y="-7.5" font-family="Helvetica,sans-Serif" font-size="10.00">memory</text>
</a>
</g>
</g>
<!-- Node2&#45;&gt;Node4 -->
<g id="edge3" class="edge">
<title>Node2&#45;&gt;Node4</title>
<path fill="none" stroke="midnightblue" d="M409.87,-170.62C346.54,-159.84 229.15,-133.33 146.5,-76 128.58,-63.57 113.71,-43.2 104.53,-28.58"/>
<polygon fill="midnightblue" stroke="midnightblue" points="107.49,-26.71 99.34,-19.94 101.49,-30.31 107.49,-26.71"/>
</g>
<!-- Node5 -->
<g id="node5" class="node">
<title>Node5</title>
<g id="a_node5"><a xlink:title=" ">
<polygon fill="white" stroke="#bfbfbf" points="741.5,-0.5 741.5,-19.5 785.5,-19.5 785.5,-0.5 741.5,-0.5"/>
<text text-anchor="middle" x="763.5" y="-7.5" font-family="Helvetica,sans-Serif" font-size="10.00">string</text>
</a>
</g>
</g>
<!-- Node2&#45;&gt;Node5 -->
<g id="edge4" class="edge">
<title>Node2&#45;&gt;Node5</title>
<path fill="none" stroke="midnightblue" d="M485.12,-168.44C533.08,-154.15 627.64,-122.35 697.5,-76 717.92,-62.45 737.41,-42 749.85,-27.67"/>
<polygon fill="midnightblue" stroke="midnightblue" points="752.84,-29.55 756.63,-19.65 747.5,-25.03 752.84,-29.55"/>
</g>
<!-- Node6 -->
<g id="node6" class="node">
<title>Node6</title>
<g id="a_node6"><a xlink:href="udp__socket_8hpp.html" target="_top" xlink:title="Class declaration for UDP socket creation using IoContext.">
<polygon fill="white" stroke="black" points="355.5,-112.5 355.5,-131.5 447.5,-131.5 447.5,-112.5 355.5,-112.5"/>
<text text-anchor="middle" x="401.5" y="-119.5" font-family="Helvetica,sans-Serif" font-size="10.00">udp_socket.hpp</text>
</a>
</g>
</g>
<!-- Node2&#45;&gt;Node6 -->
<g id="edge5" class="edge">
<title>Node2&#45;&gt;Node6</title>
<path fill="none" stroke="midnightblue" d="M445.75,-168.08C438.03,-160.22 426.6,-148.57 417.28,-139.08"/>
<polygon fill="midnightblue" stroke="midnightblue" points="419.59,-136.44 410.09,-131.75 414.6,-141.34 419.59,-136.44"/>
</g>
<!-- Node6&#45;&gt;Node3 -->
<g id="edge9" class="edge">
<title>Node6&#45;&gt;Node3</title>
<path fill="none" stroke="midnightblue" d="M416.45,-112.47C428.43,-104.7 444.37,-92 451.5,-76 458.28,-60.77 452.44,-42.2 445.99,-28.82"/>
<polygon fill="midnightblue" stroke="midnightblue" points="448.94,-26.91 441.14,-19.73 442.77,-30.2 448.94,-26.91"/>
</g>
<!-- Node6&#45;&gt;Node5 -->
<g id="edge7" class="edge">
<title>Node6&#45;&gt;Node5</title>
<path fill="none" stroke="midnightblue" d="M447.9,-118.9C501.88,-115.16 592.88,-104.77 665.5,-76 696.14,-63.86 727.11,-41.18 745.81,-26.09"/>
<polygon fill="midnightblue" stroke="midnightblue" points="748.23,-28.62 753.72,-19.56 743.78,-23.22 748.23,-28.62"/>
</g>
<!-- Node7 -->
<g id="node7" class="node">
<title>Node7</title>
<g id="a_node7"><a xlink:title=" ">
<polygon fill="white" stroke="#bfbfbf" points="300.5,-56.5 300.5,-75.5 342.5,-75.5 342.5,-56.5 300.5,-56.5"/>
<text text-anchor="middle" x="321.5" y="-63.5" font-family="Helvetica,sans-Serif" font-size="10.00">array</text>
</a>
</g>
</g>
<!-- Node6&#45;&gt;Node7 -->
<g id="edge6" class="edge">
<title>Node6&#45;&gt;Node7</title>
<path fill="none" stroke="midnightblue" d="M388.65,-112.32C376.28,-103.98 357.37,-91.21 342.76,-81.35"/>
<polygon fill="midnightblue" stroke="midnightblue" points="344.57,-78.35 334.32,-75.65 340.65,-84.15 344.57,-78.35"/>
</g>
<!-- Node8 -->
<g id="node8" class="node">
<title>Node8</title>
<g id="a_node8"><a xlink:title=" ">
<polygon fill="white" stroke="#bfbfbf" points="0,-0.5 0,-19.5 47,-19.5 47,-0.5 0,-0.5"/>
<text text-anchor="middle" x="23.5" y="-7.5" font-family="Helvetica,sans-Serif" font-size="10.00">vector</text>
</a>
</g>
</g>
<!-- Node6&#45;&gt;Node8 -->
<g id="edge8" class="edge">
<title>Node6&#45;&gt;Node8</title>
<path fill="none" stroke="midnightblue" d="M355.28,-117.2C303.35,-111.94 217.09,-100.21 146.5,-76 108.99,-63.13 68.99,-40.03 45.13,-25.12"/>
<polygon fill="midnightblue" stroke="midnightblue" points="46.85,-22.06 36.53,-19.65 43.09,-27.97 46.85,-22.06"/>
</g>
<!-- Node9 -->
<g id="node9" class="node">
<title>Node9</title>
<g id="a_node9"><a xlink:title=" ">
<polygon fill="white" stroke="#bfbfbf" points="342,-0.5 342,-19.5 387,-19.5 387,-0.5 342,-0.5"/>
<text text-anchor="middle" x="364.5" y="-7.5" font-family="Helvetica,sans-Serif" font-size="10.00">utility</text>
</a>
</g>
</g>
<!-- Node6&#45;&gt;Node9 -->
<g id="edge10" class="edge">
<title>Node6&#45;&gt;Node9</title>
<path fill="none" stroke="midnightblue" d="M355.3,-114.39C332.01,-108.46 305.76,-97.24 291.5,-76 276.84,-54.17 306.68,-34.95 332.52,-23.18"/>
<polygon fill="midnightblue" stroke="midnightblue" points="333.97,-26.36 341.76,-19.19 331.19,-19.94 333.97,-26.36"/>
</g>
<!-- Node10 -->
<g id="node10" class="node">
<title>Node10</title>
<g id="a_node10"><a xlink:title=" ">
<polygon fill="white" stroke="#bfbfbf" points="361,-56.5 361,-75.5 442,-75.5 442,-56.5 361,-56.5"/>
<text text-anchor="middle" x="401.5" y="-63.5" font-family="Helvetica,sans-Serif" font-size="10.00">system_error</text>
</a>
</g>
</g>
<!-- Node6&#45;&gt;Node10 -->
<g id="edge11" class="edge">
<title>Node6&#45;&gt;Node10</title>
<path fill="none" stroke="midnightblue" d="M401.5,-112.08C401.5,-105.01 401.5,-94.86 401.5,-85.99"/>
<polygon fill="midnightblue" stroke="midnightblue" points="405,-85.75 401.5,-75.75 398,-85.75 405,-85.75"/>
</g>
<!-- Node11 -->
<g id="node11" class="node">
<title>Node11</title>
<g id="a_node11"><a xlink:href="io__context_8hpp.html" target="_top" xlink:title="Class decleration for IoContext to manage thread for udp.">
<polygon fill="white" stroke="black" points="155,-56.5 155,-75.5 244,-75.5 244,-56.5 155,-56.5"/>
<text text-anchor="middle" x="199.5" y="-63.5" font-family="Helvetica,sans-Serif" font-size="10.00">io_context.hpp</text>
</a>
</g>
</g>
<!-- Node6&#45;&gt;Node11 -->
<g id="edge12" class="edge">
<title>Node6&#45;&gt;Node11</title>
<path fill="none" stroke="midnightblue" d="M369.49,-112.44C334.77,-103.16 279.21,-88.31 241.12,-78.13"/>
<polygon fill="midnightblue" stroke="midnightblue" points="241.92,-74.72 231.36,-75.52 240.11,-81.48 241.92,-74.72"/>
</g>
<!-- Node14 -->
<g id="node14" class="node">
<title>Node14</title>
<g id="a_node14"><a xlink:href="global__helpers_8hpp.html" target="_top" xlink:title="Inline functions for all the classes of the flighstack to use.">
<polygon fill="white" stroke="black" points="547,-56.5 547,-75.5 656,-75.5 656,-56.5 547,-56.5"/>
<text text-anchor="middle" x="601.5" y="-63.5" font-family="Helvetica,sans-Serif" font-size="10.00">global_helpers.hpp</text>
</a>
</g>
</g>
<!-- Node6&#45;&gt;Node14 -->
<g id="edge19" class="edge">
<title>Node6&#45;&gt;Node14</title>
<path fill="none" stroke="midnightblue" d="M433.19,-112.44C467.57,-103.16 522.58,-88.31 560.29,-78.13"/>
<polygon fill="midnightblue" stroke="midnightblue" points="561.22,-81.5 569.96,-75.52 559.39,-74.74 561.22,-81.5"/>
</g>
<!-- Node11&#45;&gt;Node3 -->
<g id="edge17" class="edge">
<title>Node11&#45;&gt;Node3</title>
<path fill="none" stroke="midnightblue" d="M236.91,-56.48C274.52,-47.91 334.46,-34.23 395.47,-20.23"/>
<polygon fill="midnightblue" stroke="midnightblue" points="396.3,-23.63 405.27,-17.98 394.74,-16.81 396.3,-23.63"/>
</g>
<!-- Node11&#45;&gt;Node4 -->
<g id="edge13" class="edge">
<title>Node11&#45;&gt;Node4</title>
<path fill="none" stroke="midnightblue" d="M182.63,-56.32C165.79,-47.66 139.69,-34.24 120.26,-24.25"/>
<polygon fill="midnightblue" stroke="midnightblue" points="121.82,-21.12 111.33,-19.65 118.62,-27.34 121.82,-21.12"/>
</g>
<!-- Node11&#45;&gt;Node8 -->
<g id="edge14" class="edge">
<title>Node11&#45;&gt;Node8</title>
<path fill="none" stroke="midnightblue" d="M171.61,-56.44C140.43,-46.88 89.95,-31.39 56.74,-21.2"/>
<polygon fill="midnightblue" stroke="midnightblue" points="57.62,-17.81 47.03,-18.22 55.57,-24.5 57.62,-17.81"/>
</g>
<!-- Node11&#45;&gt;Node9 -->
<g id="edge15" class="edge">
<title>Node11&#45;&gt;Node9</title>
<path fill="none" stroke="midnightblue" d="M225.64,-56.44C254.59,-46.97 301.26,-31.7 332.4,-21.5"/>
<polygon fill="midnightblue" stroke="midnightblue" points="333.51,-24.83 341.92,-18.39 331.33,-18.17 333.51,-24.83"/>
</g>
<!-- Node12 -->
<g id="node12" class="node">
<title>Node12</title>
<g id="a_node12"><a xlink:title=" ">
<polygon fill="white" stroke="#bfbfbf" points="265.5,-0.5 265.5,-19.5 323.5,-19.5 323.5,-0.5 265.5,-0.5"/>
<text text-anchor="middle" x="294.5" y="-7.5" font-family="Helvetica,sans-Serif" font-size="10.00">asio.hpp</text>
</a>
</g>
</g>
<!-- Node11&#45;&gt;Node12 -->
<g id="edge16" class="edge">
<title>Node11&#45;&gt;Node12</title>
<path fill="none" stroke="midnightblue" d="M214.76,-56.32C229.72,-47.82 252.75,-34.73 270.23,-24.8"/>
<polygon fill="midnightblue" stroke="midnightblue" points="272.31,-27.64 279.27,-19.65 268.85,-21.55 272.31,-27.64"/>
</g>
<!-- Node13 -->
<g id="node13" class="node">
<title>Node13</title>
<g id="a_node13"><a xlink:title=" ">
<polygon fill="white" stroke="#bfbfbf" points="141.5,-0.5 141.5,-19.5 247.5,-19.5 247.5,-0.5 141.5,-0.5"/>
<text text-anchor="middle" x="194.5" y="-7.5" font-family="Helvetica,sans-Serif" font-size="10.00">rclcpp/logging.hpp</text>
</a>
</g>
</g>
<!-- Node11&#45;&gt;Node13 -->
<g id="edge18" class="edge">
<title>Node11&#45;&gt;Node13</title>
<path fill="none" stroke="midnightblue" d="M198.67,-56.08C198.02,-49.01 197.08,-38.86 196.26,-29.99"/>
<polygon fill="midnightblue" stroke="midnightblue" points="199.72,-29.39 195.31,-19.75 192.75,-30.03 199.72,-29.39"/>
</g>
<!-- Node14&#45;&gt;Node3 -->
<g id="edge20" class="edge">
<title>Node14&#45;&gt;Node3</title>
<path fill="none" stroke="midnightblue" d="M575.2,-56.44C547.15,-47.32 502.56,-32.81 471.32,-22.65"/>
<polygon fill="midnightblue" stroke="midnightblue" points="472.27,-19.28 461.68,-19.52 470.11,-25.94 472.27,-19.28"/>
</g>
<!-- Node14&#45;&gt;Node5 -->
<g id="edge21" class="edge">
<title>Node14&#45;&gt;Node5</title>
<path fill="none" stroke="midnightblue" d="M627.17,-56.44C655.46,-47.01 701.02,-31.83 731.59,-21.64"/>
<polygon fill="midnightblue" stroke="midnightblue" points="732.95,-24.87 741.33,-18.39 730.74,-18.23 732.95,-24.87"/>
</g>
<!-- Node15 -->
<g id="node15" class="node">
<title>Node15</title>
<g id="a_node15"><a xlink:title=" ">
<polygon fill="white" stroke="#bfbfbf" points="579.5,-0.5 579.5,-19.5 635.5,-19.5 635.5,-0.5 579.5,-0.5"/>
<text text-anchor="middle" x="607.5" y="-7.5" font-family="Helvetica,sans-Serif" font-size="10.00">sstream</text>
</a>
</g>
</g>
<!-- Node14&#45;&gt;Node15 -->
<g id="edge22" class="edge">
<title>Node14&#45;&gt;Node15</title>
<path fill="none" stroke="midnightblue" d="M602.49,-56.08C603.29,-48.93 604.43,-38.64 605.42,-29.69"/>
<polygon fill="midnightblue" stroke="midnightblue" points="608.9,-30.08 606.53,-19.75 601.94,-29.3 608.9,-30.08"/>
</g>
<!-- Node16 -->
<g id="node16" class="node">
<title>Node16</title>
<g id="a_node16"><a xlink:title=" ">
<polygon fill="white" stroke="#bfbfbf" points="654,-0.5 654,-19.5 723,-19.5 723,-0.5 654,-0.5"/>
<text text-anchor="middle" x="688.5" y="-7.5" font-family="Helvetica,sans-Serif" font-size="10.00">type_traits</text>
</a>
</g>
</g>
<!-- Node14&#45;&gt;Node16 -->
<g id="edge23" class="edge">
<title>Node14&#45;&gt;Node16</title>
<path fill="none" stroke="midnightblue" d="M615.48,-56.32C629.05,-47.9 649.88,-34.97 665.82,-25.07"/>
<polygon fill="midnightblue" stroke="midnightblue" points="667.91,-27.9 674.56,-19.65 664.21,-21.95 667.91,-27.9"/>
</g>
<!-- Node17 -->
<g id="node17" class="node">
<title>Node17</title>
<g id="a_node17"><a xlink:title=" ">
<polygon fill="white" stroke="#bfbfbf" points="484,-0.5 484,-19.5 561,-19.5 561,-0.5 484,-0.5"/>
<text text-anchor="middle" x="522.5" y="-7.5" font-family="Helvetica,sans-Serif" font-size="10.00">Eigen/Dense</text>
</a>
</g>
</g>
<!-- Node14&#45;&gt;Node17 -->
<g id="edge24" class="edge">
<title>Node14&#45;&gt;Node17</title>
<path fill="none" stroke="midnightblue" d="M588.81,-56.32C576.6,-47.98 557.92,-35.21 543.5,-25.35"/>
<polygon fill="midnightblue" stroke="midnightblue" points="545.39,-22.41 535.16,-19.65 541.44,-28.19 545.39,-22.41"/>
</g>
</g>
</svg>
