<?xml version="1.0" encoding="UTF-8" standalone="no"?>
<!DOCTYPE svg PUBLIC "-//W3C//DTD SVG 1.1//EN"
 "http://www.w3.org/Graphics/SVG/1.1/DTD/svg11.dtd">
<!-- Generated by graphviz version 2.43.0 (0)
 -->
<!-- Title: ACSL&#45;flightstack&#45;winged/src/acsl_flight/include/mocap/udp_socket/udp_socket.hpp Pages: 1 -->
<svg width="792pt" height="162pt"
 viewBox="0.00 0.00 792.00 162.00" xmlns="http://www.w3.org/2000/svg" xmlns:xlink="http://www.w3.org/1999/xlink">
<g id="graph0" class="graph" transform="scale(1 1) rotate(0) translate(4 158)">
<title>ACSL&#45;flightstack&#45;winged/src/acsl_flight/include/mocap/udp_socket/udp_socket.hpp</title>
<polygon fill="white" stroke="transparent" points="-4,4 -4,-158 788,-158 788,4 -4,4"/>
<!-- Node1 -->
<g id="node1" class="node">
<title>Node1</title>
<g id="a_node1"><a xlink:title="Class declaration for UDP socket creation using IoContext.">
<polygon fill="#bfbfbf" stroke="black" points="289,-112.5 289,-153.5 478,-153.5 478,-112.5 289,-112.5"/>
<text text-anchor="start" x="297" y="-141.5" font-family="Helvetica,sans-Serif" font-size="10.00">ACSL&#45;flightstack&#45;winged</text>
<text text-anchor="start" x="297" y="-130.5" font-family="Helvetica,sans-Serif" font-size="10.00">/src/acsl_flight/include</text>
<text text-anchor="middle" x="383.5" y="-119.5" font-family="Helvetica,sans-Serif" font-size="10.00">/mocap/udp_socket/udp_socket.hpp</text>
</a>
</g>
</g>
<!-- Node2 -->
<g id="node2" class="node">
<title>Node2</title>
<g id="a_node2"><a xlink:title=" ">
<polygon fill="white" stroke="#bfbfbf" points="138.5,-56.5 138.5,-75.5 180.5,-75.5 180.5,-56.5 138.5,-56.5"/>
<text text-anchor="middle" x="159.5" y="-63.5" font-family="Helvetica,sans-Serif" font-size="10.00">array</text>
</a>
</g>
</g>
<!-- Node1&#45;&gt;Node2 -->
<g id="edge1" class="edge">
<title>Node1&#45;&gt;Node2</title>
<path fill="none" stroke="midnightblue" d="M316.29,-112.5C274.55,-100.38 222.86,-85.39 190.52,-76"/>
<polygon fill="midnightblue" stroke="midnightblue" points="191.32,-72.59 180.74,-73.16 189.37,-79.31 191.32,-72.59"/>
</g>
<!-- Node3 -->
<g id="node3" class="node">
<title>Node3</title>
<g id="a_node3"><a xlink:title=" ">
<polygon fill="white" stroke="#bfbfbf" points="483.5,-0.5 483.5,-19.5 527.5,-19.5 527.5,-0.5 483.5,-0.5"/>
<text text-anchor="middle" x="505.5" y="-7.5" font-family="Helvetica,sans-Serif" font-size="10.00">string</text>
</a>
</g>
</g>
<!-- Node1&#45;&gt;Node3 -->
<g id="edge2" class="edge">
<title>Node1&#45;&gt;Node3</title>
<path fill="none" stroke="midnightblue" d="M403.37,-112.29C427.43,-88.43 467.45,-48.74 489.58,-26.79"/>
<polygon fill="midnightblue" stroke="midnightblue" points="492.22,-29.1 496.85,-19.57 487.29,-24.13 492.22,-29.1"/>
</g>
<!-- Node4 -->
<g id="node4" class="node">
<title>Node4</title>
<g id="a_node4"><a xlink:title=" ">
<polygon fill="white" stroke="#bfbfbf" points="0,-0.5 0,-19.5 47,-19.5 47,-0.5 0,-0.5"/>
<text text-anchor="middle" x="23.5" y="-7.5" font-family="Helvetica,sans-Serif" font-size="10.00">vector</text>
</a>
</g>
</g>
<!-- Node1&#45;&gt;Node4 -->
<g id="edge3" class="edge">
<title>Node1&#45;&gt;Node4</title>
<path fill="none" stroke="midnightblue" d="M323.93,-112.47C294.81,-102.42 259.46,-89.47 228.5,-76 210.64,-68.23 207.67,-63.03 189.5,-56 135.29,-35.03 117.41,-35.9 57.31,-20.17"/>
<polygon fill="midnightblue" stroke="midnightblue" points="57.86,-16.69 47.29,-17.49 56.05,-23.45 57.86,-16.69"/>
</g>
<!-- Node5 -->
<g id="node5" class="node">
<title>Node5</title>
<g id="a_node5"><a xlink:title=" ">
<polygon fill="white" stroke="#bfbfbf" points="405.5,-0.5 405.5,-19.5 465.5,-19.5 465.5,-0.5 405.5,-0.5"/>
<text text-anchor="middle" x="435.5" y="-7.5" font-family="Helvetica,sans-Serif" font-size="10.00">iostream</text>
</a>
</g>
</g>
<!-- Node1&#45;&gt;Node5 -->
<g id="edge4" class="edge">
<title>Node1&#45;&gt;Node5</title>
<path fill="none" stroke="midnightblue" d="M391.97,-112.29C401.91,-89.17 418.24,-51.16 427.82,-28.86"/>
<polygon fill="midnightblue" stroke="midnightblue" points="431.08,-30.14 431.81,-19.57 424.65,-27.38 431.08,-30.14"/>
</g>
<!-- Node6 -->
<g id="node6" class="node">
<title>Node6</title>
<g id="a_node6"><a xlink:title=" ">
<polygon fill="white" stroke="#bfbfbf" points="342,-0.5 342,-19.5 387,-19.5 387,-0.5 342,-0.5"/>
<text text-anchor="middle" x="364.5" y="-7.5" font-family="Helvetica,sans-Serif" font-size="10.00">utility</text>
</a>
</g>
</g>
<!-- Node1&#45;&gt;Node6 -->
<g id="edge5" class="edge">
<title>Node1&#45;&gt;Node6</title>
<path fill="none" stroke="midnightblue" d="M380.41,-112.29C376.81,-89.37 370.91,-51.85 367.4,-29.47"/>
<polygon fill="midnightblue" stroke="midnightblue" points="370.86,-28.91 365.85,-19.57 363.94,-30 370.86,-28.91"/>
</g>
<!-- Node7 -->
<g id="node7" class="node">
<title>Node7</title>
<g id="a_node7"><a xlink:title=" ">
<polygon fill="white" stroke="#bfbfbf" points="596,-56.5 596,-75.5 677,-75.5 677,-56.5 596,-56.5"/>
<text text-anchor="middle" x="636.5" y="-63.5" font-family="Helvetica,sans-Serif" font-size="10.00">system_error</text>
</a>
</g>
</g>
<!-- Node1&#45;&gt;Node7 -->
<g id="edge6" class="edge">
<title>Node1&#45;&gt;Node7</title>
<path fill="none" stroke="midnightblue" d="M459.41,-112.5C503.18,-101.25 556.63,-87.52 593.28,-78.1"/>
<polygon fill="midnightblue" stroke="midnightblue" points="594.34,-81.45 603.15,-75.57 592.6,-74.67 594.34,-81.45"/>
</g>
<!-- Node8 -->
<g id="node8" class="node">
<title>Node8</title>
<g id="a_node8"><a xlink:href="io__context_8hpp.html" target="_top" xlink:title="Class decleration for IoContext to manage thread for udp.">
<polygon fill="white" stroke="black" points="237,-56.5 237,-75.5 326,-75.5 326,-56.5 237,-56.5"/>
<text text-anchor="middle" x="281.5" y="-63.5" font-family="Helvetica,sans-Serif" font-size="10.00">io_context.hpp</text>
</a>
</g>
</g>
<!-- Node1&#45;&gt;Node8 -->
<g id="edge7" class="edge">
<title>Node1&#45;&gt;Node8</title>
<path fill="none" stroke="midnightblue" d="M352.9,-112.5C337.11,-102.44 318.2,-90.38 303.8,-81.21"/>
<polygon fill="midnightblue" stroke="midnightblue" points="305.39,-78.08 295.08,-75.65 301.63,-83.98 305.39,-78.08"/>
</g>
<!-- Node12 -->
<g id="node12" class="node">
<title>Node12</title>
<g id="a_node12"><a xlink:href="global__helpers_8hpp.html" target="_top" xlink:title="Inline functions for all the classes of the flighstack to use.">
<polygon fill="white" stroke="black" points="469,-56.5 469,-75.5 578,-75.5 578,-56.5 469,-56.5"/>
<text text-anchor="middle" x="523.5" y="-63.5" font-family="Helvetica,sans-Serif" font-size="10.00">global_helpers.hpp</text>
</a>
</g>
</g>
<!-- Node1&#45;&gt;Node12 -->
<g id="edge14" class="edge">
<title>Node1&#45;&gt;Node12</title>
<path fill="none" stroke="midnightblue" d="M425.5,-112.5C448.21,-101.96 475.61,-89.23 495.66,-79.92"/>
<polygon fill="midnightblue" stroke="midnightblue" points="497.27,-83.04 504.86,-75.65 494.32,-76.69 497.27,-83.04"/>
</g>
<!-- Node8&#45;&gt;Node4 -->
<g id="edge9" class="edge">
<title>Node8&#45;&gt;Node4</title>
<path fill="none" stroke="midnightblue" d="M236.91,-57.02C193.5,-49.04 125.48,-35.99 57.3,-20.06"/>
<polygon fill="midnightblue" stroke="midnightblue" points="57.78,-16.57 47.24,-17.69 56.17,-23.39 57.78,-16.57"/>
</g>
<!-- Node8&#45;&gt;Node5 -->
<g id="edge12" class="edge">
<title>Node8&#45;&gt;Node5</title>
<path fill="none" stroke="midnightblue" d="M305.9,-56.44C331.7,-47.4 372.58,-33.06 401.52,-22.92"/>
<polygon fill="midnightblue" stroke="midnightblue" points="402.93,-26.13 411.21,-19.52 400.62,-19.52 402.93,-26.13"/>
</g>
<!-- Node8&#45;&gt;Node6 -->
<g id="edge10" class="edge">
<title>Node8&#45;&gt;Node6</title>
<path fill="none" stroke="midnightblue" d="M294.84,-56.32C307.66,-47.98 327.28,-35.21 342.44,-25.35"/>
<polygon fill="midnightblue" stroke="midnightblue" points="344.72,-28.04 351.2,-19.65 340.91,-22.17 344.72,-28.04"/>
</g>
<!-- Node9 -->
<g id="node9" class="node">
<title>Node9</title>
<g id="a_node9"><a xlink:title=" ">
<polygon fill="white" stroke="#bfbfbf" points="65.5,-0.5 65.5,-19.5 123.5,-19.5 123.5,-0.5 65.5,-0.5"/>
<text text-anchor="middle" x="94.5" y="-7.5" font-family="Helvetica,sans-Serif" font-size="10.00">memory</text>
</a>
</g>
</g>
<!-- Node8&#45;&gt;Node9 -->
<g id="edge8" class="edge">
<title>Node8&#45;&gt;Node9</title>
<path fill="none" stroke="midnightblue" d="M251.87,-56.44C219.91,-47.21 168.87,-32.48 133.63,-22.3"/>
<polygon fill="midnightblue" stroke="midnightblue" points="134.26,-18.84 123.68,-19.43 132.32,-25.56 134.26,-18.84"/>
</g>
<!-- Node10 -->
<g id="node10" class="node">
<title>Node10</title>
<g id="a_node10"><a xlink:title=" ">
<polygon fill="white" stroke="#bfbfbf" points="141.5,-0.5 141.5,-19.5 199.5,-19.5 199.5,-0.5 141.5,-0.5"/>
<text text-anchor="middle" x="170.5" y="-7.5" font-family="Helvetica,sans-Serif" font-size="10.00">asio.hpp</text>
</a>
</g>
</g>
<!-- Node8&#45;&gt;Node10 -->
<g id="edge11" class="edge">
<title>Node8&#45;&gt;Node10</title>
<path fill="none" stroke="midnightblue" d="M263.67,-56.32C245.78,-47.62 218.02,-34.12 197.45,-24.11"/>
<polygon fill="midnightblue" stroke="midnightblue" points="198.81,-20.88 188.29,-19.65 195.75,-27.18 198.81,-20.88"/>
</g>
<!-- Node11 -->
<g id="node11" class="node">
<title>Node11</title>
<g id="a_node11"><a xlink:title=" ">
<polygon fill="white" stroke="#bfbfbf" points="217.5,-0.5 217.5,-19.5 323.5,-19.5 323.5,-0.5 217.5,-0.5"/>
<text text-anchor="middle" x="270.5" y="-7.5" font-family="Helvetica,sans-Serif" font-size="10.00">rclcpp/logging.hpp</text>
</a>
</g>
</g>
<!-- Node8&#45;&gt;Node11 -->
<g id="edge13" class="edge">
<title>Node8&#45;&gt;Node11</title>
<path fill="none" stroke="midnightblue" d="M279.68,-56.08C278.23,-48.93 276.13,-38.64 274.31,-29.69"/>
<polygon fill="midnightblue" stroke="midnightblue" points="277.71,-28.85 272.28,-19.75 270.85,-30.25 277.71,-28.85"/>
</g>
<!-- Node12&#45;&gt;Node3 -->
<g id="edge16" class="edge">
<title>Node12&#45;&gt;Node3</title>
<path fill="none" stroke="midnightblue" d="M520.53,-56.08C518.12,-48.85 514.64,-38.41 511.63,-29.4"/>
<polygon fill="midnightblue" stroke="midnightblue" points="514.9,-28.13 508.42,-19.75 508.26,-30.34 514.9,-28.13"/>
</g>
<!-- Node12&#45;&gt;Node5 -->
<g id="edge15" class="edge">
<title>Node12&#45;&gt;Node5</title>
<path fill="none" stroke="midnightblue" d="M509.36,-56.32C495.63,-47.9 474.56,-34.97 458.44,-25.07"/>
<polygon fill="midnightblue" stroke="midnightblue" points="459.96,-21.9 449.6,-19.65 456.3,-27.87 459.96,-21.9"/>
</g>
<!-- Node13 -->
<g id="node13" class="node">
<title>Node13</title>
<g id="a_node13"><a xlink:title=" ">
<polygon fill="white" stroke="#bfbfbf" points="545.5,-0.5 545.5,-19.5 601.5,-19.5 601.5,-0.5 545.5,-0.5"/>
<text text-anchor="middle" x="573.5" y="-7.5" font-family="Helvetica,sans-Serif" font-size="10.00">sstream</text>
</a>
</g>
</g>
<!-- Node12&#45;&gt;Node13 -->
<g id="edge17" class="edge">
<title>Node12&#45;&gt;Node13</title>
<path fill="none" stroke="midnightblue" d="M531.76,-56.08C538.96,-48.3 549.61,-36.8 558.35,-27.37"/>
<polygon fill="midnightblue" stroke="midnightblue" points="561.17,-29.47 565.4,-19.75 556.03,-24.71 561.17,-29.47"/>
</g>
<!-- Node14 -->
<g id="node14" class="node">
<title>Node14</title>
<g id="a_node14"><a xlink:title=" ">
<polygon fill="white" stroke="#bfbfbf" points="620,-0.5 620,-19.5 689,-19.5 689,-0.5 620,-0.5"/>
<text text-anchor="middle" x="654.5" y="-7.5" font-family="Helvetica,sans-Serif" font-size="10.00">type_traits</text>
</a>
</g>
</g>
<!-- Node12&#45;&gt;Node14 -->
<g id="edge18" class="edge">
<title>Node12&#45;&gt;Node14</title>
<path fill="none" stroke="midnightblue" d="M544.26,-56.44C565.82,-47.56 599.76,-33.56 624.29,-23.45"/>
<polygon fill="midnightblue" stroke="midnightblue" points="625.93,-26.56 633.84,-19.52 623.26,-20.09 625.93,-26.56"/>
</g>
<!-- Node15 -->
<g id="node15" class="node">
<title>Node15</title>
<g id="a_node15"><a xlink:title=" ">
<polygon fill="white" stroke="#bfbfbf" points="707,-0.5 707,-19.5 784,-19.5 784,-0.5 707,-0.5"/>
<text text-anchor="middle" x="745.5" y="-7.5" font-family="Helvetica,sans-Serif" font-size="10.00">Eigen/Dense</text>
</a>
</g>
</g>
<!-- Node12&#45;&gt;Node15 -->
<g id="edge19" class="edge">
<title>Node12&#45;&gt;Node15</title>
<path fill="none" stroke="midnightblue" d="M558.68,-56.44C597.08,-47.1 658.68,-32.12 700.56,-21.93"/>
<polygon fill="midnightblue" stroke="midnightblue" points="701.6,-25.28 710.49,-19.52 699.94,-18.48 701.6,-25.28"/>
</g>
</g>
</svg>
