<?xml version="1.0" encoding="UTF-8" standalone="no"?>
<!DOCTYPE svg PUBLIC "-//W3C//DTD SVG 1.1//EN"
 "http://www.w3.org/Graphics/SVG/1.1/DTD/svg11.dtd">
<!-- Generated by graphviz version 2.43.0 (0)
 -->
<!-- Title: ACSL&#45;flightstack&#45;winged/src/acsl_flight/include/mocap/udp_socket/udp_socket.hpp Pages: 1 -->
<svg width="584pt" height="440pt"
 viewBox="0.00 0.00 584.00 440.00" xmlns="http://www.w3.org/2000/svg" xmlns:xlink="http://www.w3.org/1999/xlink">
<g id="graph0" class="graph" transform="scale(1 1) rotate(0) translate(4 436)">
<title>ACSL&#45;flightstack&#45;winged/src/acsl_flight/include/mocap/udp_socket/udp_socket.hpp</title>
<polygon fill="white" stroke="transparent" points="-4,4 -4,-436 580,-436 580,4 -4,4"/>
<!-- Node1 -->
<g id="node1" class="node">
<title>Node1</title>
<g id="a_node1"><a xlink:title="Class declaration for UDP socket creation using IoContext.">
<polygon fill="#bfbfbf" stroke="black" points="312.5,-390.5 312.5,-431.5 501.5,-431.5 501.5,-390.5 312.5,-390.5"/>
<text text-anchor="start" x="320.5" y="-419.5" font-family="Helvetica,sans-Serif" font-size="10.00">ACSL&#45;flightstack&#45;winged</text>
<text text-anchor="start" x="320.5" y="-408.5" font-family="Helvetica,sans-Serif" font-size="10.00">/src/acsl_flight/include</text>
<text text-anchor="middle" x="407" y="-397.5" font-family="Helvetica,sans-Serif" font-size="10.00">/mocap/udp_socket/udp_socket.hpp</text>
</a>
</g>
</g>
<!-- Node2 -->
<g id="node2" class="node">
<title>Node2</title>
<g id="a_node2"><a xlink:href="udp__driver_8hpp.html" target="_top" xlink:title="Class decleration for UDP driver.">
<polygon fill="white" stroke="black" points="224,-312.5 224,-353.5 406,-353.5 406,-312.5 224,-312.5"/>
<text text-anchor="start" x="232" y="-341.5" font-family="Helvetica,sans-Serif" font-size="10.00">ACSL&#45;flightstack&#45;winged</text>
<text text-anchor="start" x="232" y="-330.5" font-family="Helvetica,sans-Serif" font-size="10.00">/src/acsl_flight/include</text>
<text text-anchor="middle" x="315" y="-319.5" font-family="Helvetica,sans-Serif" font-size="10.00">/mocap/udp_driver/udp_driver.hpp</text>
</a>
</g>
</g>
<!-- Node1&#45;&gt;Node2 -->
<g id="edge1" class="edge">
<title>Node1&#45;&gt;Node2</title>
<path fill="none" stroke="midnightblue" d="M375.26,-383.78C363.23,-373.84 349.76,-362.72 338.61,-353.51"/>
<polygon fill="midnightblue" stroke="midnightblue" points="373.37,-386.76 383.31,-390.43 377.83,-381.36 373.37,-386.76"/>
</g>
<!-- Node12 -->
<g id="node12" class="node">
<title>Node12</title>
<g id="a_node12"><a xlink:href="udp__socket_8cpp.html" target="_top" xlink:title="Class definition for UDP socket creation using IoContext.">
<polygon fill="white" stroke="black" points="424,-312.5 424,-353.5 576,-353.5 576,-312.5 424,-312.5"/>
<text text-anchor="start" x="432" y="-341.5" font-family="Helvetica,sans-Serif" font-size="10.00">ACSL&#45;flightstack&#45;winged</text>
<text text-anchor="start" x="432" y="-330.5" font-family="Helvetica,sans-Serif" font-size="10.00">/src/acsl_flight/src/mocap</text>
<text text-anchor="middle" x="500" y="-319.5" font-family="Helvetica,sans-Serif" font-size="10.00">/udp_socket/udp_socket.cpp</text>
</a>
</g>
</g>
<!-- Node1&#45;&gt;Node12 -->
<g id="edge12" class="edge">
<title>Node1&#45;&gt;Node12</title>
<path fill="none" stroke="midnightblue" d="M438.74,-384.06C450.98,-374.06 464.75,-362.8 476.13,-353.51"/>
<polygon fill="midnightblue" stroke="midnightblue" points="436.48,-381.39 430.95,-390.43 440.91,-386.81 436.48,-381.39"/>
</g>
<!-- Node3 -->
<g id="node3" class="node">
<title>Node3</title>
<g id="a_node3"><a xlink:href="mocap_8hpp.html" target="_top" xlink:title="Class declaration for UDP socket as a lifecycle node.">
<polygon fill="white" stroke="black" points="168.5,-234.5 168.5,-275.5 303.5,-275.5 303.5,-234.5 168.5,-234.5"/>
<text text-anchor="start" x="176.5" y="-263.5" font-family="Helvetica,sans-Serif" font-size="10.00">ACSL&#45;flightstack&#45;winged</text>
<text text-anchor="start" x="176.5" y="-252.5" font-family="Helvetica,sans-Serif" font-size="10.00">/src/acsl_flight/include</text>
<text text-anchor="middle" x="236" y="-241.5" font-family="Helvetica,sans-Serif" font-size="10.00">/mocap/mocap.hpp</text>
</a>
</g>
</g>
<!-- Node2&#45;&gt;Node3 -->
<g id="edge2" class="edge">
<title>Node2&#45;&gt;Node3</title>
<path fill="none" stroke="midnightblue" d="M287.45,-305.49C277.19,-295.63 265.76,-284.63 256.28,-275.51"/>
<polygon fill="midnightblue" stroke="midnightblue" points="285.02,-308.02 294.66,-312.43 289.88,-302.97 285.02,-308.02"/>
</g>
<!-- Node11 -->
<g id="node11" class="node">
<title>Node11</title>
<g id="a_node11"><a xlink:href="udp__driver_8cpp.html" target="_top" xlink:title="Class definition for UDP driver.">
<polygon fill="white" stroke="black" points="322,-234.5 322,-275.5 468,-275.5 468,-234.5 322,-234.5"/>
<text text-anchor="start" x="330" y="-263.5" font-family="Helvetica,sans-Serif" font-size="10.00">ACSL&#45;flightstack&#45;winged</text>
<text text-anchor="start" x="330" y="-252.5" font-family="Helvetica,sans-Serif" font-size="10.00">/src/acsl_flight/src/mocap</text>
<text text-anchor="middle" x="395" y="-241.5" font-family="Helvetica,sans-Serif" font-size="10.00">/udp_driver/udp_driver.cpp</text>
</a>
</g>
</g>
<!-- Node2&#45;&gt;Node11 -->
<g id="edge11" class="edge">
<title>Node2&#45;&gt;Node11</title>
<path fill="none" stroke="midnightblue" d="M342.9,-305.49C353.28,-295.63 364.87,-284.63 374.47,-275.51"/>
<polygon fill="midnightblue" stroke="midnightblue" points="340.44,-303 335.6,-312.43 345.26,-308.08 340.44,-303"/>
</g>
<!-- Node4 -->
<g id="node4" class="node">
<title>Node4</title>
<g id="a_node4"><a xlink:href="flight__bridge_8hpp.html" target="_top" xlink:title="Utilities for multithreading.">
<polygon fill="white" stroke="black" points="68.5,-156.5 68.5,-197.5 233.5,-197.5 233.5,-156.5 68.5,-156.5"/>
<text text-anchor="start" x="76.5" y="-185.5" font-family="Helvetica,sans-Serif" font-size="10.00">ACSL&#45;flightstack&#45;winged</text>
<text text-anchor="start" x="76.5" y="-174.5" font-family="Helvetica,sans-Serif" font-size="10.00">/src/acsl_flight/include</text>
<text text-anchor="middle" x="151" y="-163.5" font-family="Helvetica,sans-Serif" font-size="10.00">/flight_bridge/flight_bridge.hpp</text>
</a>
</g>
</g>
<!-- Node3&#45;&gt;Node4 -->
<g id="edge3" class="edge">
<title>Node3&#45;&gt;Node4</title>
<path fill="none" stroke="midnightblue" d="M206.35,-227.49C195.32,-217.63 183.02,-206.63 172.82,-197.51"/>
<polygon fill="midnightblue" stroke="midnightblue" points="204.32,-230.37 214.11,-234.43 208.99,-225.15 204.32,-230.37"/>
</g>
<!-- Node10 -->
<g id="node10" class="node">
<title>Node10</title>
<g id="a_node10"><a xlink:href="mocap_8cpp.html" target="_top" xlink:title="Node definition for UDP socket as a lifecycle node.">
<polygon fill="white" stroke="black" points="252,-156.5 252,-197.5 392,-197.5 392,-156.5 252,-156.5"/>
<text text-anchor="start" x="260" y="-185.5" font-family="Helvetica,sans-Serif" font-size="10.00">ACSL&#45;flightstack&#45;winged</text>
<text text-anchor="start" x="260" y="-174.5" font-family="Helvetica,sans-Serif" font-size="10.00">/src/acsl_flight/src/mocap</text>
<text text-anchor="middle" x="322" y="-163.5" font-family="Helvetica,sans-Serif" font-size="10.00">/mocap.cpp</text>
</a>
</g>
</g>
<!-- Node3&#45;&gt;Node10 -->
<g id="edge10" class="edge">
<title>Node3&#45;&gt;Node10</title>
<path fill="none" stroke="midnightblue" d="M265.67,-227.78C276.91,-217.84 289.51,-206.72 299.93,-197.51"/>
<polygon fill="midnightblue" stroke="midnightblue" points="263.32,-225.18 258.15,-234.43 267.96,-230.43 263.32,-225.18"/>
</g>
<!-- Node5 -->
<g id="node5" class="node">
<title>Node5</title>
<g id="a_node5"><a xlink:href="control_8hpp.html" target="_top" xlink:title="Class declaration for computing and publishing the control.">
<polygon fill="white" stroke="black" points="2.5,-78.5 2.5,-119.5 137.5,-119.5 137.5,-78.5 2.5,-78.5"/>
<text text-anchor="start" x="10.5" y="-107.5" font-family="Helvetica,sans-Serif" font-size="10.00">ACSL&#45;flightstack&#45;winged</text>
<text text-anchor="start" x="10.5" y="-96.5" font-family="Helvetica,sans-Serif" font-size="10.00">/src/acsl_flight/include</text>
<text text-anchor="middle" x="70" y="-85.5" font-family="Helvetica,sans-Serif" font-size="10.00">/control/control.hpp</text>
</a>
</g>
</g>
<!-- Node4&#45;&gt;Node5 -->
<g id="edge4" class="edge">
<title>Node4&#45;&gt;Node5</title>
<path fill="none" stroke="midnightblue" d="M116.6,-149.78C105.5,-139.84 93.79,-128.72 84.81,-119.51"/>
<polygon fill="midnightblue" stroke="midnightblue" points="114.33,-152.45 124.15,-156.43 118.96,-147.19 114.33,-152.45"/>
</g>
<!-- Node7 -->
<g id="node7" class="node">
<title>Node7</title>
<g id="a_node7"><a xlink:href="flight__main_8hpp.html" target="_top" xlink:title="Header file for the main function that just sources all the other header files.">
<polygon fill="white" stroke="black" points="155.5,-78.5 155.5,-119.5 308.5,-119.5 308.5,-78.5 155.5,-78.5"/>
<text text-anchor="start" x="163.5" y="-107.5" font-family="Helvetica,sans-Serif" font-size="10.00">ACSL&#45;flightstack&#45;winged</text>
<text text-anchor="start" x="163.5" y="-96.5" font-family="Helvetica,sans-Serif" font-size="10.00">/src/acsl_flight/include</text>
<text text-anchor="middle" x="232" y="-85.5" font-family="Helvetica,sans-Serif" font-size="10.00">/flight_main/flight_main.hpp</text>
</a>
</g>
</g>
<!-- Node4&#45;&gt;Node7 -->
<g id="edge7" class="edge">
<title>Node4&#45;&gt;Node7</title>
<path fill="none" stroke="midnightblue" d="M179.25,-149.49C189.76,-139.63 201.49,-128.63 211.21,-119.51"/>
<polygon fill="midnightblue" stroke="midnightblue" points="176.76,-147.03 171.86,-156.43 181.55,-152.14 176.76,-147.03"/>
</g>
<!-- Node9 -->
<g id="node9" class="node">
<title>Node9</title>
<g id="a_node9"><a xlink:href="flight__bridge_8cpp.html" target="_top" xlink:title="Utlities for multithreading.">
<polygon fill="white" stroke="black" points="326.5,-78.5 326.5,-119.5 463.5,-119.5 463.5,-78.5 326.5,-78.5"/>
<text text-anchor="start" x="334.5" y="-107.5" font-family="Helvetica,sans-Serif" font-size="10.00">ACSL&#45;flightstack&#45;winged</text>
<text text-anchor="start" x="334.5" y="-96.5" font-family="Helvetica,sans-Serif" font-size="10.00">/src/acsl_flight/src/flight</text>
<text text-anchor="middle" x="395" y="-85.5" font-family="Helvetica,sans-Serif" font-size="10.00">_bridge/flight_bridge.cpp</text>
</a>
</g>
</g>
<!-- Node4&#45;&gt;Node9 -->
<g id="edge9" class="edge">
<title>Node4&#45;&gt;Node9</title>
<path fill="none" stroke="midnightblue" d="M223.42,-153.44C258.05,-142.66 299.11,-129.87 332.38,-119.51"/>
<polygon fill="midnightblue" stroke="midnightblue" points="222.34,-150.11 213.84,-156.43 224.42,-156.8 222.34,-150.11"/>
</g>
<!-- Node5&#45;&gt;Node4 -->
<g id="edge5" class="edge">
<title>Node5&#45;&gt;Node4</title>
<path fill="none" stroke="midnightblue" d="M104.32,-126.15C115.42,-136.08 127.13,-147.21 136.13,-156.43"/>
<polygon fill="midnightblue" stroke="midnightblue" points="106.59,-123.49 96.77,-119.51 101.96,-128.74 106.59,-123.49"/>
</g>
<!-- Node6 -->
<g id="node6" class="node">
<title>Node6</title>
<g id="a_node6"><a xlink:href="control_8cpp.html" target="_top" xlink:title="Control node definition. Runs all the control algorithms. Adds as a hub for all the control actions.">
<polygon fill="white" stroke="black" points="0,-0.5 0,-41.5 140,-41.5 140,-0.5 0,-0.5"/>
<text text-anchor="start" x="8" y="-29.5" font-family="Helvetica,sans-Serif" font-size="10.00">ACSL&#45;flightstack&#45;winged</text>
<text text-anchor="start" x="8" y="-18.5" font-family="Helvetica,sans-Serif" font-size="10.00">/src/acsl_flight/src/control</text>
<text text-anchor="middle" x="70" y="-7.5" font-family="Helvetica,sans-Serif" font-size="10.00">/control.cpp</text>
</a>
</g>
</g>
<!-- Node5&#45;&gt;Node6 -->
<g id="edge6" class="edge">
<title>Node5&#45;&gt;Node6</title>
<path fill="none" stroke="midnightblue" d="M70,-68.3C70,-59.3 70,-49.65 70,-41.51"/>
<polygon fill="midnightblue" stroke="midnightblue" points="66.5,-68.43 70,-78.43 73.5,-68.43 66.5,-68.43"/>
</g>
<!-- Node8 -->
<g id="node8" class="node">
<title>Node8</title>
<g id="a_node8"><a xlink:href="flight__main_8cpp.html" target="_top" xlink:title="Main function to initiate ROS2.">
<polygon fill="white" stroke="black" points="164.5,-0.5 164.5,-41.5 299.5,-41.5 299.5,-0.5 164.5,-0.5"/>
<text text-anchor="start" x="172.5" y="-29.5" font-family="Helvetica,sans-Serif" font-size="10.00">ACSL&#45;flightstack&#45;winged</text>
<text text-anchor="start" x="172.5" y="-18.5" font-family="Helvetica,sans-Serif" font-size="10.00">/src/acsl_flight/src/flight</text>
<text text-anchor="middle" x="232" y="-7.5" font-family="Helvetica,sans-Serif" font-size="10.00">_main/flight_main.cpp</text>
</a>
</g>
</g>
<!-- Node7&#45;&gt;Node8 -->
<g id="edge8" class="edge">
<title>Node7&#45;&gt;Node8</title>
<path fill="none" stroke="midnightblue" d="M232,-68.3C232,-59.3 232,-49.65 232,-41.51"/>
<polygon fill="midnightblue" stroke="midnightblue" points="228.5,-68.43 232,-78.43 235.5,-68.43 228.5,-68.43"/>
</g>
</g>
</svg>
