<?xml version="1.0" encoding="UTF-8" standalone="no"?>
<!DOCTYPE svg PUBLIC "-//W3C//DTD SVG 1.1//EN"
 "http://www.w3.org/Graphics/SVG/1.1/DTD/svg11.dtd">
<!-- Generated by graphviz version 2.43.0 (0)
 -->
<!-- Title: ACSL&#45;flightstack&#45;winged/src/acsl_flight/include/vehicle_class/vehicle_class.hpp Pages: 1 -->
<svg width="1460pt" height="484pt"
 viewBox="0.00 0.00 1459.79 484.00" xmlns="http://www.w3.org/2000/svg" xmlns:xlink="http://www.w3.org/1999/xlink">
<g id="graph0" class="graph" transform="scale(1 1) rotate(0) translate(4 480)">
<title>ACSL&#45;flightstack&#45;winged/src/acsl_flight/include/vehicle_class/vehicle_class.hpp</title>
<polygon fill="white" stroke="transparent" points="-4,4 -4,-480 1455.79,-480 1455.79,4 -4,4"/>
<!-- Node1 -->
<g id="node1" class="node">
<title>Node1</title>
<g id="a_node1"><a xlink:title="Header for the vehicle class object.">
<polygon fill="#bfbfbf" stroke="black" points="922.79,-434.5 922.79,-475.5 1096.79,-475.5 1096.79,-434.5 922.79,-434.5"/>
<text text-anchor="start" x="930.79" y="-463.5" font-family="Helvetica,sans-Serif" font-size="10.00">ACSL&#45;flightstack&#45;winged</text>
<text text-anchor="start" x="930.79" y="-452.5" font-family="Helvetica,sans-Serif" font-size="10.00">/src/acsl_flight/include</text>
<text text-anchor="middle" x="1009.79" y="-441.5" font-family="Helvetica,sans-Serif" font-size="10.00">/vehicle_class/vehicle_class.hpp</text>
</a>
</g>
</g>
<!-- Node2 -->
<g id="node2" class="node">
<title>Node2</title>
<g id="a_node2"><a xlink:href="control_8hpp.html" target="_top" xlink:title="Class declaration for computing and publishing the control.">
<polygon fill="white" stroke="black" points="424.29,-78.5 424.29,-119.5 559.29,-119.5 559.29,-78.5 424.29,-78.5"/>
<text text-anchor="start" x="432.29" y="-107.5" font-family="Helvetica,sans-Serif" font-size="10.00">ACSL&#45;flightstack&#45;winged</text>
<text text-anchor="start" x="432.29" y="-96.5" font-family="Helvetica,sans-Serif" font-size="10.00">/src/acsl_flight/include</text>
<text text-anchor="middle" x="491.79" y="-85.5" font-family="Helvetica,sans-Serif" font-size="10.00">/control/control.hpp</text>
</a>
</g>
</g>
<!-- Node1&#45;&gt;Node2 -->
<g id="edge1" class="edge">
<title>Node1&#45;&gt;Node2</title>
<path fill="none" stroke="midnightblue" d="M912.68,-452.15C726.8,-447.82 327.39,-434.47 194.79,-398 110.28,-374.76 64.71,-383.67 18.79,-309 -18.02,-249.13 2.35,-197.89 58.79,-156 115.25,-114.1 317.24,-103.52 424.21,-100.87"/>
<polygon fill="midnightblue" stroke="midnightblue" points="912.64,-455.65 922.72,-452.38 912.8,-448.65 912.64,-455.65"/>
</g>
<!-- Node4 -->
<g id="node4" class="node">
<title>Node4</title>
<g id="a_node4"><a xlink:href="mocap_8hpp.html" target="_top" xlink:title="Class declaration for UDP socket as a lifecycle node.">
<polygon fill="white" stroke="black" points="1068.29,-78.5 1068.29,-119.5 1203.29,-119.5 1203.29,-78.5 1068.29,-78.5"/>
<text text-anchor="start" x="1076.29" y="-107.5" font-family="Helvetica,sans-Serif" font-size="10.00">ACSL&#45;flightstack&#45;winged</text>
<text text-anchor="start" x="1076.29" y="-96.5" font-family="Helvetica,sans-Serif" font-size="10.00">/src/acsl_flight/include</text>
<text text-anchor="middle" x="1135.79" y="-85.5" font-family="Helvetica,sans-Serif" font-size="10.00">/mocap/mocap.hpp</text>
</a>
</g>
</g>
<!-- Node1&#45;&gt;Node4 -->
<g id="edge3" class="edge">
<title>Node1&#45;&gt;Node4</title>
<path fill="none" stroke="midnightblue" d="M1044.71,-428.19C1095.75,-388.01 1188.62,-305.07 1224.79,-209 1233.09,-186.96 1236.18,-176.62 1224.79,-156 1216.05,-140.18 1200.77,-128.22 1185.3,-119.5"/>
<polygon fill="midnightblue" stroke="midnightblue" points="1042.34,-425.59 1036.59,-434.49 1046.63,-431.12 1042.34,-425.59"/>
</g>
<!-- Node6 -->
<g id="node6" class="node">
<title>Node6</title>
<g id="a_node6"><a xlink:href="read__pix_8hpp.html" target="_top" xlink:title="Class decleartion for reading pixhawk data.">
<polygon fill="white" stroke="black" points="204.29,-351 204.29,-392 339.29,-392 339.29,-351 204.29,-351"/>
<text text-anchor="start" x="212.29" y="-380" font-family="Helvetica,sans-Serif" font-size="10.00">ACSL&#45;flightstack&#45;winged</text>
<text text-anchor="start" x="212.29" y="-369" font-family="Helvetica,sans-Serif" font-size="10.00">/src/acsl_flight/include</text>
<text text-anchor="middle" x="271.79" y="-358" font-family="Helvetica,sans-Serif" font-size="10.00">/read_pix/read_pix.hpp</text>
</a>
</g>
</g>
<!-- Node1&#45;&gt;Node6 -->
<g id="edge5" class="edge">
<title>Node1&#45;&gt;Node6</title>
<path fill="none" stroke="midnightblue" d="M912.34,-443.24C760.36,-426.45 470.7,-394.47 339.44,-379.97"/>
<polygon fill="midnightblue" stroke="midnightblue" points="912.28,-446.75 922.6,-444.37 913.04,-439.79 912.28,-446.75"/>
</g>
<!-- Node8 -->
<g id="node8" class="node">
<title>Node8</title>
<g id="a_node8"><a xlink:href="control__algorithm__base_8hpp.html" target="_top" xlink:title="Utilities for Controller Base Definition.">
<polygon fill="white" stroke="black" points="629.79,-345.5 629.79,-397.5 813.79,-397.5 813.79,-345.5 629.79,-345.5"/>
<text text-anchor="start" x="637.79" y="-385.5" font-family="Helvetica,sans-Serif" font-size="10.00">ACSL&#45;flightstack&#45;winged</text>
<text text-anchor="start" x="637.79" y="-374.5" font-family="Helvetica,sans-Serif" font-size="10.00">/src/acsl_flight/include</text>
<text text-anchor="start" x="637.79" y="-363.5" font-family="Helvetica,sans-Serif" font-size="10.00">/utils/control_algorithm</text>
<text text-anchor="middle" x="721.79" y="-352.5" font-family="Helvetica,sans-Serif" font-size="10.00">_base/control_algorithm_base.hpp</text>
</a>
</g>
</g>
<!-- Node1&#45;&gt;Node8 -->
<g id="edge7" class="edge">
<title>Node1&#45;&gt;Node8</title>
<path fill="none" stroke="midnightblue" d="M930.97,-431.69C893.55,-421.11 848.7,-408.41 810.14,-397.5"/>
<polygon fill="midnightblue" stroke="midnightblue" points="930.23,-435.12 940.81,-434.48 932.14,-428.39 930.23,-435.12"/>
</g>
<!-- Node17 -->
<g id="node17" class="node">
<title>Node17</title>
<g id="a_node17"><a xlink:href="vio_8hpp.html" target="_top" xlink:title="Class decleration for Intel Realsense T265 tracking camera as a lifecycle node.">
<polygon fill="white" stroke="black" points="1221.29,-78.5 1221.29,-119.5 1356.29,-119.5 1356.29,-78.5 1221.29,-78.5"/>
<text text-anchor="start" x="1229.29" y="-107.5" font-family="Helvetica,sans-Serif" font-size="10.00">ACSL&#45;flightstack&#45;winged</text>
<text text-anchor="start" x="1229.29" y="-96.5" font-family="Helvetica,sans-Serif" font-size="10.00">/src/acsl_flight/include</text>
<text text-anchor="middle" x="1288.79" y="-85.5" font-family="Helvetica,sans-Serif" font-size="10.00">/vio/vio.hpp</text>
</a>
</g>
</g>
<!-- Node1&#45;&gt;Node17 -->
<g id="edge23" class="edge">
<title>Node1&#45;&gt;Node17</title>
<path fill="none" stroke="midnightblue" d="M1068.04,-430.07C1086.13,-421.31 1105.56,-410.45 1121.79,-398 1219.68,-322.93 1268.74,-173.12 1283.7,-119.58"/>
<polygon fill="midnightblue" stroke="midnightblue" points="1066.29,-427.03 1058.73,-434.46 1069.27,-433.36 1066.29,-427.03"/>
</g>
<!-- Node22 -->
<g id="node22" class="node">
<title>Node22</title>
<g id="a_node22"><a xlink:href="vehicle__class_8cpp.html" target="_top" xlink:title="Getter and setter functions for the vehicle class object.">
<polygon fill="white" stroke="black" points="1309.79,-351 1309.79,-392 1451.79,-392 1451.79,-351 1309.79,-351"/>
<text text-anchor="start" x="1317.79" y="-380" font-family="Helvetica,sans-Serif" font-size="10.00">ACSL&#45;flightstack&#45;winged</text>
<text text-anchor="start" x="1317.79" y="-369" font-family="Helvetica,sans-Serif" font-size="10.00">/src/acsl_flight/src/vehicle</text>
<text text-anchor="middle" x="1380.79" y="-358" font-family="Helvetica,sans-Serif" font-size="10.00">_class/vehicle_class.cpp</text>
</a>
</g>
</g>
<!-- Node1&#45;&gt;Node22 -->
<g id="edge24" class="edge">
<title>Node1&#45;&gt;Node22</title>
<path fill="none" stroke="midnightblue" d="M1106.8,-437.45C1162.41,-427.35 1233.36,-413.44 1295.79,-398 1303.12,-396.19 1310.76,-394.14 1318.32,-392"/>
<polygon fill="midnightblue" stroke="midnightblue" points="1106.17,-434.01 1096.95,-439.23 1107.41,-440.89 1106.17,-434.01"/>
</g>
<!-- Node3 -->
<g id="node3" class="node">
<title>Node3</title>
<g id="a_node3"><a xlink:href="control_8cpp.html" target="_top" xlink:title="Control node definition. Runs all the control algorithms. Adds as a hub for all the control actions.">
<polygon fill="white" stroke="black" points="421.79,-0.5 421.79,-41.5 561.79,-41.5 561.79,-0.5 421.79,-0.5"/>
<text text-anchor="start" x="429.79" y="-29.5" font-family="Helvetica,sans-Serif" font-size="10.00">ACSL&#45;flightstack&#45;winged</text>
<text text-anchor="start" x="429.79" y="-18.5" font-family="Helvetica,sans-Serif" font-size="10.00">/src/acsl_flight/src/control</text>
<text text-anchor="middle" x="491.79" y="-7.5" font-family="Helvetica,sans-Serif" font-size="10.00">/control.cpp</text>
</a>
</g>
</g>
<!-- Node2&#45;&gt;Node3 -->
<g id="edge2" class="edge">
<title>Node2&#45;&gt;Node3</title>
<path fill="none" stroke="midnightblue" d="M491.79,-68.3C491.79,-59.3 491.79,-49.65 491.79,-41.51"/>
<polygon fill="midnightblue" stroke="midnightblue" points="488.29,-68.43 491.79,-78.43 495.29,-68.43 488.29,-68.43"/>
</g>
<!-- Node5 -->
<g id="node5" class="node">
<title>Node5</title>
<g id="a_node5"><a xlink:href="mocap_8cpp.html" target="_top" xlink:title="Node definition for UDP socket as a lifecycle node.">
<polygon fill="white" stroke="black" points="1064.79,-0.5 1064.79,-41.5 1204.79,-41.5 1204.79,-0.5 1064.79,-0.5"/>
<text text-anchor="start" x="1072.79" y="-29.5" font-family="Helvetica,sans-Serif" font-size="10.00">ACSL&#45;flightstack&#45;winged</text>
<text text-anchor="start" x="1072.79" y="-18.5" font-family="Helvetica,sans-Serif" font-size="10.00">/src/acsl_flight/src/mocap</text>
<text text-anchor="middle" x="1134.79" y="-7.5" font-family="Helvetica,sans-Serif" font-size="10.00">/mocap.cpp</text>
</a>
</g>
</g>
<!-- Node4&#45;&gt;Node5 -->
<g id="edge4" class="edge">
<title>Node4&#45;&gt;Node5</title>
<path fill="none" stroke="midnightblue" d="M1135.4,-68.3C1135.28,-59.3 1135.16,-49.65 1135.05,-41.51"/>
<polygon fill="midnightblue" stroke="midnightblue" points="1131.9,-68.48 1135.53,-78.43 1138.9,-68.38 1131.9,-68.48"/>
</g>
<!-- Node7 -->
<g id="node7" class="node">
<title>Node7</title>
<g id="a_node7"><a xlink:href="read__pix_8cpp.html" target="_top" xlink:title="Class definiton for reading pixhawk data.">
<polygon fill="white" stroke="black" points="28.29,-256.5 28.29,-297.5 163.29,-297.5 163.29,-256.5 28.29,-256.5"/>
<text text-anchor="start" x="36.29" y="-285.5" font-family="Helvetica,sans-Serif" font-size="10.00">ACSL&#45;flightstack&#45;winged</text>
<text text-anchor="start" x="36.29" y="-274.5" font-family="Helvetica,sans-Serif" font-size="10.00">/src/acsl_flight/src/read</text>
<text text-anchor="middle" x="95.79" y="-263.5" font-family="Helvetica,sans-Serif" font-size="10.00">_pix/read_pix.cpp</text>
</a>
</g>
</g>
<!-- Node6&#45;&gt;Node7 -->
<g id="edge6" class="edge">
<title>Node6&#45;&gt;Node7</title>
<path fill="none" stroke="midnightblue" d="M225.4,-346.12C196.57,-330.97 160,-311.75 133.06,-297.59"/>
<polygon fill="midnightblue" stroke="midnightblue" points="223.99,-349.33 234.47,-350.88 227.24,-343.13 223.99,-349.33"/>
</g>
<!-- Node9 -->
<g id="node9" class="node">
<title>Node9</title>
<g id="a_node9"><a xlink:href="MRAC__OMEGA_8hpp.html" target="_top" xlink:title="MRAC with angular velocities for the QRBP.">
<polygon fill="white" stroke="black" points="739.79,-245.5 739.79,-308.5 893.79,-308.5 893.79,-245.5 739.79,-245.5"/>
<text text-anchor="start" x="747.79" y="-296.5" font-family="Helvetica,sans-Serif" font-size="10.00">ACSL&#45;flightstack&#45;winged</text>
<text text-anchor="start" x="747.79" y="-285.5" font-family="Helvetica,sans-Serif" font-size="10.00">/src/acsl_flight/include</text>
<text text-anchor="start" x="747.79" y="-274.5" font-family="Helvetica,sans-Serif" font-size="10.00">/control/platforms/qrbp</text>
<text text-anchor="start" x="747.79" y="-263.5" font-family="Helvetica,sans-Serif" font-size="10.00">/control_algorithms/MRAC</text>
<text text-anchor="middle" x="816.79" y="-252.5" font-family="Helvetica,sans-Serif" font-size="10.00">_OMEGA/MRAC_OMEGA.hpp</text>
</a>
</g>
</g>
<!-- Node8&#45;&gt;Node9 -->
<g id="edge8" class="edge">
<title>Node8&#45;&gt;Node9</title>
<path fill="none" stroke="midnightblue" d="M755.09,-338.08C764.95,-328.47 775.72,-317.99 785.46,-308.51"/>
<polygon fill="midnightblue" stroke="midnightblue" points="752.47,-335.74 747.75,-345.22 757.36,-340.76 752.47,-335.74"/>
</g>
<!-- Node11 -->
<g id="node11" class="node">
<title>Node11</title>
<g id="a_node11"><a xlink:href="MRAC__PID_8hpp.html" target="_top" xlink:title="MRAC_PID for the QRBP.">
<polygon fill="white" stroke="black" points="181.29,-245.5 181.29,-308.5 324.29,-308.5 324.29,-245.5 181.29,-245.5"/>
<text text-anchor="start" x="189.29" y="-296.5" font-family="Helvetica,sans-Serif" font-size="10.00">ACSL&#45;flightstack&#45;winged</text>
<text text-anchor="start" x="189.29" y="-285.5" font-family="Helvetica,sans-Serif" font-size="10.00">/src/acsl_flight/include</text>
<text text-anchor="start" x="189.29" y="-274.5" font-family="Helvetica,sans-Serif" font-size="10.00">/control/platforms/qrbp</text>
<text text-anchor="start" x="189.29" y="-263.5" font-family="Helvetica,sans-Serif" font-size="10.00">/control_algorithms/MRAC</text>
<text text-anchor="middle" x="252.79" y="-252.5" font-family="Helvetica,sans-Serif" font-size="10.00">_PID/MRAC_PID.hpp</text>
</a>
</g>
</g>
<!-- Node8&#45;&gt;Node11 -->
<g id="edge10" class="edge">
<title>Node8&#45;&gt;Node11</title>
<path fill="none" stroke="midnightblue" d="M619.49,-360.35C540.3,-351.06 428.39,-334.76 332.79,-309 330.06,-308.26 327.29,-307.47 324.51,-306.62"/>
<polygon fill="midnightblue" stroke="midnightblue" points="619.13,-363.83 629.46,-361.51 619.93,-356.88 619.13,-363.83"/>
</g>
<!-- Node13 -->
<g id="node13" class="node">
<title>Node13</title>
<g id="a_node13"><a xlink:href="PID_8hpp.html" target="_top" xlink:title="PID for the QRBP.">
<polygon fill="white" stroke="black" points="342.29,-251 342.29,-303 513.29,-303 513.29,-251 342.29,-251"/>
<text text-anchor="start" x="350.29" y="-291" font-family="Helvetica,sans-Serif" font-size="10.00">ACSL&#45;flightstack&#45;winged</text>
<text text-anchor="start" x="350.29" y="-280" font-family="Helvetica,sans-Serif" font-size="10.00">/src/acsl_flight/include</text>
<text text-anchor="start" x="350.29" y="-269" font-family="Helvetica,sans-Serif" font-size="10.00">/control/platforms/qrbp</text>
<text text-anchor="middle" x="427.79" y="-258" font-family="Helvetica,sans-Serif" font-size="10.00">/control_algorithms/PID/PID.hpp</text>
</a>
</g>
</g>
<!-- Node8&#45;&gt;Node13 -->
<g id="edge12" class="edge">
<title>Node8&#45;&gt;Node13</title>
<path fill="none" stroke="midnightblue" d="M629.59,-342.33C595.94,-331.97 557.61,-320.06 522.79,-309 516.76,-307.08 510.51,-305.08 504.24,-303.06"/>
<polygon fill="midnightblue" stroke="midnightblue" points="628.82,-345.76 639.4,-345.36 630.88,-339.07 628.82,-345.76"/>
</g>
<!-- Node15 -->
<g id="node15" class="node">
<title>Node15</title>
<g id="a_node15"><a xlink:href="PID__OMEGA_8hpp.html" target="_top" xlink:title="PID with angular veocities for the QRBP.">
<polygon fill="white" stroke="black" points="912.29,-245.5 912.29,-308.5 1085.29,-308.5 1085.29,-245.5 912.29,-245.5"/>
<text text-anchor="start" x="920.29" y="-296.5" font-family="Helvetica,sans-Serif" font-size="10.00">ACSL&#45;flightstack&#45;winged</text>
<text text-anchor="start" x="920.29" y="-285.5" font-family="Helvetica,sans-Serif" font-size="10.00">/src/acsl_flight/include</text>
<text text-anchor="start" x="920.29" y="-274.5" font-family="Helvetica,sans-Serif" font-size="10.00">/control/platforms/qrbp</text>
<text text-anchor="start" x="920.29" y="-263.5" font-family="Helvetica,sans-Serif" font-size="10.00">/control_algorithms/PID_OMEGA</text>
<text text-anchor="middle" x="998.79" y="-252.5" font-family="Helvetica,sans-Serif" font-size="10.00">/PID_OMEGA.hpp</text>
</a>
</g>
</g>
<!-- Node8&#45;&gt;Node15 -->
<g id="edge14" class="edge">
<title>Node8&#45;&gt;Node15</title>
<path fill="none" stroke="midnightblue" d="M806.5,-342.21C839.95,-331.04 878.35,-318.22 912,-306.98"/>
<polygon fill="midnightblue" stroke="midnightblue" points="805.13,-338.98 796.75,-345.47 807.35,-345.62 805.13,-338.98"/>
</g>
<!-- Node20 -->
<g id="node20" class="node">
<title>Node20</title>
<g id="a_node20"><a xlink:href="PID__TD_8hpp.html" target="_top" xlink:title="PID for the ros test drone.">
<polygon fill="white" stroke="black" points="531.79,-251 531.79,-303 721.79,-303 721.79,-251 531.79,-251"/>
<text text-anchor="start" x="539.79" y="-291" font-family="Helvetica,sans-Serif" font-size="10.00">ACSL&#45;flightstack&#45;winged</text>
<text text-anchor="start" x="539.79" y="-280" font-family="Helvetica,sans-Serif" font-size="10.00">/src/acsl_flight/include</text>
<text text-anchor="start" x="539.79" y="-269" font-family="Helvetica,sans-Serif" font-size="10.00">/control/platforms/rostestdrone</text>
<text text-anchor="middle" x="626.79" y="-258" font-family="Helvetica,sans-Serif" font-size="10.00">/control_algorithms/PID/PID_TD.hpp</text>
</a>
</g>
</g>
<!-- Node8&#45;&gt;Node20 -->
<g id="edge21" class="edge">
<title>Node8&#45;&gt;Node20</title>
<path fill="none" stroke="midnightblue" d="M688.36,-337.95C676.66,-326.56 663.71,-313.95 652.72,-303.25"/>
<polygon fill="midnightblue" stroke="midnightblue" points="686.23,-340.76 695.83,-345.22 691.11,-335.74 686.23,-340.76"/>
</g>
<!-- Node10 -->
<g id="node10" class="node">
<title>Node10</title>
<g id="a_node10"><a xlink:href="MRAC__OMEGA_8cpp.html" target="_top" xlink:title="MRAC with angular velocities for the QRBP. Inherts the class controller_base for the basic functional...">
<polygon fill="white" stroke="black" points="661.79,-156.5 661.79,-208.5 847.79,-208.5 847.79,-156.5 661.79,-156.5"/>
<text text-anchor="start" x="669.79" y="-196.5" font-family="Helvetica,sans-Serif" font-size="10.00">ACSL&#45;flightstack&#45;winged</text>
<text text-anchor="start" x="669.79" y="-185.5" font-family="Helvetica,sans-Serif" font-size="10.00">/src/acsl_flight/src/control</text>
<text text-anchor="start" x="669.79" y="-174.5" font-family="Helvetica,sans-Serif" font-size="10.00">/platforms/qrbp/control_algorithms</text>
<text text-anchor="middle" x="754.79" y="-163.5" font-family="Helvetica,sans-Serif" font-size="10.00">/MRAC_OMEGA/MRAC_OMEGA.cpp</text>
</a>
</g>
</g>
<!-- Node9&#45;&gt;Node10 -->
<g id="edge9" class="edge">
<title>Node9&#45;&gt;Node10</title>
<path fill="none" stroke="midnightblue" d="M790.57,-236.88C784.2,-227.37 777.54,-217.44 771.73,-208.77"/>
<polygon fill="midnightblue" stroke="midnightblue" points="787.84,-239.1 796.32,-245.46 793.66,-235.2 787.84,-239.1"/>
</g>
<!-- Node12 -->
<g id="node12" class="node">
<title>Node12</title>
<g id="a_node12"><a xlink:href="MRAC__PID_8cpp.html" target="_top" xlink:title="MRAC_PID for the QRBP.">
<polygon fill="white" stroke="black" points="67.79,-156.5 67.79,-208.5 253.79,-208.5 253.79,-156.5 67.79,-156.5"/>
<text text-anchor="start" x="75.79" y="-196.5" font-family="Helvetica,sans-Serif" font-size="10.00">ACSL&#45;flightstack&#45;winged</text>
<text text-anchor="start" x="75.79" y="-185.5" font-family="Helvetica,sans-Serif" font-size="10.00">/src/acsl_flight/src/control</text>
<text text-anchor="start" x="75.79" y="-174.5" font-family="Helvetica,sans-Serif" font-size="10.00">/platforms/qrbp/control_algorithms</text>
<text text-anchor="middle" x="160.79" y="-163.5" font-family="Helvetica,sans-Serif" font-size="10.00">/MRAC_PID/MRAC_PID.cpp</text>
</a>
</g>
</g>
<!-- Node11&#45;&gt;Node12 -->
<g id="edge11" class="edge">
<title>Node11&#45;&gt;Node12</title>
<path fill="none" stroke="midnightblue" d="M215.33,-238.33C205.43,-228.38 194.99,-217.88 185.92,-208.77"/>
<polygon fill="midnightblue" stroke="midnightblue" points="212.88,-240.83 222.41,-245.46 217.84,-235.9 212.88,-240.83"/>
</g>
<!-- Node14 -->
<g id="node14" class="node">
<title>Node14</title>
<g id="a_node14"><a xlink:href="PID_8cpp.html" target="_top" xlink:title=" ">
<polygon fill="white" stroke="black" points="271.79,-156.5 271.79,-208.5 457.79,-208.5 457.79,-156.5 271.79,-156.5"/>
<text text-anchor="start" x="279.79" y="-196.5" font-family="Helvetica,sans-Serif" font-size="10.00">ACSL&#45;flightstack&#45;winged</text>
<text text-anchor="start" x="279.79" y="-185.5" font-family="Helvetica,sans-Serif" font-size="10.00">/src/acsl_flight/src/control</text>
<text text-anchor="start" x="279.79" y="-174.5" font-family="Helvetica,sans-Serif" font-size="10.00">/platforms/qrbp/control_algorithms</text>
<text text-anchor="middle" x="364.79" y="-163.5" font-family="Helvetica,sans-Serif" font-size="10.00">/PID/PID.cpp</text>
</a>
</g>
</g>
<!-- Node13&#45;&gt;Node14 -->
<g id="edge13" class="edge">
<title>Node13&#45;&gt;Node14</title>
<path fill="none" stroke="midnightblue" d="M404.73,-242.14C397.21,-231.1 389,-219.04 381.99,-208.75"/>
<polygon fill="midnightblue" stroke="midnightblue" points="402.05,-244.43 410.58,-250.72 407.84,-240.49 402.05,-244.43"/>
</g>
<!-- Node16 -->
<g id="node16" class="node">
<title>Node16</title>
<g id="a_node16"><a xlink:href="control__config_8hpp.html" target="_top" xlink:title="Just a header file for configuring which platform and controller to pick during compilation.">
<polygon fill="white" stroke="black" points="1069.79,-162 1069.79,-203 1215.79,-203 1215.79,-162 1069.79,-162"/>
<text text-anchor="start" x="1077.79" y="-191" font-family="Helvetica,sans-Serif" font-size="10.00">ACSL&#45;flightstack&#45;winged</text>
<text text-anchor="start" x="1077.79" y="-180" font-family="Helvetica,sans-Serif" font-size="10.00">/src/acsl_flight/include</text>
<text text-anchor="middle" x="1142.79" y="-169" font-family="Helvetica,sans-Serif" font-size="10.00">/control/control_config.hpp</text>
</a>
</g>
</g>
<!-- Node15&#45;&gt;Node16 -->
<g id="edge15" class="edge">
<title>Node15&#45;&gt;Node16</title>
<path fill="none" stroke="midnightblue" d="M1054.85,-239.99C1074.31,-227.49 1095.4,-213.94 1112.05,-203.25"/>
<polygon fill="midnightblue" stroke="midnightblue" points="1052.86,-237.11 1046.34,-245.46 1056.65,-243 1052.86,-237.11"/>
</g>
<!-- Node19 -->
<g id="node19" class="node">
<title>Node19</title>
<g id="a_node19"><a xlink:href="PID__OMEGA_8cpp.html" target="_top" xlink:title="PID with angular velocities for the QRBP.">
<polygon fill="white" stroke="black" points="865.79,-156.5 865.79,-208.5 1051.79,-208.5 1051.79,-156.5 865.79,-156.5"/>
<text text-anchor="start" x="873.79" y="-196.5" font-family="Helvetica,sans-Serif" font-size="10.00">ACSL&#45;flightstack&#45;winged</text>
<text text-anchor="start" x="873.79" y="-185.5" font-family="Helvetica,sans-Serif" font-size="10.00">/src/acsl_flight/src/control</text>
<text text-anchor="start" x="873.79" y="-174.5" font-family="Helvetica,sans-Serif" font-size="10.00">/platforms/qrbp/control_algorithms</text>
<text text-anchor="middle" x="958.79" y="-163.5" font-family="Helvetica,sans-Serif" font-size="10.00">/PID_OMEGA/PID_OMEGA.cpp</text>
</a>
</g>
</g>
<!-- Node15&#45;&gt;Node19 -->
<g id="edge20" class="edge">
<title>Node15&#45;&gt;Node19</title>
<path fill="none" stroke="midnightblue" d="M981.5,-236.01C977.5,-226.76 973.35,-217.18 969.72,-208.77"/>
<polygon fill="midnightblue" stroke="midnightblue" points="978.4,-237.67 985.58,-245.46 984.83,-234.89 978.4,-237.67"/>
</g>
<!-- Node16&#45;&gt;Node2 -->
<g id="edge16" class="edge">
<title>Node16&#45;&gt;Node2</title>
<path fill="none" stroke="midnightblue" d="M1075.08,-159.28C1070.27,-158.06 1065.48,-156.95 1060.79,-156 882.03,-119.8 666.74,-106.72 559.46,-102.21"/>
<polygon fill="midnightblue" stroke="midnightblue" points="1074.37,-162.71 1084.94,-161.91 1076.18,-155.95 1074.37,-162.71"/>
</g>
<!-- Node16&#45;&gt;Node4 -->
<g id="edge17" class="edge">
<title>Node16&#45;&gt;Node4</title>
<path fill="none" stroke="midnightblue" d="M1140.22,-151.56C1139.3,-140.88 1138.29,-129.13 1137.47,-119.55"/>
<polygon fill="midnightblue" stroke="midnightblue" points="1136.75,-152.11 1141.1,-161.77 1143.73,-151.51 1136.75,-152.11"/>
</g>
<!-- Node16&#45;&gt;Node17 -->
<g id="edge18" class="edge">
<title>Node16&#45;&gt;Node17</title>
<path fill="none" stroke="midnightblue" d="M1186.7,-156.99C1208.19,-144.99 1233.71,-130.75 1253.85,-119.5"/>
<polygon fill="midnightblue" stroke="midnightblue" points="1184.79,-154.05 1177.76,-161.98 1188.2,-160.16 1184.79,-154.05"/>
</g>
<!-- Node18 -->
<g id="node18" class="node">
<title>Node18</title>
<g id="a_node18"><a xlink:href="vio_8cpp.html" target="_top" xlink:title="Node definition for Intel Realsense T265 tracking camera as a lifecycle node.">
<polygon fill="white" stroke="black" points="1223.29,-0.5 1223.29,-41.5 1358.29,-41.5 1358.29,-0.5 1223.29,-0.5"/>
<text text-anchor="start" x="1231.29" y="-29.5" font-family="Helvetica,sans-Serif" font-size="10.00">ACSL&#45;flightstack&#45;winged</text>
<text text-anchor="start" x="1231.29" y="-18.5" font-family="Helvetica,sans-Serif" font-size="10.00">/src/acsl_flight/src/vio</text>
<text text-anchor="middle" x="1290.79" y="-7.5" font-family="Helvetica,sans-Serif" font-size="10.00">/vio.cpp</text>
</a>
</g>
</g>
<!-- Node17&#45;&gt;Node18 -->
<g id="edge19" class="edge">
<title>Node17&#45;&gt;Node18</title>
<path fill="none" stroke="midnightblue" d="M1289.57,-68.3C1289.81,-59.3 1290.06,-49.65 1290.28,-41.51"/>
<polygon fill="midnightblue" stroke="midnightblue" points="1286.07,-68.34 1289.31,-78.43 1293.07,-68.52 1286.07,-68.34"/>
</g>
<!-- Node21 -->
<g id="node21" class="node">
<title>Node21</title>
<g id="a_node21"><a xlink:href="PID__TD_8cpp.html" target="_top" xlink:title="PID for the rostestdrone.">
<polygon fill="white" stroke="black" points="475.79,-156.5 475.79,-208.5 643.79,-208.5 643.79,-156.5 475.79,-156.5"/>
<text text-anchor="start" x="483.79" y="-196.5" font-family="Helvetica,sans-Serif" font-size="10.00">ACSL&#45;flightstack&#45;winged</text>
<text text-anchor="start" x="483.79" y="-185.5" font-family="Helvetica,sans-Serif" font-size="10.00">/src/acsl_flight/src/control</text>
<text text-anchor="start" x="483.79" y="-174.5" font-family="Helvetica,sans-Serif" font-size="10.00">/platforms/rostestdrone/control</text>
<text text-anchor="middle" x="559.79" y="-163.5" font-family="Helvetica,sans-Serif" font-size="10.00">_algorithms/PID/PID_TD.cpp</text>
</a>
</g>
</g>
<!-- Node20&#45;&gt;Node21 -->
<g id="edge22" class="edge">
<title>Node20&#45;&gt;Node21</title>
<path fill="none" stroke="midnightblue" d="M602.5,-242.47C594.44,-231.34 585.61,-219.14 578.08,-208.75"/>
<polygon fill="midnightblue" stroke="midnightblue" points="599.78,-244.68 608.48,-250.72 605.45,-240.57 599.78,-244.68"/>
</g>
</g>
</svg>
