<?xml version="1.0" encoding="UTF-8" standalone="no"?>
<!DOCTYPE svg PUBLIC "-//W3C//DTD SVG 1.1//EN"
 "http://www.w3.org/Graphics/SVG/1.1/DTD/svg11.dtd">
<!-- Generated by graphviz version 2.43.0 (0)
 -->
<!-- Title: ACSL&#45;flightstack&#45;winged/src/acsl_flight/include/vehicle_class/vehicle_class.hpp Pages: 1 -->
<svg width="1642pt" height="640pt"
 viewBox="0.00 0.00 1642.00 640.00" xmlns="http://www.w3.org/2000/svg" xmlns:xlink="http://www.w3.org/1999/xlink">
<g id="graph0" class="graph" transform="scale(1 1) rotate(0) translate(4 636)">
<title>ACSL&#45;flightstack&#45;winged/src/acsl_flight/include/vehicle_class/vehicle_class.hpp</title>
<polygon fill="white" stroke="transparent" points="-4,4 -4,-636 1638,-636 1638,4 -4,4"/>
<!-- Node1 -->
<g id="node1" class="node">
<title>Node1</title>
<g id="a_node1"><a xlink:title="Header for the vehicle class object.">
<polygon fill="#bfbfbf" stroke="black" points="791,-590.5 791,-631.5 965,-631.5 965,-590.5 791,-590.5"/>
<text text-anchor="start" x="799" y="-619.5" font-family="Helvetica,sans-Serif" font-size="10.00">ACSL&#45;flightstack&#45;winged</text>
<text text-anchor="start" x="799" y="-608.5" font-family="Helvetica,sans-Serif" font-size="10.00">/src/acsl_flight/include</text>
<text text-anchor="middle" x="878" y="-597.5" font-family="Helvetica,sans-Serif" font-size="10.00">/vehicle_class/vehicle_class.hpp</text>
</a>
</g>
</g>
<!-- Node2 -->
<g id="node2" class="node">
<title>Node2</title>
<g id="a_node2"><a xlink:href="control_8hpp.html" target="_top" xlink:title="Class declaration for computing and publishing the control.">
<polygon fill="white" stroke="black" points="20.5,-234.5 20.5,-275.5 155.5,-275.5 155.5,-234.5 20.5,-234.5"/>
<text text-anchor="start" x="28.5" y="-263.5" font-family="Helvetica,sans-Serif" font-size="10.00">ACSL&#45;flightstack&#45;winged</text>
<text text-anchor="start" x="28.5" y="-252.5" font-family="Helvetica,sans-Serif" font-size="10.00">/src/acsl_flight/include</text>
<text text-anchor="middle" x="88" y="-241.5" font-family="Helvetica,sans-Serif" font-size="10.00">/control/control.hpp</text>
</a>
</g>
</g>
<!-- Node1&#45;&gt;Node2 -->
<g id="edge1" class="edge">
<title>Node1&#45;&gt;Node2</title>
<path fill="none" stroke="midnightblue" d="M780.83,-608.42C597.79,-604.57 216.03,-592.04 170,-554 83.76,-482.73 83.6,-329.88 86.51,-275.61"/>
<polygon fill="midnightblue" stroke="midnightblue" points="780.93,-611.93 791,-608.63 781.07,-604.93 780.93,-611.93"/>
</g>
<!-- Node3 -->
<g id="node3" class="node">
<title>Node3</title>
<g id="a_node3"><a xlink:href="flight__bridge_8hpp.html" target="_top" xlink:title=" ">
<polygon fill="white" stroke="black" points="158.5,-156.5 158.5,-197.5 323.5,-197.5 323.5,-156.5 158.5,-156.5"/>
<text text-anchor="start" x="166.5" y="-185.5" font-family="Helvetica,sans-Serif" font-size="10.00">ACSL&#45;flightstack&#45;winged</text>
<text text-anchor="start" x="166.5" y="-174.5" font-family="Helvetica,sans-Serif" font-size="10.00">/src/acsl_flight/include</text>
<text text-anchor="middle" x="241" y="-163.5" font-family="Helvetica,sans-Serif" font-size="10.00">/flight_bridge/flight_bridge.hpp</text>
</a>
</g>
</g>
<!-- Node1&#45;&gt;Node3 -->
<g id="edge8" class="edge">
<title>Node1&#45;&gt;Node3</title>
<path fill="none" stroke="midnightblue" d="M780.78,-606.73C613.34,-600.33 284.24,-584.06 241,-554 192.52,-520.3 184,-493.04 184,-434 184,-434 184,-434 184,-337.5 184,-284.57 212.18,-227.22 228.91,-197.83"/>
<polygon fill="midnightblue" stroke="midnightblue" points="780.71,-610.23 790.84,-607.11 780.98,-603.23 780.71,-610.23"/>
</g>
<!-- Node8 -->
<g id="node8" class="node">
<title>Node8</title>
<g id="a_node8"><a xlink:href="mocap_8hpp.html" target="_top" xlink:title="Class declaration for UDP socket as a lifecycle node.">
<polygon fill="white" stroke="black" points="1172.5,-234.5 1172.5,-275.5 1307.5,-275.5 1307.5,-234.5 1172.5,-234.5"/>
<text text-anchor="start" x="1180.5" y="-263.5" font-family="Helvetica,sans-Serif" font-size="10.00">ACSL&#45;flightstack&#45;winged</text>
<text text-anchor="start" x="1180.5" y="-252.5" font-family="Helvetica,sans-Serif" font-size="10.00">/src/acsl_flight/include</text>
<text text-anchor="middle" x="1240" y="-241.5" font-family="Helvetica,sans-Serif" font-size="10.00">/mocap/mocap.hpp</text>
</a>
</g>
</g>
<!-- Node1&#45;&gt;Node8 -->
<g id="edge9" class="edge">
<title>Node1&#45;&gt;Node8</title>
<path fill="none" stroke="midnightblue" d="M975.53,-602.7C1109.74,-586.44 1342.15,-533.99 1407,-365 1415.44,-343.01 1420.76,-331.12 1407,-312 1400.75,-303.31 1351.39,-287.38 1307.94,-274.72"/>
<polygon fill="midnightblue" stroke="midnightblue" points="974.77,-599.27 965.24,-603.9 975.58,-606.22 974.77,-599.27"/>
</g>
<!-- Node10 -->
<g id="node10" class="node">
<title>Node10</title>
<g id="a_node10"><a xlink:href="read__pix_8hpp.html" target="_top" xlink:title="Class decleartion for reading pixhawk data.">
<polygon fill="white" stroke="black" points="250.5,-507 250.5,-548 385.5,-548 385.5,-507 250.5,-507"/>
<text text-anchor="start" x="258.5" y="-536" font-family="Helvetica,sans-Serif" font-size="10.00">ACSL&#45;flightstack&#45;winged</text>
<text text-anchor="start" x="258.5" y="-525" font-family="Helvetica,sans-Serif" font-size="10.00">/src/acsl_flight/include</text>
<text text-anchor="middle" x="318" y="-514" font-family="Helvetica,sans-Serif" font-size="10.00">/read_pix/read_pix.hpp</text>
</a>
</g>
</g>
<!-- Node1&#45;&gt;Node10 -->
<g id="edge12" class="edge">
<title>Node1&#45;&gt;Node10</title>
<path fill="none" stroke="midnightblue" d="M780.77,-595.85C667.75,-579.4 484.17,-552.68 385.63,-538.34"/>
<polygon fill="midnightblue" stroke="midnightblue" points="780.41,-599.33 790.81,-597.31 781.42,-592.41 780.41,-599.33"/>
</g>
<!-- Node12 -->
<g id="node12" class="node">
<title>Node12</title>
<g id="a_node12"><a xlink:href="control__algorithm__base_8hpp.html" target="_top" xlink:title="Utilities for Controller Base Definition.">
<polygon fill="white" stroke="black" points="786,-501.5 786,-553.5 970,-553.5 970,-501.5 786,-501.5"/>
<text text-anchor="start" x="794" y="-541.5" font-family="Helvetica,sans-Serif" font-size="10.00">ACSL&#45;flightstack&#45;winged</text>
<text text-anchor="start" x="794" y="-530.5" font-family="Helvetica,sans-Serif" font-size="10.00">/src/acsl_flight/include</text>
<text text-anchor="start" x="794" y="-519.5" font-family="Helvetica,sans-Serif" font-size="10.00">/utils/control_algorithm</text>
<text text-anchor="middle" x="878" y="-508.5" font-family="Helvetica,sans-Serif" font-size="10.00">_base/control_algorithm_base.hpp</text>
</a>
</g>
</g>
<!-- Node1&#45;&gt;Node12 -->
<g id="edge15" class="edge">
<title>Node1&#45;&gt;Node12</title>
<path fill="none" stroke="midnightblue" d="M878,-580.12C878,-571.41 878,-561.99 878,-553.61"/>
<polygon fill="midnightblue" stroke="midnightblue" points="874.5,-580.27 878,-590.27 881.5,-580.27 874.5,-580.27"/>
</g>
<!-- Node21 -->
<g id="node21" class="node">
<title>Node21</title>
<g id="a_node21"><a xlink:href="vio_8hpp.html" target="_top" xlink:title="Class decleration for Intel Realsense T265 tracking camera as a lifecycle node.">
<polygon fill="white" stroke="black" points="1326.5,-234.5 1326.5,-275.5 1461.5,-275.5 1461.5,-234.5 1326.5,-234.5"/>
<text text-anchor="start" x="1334.5" y="-263.5" font-family="Helvetica,sans-Serif" font-size="10.00">ACSL&#45;flightstack&#45;winged</text>
<text text-anchor="start" x="1334.5" y="-252.5" font-family="Helvetica,sans-Serif" font-size="10.00">/src/acsl_flight/include</text>
<text text-anchor="middle" x="1394" y="-241.5" font-family="Helvetica,sans-Serif" font-size="10.00">/vio/vio.hpp</text>
</a>
</g>
</g>
<!-- Node1&#45;&gt;Node21 -->
<g id="edge33" class="edge">
<title>Node1&#45;&gt;Node21</title>
<path fill="none" stroke="midnightblue" d="M975.45,-607.62C1052.86,-602.88 1162.57,-589.71 1252,-554 1357.76,-511.77 1400.64,-476.24 1425,-365 1430.04,-341.99 1430.89,-334.81 1425,-312 1421.66,-299.09 1414.64,-285.98 1408.13,-275.69"/>
<polygon fill="midnightblue" stroke="midnightblue" points="975.01,-604.14 965.23,-608.21 975.41,-611.13 975.01,-604.14"/>
</g>
<!-- Node26 -->
<g id="node26" class="node">
<title>Node26</title>
<g id="a_node26"><a xlink:href="vehicle__class_8cpp.html" target="_top" xlink:title="Getter and setter functions for the vehicle class object.">
<polygon fill="white" stroke="black" points="1492,-507 1492,-548 1634,-548 1634,-507 1492,-507"/>
<text text-anchor="start" x="1500" y="-536" font-family="Helvetica,sans-Serif" font-size="10.00">ACSL&#45;flightstack&#45;winged</text>
<text text-anchor="start" x="1500" y="-525" font-family="Helvetica,sans-Serif" font-size="10.00">/src/acsl_flight/src/vehicle</text>
<text text-anchor="middle" x="1563" y="-514" font-family="Helvetica,sans-Serif" font-size="10.00">_class/vehicle_class.cpp</text>
</a>
</g>
</g>
<!-- Node1&#45;&gt;Node26 -->
<g id="edge34" class="edge">
<title>Node1&#45;&gt;Node26</title>
<path fill="none" stroke="midnightblue" d="M975.42,-606.84C1094.83,-601.61 1302.88,-588.09 1478,-554 1486.17,-552.41 1494.67,-550.36 1503,-548.11"/>
<polygon fill="midnightblue" stroke="midnightblue" points="975.05,-603.35 965.21,-607.28 975.35,-610.35 975.05,-603.35"/>
</g>
<!-- Node2&#45;&gt;Node3 -->
<g id="edge2" class="edge">
<title>Node2&#45;&gt;Node3</title>
<path fill="none" stroke="midnightblue" d="M130.44,-229.77C150.77,-219.35 175.07,-207.34 195.75,-197.51"/>
<polygon fill="midnightblue" stroke="midnightblue" points="128.69,-226.73 121.41,-234.43 131.9,-232.95 128.69,-226.73"/>
</g>
<!-- Node7 -->
<g id="node7" class="node">
<title>Node7</title>
<g id="a_node7"><a xlink:href="control_8cpp.html" target="_top" xlink:title="Control node definition. Runs all the control algorithms. Adds as a hub for all the control actions.">
<polygon fill="white" stroke="black" points="0,-156.5 0,-197.5 140,-197.5 140,-156.5 0,-156.5"/>
<text text-anchor="start" x="8" y="-185.5" font-family="Helvetica,sans-Serif" font-size="10.00">ACSL&#45;flightstack&#45;winged</text>
<text text-anchor="start" x="8" y="-174.5" font-family="Helvetica,sans-Serif" font-size="10.00">/src/acsl_flight/src/control</text>
<text text-anchor="middle" x="70" y="-163.5" font-family="Helvetica,sans-Serif" font-size="10.00">/control.cpp</text>
</a>
</g>
</g>
<!-- Node2&#45;&gt;Node7 -->
<g id="edge7" class="edge">
<title>Node2&#45;&gt;Node7</title>
<path fill="none" stroke="midnightblue" d="M81.03,-224.59C78.88,-215.51 76.57,-205.74 74.62,-197.51"/>
<polygon fill="midnightblue" stroke="midnightblue" points="77.65,-225.5 83.36,-234.43 84.47,-223.89 77.65,-225.5"/>
</g>
<!-- Node3&#45;&gt;Node2 -->
<g id="edge3" class="edge">
<title>Node3&#45;&gt;Node2</title>
<path fill="none" stroke="midnightblue" d="M198.69,-202.16C178.39,-212.57 154.08,-224.59 133.39,-234.43"/>
<polygon fill="midnightblue" stroke="midnightblue" points="200.43,-205.2 207.71,-197.51 197.22,-198.98 200.43,-205.2"/>
</g>
<!-- Node4 -->
<g id="node4" class="node">
<title>Node4</title>
<g id="a_node4"><a xlink:href="flight__main_8hpp.html" target="_top" xlink:title=" ">
<polygon fill="white" stroke="black" points="82.5,-78.5 82.5,-119.5 235.5,-119.5 235.5,-78.5 82.5,-78.5"/>
<text text-anchor="start" x="90.5" y="-107.5" font-family="Helvetica,sans-Serif" font-size="10.00">ACSL&#45;flightstack&#45;winged</text>
<text text-anchor="start" x="90.5" y="-96.5" font-family="Helvetica,sans-Serif" font-size="10.00">/src/acsl_flight/include</text>
<text text-anchor="middle" x="159" y="-85.5" font-family="Helvetica,sans-Serif" font-size="10.00">/flight_main/flight_main.hpp</text>
</a>
</g>
</g>
<!-- Node3&#45;&gt;Node4 -->
<g id="edge4" class="edge">
<title>Node3&#45;&gt;Node4</title>
<path fill="none" stroke="midnightblue" d="M212.4,-149.49C201.76,-139.63 189.89,-128.63 180.05,-119.51"/>
<polygon fill="midnightblue" stroke="midnightblue" points="210.17,-152.2 219.88,-156.43 214.93,-147.06 210.17,-152.2"/>
</g>
<!-- Node6 -->
<g id="node6" class="node">
<title>Node6</title>
<g id="a_node6"><a xlink:href="flight__bridge_8cpp.html" target="_top" xlink:title="Utlities for multithreading.">
<polygon fill="white" stroke="black" points="253.5,-78.5 253.5,-119.5 390.5,-119.5 390.5,-78.5 253.5,-78.5"/>
<text text-anchor="start" x="261.5" y="-107.5" font-family="Helvetica,sans-Serif" font-size="10.00">ACSL&#45;flightstack&#45;winged</text>
<text text-anchor="start" x="261.5" y="-96.5" font-family="Helvetica,sans-Serif" font-size="10.00">/src/acsl_flight/src/flight</text>
<text text-anchor="middle" x="322" y="-85.5" font-family="Helvetica,sans-Serif" font-size="10.00">_bridge/flight_bridge.cpp</text>
</a>
</g>
</g>
<!-- Node3&#45;&gt;Node6 -->
<g id="edge6" class="edge">
<title>Node3&#45;&gt;Node6</title>
<path fill="none" stroke="midnightblue" d="M269.25,-149.49C279.76,-139.63 291.49,-128.63 301.21,-119.51"/>
<polygon fill="midnightblue" stroke="midnightblue" points="266.76,-147.03 261.86,-156.43 271.55,-152.14 266.76,-147.03"/>
</g>
<!-- Node5 -->
<g id="node5" class="node">
<title>Node5</title>
<g id="a_node5"><a xlink:href="flight__main_8cpp.html" target="_top" xlink:title="Main function to initiate ROS2.">
<polygon fill="white" stroke="black" points="91.5,-0.5 91.5,-41.5 226.5,-41.5 226.5,-0.5 91.5,-0.5"/>
<text text-anchor="start" x="99.5" y="-29.5" font-family="Helvetica,sans-Serif" font-size="10.00">ACSL&#45;flightstack&#45;winged</text>
<text text-anchor="start" x="99.5" y="-18.5" font-family="Helvetica,sans-Serif" font-size="10.00">/src/acsl_flight/src/flight</text>
<text text-anchor="middle" x="159" y="-7.5" font-family="Helvetica,sans-Serif" font-size="10.00">_main/flight_main.cpp</text>
</a>
</g>
</g>
<!-- Node4&#45;&gt;Node5 -->
<g id="edge5" class="edge">
<title>Node4&#45;&gt;Node5</title>
<path fill="none" stroke="midnightblue" d="M159,-68.3C159,-59.3 159,-49.65 159,-41.51"/>
<polygon fill="midnightblue" stroke="midnightblue" points="155.5,-68.43 159,-78.43 162.5,-68.43 155.5,-68.43"/>
</g>
<!-- Node8&#45;&gt;Node3 -->
<g id="edge10" class="edge">
<title>Node8&#45;&gt;Node3</title>
<path fill="none" stroke="midnightblue" d="M1161.93,-248.06C976.96,-233.99 513.36,-198.72 323.77,-184.3"/>
<polygon fill="midnightblue" stroke="midnightblue" points="1161.88,-251.57 1172.12,-248.84 1162.41,-244.59 1161.88,-251.57"/>
</g>
<!-- Node9 -->
<g id="node9" class="node">
<title>Node9</title>
<g id="a_node9"><a xlink:href="mocap_8cpp.html" target="_top" xlink:title="Node definition for UDP socket as a lifecycle node.">
<polygon fill="white" stroke="black" points="1169,-156.5 1169,-197.5 1309,-197.5 1309,-156.5 1169,-156.5"/>
<text text-anchor="start" x="1177" y="-185.5" font-family="Helvetica,sans-Serif" font-size="10.00">ACSL&#45;flightstack&#45;winged</text>
<text text-anchor="start" x="1177" y="-174.5" font-family="Helvetica,sans-Serif" font-size="10.00">/src/acsl_flight/src/mocap</text>
<text text-anchor="middle" x="1239" y="-163.5" font-family="Helvetica,sans-Serif" font-size="10.00">/mocap.cpp</text>
</a>
</g>
</g>
<!-- Node8&#45;&gt;Node9 -->
<g id="edge11" class="edge">
<title>Node8&#45;&gt;Node9</title>
<path fill="none" stroke="midnightblue" d="M1239.61,-224.3C1239.49,-215.3 1239.36,-205.65 1239.26,-197.51"/>
<polygon fill="midnightblue" stroke="midnightblue" points="1236.11,-224.48 1239.74,-234.43 1243.11,-224.38 1236.11,-224.48"/>
</g>
<!-- Node10&#45;&gt;Node3 -->
<g id="edge13" class="edge">
<title>Node10&#45;&gt;Node3</title>
<path fill="none" stroke="midnightblue" d="M272.7,-501.05C260.08,-491.51 247.94,-479.42 241,-465 197.04,-373.63 222.97,-246.17 235.45,-197.73"/>
<polygon fill="midnightblue" stroke="midnightblue" points="270.83,-504.01 281.01,-506.95 274.88,-498.31 270.83,-504.01"/>
</g>
<!-- Node11 -->
<g id="node11" class="node">
<title>Node11</title>
<g id="a_node11"><a xlink:href="read__pix_8cpp.html" target="_top" xlink:title="Class definiton for reading pixhawk data.">
<polygon fill="white" stroke="black" points="250.5,-412.5 250.5,-453.5 385.5,-453.5 385.5,-412.5 250.5,-412.5"/>
<text text-anchor="start" x="258.5" y="-441.5" font-family="Helvetica,sans-Serif" font-size="10.00">ACSL&#45;flightstack&#45;winged</text>
<text text-anchor="start" x="258.5" y="-430.5" font-family="Helvetica,sans-Serif" font-size="10.00">/src/acsl_flight/src/read</text>
<text text-anchor="middle" x="318" y="-419.5" font-family="Helvetica,sans-Serif" font-size="10.00">_pix/read_pix.cpp</text>
</a>
</g>
</g>
<!-- Node10&#45;&gt;Node11 -->
<g id="edge14" class="edge">
<title>Node10&#45;&gt;Node11</title>
<path fill="none" stroke="midnightblue" d="M318,-496.65C318,-482.54 318,-466.09 318,-453.59"/>
<polygon fill="midnightblue" stroke="midnightblue" points="314.5,-496.88 318,-506.88 321.5,-496.88 314.5,-496.88"/>
</g>
<!-- Node13 -->
<g id="node13" class="node">
<title>Node13</title>
<g id="a_node13"><a xlink:href="MRAC__OMEGA_8hpp.html" target="_top" xlink:title="MRAC with angular velocities for the QRBP.">
<polygon fill="white" stroke="black" points="801,-401.5 801,-464.5 955,-464.5 955,-401.5 801,-401.5"/>
<text text-anchor="start" x="809" y="-452.5" font-family="Helvetica,sans-Serif" font-size="10.00">ACSL&#45;flightstack&#45;winged</text>
<text text-anchor="start" x="809" y="-441.5" font-family="Helvetica,sans-Serif" font-size="10.00">/src/acsl_flight/include</text>
<text text-anchor="start" x="809" y="-430.5" font-family="Helvetica,sans-Serif" font-size="10.00">/control/platforms/qrbp</text>
<text text-anchor="start" x="809" y="-419.5" font-family="Helvetica,sans-Serif" font-size="10.00">/control_algorithms/MRAC</text>
<text text-anchor="middle" x="878" y="-408.5" font-family="Helvetica,sans-Serif" font-size="10.00">_OMEGA/MRAC_OMEGA.hpp</text>
</a>
</g>
</g>
<!-- Node12&#45;&gt;Node13 -->
<g id="edge16" class="edge">
<title>Node12&#45;&gt;Node13</title>
<path fill="none" stroke="midnightblue" d="M878,-490.94C878,-482.23 878,-472.97 878,-464.51"/>
<polygon fill="midnightblue" stroke="midnightblue" points="874.5,-491.22 878,-501.22 881.5,-491.22 874.5,-491.22"/>
</g>
<!-- Node15 -->
<g id="node15" class="node">
<title>Node15</title>
<g id="a_node15"><a xlink:href="MRAC__PID_8hpp.html" target="_top" xlink:title="MRAC_PID for the QRBP.">
<polygon fill="white" stroke="black" points="973.5,-401.5 973.5,-464.5 1116.5,-464.5 1116.5,-401.5 973.5,-401.5"/>
<text text-anchor="start" x="981.5" y="-452.5" font-family="Helvetica,sans-Serif" font-size="10.00">ACSL&#45;flightstack&#45;winged</text>
<text text-anchor="start" x="981.5" y="-441.5" font-family="Helvetica,sans-Serif" font-size="10.00">/src/acsl_flight/include</text>
<text text-anchor="start" x="981.5" y="-430.5" font-family="Helvetica,sans-Serif" font-size="10.00">/control/platforms/qrbp</text>
<text text-anchor="start" x="981.5" y="-419.5" font-family="Helvetica,sans-Serif" font-size="10.00">/control_algorithms/MRAC</text>
<text text-anchor="middle" x="1045" y="-408.5" font-family="Helvetica,sans-Serif" font-size="10.00">_PID/MRAC_PID.hpp</text>
</a>
</g>
</g>
<!-- Node12&#45;&gt;Node15 -->
<g id="edge18" class="edge">
<title>Node12&#45;&gt;Node15</title>
<path fill="none" stroke="midnightblue" d="M932.05,-496.56C950.48,-486.35 971.11,-474.93 989.64,-464.66"/>
<polygon fill="midnightblue" stroke="midnightblue" points="930.24,-493.56 923.19,-501.47 933.64,-499.68 930.24,-493.56"/>
</g>
<!-- Node17 -->
<g id="node17" class="node">
<title>Node17</title>
<g id="a_node17"><a xlink:href="PID_8hpp.html" target="_top" xlink:title="PID for the QRBP.">
<polygon fill="white" stroke="black" points="403.5,-407 403.5,-459 574.5,-459 574.5,-407 403.5,-407"/>
<text text-anchor="start" x="411.5" y="-447" font-family="Helvetica,sans-Serif" font-size="10.00">ACSL&#45;flightstack&#45;winged</text>
<text text-anchor="start" x="411.5" y="-436" font-family="Helvetica,sans-Serif" font-size="10.00">/src/acsl_flight/include</text>
<text text-anchor="start" x="411.5" y="-425" font-family="Helvetica,sans-Serif" font-size="10.00">/control/platforms/qrbp</text>
<text text-anchor="middle" x="489" y="-414" font-family="Helvetica,sans-Serif" font-size="10.00">/control_algorithms/PID/PID.hpp</text>
</a>
</g>
</g>
<!-- Node12&#45;&gt;Node17 -->
<g id="edge20" class="edge">
<title>Node12&#45;&gt;Node17</title>
<path fill="none" stroke="midnightblue" d="M775.62,-507.93C718.81,-496.92 647.09,-481.84 584,-465 577.21,-463.19 570.19,-461.17 563.19,-459.07"/>
<polygon fill="midnightblue" stroke="midnightblue" points="775.21,-511.42 785.69,-509.87 776.53,-504.55 775.21,-511.42"/>
</g>
<!-- Node19 -->
<g id="node19" class="node">
<title>Node19</title>
<g id="a_node19"><a xlink:href="PID__OMEGA_8hpp.html" target="_top" xlink:title="PID with angular veocities for the QRBP.">
<polygon fill="white" stroke="black" points="1134.5,-401.5 1134.5,-464.5 1307.5,-464.5 1307.5,-401.5 1134.5,-401.5"/>
<text text-anchor="start" x="1142.5" y="-452.5" font-family="Helvetica,sans-Serif" font-size="10.00">ACSL&#45;flightstack&#45;winged</text>
<text text-anchor="start" x="1142.5" y="-441.5" font-family="Helvetica,sans-Serif" font-size="10.00">/src/acsl_flight/include</text>
<text text-anchor="start" x="1142.5" y="-430.5" font-family="Helvetica,sans-Serif" font-size="10.00">/control/platforms/qrbp</text>
<text text-anchor="start" x="1142.5" y="-419.5" font-family="Helvetica,sans-Serif" font-size="10.00">/control_algorithms/PID_OMEGA</text>
<text text-anchor="middle" x="1221" y="-408.5" font-family="Helvetica,sans-Serif" font-size="10.00">/PID_OMEGA.hpp</text>
</a>
</g>
</g>
<!-- Node12&#45;&gt;Node19 -->
<g id="edge22" class="edge">
<title>Node12&#45;&gt;Node19</title>
<path fill="none" stroke="midnightblue" d="M980.04,-502.95C1025,-492.13 1078.33,-478.67 1126,-465 1128.75,-464.21 1131.54,-463.39 1134.36,-462.56"/>
<polygon fill="midnightblue" stroke="midnightblue" points="979.19,-499.56 970.29,-505.29 980.83,-506.37 979.19,-499.56"/>
</g>
<!-- Node24 -->
<g id="node24" class="node">
<title>Node24</title>
<g id="a_node24"><a xlink:href="PID__TD_8hpp.html" target="_top" xlink:title="PID for the ros test drone.">
<polygon fill="white" stroke="black" points="593,-407 593,-459 783,-459 783,-407 593,-407"/>
<text text-anchor="start" x="601" y="-447" font-family="Helvetica,sans-Serif" font-size="10.00">ACSL&#45;flightstack&#45;winged</text>
<text text-anchor="start" x="601" y="-436" font-family="Helvetica,sans-Serif" font-size="10.00">/src/acsl_flight/include</text>
<text text-anchor="start" x="601" y="-425" font-family="Helvetica,sans-Serif" font-size="10.00">/control/platforms/rostestdrone</text>
<text text-anchor="middle" x="688" y="-414" font-family="Helvetica,sans-Serif" font-size="10.00">/control_algorithms/PID/PID_TD.hpp</text>
</a>
</g>
</g>
<!-- Node12&#45;&gt;Node24 -->
<g id="edge31" class="edge">
<title>Node12&#45;&gt;Node24</title>
<path fill="none" stroke="midnightblue" d="M817.51,-497.05C792.39,-484.82 763.54,-470.78 739.46,-459.05"/>
<polygon fill="midnightblue" stroke="midnightblue" points="816.06,-500.24 826.58,-501.47 819.12,-493.94 816.06,-500.24"/>
</g>
<!-- Node14 -->
<g id="node14" class="node">
<title>Node14</title>
<g id="a_node14"><a xlink:href="MRAC__OMEGA_8cpp.html" target="_top" xlink:title="MRAC with angular velocities for the QRBP. Inherts the class controller_base for the basic functional...">
<polygon fill="white" stroke="black" points="640,-312.5 640,-364.5 826,-364.5 826,-312.5 640,-312.5"/>
<text text-anchor="start" x="648" y="-352.5" font-family="Helvetica,sans-Serif" font-size="10.00">ACSL&#45;flightstack&#45;winged</text>
<text text-anchor="start" x="648" y="-341.5" font-family="Helvetica,sans-Serif" font-size="10.00">/src/acsl_flight/src/control</text>
<text text-anchor="start" x="648" y="-330.5" font-family="Helvetica,sans-Serif" font-size="10.00">/platforms/qrbp/control_algorithms</text>
<text text-anchor="middle" x="733" y="-319.5" font-family="Helvetica,sans-Serif" font-size="10.00">/MRAC_OMEGA/MRAC_OMEGA.cpp</text>
</a>
</g>
</g>
<!-- Node13&#45;&gt;Node14 -->
<g id="edge17" class="edge">
<title>Node13&#45;&gt;Node14</title>
<path fill="none" stroke="midnightblue" d="M821.67,-396.07C805.28,-385.61 787.73,-374.42 772.61,-364.77"/>
<polygon fill="midnightblue" stroke="midnightblue" points="819.81,-399.03 830.12,-401.46 823.57,-393.13 819.81,-399.03"/>
</g>
<!-- Node16 -->
<g id="node16" class="node">
<title>Node16</title>
<g id="a_node16"><a xlink:href="MRAC__PID_8cpp.html" target="_top" xlink:title="MRAC_PID for the QRBP.">
<polygon fill="white" stroke="black" points="844,-312.5 844,-364.5 1030,-364.5 1030,-312.5 844,-312.5"/>
<text text-anchor="start" x="852" y="-352.5" font-family="Helvetica,sans-Serif" font-size="10.00">ACSL&#45;flightstack&#45;winged</text>
<text text-anchor="start" x="852" y="-341.5" font-family="Helvetica,sans-Serif" font-size="10.00">/src/acsl_flight/src/control</text>
<text text-anchor="start" x="852" y="-330.5" font-family="Helvetica,sans-Serif" font-size="10.00">/platforms/qrbp/control_algorithms</text>
<text text-anchor="middle" x="937" y="-319.5" font-family="Helvetica,sans-Serif" font-size="10.00">/MRAC_PID/MRAC_PID.cpp</text>
</a>
</g>
</g>
<!-- Node15&#45;&gt;Node16 -->
<g id="edge19" class="edge">
<title>Node15&#45;&gt;Node16</title>
<path fill="none" stroke="midnightblue" d="M1001.7,-394.91C989.88,-384.79 977.35,-374.06 966.5,-364.77"/>
<polygon fill="midnightblue" stroke="midnightblue" points="999.47,-397.61 1009.34,-401.46 1004.02,-392.29 999.47,-397.61"/>
</g>
<!-- Node18 -->
<g id="node18" class="node">
<title>Node18</title>
<g id="a_node18"><a xlink:href="PID_8cpp.html" target="_top" xlink:title=" ">
<polygon fill="white" stroke="black" points="250,-312.5 250,-364.5 436,-364.5 436,-312.5 250,-312.5"/>
<text text-anchor="start" x="258" y="-352.5" font-family="Helvetica,sans-Serif" font-size="10.00">ACSL&#45;flightstack&#45;winged</text>
<text text-anchor="start" x="258" y="-341.5" font-family="Helvetica,sans-Serif" font-size="10.00">/src/acsl_flight/src/control</text>
<text text-anchor="start" x="258" y="-330.5" font-family="Helvetica,sans-Serif" font-size="10.00">/platforms/qrbp/control_algorithms</text>
<text text-anchor="middle" x="343" y="-319.5" font-family="Helvetica,sans-Serif" font-size="10.00">/PID/PID.cpp</text>
</a>
</g>
</g>
<!-- Node17&#45;&gt;Node18 -->
<g id="edge21" class="edge">
<title>Node17&#45;&gt;Node18</title>
<path fill="none" stroke="midnightblue" d="M440.99,-401.58C422.05,-389.58 400.56,-375.97 382.54,-364.55"/>
<polygon fill="midnightblue" stroke="midnightblue" points="439.17,-404.57 449.49,-406.97 442.92,-398.66 439.17,-404.57"/>
</g>
<!-- Node20 -->
<g id="node20" class="node">
<title>Node20</title>
<g id="a_node20"><a xlink:href="control__config_8hpp.html" target="_top" xlink:title="Just a header file for configuring which platform and controller to pick during compilation.">
<polygon fill="white" stroke="black" points="1252,-318 1252,-359 1398,-359 1398,-318 1252,-318"/>
<text text-anchor="start" x="1260" y="-347" font-family="Helvetica,sans-Serif" font-size="10.00">ACSL&#45;flightstack&#45;winged</text>
<text text-anchor="start" x="1260" y="-336" font-family="Helvetica,sans-Serif" font-size="10.00">/src/acsl_flight/include</text>
<text text-anchor="middle" x="1325" y="-325" font-family="Helvetica,sans-Serif" font-size="10.00">/control/control_config.hpp</text>
</a>
</g>
</g>
<!-- Node19&#45;&gt;Node20 -->
<g id="edge23" class="edge">
<title>Node19&#45;&gt;Node20</title>
<path fill="none" stroke="midnightblue" d="M1262.81,-394.81C1276.49,-382.64 1291.15,-369.61 1302.8,-359.25"/>
<polygon fill="midnightblue" stroke="midnightblue" points="1260.49,-392.19 1255.34,-401.46 1265.14,-397.43 1260.49,-392.19"/>
</g>
<!-- Node23 -->
<g id="node23" class="node">
<title>Node23</title>
<g id="a_node23"><a xlink:href="PID__OMEGA_8cpp.html" target="_top" xlink:title="PID with angular velocities for the QRBP.">
<polygon fill="white" stroke="black" points="1048,-312.5 1048,-364.5 1234,-364.5 1234,-312.5 1048,-312.5"/>
<text text-anchor="start" x="1056" y="-352.5" font-family="Helvetica,sans-Serif" font-size="10.00">ACSL&#45;flightstack&#45;winged</text>
<text text-anchor="start" x="1056" y="-341.5" font-family="Helvetica,sans-Serif" font-size="10.00">/src/acsl_flight/src/control</text>
<text text-anchor="start" x="1056" y="-330.5" font-family="Helvetica,sans-Serif" font-size="10.00">/platforms/qrbp/control_algorithms</text>
<text text-anchor="middle" x="1141" y="-319.5" font-family="Helvetica,sans-Serif" font-size="10.00">/PID_OMEGA/PID_OMEGA.cpp</text>
</a>
</g>
</g>
<!-- Node19&#45;&gt;Node23 -->
<g id="edge30" class="edge">
<title>Node19&#45;&gt;Node23</title>
<path fill="none" stroke="midnightblue" d="M1187.92,-393.75C1179.47,-383.98 1170.58,-373.71 1162.85,-364.77"/>
<polygon fill="midnightblue" stroke="midnightblue" points="1185.39,-396.18 1194.58,-401.46 1190.69,-391.6 1185.39,-396.18"/>
</g>
<!-- Node20&#45;&gt;Node2 -->
<g id="edge24" class="edge">
<title>Node20&#45;&gt;Node2</title>
<path fill="none" stroke="midnightblue" d="M1258.55,-315.3C1253.32,-314.03 1248.1,-312.9 1243,-312 1136.19,-293.12 386.51,-266.2 155.56,-258.28"/>
<polygon fill="midnightblue" stroke="midnightblue" points="1258,-318.77 1268.56,-317.91 1259.76,-312 1258,-318.77"/>
</g>
<!-- Node20&#45;&gt;Node3 -->
<g id="edge25" class="edge">
<title>Node20&#45;&gt;Node3</title>
<path fill="none" stroke="midnightblue" d="M1256.35,-315.23C1251.86,-314.06 1247.38,-312.97 1243,-312 906.23,-237.67 496.1,-198.5 323.65,-184.31"/>
<polygon fill="midnightblue" stroke="midnightblue" points="1255.63,-318.66 1266.2,-317.91 1257.47,-311.91 1255.63,-318.66"/>
</g>
<!-- Node20&#45;&gt;Node8 -->
<g id="edge26" class="edge">
<title>Node20&#45;&gt;Node8</title>
<path fill="none" stroke="midnightblue" d="M1296.88,-310.54C1284.96,-299.1 1271.32,-286.03 1260.39,-275.55"/>
<polygon fill="midnightblue" stroke="midnightblue" points="1294.78,-313.38 1304.42,-317.77 1299.63,-308.32 1294.78,-313.38"/>
</g>
<!-- Node20&#45;&gt;Node21 -->
<g id="edge27" class="edge">
<title>Node20&#45;&gt;Node21</title>
<path fill="none" stroke="midnightblue" d="M1348.38,-309.88C1357.93,-298.61 1368.75,-285.83 1377.45,-275.55"/>
<polygon fill="midnightblue" stroke="midnightblue" points="1345.49,-307.88 1341.7,-317.77 1350.84,-312.4 1345.49,-307.88"/>
</g>
<!-- Node21&#45;&gt;Node3 -->
<g id="edge28" class="edge">
<title>Node21&#45;&gt;Node3</title>
<path fill="none" stroke="midnightblue" d="M1316.15,-234.09C1107.02,-203.91 537.44,-186.01 323.53,-180.14"/>
<polygon fill="midnightblue" stroke="midnightblue" points="1315.73,-237.56 1326.14,-235.58 1316.76,-230.64 1315.73,-237.56"/>
</g>
<!-- Node22 -->
<g id="node22" class="node">
<title>Node22</title>
<g id="a_node22"><a xlink:href="vio_8cpp.html" target="_top" xlink:title="Node definition for Intel Realsense T265 tracking camera as a lifecycle node.">
<polygon fill="white" stroke="black" points="1327.5,-156.5 1327.5,-197.5 1462.5,-197.5 1462.5,-156.5 1327.5,-156.5"/>
<text text-anchor="start" x="1335.5" y="-185.5" font-family="Helvetica,sans-Serif" font-size="10.00">ACSL&#45;flightstack&#45;winged</text>
<text text-anchor="start" x="1335.5" y="-174.5" font-family="Helvetica,sans-Serif" font-size="10.00">/src/acsl_flight/src/vio</text>
<text text-anchor="middle" x="1395" y="-163.5" font-family="Helvetica,sans-Serif" font-size="10.00">/vio.cpp</text>
</a>
</g>
</g>
<!-- Node21&#45;&gt;Node22 -->
<g id="edge29" class="edge">
<title>Node21&#45;&gt;Node22</title>
<path fill="none" stroke="midnightblue" d="M1394.39,-224.3C1394.51,-215.3 1394.64,-205.65 1394.74,-197.51"/>
<polygon fill="midnightblue" stroke="midnightblue" points="1390.89,-224.38 1394.26,-234.43 1397.89,-224.48 1390.89,-224.38"/>
</g>
<!-- Node25 -->
<g id="node25" class="node">
<title>Node25</title>
<g id="a_node25"><a xlink:href="PID__TD_8cpp.html" target="_top" xlink:title="PID for the rostestdrone.">
<polygon fill="white" stroke="black" points="454,-312.5 454,-364.5 622,-364.5 622,-312.5 454,-312.5"/>
<text text-anchor="start" x="462" y="-352.5" font-family="Helvetica,sans-Serif" font-size="10.00">ACSL&#45;flightstack&#45;winged</text>
<text text-anchor="start" x="462" y="-341.5" font-family="Helvetica,sans-Serif" font-size="10.00">/src/acsl_flight/src/control</text>
<text text-anchor="start" x="462" y="-330.5" font-family="Helvetica,sans-Serif" font-size="10.00">/platforms/rostestdrone/control</text>
<text text-anchor="middle" x="538" y="-319.5" font-family="Helvetica,sans-Serif" font-size="10.00">_algorithms/PID/PID_TD.cpp</text>
</a>
</g>
</g>
<!-- Node24&#45;&gt;Node25 -->
<g id="edge32" class="edge">
<title>Node24&#45;&gt;Node25</title>
<path fill="none" stroke="midnightblue" d="M638.67,-401.58C619.22,-389.58 597.14,-375.97 578.62,-364.55"/>
<polygon fill="midnightblue" stroke="midnightblue" points="637.06,-404.7 647.41,-406.97 640.73,-398.74 637.06,-404.7"/>
</g>
</g>
</svg>
