<?xml version="1.0" encoding="UTF-8" standalone="no"?>
<!DOCTYPE svg PUBLIC "-//W3C//DTD SVG 1.1//EN"
 "http://www.w3.org/Graphics/SVG/1.1/DTD/svg11.dtd">
<!-- Generated by graphviz version 2.43.0 (0)
 -->
<!-- Title: ACSL&#45;flightstack&#45;winged/src/acsl_flight/src/vehicle_class/vehicle_class.cpp Pages: 1 -->
<svg width="150pt" height="162pt"
 viewBox="0.00 0.00 150.00 162.00" xmlns="http://www.w3.org/2000/svg" xmlns:xlink="http://www.w3.org/1999/xlink">
<g id="graph0" class="graph" transform="scale(1 1) rotate(0) translate(4 158)">
<title>ACSL&#45;flightstack&#45;winged/src/acsl_flight/src/vehicle_class/vehicle_class.cpp</title>
<polygon fill="white" stroke="transparent" points="-4,4 -4,-158 146,-158 146,4 -4,4"/>
<!-- Node1 -->
<g id="node1" class="node">
<title>Node1</title>
<g id="a_node1"><a xlink:title="Getter and setter functions for the vehicle class object.">
<polygon fill="#bfbfbf" stroke="black" points="0,-112.5 0,-153.5 142,-153.5 142,-112.5 0,-112.5"/>
<text text-anchor="start" x="8" y="-141.5" font-family="Helvetica,sans-Serif" font-size="10.00">ACSL&#45;flightstack&#45;winged</text>
<text text-anchor="start" x="8" y="-130.5" font-family="Helvetica,sans-Serif" font-size="10.00">/src/acsl_flight/src/vehicle</text>
<text text-anchor="middle" x="71" y="-119.5" font-family="Helvetica,sans-Serif" font-size="10.00">_class/vehicle_class.cpp</text>
</a>
</g>
</g>
<!-- Node2 -->
<g id="node2" class="node">
<title>Node2</title>
<g id="a_node2"><a xlink:href="vehicle__class_8hpp.html" target="_top" xlink:title="Header for the vehicle class object.">
<polygon fill="white" stroke="black" points="19.5,-56.5 19.5,-75.5 122.5,-75.5 122.5,-56.5 19.5,-56.5"/>
<text text-anchor="middle" x="71" y="-63.5" font-family="Helvetica,sans-Serif" font-size="10.00">vehicle_class.hpp</text>
</a>
</g>
</g>
<!-- Node1&#45;&gt;Node2 -->
<g id="edge1" class="edge">
<title>Node1&#45;&gt;Node2</title>
<path fill="none" stroke="midnightblue" d="M71,-112.5C71,-104.07 71,-94.24 71,-85.87"/>
<polygon fill="midnightblue" stroke="midnightblue" points="74.5,-85.65 71,-75.65 67.5,-85.65 74.5,-85.65"/>
</g>
<!-- Node3 -->
<g id="node3" class="node">
<title>Node3</title>
<g id="a_node3"><a xlink:title=" ">
<polygon fill="white" stroke="#bfbfbf" points="13,-0.5 13,-19.5 63,-19.5 63,-0.5 13,-0.5"/>
<text text-anchor="middle" x="38" y="-7.5" font-family="Helvetica,sans-Serif" font-size="10.00">atomic</text>
</a>
</g>
</g>
<!-- Node2&#45;&gt;Node3 -->
<g id="edge2" class="edge">
<title>Node2&#45;&gt;Node3</title>
<path fill="none" stroke="midnightblue" d="M65.55,-56.08C60.99,-48.61 54.33,-37.72 48.71,-28.52"/>
<polygon fill="midnightblue" stroke="midnightblue" points="51.55,-26.46 43.35,-19.75 45.58,-30.11 51.55,-26.46"/>
</g>
<!-- Node4 -->
<g id="node4" class="node">
<title>Node4</title>
<g id="a_node4"><a xlink:title=" ">
<polygon fill="white" stroke="#bfbfbf" points="81.5,-0.5 81.5,-19.5 128.5,-19.5 128.5,-0.5 81.5,-0.5"/>
<text text-anchor="middle" x="105" y="-7.5" font-family="Helvetica,sans-Serif" font-size="10.00">cmath</text>
</a>
</g>
</g>
<!-- Node2&#45;&gt;Node4 -->
<g id="edge3" class="edge">
<title>Node2&#45;&gt;Node4</title>
<path fill="none" stroke="midnightblue" d="M76.61,-56.08C81.37,-48.53 88.32,-37.49 94.15,-28.23"/>
<polygon fill="midnightblue" stroke="midnightblue" points="97.12,-30.08 99.49,-19.75 91.2,-26.35 97.12,-30.08"/>
</g>
</g>
</svg>
