<?xml version="1.0" encoding="UTF-8" standalone="no"?>
<!DOCTYPE svg PUBLIC "-//W3C//DTD SVG 1.1//EN"
 "http://www.w3.org/Graphics/SVG/1.1/DTD/svg11.dtd">
<!-- Generated by graphviz version 2.43.0 (0)
 -->
<!-- Title: ACSL&#45;flightstack&#45;winged/src/acsl_flight/src/vio/vio.cpp Pages: 1 -->
<svg width="3783pt" height="296pt"
 viewBox="0.00 0.00 3782.50 296.00" xmlns="http://www.w3.org/2000/svg" xmlns:xlink="http://www.w3.org/1999/xlink">
<g id="graph0" class="graph" transform="scale(1 1) rotate(0) translate(4 292)">
<title>ACSL&#45;flightstack&#45;winged/src/acsl_flight/src/vio/vio.cpp</title>
<polygon fill="white" stroke="transparent" points="-4,4 -4,-292 3778.5,-292 3778.5,4 -4,4"/>
<!-- Node1 -->
<g id="node1" class="node">
<title>Node1</title>
<g id="a_node1"><a xlink:title="Node definition for Intel Realsense T265 tracking camera as a lifecycle node.">
<polygon fill="#bfbfbf" stroke="black" points="1277.5,-246.5 1277.5,-287.5 1412.5,-287.5 1412.5,-246.5 1277.5,-246.5"/>
<text text-anchor="start" x="1285.5" y="-275.5" font-family="Helvetica,sans-Serif" font-size="10.00">ACSL&#45;flightstack&#45;winged</text>
<text text-anchor="start" x="1285.5" y="-264.5" font-family="Helvetica,sans-Serif" font-size="10.00">/src/acsl_flight/src/vio</text>
<text text-anchor="middle" x="1345" y="-253.5" font-family="Helvetica,sans-Serif" font-size="10.00">/vio.cpp</text>
</a>
</g>
</g>
<!-- Node2 -->
<g id="node2" class="node">
<title>Node2</title>
<g id="a_node2"><a xlink:href="vio_8hpp.html" target="_top" xlink:title="Class decleration for Intel Realsense T265 tracking camera as a lifecycle node.">
<polygon fill="white" stroke="black" points="1318.5,-190.5 1318.5,-209.5 1371.5,-209.5 1371.5,-190.5 1318.5,-190.5"/>
<text text-anchor="middle" x="1345" y="-197.5" font-family="Helvetica,sans-Serif" font-size="10.00">vio.hpp</text>
</a>
</g>
</g>
<!-- Node1&#45;&gt;Node2 -->
<g id="edge1" class="edge">
<title>Node1&#45;&gt;Node2</title>
<path fill="none" stroke="midnightblue" d="M1345,-246.5C1345,-238.07 1345,-228.24 1345,-219.87"/>
<polygon fill="midnightblue" stroke="midnightblue" points="1348.5,-219.65 1345,-209.65 1341.5,-219.65 1348.5,-219.65"/>
</g>
<!-- Node3 -->
<g id="node3" class="node">
<title>Node3</title>
<g id="a_node3"><a xlink:href="control__config_8hpp.html" target="_top" xlink:title="Just a header file for configuring which platform and controller to pick during compilation.">
<polygon fill="white" stroke="black" points="0,-129 0,-148 106,-148 106,-129 0,-129"/>
<text text-anchor="middle" x="53" y="-136" font-family="Helvetica,sans-Serif" font-size="10.00">control_config.hpp</text>
</a>
</g>
</g>
<!-- Node2&#45;&gt;Node3 -->
<g id="edge2" class="edge">
<title>Node2&#45;&gt;Node3</title>
<path fill="none" stroke="midnightblue" d="M1318.25,-198.64C1161.91,-196.42 365.05,-183.79 122,-154 114.14,-153.04 105.85,-151.63 97.84,-150.08"/>
<polygon fill="midnightblue" stroke="midnightblue" points="98.41,-146.62 87.91,-148.04 97,-153.48 98.41,-146.62"/>
</g>
<!-- Node76 -->
<g id="node5" class="node">
<title>Node76</title>
<g id="a_node5"><a xlink:title=" ">
<polygon fill="white" stroke="#bfbfbf" points="131.5,-129 131.5,-148 246.5,-148 246.5,-129 131.5,-129"/>
<text text-anchor="middle" x="189" y="-136" font-family="Helvetica,sans-Serif" font-size="10.00">librealsense2/rs.hpp</text>
</a>
</g>
</g>
<!-- Node2&#45;&gt;Node76 -->
<g id="edge4" class="edge">
<title>Node2&#45;&gt;Node76</title>
<path fill="none" stroke="midnightblue" d="M1318.39,-198.52C1172.74,-195.81 470.91,-181.49 256,-154 248.45,-153.03 240.49,-151.65 232.79,-150.11"/>
<polygon fill="midnightblue" stroke="midnightblue" points="233.4,-146.66 222.89,-148.02 231.95,-153.51 233.4,-146.66"/>
</g>
<!-- Node16 -->
<g id="node6" class="node">
<title>Node16</title>
<g id="a_node6"><a xlink:href="px4__defines_8hpp.html" target="_top" xlink:title="Contains useful constant defines for use in the flight stack in a central location.">
<polygon fill="white" stroke="black" points="265,-129 265,-148 361,-148 361,-129 265,-129"/>
<text text-anchor="middle" x="313" y="-136" font-family="Helvetica,sans-Serif" font-size="10.00">px4_defines.hpp</text>
</a>
</g>
</g>
<!-- Node2&#45;&gt;Node16 -->
<g id="edge5" class="edge">
<title>Node2&#45;&gt;Node16</title>
<path fill="none" stroke="midnightblue" d="M1318.08,-198.5C1181.08,-195.82 560.44,-182.32 370,-154 364.05,-153.11 357.81,-151.87 351.75,-150.47"/>
<polygon fill="midnightblue" stroke="midnightblue" points="352.31,-147.01 341.77,-148.03 350.64,-153.81 352.31,-147.01"/>
</g>
<!-- Node18 -->
<g id="node8" class="node">
<title>Node18</title>
<g id="a_node8"><a xlink:href="global__helpers_8hpp.html" target="_top" xlink:title="Inline functions for all the classes of the flighstack to use.">
<polygon fill="white" stroke="black" points="379.5,-129 379.5,-148 488.5,-148 488.5,-129 379.5,-129"/>
<text text-anchor="middle" x="434" y="-136" font-family="Helvetica,sans-Serif" font-size="10.00">global_helpers.hpp</text>
</a>
</g>
</g>
<!-- Node2&#45;&gt;Node18 -->
<g id="edge7" class="edge">
<title>Node2&#45;&gt;Node18</title>
<path fill="none" stroke="midnightblue" d="M1318.32,-199.06C1213.76,-198.99 821.96,-195.79 503,-154 495.23,-152.98 487.04,-151.57 479.12,-150.02"/>
<polygon fill="midnightblue" stroke="midnightblue" points="479.78,-146.58 469.28,-148 478.37,-153.44 479.78,-146.58"/>
</g>
<!-- Node10 -->
<g id="node10" class="node">
<title>Node10</title>
<g id="a_node10"><a xlink:title=" ">
<polygon fill="white" stroke="#bfbfbf" points="309,-62 309,-81 353,-81 353,-62 309,-62"/>
<text text-anchor="middle" x="331" y="-69" font-family="Helvetica,sans-Serif" font-size="10.00">string</text>
</a>
</g>
</g>
<!-- Node2&#45;&gt;Node10 -->
<g id="edge44" class="edge">
<title>Node2&#45;&gt;Node10</title>
<path fill="none" stroke="midnightblue" d="M1318.21,-198.47C1186.45,-195.75 610.45,-182.33 536,-154 515.31,-146.13 516.73,-133.05 497,-123 443.57,-95.8 423.78,-106.23 367,-87 364.87,-86.28 362.69,-85.5 360.5,-84.69"/>
<polygon fill="midnightblue" stroke="midnightblue" points="361.62,-81.37 351.03,-81.03 359.1,-87.9 361.62,-81.37"/>
</g>
<!-- Node19 -->
<g id="node11" class="node">
<title>Node19</title>
<g id="a_node11"><a xlink:title=" ">
<polygon fill="white" stroke="#bfbfbf" points="409,-62 409,-81 465,-81 465,-62 409,-62"/>
<text text-anchor="middle" x="437" y="-69" font-family="Helvetica,sans-Serif" font-size="10.00">sstream</text>
</a>
</g>
</g>
<!-- Node2&#45;&gt;Node19 -->
<g id="edge46" class="edge">
<title>Node2&#45;&gt;Node19</title>
<path fill="none" stroke="midnightblue" d="M1318.37,-196.47C1190.72,-184.18 640.71,-129.69 474,-87 471.33,-86.32 468.6,-85.5 465.89,-84.59"/>
<polygon fill="midnightblue" stroke="midnightblue" points="466.88,-81.23 456.29,-81.09 464.48,-87.81 466.88,-81.23"/>
</g>
<!-- Node22 -->
<g id="node14" class="node">
<title>Node22</title>
<g id="a_node14"><a xlink:href="helper__functions_8hpp.html" target="_top" xlink:title="Definitions of some standard templates used in all controllers.">
<polygon fill="white" stroke="black" points="1823.5,-129 1823.5,-148 1942.5,-148 1942.5,-129 1823.5,-129"/>
<text text-anchor="middle" x="1883" y="-136" font-family="Helvetica,sans-Serif" font-size="10.00">helper_functions.hpp</text>
</a>
</g>
</g>
<!-- Node2&#45;&gt;Node22 -->
<g id="edge13" class="edge">
<title>Node2&#45;&gt;Node22</title>
<path fill="none" stroke="midnightblue" d="M1371.68,-196.05C1451.92,-187.17 1692.93,-160.52 1813.18,-147.22"/>
<polygon fill="midnightblue" stroke="midnightblue" points="1813.82,-150.67 1823.38,-146.09 1813.05,-143.71 1813.82,-150.67"/>
</g>
<!-- Node37 -->
<g id="node31" class="node">
<title>Node37</title>
<g id="a_node31"><a xlink:title=" ">
<polygon fill="white" stroke="#bfbfbf" points="1323,-62 1323,-81 1367,-81 1367,-62 1323,-62"/>
<text text-anchor="middle" x="1345" y="-69" font-family="Helvetica,sans-Serif" font-size="10.00">ctime</text>
</a>
</g>
</g>
<!-- Node2&#45;&gt;Node37 -->
<g id="edge47" class="edge">
<title>Node2&#45;&gt;Node37</title>
<path fill="none" stroke="midnightblue" d="M1345,-190.31C1345,-169.99 1345,-119.05 1345,-91.28"/>
<polygon fill="midnightblue" stroke="midnightblue" points="1348.5,-91.26 1345,-81.26 1341.5,-91.26 1348.5,-91.26"/>
</g>
<!-- Node39 -->
<g id="node34" class="node">
<title>Node39</title>
<g id="a_node34"><a xlink:title=" ">
<polygon fill="white" stroke="#bfbfbf" points="3727.5,-62 3727.5,-81 3774.5,-81 3774.5,-62 3727.5,-62"/>
<text text-anchor="middle" x="3751" y="-69" font-family="Helvetica,sans-Serif" font-size="10.00">vector</text>
</a>
</g>
</g>
<!-- Node2&#45;&gt;Node39 -->
<g id="edge45" class="edge">
<title>Node2&#45;&gt;Node39</title>
<path fill="none" stroke="midnightblue" d="M1371.58,-199.13C1474.19,-199.33 1844.14,-196.97 1952,-154 1972.25,-145.93 1969.54,-130.53 1990,-123 2170.33,-56.65 3531.61,-129.52 3719,-87 3721.36,-86.46 3723.75,-85.75 3726.12,-84.92"/>
<polygon fill="midnightblue" stroke="midnightblue" points="3727.59,-88.1 3735.49,-81.05 3724.91,-81.63 3727.59,-88.1"/>
</g>
<!-- Node40 -->
<g id="node35" class="node">
<title>Node40</title>
<g id="a_node35"><a xlink:title=" ">
<polygon fill="white" stroke="#bfbfbf" points="1385,-62 1385,-81 1435,-81 1435,-62 1385,-62"/>
<text text-anchor="middle" x="1410" y="-69" font-family="Helvetica,sans-Serif" font-size="10.00">chrono</text>
</a>
</g>
</g>
<!-- Node2&#45;&gt;Node40 -->
<g id="edge42" class="edge">
<title>Node2&#45;&gt;Node40</title>
<path fill="none" stroke="midnightblue" d="M1349.47,-190.31C1360.04,-169.72 1386.78,-117.69 1400.92,-90.18"/>
<polygon fill="midnightblue" stroke="midnightblue" points="1404.04,-91.75 1405.5,-81.26 1397.82,-88.55 1404.04,-91.75"/>
</g>
<!-- Node77 -->
<g id="node38" class="node">
<title>Node77</title>
<g id="a_node38"><a xlink:title=" ">
<polygon fill="white" stroke="#bfbfbf" points="1999,-129 1999,-148 2057,-148 2057,-129 1999,-129"/>
<text text-anchor="middle" x="2028" y="-136" font-family="Helvetica,sans-Serif" font-size="10.00">memory</text>
</a>
</g>
</g>
<!-- Node2&#45;&gt;Node77 -->
<g id="edge43" class="edge">
<title>Node2&#45;&gt;Node77</title>
<path fill="none" stroke="midnightblue" d="M1371.53,-199.54C1459.73,-200.81 1750.73,-200.93 1985,-154 1988.69,-153.26 1992.51,-152.29 1996.27,-151.2"/>
<polygon fill="midnightblue" stroke="midnightblue" points="1997.5,-154.48 2005.98,-148.13 1995.39,-147.81 1997.5,-154.48"/>
</g>
<!-- Node78 -->
<g id="node39" class="node">
<title>Node78</title>
<g id="a_node39"><a xlink:title=" ">
<polygon fill="white" stroke="#bfbfbf" points="2075.5,-129 2075.5,-148 2174.5,-148 2174.5,-129 2075.5,-129"/>
<text text-anchor="middle" x="2125" y="-136" font-family="Helvetica,sans-Serif" font-size="10.00">rclcpp/rclcpp.hpp</text>
</a>
</g>
</g>
<!-- Node2&#45;&gt;Node78 -->
<g id="edge48" class="edge">
<title>Node2&#45;&gt;Node78</title>
<path fill="none" stroke="midnightblue" d="M1371.7,-199.05C1466.74,-198.85 1797.28,-195.07 2066,-154 2072.01,-153.08 2078.31,-151.84 2084.46,-150.47"/>
<polygon fill="midnightblue" stroke="midnightblue" points="2085.66,-153.78 2094.59,-148.07 2084.05,-146.97 2085.66,-153.78"/>
</g>
<!-- Node79 -->
<g id="node40" class="node">
<title>Node79</title>
<g id="a_node40"><a xlink:title=" ">
<polygon fill="white" stroke="#bfbfbf" points="2192.5,-123.5 2192.5,-153.5 2329.5,-153.5 2329.5,-123.5 2192.5,-123.5"/>
<text text-anchor="start" x="2200.5" y="-141.5" font-family="Helvetica,sans-Serif" font-size="10.00">rclcpp_lifecycle/lifecycle</text>
<text text-anchor="middle" x="2261" y="-130.5" font-family="Helvetica,sans-Serif" font-size="10.00">_node.hpp</text>
</a>
</g>
</g>
<!-- Node2&#45;&gt;Node79 -->
<g id="edge49" class="edge">
<title>Node2&#45;&gt;Node79</title>
<path fill="none" stroke="midnightblue" d="M1371.56,-198.85C1474.59,-198.02 1857.78,-192.44 2182.16,-154.12"/>
<polygon fill="midnightblue" stroke="midnightblue" points="2182.71,-157.58 2192.22,-152.92 2181.88,-150.63 2182.71,-157.58"/>
</g>
<!-- Node80 -->
<g id="node41" class="node">
<title>Node80</title>
<g id="a_node41"><a xlink:title=" ">
<polygon fill="white" stroke="#bfbfbf" points="2347.5,-123.5 2347.5,-153.5 2460.5,-153.5 2460.5,-123.5 2347.5,-123.5"/>
<text text-anchor="start" x="2355.5" y="-141.5" font-family="Helvetica,sans-Serif" font-size="10.00">lifecycle_msgs/msg</text>
<text text-anchor="middle" x="2404" y="-130.5" font-family="Helvetica,sans-Serif" font-size="10.00">/state.hpp</text>
</a>
</g>
</g>
<!-- Node2&#45;&gt;Node80 -->
<g id="edge50" class="edge">
<title>Node2&#45;&gt;Node80</title>
<path fill="none" stroke="midnightblue" d="M1371.52,-198.43C1507.02,-195.4 2123.68,-180.45 2337.22,-154.05"/>
<polygon fill="midnightblue" stroke="midnightblue" points="2337.91,-157.49 2347.38,-152.74 2337.02,-150.54 2337.91,-157.49"/>
</g>
<!-- Node81 -->
<g id="node42" class="node">
<title>Node81</title>
<g id="a_node42"><a xlink:title=" ">
<polygon fill="white" stroke="#bfbfbf" points="2479,-123.5 2479,-153.5 2607,-153.5 2607,-123.5 2479,-123.5"/>
<text text-anchor="start" x="2487" y="-141.5" font-family="Helvetica,sans-Serif" font-size="10.00">px4_msgs/msg/vehicle</text>
<text text-anchor="middle" x="2543" y="-130.5" font-family="Helvetica,sans-Serif" font-size="10.00">_odometry.hpp</text>
</a>
</g>
</g>
<!-- Node2&#45;&gt;Node81 -->
<g id="edge51" class="edge">
<title>Node2&#45;&gt;Node81</title>
<path fill="none" stroke="midnightblue" d="M1371.51,-198.5C1517.64,-195.67 2226.77,-180.84 2468.86,-153.97"/>
<polygon fill="midnightblue" stroke="midnightblue" points="2469.46,-157.42 2479,-152.8 2468.66,-150.47 2469.46,-157.42"/>
</g>
<!-- Node6 -->
<g id="node43" class="node">
<title>Node6</title>
<g id="a_node43"><a xlink:href="vehicle__class_8hpp.html" target="_top" xlink:title="Header for the vehicle class object.">
<polygon fill="white" stroke="black" points="545.5,-129 545.5,-148 648.5,-148 648.5,-129 545.5,-129"/>
<text text-anchor="middle" x="597" y="-136" font-family="Helvetica,sans-Serif" font-size="10.00">vehicle_class.hpp</text>
</a>
</g>
</g>
<!-- Node2&#45;&gt;Node6 -->
<g id="edge52" class="edge">
<title>Node2&#45;&gt;Node6</title>
<path fill="none" stroke="midnightblue" d="M1318.38,-196.88C1211.72,-188.4 813.6,-156.73 658.97,-144.43"/>
<polygon fill="midnightblue" stroke="midnightblue" points="658.95,-140.92 648.7,-143.61 658.39,-147.89 658.95,-140.92"/>
</g>
<!-- Node51 -->
<g id="node45" class="node">
<title>Node51</title>
<g id="a_node45"><a xlink:href="flight__log_8hpp.html" target="_top" xlink:title="Utilities for logging flight data.">
<polygon fill="white" stroke="red" points="1172.5,-129 1172.5,-148 1255.5,-148 1255.5,-129 1172.5,-129"/>
<text text-anchor="middle" x="1214" y="-136" font-family="Helvetica,sans-Serif" font-size="10.00">flight_log.hpp</text>
</a>
</g>
</g>
<!-- Node2&#45;&gt;Node51 -->
<g id="edge55" class="edge">
<title>Node2&#45;&gt;Node51</title>
<path fill="none" stroke="midnightblue" d="M1326.23,-190.48C1304.15,-180.45 1267.28,-163.7 1241.86,-152.15"/>
<polygon fill="midnightblue" stroke="midnightblue" points="1243.29,-148.96 1232.73,-148.01 1240.39,-155.33 1243.29,-148.96"/>
</g>
<!-- Node4 -->
<g id="node4" class="node">
<title>Node4</title>
<g id="a_node4"><a xlink:href="PID__OMEGA_8hpp.html" target="_top" xlink:title="PID with angular veocities for the QRBP.">
<polygon fill="white" stroke="red" points="1,-62 1,-81 97,-81 97,-62 1,-62"/>
<text text-anchor="middle" x="49" y="-69" font-family="Helvetica,sans-Serif" font-size="10.00">PID_OMEGA.hpp</text>
</a>
</g>
</g>
<!-- Node3&#45;&gt;Node4 -->
<g id="edge3" class="edge">
<title>Node3&#45;&gt;Node4</title>
<path fill="none" stroke="midnightblue" d="M52.46,-128.73C51.87,-119.18 50.91,-103.62 50.16,-91.28"/>
<polygon fill="midnightblue" stroke="midnightblue" points="53.64,-90.89 49.53,-81.13 46.65,-91.32 53.64,-90.89"/>
</g>
<!-- Node17 -->
<g id="node7" class="node">
<title>Node17</title>
<g id="a_node7"><a xlink:title=" ">
<polygon fill="white" stroke="#bfbfbf" points="115,-62 115,-81 165,-81 165,-62 115,-62"/>
<text text-anchor="middle" x="140" y="-69" font-family="Helvetica,sans-Serif" font-size="10.00">cstdint</text>
</a>
</g>
</g>
<!-- Node16&#45;&gt;Node17 -->
<g id="edge6" class="edge">
<title>Node16&#45;&gt;Node17</title>
<path fill="none" stroke="midnightblue" d="M290.03,-128.87C259.83,-117.52 206.6,-97.52 172.34,-84.65"/>
<polygon fill="midnightblue" stroke="midnightblue" points="173.38,-81.3 162.79,-81.06 170.92,-87.86 173.38,-81.3"/>
</g>
<!-- Node13 -->
<g id="node9" class="node">
<title>Node13</title>
<g id="a_node9"><a xlink:title=" ">
<polygon fill="white" stroke="#bfbfbf" points="483,-62 483,-81 543,-81 543,-62 483,-62"/>
<text text-anchor="middle" x="513" y="-69" font-family="Helvetica,sans-Serif" font-size="10.00">iostream</text>
</a>
</g>
</g>
<!-- Node18&#45;&gt;Node13 -->
<g id="edge8" class="edge">
<title>Node18&#45;&gt;Node13</title>
<path fill="none" stroke="midnightblue" d="M444.65,-128.73C457.45,-118.21 479.12,-100.38 494.63,-87.62"/>
<polygon fill="midnightblue" stroke="midnightblue" points="497.02,-90.18 502.51,-81.13 492.57,-84.78 497.02,-90.18"/>
</g>
<!-- Node18&#45;&gt;Node10 -->
<g id="edge9" class="edge">
<title>Node18&#45;&gt;Node10</title>
<path fill="none" stroke="midnightblue" d="M420.11,-128.73C402.97,-117.92 373.6,-99.38 353.29,-86.57"/>
<polygon fill="midnightblue" stroke="midnightblue" points="355,-83.5 344.67,-81.13 351.26,-89.42 355,-83.5"/>
</g>
<!-- Node18&#45;&gt;Node19 -->
<g id="edge10" class="edge">
<title>Node18&#45;&gt;Node19</title>
<path fill="none" stroke="midnightblue" d="M434.4,-128.73C434.85,-119.18 435.56,-103.62 436.13,-91.28"/>
<polygon fill="midnightblue" stroke="midnightblue" points="439.64,-91.28 436.6,-81.13 432.64,-90.96 439.64,-91.28"/>
</g>
<!-- Node20 -->
<g id="node12" class="node">
<title>Node20</title>
<g id="a_node12"><a xlink:title=" ">
<polygon fill="white" stroke="#bfbfbf" points="221.5,-62 221.5,-81 290.5,-81 290.5,-62 221.5,-62"/>
<text text-anchor="middle" x="256" y="-69" font-family="Helvetica,sans-Serif" font-size="10.00">type_traits</text>
</a>
</g>
</g>
<!-- Node18&#45;&gt;Node20 -->
<g id="edge11" class="edge">
<title>Node18&#45;&gt;Node20</title>
<path fill="none" stroke="midnightblue" d="M410.36,-128.87C379.29,-117.52 324.53,-97.52 289.28,-84.65"/>
<polygon fill="midnightblue" stroke="midnightblue" points="290.05,-81.21 279.45,-81.06 287.64,-87.78 290.05,-81.21"/>
</g>
<!-- Node21 -->
<g id="node13" class="node">
<title>Node21</title>
<g id="a_node13"><a xlink:title=" ">
<polygon fill="white" stroke="#bfbfbf" points="1572.5,-0.5 1572.5,-19.5 1649.5,-19.5 1649.5,-0.5 1572.5,-0.5"/>
<text text-anchor="middle" x="1611" y="-7.5" font-family="Helvetica,sans-Serif" font-size="10.00">Eigen/Dense</text>
</a>
</g>
</g>
<!-- Node18&#45;&gt;Node21 -->
<g id="edge12" class="edge">
<title>Node18&#45;&gt;Node21</title>
<path fill="none" stroke="midnightblue" d="M396.38,-128.98C333.1,-114.64 212.18,-87.23 212,-87 203.41,-76.23 202.42,-65.9 212,-56 259.89,-6.55 1319.41,-9.39 1561.88,-10.69"/>
<polygon fill="midnightblue" stroke="midnightblue" points="1562.12,-14.19 1572.14,-10.75 1562.16,-7.19 1562.12,-14.19"/>
</g>
<!-- Node22&#45;&gt;Node13 -->
<g id="edge26" class="edge">
<title>Node22&#45;&gt;Node13</title>
<path fill="none" stroke="midnightblue" d="M1823.43,-136.35C1581.25,-131.54 677.5,-112.04 552,-87 548.74,-86.35 545.39,-85.47 542.1,-84.45"/>
<polygon fill="midnightblue" stroke="midnightblue" points="543.08,-81.09 532.49,-81.13 540.79,-87.7 543.08,-81.09"/>
</g>
<!-- Node22&#45;&gt;Node10 -->
<g id="edge35" class="edge">
<title>Node22&#45;&gt;Node10</title>
<path fill="none" stroke="midnightblue" d="M1823.41,-136.08C1564.35,-129.83 542.74,-104.3 400,-87 387.91,-85.53 374.78,-83.02 363.26,-80.49"/>
<polygon fill="midnightblue" stroke="midnightblue" points="363.74,-77 353.21,-78.19 362.18,-83.83 363.74,-77"/>
</g>
<!-- Node22&#45;&gt;Node21 -->
<g id="edge15" class="edge">
<title>Node22&#45;&gt;Node21</title>
<path fill="none" stroke="midnightblue" d="M1823.23,-132.87C1757.38,-126.55 1657.19,-112.92 1630,-87 1614.58,-72.3 1610.91,-47.12 1610.4,-29.8"/>
<polygon fill="midnightblue" stroke="midnightblue" points="1613.9,-29.75 1610.42,-19.74 1606.9,-29.74 1613.9,-29.75"/>
</g>
<!-- Node23 -->
<g id="node15" class="node">
<title>Node23</title>
<g id="a_node15"><a xlink:title=" ">
<polygon fill="white" stroke="#bfbfbf" points="1815,-62 1815,-81 1857,-81 1857,-62 1815,-62"/>
<text text-anchor="middle" x="1836" y="-69" font-family="Helvetica,sans-Serif" font-size="10.00">array</text>
</a>
</g>
</g>
<!-- Node22&#45;&gt;Node23 -->
<g id="edge14" class="edge">
<title>Node22&#45;&gt;Node23</title>
<path fill="none" stroke="midnightblue" d="M1876.66,-128.73C1869.4,-118.7 1857.34,-102.01 1848.24,-89.42"/>
<polygon fill="midnightblue" stroke="midnightblue" points="1850.93,-87.18 1842.24,-81.13 1845.26,-91.28 1850.93,-87.18"/>
</g>
<!-- Node12 -->
<g id="node16" class="node">
<title>Node12</title>
<g id="a_node16"><a xlink:title=" ">
<polygon fill="white" stroke="#bfbfbf" points="1875,-62 1875,-81 1985,-81 1985,-62 1875,-62"/>
<text text-anchor="middle" x="1930" y="-69" font-family="Helvetica,sans-Serif" font-size="10.00">nlohmann/json.hpp</text>
</a>
</g>
</g>
<!-- Node22&#45;&gt;Node12 -->
<g id="edge16" class="edge">
<title>Node22&#45;&gt;Node12</title>
<path fill="none" stroke="midnightblue" d="M1889.34,-128.73C1896.6,-118.7 1908.66,-102.01 1917.76,-89.42"/>
<polygon fill="midnightblue" stroke="midnightblue" points="1920.74,-91.28 1923.76,-81.13 1915.07,-87.18 1920.74,-91.28"/>
</g>
<!-- Node24 -->
<g id="node17" class="node">
<title>Node24</title>
<g id="a_node17"><a xlink:title=" ">
<polygon fill="white" stroke="#bfbfbf" points="2003,-62 2003,-81 2095,-81 2095,-62 2003,-62"/>
<text text-anchor="middle" x="2049" y="-69" font-family="Helvetica,sans-Serif" font-size="10.00">boost/array.hpp</text>
</a>
</g>
</g>
<!-- Node22&#45;&gt;Node24 -->
<g id="edge17" class="edge">
<title>Node22&#45;&gt;Node24</title>
<path fill="none" stroke="midnightblue" d="M1905.04,-128.87C1933.9,-117.57 1984.65,-97.7 2017.54,-84.82"/>
<polygon fill="midnightblue" stroke="midnightblue" points="2019.09,-87.97 2027.13,-81.06 2016.54,-81.45 2019.09,-87.97"/>
</g>
<!-- Node25 -->
<g id="node18" class="node">
<title>Node25</title>
<g id="a_node18"><a xlink:title=" ">
<polygon fill="white" stroke="#bfbfbf" points="2113.5,-62 2113.5,-81 2226.5,-81 2226.5,-62 2113.5,-62"/>
<text text-anchor="middle" x="2170" y="-69" font-family="Helvetica,sans-Serif" font-size="10.00">boost/bind/bind.hpp</text>
</a>
</g>
</g>
<!-- Node22&#45;&gt;Node25 -->
<g id="edge18" class="edge">
<title>Node22&#45;&gt;Node25</title>
<path fill="none" stroke="midnightblue" d="M1920.82,-128.94C1972.65,-117.2 2065.77,-96.11 2122.33,-83.3"/>
<polygon fill="midnightblue" stroke="midnightblue" points="2123.12,-86.71 2132.1,-81.08 2121.57,-79.88 2123.12,-86.71"/>
</g>
<!-- Node26 -->
<g id="node19" class="node">
<title>Node26</title>
<g id="a_node19"><a xlink:title=" ">
<polygon fill="white" stroke="#bfbfbf" points="2245,-62 2245,-81 2399,-81 2399,-62 2245,-62"/>
<text text-anchor="middle" x="2322" y="-69" font-family="Helvetica,sans-Serif" font-size="10.00">boost/bind/placeholders.hpp</text>
</a>
</g>
</g>
<!-- Node22&#45;&gt;Node26 -->
<g id="edge19" class="edge">
<title>Node22&#45;&gt;Node26</title>
<path fill="none" stroke="midnightblue" d="M1924.01,-128.97C1934.72,-126.88 1946.27,-124.74 1957,-123 2080.41,-102.97 2112.33,-105.4 2236,-87 2244.91,-85.67 2254.32,-84.18 2263.52,-82.67"/>
<polygon fill="midnightblue" stroke="midnightblue" points="2264.1,-86.12 2273.39,-81.03 2262.95,-79.22 2264.1,-86.12"/>
</g>
<!-- Node27 -->
<g id="node20" class="node">
<title>Node27</title>
<g id="a_node20"><a xlink:title=" ">
<polygon fill="white" stroke="#bfbfbf" points="2417.5,-62 2417.5,-81 2558.5,-81 2558.5,-62 2417.5,-62"/>
<text text-anchor="middle" x="2488" y="-69" font-family="Helvetica,sans-Serif" font-size="10.00">boost/numeric/odeint.hpp</text>
</a>
</g>
</g>
<!-- Node22&#45;&gt;Node27 -->
<g id="edge20" class="edge">
<title>Node22&#45;&gt;Node27</title>
<path fill="none" stroke="midnightblue" d="M1922.03,-128.99C1933.28,-126.77 1945.59,-124.57 1957,-123 2156.21,-95.62 2208.6,-112.96 2408,-87 2416.85,-85.85 2426.2,-84.38 2435.28,-82.82"/>
<polygon fill="midnightblue" stroke="midnightblue" points="2436.12,-86.23 2445.36,-81.04 2434.9,-79.34 2436.12,-86.23"/>
</g>
<!-- Node28 -->
<g id="node21" class="node">
<title>Node28</title>
<g id="a_node21"><a xlink:title=" ">
<polygon fill="white" stroke="#bfbfbf" points="2577,-62 2577,-81 2725,-81 2725,-62 2577,-62"/>
<text text-anchor="middle" x="2651" y="-69" font-family="Helvetica,sans-Serif" font-size="10.00">boost/numeric/interval.hpp</text>
</a>
</g>
</g>
<!-- Node22&#45;&gt;Node28 -->
<g id="edge21" class="edge">
<title>Node22&#45;&gt;Node28</title>
<path fill="none" stroke="midnightblue" d="M1921.25,-128.99C1932.7,-126.71 1945.31,-124.48 1957,-123 2226.86,-88.77 2297.8,-118.46 2568,-87 2577.6,-85.88 2587.77,-84.38 2597.58,-82.76"/>
<polygon fill="midnightblue" stroke="midnightblue" points="2598.36,-86.17 2607.63,-81.04 2597.18,-79.27 2598.36,-86.17"/>
</g>
<!-- Node29 -->
<g id="node22" class="node">
<title>Node29</title>
<g id="a_node22"><a xlink:title=" ">
<polygon fill="white" stroke="#bfbfbf" points="2743,-56.5 2743,-86.5 2887,-86.5 2887,-56.5 2743,-56.5"/>
<text text-anchor="start" x="2751" y="-74.5" font-family="Helvetica,sans-Serif" font-size="10.00">boost/numeric/odeint</text>
<text text-anchor="middle" x="2815" y="-63.5" font-family="Helvetica,sans-Serif" font-size="10.00">/stepper/runge_kutta4.hpp</text>
</a>
</g>
</g>
<!-- Node22&#45;&gt;Node29 -->
<g id="edge22" class="edge">
<title>Node22&#45;&gt;Node29</title>
<path fill="none" stroke="midnightblue" d="M1920.86,-128.97C1932.4,-126.67 1945.17,-124.42 1957,-123 2296.95,-82.04 2388.71,-124.71 2732.66,-87.04"/>
<polygon fill="midnightblue" stroke="midnightblue" points="2733.09,-90.52 2742.65,-85.94 2732.32,-83.56 2733.09,-90.52"/>
</g>
<!-- Node30 -->
<g id="node23" class="node">
<title>Node30</title>
<g id="a_node23"><a xlink:title=" ">
<polygon fill="white" stroke="#bfbfbf" points="2905,-56.5 2905,-86.5 3021,-86.5 3021,-56.5 2905,-56.5"/>
<text text-anchor="start" x="2913" y="-74.5" font-family="Helvetica,sans-Serif" font-size="10.00">boost/numeric/ublas</text>
<text text-anchor="middle" x="2963" y="-63.5" font-family="Helvetica,sans-Serif" font-size="10.00">/matrix.hpp</text>
</a>
</g>
</g>
<!-- Node22&#45;&gt;Node30 -->
<g id="edge23" class="edge">
<title>Node22&#45;&gt;Node30</title>
<path fill="none" stroke="midnightblue" d="M1920.47,-128.99C1932.11,-126.66 1945.04,-124.39 1957,-123 2368.5,-75.09 2479.87,-138.34 2894.48,-87.03"/>
<polygon fill="midnightblue" stroke="midnightblue" points="2895.15,-90.47 2904.64,-85.76 2894.28,-83.53 2895.15,-90.47"/>
</g>
<!-- Node31 -->
<g id="node24" class="node">
<title>Node31</title>
<g id="a_node24"><a xlink:title=" ">
<polygon fill="white" stroke="#bfbfbf" points="3039,-56.5 3039,-86.5 3155,-86.5 3155,-56.5 3039,-56.5"/>
<text text-anchor="start" x="3047" y="-74.5" font-family="Helvetica,sans-Serif" font-size="10.00">boost/numeric/ublas</text>
<text text-anchor="middle" x="3097" y="-63.5" font-family="Helvetica,sans-Serif" font-size="10.00">/io.hpp</text>
</a>
</g>
</g>
<!-- Node22&#45;&gt;Node31 -->
<g id="edge24" class="edge">
<title>Node22&#45;&gt;Node31</title>
<path fill="none" stroke="midnightblue" d="M1920.46,-128.95C1932.11,-126.62 1945.03,-124.36 1957,-123 2427.73,-69.33 2554.67,-144.62 3028.45,-87.03"/>
<polygon fill="midnightblue" stroke="midnightblue" points="3029.14,-90.47 3038.64,-85.78 3028.29,-83.52 3029.14,-90.47"/>
</g>
<!-- Node32 -->
<g id="node25" class="node">
<title>Node32</title>
<g id="a_node25"><a xlink:title=" ">
<polygon fill="white" stroke="#bfbfbf" points="3173,-62 3173,-81 3351,-81 3351,-62 3173,-62"/>
<text text-anchor="middle" x="3262" y="-69" font-family="Helvetica,sans-Serif" font-size="10.00">boost/math/tools/polynomial.hpp</text>
</a>
</g>
</g>
<!-- Node22&#45;&gt;Node32 -->
<g id="edge25" class="edge">
<title>Node22&#45;&gt;Node32</title>
<path fill="none" stroke="midnightblue" d="M1920.46,-128.92C1932.11,-126.59 1945.03,-124.34 1957,-123 2490.34,-63.2 2629.41,-134.36 3164,-87 3176.44,-85.9 3189.7,-84.26 3202.32,-82.47"/>
<polygon fill="midnightblue" stroke="midnightblue" points="3202.89,-85.92 3212.28,-81.01 3201.88,-78.99 3202.89,-85.92"/>
</g>
<!-- Node33 -->
<g id="node26" class="node">
<title>Node33</title>
<g id="a_node26"><a xlink:title=" ">
<polygon fill="white" stroke="#bfbfbf" points="3369,-62 3369,-81 3419,-81 3419,-62 3369,-62"/>
<text text-anchor="middle" x="3394" y="-69" font-family="Helvetica,sans-Serif" font-size="10.00">stdio.h</text>
</a>
</g>
</g>
<!-- Node22&#45;&gt;Node33 -->
<g id="edge27" class="edge">
<title>Node22&#45;&gt;Node33</title>
<path fill="none" stroke="midnightblue" d="M1920.08,-128.97C1931.82,-126.61 1944.9,-124.33 1957,-123 2267.01,-88.89 3055.26,-153.35 3360,-87 3362.67,-86.42 3365.39,-85.63 3368.08,-84.72"/>
<polygon fill="midnightblue" stroke="midnightblue" points="3369.44,-87.94 3377.47,-81.03 3366.88,-81.43 3369.44,-87.94"/>
</g>
<!-- Node34 -->
<g id="node27" class="node">
<title>Node34</title>
<g id="a_node27"><a xlink:title=" ">
<polygon fill="white" stroke="#bfbfbf" points="3437.5,-62 3437.5,-81 3490.5,-81 3490.5,-62 3437.5,-62"/>
<text text-anchor="middle" x="3464" y="-69" font-family="Helvetica,sans-Serif" font-size="10.00">stdlib.h</text>
</a>
</g>
</g>
<!-- Node22&#45;&gt;Node34 -->
<g id="edge28" class="edge">
<title>Node22&#45;&gt;Node34</title>
<path fill="none" stroke="midnightblue" d="M1920.08,-128.96C1931.82,-126.6 1944.9,-124.32 1957,-123 2282.05,-87.44 3107.77,-153.14 3428,-87 3430.91,-86.4 3433.88,-85.58 3436.81,-84.62"/>
<polygon fill="midnightblue" stroke="midnightblue" points="3438.3,-87.8 3446.45,-81.03 3435.86,-81.25 3438.3,-87.8"/>
</g>
<!-- Node8 -->
<g id="node28" class="node">
<title>Node8</title>
<g id="a_node28"><a xlink:title=" ">
<polygon fill="white" stroke="#bfbfbf" points="1675.5,-0.5 1675.5,-19.5 1722.5,-19.5 1722.5,-0.5 1675.5,-0.5"/>
<text text-anchor="middle" x="1699" y="-7.5" font-family="Helvetica,sans-Serif" font-size="10.00">cmath</text>
</a>
</g>
</g>
<!-- Node22&#45;&gt;Node8 -->
<g id="edge29" class="edge">
<title>Node22&#45;&gt;Node8</title>
<path fill="none" stroke="midnightblue" d="M1869.08,-128.98C1853.43,-119.26 1827.41,-102.69 1806,-87 1788.42,-74.12 1785.6,-68.86 1768,-56 1752.99,-45.03 1735.43,-33.6 1721.78,-25"/>
<polygon fill="midnightblue" stroke="midnightblue" points="1723.37,-21.87 1713.04,-19.54 1719.67,-27.81 1723.37,-21.87"/>
</g>
<!-- Node35 -->
<g id="node29" class="node">
<title>Node35</title>
<g id="a_node29"><a xlink:title=" ">
<polygon fill="white" stroke="#bfbfbf" points="3508.5,-62 3508.5,-81 3559.5,-81 3559.5,-62 3508.5,-62"/>
<text text-anchor="middle" x="3534" y="-69" font-family="Helvetica,sans-Serif" font-size="10.00">math.h</text>
</a>
</g>
</g>
<!-- Node22&#45;&gt;Node35 -->
<g id="edge30" class="edge">
<title>Node22&#45;&gt;Node35</title>
<path fill="none" stroke="midnightblue" d="M1920.08,-128.95C1931.82,-126.59 1944.9,-124.32 1957,-123 2297.97,-85.89 3164.78,-159.58 3500,-87 3502.67,-86.42 3505.4,-85.63 3508.08,-84.72"/>
<polygon fill="midnightblue" stroke="midnightblue" points="3509.44,-87.95 3517.47,-81.04 3506.88,-81.43 3509.44,-87.95"/>
</g>
<!-- Node36 -->
<g id="node30" class="node">
<title>Node36</title>
<g id="a_node30"><a xlink:title=" ">
<polygon fill="white" stroke="#bfbfbf" points="3578,-62 3578,-81 3626,-81 3626,-62 3578,-62"/>
<text text-anchor="middle" x="3602" y="-69" font-family="Helvetica,sans-Serif" font-size="10.00">time.h</text>
</a>
</g>
</g>
<!-- Node22&#45;&gt;Node36 -->
<g id="edge31" class="edge">
<title>Node22&#45;&gt;Node36</title>
<path fill="none" stroke="midnightblue" d="M1920.08,-128.95C1931.82,-126.58 1944.9,-124.31 1957,-123 2313.23,-84.41 3219.18,-164.55 3569,-87 3571.51,-86.44 3574.07,-85.69 3576.59,-84.82"/>
<polygon fill="midnightblue" stroke="midnightblue" points="3578.01,-88.02 3585.98,-81.04 3575.4,-81.53 3578.01,-88.02"/>
</g>
<!-- Node22&#45;&gt;Node37 -->
<g id="edge32" class="edge">
<title>Node22&#45;&gt;Node37</title>
<path fill="none" stroke="midnightblue" d="M1823.27,-138.01C1727.24,-137.41 1533.36,-130.28 1376,-87 1374.07,-86.47 1372.1,-85.82 1370.15,-85.11"/>
<polygon fill="midnightblue" stroke="midnightblue" points="1371.27,-81.78 1360.7,-81.09 1368.53,-88.22 1371.27,-81.78"/>
</g>
<!-- Node38 -->
<g id="node32" class="node">
<title>Node38</title>
<g id="a_node32"><a xlink:title=" ">
<polygon fill="white" stroke="#bfbfbf" points="1453,-62 1453,-81 1509,-81 1509,-62 1453,-62"/>
<text text-anchor="middle" x="1481" y="-69" font-family="Helvetica,sans-Serif" font-size="10.00">iomanip</text>
</a>
</g>
</g>
<!-- Node22&#45;&gt;Node38 -->
<g id="edge33" class="edge">
<title>Node22&#45;&gt;Node38</title>
<path fill="none" stroke="midnightblue" d="M1823.37,-133.59C1750.4,-127.81 1623.53,-114.56 1518,-87 1515.34,-86.3 1512.61,-85.47 1509.9,-84.57"/>
<polygon fill="midnightblue" stroke="midnightblue" points="1510.89,-81.21 1500.3,-81.06 1508.49,-87.78 1510.89,-81.21"/>
</g>
<!-- Node11 -->
<g id="node33" class="node">
<title>Node11</title>
<g id="a_node33"><a xlink:title=" ">
<polygon fill="white" stroke="#bfbfbf" points="1527.5,-62 1527.5,-81 1582.5,-81 1582.5,-62 1527.5,-62"/>
<text text-anchor="middle" x="1555" y="-69" font-family="Helvetica,sans-Serif" font-size="10.00">fstream</text>
</a>
</g>
</g>
<!-- Node22&#45;&gt;Node11 -->
<g id="edge34" class="edge">
<title>Node22&#45;&gt;Node11</title>
<path fill="none" stroke="midnightblue" d="M1823.26,-129.75C1764.99,-121.54 1674.12,-106.99 1597,-87 1593.96,-86.21 1590.83,-85.31 1587.71,-84.35"/>
<polygon fill="midnightblue" stroke="midnightblue" points="1588.5,-80.92 1577.91,-81.14 1586.32,-87.58 1588.5,-80.92"/>
</g>
<!-- Node22&#45;&gt;Node39 -->
<g id="edge36" class="edge">
<title>Node22&#45;&gt;Node39</title>
<path fill="none" stroke="midnightblue" d="M1920.07,-128.93C1931.82,-126.57 1944.89,-124.3 1957,-123 2151.7,-102.09 3528.03,-130.29 3719,-87 3721.36,-86.47 3723.75,-85.75 3726.12,-84.92"/>
<polygon fill="midnightblue" stroke="midnightblue" points="3727.59,-88.1 3735.49,-81.05 3724.91,-81.63 3727.59,-88.1"/>
</g>
<!-- Node22&#45;&gt;Node40 -->
<g id="edge37" class="edge">
<title>Node22&#45;&gt;Node40</title>
<path fill="none" stroke="midnightblue" d="M1823.42,-136.07C1738.04,-132.8 1576.57,-122.1 1444,-87 1441.64,-86.38 1439.24,-85.62 1436.85,-84.78"/>
<polygon fill="midnightblue" stroke="midnightblue" points="1437.89,-81.43 1427.31,-81.02 1435.33,-87.94 1437.89,-81.43"/>
</g>
<!-- Node41 -->
<g id="node36" class="node">
<title>Node41</title>
<g id="a_node36"><a xlink:title=" ">
<polygon fill="white" stroke="#bfbfbf" points="3644.5,-62 3644.5,-81 3709.5,-81 3709.5,-62 3644.5,-62"/>
<text text-anchor="middle" x="3677" y="-69" font-family="Helvetica,sans-Serif" font-size="10.00">functional</text>
</a>
</g>
</g>
<!-- Node22&#45;&gt;Node41 -->
<g id="edge38" class="edge">
<title>Node22&#45;&gt;Node41</title>
<path fill="none" stroke="midnightblue" d="M1920.08,-128.94C1931.82,-126.58 1944.9,-124.31 1957,-123 2327.82,-82.99 3267.85,-152.65 3635,-87 3638.9,-86.3 3642.93,-85.3 3646.88,-84.14"/>
<polygon fill="midnightblue" stroke="midnightblue" points="3647.98,-87.47 3656.4,-81.04 3645.81,-80.81 3647.98,-87.47"/>
</g>
<!-- Node42 -->
<g id="node37" class="node">
<title>Node42</title>
<g id="a_node37"><a xlink:href="continuous__lyapunov__equation_8hpp.html" target="_top" xlink:title="The following code uses a different convention from MATLAB.">
<polygon fill="white" stroke="red" points="1639,-56.5 1639,-86.5 1759,-86.5 1759,-56.5 1639,-56.5"/>
<text text-anchor="start" x="1647" y="-74.5" font-family="Helvetica,sans-Serif" font-size="10.00">continuous_lyapunov</text>
<text text-anchor="middle" x="1699" y="-63.5" font-family="Helvetica,sans-Serif" font-size="10.00">_equation.hpp</text>
</a>
</g>
</g>
<!-- Node22&#45;&gt;Node42 -->
<g id="edge39" class="edge">
<title>Node22&#45;&gt;Node42</title>
<path fill="none" stroke="midnightblue" d="M1858.57,-128.87C1830.6,-118.99 1784.06,-102.55 1748.44,-89.97"/>
<polygon fill="midnightblue" stroke="midnightblue" points="1749.31,-86.56 1738.71,-86.53 1746.97,-93.16 1749.31,-86.56"/>
</g>
<!-- Node42&#45;&gt;Node21 -->
<g id="edge40" class="edge">
<title>Node42&#45;&gt;Node21</title>
<path fill="none" stroke="midnightblue" d="M1678.15,-56.4C1664.3,-47.04 1646.19,-34.79 1632.26,-25.38"/>
<polygon fill="midnightblue" stroke="midnightblue" points="1634.05,-22.36 1623.8,-19.66 1630.13,-28.16 1634.05,-22.36"/>
</g>
<!-- Node42&#45;&gt;Node8 -->
<g id="edge41" class="edge">
<title>Node42&#45;&gt;Node8</title>
<path fill="none" stroke="midnightblue" d="M1699,-56.4C1699,-48.47 1699,-38.46 1699,-29.86"/>
<polygon fill="midnightblue" stroke="midnightblue" points="1702.5,-29.66 1699,-19.66 1695.5,-29.66 1702.5,-29.66"/>
</g>
<!-- Node6&#45;&gt;Node8 -->
<g id="edge54" class="edge">
<title>Node6&#45;&gt;Node8</title>
<path fill="none" stroke="midnightblue" d="M558.83,-128.98C502.95,-116.32 404.94,-93.36 400,-87 391.55,-76.12 390.4,-65.88 400,-56 448.73,-5.86 1588.61,-28.53 1658,-20 1660.38,-19.71 1662.83,-19.34 1665.28,-18.93"/>
<polygon fill="midnightblue" stroke="midnightblue" points="1666.13,-22.33 1675.28,-17 1664.8,-15.45 1666.13,-22.33"/>
</g>
<!-- Node7 -->
<g id="node44" class="node">
<title>Node7</title>
<g id="a_node44"><a xlink:title=" ">
<polygon fill="white" stroke="#bfbfbf" points="561,-62 561,-81 611,-81 611,-62 561,-62"/>
<text text-anchor="middle" x="586" y="-69" font-family="Helvetica,sans-Serif" font-size="10.00">atomic</text>
</a>
</g>
</g>
<!-- Node6&#45;&gt;Node7 -->
<g id="edge53" class="edge">
<title>Node6&#45;&gt;Node7</title>
<path fill="none" stroke="midnightblue" d="M595.52,-128.73C593.9,-119.18 591.27,-103.62 589.18,-91.28"/>
<polygon fill="midnightblue" stroke="midnightblue" points="592.58,-90.4 587.46,-81.13 585.68,-91.57 592.58,-90.4"/>
</g>
<!-- Node51&#45;&gt;Node19 -->
<g id="edge59" class="edge">
<title>Node51&#45;&gt;Node19</title>
<path fill="none" stroke="midnightblue" d="M1172.46,-135.41C1026.47,-127.95 542.16,-102.3 474,-87 471,-86.33 467.92,-85.45 464.89,-84.46"/>
<polygon fill="midnightblue" stroke="midnightblue" points="466.07,-81.16 455.47,-81.02 463.66,-87.74 466.07,-81.16"/>
</g>
<!-- Node51&#45;&gt;Node37 -->
<g id="edge62" class="edge">
<title>Node51&#45;&gt;Node37</title>
<path fill="none" stroke="midnightblue" d="M1231.4,-128.87C1253.61,-117.84 1292.29,-98.66 1318.26,-85.77"/>
<polygon fill="midnightblue" stroke="midnightblue" points="1320.13,-88.75 1327.53,-81.17 1317.02,-82.48 1320.13,-88.75"/>
</g>
<!-- Node51&#45;&gt;Node38 -->
<g id="edge58" class="edge">
<title>Node51&#45;&gt;Node38</title>
<path fill="none" stroke="midnightblue" d="M1255.64,-130.4C1302.1,-122.01 1379.26,-106.66 1444,-87 1446.43,-86.26 1448.92,-85.44 1451.41,-84.57"/>
<polygon fill="midnightblue" stroke="midnightblue" points="1452.69,-87.82 1460.85,-81.06 1450.25,-81.26 1452.69,-87.82"/>
</g>
<!-- Node51&#45;&gt;Node11 -->
<g id="edge61" class="edge">
<title>Node51&#45;&gt;Node11</title>
<path fill="none" stroke="midnightblue" d="M1255.9,-133.34C1315.08,-126.84 1426.19,-112.31 1518,-87 1520.59,-86.29 1523.25,-85.45 1525.9,-84.55"/>
<polygon fill="midnightblue" stroke="midnightblue" points="1527.11,-87.84 1535.29,-81.1 1524.69,-81.27 1527.11,-87.84"/>
</g>
<!-- Node51&#45;&gt;Node40 -->
<g id="edge57" class="edge">
<title>Node51&#45;&gt;Node40</title>
<path fill="none" stroke="midnightblue" d="M1244.76,-128.91C1277.58,-119.52 1330.94,-103.59 1376,-87 1377.66,-86.39 1379.35,-85.74 1381.05,-85.08"/>
<polygon fill="midnightblue" stroke="midnightblue" points="1382.79,-88.15 1390.72,-81.12 1380.14,-81.67 1382.79,-88.15"/>
</g>
<!-- Node51&#45;&gt;Node7 -->
<g id="edge56" class="edge">
<title>Node51&#45;&gt;Node7</title>
<path fill="none" stroke="midnightblue" d="M1172.32,-135.68C1055.24,-130.29 725.08,-113.16 620,-87 617.64,-86.41 615.22,-85.68 612.83,-84.86"/>
<polygon fill="midnightblue" stroke="midnightblue" points="613.87,-81.5 603.28,-81.12 611.32,-88.02 613.87,-81.5"/>
</g>
<!-- Node52 -->
<g id="node46" class="node">
<title>Node52</title>
<g id="a_node46"><a xlink:title=" ">
<polygon fill="white" stroke="#bfbfbf" points="1237,-62 1237,-81 1305,-81 1305,-62 1237,-62"/>
<text text-anchor="middle" x="1271" y="-69" font-family="Helvetica,sans-Serif" font-size="10.00">filesystem</text>
</a>
</g>
</g>
<!-- Node51&#45;&gt;Node52 -->
<g id="edge60" class="edge">
<title>Node51&#45;&gt;Node52</title>
<path fill="none" stroke="midnightblue" d="M1221.69,-128.73C1230.66,-118.5 1245.69,-101.36 1256.8,-88.69"/>
<polygon fill="midnightblue" stroke="midnightblue" points="1259.47,-90.95 1263.43,-81.13 1254.21,-86.34 1259.47,-90.95"/>
</g>
<!-- Node53 -->
<g id="node47" class="node">
<title>Node53</title>
<g id="a_node47"><a xlink:title=" ">
<polygon fill="white" stroke="#bfbfbf" points="629.5,-56.5 629.5,-86.5 754.5,-86.5 754.5,-56.5 629.5,-56.5"/>
<text text-anchor="start" x="637.5" y="-74.5" font-family="Helvetica,sans-Serif" font-size="10.00">boost/date_time/posix</text>
<text text-anchor="middle" x="692" y="-63.5" font-family="Helvetica,sans-Serif" font-size="10.00">_time/posix_time.hpp</text>
</a>
</g>
</g>
<!-- Node51&#45;&gt;Node53 -->
<g id="edge63" class="edge">
<title>Node51&#45;&gt;Node53</title>
<path fill="none" stroke="midnightblue" d="M1172.48,-134.11C1094.51,-127.47 920.69,-111.38 764.9,-87.22"/>
<polygon fill="midnightblue" stroke="midnightblue" points="765.09,-83.71 754.66,-85.62 764,-90.62 765.09,-83.71"/>
</g>
<!-- Node54 -->
<g id="node48" class="node">
<title>Node54</title>
<g id="a_node48"><a xlink:title=" ">
<polygon fill="white" stroke="#bfbfbf" points="772.5,-56.5 772.5,-86.5 927.5,-86.5 927.5,-56.5 772.5,-56.5"/>
<text text-anchor="start" x="780.5" y="-74.5" font-family="Helvetica,sans-Serif" font-size="10.00">boost/date_time/posix</text>
<text text-anchor="middle" x="850" y="-63.5" font-family="Helvetica,sans-Serif" font-size="10.00">_time/posix_time_types.hpp</text>
</a>
</g>
</g>
<!-- Node51&#45;&gt;Node54 -->
<g id="edge64" class="edge">
<title>Node51&#45;&gt;Node54</title>
<path fill="none" stroke="midnightblue" d="M1172.24,-130.04C1115.44,-119.9 1012.39,-101.5 938.09,-88.23"/>
<polygon fill="midnightblue" stroke="midnightblue" points="938.26,-84.71 927.8,-86.39 937.03,-91.6 938.26,-84.71"/>
</g>
<!-- Node55 -->
<g id="node49" class="node">
<title>Node55</title>
<g id="a_node49"><a xlink:title=" ">
<polygon fill="white" stroke="#bfbfbf" points="945.5,-62 945.5,-81 1078.5,-81 1078.5,-62 945.5,-62"/>
<text text-anchor="middle" x="1012" y="-69" font-family="Helvetica,sans-Serif" font-size="10.00">boost/log/attributes.hpp</text>
</a>
</g>
</g>
<!-- Node51&#45;&gt;Node55 -->
<g id="edge65" class="edge">
<title>Node51&#45;&gt;Node55</title>
<path fill="none" stroke="midnightblue" d="M1187.18,-128.87C1151.46,-117.38 1088.16,-97.01 1048.23,-84.16"/>
<polygon fill="midnightblue" stroke="midnightblue" points="1049.2,-80.8 1038.61,-81.06 1047.06,-87.46 1049.2,-80.8"/>
</g>
<!-- Node56 -->
<g id="node50" class="node">
<title>Node56</title>
<g id="a_node50"><a xlink:title=" ">
<polygon fill="white" stroke="#bfbfbf" points="1097,-56.5 1097,-86.5 1219,-86.5 1219,-56.5 1097,-56.5"/>
<text text-anchor="start" x="1105" y="-74.5" font-family="Helvetica,sans-Serif" font-size="10.00">boost/log/attributes</text>
<text text-anchor="middle" x="1158" y="-63.5" font-family="Helvetica,sans-Serif" font-size="10.00">/scoped_attribute.hpp</text>
</a>
</g>
</g>
<!-- Node51&#45;&gt;Node56 -->
<g id="edge66" class="edge">
<title>Node51&#45;&gt;Node56</title>
<path fill="none" stroke="midnightblue" d="M1206.45,-128.73C1198.88,-119.95 1186.93,-106.08 1176.79,-94.31"/>
<polygon fill="midnightblue" stroke="midnightblue" points="1179.32,-91.88 1170.14,-86.59 1174.01,-96.45 1179.32,-91.88"/>
</g>
</g>
</svg>
