<?xml version="1.0" encoding="UTF-8" standalone="no"?>
<!DOCTYPE svg PUBLIC "-//W3C//DTD SVG 1.1//EN"
 "http://www.w3.org/Graphics/SVG/1.1/DTD/svg11.dtd">
<!-- Generated by graphviz version 2.43.0 (0)
 -->
<!-- Title: ACSL&#45;flightstack&#45;winged/src/acsl_flight/include/vio/vio.hpp Pages: 1 -->
<!--zoomable 240 -->
<svg id="main" version="1.1" xmlns="http://www.w3.org/2000/svg" xmlns:xlink="http://www.w3.org/1999/xlink" xml:space="preserve" onload="init(evt)">
<style type="text/css"><![CDATA[
.edge:hover path { stroke: red; }
.edge:hover polygon { stroke: red; fill: red; }
]]></style>
<script type="text/javascript"><![CDATA[
var edges = document.getElementsByTagName('g');
if (edges && edges.length) {
  for (var i=0;i<edges.length;i++) {
    if (edges[i].id.substr(0,4)=='edge') {
      edges[i].setAttribute('class','edge');
    }
  }
}
]]></script>
        <defs>
                <circle id="rim" cx="0" cy="0" r="7"/>
                <circle id="rim2" cx="0" cy="0" r="3.5"/>
                <g id="zoomPlus">
                        <use xlink:href="#rim" fill="#404040">
                                <set attributeName="fill" to="#808080" begin="zoomplus.mouseover" end="zoomplus.mouseout"/>
                        </use>
                        <path d="M-4,0h8M0,-4v8" fill="none" stroke="white" stroke-width="1.5" pointer-events="none"/>
                </g>
                <g id="zoomMin">
                        <use xlink:href="#rim" fill="#404040">
                                <set attributeName="fill" to="#808080" begin="zoomminus.mouseover" end="zoomminus.mouseout"/>
                        </use>
                        <path d="M-4,0h8" fill="none" stroke="white" stroke-width="1.5" pointer-events="none"/>
                </g>
                <g id="dirArrow">
                        <path fill="none" stroke="white" stroke-width="1.5" d="M0,-3.0v7 M-2.5,-0.5L0,-3.0L2.5,-0.5"/>
                </g>
               <g id="resetDef">
                       <use xlink:href="#rim2" fill="#404040">
                               <set attributeName="fill" to="#808080" begin="reset.mouseover" end="reset.mouseout"/>
                       </use>
               </g>
        </defs>

<script type="text/javascript">
var viewWidth = 3926;
var viewHeight = 240;
var sectionId = 'dynsection-0';
</script>
<script xlink:href="svgpan.js"/>
<svg id="graph" class="graph">
<g id="viewport">
<title>ACSL&#45;flightstack&#45;winged/src/acsl_flight/include/vio/vio.hpp</title>
<polygon fill="white" stroke="transparent" points="-4,4 -4,-236 3921.5,-236 3921.5,4 -4,4"/>
<!-- Node1 -->
<g id="node1" class="node">
<title>Node1</title>
<g id="a_node1"><a xlink:title="Class decleration for Intel Realsense T265 tracking camera as a lifecycle node.">
<polygon fill="#bfbfbf" stroke="black" points="2115.5,-190.5 2115.5,-231.5 2250.5,-231.5 2250.5,-190.5 2115.5,-190.5"/>
<text text-anchor="start" x="2123.5" y="-219.5" font-family="Helvetica,sans-Serif" font-size="10.00">ACSL&#45;flightstack&#45;winged</text>
<text text-anchor="start" x="2123.5" y="-208.5" font-family="Helvetica,sans-Serif" font-size="10.00">/src/acsl_flight/include</text>
<text text-anchor="middle" x="2183" y="-197.5" font-family="Helvetica,sans-Serif" font-size="10.00">/vio/vio.hpp</text>
</a>
</g>
</g>
<!-- Node2 -->
<g id="node2" class="node">
<title>Node2</title>
<g id="a_node2"><a xlink:href="control__config_8hpp.html" target="_top" xlink:title="Just a header file for configuring which platform and controller to pick during compilation.">
<polygon fill="white" stroke="black" points="0,-129 0,-148 106,-148 106,-129 0,-129"/>
<text text-anchor="middle" x="53" y="-136" font-family="Helvetica,sans-Serif" font-size="10.00">control_config.hpp</text>
</a>
</g>
</g>
<!-- Node1&#45;&gt;Node2 -->
<g id="edge1" class="edge">
<title>Node1&#45;&gt;Node2</title>
<path fill="none" stroke="midnightblue" d="M2115.45,-210.01C1805.22,-209.78 515.06,-205.65 115,-154 108.15,-153.12 100.95,-151.8 93.98,-150.31"/>
<polygon fill="midnightblue" stroke="midnightblue" points="94.52,-146.85 84,-148.05 92.97,-153.68 94.52,-146.85"/>
</g>
<!-- Node75 -->
<g id="node4" class="node">
<title>Node75</title>
<g id="a_node4"><a xlink:title=" ">
<polygon fill="white" stroke="#bfbfbf" points="124.5,-129 124.5,-148 239.5,-148 239.5,-129 124.5,-129"/>
<text text-anchor="middle" x="182" y="-136" font-family="Helvetica,sans-Serif" font-size="10.00">librealsense2/rs.hpp</text>
</a>
</g>
</g>
<!-- Node1&#45;&gt;Node75 -->
<g id="edge3" class="edge">
<title>Node1&#45;&gt;Node75</title>
<path fill="none" stroke="midnightblue" d="M2115.42,-209.71C1817.73,-208.19 621.63,-199.32 249,-154 241.36,-153.07 233.31,-151.69 225.53,-150.13"/>
<polygon fill="midnightblue" stroke="midnightblue" points="226.04,-146.67 215.53,-148.02 224.6,-153.51 226.04,-146.67"/>
</g>
<!-- Node15 -->
<g id="node5" class="node">
<title>Node15</title>
<g id="a_node5"><a xlink:href="px4__defines_8hpp.html" target="_top" xlink:title="Contains useful constant defines for use in the flight stack in a central location.">
<polygon fill="white" stroke="black" points="258,-129 258,-148 354,-148 354,-129 258,-129"/>
<text text-anchor="middle" x="306" y="-136" font-family="Helvetica,sans-Serif" font-size="10.00">px4_defines.hpp</text>
</a>
</g>
</g>
<!-- Node1&#45;&gt;Node15 -->
<g id="edge4" class="edge">
<title>Node1&#45;&gt;Node15</title>
<path fill="none" stroke="midnightblue" d="M2115.07,-209.89C1827.73,-209.13 711.05,-203.02 363,-154 356.98,-153.15 350.67,-151.91 344.54,-150.51"/>
<polygon fill="midnightblue" stroke="midnightblue" points="345.01,-147.02 334.46,-148.04 343.34,-153.82 345.01,-147.02"/>
</g>
<!-- Node17 -->
<g id="node7" class="node">
<title>Node17</title>
<g id="a_node7"><a xlink:href="global__helpers_8hpp.html" target="_top" xlink:title="Inline functions for all the classes of the flighstack to use.">
<polygon fill="white" stroke="black" points="372.5,-129 372.5,-148 481.5,-148 481.5,-129 372.5,-129"/>
<text text-anchor="middle" x="427" y="-136" font-family="Helvetica,sans-Serif" font-size="10.00">global_helpers.hpp</text>
</a>
</g>
</g>
<!-- Node1&#45;&gt;Node17 -->
<g id="edge6" class="edge">
<title>Node1&#45;&gt;Node17</title>
<path fill="none" stroke="midnightblue" d="M2115.24,-207.28C1834.74,-196.02 766.39,-153.13 491.7,-142.1"/>
<polygon fill="midnightblue" stroke="midnightblue" points="491.64,-138.59 481.5,-141.69 491.35,-145.59 491.64,-138.59"/>
</g>
<!-- Node9 -->
<g id="node9" class="node">
<title>Node9</title>
<g id="a_node9"><a xlink:title=" ">
<polygon fill="white" stroke="#bfbfbf" points="324,-62 324,-81 368,-81 368,-62 324,-62"/>
<text text-anchor="middle" x="346" y="-69" font-family="Helvetica,sans-Serif" font-size="10.00">string</text>
</a>
</g>
</g>
<!-- Node1&#45;&gt;Node9 -->
<g id="edge43" class="edge">
<title>Node1&#45;&gt;Node9</title>
<path fill="none" stroke="midnightblue" d="M2115.23,-208.49C1930.48,-204.02 1402.58,-188.95 965,-154 702.81,-133.06 630.11,-158.55 377,-87 375.07,-86.45 373.11,-85.8 371.16,-85.08"/>
<polygon fill="midnightblue" stroke="midnightblue" points="372.28,-81.75 361.71,-81.05 369.54,-88.19 372.28,-81.75"/>
</g>
<!-- Node18 -->
<g id="node10" class="node">
<title>Node18</title>
<g id="a_node10"><a xlink:title=" ">
<polygon fill="white" stroke="#bfbfbf" points="464,-62 464,-81 520,-81 520,-62 464,-62"/>
<text text-anchor="middle" x="492" y="-69" font-family="Helvetica,sans-Serif" font-size="10.00">sstream</text>
</a>
</g>
</g>
<!-- Node1&#45;&gt;Node18 -->
<g id="edge45" class="edge">
<title>Node1&#45;&gt;Node18</title>
<path fill="none" stroke="midnightblue" d="M2115.36,-205.54C1814.32,-185.6 607.59,-104.89 529,-87 526.16,-86.35 523.25,-85.53 520.38,-84.6"/>
<polygon fill="midnightblue" stroke="midnightblue" points="521.45,-81.26 510.86,-81.14 519.07,-87.84 521.45,-81.26"/>
</g>
<!-- Node21 -->
<g id="node13" class="node">
<title>Node21</title>
<g id="a_node13"><a xlink:href="helper__functions_8hpp.html" target="_top" xlink:title="Definitions of some standard templates used in all controllers.">
<polygon fill="white" stroke="black" points="1997.5,-129 1997.5,-148 2116.5,-148 2116.5,-129 1997.5,-129"/>
<text text-anchor="middle" x="2057" y="-136" font-family="Helvetica,sans-Serif" font-size="10.00">helper_functions.hpp</text>
</a>
</g>
</g>
<!-- Node1&#45;&gt;Node21 -->
<g id="edge12" class="edge">
<title>Node1&#45;&gt;Node21</title>
<path fill="none" stroke="midnightblue" d="M2147.9,-190.36C2126.72,-178.51 2100.27,-163.71 2081.37,-153.14"/>
<polygon fill="midnightblue" stroke="midnightblue" points="2082.94,-150 2072.5,-148.17 2079.52,-156.11 2082.94,-150"/>
</g>
<!-- Node36 -->
<g id="node30" class="node">
<title>Node36</title>
<g id="a_node30"><a xlink:title=" ">
<polygon fill="white" stroke="#bfbfbf" points="2732,-62 2732,-81 2776,-81 2776,-62 2732,-62"/>
<text text-anchor="middle" x="2754" y="-69" font-family="Helvetica,sans-Serif" font-size="10.00">ctime</text>
</a>
</g>
</g>
<!-- Node1&#45;&gt;Node36 -->
<g id="edge46" class="edge">
<title>Node1&#45;&gt;Node36</title>
<path fill="none" stroke="midnightblue" d="M2182.37,-190.3C2182.91,-170.02 2187.23,-139.17 2207,-123 2295.97,-50.22 2611.73,-115.84 2723,-87 2724.98,-86.49 2727,-85.85 2728.99,-85.13"/>
<polygon fill="midnightblue" stroke="midnightblue" points="2730.8,-88.16 2738.65,-81.04 2728.07,-81.71 2730.8,-88.16"/>
</g>
<!-- Node38 -->
<g id="node33" class="node">
<title>Node38</title>
<g id="a_node33"><a xlink:title=" ">
<polygon fill="white" stroke="#bfbfbf" points="2666.5,-62 2666.5,-81 2713.5,-81 2713.5,-62 2666.5,-62"/>
<text text-anchor="middle" x="2690" y="-69" font-family="Helvetica,sans-Serif" font-size="10.00">vector</text>
</a>
</g>
</g>
<!-- Node1&#45;&gt;Node38 -->
<g id="edge44" class="edge">
<title>Node1&#45;&gt;Node38</title>
<path fill="none" stroke="midnightblue" d="M2171.72,-190.4C2162.1,-170.8 2152.24,-141.05 2169,-123 2206,-83.17 2604.24,-100.13 2657,-87 2659.36,-86.41 2661.76,-85.67 2664.14,-84.84"/>
<polygon fill="midnightblue" stroke="midnightblue" points="2665.64,-88 2673.6,-81.02 2663.02,-81.51 2665.64,-88"/>
</g>
<!-- Node39 -->
<g id="node34" class="node">
<title>Node39</title>
<g id="a_node34"><a xlink:title=" ">
<polygon fill="white" stroke="#bfbfbf" points="2794,-62 2794,-81 2844,-81 2844,-62 2794,-62"/>
<text text-anchor="middle" x="2819" y="-69" font-family="Helvetica,sans-Serif" font-size="10.00">chrono</text>
</a>
</g>
</g>
<!-- Node1&#45;&gt;Node39 -->
<g id="edge41" class="edge">
<title>Node1&#45;&gt;Node39</title>
<path fill="none" stroke="midnightblue" d="M2189.88,-190.15C2198.22,-169.44 2214.42,-137.93 2240,-123 2344.82,-61.81 2666.95,-115.21 2785,-87 2787.51,-86.4 2790.07,-85.63 2792.61,-84.76"/>
<polygon fill="midnightblue" stroke="midnightblue" points="2794.06,-87.95 2802.09,-81.04 2791.5,-81.43 2794.06,-87.95"/>
</g>
<!-- Node76 -->
<g id="node37" class="node">
<title>Node76</title>
<g id="a_node37"><a xlink:title=" ">
<polygon fill="white" stroke="#bfbfbf" points="2249,-129 2249,-148 2307,-148 2307,-129 2249,-129"/>
<text text-anchor="middle" x="2278" y="-136" font-family="Helvetica,sans-Serif" font-size="10.00">memory</text>
</a>
</g>
</g>
<!-- Node1&#45;&gt;Node76 -->
<g id="edge42" class="edge">
<title>Node1&#45;&gt;Node76</title>
<path fill="none" stroke="midnightblue" d="M2209.46,-190.36C2224.92,-178.89 2244.1,-164.65 2258.24,-154.16"/>
<polygon fill="midnightblue" stroke="midnightblue" points="2260.37,-156.94 2266.31,-148.17 2256.2,-151.32 2260.37,-156.94"/>
</g>
<!-- Node77 -->
<g id="node38" class="node">
<title>Node77</title>
<g id="a_node38"><a xlink:title=" ">
<polygon fill="white" stroke="#bfbfbf" points="2325.5,-129 2325.5,-148 2424.5,-148 2424.5,-129 2325.5,-129"/>
<text text-anchor="middle" x="2375" y="-136" font-family="Helvetica,sans-Serif" font-size="10.00">rclcpp/rclcpp.hpp</text>
</a>
</g>
</g>
<!-- Node1&#45;&gt;Node77 -->
<g id="edge47" class="edge">
<title>Node1&#45;&gt;Node77</title>
<path fill="none" stroke="midnightblue" d="M2236.23,-190.46C2270.18,-177.99 2313.1,-162.23 2342.16,-151.56"/>
<polygon fill="midnightblue" stroke="midnightblue" points="2343.63,-154.75 2351.82,-148.01 2341.22,-148.17 2343.63,-154.75"/>
</g>
<!-- Node78 -->
<g id="node39" class="node">
<title>Node78</title>
<g id="a_node39"><a xlink:title=" ">
<polygon fill="white" stroke="#bfbfbf" points="2442.5,-123.5 2442.5,-153.5 2579.5,-153.5 2579.5,-123.5 2442.5,-123.5"/>
<text text-anchor="start" x="2450.5" y="-141.5" font-family="Helvetica,sans-Serif" font-size="10.00">rclcpp_lifecycle/lifecycle</text>
<text text-anchor="middle" x="2511" y="-130.5" font-family="Helvetica,sans-Serif" font-size="10.00">_node.hpp</text>
</a>
</g>
</g>
<!-- Node1&#45;&gt;Node78 -->
<g id="edge48" class="edge">
<title>Node1&#45;&gt;Node78</title>
<path fill="none" stroke="midnightblue" d="M2250.56,-195.48C2304.52,-183.88 2380.08,-167.64 2435.92,-155.64"/>
<polygon fill="midnightblue" stroke="midnightblue" points="2436.72,-159.05 2445.76,-153.52 2435.25,-152.2 2436.72,-159.05"/>
</g>
<!-- Node79 -->
<g id="node40" class="node">
<title>Node79</title>
<g id="a_node40"><a xlink:title=" ">
<polygon fill="white" stroke="#bfbfbf" points="2597.5,-123.5 2597.5,-153.5 2710.5,-153.5 2710.5,-123.5 2597.5,-123.5"/>
<text text-anchor="start" x="2605.5" y="-141.5" font-family="Helvetica,sans-Serif" font-size="10.00">lifecycle_msgs/msg</text>
<text text-anchor="middle" x="2654" y="-130.5" font-family="Helvetica,sans-Serif" font-size="10.00">/state.hpp</text>
</a>
</g>
</g>
<!-- Node1&#45;&gt;Node79 -->
<g id="edge49" class="edge">
<title>Node1&#45;&gt;Node79</title>
<path fill="none" stroke="midnightblue" d="M2250.8,-202.38C2329.49,-193.15 2463.37,-176.25 2587.29,-154.23"/>
<polygon fill="midnightblue" stroke="midnightblue" points="2588.11,-157.64 2597.34,-152.43 2586.87,-150.75 2588.11,-157.64"/>
</g>
<!-- Node80 -->
<g id="node41" class="node">
<title>Node80</title>
<g id="a_node41"><a xlink:title=" ">
<polygon fill="white" stroke="#bfbfbf" points="2729,-123.5 2729,-153.5 2857,-153.5 2857,-123.5 2729,-123.5"/>
<text text-anchor="start" x="2737" y="-141.5" font-family="Helvetica,sans-Serif" font-size="10.00">px4_msgs/msg/vehicle</text>
<text text-anchor="middle" x="2793" y="-130.5" font-family="Helvetica,sans-Serif" font-size="10.00">_odometry.hpp</text>
</a>
</g>
</g>
<!-- Node1&#45;&gt;Node80 -->
<g id="edge50" class="edge">
<title>Node1&#45;&gt;Node80</title>
<path fill="none" stroke="midnightblue" d="M2250.65,-204.96C2350.77,-197.05 2544.46,-180.05 2718.83,-154.09"/>
<polygon fill="midnightblue" stroke="midnightblue" points="2719.6,-157.51 2728.96,-152.57 2718.56,-150.59 2719.6,-157.51"/>
</g>
<!-- Node5 -->
<g id="node42" class="node">
<title>Node5</title>
<g id="a_node42"><a xlink:href="vehicle__class_8hpp.html" target="_top" xlink:title="Header for the vehicle class object.">
<polygon fill="white" stroke="black" points="2939.5,-129 2939.5,-148 3042.5,-148 3042.5,-129 2939.5,-129"/>
<text text-anchor="middle" x="2991" y="-136" font-family="Helvetica,sans-Serif" font-size="10.00">vehicle_class.hpp</text>
</a>
</g>
</g>
<!-- Node1&#45;&gt;Node5 -->
<g id="edge51" class="edge">
<title>Node1&#45;&gt;Node5</title>
<path fill="none" stroke="midnightblue" d="M2250.93,-205.19C2373.78,-196.33 2641.05,-176.26 2866,-154 2886.64,-151.96 2909.17,-149.43 2929.35,-147.07"/>
<polygon fill="midnightblue" stroke="midnightblue" points="2929.83,-150.54 2939.35,-145.89 2929.01,-143.59 2929.83,-150.54"/>
</g>
<!-- Node50 -->
<g id="node44" class="node">
<title>Node50</title>
<g id="a_node44"><a xlink:href="flight__log_8hpp.html" target="_top" xlink:title="Utilities for logging flight data.">
<polygon fill="white" stroke="red" points="3060.5,-129 3060.5,-148 3143.5,-148 3143.5,-129 3060.5,-129"/>
<text text-anchor="middle" x="3102" y="-136" font-family="Helvetica,sans-Serif" font-size="10.00">flight_log.hpp</text>
</a>
</g>
</g>
<!-- Node1&#45;&gt;Node50 -->
<g id="edge54" class="edge">
<title>Node1&#45;&gt;Node50</title>
<path fill="none" stroke="midnightblue" d="M2250.64,-210.63C2397.65,-210.9 2756.77,-205.68 3052,-154 3056.81,-153.16 3061.82,-152.03 3066.72,-150.76"/>
<polygon fill="midnightblue" stroke="midnightblue" points="3067.86,-154.08 3076.56,-148.04 3065.99,-147.33 3067.86,-154.08"/>
</g>
<!-- Node3 -->
<g id="node3" class="node">
<title>Node3</title>
<g id="a_node3"><a xlink:href="PID__OMEGA_8hpp.html" target="_top" xlink:title="PID with angular veocities for the QRBP.">
<polygon fill="white" stroke="red" points="5,-62 5,-81 101,-81 101,-62 5,-62"/>
<text text-anchor="middle" x="53" y="-69" font-family="Helvetica,sans-Serif" font-size="10.00">PID_OMEGA.hpp</text>
</a>
</g>
</g>
<!-- Node2&#45;&gt;Node3 -->
<g id="edge2" class="edge">
<title>Node2&#45;&gt;Node3</title>
<path fill="none" stroke="midnightblue" d="M53,-128.73C53,-119.18 53,-103.62 53,-91.28"/>
<polygon fill="midnightblue" stroke="midnightblue" points="56.5,-91.13 53,-81.13 49.5,-91.13 56.5,-91.13"/>
</g>
<!-- Node16 -->
<g id="node6" class="node">
<title>Node16</title>
<g id="a_node6"><a xlink:title=" ">
<polygon fill="white" stroke="#bfbfbf" points="130,-62 130,-81 180,-81 180,-62 130,-62"/>
<text text-anchor="middle" x="155" y="-69" font-family="Helvetica,sans-Serif" font-size="10.00">cstdint</text>
</a>
</g>
</g>
<!-- Node15&#45;&gt;Node16 -->
<g id="edge5" class="edge">
<title>Node15&#45;&gt;Node16</title>
<path fill="none" stroke="midnightblue" d="M285.95,-128.87C260,-117.7 214.58,-98.15 184.64,-85.26"/>
<polygon fill="midnightblue" stroke="midnightblue" points="185.7,-81.91 175.13,-81.17 182.94,-88.34 185.7,-81.91"/>
</g>
<!-- Node12 -->
<g id="node8" class="node">
<title>Node12</title>
<g id="a_node8"><a xlink:title=" ">
<polygon fill="white" stroke="#bfbfbf" points="386,-62 386,-81 446,-81 446,-62 386,-62"/>
<text text-anchor="middle" x="416" y="-69" font-family="Helvetica,sans-Serif" font-size="10.00">iostream</text>
</a>
</g>
</g>
<!-- Node17&#45;&gt;Node12 -->
<g id="edge7" class="edge">
<title>Node17&#45;&gt;Node12</title>
<path fill="none" stroke="midnightblue" d="M425.52,-128.73C423.9,-119.18 421.27,-103.62 419.18,-91.28"/>
<polygon fill="midnightblue" stroke="midnightblue" points="422.58,-90.4 417.46,-81.13 415.68,-91.57 422.58,-90.4"/>
</g>
<!-- Node17&#45;&gt;Node9 -->
<g id="edge8" class="edge">
<title>Node17&#45;&gt;Node9</title>
<path fill="none" stroke="midnightblue" d="M416.08,-128.73C402.96,-118.21 380.74,-100.38 364.84,-87.62"/>
<polygon fill="midnightblue" stroke="midnightblue" points="366.74,-84.66 356.75,-81.13 362.36,-90.12 366.74,-84.66"/>
</g>
<!-- Node17&#45;&gt;Node18 -->
<g id="edge9" class="edge">
<title>Node17&#45;&gt;Node18</title>
<path fill="none" stroke="midnightblue" d="M435.77,-128.73C446.1,-118.4 463.46,-101.04 476.17,-88.33"/>
<polygon fill="midnightblue" stroke="midnightblue" points="478.78,-90.67 483.37,-81.13 473.83,-85.72 478.78,-90.67"/>
</g>
<!-- Node19 -->
<g id="node11" class="node">
<title>Node19</title>
<g id="a_node11"><a xlink:title=" ">
<polygon fill="white" stroke="#bfbfbf" points="236.5,-62 236.5,-81 305.5,-81 305.5,-62 236.5,-62"/>
<text text-anchor="middle" x="271" y="-69" font-family="Helvetica,sans-Serif" font-size="10.00">type_traits</text>
</a>
</g>
</g>
<!-- Node17&#45;&gt;Node19 -->
<g id="edge10" class="edge">
<title>Node17&#45;&gt;Node19</title>
<path fill="none" stroke="midnightblue" d="M406.28,-128.87C379.36,-117.65 332.14,-97.98 301.22,-85.09"/>
<polygon fill="midnightblue" stroke="midnightblue" points="302.38,-81.78 291.8,-81.17 299.69,-88.24 302.38,-81.78"/>
</g>
<!-- Node20 -->
<g id="node12" class="node">
<title>Node20</title>
<g id="a_node12"><a xlink:title=" ">
<polygon fill="white" stroke="#bfbfbf" points="2143.5,-0.5 2143.5,-19.5 2220.5,-19.5 2220.5,-0.5 2143.5,-0.5"/>
<text text-anchor="middle" x="2182" y="-7.5" font-family="Helvetica,sans-Serif" font-size="10.00">Eigen/Dense</text>
</a>
</g>
</g>
<!-- Node17&#45;&gt;Node20 -->
<g id="edge11" class="edge">
<title>Node17&#45;&gt;Node20</title>
<path fill="none" stroke="midnightblue" d="M390.89,-128.97C333.98,-115.45 229.56,-90.28 227,-87 218.53,-76.13 217.37,-65.85 227,-56 261.35,-20.85 1834.02,-12.47 2133.15,-11.19"/>
<polygon fill="midnightblue" stroke="midnightblue" points="2133.27,-14.69 2143.25,-11.15 2133.24,-7.69 2133.27,-14.69"/>
</g>
<!-- Node21&#45;&gt;Node12 -->
<g id="edge25" class="edge">
<title>Node21&#45;&gt;Node12</title>
<path fill="none" stroke="midnightblue" d="M1997.16,-136.76C1724.73,-133.24 608.25,-117.07 455,-87 451.56,-86.33 448.03,-85.39 444.56,-84.31"/>
<polygon fill="midnightblue" stroke="midnightblue" points="445.68,-80.99 435.08,-81 443.37,-87.6 445.68,-80.99"/>
</g>
<!-- Node21&#45;&gt;Node9 -->
<g id="edge34" class="edge">
<title>Node21&#45;&gt;Node9</title>
<path fill="none" stroke="midnightblue" d="M1997.49,-137.14C1717.36,-135.25 536.94,-125.09 377,-87 374.79,-86.47 372.55,-85.78 370.34,-84.99"/>
<polygon fill="midnightblue" stroke="midnightblue" points="371.58,-81.71 361,-81.02 368.84,-88.15 371.58,-81.71"/>
</g>
<!-- Node21&#45;&gt;Node20 -->
<g id="edge14" class="edge">
<title>Node21&#45;&gt;Node20</title>
<path fill="none" stroke="midnightblue" d="M2092.04,-128.93C2115.11,-121.52 2144.23,-108.53 2162,-87 2175.41,-70.75 2179.92,-46.47 2181.38,-29.74"/>
<polygon fill="midnightblue" stroke="midnightblue" points="2184.89,-29.75 2181.99,-19.56 2177.9,-29.34 2184.89,-29.75"/>
</g>
<!-- Node22 -->
<g id="node14" class="node">
<title>Node22</title>
<g id="a_node14"><a xlink:title=" ">
<polygon fill="white" stroke="#bfbfbf" points="2606,-62 2606,-81 2648,-81 2648,-62 2606,-62"/>
<text text-anchor="middle" x="2627" y="-69" font-family="Helvetica,sans-Serif" font-size="10.00">array</text>
</a>
</g>
</g>
<!-- Node21&#45;&gt;Node22 -->
<g id="edge13" class="edge">
<title>Node21&#45;&gt;Node22</title>
<path fill="none" stroke="midnightblue" d="M2096.03,-128.98C2107.27,-126.76 2119.59,-124.56 2131,-123 2334.62,-95.19 2392.15,-134.92 2592,-87 2594.52,-86.4 2597.09,-85.63 2599.64,-84.78"/>
<polygon fill="midnightblue" stroke="midnightblue" points="2601.1,-87.97 2609.2,-81.14 2598.61,-81.43 2601.1,-87.97"/>
</g>
<!-- Node11 -->
<g id="node15" class="node">
<title>Node11</title>
<g id="a_node15"><a xlink:title=" ">
<polygon fill="white" stroke="#bfbfbf" points="538,-62 538,-81 648,-81 648,-62 538,-62"/>
<text text-anchor="middle" x="593" y="-69" font-family="Helvetica,sans-Serif" font-size="10.00">nlohmann/json.hpp</text>
</a>
</g>
</g>
<!-- Node21&#45;&gt;Node11 -->
<g id="edge15" class="edge">
<title>Node21&#45;&gt;Node11</title>
<path fill="none" stroke="midnightblue" d="M1997.19,-135.42C1731.91,-126.17 673.87,-89.2 657,-87 650.02,-86.09 642.67,-84.78 635.55,-83.3"/>
<polygon fill="midnightblue" stroke="midnightblue" points="635.87,-79.79 625.35,-81.06 634.36,-86.63 635.87,-79.79"/>
</g>
<!-- Node23 -->
<g id="node16" class="node">
<title>Node23</title>
<g id="a_node16"><a xlink:title=" ">
<polygon fill="white" stroke="#bfbfbf" points="666,-62 666,-81 758,-81 758,-62 666,-62"/>
<text text-anchor="middle" x="712" y="-69" font-family="Helvetica,sans-Serif" font-size="10.00">boost/array.hpp</text>
</a>
</g>
</g>
<!-- Node21&#45;&gt;Node23 -->
<g id="edge16" class="edge">
<title>Node21&#45;&gt;Node23</title>
<path fill="none" stroke="midnightblue" d="M1997.25,-135.34C1747.4,-126.28 797.79,-91.6 767,-87 761.38,-86.16 755.52,-84.97 749.79,-83.62"/>
<polygon fill="midnightblue" stroke="midnightblue" points="750.29,-80.13 739.73,-81.07 748.57,-86.92 750.29,-80.13"/>
</g>
<!-- Node24 -->
<g id="node17" class="node">
<title>Node24</title>
<g id="a_node17"><a xlink:title=" ">
<polygon fill="white" stroke="#bfbfbf" points="776.5,-62 776.5,-81 889.5,-81 889.5,-62 776.5,-62"/>
<text text-anchor="middle" x="833" y="-69" font-family="Helvetica,sans-Serif" font-size="10.00">boost/bind/bind.hpp</text>
</a>
</g>
</g>
<!-- Node21&#45;&gt;Node24 -->
<g id="edge17" class="edge">
<title>Node21&#45;&gt;Node24</title>
<path fill="none" stroke="midnightblue" d="M1997.13,-135.5C1775.4,-127.99 1008.06,-101.25 899,-87 891.64,-86.04 883.89,-84.67 876.39,-83.15"/>
<polygon fill="midnightblue" stroke="midnightblue" points="876.89,-79.67 866.38,-81.01 875.43,-86.52 876.89,-79.67"/>
</g>
<!-- Node25 -->
<g id="node18" class="node">
<title>Node25</title>
<g id="a_node18"><a xlink:title=" ">
<polygon fill="white" stroke="#bfbfbf" points="908,-62 908,-81 1062,-81 1062,-62 908,-62"/>
<text text-anchor="middle" x="985" y="-69" font-family="Helvetica,sans-Serif" font-size="10.00">boost/bind/placeholders.hpp</text>
</a>
</g>
</g>
<!-- Node21&#45;&gt;Node25 -->
<g id="edge18" class="edge">
<title>Node21&#45;&gt;Node25</title>
<path fill="none" stroke="midnightblue" d="M1997.27,-135.35C1812.57,-128.56 1252.14,-106.84 1071,-87 1060.73,-85.88 1049.83,-84.32 1039.37,-82.65"/>
<polygon fill="midnightblue" stroke="midnightblue" points="1039.94,-79.19 1029.5,-81.01 1038.79,-86.1 1039.94,-79.19"/>
</g>
<!-- Node26 -->
<g id="node19" class="node">
<title>Node26</title>
<g id="a_node19"><a xlink:title=" ">
<polygon fill="white" stroke="#bfbfbf" points="1080.5,-62 1080.5,-81 1221.5,-81 1221.5,-62 1080.5,-62"/>
<text text-anchor="middle" x="1151" y="-69" font-family="Helvetica,sans-Serif" font-size="10.00">boost/numeric/odeint.hpp</text>
</a>
</g>
</g>
<!-- Node21&#45;&gt;Node26 -->
<g id="edge19" class="edge">
<title>Node21&#45;&gt;Node26</title>
<path fill="none" stroke="midnightblue" d="M1997.43,-136.27C1861.24,-132.94 1516.8,-121.51 1231,-87 1221.84,-85.89 1212.14,-84.41 1202.78,-82.81"/>
<polygon fill="midnightblue" stroke="midnightblue" points="1203.25,-79.34 1192.79,-81.04 1202.03,-86.23 1203.25,-79.34"/>
</g>
<!-- Node27 -->
<g id="node20" class="node">
<title>Node27</title>
<g id="a_node20"><a xlink:title=" ">
<polygon fill="white" stroke="#bfbfbf" points="1240,-62 1240,-81 1388,-81 1388,-62 1240,-62"/>
<text text-anchor="middle" x="1314" y="-69" font-family="Helvetica,sans-Serif" font-size="10.00">boost/numeric/interval.hpp</text>
</a>
</g>
</g>
<!-- Node21&#45;&gt;Node27 -->
<g id="edge20" class="edge">
<title>Node21&#45;&gt;Node27</title>
<path fill="none" stroke="midnightblue" d="M1997.2,-134.86C1881.13,-129.31 1617.36,-114.61 1397,-87 1387.73,-85.84 1377.91,-84.35 1368.4,-82.78"/>
<polygon fill="midnightblue" stroke="midnightblue" points="1368.69,-79.28 1358.25,-81.05 1367.52,-86.18 1368.69,-79.28"/>
</g>
<!-- Node28 -->
<g id="node21" class="node">
<title>Node28</title>
<g id="a_node21"><a xlink:title=" ">
<polygon fill="white" stroke="#bfbfbf" points="1406,-56.5 1406,-86.5 1550,-86.5 1550,-56.5 1406,-56.5"/>
<text text-anchor="start" x="1414" y="-74.5" font-family="Helvetica,sans-Serif" font-size="10.00">boost/numeric/odeint</text>
<text text-anchor="middle" x="1478" y="-63.5" font-family="Helvetica,sans-Serif" font-size="10.00">/stepper/runge_kutta4.hpp</text>
</a>
</g>
</g>
<!-- Node21&#45;&gt;Node28 -->
<g id="edge21" class="edge">
<title>Node21&#45;&gt;Node28</title>
<path fill="none" stroke="midnightblue" d="M1997.41,-132.93C1905.73,-125.58 1724.34,-109.75 1560.64,-87.17"/>
<polygon fill="midnightblue" stroke="midnightblue" points="1560.77,-83.65 1550.38,-85.74 1559.8,-90.58 1560.77,-83.65"/>
</g>
<!-- Node29 -->
<g id="node22" class="node">
<title>Node29</title>
<g id="a_node22"><a xlink:title=" ">
<polygon fill="white" stroke="#bfbfbf" points="1568,-56.5 1568,-86.5 1684,-86.5 1684,-56.5 1568,-56.5"/>
<text text-anchor="start" x="1576" y="-74.5" font-family="Helvetica,sans-Serif" font-size="10.00">boost/numeric/ublas</text>
<text text-anchor="middle" x="1626" y="-63.5" font-family="Helvetica,sans-Serif" font-size="10.00">/matrix.hpp</text>
</a>
</g>
</g>
<!-- Node21&#45;&gt;Node29 -->
<g id="edge22" class="edge">
<title>Node21&#45;&gt;Node29</title>
<path fill="none" stroke="midnightblue" d="M1997.2,-130.6C1927.02,-122.2 1806.93,-106.84 1694.23,-87.14"/>
<polygon fill="midnightblue" stroke="midnightblue" points="1694.51,-83.63 1684.05,-85.34 1693.29,-90.53 1694.51,-83.63"/>
</g>
<!-- Node30 -->
<g id="node23" class="node">
<title>Node30</title>
<g id="a_node23"><a xlink:title=" ">
<polygon fill="white" stroke="#bfbfbf" points="1702,-56.5 1702,-86.5 1818,-86.5 1818,-56.5 1702,-56.5"/>
<text text-anchor="start" x="1710" y="-74.5" font-family="Helvetica,sans-Serif" font-size="10.00">boost/numeric/ublas</text>
<text text-anchor="middle" x="1760" y="-63.5" font-family="Helvetica,sans-Serif" font-size="10.00">/io.hpp</text>
</a>
</g>
</g>
<!-- Node21&#45;&gt;Node30 -->
<g id="edge23" class="edge">
<title>Node21&#45;&gt;Node30</title>
<path fill="none" stroke="midnightblue" d="M2017.87,-128.94C1969.62,-118.38 1886.82,-100.26 1828.07,-87.4"/>
<polygon fill="midnightblue" stroke="midnightblue" points="1828.64,-83.94 1818.13,-85.22 1827.15,-90.78 1828.64,-83.94"/>
</g>
<!-- Node31 -->
<g id="node24" class="node">
<title>Node31</title>
<g id="a_node24"><a xlink:title=" ">
<polygon fill="white" stroke="#bfbfbf" points="1836,-62 1836,-81 2014,-81 2014,-62 1836,-62"/>
<text text-anchor="middle" x="1925" y="-69" font-family="Helvetica,sans-Serif" font-size="10.00">boost/math/tools/polynomial.hpp</text>
</a>
</g>
</g>
<!-- Node21&#45;&gt;Node31 -->
<g id="edge24" class="edge">
<title>Node21&#45;&gt;Node31</title>
<path fill="none" stroke="midnightblue" d="M2039.47,-128.87C2016.99,-117.8 1977.77,-98.49 1951.6,-85.6"/>
<polygon fill="midnightblue" stroke="midnightblue" points="1953.12,-82.44 1942.6,-81.17 1950.03,-88.72 1953.12,-82.44"/>
</g>
<!-- Node32 -->
<g id="node25" class="node">
<title>Node32</title>
<g id="a_node25"><a xlink:title=" ">
<polygon fill="white" stroke="#bfbfbf" points="2032,-62 2032,-81 2082,-81 2082,-62 2032,-62"/>
<text text-anchor="middle" x="2057" y="-69" font-family="Helvetica,sans-Serif" font-size="10.00">stdio.h</text>
</a>
</g>
</g>
<!-- Node21&#45;&gt;Node32 -->
<g id="edge26" class="edge">
<title>Node21&#45;&gt;Node32</title>
<path fill="none" stroke="midnightblue" d="M2057,-128.73C2057,-119.18 2057,-103.62 2057,-91.28"/>
<polygon fill="midnightblue" stroke="midnightblue" points="2060.5,-91.13 2057,-81.13 2053.5,-91.13 2060.5,-91.13"/>
</g>
<!-- Node33 -->
<g id="node26" class="node">
<title>Node33</title>
<g id="a_node26"><a xlink:title=" ">
<polygon fill="white" stroke="#bfbfbf" points="2100.5,-62 2100.5,-81 2153.5,-81 2153.5,-62 2100.5,-62"/>
<text text-anchor="middle" x="2127" y="-69" font-family="Helvetica,sans-Serif" font-size="10.00">stdlib.h</text>
</a>
</g>
</g>
<!-- Node21&#45;&gt;Node33 -->
<g id="edge27" class="edge">
<title>Node21&#45;&gt;Node33</title>
<path fill="none" stroke="midnightblue" d="M2066.44,-128.73C2077.67,-118.31 2096.62,-100.71 2110.34,-87.97"/>
<polygon fill="midnightblue" stroke="midnightblue" points="2112.76,-90.5 2117.71,-81.13 2108,-85.37 2112.76,-90.5"/>
</g>
<!-- Node7 -->
<g id="node27" class="node">
<title>Node7</title>
<g id="a_node27"><a xlink:title=" ">
<polygon fill="white" stroke="#bfbfbf" points="2554.5,-0.5 2554.5,-19.5 2601.5,-19.5 2601.5,-0.5 2554.5,-0.5"/>
<text text-anchor="middle" x="2578" y="-7.5" font-family="Helvetica,sans-Serif" font-size="10.00">cmath</text>
</a>
</g>
</g>
<!-- Node21&#45;&gt;Node7 -->
<g id="edge28" class="edge">
<title>Node21&#45;&gt;Node7</title>
<path fill="none" stroke="midnightblue" d="M2111.39,-128.97C2125.87,-126.86 2141.51,-124.71 2156,-123 2245.29,-112.48 2490.67,-145.43 2559,-87 2575.28,-73.08 2578.72,-47.52 2578.96,-29.91"/>
<polygon fill="midnightblue" stroke="midnightblue" points="2582.45,-29.62 2578.75,-19.69 2575.45,-29.76 2582.45,-29.62"/>
</g>
<!-- Node34 -->
<g id="node28" class="node">
<title>Node34</title>
<g id="a_node28"><a xlink:title=" ">
<polygon fill="white" stroke="#bfbfbf" points="2210.5,-62 2210.5,-81 2261.5,-81 2261.5,-62 2210.5,-62"/>
<text text-anchor="middle" x="2236" y="-69" font-family="Helvetica,sans-Serif" font-size="10.00">math.h</text>
</a>
</g>
</g>
<!-- Node21&#45;&gt;Node34 -->
<g id="edge29" class="edge">
<title>Node21&#45;&gt;Node34</title>
<path fill="none" stroke="midnightblue" d="M2080.77,-128.87C2112.15,-117.47 2167.56,-97.35 2202.99,-84.49"/>
<polygon fill="midnightblue" stroke="midnightblue" points="2204.21,-87.77 2212.42,-81.06 2201.82,-81.19 2204.21,-87.77"/>
</g>
<!-- Node35 -->
<g id="node29" class="node">
<title>Node35</title>
<g id="a_node29"><a xlink:title=" ">
<polygon fill="white" stroke="#bfbfbf" points="2280,-62 2280,-81 2328,-81 2328,-62 2280,-62"/>
<text text-anchor="middle" x="2304" y="-69" font-family="Helvetica,sans-Serif" font-size="10.00">time.h</text>
</a>
</g>
</g>
<!-- Node21&#45;&gt;Node35 -->
<g id="edge30" class="edge">
<title>Node21&#45;&gt;Node35</title>
<path fill="none" stroke="midnightblue" d="M2097.3,-128.91C2149.94,-117.53 2239.14,-97.66 2271,-87 2272.87,-86.37 2274.78,-85.68 2276.69,-84.95"/>
<polygon fill="midnightblue" stroke="midnightblue" points="2278.17,-88.13 2286.08,-81.08 2275.5,-81.66 2278.17,-88.13"/>
</g>
<!-- Node21&#45;&gt;Node36 -->
<g id="edge31" class="edge">
<title>Node21&#45;&gt;Node36</title>
<path fill="none" stroke="midnightblue" d="M2116.79,-129.04C2133.65,-126.85 2152.02,-124.65 2169,-123 2414.59,-99.15 2484,-148.33 2723,-87 2724.99,-86.49 2727,-85.85 2729,-85.14"/>
<polygon fill="midnightblue" stroke="midnightblue" points="2730.8,-88.17 2738.65,-81.06 2728.08,-81.72 2730.8,-88.17"/>
</g>
<!-- Node37 -->
<g id="node31" class="node">
<title>Node37</title>
<g id="a_node31"><a xlink:title=" ">
<polygon fill="white" stroke="#bfbfbf" points="2862,-62 2862,-81 2918,-81 2918,-62 2862,-62"/>
<text text-anchor="middle" x="2890" y="-69" font-family="Helvetica,sans-Serif" font-size="10.00">iomanip</text>
</a>
</g>
</g>
<!-- Node21&#45;&gt;Node37 -->
<g id="edge32" class="edge">
<title>Node21&#45;&gt;Node37</title>
<path fill="none" stroke="midnightblue" d="M2116.73,-132.46C2152.48,-129.52 2198.83,-125.84 2240,-123 2512.27,-104.22 2586.43,-145.51 2853,-87 2856,-86.34 2859.08,-85.47 2862.12,-84.49"/>
<polygon fill="midnightblue" stroke="midnightblue" points="2863.34,-87.77 2871.53,-81.05 2860.94,-81.19 2863.34,-87.77"/>
</g>
<!-- Node10 -->
<g id="node32" class="node">
<title>Node10</title>
<g id="a_node32"><a xlink:title=" ">
<polygon fill="white" stroke="#bfbfbf" points="2936.5,-62 2936.5,-81 2991.5,-81 2991.5,-62 2936.5,-62"/>
<text text-anchor="middle" x="2964" y="-69" font-family="Helvetica,sans-Serif" font-size="10.00">fstream</text>
</a>
</g>
</g>
<!-- Node21&#45;&gt;Node10 -->
<g id="edge33" class="edge">
<title>Node21&#45;&gt;Node10</title>
<path fill="none" stroke="midnightblue" d="M2116.72,-132.36C2152.47,-129.39 2198.82,-125.71 2240,-123 2545.09,-102.92 2628.15,-151.61 2927,-87 2930.01,-86.35 2933.09,-85.49 2936.12,-84.51"/>
<polygon fill="midnightblue" stroke="midnightblue" points="2937.34,-87.79 2945.54,-81.08 2934.95,-81.21 2937.34,-87.79"/>
</g>
<!-- Node21&#45;&gt;Node38 -->
<g id="edge35" class="edge">
<title>Node21&#45;&gt;Node38</title>
<path fill="none" stroke="midnightblue" d="M2095.64,-128.98C2106.98,-126.74 2119.45,-124.52 2131,-123 2363.32,-92.41 2429.46,-142.97 2657,-87 2659.36,-86.42 2661.76,-85.68 2664.14,-84.85"/>
<polygon fill="midnightblue" stroke="midnightblue" points="2665.64,-88.02 2673.61,-81.04 2663.02,-81.52 2665.64,-88.02"/>
</g>
<!-- Node21&#45;&gt;Node39 -->
<g id="edge36" class="edge">
<title>Node21&#45;&gt;Node39</title>
<path fill="none" stroke="midnightblue" d="M2116.81,-131.25C2144.27,-128.5 2177.27,-125.36 2207,-123 2463.58,-102.61 2534.55,-146.34 2785,-87 2787.51,-86.4 2790.08,-85.64 2792.61,-84.77"/>
<polygon fill="midnightblue" stroke="midnightblue" points="2794.06,-87.96 2802.09,-81.05 2791.5,-81.44 2794.06,-87.96"/>
</g>
<!-- Node40 -->
<g id="node35" class="node">
<title>Node40</title>
<g id="a_node35"><a xlink:title=" ">
<polygon fill="white" stroke="#bfbfbf" points="2346.5,-62 2346.5,-81 2411.5,-81 2411.5,-62 2346.5,-62"/>
<text text-anchor="middle" x="2379" y="-69" font-family="Helvetica,sans-Serif" font-size="10.00">functional</text>
</a>
</g>
</g>
<!-- Node21&#45;&gt;Node40 -->
<g id="edge37" class="edge">
<title>Node21&#45;&gt;Node40</title>
<path fill="none" stroke="midnightblue" d="M2099.62,-128.99C2109.89,-126.99 2120.83,-124.88 2131,-123 2222.39,-106.06 2247.01,-110.24 2337,-87 2340.04,-86.22 2343.17,-85.31 2346.29,-84.35"/>
<polygon fill="midnightblue" stroke="midnightblue" points="2347.68,-87.58 2356.09,-81.15 2345.5,-80.93 2347.68,-87.58"/>
</g>
<!-- Node41 -->
<g id="node36" class="node">
<title>Node41</title>
<g id="a_node36"><a xlink:href="continuous__lyapunov__equation_8hpp.html" target="_top" xlink:title="The following code uses a different convention from MATLAB.">
<polygon fill="white" stroke="red" points="2430,-56.5 2430,-86.5 2550,-86.5 2550,-56.5 2430,-56.5"/>
<text text-anchor="start" x="2438" y="-74.5" font-family="Helvetica,sans-Serif" font-size="10.00">continuous_lyapunov</text>
<text text-anchor="middle" x="2490" y="-63.5" font-family="Helvetica,sans-Serif" font-size="10.00">_equation.hpp</text>
</a>
</g>
</g>
<!-- Node21&#45;&gt;Node41 -->
<g id="edge38" class="edge">
<title>Node21&#45;&gt;Node41</title>
<path fill="none" stroke="midnightblue" d="M2098.01,-128.93C2108.72,-126.84 2120.27,-124.72 2131,-123 2255.99,-103.02 2291.12,-108.09 2419.61,-87.14"/>
<polygon fill="midnightblue" stroke="midnightblue" points="2420.55,-90.53 2429.85,-85.45 2419.41,-83.63 2420.55,-90.53"/>
</g>
<!-- Node41&#45;&gt;Node20 -->
<g id="edge39" class="edge">
<title>Node41&#45;&gt;Node20</title>
<path fill="none" stroke="midnightblue" d="M2429.8,-57.77C2426.83,-57.17 2423.88,-56.57 2421,-56 2355.09,-42.87 2278.74,-28.67 2230.42,-19.81"/>
<polygon fill="midnightblue" stroke="midnightblue" points="2231.01,-16.36 2220.54,-18 2229.75,-23.24 2231.01,-16.36"/>
</g>
<!-- Node41&#45;&gt;Node7 -->
<g id="edge40" class="edge">
<title>Node41&#45;&gt;Node7</title>
<path fill="none" stroke="midnightblue" d="M2510.85,-56.4C2524.7,-47.04 2542.81,-34.79 2556.74,-25.38"/>
<polygon fill="midnightblue" stroke="midnightblue" points="2558.87,-28.16 2565.2,-19.66 2554.95,-22.36 2558.87,-28.16"/>
</g>
<!-- Node5&#45;&gt;Node7 -->
<g id="edge53" class="edge">
<title>Node5&#45;&gt;Node7</title>
<path fill="none" stroke="midnightblue" d="M2995.99,-128.58C3004.53,-112.02 3019.3,-76.35 3001,-56 2975.09,-27.19 2707.34,-15.37 2611.71,-12.05"/>
<polygon fill="midnightblue" stroke="midnightblue" points="2611.82,-8.55 2601.71,-11.71 2611.58,-15.55 2611.82,-8.55"/>
</g>
<!-- Node6 -->
<g id="node43" class="node">
<title>Node6</title>
<g id="a_node43"><a xlink:title=" ">
<polygon fill="white" stroke="#bfbfbf" points="3048,-62 3048,-81 3098,-81 3098,-62 3048,-62"/>
<text text-anchor="middle" x="3073" y="-69" font-family="Helvetica,sans-Serif" font-size="10.00">atomic</text>
</a>
</g>
</g>
<!-- Node5&#45;&gt;Node6 -->
<g id="edge52" class="edge">
<title>Node5&#45;&gt;Node6</title>
<path fill="none" stroke="midnightblue" d="M3002.06,-128.73C3015.34,-118.21 3037.83,-100.38 3053.93,-87.62"/>
<polygon fill="midnightblue" stroke="midnightblue" points="3056.45,-90.08 3062.12,-81.13 3052.11,-84.6 3056.45,-90.08"/>
</g>
<!-- Node50&#45;&gt;Node18 -->
<g id="edge58" class="edge">
<title>Node50&#45;&gt;Node18</title>
<path fill="none" stroke="midnightblue" d="M3077.37,-128.94C3069.38,-126.54 3060.4,-124.26 3052,-123 2774.71,-81.58 804.11,-141.02 529,-87 525.92,-86.39 522.76,-85.55 519.65,-84.56"/>
<polygon fill="midnightblue" stroke="midnightblue" points="520.65,-81.2 510.05,-81.07 518.26,-87.78 520.65,-81.2"/>
</g>
<!-- Node50&#45;&gt;Node36 -->
<g id="edge61" class="edge">
<title>Node50&#45;&gt;Node36</title>
<path fill="none" stroke="midnightblue" d="M3075.2,-128.93C3067.74,-126.77 3059.61,-124.61 3052,-123 2934.84,-98.26 2899.88,-120.75 2785,-87 2783.12,-86.45 2781.21,-85.8 2779.31,-85.08"/>
<polygon fill="midnightblue" stroke="midnightblue" points="2780.62,-81.84 2770.05,-81.13 2777.87,-88.28 2780.62,-81.84"/>
</g>
<!-- Node50&#45;&gt;Node37 -->
<g id="edge57" class="edge">
<title>Node50&#45;&gt;Node37</title>
<path fill="none" stroke="midnightblue" d="M3072.66,-128.99C3023.3,-114.68 2928.88,-87.3 2928,-87 2925.74,-86.24 2923.42,-85.43 2921.08,-84.6"/>
<polygon fill="midnightblue" stroke="midnightblue" points="2922.19,-81.27 2911.59,-81.09 2919.76,-87.84 2922.19,-81.27"/>
</g>
<!-- Node50&#45;&gt;Node10 -->
<g id="edge60" class="edge">
<title>Node50&#45;&gt;Node10</title>
<path fill="none" stroke="midnightblue" d="M3083.67,-128.87C3060.06,-117.75 3018.81,-98.32 2991.45,-85.43"/>
<polygon fill="midnightblue" stroke="midnightblue" points="2992.94,-82.26 2982.4,-81.17 2989.96,-88.59 2992.94,-82.26"/>
</g>
<!-- Node50&#45;&gt;Node39 -->
<g id="edge56" class="edge">
<title>Node50&#45;&gt;Node39</title>
<path fill="none" stroke="midnightblue" d="M3074.37,-128.93C3067.13,-126.84 3059.3,-124.71 3052,-123 2964.5,-102.46 2939.1,-112.79 2853,-87 2850.85,-86.36 2848.66,-85.62 2846.47,-84.82"/>
<polygon fill="midnightblue" stroke="midnightblue" points="2847.66,-81.53 2837.07,-81.1 2845.08,-88.04 2847.66,-81.53"/>
</g>
<!-- Node50&#45;&gt;Node6 -->
<g id="edge55" class="edge">
<title>Node50&#45;&gt;Node6</title>
<path fill="none" stroke="midnightblue" d="M3098.09,-128.73C3093.74,-118.99 3086.6,-102.98 3081.04,-90.53"/>
<polygon fill="midnightblue" stroke="midnightblue" points="3084.12,-88.83 3076.85,-81.13 3077.73,-91.69 3084.12,-88.83"/>
</g>
<!-- Node51 -->
<g id="node45" class="node">
<title>Node51</title>
<g id="a_node45"><a xlink:title=" ">
<polygon fill="white" stroke="#bfbfbf" points="3116,-62 3116,-81 3184,-81 3184,-62 3116,-62"/>
<text text-anchor="middle" x="3150" y="-69" font-family="Helvetica,sans-Serif" font-size="10.00">filesystem</text>
</a>
</g>
</g>
<!-- Node50&#45;&gt;Node51 -->
<g id="edge59" class="edge">
<title>Node50&#45;&gt;Node51</title>
<path fill="none" stroke="midnightblue" d="M3108.47,-128.73C3115.89,-118.7 3128.2,-102.01 3137.5,-89.42"/>
<polygon fill="midnightblue" stroke="midnightblue" points="3140.5,-91.25 3143.63,-81.13 3134.87,-87.09 3140.5,-91.25"/>
</g>
<!-- Node52 -->
<g id="node46" class="node">
<title>Node52</title>
<g id="a_node46"><a xlink:title=" ">
<polygon fill="white" stroke="#bfbfbf" points="3202.5,-56.5 3202.5,-86.5 3327.5,-86.5 3327.5,-56.5 3202.5,-56.5"/>
<text text-anchor="start" x="3210.5" y="-74.5" font-family="Helvetica,sans-Serif" font-size="10.00">boost/date_time/posix</text>
<text text-anchor="middle" x="3265" y="-63.5" font-family="Helvetica,sans-Serif" font-size="10.00">_time/posix_time.hpp</text>
</a>
</g>
</g>
<!-- Node50&#45;&gt;Node52 -->
<g id="edge62" class="edge">
<title>Node50&#45;&gt;Node52</title>
<path fill="none" stroke="midnightblue" d="M3123.65,-128.87C3148.21,-119.07 3188.94,-102.83 3220.39,-90.29"/>
<polygon fill="midnightblue" stroke="midnightblue" points="3221.83,-93.48 3229.82,-86.53 3219.24,-86.98 3221.83,-93.48"/>
</g>
<!-- Node53 -->
<g id="node47" class="node">
<title>Node53</title>
<g id="a_node47"><a xlink:title=" ">
<polygon fill="white" stroke="#bfbfbf" points="3345.5,-56.5 3345.5,-86.5 3500.5,-86.5 3500.5,-56.5 3345.5,-56.5"/>
<text text-anchor="start" x="3353.5" y="-74.5" font-family="Helvetica,sans-Serif" font-size="10.00">boost/date_time/posix</text>
<text text-anchor="middle" x="3423" y="-63.5" font-family="Helvetica,sans-Serif" font-size="10.00">_time/posix_time_types.hpp</text>
</a>
</g>
</g>
<!-- Node50&#45;&gt;Node53 -->
<g id="edge63" class="edge">
<title>Node50&#45;&gt;Node53</title>
<path fill="none" stroke="midnightblue" d="M3143.64,-129.07C3194.12,-118.85 3280.29,-101.4 3343.61,-88.58"/>
<polygon fill="midnightblue" stroke="midnightblue" points="3344.46,-91.97 3353.57,-86.56 3343.07,-85.11 3344.46,-91.97"/>
</g>
<!-- Node54 -->
<g id="node48" class="node">
<title>Node54</title>
<g id="a_node48"><a xlink:title=" ">
<polygon fill="white" stroke="#bfbfbf" points="3518.5,-62 3518.5,-81 3651.5,-81 3651.5,-62 3518.5,-62"/>
<text text-anchor="middle" x="3585" y="-69" font-family="Helvetica,sans-Serif" font-size="10.00">boost/log/attributes.hpp</text>
</a>
</g>
</g>
<!-- Node50&#45;&gt;Node54 -->
<g id="edge64" class="edge">
<title>Node50&#45;&gt;Node54</title>
<path fill="none" stroke="midnightblue" d="M3143.54,-133.3C3217.45,-125.62 3376.59,-108.13 3510,-87 3517.64,-85.79 3525.7,-84.38 3533.58,-82.92"/>
<polygon fill="midnightblue" stroke="midnightblue" points="3534.26,-86.35 3543.43,-81.06 3532.96,-79.47 3534.26,-86.35"/>
</g>
<!-- Node55 -->
<g id="node49" class="node">
<title>Node55</title>
<g id="a_node49"><a xlink:title=" ">
<polygon fill="white" stroke="#bfbfbf" points="3670,-56.5 3670,-86.5 3792,-86.5 3792,-56.5 3670,-56.5"/>
<text text-anchor="start" x="3678" y="-74.5" font-family="Helvetica,sans-Serif" font-size="10.00">boost/log/attributes</text>
<text text-anchor="middle" x="3731" y="-63.5" font-family="Helvetica,sans-Serif" font-size="10.00">/scoped_attribute.hpp</text>
</a>
</g>
</g>
<!-- Node50&#45;&gt;Node55 -->
<g id="edge65" class="edge">
<title>Node50&#45;&gt;Node55</title>
<path fill="none" stroke="midnightblue" d="M3143.57,-135.37C3235.09,-130.34 3461.03,-115.99 3659.94,-87.04"/>
<polygon fill="midnightblue" stroke="midnightblue" points="3660.61,-90.48 3669.99,-85.57 3659.59,-83.56 3660.61,-90.48"/>
</g>
<!-- Node56 -->
<g id="node50" class="node">
<title>Node56</title>
<g id="a_node50"><a xlink:title=" ">
<polygon fill="white" stroke="#bfbfbf" points="3810.5,-62 3810.5,-81 3917.5,-81 3917.5,-62 3810.5,-62"/>
<text text-anchor="middle" x="3864" y="-69" font-family="Helvetica,sans-Serif" font-size="10.00">boost/log/core.hpp</text>
</a>
</g>
</g>
<!-- Node50&#45;&gt;Node56 -->
<g id="edge66" class="edge">
<title>Node50&#45;&gt;Node56</title>
<path fill="none" stroke="midnightblue" d="M3143.61,-136.73C3252.29,-134.23 3553.44,-124.2 3801,-87 3807.48,-86.03 3814.29,-84.74 3820.93,-83.34"/>
<polygon fill="midnightblue" stroke="midnightblue" points="3822.16,-86.65 3831.16,-81.07 3820.64,-79.82 3822.16,-86.65"/>
</g>
</g>
</svg>
        <g id="navigator" transform="translate(0 0)" fill="#404254">
                <rect fill="#f2f5e9" fill-opacity="0.5" stroke="#606060" stroke-width=".5" x="0" y="0" width="60" height="60"/>
                <use id="zoomplus" xlink:href="#zoomPlus" x="17" y="9" onmousedown="handleZoom(evt,'in')"/>
                <use id="zoomminus" xlink:href="#zoomMin" x="42" y="9" onmousedown="handleZoom(evt,'out')"/>
                <use id="reset" xlink:href="#resetDef" x="30" y="36" onmousedown="handleReset()"/>
                <g id="arrowUp" xlink:href="#dirArrow" transform="translate(30 24)" onmousedown="handlePan(0,-1)">
                  <use xlink:href="#rim" fill="#404040">
                        <set attributeName="fill" to="#808080" begin="arrowUp.mouseover" end="arrowUp.mouseout"/>
                  </use>
                  <path fill="none" stroke="white" stroke-width="1.5" d="M0,-3.0v7 M-2.5,-0.5L0,-3.0L2.5,-0.5"/>
                </g>
                <g id="arrowRight" xlink:href="#dirArrow" transform="rotate(90) translate(36 -43)" onmousedown="handlePan(1,0)">
                  <use xlink:href="#rim" fill="#404040">
                        <set attributeName="fill" to="#808080" begin="arrowRight.mouseover" end="arrowRight.mouseout"/>
                  </use>
                  <path fill="none" stroke="white" stroke-width="1.5" d="M0,-3.0v7 M-2.5,-0.5L0,-3.0L2.5,-0.5"/>
                </g>
                <g id="arrowDown" xlink:href="#dirArrow" transform="rotate(180) translate(-30 -48)" onmousedown="handlePan(0,1)">
                  <use xlink:href="#rim" fill="#404040">
                        <set attributeName="fill" to="#808080" begin="arrowDown.mouseover" end="arrowDown.mouseout"/>
                  </use>
                  <path fill="none" stroke="white" stroke-width="1.5" d="M0,-3.0v7 M-2.5,-0.5L0,-3.0L2.5,-0.5"/>
                </g>
                <g id="arrowLeft" xlink:href="#dirArrow" transform="rotate(270) translate(-36 17)" onmousedown="handlePan(-1,0)">
                  <use xlink:href="#rim" fill="#404040">
                        <set attributeName="fill" to="#808080" begin="arrowLeft.mouseover" end="arrowLeft.mouseout"/>
                  </use>
                  <path fill="none" stroke="white" stroke-width="1.5" d="M0,-3.0v7 M-2.5,-0.5L0,-3.0L2.5,-0.5"/>
                </g>
        </g>
        <svg viewBox="0 0 15 15" width="100%" height="30px" preserveAspectRatio="xMaxYMin meet">
         <g id="arrow_out" transform="scale(0.3 0.3)">
          <a xlink:href="vio_8hpp__incl_org.svg" target="_base">
           <rect id="button" ry="5" rx="5" y="6" x="6" height="38" width="38"
                fill="#f2f5e9" fill-opacity="0.5" stroke="#606060" stroke-width="1.0"/>
           <path id="arrow"
             d="M 11.500037,31.436501 C 11.940474,20.09759 22.043105,11.32322 32.158766,21.979434 L 37.068811,17.246167 C 37.068811,17.246167 37.088388,32 37.088388,32 L 22.160133,31.978069 C 22.160133,31.978069 26.997745,27.140456 26.997745,27.140456 C 18.528582,18.264221 13.291696,25.230495 11.500037,31.436501 z"
             style="fill:#404040;"/>
          </a>
         </g>
        </svg>
</svg>
